<svg width="17" height="7" viewBox="0 0 17 7" fill="none" xmlns="http://www.w3.org/2000/svg">
<path d="M0.552979 3.49514C0.552979 2.8103 0.641754 2.18072 0.819304 1.6064C0.998666 1.03027 1.25412 0.500336 1.58567 0.0166016H2.15093C2.02049 0.195964 1.89819 0.416996 1.78405 0.679698C1.67173 0.940588 1.57299 1.22775 1.48784 1.54118C1.40268 1.8528 1.33565 2.17529 1.28673 2.50865C1.23963 2.84201 1.21607 3.17084 1.21607 3.49514C1.21607 3.92633 1.25774 4.36387 1.34108 4.80774C1.42442 5.25162 1.53675 5.66379 1.67807 6.04425C1.81938 6.42472 1.977 6.73453 2.15093 6.97368H1.58567C1.25412 6.48994 0.998666 5.96092 0.819304 5.38659C0.641754 4.81046 0.552979 4.17998 0.552979 3.49514Z" fill="#9B9B9B"/>
<path d="M5.04314 0.712309V6.27797H4.36918V1.41889H4.33657L2.97776 2.32113V1.6363L4.36918 0.712309H5.04314Z" fill="#9B9B9B"/>
<path d="M6.81774 6.27797L9.30707 1.35366V1.31018H6.43728V0.712309H10.0028V1.34279L7.52432 6.27797H6.81774Z" fill="#9B9B9B"/>
<path d="M12.6864 6.35406C12.3132 6.35406 11.9835 6.28793 11.6972 6.15568C11.4128 6.02161 11.1908 5.83772 11.0314 5.604C10.872 5.36848 10.7931 5.10034 10.795 4.79959C10.7931 4.56406 10.8393 4.34666 10.9336 4.14736C11.0278 3.94626 11.1564 3.77868 11.3195 3.64461C11.4843 3.50873 11.6682 3.42267 11.8711 3.38643V3.35382C11.6048 3.28498 11.3928 3.13551 11.2352 2.90542C11.0776 2.67352 10.9997 2.40991 11.0015 2.11459C10.9997 1.83196 11.0712 1.57923 11.2162 1.35638C11.3611 1.13354 11.5604 0.9578 11.8141 0.829166C12.0695 0.700533 12.3603 0.636216 12.6864 0.636216C13.0089 0.636216 13.297 0.700533 13.5506 0.829166C13.8043 0.9578 14.0035 1.13354 14.1485 1.35638C14.2952 1.57923 14.3695 1.83196 14.3713 2.11459C14.3695 2.40991 14.2889 2.67352 14.1295 2.90542C13.9718 3.13551 13.7626 3.28498 13.5017 3.35382V3.38643C13.7028 3.42267 13.884 3.50873 14.0452 3.64461C14.2065 3.77868 14.3351 3.94626 14.4311 4.14736C14.5271 4.34666 14.5761 4.56406 14.5779 4.79959C14.5761 5.10034 14.4945 5.36848 14.3333 5.604C14.1739 5.83772 13.9519 6.02161 13.6675 6.15568C13.3848 6.28793 13.0578 6.35406 12.6864 6.35406ZM12.6864 5.75619C12.9382 5.75619 13.1557 5.71542 13.3386 5.6339C13.5216 5.55237 13.6629 5.43732 13.7626 5.28876C13.8622 5.1402 13.913 4.96627 13.9148 4.76698C13.913 4.55682 13.8586 4.37111 13.7517 4.20987C13.6448 4.04862 13.499 3.9218 13.3142 3.8294C13.1312 3.73701 12.9219 3.69081 12.6864 3.69081C12.4491 3.69081 12.2371 3.73701 12.0505 3.8294C11.8657 3.9218 11.7199 4.04862 11.613 4.20987C11.5079 4.37111 11.4562 4.55682 11.4581 4.76698C11.4562 4.96627 11.5043 5.1402 11.6021 5.28876C11.7017 5.43732 11.844 5.55237 12.0288 5.6339C12.2135 5.71542 12.4328 5.75619 12.6864 5.75619ZM12.6864 3.11467C12.8857 3.11467 13.0623 3.07482 13.2163 2.9951C13.3722 2.91538 13.4944 2.80396 13.5832 2.66083C13.672 2.51771 13.7173 2.35012 13.7191 2.15808C13.7173 1.96966 13.6729 1.80569 13.5859 1.66619C13.499 1.52487 13.3785 1.41617 13.2245 1.34008C13.0705 1.26217 12.8911 1.22322 12.6864 1.22322C12.4781 1.22322 12.296 1.26217 12.1402 1.34008C11.9844 1.41617 11.8639 1.52487 11.7787 1.66619C11.6936 1.80569 11.6519 1.96966 11.6537 2.15808C11.6519 2.35012 11.6945 2.51771 11.7814 2.66083C11.8702 2.80396 11.9925 2.91538 12.1483 2.9951C12.3041 3.07482 12.4835 3.11467 12.6864 3.11467Z" fill="#9B9B9B"/>
<path d="M16.9999 3.49514C16.9999 4.17998 16.9103 4.81046 16.7309 5.38659C16.5533 5.96092 16.2988 6.48994 15.9672 6.97368H15.402C15.5324 6.79431 15.6538 6.57328 15.7661 6.31058C15.8803 6.04969 15.9799 5.76343 16.0651 5.45182C16.1502 5.13839 16.2164 4.81499 16.2635 4.48163C16.3124 4.14646 16.3368 3.81763 16.3368 3.49514C16.3368 3.06395 16.2952 2.62641 16.2118 2.18253C16.1285 1.73866 16.0162 1.32649 15.8748 0.946023C15.7335 0.565558 15.5759 0.255751 15.402 0.0166016H15.9672C16.2988 0.500336 16.5533 1.03027 16.7309 1.6064C16.9103 2.18072 16.9999 2.8103 16.9999 3.49514Z" fill="#9B9B9B"/>
</svg>
