<svg width="17" height="8" viewBox="0 0 17 8" fill="none" xmlns="http://www.w3.org/2000/svg">
<path d="M0.552979 3.69533C0.552979 3.0105 0.641754 2.38092 0.819304 1.8066C0.998666 1.23046 1.25412 0.700531 1.58567 0.216797H2.15093C2.02049 0.396159 1.89819 0.617191 1.78405 0.879893C1.67173 1.14078 1.57299 1.42794 1.48784 1.74137C1.40268 2.05299 1.33565 2.37548 1.28673 2.70884C1.23963 3.0422 1.21607 3.37103 1.21607 3.69533C1.21607 4.12653 1.25774 4.56406 1.34108 5.00794C1.42442 5.45181 1.53675 5.86399 1.67807 6.24445C1.81938 6.62492 1.977 6.93472 2.15093 7.17387H1.58567C1.25412 6.69014 0.998666 6.16111 0.819304 5.58679C0.641754 5.01066 0.552979 4.38017 0.552979 3.69533Z" fill="#9B9B9B"/>
<path d="M5.04314 0.912505V6.47816H4.36918V1.61908H4.33657L2.97776 2.52133V1.83649L4.36918 0.912505H5.04314Z" fill="#9B9B9B"/>
<path d="M6.81774 6.47816L9.30707 1.55386V1.51038H6.43728V0.912505H10.0028V1.54299L7.52432 6.47816H6.81774Z" fill="#9B9B9B"/>
<path d="M12.6864 6.55426C12.3132 6.55426 11.9835 6.48813 11.6972 6.35587C11.4128 6.2218 11.1908 6.03791 11.0314 5.8042C10.872 5.56867 10.7931 5.30053 10.795 4.99979C10.7931 4.76426 10.8393 4.54685 10.9336 4.34756C11.0278 4.14646 11.1564 3.97887 11.3195 3.8448C11.4843 3.70892 11.6682 3.62286 11.8711 3.58663V3.55402C11.6048 3.48517 11.3928 3.3357 11.2352 3.10561C11.0776 2.87371 10.9997 2.6101 11.0015 2.31479C10.9997 2.03216 11.0712 1.77942 11.2162 1.55658C11.3611 1.33373 11.5604 1.15799 11.8141 1.02936C12.0695 0.900728 12.3603 0.836411 12.6864 0.836411C13.0089 0.836411 13.297 0.900728 13.5506 1.02936C13.8043 1.15799 14.0035 1.33373 14.1485 1.55658C14.2952 1.77942 14.3695 2.03216 14.3713 2.31479C14.3695 2.6101 14.2889 2.87371 14.1295 3.10561C13.9718 3.3357 13.7626 3.48517 13.5017 3.55402V3.58663C13.7028 3.62286 13.884 3.70892 14.0452 3.8448C14.2065 3.97887 14.3351 4.14646 14.4311 4.34756C14.5271 4.54685 14.5761 4.76426 14.5779 4.99979C14.5761 5.30053 14.4945 5.56867 14.3333 5.8042C14.1739 6.03791 13.9519 6.2218 13.6675 6.35587C13.3848 6.48813 13.0578 6.55426 12.6864 6.55426ZM12.6864 5.95638C12.9382 5.95638 13.1557 5.91562 13.3386 5.83409C13.5216 5.75256 13.6629 5.63752 13.7626 5.48896C13.8622 5.34039 13.913 5.16647 13.9148 4.96717C13.913 4.75701 13.8586 4.57131 13.7517 4.41006C13.6448 4.24882 13.499 4.122 13.3142 4.0296C13.1312 3.9372 12.9219 3.891 12.6864 3.891C12.4491 3.891 12.2371 3.9372 12.0505 4.0296C11.8657 4.122 11.7199 4.24882 11.613 4.41006C11.5079 4.57131 11.4562 4.75701 11.4581 4.96717C11.4562 5.16647 11.5043 5.34039 11.6021 5.48896C11.7017 5.63752 11.844 5.75256 12.0288 5.83409C12.2135 5.91562 12.4328 5.95638 12.6864 5.95638ZM12.6864 3.31487C12.8857 3.31487 13.0623 3.27501 13.2163 3.19529C13.3722 3.11558 13.4944 3.00416 13.5832 2.86103C13.672 2.7179 13.7173 2.55032 13.7191 2.35827C13.7173 2.16985 13.6729 2.00589 13.5859 1.86638C13.499 1.72507 13.3785 1.61636 13.2245 1.54027C13.0705 1.46237 12.8911 1.42341 12.6864 1.42341C12.4781 1.42341 12.296 1.46237 12.1402 1.54027C11.9844 1.61636 11.8639 1.72507 11.7787 1.86638C11.6936 2.00589 11.6519 2.16985 11.6537 2.35827C11.6519 2.55032 11.6945 2.7179 11.7814 2.86103C11.8702 3.00416 11.9925 3.11558 12.1483 3.19529C12.3041 3.27501 12.4835 3.31487 12.6864 3.31487Z" fill="#9B9B9B"/>
<path d="M16.9999 3.69533C16.9999 4.38017 16.9103 5.01066 16.7309 5.58679C16.5533 6.16111 16.2988 6.69014 15.9672 7.17387H15.402C15.5324 6.99451 15.6538 6.77348 15.7661 6.51077C15.8803 6.24988 15.9799 5.96363 16.0651 5.65201C16.1502 5.33858 16.2164 5.01519 16.2635 4.68183C16.3124 4.34665 16.3368 4.01782 16.3368 3.69533C16.3368 3.26414 16.2952 2.82661 16.2118 2.38273C16.1285 1.93885 16.0162 1.52668 15.8748 1.14622C15.7335 0.765754 15.5759 0.455947 15.402 0.216797H15.9672C16.2988 0.700531 16.5533 1.23046 16.7309 1.8066C16.9103 2.38092 16.9999 3.0105 16.9999 3.69533Z" fill="#9B9B9B"/>
</svg>
