<svg width="17" height="8" viewBox="0 0 17 8" fill="none" xmlns="http://www.w3.org/2000/svg">
<path d="M0.552979 3.59475C0.552979 2.90991 0.641754 2.28033 0.819304 1.70601C0.998666 1.12988 1.25412 0.599945 1.58567 0.116211H2.15093C2.02049 0.295573 1.89819 0.516605 1.78405 0.779307C1.67173 1.0402 1.57299 1.32736 1.48784 1.64079C1.40268 1.95241 1.33565 2.2749 1.28673 2.60826C1.23963 2.94162 1.21607 3.27045 1.21607 3.59475C1.21607 4.02594 1.25774 4.46348 1.34108 4.90735C1.42442 5.35123 1.53675 5.7634 1.67807 6.14386C1.81938 6.52433 1.977 6.83414 2.15093 7.07329H1.58567C1.25412 6.58955 0.998666 6.06052 0.819304 5.4862C0.641754 4.91007 0.552979 4.27959 0.552979 3.59475Z" fill="#9B9B9B"/>
<path d="M5.04314 0.811919V6.37758H4.36918V1.5185H4.33657L2.97776 2.42074V1.7359L4.36918 0.811919H5.04314Z" fill="#9B9B9B"/>
<path d="M6.81774 6.37758L9.30707 1.45327V1.40979H6.43728V0.811919H10.0028V1.4424L7.52432 6.37758H6.81774Z" fill="#9B9B9B"/>
<path d="M12.6864 6.45367C12.3132 6.45367 11.9835 6.38754 11.6972 6.25529C11.4128 6.12122 11.1908 5.93733 11.0314 5.70361C10.872 5.46809 10.7931 5.19995 10.795 4.8992C10.7931 4.66367 10.8393 4.44627 10.9336 4.24697C11.0278 4.04587 11.1564 3.87829 11.3195 3.74422C11.4843 3.60834 11.6682 3.52228 11.8711 3.48604V3.45343C11.6048 3.38459 11.3928 3.23512 11.2352 3.00503C11.0776 2.77312 10.9997 2.50952 11.0015 2.2142C10.9997 1.93157 11.0712 1.67884 11.2162 1.45599C11.3611 1.23315 11.5604 1.05741 11.8141 0.928776C12.0695 0.800142 12.3603 0.735826 12.6864 0.735826C13.0089 0.735826 13.297 0.800142 13.5506 0.928776C13.8043 1.05741 14.0035 1.23315 14.1485 1.45599C14.2952 1.67884 14.3695 1.93157 14.3713 2.2142C14.3695 2.50952 14.2889 2.77312 14.1295 3.00503C13.9718 3.23512 13.7626 3.38459 13.5017 3.45343V3.48604C13.7028 3.52228 13.884 3.60834 14.0452 3.74422C14.2065 3.87829 14.3351 4.04587 14.4311 4.24697C14.5271 4.44627 14.5761 4.66367 14.5779 4.8992C14.5761 5.19995 14.4945 5.46809 14.3333 5.70361C14.1739 5.93733 13.9519 6.12122 13.6675 6.25529C13.3848 6.38754 13.0578 6.45367 12.6864 6.45367ZM12.6864 5.8558C12.9382 5.8558 13.1557 5.81503 13.3386 5.7335C13.5216 5.65198 13.6629 5.53693 13.7626 5.38837C13.8622 5.23981 13.913 5.06588 13.9148 4.86659C13.913 4.65643 13.8586 4.47072 13.7517 4.30948C13.6448 4.14823 13.499 4.02141 13.3142 3.92901C13.1312 3.83662 12.9219 3.79042 12.6864 3.79042C12.4491 3.79042 12.2371 3.83662 12.0505 3.92901C11.8657 4.02141 11.7199 4.14823 11.613 4.30948C11.5079 4.47072 11.4562 4.65643 11.4581 4.86659C11.4562 5.06588 11.5043 5.23981 11.6021 5.38837C11.7017 5.53693 11.844 5.65198 12.0288 5.7335C12.2135 5.81503 12.4328 5.8558 12.6864 5.8558ZM12.6864 3.21428C12.8857 3.21428 13.0623 3.17443 13.2163 3.09471C13.3722 3.01499 13.4944 2.90357 13.5832 2.76044C13.672 2.61732 13.7173 2.44973 13.7191 2.25769C13.7173 2.06926 13.6729 1.9053 13.5859 1.7658C13.499 1.62448 13.3785 1.51578 13.2245 1.43969C13.0705 1.36178 12.8911 1.32283 12.6864 1.32283C12.4781 1.32283 12.296 1.36178 12.1402 1.43969C11.9844 1.51578 11.8639 1.62448 11.7787 1.7658C11.6936 1.9053 11.6519 2.06926 11.6537 2.25769C11.6519 2.44973 11.6945 2.61732 11.7814 2.76044C11.8702 2.90357 11.9925 3.01499 12.1483 3.09471C12.3041 3.17443 12.4835 3.21428 12.6864 3.21428Z" fill="#9B9B9B"/>
<path d="M16.9999 3.59475C16.9999 4.27959 16.9103 4.91007 16.7309 5.4862C16.5533 6.06052 16.2988 6.58955 15.9672 7.07329H15.402C15.5324 6.89392 15.6538 6.67289 15.7661 6.41019C15.8803 6.1493 15.9799 5.86304 16.0651 5.55143C16.1502 5.23799 16.2164 4.9146 16.2635 4.58124C16.3124 4.24607 16.3368 3.91724 16.3368 3.59475C16.3368 3.16355 16.2952 2.72602 16.2118 2.28214C16.1285 1.83827 16.0162 1.4261 15.8748 1.04563C15.7335 0.665168 15.5759 0.355361 15.402 0.116211H15.9672C16.2988 0.599945 16.5533 1.12988 16.7309 1.70601C16.9103 2.28033 16.9999 2.90991 16.9999 3.59475Z" fill="#9B9B9B"/>
</svg>
