<svg width="17" height="8" viewBox="0 0 17 8" fill="none" xmlns="http://www.w3.org/2000/svg">
<path d="M0.552979 3.79494C0.552979 3.11011 0.641754 2.48053 0.819304 1.90621C0.998666 1.33007 1.25412 0.80014 1.58567 0.316406H2.15093C2.02049 0.495769 1.89819 0.716801 1.78405 0.979503C1.67173 1.24039 1.57299 1.52755 1.48784 1.84098C1.40268 2.1526 1.33565 2.47509 1.28673 2.80845C1.23963 3.14181 1.21607 3.47064 1.21607 3.79494C1.21607 4.22614 1.25774 4.66367 1.34108 5.10755C1.42442 5.55142 1.53675 5.96359 1.67807 6.34406C1.81938 6.72452 1.977 7.03433 2.15093 7.27348H1.58567C1.25412 6.78975 0.998666 6.26072 0.819304 5.6864C0.641754 5.11027 0.552979 4.47978 0.552979 3.79494Z" fill="#9B9B9B"/>
<path d="M5.04314 1.01211V6.57777H4.36918V1.71869H4.33657L2.97776 2.62094V1.9361L4.36918 1.01211H5.04314Z" fill="#9B9B9B"/>
<path d="M6.81774 6.57777L9.30707 1.65347V1.60999H6.43728V1.01211H10.0028V1.6426L7.52432 6.57777H6.81774Z" fill="#9B9B9B"/>
<path d="M12.6864 6.65387C12.3132 6.65387 11.9835 6.58774 11.6972 6.45548C11.4128 6.32141 11.1908 6.13752 11.0314 5.90381C10.872 5.66828 10.7931 5.40014 10.795 5.09939C10.7931 4.86387 10.8393 4.64646 10.9336 4.44717C11.0278 4.24607 11.1564 4.07848 11.3195 3.94441C11.4843 3.80853 11.6682 3.72247 11.8711 3.68624V3.65363C11.6048 3.58478 11.3928 3.43531 11.2352 3.20522C11.0776 2.97332 10.9997 2.70971 11.0015 2.4144C10.9997 2.13177 11.0712 1.87903 11.2162 1.65619C11.3611 1.43334 11.5604 1.2576 11.8141 1.12897C12.0695 1.00034 12.3603 0.936021 12.6864 0.936021C13.0089 0.936021 13.297 1.00034 13.5506 1.12897C13.8043 1.2576 14.0035 1.43334 14.1485 1.65619C14.2952 1.87903 14.3695 2.13177 14.3713 2.4144C14.3695 2.70971 14.2889 2.97332 14.1295 3.20522C13.9718 3.43531 13.7626 3.58478 13.5017 3.65363V3.68624C13.7028 3.72247 13.884 3.80853 14.0452 3.94441C14.2065 4.07848 14.3351 4.24607 14.4311 4.44717C14.5271 4.64646 14.5761 4.86387 14.5779 5.09939C14.5761 5.40014 14.4945 5.66828 14.3333 5.90381C14.1739 6.13752 13.9519 6.32141 13.6675 6.45548C13.3848 6.58774 13.0578 6.65387 12.6864 6.65387ZM12.6864 6.05599C12.9382 6.05599 13.1557 6.01523 13.3386 5.9337C13.5216 5.85217 13.6629 5.73713 13.7626 5.58856C13.8622 5.44 13.913 5.26608 13.9148 5.06678C13.913 4.85662 13.8586 4.67092 13.7517 4.50967C13.6448 4.34843 13.499 4.22161 13.3142 4.12921C13.1312 4.03681 12.9219 3.99061 12.6864 3.99061C12.4491 3.99061 12.2371 4.03681 12.0505 4.12921C11.8657 4.22161 11.7199 4.34843 11.613 4.50967C11.5079 4.67092 11.4562 4.85662 11.4581 5.06678C11.4562 5.26608 11.5043 5.44 11.6021 5.58856C11.7017 5.73713 11.844 5.85217 12.0288 5.9337C12.2135 6.01523 12.4328 6.05599 12.6864 6.05599ZM12.6864 3.41448C12.8857 3.41448 13.0623 3.37462 13.2163 3.2949C13.3722 3.21519 13.4944 3.10377 13.5832 2.96064C13.672 2.81751 13.7173 2.64992 13.7191 2.45788C13.7173 2.26946 13.6729 2.1055 13.5859 1.96599C13.499 1.82468 13.3785 1.71597 13.2245 1.63988C13.0705 1.56198 12.8911 1.52302 12.6864 1.52302C12.4781 1.52302 12.296 1.56198 12.1402 1.63988C11.9844 1.71597 11.8639 1.82468 11.7787 1.96599C11.6936 2.1055 11.6519 2.26946 11.6537 2.45788C11.6519 2.64992 11.6945 2.81751 11.7814 2.96064C11.8702 3.10377 11.9925 3.21519 12.1483 3.2949C12.3041 3.37462 12.4835 3.41448 12.6864 3.41448Z" fill="#9B9B9B"/>
<path d="M16.9999 3.79494C16.9999 4.47978 16.9103 5.11027 16.7309 5.6864C16.5533 6.26072 16.2988 6.78975 15.9672 7.27348H15.402C15.5324 7.09412 15.6538 6.87309 15.7661 6.61038C15.8803 6.34949 15.9799 6.06324 16.0651 5.75162C16.1502 5.43819 16.2164 5.1148 16.2635 4.78144C16.3124 4.44626 16.3368 4.11743 16.3368 3.79494C16.3368 3.36375 16.2952 2.92622 16.2118 2.48234C16.1285 2.03846 16.0162 1.62629 15.8748 1.24583C15.7335 0.865363 15.5759 0.555556 15.402 0.316406H15.9672C16.2988 0.80014 16.5533 1.33007 16.7309 1.90621C16.9103 2.48053 16.9999 3.11011 16.9999 3.79494Z" fill="#9B9B9B"/>
</svg>
