<svg width="17" height="8" viewBox="0 0 17 8" fill="none" xmlns="http://www.w3.org/2000/svg">
<path d="M0.552979 4.39455C0.552979 3.70972 0.641754 3.08014 0.819304 2.50582C0.998666 1.92968 1.25412 1.39975 1.58567 0.916016H2.15093C2.02049 1.09538 1.89819 1.31641 1.78405 1.57911C1.67173 1.84 1.57299 2.12716 1.48784 2.44059C1.40268 2.75221 1.33565 3.0747 1.28673 3.40806C1.23963 3.74142 1.21607 4.07025 1.21607 4.39455C1.21607 4.82575 1.25774 5.26328 1.34108 5.70716C1.42442 6.15103 1.53675 6.5632 1.67807 6.94367C1.81938 7.32413 1.977 7.63394 2.15093 7.87309H1.58567C1.25412 7.38936 0.998666 6.86033 0.819304 6.28601C0.641754 5.70988 0.552979 5.07939 0.552979 4.39455Z" fill="#9B9B9B"/>
<path d="M5.04314 1.61172V7.17738H4.36918V2.3183H4.33657L2.97776 3.22055V2.53571L4.36918 1.61172H5.04314Z" fill="#9B9B9B"/>
<path d="M6.81774 7.17738L9.30707 2.25308V2.2096H6.43728V1.61172H10.0028V2.24221L7.52432 7.17738H6.81774Z" fill="#9B9B9B"/>
<path d="M12.6864 7.25348C12.3132 7.25348 11.9835 7.18735 11.6972 7.05509C11.4128 6.92102 11.1908 6.73713 11.0314 6.50342C10.872 6.26789 10.7931 5.99975 10.795 5.699C10.7931 5.46348 10.8393 5.24607 10.9336 5.04678C11.0278 4.84568 11.1564 4.67809 11.3195 4.54402C11.4843 4.40814 11.6682 4.32208 11.8711 4.28585V4.25324C11.6048 4.18439 11.3928 4.03492 11.2352 3.80483C11.0776 3.57293 10.9997 3.30932 11.0015 3.01401C10.9997 2.73138 11.0712 2.47864 11.2162 2.2558C11.3611 2.03295 11.5604 1.85721 11.8141 1.72858C12.0695 1.59995 12.3603 1.53563 12.6864 1.53563C13.0089 1.53563 13.297 1.59995 13.5506 1.72858C13.8043 1.85721 14.0035 2.03295 14.1485 2.2558C14.2952 2.47864 14.3695 2.73138 14.3713 3.01401C14.3695 3.30932 14.2889 3.57293 14.1295 3.80483C13.9718 4.03492 13.7626 4.18439 13.5017 4.25324V4.28585C13.7028 4.32208 13.884 4.40814 14.0452 4.54402C14.2065 4.67809 14.3351 4.84568 14.4311 5.04678C14.5271 5.24607 14.5761 5.46348 14.5779 5.699C14.5761 5.99975 14.4945 6.26789 14.3333 6.50342C14.1739 6.73713 13.9519 6.92102 13.6675 7.05509C13.3848 7.18735 13.0578 7.25348 12.6864 7.25348ZM12.6864 6.6556C12.9382 6.6556 13.1557 6.61484 13.3386 6.53331C13.5216 6.45178 13.6629 6.33674 13.7626 6.18817C13.8622 6.03961 13.913 5.86568 13.9148 5.66639C13.913 5.45623 13.8586 5.27053 13.7517 5.10928C13.6448 4.94804 13.499 4.82122 13.3142 4.72882C13.1312 4.63642 12.9219 4.59022 12.6864 4.59022C12.4491 4.59022 12.2371 4.63642 12.0505 4.72882C11.8657 4.82122 11.7199 4.94804 11.613 5.10928C11.5079 5.27053 11.4562 5.45623 11.4581 5.66639C11.4562 5.86568 11.5043 6.03961 11.6021 6.18817C11.7017 6.33674 11.844 6.45178 12.0288 6.53331C12.2135 6.61484 12.4328 6.6556 12.6864 6.6556ZM12.6864 4.01409C12.8857 4.01409 13.0623 3.97423 13.2163 3.89451C13.3722 3.8148 13.4944 3.70337 13.5832 3.56025C13.672 3.41712 13.7173 3.24953 13.7191 3.05749C13.7173 2.86907 13.6729 2.70511 13.5859 2.5656C13.499 2.42429 13.3785 2.31558 13.2245 2.23949C13.0705 2.16159 12.8911 2.12263 12.6864 2.12263C12.4781 2.12263 12.296 2.16159 12.1402 2.23949C11.9844 2.31558 11.8639 2.42429 11.7787 2.5656C11.6936 2.70511 11.6519 2.86907 11.6537 3.05749C11.6519 3.24953 11.6945 3.41712 11.7814 3.56025C11.8702 3.70337 11.9925 3.8148 12.1483 3.89451C12.3041 3.97423 12.4835 4.01409 12.6864 4.01409Z" fill="#9B9B9B"/>
<path d="M16.9999 4.39455C16.9999 5.07939 16.9103 5.70988 16.7309 6.28601C16.5533 6.86033 16.2988 7.38936 15.9672 7.87309H15.402C15.5324 7.69373 15.6538 7.4727 15.7661 7.20999C15.8803 6.9491 15.9799 6.66285 16.0651 6.35123C16.1502 6.0378 16.2164 5.7144 16.2635 5.38104C16.3124 5.04587 16.3368 4.71704 16.3368 4.39455C16.3368 3.96336 16.2952 3.52582 16.2118 3.08195C16.1285 2.63807 16.0162 2.2259 15.8748 1.84544C15.7335 1.46497 15.5759 1.15517 15.402 0.916016H15.9672C16.2988 1.39975 16.5533 1.92968 16.7309 2.50582C16.9103 3.08014 16.9999 3.70972 16.9999 4.39455Z" fill="#9B9B9B"/>
</svg>
