<svg width="19" height="19" viewBox="0 0 19 19" fill="none" xmlns="http://www.w3.org/2000/svg">
<path d="M2.04705 3.40174C1.74753 3.76117 1.5835 4.21423 1.5835 4.68211V15.208C1.5835 16.8649 2.92664 18.208 4.5835 18.208H14.4168C16.0737 18.208 17.4168 16.8649 17.4168 15.208V4.68211C17.4168 4.21423 17.2528 3.76117 16.9533 3.40174L15.3776 1.51097C14.9976 1.05499 14.4348 0.791339 13.8412 0.791339H5.15914C4.56558 0.791339 4.00268 1.05499 3.62269 1.51097L2.04705 3.40174Z" stroke="#14142B" stroke-width="1.58333"/>
<path d="M1.5835 4.35449H17.4168" stroke="#14142B" stroke-width="1.58333"/>
<path d="M12.6668 7.91699C12.6668 9.66589 11.2491 11.0837 9.50016 11.0837C7.75126 11.0837 6.3335 9.66589 6.3335 7.91699" stroke="#14142B" stroke-width="1.58333" stroke-linecap="round"/>
</svg>
