<svg width="20" height="21" viewBox="0 0 20 21" fill="none" xmlns="http://www.w3.org/2000/svg">
<path fill-rule="evenodd" clip-rule="evenodd" d="M3.27679 0.314453H6.46084C7.78911 0.314453 8.8536 1.46445 8.8536 2.87545V6.28445C8.8536 7.70445 7.78911 8.84445 6.46084 8.84445H3.27679C1.95795 8.84445 0.884033 7.70445 0.884033 6.28445V2.87545C0.884033 1.46445 1.95795 0.314453 3.27679 0.314453ZM3.27679 11.7842H6.46084C7.78911 11.7842 8.8536 12.9252 8.8536 14.3452V17.7542C8.8536 19.1642 7.78911 20.3142 6.46084 20.3142H3.27679C1.95795 20.3142 0.884033 19.1642 0.884033 17.7542V14.3452C0.884033 12.9252 1.95795 11.7842 3.27679 11.7842ZM17.332 0.314453H14.1479C12.8196 0.314453 11.7551 1.46445 11.7551 2.87545V6.28445C11.7551 7.70445 12.8196 8.84445 14.1479 8.84445H17.332C18.6508 8.84445 19.7247 7.70445 19.7247 6.28445V2.87545C19.7247 1.46445 18.6508 0.314453 17.332 0.314453ZM14.1479 11.7842H17.332C18.6508 11.7842 19.7247 12.9252 19.7247 14.3452V17.7542C19.7247 19.1642 18.6508 20.3142 17.332 20.3142H14.1479C12.8196 20.3142 11.7551 19.1642 11.7551 17.7542V14.3452C11.7551 12.9252 12.8196 11.7842 14.1479 11.7842Z" fill="#CFD1DE"/>
</svg>
