<svg width="20" height="21" viewBox="0 0 20 21" fill="none" xmlns="http://www.w3.org/2000/svg">
<path fill-rule="evenodd" clip-rule="evenodd" d="M2.54 0.3125H5.92C7.33 0.3125 8.46 1.4625 8.46 2.8735V6.2825C8.46 7.7025 7.33 8.8425 5.92 8.8425H2.54C1.14 8.8425 0 7.7025 0 6.2825V2.8735C0 1.4625 1.14 0.3125 2.54 0.3125ZM2.54 11.7822H5.92C7.33 11.7822 8.46 12.9232 8.46 14.3432V17.7522C8.46 19.1622 7.33 20.3122 5.92 20.3122H2.54C1.14 20.3122 0 19.1622 0 17.7522V14.3432C0 12.9232 1.14 11.7822 2.54 11.7822ZM17.4601 0.3125H14.0801C12.6701 0.3125 11.5401 1.4625 11.5401 2.8735V6.2825C11.5401 7.7025 12.6701 8.8425 14.0801 8.8425H17.4601C18.8601 8.8425 20.0001 7.7025 20.0001 6.2825V2.8735C20.0001 1.4625 18.8601 0.3125 17.4601 0.3125ZM14.0801 11.7822H17.4601C18.8601 11.7822 20.0001 12.9232 20.0001 14.3432V17.7522C20.0001 19.1622 18.8601 20.3122 17.4601 20.3122H14.0801C12.6701 20.3122 11.5401 19.1622 11.5401 17.7522V14.3432C11.5401 12.9232 12.6701 11.7822 14.0801 11.7822Z" fill="#CFD1DE"/>
</svg>
