<svg width="20" height="20" viewBox="0 0 20 20" fill="none" xmlns="http://www.w3.org/2000/svg">
<path fill-rule="evenodd" clip-rule="evenodd" d="M3.38413 0H6.56819C7.89645 0 8.96094 1.15 8.96094 2.561V5.97C8.96094 7.39 7.89645 8.53 6.56819 8.53H3.38413C2.06529 8.53 0.991379 7.39 0.991379 5.97V2.561C0.991379 1.15 2.06529 0 3.38413 0ZM3.38413 11.4697H6.56819C7.89645 11.4697 8.96094 12.6107 8.96094 14.0307V17.4397C8.96094 18.8497 7.89645 19.9997 6.56819 19.9997H3.38413C2.06529 19.9997 0.991379 18.8497 0.991379 17.4397V14.0307C0.991379 12.6107 2.06529 11.4697 3.38413 11.4697ZM17.4393 0H14.2552C12.927 0 11.8625 1.15 11.8625 2.561V5.97C11.8625 7.39 12.927 8.53 14.2552 8.53H17.4393C18.7581 8.53 19.8321 7.39 19.8321 5.97V2.561C19.8321 1.15 18.7581 0 17.4393 0ZM14.2552 11.4697H17.4393C18.7581 11.4697 19.8321 12.6107 19.8321 14.0307V17.4397C19.8321 18.8497 18.7581 19.9997 17.4393 19.9997H14.2552C12.927 19.9997 11.8625 18.8497 11.8625 17.4397V14.0307C11.8625 12.6107 12.927 11.4697 14.2552 11.4697Z" fill="#CFD1DE"/>
</svg>
