<svg width="20" height="20" viewBox="0 0 20 20" fill="none" xmlns="http://www.w3.org/2000/svg">
<path fill-rule="evenodd" clip-rule="evenodd" d="M3.27671 0H6.46077C7.78903 0 8.85352 1.15 8.85352 2.561V5.97C8.85352 7.39 7.78903 8.53 6.46077 8.53H3.27671C1.95787 8.53 0.883957 7.39 0.883957 5.97V2.561C0.883957 1.15 1.95787 0 3.27671 0ZM3.27671 11.4697H6.46077C7.78903 11.4697 8.85352 12.6107 8.85352 14.0307V17.4397C8.85352 18.8497 7.78903 19.9997 6.46077 19.9997H3.27671C1.95787 19.9997 0.883957 18.8497 0.883957 17.4397V14.0307C0.883957 12.6107 1.95787 11.4697 3.27671 11.4697ZM17.3319 0H14.1478C12.8196 0 11.7551 1.15 11.7551 2.561V5.97C11.7551 7.39 12.8196 8.53 14.1478 8.53H17.3319C18.6507 8.53 19.7246 7.39 19.7246 5.97V2.561C19.7246 1.15 18.6507 0 17.3319 0ZM14.1478 11.4697H17.3319C18.6507 11.4697 19.7246 12.6107 19.7246 14.0307V17.4397C19.7246 18.8497 18.6507 19.9997 17.3319 19.9997H14.1478C12.8196 19.9997 11.7551 18.8497 11.7551 17.4397V14.0307C11.7551 12.6107 12.8196 11.4697 14.1478 11.4697Z" fill="#CFD1DE"/>
</svg>
