<svg width="20" height="20" viewBox="0 0 20 20" fill="none" xmlns="http://www.w3.org/2000/svg">
<path fill-rule="evenodd" clip-rule="evenodd" d="M3.27679 0H6.46084C7.78911 0 8.8536 1.15 8.8536 2.561V5.97C8.8536 7.39 7.78911 8.53 6.46084 8.53H3.27679C1.95795 8.53 0.884033 7.39 0.884033 5.97V2.561C0.884033 1.15 1.95795 0 3.27679 0ZM3.27679 11.4697H6.46084C7.78911 11.4697 8.8536 12.6107 8.8536 14.0307V17.4397C8.8536 18.8497 7.78911 19.9997 6.46084 19.9997H3.27679C1.95795 19.9997 0.884033 18.8497 0.884033 17.4397V14.0307C0.884033 12.6107 1.95795 11.4697 3.27679 11.4697ZM17.332 0H14.1479C12.8196 0 11.7551 1.15 11.7551 2.561V5.97C11.7551 7.39 12.8196 8.53 14.1479 8.53H17.332C18.6508 8.53 19.7247 7.39 19.7247 5.97V2.561C19.7247 1.15 18.6508 0 17.332 0ZM14.1479 11.4697H17.332C18.6508 11.4697 19.7247 12.6107 19.7247 14.0307V17.4397C19.7247 18.8497 18.6508 19.9997 17.332 19.9997H14.1479C12.8196 19.9997 11.7551 18.8497 11.7551 17.4397V14.0307C11.7551 12.6107 12.8196 11.4697 14.1479 11.4697Z" fill="#55B3FF"/>
</svg>
