<svg width="20" height="20" viewBox="0 0 20 20" fill="none" xmlns="http://www.w3.org/2000/svg">
<path fill-rule="evenodd" clip-rule="evenodd" d="M3.27666 0H6.46072C7.78898 0 8.85348 1.15 8.85348 2.561V5.97C8.85348 7.39 7.78898 8.53 6.46072 8.53H3.27666C1.95782 8.53 0.883911 7.39 0.883911 5.97V2.561C0.883911 1.15 1.95782 0 3.27666 0ZM3.27666 11.4697H6.46072C7.78898 11.4697 8.85348 12.6107 8.85348 14.0307V17.4397C8.85348 18.8497 7.78898 19.9997 6.46072 19.9997H3.27666C1.95782 19.9997 0.883911 18.8497 0.883911 17.4397V14.0307C0.883911 12.6107 1.95782 11.4697 3.27666 11.4697ZM17.3318 0H14.1478C12.8195 0 11.755 1.15 11.755 2.561V5.97C11.755 7.39 12.8195 8.53 14.1478 8.53H17.3318C18.6507 8.53 19.7246 7.39 19.7246 5.97V2.561C19.7246 1.15 18.6507 0 17.3318 0ZM14.1478 11.4697H17.3318C18.6507 11.4697 19.7246 12.6107 19.7246 14.0307V17.4397C19.7246 18.8497 18.6507 19.9997 17.3318 19.9997H14.1478C12.8195 19.9997 11.755 18.8497 11.755 17.4397V14.0307C11.755 12.6107 12.8195 11.4697 14.1478 11.4697Z" fill="#55B3FF"/>
</svg>
