<svg width="20" height="20" viewBox="0 0 20 20" fill="none" xmlns="http://www.w3.org/2000/svg">
<path fill-rule="evenodd" clip-rule="evenodd" d="M3.27654 0H6.4606C7.78886 0 8.85335 1.15 8.85335 2.561V5.97C8.85335 7.39 7.78886 8.53 6.4606 8.53H3.27654C1.9577 8.53 0.883789 7.39 0.883789 5.97V2.561C0.883789 1.15 1.9577 0 3.27654 0ZM3.27654 11.4697H6.4606C7.78886 11.4697 8.85335 12.6107 8.85335 14.0307V17.4397C8.85335 18.8497 7.78886 19.9997 6.4606 19.9997H3.27654C1.9577 19.9997 0.883789 18.8497 0.883789 17.4397V14.0307C0.883789 12.6107 1.9577 11.4697 3.27654 11.4697ZM17.3317 0H14.1477C12.8194 0 11.7549 1.15 11.7549 2.561V5.97C11.7549 7.39 12.8194 8.53 14.1477 8.53H17.3317C18.6506 8.53 19.7245 7.39 19.7245 5.97V2.561C19.7245 1.15 18.6506 0 17.3317 0ZM14.1477 11.4697H17.3317C18.6506 11.4697 19.7245 12.6107 19.7245 14.0307V17.4397C19.7245 18.8497 18.6506 19.9997 17.3317 19.9997H14.1477C12.8194 19.9997 11.7549 18.8497 11.7549 17.4397V14.0307C11.7549 12.6107 12.8194 11.4697 14.1477 11.4697Z" fill="#CFD1DE"/>
</svg>
