<svg width="20" height="20" viewBox="0 0 20 20" fill="none" xmlns="http://www.w3.org/2000/svg">
<path fill-rule="evenodd" clip-rule="evenodd" d="M3.38415 0H6.56821C7.89647 0 8.96096 1.15 8.96096 2.561V5.97C8.96096 7.39 7.89647 8.53 6.56821 8.53H3.38415C2.06531 8.53 0.991394 7.39 0.991394 5.97V2.561C0.991394 1.15 2.06531 0 3.38415 0ZM3.38415 11.4697H6.56821C7.89647 11.4697 8.96096 12.6107 8.96096 14.0307V17.4397C8.96096 18.8497 7.89647 19.9997 6.56821 19.9997H3.38415C2.06531 19.9997 0.991394 18.8497 0.991394 17.4397V14.0307C0.991394 12.6107 2.06531 11.4697 3.38415 11.4697ZM17.4393 0H14.2553C12.927 0 11.8625 1.15 11.8625 2.561V5.97C11.8625 7.39 12.927 8.53 14.2553 8.53H17.4393C18.7582 8.53 19.8321 7.39 19.8321 5.97V2.561C19.8321 1.15 18.7582 0 17.4393 0ZM14.2553 11.4697H17.4393C18.7582 11.4697 19.8321 12.6107 19.8321 14.0307V17.4397C19.8321 18.8497 18.7582 19.9997 17.4393 19.9997H14.2553C12.927 19.9997 11.8625 18.8497 11.8625 17.4397V14.0307C11.8625 12.6107 12.927 11.4697 14.2553 11.4697Z" fill="#CFD1DE"/>
</svg>
