<svg width="21" height="13" viewBox="0 0 21 13" fill="none" xmlns="http://www.w3.org/2000/svg">
<path fill-rule="evenodd" clip-rule="evenodd" d="M18.9826 0.499939H17.816C17.1716 0.499939 16.6493 1.00362 16.6493 1.62494V11.3749C16.6493 11.9963 17.1716 12.4999 17.816 12.4999H18.9826C19.627 12.4999 20.1493 11.9963 20.1493 11.3749V1.62494C20.1493 1.00362 19.627 0.499939 18.9826 0.499939ZM12.3258 3.12507H13.4924C14.1368 3.12507 14.6591 3.62875 14.6591 4.25007V11.3751C14.6591 11.9964 14.1368 12.5001 13.4924 12.5001H12.3258C11.6814 12.5001 11.1591 11.9964 11.1591 11.3751V4.25007C11.1591 3.62875 11.6814 3.12507 12.3258 3.12507ZM8.00224 5.74986H6.83557C6.19124 5.74986 5.66891 6.25354 5.66891 6.87486V11.3749C5.66891 11.9962 6.19124 12.4999 6.83557 12.4999H8.00224C8.64657 12.4999 9.16891 11.9962 9.16891 11.3749V6.87486C9.16891 6.25354 8.64657 5.74986 8.00224 5.74986ZM2.51204 7.99982H1.34538C0.701045 7.99982 0.178711 8.5035 0.178711 9.12482V11.3748C0.178711 11.9961 0.701045 12.4998 1.34538 12.4998H2.51204C3.15638 12.4998 3.67871 11.9961 3.67871 11.3748V9.12482C3.67871 8.5035 3.15638 7.99982 2.51204 7.99982Z" fill="black"/>
</svg>
