<svg width="20" height="13" viewBox="0 0 20 13" fill="none" xmlns="http://www.w3.org/2000/svg">
<path fill-rule="evenodd" clip-rule="evenodd" d="M18.8039 0.439453H17.6373C16.9929 0.439453 16.4706 0.943133 16.4706 1.56445V11.3145C16.4706 11.9358 16.9929 12.4395 17.6373 12.4395H18.8039C19.4482 12.4395 19.9706 11.9358 19.9706 11.3145V1.56445C19.9706 0.943133 19.4482 0.439453 18.8039 0.439453ZM12.1471 3.06459H13.3137C13.9581 3.06459 14.4804 3.56827 14.4804 4.18959V11.3146C14.4804 11.9359 13.9581 12.4396 13.3137 12.4396H12.1471C11.5027 12.4396 10.9804 11.9359 10.9804 11.3146V4.18959C10.9804 3.56827 11.5027 3.06459 12.1471 3.06459ZM7.82353 5.68937H6.65686C6.01253 5.68937 5.4902 6.19305 5.4902 6.81437V11.3144C5.4902 11.9357 6.01253 12.4394 6.65686 12.4394H7.82353C8.46786 12.4394 8.9902 11.9357 8.9902 11.3144V6.81437C8.9902 6.19305 8.46786 5.68937 7.82353 5.68937ZM2.33333 7.93934H1.16667C0.522334 7.93934 0 8.44302 0 9.06434V11.3143C0 11.9357 0.522334 12.4393 1.16667 12.4393H2.33333C2.97767 12.4393 3.5 11.9357 3.5 11.3143V9.06434C3.5 8.44302 2.97767 7.93934 2.33333 7.93934Z" fill="white"/>
</svg>
