<svg width="20" height="13" viewBox="0 0 20 13" fill="none" xmlns="http://www.w3.org/2000/svg">
<path fill-rule="evenodd" clip-rule="evenodd" d="M18.8039 0.343262H17.6373C16.9929 0.343262 16.4706 0.846941 16.4706 1.46826V11.2183C16.4706 11.8396 16.9929 12.3433 17.6373 12.3433H18.8039C19.4482 12.3433 19.9706 11.8396 19.9706 11.2183V1.46826C19.9706 0.846941 19.4482 0.343262 18.8039 0.343262ZM12.1471 2.9684H13.3137C13.9581 2.9684 14.4804 3.47208 14.4804 4.0934V11.2184C14.4804 11.8397 13.9581 12.3434 13.3137 12.3434H12.1471C11.5027 12.3434 10.9804 11.8397 10.9804 11.2184V4.0934C10.9804 3.47208 11.5027 2.9684 12.1471 2.9684ZM7.82353 5.59318H6.65686C6.01253 5.59318 5.4902 6.09686 5.4902 6.71818V11.2182C5.4902 11.8395 6.01253 12.3432 6.65686 12.3432H7.82353C8.46786 12.3432 8.9902 11.8395 8.9902 11.2182V6.71818C8.9902 6.09686 8.46786 5.59318 7.82353 5.59318ZM2.33333 7.84315H1.16667C0.522334 7.84315 0 8.34683 0 8.96815V11.2181C0 11.8395 0.522334 12.3431 1.16667 12.3431H2.33333C2.97767 12.3431 3.5 11.8395 3.5 11.2181V8.96815C3.5 8.34683 2.97767 7.84315 2.33333 7.84315Z" fill="white"/>
</svg>
