<svg width="21" height="13" viewBox="0 0 21 13" fill="none" xmlns="http://www.w3.org/2000/svg">
<path fill-rule="evenodd" clip-rule="evenodd" d="M18.9113 0.499878H17.7447C17.1003 0.499878 16.578 1.00356 16.578 1.62488V11.3749C16.578 11.9962 17.1003 12.4999 17.7447 12.4999H18.9113C19.5557 12.4999 20.078 11.9962 20.078 11.3749V1.62488C20.078 1.00356 19.5557 0.499878 18.9113 0.499878ZM12.2545 3.12501H13.4211C14.0655 3.12501 14.5878 3.62869 14.5878 4.25001V11.375C14.5878 11.9963 14.0655 12.5 13.4211 12.5H12.2545C11.6101 12.5 11.0878 11.9963 11.0878 11.375V4.25001C11.0878 3.62869 11.6101 3.12501 12.2545 3.12501ZM7.93095 5.7498H6.76428C6.11995 5.7498 5.59762 6.25348 5.59762 6.8748V11.3748C5.59762 11.9961 6.11995 12.4998 6.76428 12.4998H7.93095C8.57528 12.4998 9.09762 11.9961 9.09762 11.3748V6.8748C9.09762 6.25348 8.57528 5.7498 7.93095 5.7498ZM2.44076 7.99976H1.27409C0.629756 7.99976 0.107422 8.50344 0.107422 9.12476V11.3748C0.107422 11.9961 0.629756 12.4998 1.27409 12.4998H2.44076C3.08509 12.4998 3.60742 11.9961 3.60742 11.3748V9.12476C3.60742 8.50344 3.08509 7.99976 2.44076 7.99976Z" fill="white"/>
</svg>
