<svg width="21" height="13" viewBox="0 0 21 13" fill="none" xmlns="http://www.w3.org/2000/svg">
<path fill-rule="evenodd" clip-rule="evenodd" d="M18.9113 0.5H17.7447C17.1003 0.5 16.578 1.00368 16.578 1.625V11.375C16.578 11.9963 17.1003 12.5 17.7447 12.5H18.9113C19.5557 12.5 20.078 11.9963 20.078 11.375V1.625C20.078 1.00368 19.5557 0.5 18.9113 0.5ZM12.2545 3.12513H13.4211C14.0655 3.12513 14.5878 3.62881 14.5878 4.25013V11.3751C14.5878 11.9965 14.0655 12.5001 13.4211 12.5001H12.2545C11.6101 12.5001 11.0878 11.9965 11.0878 11.3751V4.25013C11.0878 3.62881 11.6101 3.12513 12.2545 3.12513ZM7.93095 5.74992H6.76428C6.11995 5.74992 5.59762 6.2536 5.59762 6.87492V11.3749C5.59762 11.9962 6.11995 12.4999 6.76428 12.4999H7.93095C8.57528 12.4999 9.09762 11.9962 9.09762 11.3749V6.87492C9.09762 6.2536 8.57528 5.74992 7.93095 5.74992ZM2.44076 7.99989H1.27409C0.629756 7.99989 0.107422 8.50356 0.107422 9.12489V11.3749C0.107422 11.9962 0.629756 12.4999 1.27409 12.4999H2.44076C3.08509 12.4999 3.60742 11.9962 3.60742 11.3749V9.12489C3.60742 8.50356 3.08509 7.99989 2.44076 7.99989Z" fill="white"/>
</svg>
