<svg width="20" height="13" viewBox="0 0 20 13" fill="none" xmlns="http://www.w3.org/2000/svg">
<path fill-rule="evenodd" clip-rule="evenodd" d="M18.8039 0.916992H17.6373C16.9929 0.916992 16.4706 1.42067 16.4706 2.04199V11.792C16.4706 12.4133 16.9929 12.917 17.6373 12.917H18.8039C19.4482 12.917 19.9706 12.4133 19.9706 11.792V2.04199C19.9706 1.42067 19.4482 0.916992 18.8039 0.916992ZM12.1471 3.54213H13.3137C13.9581 3.54213 14.4804 4.04581 14.4804 4.66713V11.7921C14.4804 12.4134 13.9581 12.9171 13.3137 12.9171H12.1471C11.5027 12.9171 10.9804 12.4134 10.9804 11.7921V4.66713C10.9804 4.04581 11.5027 3.54213 12.1471 3.54213ZM7.82353 6.16691H6.65686C6.01253 6.16691 5.4902 6.67059 5.4902 7.29191V11.7919C5.4902 12.4132 6.01253 12.9169 6.65686 12.9169H7.82353C8.46786 12.9169 8.9902 12.4132 8.9902 11.7919V7.29191C8.9902 6.67059 8.46786 6.16691 7.82353 6.16691ZM2.33333 8.41688H1.16667C0.522334 8.41688 0 8.92056 0 9.54188V11.7919C0 12.4132 0.522334 12.9169 1.16667 12.9169H2.33333C2.97767 12.9169 3.5 12.4132 3.5 11.7919V9.54188C3.5 8.92056 2.97767 8.41688 2.33333 8.41688Z" fill="black"/>
</svg>
