<svg width="21" height="13" viewBox="0 0 21 13" fill="none" xmlns="http://www.w3.org/2000/svg">
<path fill-rule="evenodd" clip-rule="evenodd" d="M19.7365 0.5H18.5699C17.9255 0.5 17.4032 1.00368 17.4032 1.625V11.375C17.4032 11.9963 17.9255 12.5 18.5699 12.5H19.7365C20.3809 12.5 20.9032 11.9963 20.9032 11.375V1.625C20.9032 1.00368 20.3809 0.5 19.7365 0.5ZM13.0797 3.12513H14.2463C14.8907 3.12513 15.413 3.62881 15.413 4.25013V11.3751C15.413 11.9965 14.8907 12.5001 14.2463 12.5001H13.0797C12.4353 12.5001 11.913 11.9965 11.913 11.3751V4.25013C11.913 3.62881 12.4353 3.12513 13.0797 3.12513ZM8.75615 5.74992H7.58948C6.94515 5.74992 6.42281 6.2536 6.42281 6.87492V11.3749C6.42281 11.9962 6.94515 12.4999 7.58948 12.4999H8.75615C9.40048 12.4999 9.92281 11.9962 9.92281 11.3749V6.87492C9.92281 6.2536 9.40048 5.74992 8.75615 5.74992ZM3.26595 7.99989H2.09928C1.45495 7.99989 0.932617 8.50356 0.932617 9.12489V11.3749C0.932617 11.9962 1.45495 12.4999 2.09928 12.4999H3.26595C3.91028 12.4999 4.43262 11.9962 4.43262 11.3749V9.12489C4.43262 8.50356 3.91028 7.99989 3.26595 7.99989Z" fill="white"/>
</svg>
