<svg width="21" height="13" viewBox="0 0 21 13" fill="none" xmlns="http://www.w3.org/2000/svg">
<path fill-rule="evenodd" clip-rule="evenodd" d="M18.9113 0.499939H17.7447C17.1003 0.499939 16.578 1.00362 16.578 1.62494V11.3749C16.578 11.9963 17.1003 12.4999 17.7447 12.4999H18.9113C19.5557 12.4999 20.078 11.9963 20.078 11.3749V1.62494C20.078 1.00362 19.5557 0.499939 18.9113 0.499939ZM12.2545 3.12507H13.4211C14.0655 3.12507 14.5878 3.62875 14.5878 4.25007V11.3751C14.5878 11.9964 14.0655 12.5001 13.4211 12.5001H12.2545C11.6101 12.5001 11.0878 11.9964 11.0878 11.3751V4.25007C11.0878 3.62875 11.6101 3.12507 12.2545 3.12507ZM7.93095 5.74986H6.76428C6.11995 5.74986 5.59762 6.25354 5.59762 6.87486V11.3749C5.59762 11.9962 6.11995 12.4999 6.76428 12.4999H7.93095C8.57528 12.4999 9.09762 11.9962 9.09762 11.3749V6.87486C9.09762 6.25354 8.57528 5.74986 7.93095 5.74986ZM2.44076 7.99982H1.27409C0.629756 7.99982 0.107422 8.5035 0.107422 9.12482V11.3748C0.107422 11.9961 0.629756 12.4998 1.27409 12.4998H2.44076C3.08509 12.4998 3.60742 11.9961 3.60742 11.3748V9.12482C3.60742 8.5035 3.08509 7.99982 2.44076 7.99982Z" fill="black"/>
</svg>
