<svg width="20" height="13" viewBox="0 0 20 13" fill="none" xmlns="http://www.w3.org/2000/svg">
<path fill-rule="evenodd" clip-rule="evenodd" d="M18.8039 0.34375H17.6373C16.9929 0.34375 16.4706 0.84743 16.4706 1.46875V11.2188C16.4706 11.8401 16.9929 12.3438 17.6373 12.3438H18.8039C19.4482 12.3438 19.9706 11.8401 19.9706 11.2188V1.46875C19.9706 0.84743 19.4482 0.34375 18.8039 0.34375ZM12.1471 2.96888H13.3137C13.9581 2.96888 14.4804 3.47256 14.4804 4.09388V11.2189C14.4804 11.8402 13.9581 12.3439 13.3137 12.3439H12.1471C11.5027 12.3439 10.9804 11.8402 10.9804 11.2189V4.09388C10.9804 3.47256 11.5027 2.96888 12.1471 2.96888ZM7.82353 5.59367H6.65686C6.01253 5.59367 5.4902 6.09735 5.4902 6.71867V11.2187C5.4902 11.84 6.01253 12.3437 6.65686 12.3437H7.82353C8.46786 12.3437 8.9902 11.84 8.9902 11.2187V6.71867C8.9902 6.09735 8.46786 5.59367 7.82353 5.59367ZM2.33333 7.84364H1.16667C0.522334 7.84364 0 8.34731 0 8.96864V11.2186C0 11.84 0.522334 12.3436 1.16667 12.3436H2.33333C2.97767 12.3436 3.5 11.84 3.5 11.2186V8.96864C3.5 8.34731 2.97767 7.84364 2.33333 7.84364Z" fill="white"/>
</svg>
