<svg width="20" height="13" viewBox="0 0 20 13" fill="none" xmlns="http://www.w3.org/2000/svg">
<path fill-rule="evenodd" clip-rule="evenodd" d="M18.8039 0.34668H17.6373C16.9929 0.34668 16.4706 0.850359 16.4706 1.47168V11.2217C16.4706 11.843 16.9929 12.3467 17.6373 12.3467H18.8039C19.4482 12.3467 19.9706 11.843 19.9706 11.2217V1.47168C19.9706 0.850359 19.4482 0.34668 18.8039 0.34668ZM12.1471 2.97181H13.3137C13.9581 2.97181 14.4804 3.47549 14.4804 4.09681V11.2218C14.4804 11.8431 13.9581 12.3468 13.3137 12.3468H12.1471C11.5027 12.3468 10.9804 11.8431 10.9804 11.2218V4.09681C10.9804 3.47549 11.5027 2.97181 12.1471 2.97181ZM7.82353 5.5966H6.65686C6.01253 5.5966 5.4902 6.10028 5.4902 6.7216V11.2216C5.4902 11.8429 6.01253 12.3466 6.65686 12.3466H7.82353C8.46786 12.3466 8.9902 11.8429 8.9902 11.2216V6.7216C8.9902 6.10028 8.46786 5.5966 7.82353 5.5966ZM2.33333 7.84657H1.16667C0.522334 7.84657 0 8.35024 0 8.97157V11.2216C0 11.8429 0.522334 12.3466 1.16667 12.3466H2.33333C2.97767 12.3466 3.5 11.8429 3.5 11.2216V8.97157C3.5 8.35024 2.97767 7.84657 2.33333 7.84657Z" fill="white"/>
</svg>
