<svg width="21" height="13" viewBox="0 0 21 13" fill="none" xmlns="http://www.w3.org/2000/svg">
<path fill-rule="evenodd" clip-rule="evenodd" d="M19.0539 0.5H17.8873C17.2429 0.5 16.7206 1.00368 16.7206 1.625V11.375C16.7206 11.9963 17.2429 12.5 17.8873 12.5H19.0539C19.6982 12.5 20.2206 11.9963 20.2206 11.375V1.625C20.2206 1.00368 19.6982 0.5 19.0539 0.5ZM12.3971 3.12513H13.5637C14.2081 3.12513 14.7304 3.62881 14.7304 4.25013V11.3751C14.7304 11.9965 14.2081 12.5001 13.5637 12.5001H12.3971C11.7527 12.5001 11.2304 11.9965 11.2304 11.3751V4.25013C11.2304 3.62881 11.7527 3.12513 12.3971 3.12513ZM8.07353 5.74992H6.90686C6.26253 5.74992 5.7402 6.2536 5.7402 6.87492V11.3749C5.7402 11.9962 6.26253 12.4999 6.90686 12.4999H8.07353C8.71786 12.4999 9.2402 11.9962 9.2402 11.3749V6.87492C9.2402 6.2536 8.71786 5.74992 8.07353 5.74992ZM2.58333 7.99989H1.41667C0.772334 7.99989 0.25 8.50356 0.25 9.12489V11.3749C0.25 11.9962 0.772334 12.4999 1.41667 12.4999H2.58333C3.22767 12.4999 3.75 11.9962 3.75 11.3749V9.12489C3.75 8.50356 3.22767 7.99989 2.58333 7.99989Z" fill="black"/>
</svg>
