<svg width="21" height="13" viewBox="0 0 21 13" fill="none" xmlns="http://www.w3.org/2000/svg">
<path fill-rule="evenodd" clip-rule="evenodd" d="M19.1604 0.499939H17.9937C17.3494 0.499939 16.827 1.00362 16.827 1.62494V11.3749C16.827 11.9963 17.3494 12.4999 17.9937 12.4999H19.1604C19.8047 12.4999 20.327 11.9963 20.327 11.3749V1.62494C20.327 1.00362 19.8047 0.499939 19.1604 0.499939ZM12.5035 3.12507H13.6702C14.3145 3.12507 14.8368 3.62875 14.8368 4.25007V11.3751C14.8368 11.9964 14.3145 12.5001 13.6702 12.5001H12.5035C11.8592 12.5001 11.3368 11.9964 11.3368 11.3751V4.25007C11.3368 3.62875 11.8592 3.12507 12.5035 3.12507ZM8.17997 5.74986H7.01331C6.36898 5.74986 5.84664 6.25354 5.84664 6.87486V11.3749C5.84664 11.9962 6.36898 12.4999 7.01331 12.4999H8.17997C8.82431 12.4999 9.34664 11.9962 9.34664 11.3749V6.87486C9.34664 6.25354 8.82431 5.74986 8.17997 5.74986ZM2.68978 7.99982H1.52311C0.87878 7.99982 0.356445 8.5035 0.356445 9.12482V11.3748C0.356445 11.9961 0.87878 12.4998 1.52311 12.4998H2.68978C3.33411 12.4998 3.85645 11.9961 3.85645 11.3748V9.12482C3.85645 8.5035 3.33411 7.99982 2.68978 7.99982Z" fill="black"/>
</svg>
