<svg width="21" height="13" viewBox="0 0 21 13" fill="none" xmlns="http://www.w3.org/2000/svg">
<path fill-rule="evenodd" clip-rule="evenodd" d="M19.4719 0.499939H18.3052C17.6609 0.499939 17.1386 1.00362 17.1386 1.62494V11.3749C17.1386 11.9963 17.6609 12.4999 18.3052 12.4999H19.4719C20.1162 12.4999 20.6386 11.9963 20.6386 11.3749V1.62494C20.6386 1.00362 20.1162 0.499939 19.4719 0.499939ZM12.815 3.12507H13.9817C14.626 3.12507 15.1484 3.62875 15.1484 4.25007V11.3751C15.1484 11.9964 14.626 12.5001 13.9817 12.5001H12.815C12.1707 12.5001 11.6484 11.9964 11.6484 11.3751V4.25007C11.6484 3.62875 12.1707 3.12507 12.815 3.12507ZM8.4915 5.74986H7.32483C6.6805 5.74986 6.15816 6.25354 6.15816 6.87486V11.3749C6.15816 11.9962 6.6805 12.4999 7.32483 12.4999H8.4915C9.13583 12.4999 9.65816 11.9962 9.65816 11.3749V6.87486C9.65816 6.25354 9.13583 5.74986 8.4915 5.74986ZM3.0013 7.99982H1.83464C1.1903 7.99982 0.667969 8.5035 0.667969 9.12482V11.3748C0.667969 11.9961 1.1903 12.4998 1.83464 12.4998H3.0013C3.64563 12.4998 4.16797 11.9961 4.16797 11.3748V9.12482C4.16797 8.5035 3.64563 7.99982 3.0013 7.99982Z" fill="black"/>
</svg>
