<svg width="27" height="27" viewBox="0 0 27 27" fill="none" xmlns="http://www.w3.org/2000/svg">
<path fill-rule="evenodd" clip-rule="evenodd" d="M5.1658 17.2173C2.63695 11.0101 7.20344 4.21875 13.906 4.21875H14.2676C19.2802 4.21875 23.3437 8.28226 23.3437 13.2949C23.3437 18.8758 18.8195 23.4 13.2385 23.4H4.44072C4.08268 23.4 3.76363 23.174 3.6448 22.8363C3.52597 22.4985 3.63324 22.1226 3.9124 21.8984L6.13032 20.1172C6.2273 20.0393 6.26161 19.907 6.21468 19.7918L5.1658 17.2173ZM13.906 5.90625C8.40189 5.90625 4.6519 11.4833 6.72858 16.5806L7.77746 19.1551C8.10596 19.9614 7.86582 20.8877 7.18697 21.4329L6.83885 21.7125H13.2385C17.8875 21.7125 21.6562 17.9438 21.6562 13.2949C21.6562 9.21424 18.3482 5.90625 14.2676 5.90625H13.906Z" fill="#4E4B66"/>
</svg>
