<svg width="27" height="27" viewBox="0 0 27 27" fill="none" xmlns="http://www.w3.org/2000/svg">
<path fill-rule="evenodd" clip-rule="evenodd" d="M5.16586 17.2173C2.63701 11.0101 7.20351 4.21875 13.906 4.21875H14.2676C19.2802 4.21875 23.3437 8.28226 23.3437 13.2949C23.3437 18.8758 18.8195 23.4 13.2386 23.4H4.44078C4.08274 23.4 3.76369 23.174 3.64486 22.8363C3.52603 22.4985 3.6333 22.1226 3.91246 21.8984L6.13038 20.1172C6.22736 20.0393 6.26167 19.907 6.21474 19.7918L5.16586 17.2173ZM13.906 5.90625C8.40195 5.90625 4.65196 11.4833 6.72864 16.5806L7.77752 19.1551C8.10602 19.9614 7.86588 20.8877 7.18703 21.4329L6.83891 21.7125H13.2386C17.8875 21.7125 21.6562 17.9438 21.6562 13.2949C21.6562 9.21424 18.3483 5.90625 14.2676 5.90625H13.906Z" fill="#4E4B66"/>
</svg>
