<svg width="27" height="27" viewBox="0 0 27 27" fill="none" xmlns="http://www.w3.org/2000/svg">
<path fill-rule="evenodd" clip-rule="evenodd" d="M5.16604 17.2173C2.63719 11.0101 7.20369 4.21875 13.9062 4.21875H14.2678C19.2804 4.21875 23.3439 8.28226 23.3439 13.2949C23.3439 18.8758 18.8197 23.4 13.2388 23.4H4.44097C4.08293 23.4 3.76387 23.174 3.64504 22.8363C3.52621 22.4985 3.63348 22.1226 3.91264 21.8984L6.13057 20.1172C6.22755 20.0393 6.26185 19.907 6.21492 19.7918L5.16604 17.2173ZM13.9062 5.90625C8.40213 5.90625 4.65214 11.4833 6.72882 16.5806L7.7777 19.1551C8.1062 19.9614 7.86607 20.8877 7.18722 21.4329L6.83909 21.7125H13.2388C17.8877 21.7125 21.6564 17.9438 21.6564 13.2949C21.6564 9.21424 18.3484 5.90625 14.2678 5.90625H13.9062Z" fill="#4E4B66"/>
</svg>
