<svg width="28" height="28" viewBox="0 0 28 28" fill="none" xmlns="http://www.w3.org/2000/svg">
<path fill-rule="evenodd" clip-rule="evenodd" d="M5.80838 17.9477C3.27953 11.7406 7.84602 4.94922 14.5486 4.94922H14.9102C19.9228 4.94922 23.9863 9.01273 23.9863 14.0253C23.9863 19.6062 19.462 24.1305 13.8811 24.1305H5.0833C4.72526 24.1305 4.40621 23.9045 4.28738 23.5668C4.16854 23.229 4.27581 22.853 4.55497 22.6289L6.7729 20.8477C6.86988 20.7698 6.90419 20.6374 6.85726 20.5223L5.80838 17.9477ZM14.5486 6.63672C9.04446 6.63672 5.29448 12.2137 7.37116 17.311L8.42004 19.8856C8.74854 20.6919 8.5084 21.6182 7.82955 22.1634L7.48142 22.443H13.8811C18.5301 22.443 22.2988 18.6743 22.2988 14.0253C22.2988 9.94471 18.9908 6.63672 14.9102 6.63672H14.5486Z" fill="#4E4B66"/>
</svg>
