<svg width="153" height="139" viewBox="0 0 153 139" fill="none" xmlns="http://www.w3.org/2000/svg">
<path d="M127.924 0.928595C136.462 9.02408 143.107 18.9046 147.385 29.8647C151.663 40.8249 153.469 52.5944 152.673 64.333C151.878 76.0716 148.5 87.4898 142.782 97.7724C137.065 108.055 129.147 116.949 119.595 123.818C110.043 130.687 99.0926 135.363 87.5249 137.512C75.9573 139.661 64.0579 139.229 52.6763 136.248C41.2947 133.267 30.7116 127.81 21.6825 120.266C12.6534 112.723 5.40103 103.279 0.443107 92.6094L22.1886 82.505C25.6592 89.9739 30.7358 96.5846 37.0562 101.865C43.3765 107.145 50.7847 110.965 58.7518 113.052C66.719 115.139 75.0485 115.441 83.1459 113.937C91.2433 112.433 98.9087 109.16 105.595 104.351C112.281 99.5424 117.824 93.317 121.826 86.1191C125.829 78.9213 128.193 70.9285 128.75 62.7115C129.307 54.4945 128.043 46.2559 125.048 38.5838C122.053 30.9116 117.402 23.9953 111.425 18.3285L127.924 0.928595Z" fill="#43B5F4"/>
</svg>
