<svg width="15" height="15" viewBox="0 0 15 15" fill="none" xmlns="http://www.w3.org/2000/svg">
<path d="M14.5 7.24219C14.5 11.1081 11.3659 14.2422 7.5 14.2422C3.63444 14.2422 0.5 11.1081 0.5 7.24219C0.5 3.37663 3.63444 0.242188 7.5 0.242188C11.3659 0.242188 14.5 3.37663 14.5 7.24219Z" fill="#FFCC4D"/>
<path d="M4.97222 8.21441C5.50917 8.21441 5.94444 7.60502 5.94444 6.8533C5.94444 6.10158 5.50917 5.49219 4.97222 5.49219C4.43528 5.49219 4 6.10158 4 6.8533C4 7.60502 4.43528 8.21441 4.97222 8.21441Z" fill="#664500"/>
<path d="M10.0284 8.21441C10.5653 8.21441 11.0006 7.60502 11.0006 6.8533C11.0006 6.10158 10.5653 5.49219 10.0284 5.49219C9.49143 5.49219 9.05615 6.10158 9.05615 6.8533C9.05615 7.60502 9.49143 8.21441 10.0284 8.21441Z" fill="#664500"/>
<path d="M2.83233 5.49251C2.75144 5.49251 2.66938 5.46724 2.59938 5.41474C2.4275 5.28601 2.39288 5.04218 2.52161 4.87029C3.79016 3.17862 5.48338 3.15918 5.55494 3.15918C5.76961 3.15918 5.94383 3.3334 5.94383 3.54807C5.94383 3.76235 5.77077 3.93618 5.55649 3.93696C5.49622 3.93774 4.16894 3.9704 3.14383 5.33696C3.06761 5.43885 2.95055 5.49251 2.83233 5.49251ZM12.1664 5.49251C12.0478 5.49251 11.9316 5.43885 11.8549 5.33696C10.8279 3.96768 9.49788 3.93735 9.44149 3.93696C9.22761 3.93462 9.05494 3.75962 9.05611 3.54612C9.05727 3.33185 9.22994 3.15918 9.44383 3.15918C9.51538 3.15918 11.2082 3.17862 12.4772 4.87029C12.6063 5.04218 12.5713 5.28601 12.3994 5.41474C12.3294 5.46724 12.2477 5.49251 12.1664 5.49251ZM9.63244 11.2788C9.62816 11.2617 9.18716 9.57585 7.49938 9.57585C5.81161 9.57585 5.37061 11.2617 5.36633 11.2788C5.34572 11.3616 5.38344 11.4464 5.45655 11.4903C5.52966 11.5339 5.62494 11.5238 5.68833 11.467C5.69183 11.4639 6.08227 11.1314 7.49938 11.1314C8.89549 11.1314 9.29488 11.4542 9.31005 11.467C9.347 11.502 9.39522 11.5203 9.44383 11.5203C9.4765 11.5203 9.50955 11.5121 9.5395 11.4954C9.61572 11.4518 9.65383 11.3636 9.63244 11.2788Z" fill="#664500"/>
<path d="M6.7219 12.2981C6.7219 13.3722 5.85156 14.2425 4.77745 14.2425C3.70334 14.2425 2.83301 13.3722 2.83301 12.2981C2.83301 11.224 4.38856 8.40918 4.77745 8.40918C5.16634 8.40918 6.7219 11.224 6.7219 12.2981Z" fill="#3B719D"/>
</svg>
