<svg width="43" height="35" viewBox="0 0 43 35" fill="none" xmlns="http://www.w3.org/2000/svg">
<path d="M22.9261 23.7956H34.3892C34.8191 23.7956 35.1056 23.5157 35.1056 23.0958V16.797C35.1056 16.3771 34.8191 16.0972 34.3892 16.0972H22.9261C22.4963 16.0972 22.2097 16.3771 22.2097 16.797V23.0958C22.2096 23.5156 22.4963 23.7956 22.9261 23.7956ZM23.6425 17.4968H33.6728V22.3958H23.6425V17.4968Z" fill="#55B3FF"/>
<path d="M3.58189 14.698H9.31346C9.74333 14.698 10.0299 14.4181 10.0299 13.9982C10.0299 13.5783 9.74333 13.2983 9.31346 13.2983H3.58189C3.15203 13.2983 2.86548 13.5783 2.86548 13.9982C2.86548 14.4181 3.15203 14.698 3.58189 14.698Z" fill="#55B3FF"/>
<path d="M12.1793 14.698H17.9109C18.3407 14.698 18.6273 14.4181 18.6273 13.9982C18.6273 13.5783 18.3407 13.2983 17.9109 13.2983H12.1793C11.7494 13.2983 11.4629 13.5783 11.4629 13.9982C11.4629 14.4181 11.7494 14.698 12.1793 14.698Z" fill="#55B3FF"/>
<path d="M3.58189 17.4968H12.8956C13.3255 17.4968 13.612 17.2169 13.612 16.797C13.612 16.3771 13.3255 16.0972 12.8956 16.0972H3.58189C3.15203 16.0972 2.86548 16.3771 2.86548 16.797C2.86548 17.2169 3.15203 17.4968 3.58189 17.4968Z" fill="#55B3FF"/>
<path d="M17.9114 16.0972H15.7621C15.3322 16.0972 15.0457 16.3771 15.0457 16.797C15.0457 17.2169 15.3322 17.4968 15.7621 17.4968H17.9114C18.3413 17.4968 18.6278 17.2169 18.6278 16.797C18.6278 16.3771 18.3413 16.0972 17.9114 16.0972Z" fill="#55B3FF"/>
<path d="M42.3418 7.41848C41.8403 6.7886 41.1955 6.43865 40.4074 6.36869L38.6879 6.16513V4.19907V2.79941C38.6879 1.25975 37.3983 4.0044e-09 35.8222 4.0044e-09H2.86574C1.2896 -8.20107e-05 0 1.25966 0 2.79941V4.19915V9.79805V25.1949C0 26.459 0.869555 27.5338 2.05303 27.8783C2.01693 29.294 3.1135 30.5231 4.58529 30.6538L37.685 34.2931C37.7566 34.2931 37.8999 34.2931 37.9715 34.2931C39.4044 34.2931 40.694 33.2433 40.8372 31.9136L42.9866 9.44809C43.0582 8.74818 42.8433 7.97831 42.3418 7.41848ZM1.43291 4.89898H37.2551V6.71864V9.09814H1.43291V4.89898ZM2.86574 1.39966H35.8221C36.6102 1.39966 37.255 2.02954 37.255 2.79941V3.49924H1.43291V2.79941C1.43291 2.02954 2.07771 1.39966 2.86574 1.39966ZM1.43291 25.1948V10.4978H37.2551V25.1948C37.2551 25.9647 36.6103 26.5946 35.8222 26.5946H2.93744H2.86583C2.07771 26.5946 1.43291 25.9647 1.43291 25.1948ZM41.5537 9.1681L39.4043 31.6336C39.3327 32.4034 38.6162 32.9633 37.8282 32.8933L4.80014 29.2541C4.08372 29.1841 3.58216 28.6242 3.51054 27.9943H35.8221C37.3982 27.9943 38.6878 26.7346 38.6878 25.1949V9.79797V7.48843L40.3357 7.62843C40.6939 7.62843 41.0521 7.83839 41.267 8.11831C41.482 8.39822 41.6254 8.81814 41.5537 9.1681Z" fill="#55B3FF"/>
</svg>
