<svg width="37" height="46" viewBox="0 0 37 46" fill="none" xmlns="http://www.w3.org/2000/svg">
<path d="M4.70883 18.6482C4.70085 20.8249 5.23837 22.9704 6.27447 24.8975C7.31058 26.8245 8.81377 28.4745 10.6529 29.7036C10.8771 29.8567 11.0676 30.0523 11.213 30.2787C11.3584 30.5051 11.4559 30.7577 11.4995 31.0215L12.1932 35.0075C12.249 35.3352 12.3817 35.6457 12.5811 35.9147C12.7804 36.1838 13.0408 36.404 13.342 36.5582V42.1657C13.342 42.369 13.4247 42.564 13.5719 42.7078C13.719 42.8516 13.9187 42.9324 14.1268 42.9324H14.2989L14.9351 45.4183C14.9775 45.5841 15.0755 45.7314 15.2135 45.8366C15.3514 45.9419 15.5214 45.999 15.6965 45.999H20.4055C20.5805 45.999 20.7505 45.9419 20.8885 45.8366C21.0264 45.7314 21.1244 45.5841 21.1669 45.4183L21.8031 42.9324H21.9751C22.1833 42.9324 22.3829 42.8516 22.5301 42.7078C22.6773 42.564 22.76 42.369 22.76 42.1657V36.5582C23.0611 36.4041 23.3215 36.1839 23.5208 35.9149C23.7201 35.6459 23.8529 35.3355 23.9088 35.0079L24.6026 31.0213C24.6471 30.7562 24.7456 30.5026 24.8923 30.2755C25.039 30.0483 25.2309 29.8522 25.4565 29.6988C29.312 27.1335 31.5292 22.8467 31.3867 18.2311C31.2986 14.7859 29.8553 11.5062 27.3566 9.07327C26.1364 7.87851 24.6834 6.93485 23.0835 6.29805C21.4836 5.66125 19.7692 5.34425 18.0417 5.36577C10.6899 5.45106 4.70883 11.4098 4.70883 18.6482ZM17.2661 39.8657H21.1903V41.399H14.9116V36.799H21.1903V38.3324H17.2661C17.058 38.3324 16.8584 38.4131 16.7112 38.5569C16.564 38.7007 16.4813 38.8957 16.4813 39.099C16.4813 39.3024 16.564 39.4974 16.7112 39.6411C16.8584 39.7849 17.058 39.8657 17.2661 39.8657ZM19.7927 44.4657H16.3092L15.9168 42.9324H20.1851L19.7927 44.4657ZM18.0608 6.8991C18.107 6.89853 18.1526 6.89824 18.1987 6.89824C19.6948 6.89741 21.1763 7.18527 22.5582 7.74528C23.94 8.30529 25.1951 9.12643 26.2512 10.1616C28.4641 12.3182 29.7415 15.2247 29.8182 18.2774C29.9443 22.3667 27.9836 26.1626 24.5734 28.4317C24.1735 28.7015 23.8331 29.0471 23.5724 29.4478C23.3117 29.8486 23.1359 30.2963 23.0556 30.7646L22.3619 34.7513C22.3402 34.8927 22.2679 35.0221 22.1577 35.1163C22.0476 35.2105 21.9068 35.2634 21.7604 35.2657H14.3416C14.1952 35.2633 14.0545 35.2103 13.9444 35.116C13.8343 35.0217 13.7621 34.8923 13.7406 34.7509L13.0469 30.7649C12.9675 30.2977 12.7928 29.8509 12.5333 29.4508C12.2738 29.0508 11.9347 28.7058 11.5361 28.4362C9.90856 27.3477 8.57851 25.8866 7.66205 24.1805C6.7456 22.4743 6.27059 20.575 6.27849 18.6482C6.27849 12.2453 11.5638 6.97443 18.0608 6.8991Z" fill="#55B3FF"/>
<path d="M18.8358 3.06665V0.766662C18.8358 0.563331 18.7531 0.368327 18.6059 0.22455C18.4587 0.0807731 18.2591 0 18.0509 0C17.8428 0 17.6432 0.0807731 17.496 0.22455C17.3488 0.368327 17.2661 0.563331 17.2661 0.766662V3.06665C17.2661 3.26998 17.3488 3.46498 17.496 3.60876C17.6432 3.75254 17.8428 3.83331 18.0509 3.83331C18.2591 3.83331 18.4587 3.75254 18.6059 3.60876C18.7531 3.46498 18.8358 3.26998 18.8358 3.06665Z" fill="#55B3FF"/>
<path d="M0 23.0001C0 23.2034 0.0826876 23.3984 0.229872 23.5422C0.377057 23.6859 0.576681 23.7667 0.784832 23.7667H3.13933C3.34748 23.7667 3.5471 23.6859 3.69429 23.5422C3.84147 23.3984 3.92416 23.2034 3.92416 23.0001C3.92416 22.7967 3.84147 22.6017 3.69429 22.4579C3.5471 22.3142 3.34748 22.2334 3.13933 22.2334H0.784832C0.576681 22.2334 0.377057 22.3142 0.229872 22.4579C0.0826876 22.6017 0 22.7967 0 23.0001Z" fill="#55B3FF"/>
<path d="M32.1785 23.0001C32.1785 23.2034 32.2612 23.3984 32.4083 23.5422C32.5555 23.6859 32.7551 23.7667 32.9633 23.7667H35.3178C35.5259 23.7667 35.7256 23.6859 35.8728 23.5422C36.0199 23.3984 36.1026 23.2034 36.1026 23.0001C36.1026 22.7967 36.0199 22.6017 35.8728 22.4579C35.7256 22.3142 35.5259 22.2334 35.3178 22.2334H32.9633C32.7551 22.2334 32.5555 22.3142 32.4083 22.4579C32.2612 22.6017 32.1785 22.7967 32.1785 23.0001Z" fill="#55B3FF"/>
<path d="M3.59893 7.79957C3.4512 7.65845 3.25245 7.57994 3.04582 7.58107C2.8392 7.5822 2.64136 7.66288 2.49525 7.80561C2.34914 7.94833 2.26655 8.14159 2.26539 8.34343C2.26424 8.54527 2.34461 8.73942 2.48908 8.88373L4.15391 10.5101C4.3011 10.6539 4.50073 10.7347 4.70888 10.7347C4.91704 10.7347 5.11667 10.6539 5.26386 10.5101C5.41105 10.3663 5.49374 10.1713 5.49374 9.96799C5.49374 9.76465 5.41105 9.56964 5.26386 9.42586L3.59893 7.79957Z" fill="#55B3FF"/>
<path d="M32.5037 7.79957L30.8388 9.42586C30.6916 9.56964 30.6089 9.76465 30.6089 9.96799C30.6089 10.1713 30.6916 10.3663 30.8388 10.5101C30.986 10.6539 31.1856 10.7347 31.3937 10.7347C31.6019 10.7347 31.8015 10.6539 31.9487 10.5101L33.6135 8.88373C33.758 8.73942 33.8384 8.54527 33.8372 8.34343C33.8361 8.14159 33.7535 7.94833 33.6074 7.80561C33.4613 7.66288 33.2634 7.5822 33.0568 7.58107C32.8502 7.57994 32.6514 7.65845 32.5037 7.79957Z" fill="#55B3FF"/>
<path d="M8.17386 31.5646L6.50893 33.1909C6.36174 33.3347 6.27905 33.5297 6.27905 33.7331C6.27905 33.9364 6.36174 34.1314 6.50893 34.2752C6.65612 34.419 6.85575 34.4997 7.06391 34.4997C7.27206 34.4997 7.47169 34.419 7.61888 34.2752L9.28371 32.6488C9.35793 32.5779 9.41701 32.4933 9.45754 32.4C9.49807 32.3066 9.51924 32.2063 9.51982 32.1049C9.5204 32.0035 9.50038 31.903 9.46093 31.8092C9.42147 31.7155 9.36336 31.6302 9.28996 31.5585C9.21656 31.4868 9.12932 31.4301 9.03331 31.3915C8.9373 31.353 8.83441 31.3334 8.73061 31.334C8.6268 31.3346 8.52415 31.3552 8.42858 31.3948C8.33301 31.4344 8.24643 31.4921 8.17386 31.5646Z" fill="#55B3FF"/>
<path d="M26.8189 31.5644C26.6718 31.7081 26.5891 31.9031 26.5891 32.1064C26.5891 32.3098 26.6718 32.5048 26.8189 32.6485L28.4838 34.2749C28.631 34.4187 28.8306 34.4995 29.0388 34.4995C29.2469 34.4995 29.4465 34.4187 29.5937 34.2749C29.7409 34.1311 29.8236 33.9361 29.8236 33.7328C29.8236 33.5294 29.7409 33.3344 29.5937 33.1907L27.9288 31.5644C27.7816 31.4206 27.582 31.3398 27.3739 31.3398C27.1657 31.3398 26.9661 31.4206 26.8189 31.5644Z" fill="#55B3FF"/>
<path d="M12.65 21.375H16.55V26.375C16.55 26.5031 16.5909 26.628 16.6672 26.733C16.7434 26.8379 16.8514 26.9178 16.9764 26.9619C17.1015 27.0059 17.2376 27.012 17.3663 26.9792C17.495 26.9464 17.6102 26.8765 17.6962 26.7787L24.8462 18.6537C24.9263 18.5627 24.9776 18.4516 24.9942 18.3335C25.0107 18.2153 24.9918 18.0951 24.9397 17.987C24.8875 17.8789 24.8043 17.7874 24.6998 17.7232C24.5954 17.6591 24.474 17.625 24.35 17.625H20.45V12.625C20.45 12.4969 20.4091 12.372 20.3328 12.267C20.2566 12.1621 20.1486 12.0822 20.0236 12.0381C19.8985 11.9941 19.7624 11.988 19.6337 12.0208C19.505 12.0536 19.3898 12.1235 19.3038 12.2213L12.1538 20.3463C12.0737 20.4373 12.0224 20.5484 12.0058 20.6665C11.9893 20.7847 12.0082 20.9049 12.0603 21.013C12.1125 21.1211 12.1957 21.2126 12.3002 21.2768C12.4046 21.3409 12.526 21.375 12.65 21.375ZM19.15 14.3311V18.25C19.15 18.4158 19.2185 18.5747 19.3404 18.6919C19.4623 18.8091 19.6276 18.875 19.8 18.875H22.9485L17.85 24.6689V20.75C17.85 20.5842 17.7815 20.4253 17.6596 20.3081C17.5377 20.1909 17.3724 20.125 17.2 20.125H14.0515L19.15 14.3311Z" fill="#55B3FF"/>
</svg>
