<svg width="42" height="35" viewBox="0 0 42 35" fill="none" xmlns="http://www.w3.org/2000/svg">
<path d="M38.0538 0H3.40258C1.52635 0 0 1.49102 0 3.32373V24.5213C0 26.3541 1.52635 27.8451 3.40258 27.8451H20.0242V32.843H11.7265C11.3377 32.843 11.0225 33.1508 11.0225 33.5306C11.0225 33.9104 11.3377 34.2183 11.7265 34.2183H29.7299C30.1187 34.2183 30.4338 33.9104 30.4338 33.5306C30.4338 33.1508 30.1187 32.843 29.7299 32.843H21.4321V27.8451H38.0538C39.93 27.8451 41.4564 26.3541 41.4564 24.5213V3.32373C41.4564 1.49102 39.93 0 38.0538 0ZM40.0484 24.5213C40.0484 25.5957 39.1536 26.4697 38.0538 26.4697H3.40258C2.30277 26.4697 1.40798 25.5957 1.40798 24.5213V3.32373C1.40798 2.24939 2.30277 1.37531 3.40258 1.37531H38.0539C39.1537 1.37531 40.0485 2.24939 40.0485 3.32373V24.5213H40.0484ZM36.9189 23.5455H33.8864C33.4976 23.5455 33.1825 23.8533 33.1825 24.2332C33.1825 24.613 33.4976 24.9208 33.8864 24.9208H36.9189C37.3077 24.9208 37.6229 24.613 37.6229 24.2332C37.6229 23.8533 37.3077 23.5455 36.9189 23.5455ZM19.0936 8.53634H10.1891C9.8003 8.53634 9.48517 8.84418 9.48517 9.22399C9.48517 9.60381 9.8003 9.91164 10.1891 9.91164H13.9374V19.1985C13.9374 19.5783 14.2525 19.8862 14.6413 19.8862C15.0301 19.8862 15.3452 19.5783 15.3452 19.1985V9.91172H19.0935C19.4823 9.91172 19.7974 9.60389 19.7974 9.22407C19.7976 8.84426 19.4824 8.53634 19.0936 8.53634ZM30.783 8.58419C30.4209 8.44483 30.0125 8.61876 29.87 8.97199L26.3994 17.578L22.9288 8.97199C22.7864 8.61876 22.378 8.44514 22.0158 8.58419C21.6541 8.7234 21.4764 9.12267 21.6188 9.47607L25.6413 19.4506C25.7505 19.7213 26.0158 19.8863 26.2965 19.8863C26.3306 19.8863 26.365 19.8832 26.3994 19.8782C26.4338 19.8832 26.4682 19.8863 26.5024 19.8863C26.7832 19.8863 27.0484 19.7211 27.1576 19.4506L31.18 9.47607C31.3225 9.12267 31.1448 8.7234 30.783 8.58419Z" fill="#55B3FF"/>
</svg>
