<svg width="82" height="77" viewBox="0 0 82 77" fill="none" xmlns="http://www.w3.org/2000/svg">
<path d="M63.3155 34.0387C66.0588 35.8837 69.7783 35.1554 71.6232 32.4121C73.4682 29.6689 72.74 25.9494 69.9967 24.1044L63.3155 34.0387ZM41.831 11.7232L35.8925 12.4757L37.3975 24.3527L43.336 23.6002L41.831 11.7232ZM69.9967 24.1044C66.4368 21.7102 61.716 18.4627 57.0888 15.9568C54.7597 14.6955 52.285 13.5265 49.8351 12.7254C47.4496 11.9454 44.6493 11.3661 41.831 11.7232L43.336 23.6002C43.6698 23.5579 44.5393 23.5895 46.1144 24.1046C47.6251 24.5985 49.4017 25.4087 51.3875 26.4841C55.3901 28.6518 59.5536 31.5087 63.3155 34.0387L69.9967 24.1044Z" fill="#F9D4BC"/>
<path d="M63.3155 34.0387C66.0588 35.8837 69.7783 35.1554 71.6232 32.4121C73.4682 29.6689 72.74 25.9494 69.9967 24.1044L63.3155 34.0387ZM41.831 11.7232L35.8925 12.4757L37.3975 24.3527L43.336 23.6002L41.831 11.7232ZM69.9967 24.1044C66.4368 21.7102 61.716 18.4627 57.0888 15.9568C54.7597 14.6955 52.285 13.5265 49.8351 12.7254C47.4496 11.9454 44.6493 11.3661 41.831 11.7232L43.336 23.6002C43.6698 23.5579 44.5393 23.5895 46.1144 24.1046C47.6251 24.5985 49.4017 25.4087 51.3875 26.4841C55.3901 28.6518 59.5536 31.5087 63.3155 34.0387L69.9967 24.1044Z" fill="url(#paint0_radial_2223_17019)" fill-opacity="0.51"/>
<path d="M63.3155 34.0387C66.0588 35.8837 69.7783 35.1554 71.6232 32.4121C73.4682 29.6689 72.74 25.9494 69.9967 24.1044L63.3155 34.0387ZM41.831 11.7232L35.8925 12.4757L37.3975 24.3527L43.336 23.6002L41.831 11.7232ZM69.9967 24.1044C66.4368 21.7102 61.716 18.4627 57.0888 15.9568C54.7597 14.6955 52.285 13.5265 49.8351 12.7254C47.4496 11.9454 44.6493 11.3661 41.831 11.7232L43.336 23.6002C43.6698 23.5579 44.5393 23.5895 46.1144 24.1046C47.6251 24.5985 49.4017 25.4087 51.3875 26.4841C55.3901 28.6518 59.5536 31.5087 63.3155 34.0387L69.9967 24.1044Z" fill="url(#paint1_linear_2223_17019)" fill-opacity="0.33"/>
<path d="M63.3155 34.0387C66.0588 35.8837 69.7783 35.1554 71.6232 32.4121C73.4682 29.6689 72.74 25.9494 69.9967 24.1044L63.3155 34.0387ZM41.831 11.7232L35.8925 12.4757L37.3975 24.3527L43.336 23.6002L41.831 11.7232ZM69.9967 24.1044C66.4368 21.7102 61.716 18.4627 57.0888 15.9568C54.7597 14.6955 52.285 13.5265 49.8351 12.7254C47.4496 11.9454 44.6493 11.3661 41.831 11.7232L43.336 23.6002C43.6698 23.5579 44.5393 23.5895 46.1144 24.1046C47.6251 24.5985 49.4017 25.4087 51.3875 26.4841C55.3901 28.6518 59.5536 31.5087 63.3155 34.0387L69.9967 24.1044Z" fill="#5C170D" fill-opacity="0.1"/>
<path d="M63.3155 34.0387C66.0588 35.8837 69.7783 35.1554 71.6232 32.4121C73.4682 29.6689 72.74 25.9494 69.9967 24.1044L63.3155 34.0387ZM41.831 11.7232L35.8925 12.4757L37.3975 24.3527L43.336 23.6002L41.831 11.7232ZM69.9967 24.1044C66.4368 21.7102 61.716 18.4627 57.0888 15.9568C54.7597 14.6955 52.285 13.5265 49.8351 12.7254C47.4496 11.9454 44.6493 11.3661 41.831 11.7232L43.336 23.6002C43.6698 23.5579 44.5393 23.5895 46.1144 24.1046C47.6251 24.5985 49.4017 25.4087 51.3875 26.4841C55.3901 28.6518 59.5536 31.5087 63.3155 34.0387L69.9967 24.1044Z" fill="#F5CAB0" fill-opacity="0.52"/>
<path d="M63.3155 34.0387C66.0588 35.8837 69.7783 35.1554 71.6232 32.4121C73.4682 29.6689 72.74 25.9494 69.9967 24.1044L63.3155 34.0387ZM41.831 11.7232L35.8925 12.4757L37.3975 24.3527L43.336 23.6002L41.831 11.7232ZM69.9967 24.1044C66.4368 21.7102 61.716 18.4627 57.0888 15.9568C54.7597 14.6955 52.285 13.5265 49.8351 12.7254C47.4496 11.9454 44.6493 11.3661 41.831 11.7232L43.336 23.6002C43.6698 23.5579 44.5393 23.5895 46.1144 24.1046C47.6251 24.5985 49.4017 25.4087 51.3875 26.4841C55.3901 28.6518 59.5536 31.5087 63.3155 34.0387L69.9967 24.1044Z" fill="url(#paint2_radial_2223_17019)" fill-opacity="0.4"/>
<path d="M63.3155 34.0387C66.0588 35.8837 69.7783 35.1554 71.6232 32.4121C73.4682 29.6689 72.74 25.9494 69.9967 24.1044L63.3155 34.0387ZM41.831 11.7232L35.8925 12.4757L37.3975 24.3527L43.336 23.6002L41.831 11.7232ZM69.9967 24.1044C66.4368 21.7102 61.716 18.4627 57.0888 15.9568C54.7597 14.6955 52.285 13.5265 49.8351 12.7254C47.4496 11.9454 44.6493 11.3661 41.831 11.7232L43.336 23.6002C43.6698 23.5579 44.5393 23.5895 46.1144 24.1046C47.6251 24.5985 49.4017 25.4087 51.3875 26.4841C55.3901 28.6518 59.5536 31.5087 63.3155 34.0387L69.9967 24.1044Z" fill="#FF9ABE" fill-opacity="0.13"/>
<path d="M71.0652 64.0843C64.4715 57.3097 52.9455 44.9995 44.9858 39.9824" stroke="#F9D4BC" stroke-width="12.0968" stroke-linecap="round"/>
<path d="M71.0652 64.0843C64.4715 57.3097 52.9455 44.9995 44.9858 39.9824" stroke="url(#paint3_radial_2223_17019)" stroke-opacity="0.65" stroke-width="12.0968" stroke-linecap="round"/>
<path d="M71.0652 64.0843C64.4715 57.3097 52.9455 44.9995 44.9858 39.9824" stroke="url(#paint4_linear_2223_17019)" stroke-opacity="0.71" stroke-width="12.0968" stroke-linecap="round"/>
<path d="M71.0652 64.0843C64.4715 57.3097 52.9455 44.9995 44.9858 39.9824" stroke="#5C170D" stroke-opacity="0.1" stroke-width="12.0968" stroke-linecap="round"/>
<path d="M71.0652 64.0843C64.4715 57.3097 52.9455 44.9995 44.9858 39.9824" stroke="#FF9ABE" stroke-opacity="0.13" stroke-width="12.0968" stroke-linecap="round"/>
<path d="M71.0652 64.0843C64.4715 57.3097 52.9455 44.9995 44.9858 39.9824" stroke="url(#paint5_linear_2223_17019)" stroke-width="12.0968" stroke-linecap="round"/>
<path d="M76.6694 50.4271C69.6137 45.2789 56.5941 34.5113 50.5511 29.5596" stroke="#F9D4BC" stroke-width="10.701" stroke-linecap="round"/>
<path d="M76.6694 50.4271C69.6137 45.2789 56.5941 34.5113 50.5511 29.5596" stroke="url(#paint6_radial_2223_17019)" stroke-opacity="0.65" stroke-width="10.701" stroke-linecap="round"/>
<path d="M76.6694 50.4271C69.6137 45.2789 56.5941 34.5113 50.5511 29.5596" stroke="url(#paint7_linear_2223_17019)" stroke-opacity="0.71" stroke-width="10.701" stroke-linecap="round"/>
<path d="M76.6694 50.4271C69.6137 45.2789 56.5941 34.5113 50.5511 29.5596" stroke="#5C170D" stroke-opacity="0.1" stroke-width="10.701" stroke-linecap="round"/>
<path d="M76.6694 50.4271C69.6137 45.2789 56.5941 34.5113 50.5511 29.5596" stroke="#FF9ABE" stroke-opacity="0.13" stroke-width="10.701" stroke-linecap="round"/>
<path d="M76.6694 50.4271C69.6137 45.2789 56.5941 34.5113 50.5511 29.5596" stroke="url(#paint8_linear_2223_17019)" stroke-width="10.701" stroke-linecap="round"/>
<path d="M76.6694 50.4271C69.6137 45.2789 56.5941 34.5113 50.5511 29.5596" stroke="url(#paint9_linear_2223_17019)" stroke-width="10.701" stroke-linecap="round"/>
<path d="M58.9627 67.722C53.2737 62.0823 43.9395 52.0296 37.9622 47.5361" stroke="#F9D4BC" stroke-width="10.701" stroke-linecap="round"/>
<path d="M58.9627 67.722C53.2737 62.0823 43.9395 52.0296 37.9622 47.5361" stroke="url(#paint10_radial_2223_17019)" stroke-opacity="0.65" stroke-width="10.701" stroke-linecap="round"/>
<path d="M58.9627 67.722C53.2737 62.0823 43.9395 52.0296 37.9622 47.5361" stroke="url(#paint11_linear_2223_17019)" stroke-opacity="0.71" stroke-width="10.701" stroke-linecap="round"/>
<path d="M58.9627 67.722C53.2737 62.0823 43.9395 52.0296 37.9622 47.5361" stroke="#5C170D" stroke-opacity="0.1" stroke-width="10.701" stroke-linecap="round"/>
<path d="M58.9627 67.722C53.2737 62.0823 43.9395 52.0296 37.9622 47.5361" stroke="#FF9ABE" stroke-opacity="0.13" stroke-width="10.701" stroke-linecap="round"/>
<path d="M58.9627 67.722C53.2737 62.0823 43.9395 52.0296 37.9622 47.5361" stroke="url(#paint12_linear_2223_17019)" stroke-width="10.701" stroke-linecap="round"/>
<path d="M58.9627 67.722C53.2737 62.0823 43.9395 52.0296 37.9622 47.5361" stroke="url(#paint13_linear_2223_17019)" stroke-width="10.701" stroke-linecap="round"/>
<path d="M47.9704 70.9667C43.9191 67.2652 36.1609 59.1433 31.3579 55.1191" stroke="#F9D4BC" stroke-width="10.2358" stroke-linecap="round"/>
<path d="M47.9704 70.9667C43.9191 67.2652 36.1609 59.1433 31.3579 55.1191" stroke="url(#paint14_radial_2223_17019)" stroke-opacity="0.65" stroke-width="10.2358" stroke-linecap="round"/>
<path d="M47.9704 70.9667C43.9191 67.2652 36.1609 59.1433 31.3579 55.1191" stroke="url(#paint15_linear_2223_17019)" stroke-opacity="0.71" stroke-width="10.2358" stroke-linecap="round"/>
<path d="M47.9704 70.9667C43.9191 67.2652 36.1609 59.1433 31.3579 55.1191" stroke="#5C170D" stroke-opacity="0.1" stroke-width="10.2358" stroke-linecap="round"/>
<path d="M47.9704 70.9667C43.9191 67.2652 36.1609 59.1433 31.3579 55.1191" stroke="#FF9ABE" stroke-opacity="0.13" stroke-width="10.2358" stroke-linecap="round"/>
<path d="M47.9704 70.9667C43.9191 67.2652 36.1609 59.1433 31.3579 55.1191" stroke="url(#paint16_linear_2223_17019)" stroke-width="10.2358" stroke-linecap="round"/>
<path d="M47.9704 70.9667C43.9191 67.2652 36.1609 59.1433 31.3579 55.1191" stroke="url(#paint17_linear_2223_17019)" stroke-width="10.2358" stroke-linecap="round"/>
<g filter="url(#filter0_i_2223_17019)">
<path d="M11.8661 40.5689C7.9406 35.993 8.0846 29.1969 12.2004 24.7914L22.0059 14.2957C26.0658 9.95 32.721 9.29415 37.5511 12.7638L57.8825 27.3685C60.8557 29.5042 61.265 33.7709 58.752 36.4329L36.9422 59.5357C34.4767 62.1473 30.2918 62.0478 27.9533 59.3218L11.8661 40.5689Z" fill="#E9B29B"/>
<path d="M11.8661 40.5689C7.9406 35.993 8.0846 29.1969 12.2004 24.7914L22.0059 14.2957C26.0658 9.95 32.721 9.29415 37.5511 12.7638L57.8825 27.3685C60.8557 29.5042 61.265 33.7709 58.752 36.4329L36.9422 59.5357C34.4767 62.1473 30.2918 62.0478 27.9533 59.3218L11.8661 40.5689Z" fill="url(#paint18_linear_2223_17019)"/>
<path d="M11.8661 40.5689C7.9406 35.993 8.0846 29.1969 12.2004 24.7914L22.0059 14.2957C26.0658 9.95 32.721 9.29415 37.5511 12.7638L57.8825 27.3685C60.8557 29.5042 61.265 33.7709 58.752 36.4329L36.9422 59.5357C34.4767 62.1473 30.2918 62.0478 27.9533 59.3218L11.8661 40.5689Z" fill="url(#paint19_linear_2223_17019)"/>
</g>
<circle cx="34.1734" cy="57.5844" r="5.58315" transform="rotate(2.99882 34.1734 57.5844)" fill="url(#paint20_radial_2223_17019)"/>
<circle cx="34.1734" cy="57.5844" r="5.58315" transform="rotate(2.99882 34.1734 57.5844)" fill="#FF9ABE" fill-opacity="0.2"/>
<circle cx="34.1734" cy="57.5844" r="5.58315" transform="rotate(2.99882 34.1734 57.5844)" fill="url(#paint21_radial_2223_17019)" fill-opacity="0.37"/>
<circle cx="34.1734" cy="57.5844" r="5.58315" transform="rotate(2.99882 34.1734 57.5844)" fill="#A46830" fill-opacity="0.09"/>
<circle cx="34.1734" cy="57.5844" r="5.58315" transform="rotate(2.99882 34.1734 57.5844)" fill="#E6AA97" fill-opacity="0.46"/>
<circle cx="34.1734" cy="57.5844" r="5.58315" transform="rotate(2.99882 34.1734 57.5844)" fill="url(#paint22_linear_2223_17019)" fill-opacity="0.63"/>
<circle cx="41.9732" cy="51.0072" r="5.58315" transform="rotate(2.99882 41.9732 51.0072)" fill="url(#paint23_radial_2223_17019)"/>
<circle cx="41.9732" cy="51.0072" r="5.58315" transform="rotate(2.99882 41.9732 51.0072)" fill="#FF9ABE" fill-opacity="0.2"/>
<circle cx="41.9732" cy="51.0072" r="5.58315" transform="rotate(2.99882 41.9732 51.0072)" fill="url(#paint24_radial_2223_17019)" fill-opacity="0.37"/>
<circle cx="41.9732" cy="51.0072" r="5.58315" transform="rotate(2.99882 41.9732 51.0072)" fill="#A46830" fill-opacity="0.09"/>
<circle cx="41.9732" cy="51.0072" r="5.58315" transform="rotate(2.99882 41.9732 51.0072)" fill="#E6AA97" fill-opacity="0.46"/>
<circle cx="41.9732" cy="51.0072" r="5.58315" transform="rotate(2.99882 41.9732 51.0072)" fill="url(#paint25_linear_2223_17019)" fill-opacity="0.7"/>
<circle cx="50.2857" cy="43.5206" r="6.04842" transform="rotate(2.99882 50.2857 43.5206)" fill="url(#paint26_radial_2223_17019)"/>
<circle cx="50.2857" cy="43.5206" r="6.04842" transform="rotate(2.99882 50.2857 43.5206)" fill="#FF9ABE" fill-opacity="0.2"/>
<circle cx="50.2857" cy="43.5206" r="6.04842" transform="rotate(2.99882 50.2857 43.5206)" fill="url(#paint27_radial_2223_17019)" fill-opacity="0.37"/>
<circle cx="50.2857" cy="43.5206" r="6.04842" transform="rotate(2.99882 50.2857 43.5206)" fill="#A46830" fill-opacity="0.09"/>
<circle cx="50.2857" cy="43.5206" r="6.04842" transform="rotate(2.99882 50.2857 43.5206)" fill="#E7B09A" fill-opacity="0.5"/>
<circle cx="50.2857" cy="43.5206" r="6.04842" transform="rotate(2.99882 50.2857 43.5206)" fill="url(#paint28_linear_2223_17019)" fill-opacity="0.7"/>
<circle cx="57.033" cy="34.7918" r="5.81578" transform="rotate(2.99882 57.033 34.7918)" fill="url(#paint29_radial_2223_17019)"/>
<circle cx="57.033" cy="34.7918" r="5.81578" transform="rotate(2.99882 57.033 34.7918)" fill="#FF9ABE" fill-opacity="0.2"/>
<circle cx="57.033" cy="34.7918" r="5.81578" transform="rotate(2.99882 57.033 34.7918)" fill="url(#paint30_radial_2223_17019)" fill-opacity="0.37"/>
<circle cx="57.033" cy="34.7918" r="5.81578" transform="rotate(2.99882 57.033 34.7918)" fill="#A46830" fill-opacity="0.09"/>
<circle cx="57.033" cy="34.7918" r="5.81578" transform="rotate(2.99882 57.033 34.7918)" fill="#F5CAB0" fill-opacity="0.5"/>
<circle cx="57.033" cy="34.7918" r="5.81578" transform="rotate(2.99882 57.033 34.7918)" fill="url(#paint31_linear_2223_17019)" fill-opacity="0.7"/>
<path d="M51.3105 53.0203C50.4967 52.1169 51.9645 48.6288 54.2812 46.542C56.5978 44.4551 59.8372 42.851 60.651 43.7544" stroke="#A7A39D" stroke-width="2.32631" stroke-linecap="round"/>
<path d="M51.3105 53.0203C50.4967 52.1169 51.9645 48.6288 54.2812 46.542C56.5978 44.4551 59.8372 42.851 60.651 43.7544" stroke="url(#paint32_radial_2223_17019)" stroke-opacity="0.63" stroke-width="2.32631" stroke-linecap="round"/>
<defs>
<filter id="filter0_i_2223_17019" x="4.82777" y="10.542" width="55.5747" height="57.4033" filterUnits="userSpaceOnUse" color-interpolation-filters="sRGB">
<feFlood flood-opacity="0" result="BackgroundImageFix"/>
<feBlend mode="normal" in="SourceGraphic" in2="BackgroundImageFix" result="shape"/>
<feColorMatrix in="SourceAlpha" type="matrix" values="0 0 0 0 0 0 0 0 0 0 0 0 0 0 0 0 0 0 127 0" result="hardAlpha"/>
<feOffset dx="-4.18737" dy="6.51368"/>
<feGaussianBlur stdDeviation="3.48947"/>
<feComposite in2="hardAlpha" operator="arithmetic" k2="-1" k3="1"/>
<feColorMatrix type="matrix" values="0 0 0 0 0.9625 0 0 0 0 0.797396 0 0 0 0 0.693802 0 0 0 1 0"/>
<feBlend mode="normal" in2="shape" result="effect1_innerShadow_2223_17019"/>
</filter>
<radialGradient id="paint0_radial_2223_17019" cx="0" cy="0" r="1" gradientUnits="userSpaceOnUse" gradientTransform="translate(37.6573 34.1728) rotate(89.7416) scale(41.4456 70.9304)">
<stop offset="0.162651" stop-color="#5C170D"/>
<stop offset="0.453125" stop-color="#FEBA88"/>
<stop offset="1" stop-color="#5C170D"/>
</radialGradient>
<linearGradient id="paint1_linear_2223_17019" x1="59.3597" y1="16.7289" x2="51.6149" y2="36.0265" gradientUnits="userSpaceOnUse">
<stop stop-color="#914B3F"/>
<stop offset="1" stop-color="#FFF8F7" stop-opacity="0"/>
</linearGradient>
<radialGradient id="paint2_radial_2223_17019" cx="0" cy="0" r="1" gradientUnits="userSpaceOnUse" gradientTransform="translate(80.2955 54.7473) rotate(-165.023) scale(53.9095 65.4931)">
<stop offset="0.162651" stop-color="#5C170D"/>
<stop offset="0.453125" stop-color="#FEBA88"/>
<stop offset="0.972495" stop-color="#5C170D"/>
</radialGradient>
<radialGradient id="paint3_radial_2223_17019" cx="0" cy="0" r="1" gradientUnits="userSpaceOnUse" gradientTransform="translate(84.9893 102.587) rotate(-152.271) scale(78.2449 85.0087)">
<stop offset="0.162651" stop-color="#5C170D"/>
<stop offset="0.453125" stop-color="#FEBA88"/>
<stop offset="0.972495" stop-color="#5C170D"/>
</radialGradient>
<linearGradient id="paint4_linear_2223_17019" x1="53.6793" y1="57.7263" x2="62.9641" y2="46.2647" gradientUnits="userSpaceOnUse">
<stop stop-color="#914B3F"/>
<stop offset="1" stop-color="#FFF8F7" stop-opacity="0"/>
</linearGradient>
<linearGradient id="paint5_linear_2223_17019" x1="43.3549" y1="37.2646" x2="56.1812" y2="46.0278" gradientUnits="userSpaceOnUse">
<stop stop-color="#E8B19A"/>
<stop offset="1" stop-color="#E4AA96" stop-opacity="0"/>
</linearGradient>
<radialGradient id="paint6_radial_2223_17019" cx="0" cy="0" r="1" gradientUnits="userSpaceOnUse" gradientTransform="translate(83.7105 85.2838) rotate(-149.716) scale(62.8902 73.2554)">
<stop offset="0.162651" stop-color="#5C170D"/>
<stop offset="0.453125" stop-color="#FEBA88"/>
<stop offset="0.972495" stop-color="#5C170D"/>
</radialGradient>
<linearGradient id="paint7_linear_2223_17019" x1="61.0367" y1="46.9543" x2="69.5905" y2="37.5775" gradientUnits="userSpaceOnUse">
<stop stop-color="#914B3F"/>
<stop offset="1" stop-color="#FFF8F7" stop-opacity="0"/>
</linearGradient>
<linearGradient id="paint8_linear_2223_17019" x1="50.1187" y1="29.1267" x2="60.9269" y2="37.835" gradientUnits="userSpaceOnUse">
<stop stop-color="#E8B19A"/>
<stop offset="1" stop-color="#E4AA96" stop-opacity="0"/>
</linearGradient>
<linearGradient id="paint9_linear_2223_17019" x1="57.8874" y1="37.5836" x2="62.521" y2="43.3348" gradientUnits="userSpaceOnUse">
<stop stop-color="#DEA58E"/>
<stop offset="1" stop-color="#E5AA97" stop-opacity="0"/>
</linearGradient>
<radialGradient id="paint10_radial_2223_17019" cx="0" cy="0" r="1" gradientUnits="userSpaceOnUse" gradientTransform="translate(67.3715 97.0237) rotate(-149.564) scale(57.3042 64.6493)">
<stop offset="0.162651" stop-color="#5C170D"/>
<stop offset="0.453125" stop-color="#FEBA88"/>
<stop offset="0.972495" stop-color="#5C170D"/>
</radialGradient>
<linearGradient id="paint11_linear_2223_17019" x1="46.4202" y1="62.5382" x2="53.9401" y2="54.2289" gradientUnits="userSpaceOnUse">
<stop stop-color="#914B3F"/>
<stop offset="1" stop-color="#FFF8F7" stop-opacity="0"/>
</linearGradient>
<linearGradient id="paint12_linear_2223_17019" x1="36.3397" y1="46.4933" x2="46.1607" y2="54.4598" gradientUnits="userSpaceOnUse">
<stop stop-color="#E8B19A"/>
<stop offset="1" stop-color="#E4AA96" stop-opacity="0"/>
</linearGradient>
<linearGradient id="paint13_linear_2223_17019" x1="43.458" y1="54.1406" x2="47.6174" y2="59.4075" gradientUnits="userSpaceOnUse">
<stop stop-color="#CF917F"/>
<stop offset="1" stop-color="#E5AA97" stop-opacity="0"/>
</linearGradient>
<radialGradient id="paint14_radial_2223_17019" cx="0" cy="0" r="1" gradientUnits="userSpaceOnUse" gradientTransform="translate(52.9979 96.9464) rotate(-150.504) scale(45.779 61.9698)">
<stop offset="0.162651" stop-color="#5C170D"/>
<stop offset="0.453125" stop-color="#FEBA88"/>
<stop offset="0.972495" stop-color="#5C170D"/>
</radialGradient>
<linearGradient id="paint15_linear_2223_17019" x1="37.6979" y1="67.2348" x2="45.0737" y2="59.4739" gradientUnits="userSpaceOnUse">
<stop stop-color="#914B3F"/>
<stop offset="1" stop-color="#FFF8F7" stop-opacity="0"/>
</linearGradient>
<linearGradient id="paint16_linear_2223_17019" x1="30.2879" y1="53.4473" x2="38.2431" y2="59.6768" gradientUnits="userSpaceOnUse">
<stop stop-color="#E8B19A"/>
<stop offset="1" stop-color="#E4AA96" stop-opacity="0"/>
</linearGradient>
<linearGradient id="paint17_linear_2223_17019" x1="35.7836" y1="59.8368" x2="39.3637" y2="63.9214" gradientUnits="userSpaceOnUse">
<stop stop-color="#CA8A7A"/>
<stop offset="1" stop-color="#E5AA97" stop-opacity="0"/>
</linearGradient>
<linearGradient id="paint18_linear_2223_17019" x1="7.73691" y1="46.4195" x2="32.652" y2="33.2818" gradientUnits="userSpaceOnUse">
<stop stop-color="#AD695F"/>
<stop offset="1" stop-color="#AD695F" stop-opacity="0"/>
</linearGradient>
<linearGradient id="paint19_linear_2223_17019" x1="47.6947" y1="48.5128" x2="28.7259" y2="28.1842" gradientUnits="userSpaceOnUse">
<stop stop-color="#D09485"/>
<stop offset="1" stop-color="#E4AA96" stop-opacity="0"/>
</linearGradient>
<radialGradient id="paint20_radial_2223_17019" cx="0" cy="0" r="1" gradientUnits="userSpaceOnUse" gradientTransform="translate(35.3971 55.0605) rotate(142.405) scale(13.2885)">
<stop stop-color="#FEBA88"/>
<stop offset="1" stop-color="#5C170D"/>
</radialGradient>
<radialGradient id="paint21_radial_2223_17019" cx="0" cy="0" r="1" gradientUnits="userSpaceOnUse" gradientTransform="translate(37.3857 53.5309) rotate(108.435) scale(10.1579)">
<stop stop-color="white"/>
<stop offset="1" stop-color="white" stop-opacity="0"/>
</radialGradient>
<linearGradient id="paint22_linear_2223_17019" x1="31.3819" y1="56.1886" x2="35.5692" y2="59.4454" gradientUnits="userSpaceOnUse">
<stop stop-color="#D79C8A"/>
<stop offset="1" stop-color="#E3A893" stop-opacity="0"/>
</linearGradient>
<radialGradient id="paint23_radial_2223_17019" cx="0" cy="0" r="1" gradientUnits="userSpaceOnUse" gradientTransform="translate(43.1969 48.4834) rotate(57.1268) scale(15.7463)">
<stop stop-color="#FEBA88"/>
<stop offset="1" stop-color="#5C170D"/>
</radialGradient>
<radialGradient id="paint24_radial_2223_17019" cx="0" cy="0" r="1" gradientUnits="userSpaceOnUse" gradientTransform="translate(45.1855 46.9537) rotate(108.435) scale(10.1579)">
<stop stop-color="white"/>
<stop offset="1" stop-color="white" stop-opacity="0"/>
</radialGradient>
<linearGradient id="paint25_linear_2223_17019" x1="39.1817" y1="49.6115" x2="43.369" y2="52.8683" gradientUnits="userSpaceOnUse">
<stop stop-color="#DBA18F"/>
<stop offset="1" stop-color="#E3A893" stop-opacity="0"/>
</linearGradient>
<radialGradient id="paint26_radial_2223_17019" cx="0" cy="0" r="1" gradientUnits="userSpaceOnUse" gradientTransform="translate(51.6114 40.7864) rotate(122.686) scale(16.2395)">
<stop stop-color="#FEBA88"/>
<stop offset="1" stop-color="#5C170D"/>
</radialGradient>
<radialGradient id="paint27_radial_2223_17019" cx="0" cy="0" r="1" gradientUnits="userSpaceOnUse" gradientTransform="translate(53.7656 39.1293) rotate(108.435) scale(11.0044)">
<stop stop-color="white"/>
<stop offset="1" stop-color="white" stop-opacity="0"/>
</radialGradient>
<linearGradient id="paint28_linear_2223_17019" x1="47.2615" y1="42.0085" x2="51.7978" y2="45.5368" gradientUnits="userSpaceOnUse">
<stop stop-color="#DCA28F"/>
<stop offset="1" stop-color="#E3A893" stop-opacity="0"/>
</linearGradient>
<radialGradient id="paint29_radial_2223_17019" cx="0" cy="0" r="1" gradientUnits="userSpaceOnUse" gradientTransform="translate(58.3077 32.1627) rotate(159.722) scale(16.983)">
<stop stop-color="#FEBA88"/>
<stop offset="1" stop-color="#5C170D"/>
</radialGradient>
<radialGradient id="paint30_radial_2223_17019" cx="0" cy="0" r="1" gradientUnits="userSpaceOnUse" gradientTransform="translate(60.3791 30.5693) rotate(108.435) scale(10.5812)">
<stop stop-color="white"/>
<stop offset="1" stop-color="white" stop-opacity="0"/>
</radialGradient>
<linearGradient id="paint31_linear_2223_17019" x1="54.1251" y1="30.4299" x2="58.4869" y2="36.7304" gradientUnits="userSpaceOnUse">
<stop stop-color="#EFC0A8"/>
<stop offset="1" stop-color="#E3A893" stop-opacity="0"/>
</linearGradient>
<radialGradient id="paint32_radial_2223_17019" cx="0" cy="0" r="1" gradientUnits="userSpaceOnUse" gradientTransform="translate(56.1379 48.5062) rotate(-133.08) scale(3.96548 12.7345)">
<stop stop-color="#A46B04" stop-opacity="0"/>
<stop offset="0.546875" stop-color="white"/>
<stop offset="1" stop-color="#4E3B1A" stop-opacity="0"/>
</radialGradient>
</defs>
</svg>
