<svg width="56" height="18" viewBox="0 0 56 18" fill="none" xmlns="http://www.w3.org/2000/svg">
<path d="M19.5884 17.7031L22.4015 0.303482H26.9006L24.0874 17.7031H19.5884Z" fill="#0060A6"/>
<path d="M40.409 0.731508C39.5205 0.380293 38.1187 0.000152588 36.3762 0.000152588C31.9296 0.000152588 28.7978 2.36225 28.7688 5.74356C28.744 8.24477 31.0052 9.64137 32.7105 10.4705C34.4654 11.3217 35.0559 11.8657 35.0476 12.6274C35.0338 13.794 33.6459 14.3284 32.3531 14.3284C30.5527 14.3284 29.5966 14.0639 28.1135 13.4152L27.5368 13.1384L26.9062 17.032C27.9548 17.5169 29.9001 17.9383 31.9213 17.959C36.648 17.959 39.7191 15.6258 39.755 12.0186C39.7716 10.0339 38.574 8.53263 35.9775 7.29029C34.4033 6.48318 33.4389 5.94878 33.45 5.13203C33.45 4.40757 34.2653 3.63351 36.0285 3.63351C37.502 3.61285 38.5644 3.94892 39.3963 4.30427L39.7978 4.50122L40.409 0.731508Z" fill="#0060A6"/>
<path d="M46.4022 11.5319C46.7748 10.532 48.1944 6.67002 48.1944 6.67002C48.1682 6.71685 48.5642 5.66045 48.7932 5.00898L49.0967 6.51025C49.0967 6.51025 49.959 10.6629 50.137 11.5319H46.4022ZM51.954 0.320595H48.4745C47.397 0.320595 46.5885 0.629114 46.1167 1.76402L39.4336 17.7051H44.1603C44.1603 17.7051 44.9315 15.562 45.1067 15.0909C45.6214 15.0909 50.2129 15.102 50.8682 15.102C51.0048 15.7093 51.4173 17.7051 51.4173 17.7051H55.5935L51.954 0.320595Z" fill="#0060A6"/>
<path d="M15.8092 0.31678L11.404 12.1782L10.9349 9.76793C10.114 6.99126 7.55885 3.97906 4.7002 2.46953L8.73155 17.6875L13.4928 17.6847L20.5787 0.31678H15.8092Z" fill="#0060A6"/>
<path d="M7.31908 0.305412H0.0593249L0 0.666269C5.64832 2.10832 9.38305 5.58467 10.9352 9.76758L9.3596 1.77225C9.08366 0.671779 8.2945 0.343977 7.31908 0.305412Z" fill="#FAA61A"/>
</svg>
