<svg width="35" height="40" viewBox="0 0 35 40" fill="none" xmlns="http://www.w3.org/2000/svg">
<path d="M23.2467 11.6277C23.4279 11.6277 23.6017 11.5574 23.7298 11.4322C23.8579 11.307 23.9299 11.1373 23.9299 10.9603V4.28892C23.9276 3.43849 23.589 2.62182 22.9849 2.00949C22.3808 1.39715 21.5578 1.03651 20.6879 1.00288C20.5928 1.01222 4.21914 0.986194 4.13792 1.01122C3.28729 1.06806 2.49039 1.43795 1.90802 2.04627C1.32565 2.65459 1.00115 3.45604 1 4.28892V35.9327C1.00102 36.8039 1.35577 37.6392 1.98642 38.2552C2.61707 38.8713 3.47212 39.2178 4.36399 39.2188H20.566C21.4579 39.2178 22.3129 38.8712 22.9435 38.2552C23.5742 37.6392 23.9289 36.8039 23.9299 35.9327V30.651C23.8975 29.7626 22.5909 29.7737 22.5634 30.651V35.9326C22.5628 36.4499 22.3522 36.9459 21.9778 37.3117C21.6033 37.6775 21.0956 37.8832 20.566 37.8838H4.36365C3.83415 37.8831 3.32654 37.6774 2.95214 37.3116C2.57775 36.9458 2.36714 36.45 2.3665 35.9327V4.28892C2.36713 3.84287 2.52394 3.41045 2.81089 3.06349C3.09785 2.71652 3.49767 2.47589 3.94396 2.38155L4.64259 3.25447C5.12943 3.86655 5.75345 4.36145 6.46668 4.70113C7.17992 5.04081 7.96339 5.21622 8.75687 5.2139H16.1735C16.967 5.21622 17.7504 5.04081 18.4637 4.70113C19.1769 4.36145 19.8009 3.86655 20.2878 3.25447L20.9864 2.38155C21.4326 2.47597 21.8323 2.71664 22.1192 3.0636C22.4061 3.41056 22.5628 3.84293 22.5634 4.28892V10.9603C22.5634 11.1373 22.6354 11.307 22.7635 11.4322C22.8917 11.5574 23.0655 11.6277 23.2467 11.6277ZM19.2109 2.43211C18.8514 2.88405 18.3907 3.24947 17.8641 3.50027C17.3375 3.75108 16.759 3.88059 16.1731 3.87886H8.75653C8.14996 3.87983 7.55175 3.74072 7.01069 3.47286C6.46964 3.20501 6.00107 2.816 5.64321 2.33758H19.2866L19.2109 2.43211Z" fill="#55B3FF" stroke="#55B3FF" stroke-width="0.2"/>
<path d="M30.4146 10.7268C29.963 10.2666 29.1087 10.5822 29.1179 11.2059V12.7464H22.7128C21.9973 12.7464 21.3112 13.0113 20.8053 13.483C20.2993 13.9547 20.0151 14.5944 20.0151 15.2614C20.0151 15.9284 20.2993 16.5682 20.8053 17.0398C21.3112 17.5115 21.9973 17.7765 22.7128 17.7765H29.1176V19.3175C29.1036 19.936 29.9671 20.2586 30.4143 19.7966L34.5048 15.7405C34.6356 15.6108 34.7084 15.4395 34.7084 15.2614C34.7084 15.0834 34.6356 14.912 34.5048 14.7823L30.4146 10.7268ZM30.6183 17.5532V17.0776C30.6183 16.8921 30.5392 16.7142 30.3985 16.5831C30.2579 16.4519 30.067 16.3782 29.8681 16.3782H22.7128C21.1292 16.3231 21.1248 14.2025 22.7128 14.1457H29.8678C30.0668 14.1457 30.2576 14.0721 30.3983 13.9409C30.539 13.8097 30.618 13.6318 30.618 13.4463V12.9708L32.9285 15.2619L30.6183 17.5532Z" fill="#55B3FF" stroke="#55B3FF" stroke-width="0.2"/>
<path d="M24.2674 20.0643C24.1276 20.0127 23.9744 20.0014 23.8277 20.0319C23.681 20.0624 23.5475 20.1333 23.4445 20.2354L19.354 24.2908C19.2232 24.4205 19.1504 24.5918 19.1504 24.7698C19.1504 24.9478 19.2232 25.1191 19.354 25.2488L23.4445 29.3042C23.8909 29.7651 24.7558 29.4447 24.7412 28.8252V27.2846H31.1461C31.8615 27.2846 32.5477 27.0196 33.0536 26.548C33.5595 26.0765 33.8437 25.4369 33.8437 24.77C33.8437 24.1031 33.5595 23.4635 33.0536 22.9919C32.5477 22.5203 31.8615 22.2554 31.1461 22.2554H24.7412V20.7143C24.7412 20.5742 24.696 20.4373 24.6115 20.3214C24.527 20.2055 24.4071 20.1159 24.2674 20.0643ZM31.1461 23.6538C32.7304 23.7093 32.7333 25.8293 31.1461 25.8859H23.991C23.7921 25.8859 23.6012 25.9595 23.4606 26.0907C23.3199 26.2218 23.2408 26.3997 23.2408 26.5852V27.0606L20.9302 24.7699L23.2408 22.4791V22.9546C23.2408 23.14 23.3199 23.3179 23.4606 23.4491C23.6012 23.5802 23.7921 23.6539 23.991 23.6539L31.1461 23.6538Z" fill="#55B3FF" stroke="#55B3FF" stroke-width="0.2"/>
<path d="M11.1523 35.0679C10.25 35.0948 10.2488 36.3755 11.1523 36.4027H13.777C14.6794 36.3758 14.6806 35.0952 13.777 35.0679H11.1523Z" fill="#55B3FF" stroke="#55B3FF" stroke-width="0.2"/>
</svg>
