<svg width="10" height="9" viewBox="0 0 10 9" fill="none" xmlns="http://www.w3.org/2000/svg">
<path d="M2.99292 7.85942C2.41807 7.28207 1.82547 6.68917 1.2373 6.10072C2.71771 4.61958 4.20477 3.13179 5.68739 1.64844C6.27333 2.23467 6.86372 2.82535 7.44523 3.40714C5.96482 4.88827 4.47554 6.37607 2.99292 7.85942Z" fill="white"/>
<path d="M7.34954 0C7.93327 0.584014 8.52365 1.17469 9.10738 1.75871C8.66348 2.20282 8.2107 2.6536 7.76902 3.0955C7.18974 2.5137 6.59935 1.92081 6.01562 1.33457C6.44843 0.901558 6.9012 0.448559 7.34954 0Z" fill="white"/>
<path d="M2.74418 8.1267C1.88524 8.41093 1.00854 8.70183 0.107422 8.99939C0.404834 8.10227 0.695587 7.22514 0.981902 6.36133C1.56785 6.94978 2.15601 7.53824 2.74418 8.1267Z" fill="white"/>
</svg>
