<svg width="41" height="34" viewBox="0 0 41 34" fill="none" xmlns="http://www.w3.org/2000/svg">
<mask id="path-1-inside-1_2220_12570" fill="white">
<path d="M40.098 33.9988H0.617132C0.453523 33.9988 0.296616 33.9353 0.180927 33.8223C0.0652376 33.7093 0.000244141 33.556 0.000244141 33.3962V29.5455C0.000244141 29.3857 0.0652376 29.2324 0.180927 29.1194C0.296616 29.0064 0.453523 28.9429 0.617132 28.9429H40.098C40.2616 28.9429 40.4185 29.0064 40.5342 29.1194C40.6499 29.2324 40.7149 29.3857 40.7149 29.5455V33.3962C40.7149 33.556 40.6499 33.7093 40.5342 33.8223C40.4185 33.9353 40.2616 33.9988 40.098 33.9988ZM1.23402 32.7936H39.4811V30.1481H1.23402V32.7936Z"/>
</mask>
<path d="M40.098 33.9988H0.617132C0.453523 33.9988 0.296616 33.9353 0.180927 33.8223C0.0652376 33.7093 0.000244141 33.556 0.000244141 33.3962V29.5455C0.000244141 29.3857 0.0652376 29.2324 0.180927 29.1194C0.296616 29.0064 0.453523 28.9429 0.617132 28.9429H40.098C40.2616 28.9429 40.4185 29.0064 40.5342 29.1194C40.6499 29.2324 40.7149 29.3857 40.7149 29.5455V33.3962C40.7149 33.556 40.6499 33.7093 40.5342 33.8223C40.4185 33.9353 40.2616 33.9988 40.098 33.9988ZM1.23402 32.7936H39.4811V30.1481H1.23402V32.7936Z" fill="#55B3FF"/>
<path d="M1.23402 32.7936H-0.565979V34.5936H1.23402V32.7936ZM39.4811 32.7936V34.5936H41.2811V32.7936H39.4811ZM39.4811 30.1481H41.2811V28.3481H39.4811V30.1481ZM1.23402 30.1481V28.3481H-0.565979V30.1481H1.23402ZM40.098 32.1988H0.617132V35.7988H40.098V32.1988ZM0.617132 32.1988C0.917488 32.1988 1.21379 32.3149 1.43873 32.5347L-1.07688 35.1099C-0.620559 35.5557 -0.0104411 35.7988 0.617132 35.7988V32.1988ZM1.43873 32.5347C1.6651 32.7558 1.80024 33.0648 1.80024 33.3962H-1.79976C-1.79976 34.0472 -1.53463 34.6627 -1.07688 35.1099L1.43873 32.5347ZM1.80024 33.3962V29.5455H-1.79976V33.3962H1.80024ZM1.80024 29.5455C1.80024 29.8768 1.6651 30.1858 1.43873 30.407L-1.07688 27.8318C-1.53463 28.2789 -1.79976 28.8945 -1.79976 29.5455H1.80024ZM1.43873 30.407C1.21379 30.6267 0.917488 30.7429 0.617132 30.7429V27.1429C-0.0104411 27.1429 -0.620559 27.386 -1.07688 27.8318L1.43873 30.407ZM0.617132 30.7429H40.098V27.1429H0.617132V30.7429ZM40.098 30.7429C39.7976 30.7429 39.5013 30.6267 39.2764 30.407L41.792 27.8318C41.3357 27.386 40.7255 27.1429 40.098 27.1429V30.7429ZM39.2764 30.407C39.05 30.1858 38.9149 29.8768 38.9149 29.5455H42.5149C42.5149 28.8945 42.2497 28.2789 41.792 27.8318L39.2764 30.407ZM38.9149 29.5455V33.3962H42.5149V29.5455H38.9149ZM38.9149 33.3962C38.9149 33.0648 39.05 32.7558 39.2764 32.5347L41.792 35.1099C42.2497 34.6627 42.5149 34.0472 42.5149 33.3962H38.9149ZM39.2764 32.5347C39.5013 32.3149 39.7976 32.1988 40.098 32.1988V35.7988C40.7255 35.7988 41.3357 35.5557 41.792 35.1099L39.2764 32.5347ZM1.23402 34.5936H39.4811V30.9936H1.23402V34.5936ZM41.2811 32.7936V30.1481H37.6811V32.7936H41.2811ZM39.4811 28.3481H1.23402V31.9481H39.4811V28.3481ZM-0.565979 30.1481V32.7936H3.03402V30.1481H-0.565979Z" fill="#55B3FF" mask="url(#path-1-inside-1_2220_12570)"/>
<path d="M25.3318 29.3663L25.3882 29.3948L25.3318 29.3663ZM25.2766 29.9342C25.1144 29.9342 24.9589 29.8813 24.8443 29.7871L25.2766 29.9342Z" fill="#55B3FF" stroke="#55B3FF" stroke-width="1.8"/>
<path d="M25.5696 7.71396L25.5696 7.71396L25.5696 7.71396ZM25.5696 7.71396L25.5696 7.71396L25.5763 7.7102M25.5696 7.71396L25.5357 7.75985L25.5296 7.7681L25.5763 7.7102M25.5763 7.7102L25.6298 7.67977M25.5763 7.7102L25.6298 7.67977M25.5763 7.7102L25.6298 7.67977M25.5763 7.7102L25.6298 7.67977M37.4256 29.9356C37.267 29.9356 37.1149 29.8851 37.0027 29.7951L37.4256 29.9356ZM37.4256 29.9356C37.5043 29.9358 37.5822 29.9235 37.6549 29.8994M37.4256 29.9356L37.6549 29.8994M37.4843 29.3838L37.5447 29.4151L37.6238 29.4559L37.5447 29.415L37.4843 29.3838ZM37.4843 29.3838L37.4593 29.3083L37.4843 29.3838ZM37.8493 29.7955C37.9049 29.7509 37.9491 29.698 37.9792 29.6397L37.8493 29.7955ZM37.8493 29.7955C37.7936 29.84 37.7275 29.8754 37.6549 29.8994M37.8493 29.7955L37.6549 29.8994M37.4268 29.2101L37.44 29.25L37.4268 29.2101ZM25.2811 8.10385L25.5195 7.78172L25.2811 8.10385Z" fill="#55B3FF" stroke="#55B3FF" stroke-width="1.8"/>
<mask id="path-5-inside-2_2220_12570" fill="white">
<path d="M12.282 10.2666H7.08906C6.92545 10.2666 6.76854 10.2031 6.65285 10.0901C6.53716 9.97709 6.47217 9.82382 6.47217 9.664V4.64607C6.47217 4.48624 6.53716 4.33297 6.65285 4.21996C6.76854 4.10695 6.92545 4.04346 7.08906 4.04346H12.282C12.4456 4.04346 12.6025 4.10695 12.7182 4.21996C12.8339 4.33297 12.8989 4.48624 12.8989 4.64607V9.664C12.8989 9.82382 12.8339 9.97709 12.7182 10.0901C12.6025 10.2031 12.4456 10.2666 12.282 10.2666ZM7.70594 9.06139H11.6651V5.24868H7.70594V9.06139Z"/>
</mask>
<path d="M12.282 10.2666H7.08906C6.92545 10.2666 6.76854 10.2031 6.65285 10.0901C6.53716 9.97709 6.47217 9.82382 6.47217 9.664V4.64607C6.47217 4.48624 6.53716 4.33297 6.65285 4.21996C6.76854 4.10695 6.92545 4.04346 7.08906 4.04346H12.282C12.4456 4.04346 12.6025 4.10695 12.7182 4.21996C12.8339 4.33297 12.8989 4.48624 12.8989 4.64607V9.664C12.8989 9.82382 12.8339 9.97709 12.7182 10.0901C12.6025 10.2031 12.4456 10.2666 12.282 10.2666ZM7.70594 9.06139H11.6651V5.24868H7.70594V9.06139Z" fill="#55B3FF"/>
<path d="M7.08906 4.04346V2.24346V4.04346ZM7.70594 9.06139H5.90594V10.8614H7.70594V9.06139ZM11.6651 9.06139V10.8614H13.4651V9.06139H11.6651ZM11.6651 5.24868H13.4651V3.44868H11.6651V5.24868ZM7.70594 5.24868V3.44868H5.90594V5.24868H7.70594ZM12.282 8.4666H7.08906V12.0666H12.282V8.4666ZM7.08906 8.4666C7.38942 8.4666 7.68571 8.58277 7.91065 8.8025L5.39505 11.3777C5.85136 11.8235 6.46148 12.0666 7.08906 12.0666V8.4666ZM7.91065 8.8025C8.13703 9.02363 8.27217 9.33265 8.27217 9.664H4.67217C4.67217 10.315 4.93729 10.9306 5.39505 11.3777L7.91065 8.8025ZM8.27217 9.664V4.64607H4.67217V9.664H8.27217ZM8.27217 4.64607C8.27217 4.97741 8.13703 5.28643 7.91065 5.50756L5.39505 2.93235C4.93729 3.37951 4.67217 3.99508 4.67217 4.64607H8.27217ZM7.91065 5.50756C7.68571 5.7273 7.38941 5.84346 7.08906 5.84346V2.24346C6.46148 2.24346 5.85137 2.48659 5.39505 2.93235L7.91065 5.50756ZM7.08906 5.84346H12.282V2.24346H7.08906V5.84346ZM12.282 5.84346C11.9817 5.84346 11.6854 5.7273 11.4604 5.50756L13.976 2.93235C13.5197 2.48659 12.9096 2.24346 12.282 2.24346V5.84346ZM11.4604 5.50756C11.234 5.28643 11.0989 4.97741 11.0989 4.64607H14.6989C14.6989 3.99508 14.4338 3.37951 13.976 2.93235L11.4604 5.50756ZM11.0989 4.64607V9.664H14.6989V4.64607H11.0989ZM11.0989 9.664C11.0989 9.33265 11.234 9.02363 11.4604 8.8025L13.976 11.3777C14.4338 10.9306 14.6989 10.315 14.6989 9.664H11.0989ZM11.4604 8.8025C11.6854 8.58277 11.9817 8.4666 12.282 8.4666V12.0666C12.9096 12.0666 13.5197 11.8235 13.976 11.3777L11.4604 8.8025ZM7.70594 10.8614H11.6651V7.26139H7.70594V10.8614ZM13.4651 9.06139V5.24868H9.86513V9.06139H13.4651ZM11.6651 3.44868H7.70594V7.04868H11.6651V3.44868ZM5.90594 5.24868V9.06139H9.50594V5.24868H5.90594Z" fill="#55B3FF" mask="url(#path-5-inside-2_2220_12570)"/>
<mask id="path-7-inside-3_2220_12570" fill="white">
<path d="M21.9214 10.2666H16.7285C16.5649 10.2666 16.4079 10.2031 16.2923 10.0901C16.1766 9.97709 16.1116 9.82382 16.1116 9.664V4.64607C16.1116 4.48624 16.1766 4.33297 16.2923 4.21996C16.4079 4.10695 16.5649 4.04346 16.7285 4.04346H21.9214C22.085 4.04346 22.2419 4.10695 22.3576 4.21996C22.4733 4.33297 22.5383 4.48624 22.5383 4.64607V9.664C22.5383 9.82382 22.4733 9.97709 22.3576 10.0901C22.2419 10.2031 22.085 10.2666 21.9214 10.2666ZM17.3453 9.06139H21.3045V5.24868H17.3453V9.06139Z"/>
</mask>
<path d="M21.9214 10.2666H16.7285C16.5649 10.2666 16.4079 10.2031 16.2923 10.0901C16.1766 9.97709 16.1116 9.82382 16.1116 9.664V4.64607C16.1116 4.48624 16.1766 4.33297 16.2923 4.21996C16.4079 4.10695 16.5649 4.04346 16.7285 4.04346H21.9214C22.085 4.04346 22.2419 4.10695 22.3576 4.21996C22.4733 4.33297 22.5383 4.48624 22.5383 4.64607V9.664C22.5383 9.82382 22.4733 9.97709 22.3576 10.0901C22.2419 10.2031 22.085 10.2666 21.9214 10.2666ZM17.3453 9.06139H21.3045V5.24868H17.3453V9.06139Z" fill="#55B3FF"/>
<path d="M16.7285 4.04346V2.24346V4.04346ZM17.3453 9.06139H15.5453V10.8614H17.3453V9.06139ZM21.3045 9.06139V10.8614H23.1045V9.06139H21.3045ZM21.3045 5.24868H23.1045V3.44868H21.3045V5.24868ZM17.3453 5.24868V3.44868H15.5453V5.24868H17.3453ZM21.9214 8.4666H16.7285V12.0666H21.9214V8.4666ZM16.7285 8.4666C17.0288 8.4666 17.3251 8.58277 17.5501 8.8025L15.0345 11.3777C15.4908 11.8235 16.1009 12.0666 16.7285 12.0666V8.4666ZM17.5501 8.8025C17.7764 9.02363 17.9116 9.33265 17.9116 9.664H14.3116C14.3116 10.315 14.5767 10.9306 15.0345 11.3777L17.5501 8.8025ZM17.9116 9.664V4.64607H14.3116V9.664H17.9116ZM17.9116 4.64607C17.9116 4.97741 17.7764 5.28643 17.5501 5.50756L15.0345 2.93235C14.5767 3.37951 14.3116 3.99508 14.3116 4.64607H17.9116ZM17.5501 5.50756C17.3251 5.7273 17.0288 5.84346 16.7285 5.84346V2.24346C16.1009 2.24346 15.4908 2.48659 15.0345 2.93235L17.5501 5.50756ZM16.7285 5.84346H21.9214V2.24346H16.7285V5.84346ZM21.9214 5.84346C21.6211 5.84346 21.3248 5.7273 21.0998 5.50756L23.6154 2.93235C23.1591 2.48659 22.549 2.24346 21.9214 2.24346V5.84346ZM21.0998 5.50756C20.8735 5.28643 20.7383 4.97741 20.7383 4.64607H24.3383C24.3383 3.99508 24.0732 3.37951 23.6154 2.93235L21.0998 5.50756ZM20.7383 4.64607V9.664H24.3383V4.64607H20.7383ZM20.7383 9.664C20.7383 9.33265 20.8735 9.02363 21.0998 8.8025L23.6154 11.3777C24.0732 10.9306 24.3383 10.315 24.3383 9.664H20.7383ZM21.0998 8.8025C21.3248 8.58277 21.6211 8.4666 21.9214 8.4666V12.0666C22.549 12.0666 23.1591 11.8235 23.6154 11.3777L21.0998 8.8025ZM17.3453 10.8614H21.3045V7.26139H17.3453V10.8614ZM23.1045 9.06139V5.24868H19.5045V9.06139H23.1045ZM21.3045 3.44868H17.3453V7.04868H21.3045V3.44868ZM15.5453 5.24868V9.06139H19.1453V5.24868H15.5453Z" fill="#55B3FF" mask="url(#path-7-inside-3_2220_12570)"/>
<mask id="path-9-inside-4_2220_12570" fill="white">
<path d="M12.282 19.0361H7.08906C6.92545 19.0361 6.76854 18.9726 6.65285 18.8596C6.53716 18.7466 6.47217 18.5933 6.47217 18.4335V13.4156C6.47217 13.2558 6.53716 13.1025 6.65285 12.9895C6.76854 12.8765 6.92545 12.813 7.08906 12.813H12.282C12.4456 12.813 12.6025 12.8765 12.7182 12.9895C12.8339 13.1025 12.8989 13.2558 12.8989 13.4156V18.4335C12.8989 18.5933 12.8339 18.7466 12.7182 18.8596C12.6025 18.9726 12.4456 19.0361 12.282 19.0361ZM7.70594 17.8309H11.6651V14.0182H7.70594V17.8309Z"/>
</mask>
<path d="M12.282 19.0361H7.08906C6.92545 19.0361 6.76854 18.9726 6.65285 18.8596C6.53716 18.7466 6.47217 18.5933 6.47217 18.4335V13.4156C6.47217 13.2558 6.53716 13.1025 6.65285 12.9895C6.76854 12.8765 6.92545 12.813 7.08906 12.813H12.282C12.4456 12.813 12.6025 12.8765 12.7182 12.9895C12.8339 13.1025 12.8989 13.2558 12.8989 13.4156V18.4335C12.8989 18.5933 12.8339 18.7466 12.7182 18.8596C12.6025 18.9726 12.4456 19.0361 12.282 19.0361ZM7.70594 17.8309H11.6651V14.0182H7.70594V17.8309Z" fill="#55B3FF"/>
<path d="M7.70594 17.8309H5.90594V19.6309H7.70594V17.8309ZM11.6651 17.8309V19.6309H13.4651V17.8309H11.6651ZM11.6651 14.0182H13.4651V12.2182H11.6651V14.0182ZM7.70594 14.0182V12.2182H5.90594V14.0182H7.70594ZM12.282 17.2361H7.08906V20.8361H12.282V17.2361ZM7.08906 17.2361C7.3894 17.2361 7.6857 17.3522 7.91065 17.572L5.39505 20.1472C5.85138 20.593 6.46149 20.8361 7.08906 20.8361V17.2361ZM7.91065 17.572C8.13703 17.7931 8.27217 18.1021 8.27217 18.4335H4.67217C4.67217 19.0845 4.9373 19.7 5.39505 20.1472L7.91065 17.572ZM8.27217 18.4335V13.4156H4.67217V18.4335H8.27217ZM8.27217 13.4156C8.27217 13.7469 8.13703 14.056 7.91065 14.2771L5.39505 11.7019C4.9373 12.149 4.67217 12.7646 4.67217 13.4156H8.27217ZM7.91065 14.2771C7.6857 14.4968 7.3894 14.613 7.08906 14.613V11.013C6.46149 11.013 5.85138 11.2561 5.39505 11.7019L7.91065 14.2771ZM7.08906 14.613H12.282V11.013H7.08906V14.613ZM12.282 14.613C11.9817 14.613 11.6854 14.4968 11.4604 14.2771L13.976 11.7019C13.5197 11.2561 12.9096 11.013 12.282 11.013V14.613ZM11.4604 14.2771C11.234 14.056 11.0989 13.7469 11.0989 13.4156H14.6989C14.6989 12.7646 14.4338 12.149 13.976 11.7019L11.4604 14.2771ZM11.0989 13.4156V18.4335H14.6989V13.4156H11.0989ZM11.0989 18.4335C11.0989 18.1021 11.234 17.7931 11.4604 17.572L13.976 20.1472C14.4338 19.7 14.6989 19.0845 14.6989 18.4335H11.0989ZM11.4604 17.572C11.6854 17.3522 11.9817 17.2361 12.282 17.2361V20.8361C12.9096 20.8361 13.5197 20.593 13.976 20.1472L11.4604 17.572ZM7.70594 19.6309H11.6651V16.0309H7.70594V19.6309ZM13.4651 17.8309V14.0182H9.86513V17.8309H13.4651ZM11.6651 12.2182H7.70594V15.8182H11.6651V12.2182ZM5.90594 14.0182V17.8309H9.50594V14.0182H5.90594Z" fill="#55B3FF" mask="url(#path-9-inside-4_2220_12570)"/>
<mask id="path-11-inside-5_2220_12570" fill="white">
<path d="M21.9214 19.0361H16.7285C16.5649 19.0361 16.4079 18.9726 16.2923 18.8596C16.1766 18.7466 16.1116 18.5933 16.1116 18.4335V13.4156C16.1116 13.2558 16.1766 13.1025 16.2923 12.9895C16.4079 12.8765 16.5649 12.813 16.7285 12.813H21.9214C22.085 12.813 22.2419 12.8765 22.3576 12.9895C22.4733 13.1025 22.5383 13.2558 22.5383 13.4156V18.4335C22.5383 18.5933 22.4733 18.7466 22.3576 18.8596C22.2419 18.9726 22.085 19.0361 21.9214 19.0361ZM17.3453 17.8309H21.3045V14.0182H17.3453V17.8309Z"/>
</mask>
<path d="M21.9214 19.0361H16.7285C16.5649 19.0361 16.4079 18.9726 16.2923 18.8596C16.1766 18.7466 16.1116 18.5933 16.1116 18.4335V13.4156C16.1116 13.2558 16.1766 13.1025 16.2923 12.9895C16.4079 12.8765 16.5649 12.813 16.7285 12.813H21.9214C22.085 12.813 22.2419 12.8765 22.3576 12.9895C22.4733 13.1025 22.5383 13.2558 22.5383 13.4156V18.4335C22.5383 18.5933 22.4733 18.7466 22.3576 18.8596C22.2419 18.9726 22.085 19.0361 21.9214 19.0361ZM17.3453 17.8309H21.3045V14.0182H17.3453V17.8309Z" fill="#55B3FF"/>
<path d="M17.3453 17.8309H15.5453V19.6309H17.3453V17.8309ZM21.3045 17.8309V19.6309H23.1045V17.8309H21.3045ZM21.3045 14.0182H23.1045V12.2182H21.3045V14.0182ZM17.3453 14.0182V12.2182H15.5453V14.0182H17.3453ZM21.9214 17.2361H16.7285V20.8361H21.9214V17.2361ZM16.7285 17.2361C17.0288 17.2361 17.3251 17.3522 17.5501 17.572L15.0345 20.1472C15.4908 20.593 16.1009 20.8361 16.7285 20.8361V17.2361ZM17.5501 17.572C17.7764 17.7931 17.9116 18.1021 17.9116 18.4335H14.3116C14.3116 19.0845 14.5767 19.7 15.0345 20.1472L17.5501 17.572ZM17.9116 18.4335V13.4156H14.3116V18.4335H17.9116ZM17.9116 13.4156C17.9116 13.7469 17.7764 14.056 17.5501 14.2771L15.0345 11.7019C14.5767 12.149 14.3116 12.7646 14.3116 13.4156H17.9116ZM17.5501 14.2771C17.3251 14.4968 17.0288 14.613 16.7285 14.613V11.013C16.1009 11.013 15.4908 11.2561 15.0345 11.7019L17.5501 14.2771ZM16.7285 14.613H21.9214V11.013H16.7285V14.613ZM21.9214 14.613C21.6211 14.613 21.3248 14.4968 21.0998 14.2771L23.6154 11.7019C23.1591 11.2561 22.549 11.013 21.9214 11.013V14.613ZM21.0998 14.2771C20.8735 14.056 20.7383 13.7469 20.7383 13.4156H24.3383C24.3383 12.7646 24.0732 12.149 23.6154 11.7019L21.0998 14.2771ZM20.7383 13.4156V18.4335H24.3383V13.4156H20.7383ZM20.7383 18.4335C20.7383 18.1021 20.8735 17.7931 21.0998 17.572L23.6154 20.1472C24.0732 19.7 24.3383 19.0845 24.3383 18.4335H20.7383ZM21.0998 17.572C21.3248 17.3522 21.6211 17.2361 21.9214 17.2361V20.8361C22.549 20.8361 23.1591 20.593 23.6154 20.1472L21.0998 17.572ZM17.3453 19.6309H21.3045V16.0309H17.3453V19.6309ZM23.1045 17.8309V14.0182H19.5045V17.8309H23.1045ZM21.3045 12.2182H17.3453V15.8182H21.3045V12.2182ZM15.5453 14.0182V17.8309H19.1453V14.0182H15.5453Z" fill="#55B3FF" mask="url(#path-11-inside-5_2220_12570)"/>
<mask id="path-13-inside-6_2220_12570" fill="white">
<path d="M33.6483 15.5275H29.5102C29.3466 15.5275 29.1897 15.464 29.074 15.351C28.9583 15.238 28.8933 15.0847 28.8933 14.9249C28.8933 14.765 28.9583 14.6118 29.074 14.4988C29.1897 14.3858 29.3466 14.3223 29.5102 14.3223H33.6483C33.8119 14.3223 33.9688 14.3858 34.0845 14.4988C34.2002 14.6118 34.2652 14.765 34.2652 14.9249C34.2652 15.0847 34.2002 15.238 34.0845 15.351C33.9688 15.464 33.8119 15.5275 33.6483 15.5275Z"/>
</mask>
<path d="M33.6483 15.5275H29.5102C29.3466 15.5275 29.1897 15.464 29.074 15.351C28.9583 15.238 28.8933 15.0847 28.8933 14.9249C28.8933 14.765 28.9583 14.6118 29.074 14.4988C29.1897 14.3858 29.3466 14.3223 29.5102 14.3223H33.6483C33.8119 14.3223 33.9688 14.3858 34.0845 14.4988C34.2002 14.6118 34.2652 14.765 34.2652 14.9249C34.2652 15.0847 34.2002 15.238 34.0845 15.351C33.9688 15.464 33.8119 15.5275 33.6483 15.5275Z" fill="#55B3FF"/>
<path d="M33.6483 13.7275H29.5102V17.3275H33.6483V13.7275ZM29.5102 13.7275C29.8106 13.7275 30.1069 13.8436 30.3318 14.0634L27.8162 16.6386C28.2725 17.0843 28.8826 17.3275 29.5102 17.3275V13.7275ZM30.3318 14.0634C30.5582 14.2845 30.6933 14.5935 30.6933 14.9249H27.0933C27.0933 15.5759 27.3585 16.1914 27.8162 16.6386L30.3318 14.0634ZM30.6933 14.9249C30.6933 15.2562 30.5582 15.5653 30.3318 15.7864L27.8162 13.2112C27.3585 13.6583 27.0933 14.2739 27.0933 14.9249H30.6933ZM30.3318 15.7864C30.1069 16.0061 29.8106 16.1223 29.5102 16.1223V12.5223C28.8826 12.5223 28.2725 12.7654 27.8162 13.2112L30.3318 15.7864ZM29.5102 16.1223H33.6483V12.5223H29.5102V16.1223ZM33.6483 16.1223C33.3479 16.1223 33.0516 16.0061 32.8267 15.7864L35.3423 13.2112C34.886 12.7654 34.2759 12.5223 33.6483 12.5223V16.1223ZM32.8267 15.7864C32.6003 15.5652 32.4652 15.2562 32.4652 14.9249H36.0652C36.0652 14.2739 35.8 13.6583 35.3423 13.2112L32.8267 15.7864ZM32.4652 14.9249C32.4652 14.5935 32.6003 14.2845 32.8267 14.0634L35.3423 16.6386C35.8 16.1914 36.0652 15.5759 36.0652 14.9249H32.4652ZM32.8267 14.0634C33.0516 13.8436 33.3479 13.7275 33.6483 13.7275V17.3275C34.2758 17.3275 34.8859 17.0843 35.3423 16.6386L32.8267 14.0634Z" fill="#55B3FF" mask="url(#path-13-inside-6_2220_12570)"/>
<mask id="path-15-inside-7_2220_12570" fill="white">
<path d="M33.6483 20.7921H29.5102C29.3466 20.7921 29.1897 20.7286 29.074 20.6156C28.9583 20.5026 28.8933 20.3493 28.8933 20.1895C28.8933 20.0297 28.9583 19.8764 29.074 19.7634C29.1897 19.6504 29.3466 19.5869 29.5102 19.5869H33.6483C33.8119 19.5869 33.9688 19.6504 34.0845 19.7634C34.2002 19.8764 34.2652 20.0297 34.2652 20.1895C34.2652 20.3493 34.2002 20.5026 34.0845 20.6156C33.9688 20.7286 33.8119 20.7921 33.6483 20.7921Z"/>
</mask>
<path d="M33.6483 20.7921H29.5102C29.3466 20.7921 29.1897 20.7286 29.074 20.6156C28.9583 20.5026 28.8933 20.3493 28.8933 20.1895C28.8933 20.0297 28.9583 19.8764 29.074 19.7634C29.1897 19.6504 29.3466 19.5869 29.5102 19.5869H33.6483C33.8119 19.5869 33.9688 19.6504 34.0845 19.7634C34.2002 19.8764 34.2652 20.0297 34.2652 20.1895C34.2652 20.3493 34.2002 20.5026 34.0845 20.6156C33.9688 20.7286 33.8119 20.7921 33.6483 20.7921Z" fill="#55B3FF"/>
<path d="M33.6483 18.9921H29.5102V22.5921H33.6483V18.9921ZM29.5102 18.9921C29.8105 18.9921 30.1068 19.1082 30.3318 19.328L27.8162 21.9032C28.2725 22.349 28.8826 22.5921 29.5102 22.5921V18.9921ZM30.3318 19.328C30.5581 19.5491 30.6933 19.8581 30.6933 20.1895H27.0933C27.0933 20.8405 27.3585 21.4561 27.8162 21.9032L30.3318 19.328ZM30.6933 20.1895C30.6933 20.5209 30.5581 20.8299 30.3318 21.051L27.8162 18.4758C27.3585 18.9229 27.0933 19.5385 27.0933 20.1895H30.6933ZM30.3318 21.051C30.1068 21.2708 29.8106 21.3869 29.5102 21.3869V17.7869C28.8826 17.7869 28.2725 18.0301 27.8162 18.4758L30.3318 21.051ZM29.5102 21.3869H33.6483V17.7869H29.5102V21.3869ZM33.6483 21.3869C33.3479 21.3869 33.0516 21.2708 32.8267 21.051L35.3423 18.4758C34.8859 18.03 34.2758 17.7869 33.6483 17.7869V21.3869ZM32.8267 21.051C32.6003 20.8299 32.4652 20.5209 32.4652 20.1895H36.0652C36.0652 19.5385 35.8 18.9229 35.3423 18.4758L32.8267 21.051ZM32.4652 20.1895C32.4652 19.8581 32.6003 19.5491 32.8267 19.328L35.3423 21.9032C35.8 21.4561 36.0652 20.8405 36.0652 20.1895H32.4652ZM32.8267 19.328C33.0516 19.1082 33.3479 18.9921 33.6483 18.9921V22.5921C34.2758 22.5921 34.8859 22.349 35.3423 21.9032L32.8267 19.328Z" fill="#55B3FF" mask="url(#path-15-inside-7_2220_12570)"/>
<mask id="path-17-inside-8_2220_12570" fill="white">
<path d="M33.6483 26.0568H29.5102C29.3466 26.0568 29.1897 25.9933 29.074 25.8803C28.9583 25.7673 28.8933 25.614 28.8933 25.4542C28.8933 25.2943 28.9583 25.1411 29.074 25.0281C29.1897 24.9151 29.3466 24.8516 29.5102 24.8516H33.6483C33.8119 24.8516 33.9688 24.9151 34.0845 25.0281C34.2002 25.1411 34.2652 25.2943 34.2652 25.4542C34.2652 25.614 34.2002 25.7673 34.0845 25.8803C33.9688 25.9933 33.8119 26.0568 33.6483 26.0568Z"/>
</mask>
<path d="M33.6483 26.0568H29.5102C29.3466 26.0568 29.1897 25.9933 29.074 25.8803C28.9583 25.7673 28.8933 25.614 28.8933 25.4542C28.8933 25.2943 28.9583 25.1411 29.074 25.0281C29.1897 24.9151 29.3466 24.8516 29.5102 24.8516H33.6483C33.8119 24.8516 33.9688 24.9151 34.0845 25.0281C34.2002 25.1411 34.2652 25.2943 34.2652 25.4542C34.2652 25.614 34.2002 25.7673 34.0845 25.8803C33.9688 25.9933 33.8119 26.0568 33.6483 26.0568Z" fill="#55B3FF"/>
<path d="M33.6483 24.2568H29.5102V27.8568H33.6483V24.2568ZM29.5102 24.2568C29.8106 24.2568 30.1069 24.3729 30.3318 24.5927L27.8162 27.1679C28.2725 27.6136 28.8826 27.8568 29.5102 27.8568V24.2568ZM30.3318 24.5927C30.5582 24.8138 30.6933 25.1228 30.6933 25.4542H27.0933C27.0933 26.1052 27.3585 26.7207 27.8162 27.1679L30.3318 24.5927ZM30.6933 25.4542C30.6933 25.7855 30.5582 26.0946 30.3318 26.3157L27.8162 23.7405C27.3585 24.1876 27.0933 24.8031 27.0933 25.4542H30.6933ZM30.3318 26.3157C30.1069 26.5354 29.8106 26.6516 29.5102 26.6516V23.0516C28.8826 23.0516 28.2725 23.2947 27.8162 23.7405L30.3318 26.3157ZM29.5102 26.6516H33.6483V23.0516H29.5102V26.6516ZM33.6483 26.6516C33.3479 26.6516 33.0516 26.5354 32.8267 26.3157L35.3423 23.7405C34.886 23.2947 34.2759 23.0516 33.6483 23.0516V26.6516ZM32.8267 26.3157C32.6003 26.0945 32.4652 25.7855 32.4652 25.4542H36.0652C36.0652 24.8032 35.8 24.1876 35.3423 23.7405L32.8267 26.3157ZM32.4652 25.4542C32.4652 25.1228 32.6003 24.8138 32.8267 24.5927L35.3423 27.1679C35.8 26.7207 36.0652 26.1052 36.0652 25.4542H32.4652ZM32.8267 24.5927C33.0516 24.3729 33.3479 24.2568 33.6483 24.2568V27.8568C34.2758 27.8568 34.8859 27.6136 35.3423 27.1679L32.8267 24.5927Z" fill="#55B3FF" mask="url(#path-17-inside-8_2220_12570)"/>
</svg>
