<svg width="35" height="40" viewBox="0 0 35 40" fill="none" xmlns="http://www.w3.org/2000/svg">
<path d="M22.8893 11.6277C23.0705 11.6277 23.2443 11.5574 23.3724 11.4322C23.5005 11.307 23.5725 11.1373 23.5725 10.9603V4.28892C23.5702 3.43849 23.2316 2.62182 22.6275 2.00949C22.0233 1.39715 21.2004 1.03651 20.3305 1.00288C20.2353 1.01222 3.86172 0.986194 3.7805 1.01122C2.92987 1.06806 2.13297 1.43795 1.5506 2.04627C0.968224 2.65459 0.643726 3.45604 0.642578 4.28892V35.9327C0.643595 36.8039 0.998344 37.6392 1.629 38.2552C2.25965 38.8713 3.1147 39.2178 4.00657 39.2188H20.2086C21.1005 39.2178 21.9555 38.8712 22.5861 38.2552C23.2168 37.6392 23.5715 36.8039 23.5725 35.9327V30.651C23.5401 29.7626 22.2335 29.7737 22.206 30.651V35.9326C22.2054 36.4499 21.9948 36.9459 21.6203 37.3117C21.2459 37.6775 20.7382 37.8832 20.2086 37.8838H4.00623C3.47673 37.8831 2.96912 37.6774 2.59472 37.3116C2.22033 36.9458 2.00971 36.45 2.00908 35.9327V4.28892C2.00971 3.84287 2.16652 3.41045 2.45347 3.06349C2.74043 2.71652 3.14025 2.47589 3.58654 2.38155L4.28516 3.25447C4.77201 3.86655 5.39603 4.36145 6.10926 4.70113C6.8225 5.04081 7.60597 5.21622 8.39945 5.2139H15.8161C16.6095 5.21622 17.393 5.04081 18.1063 4.70113C18.8195 4.36145 19.4435 3.86655 19.9303 3.25447L20.629 2.38155C21.0752 2.47597 21.4749 2.71664 21.7618 3.0636C22.0486 3.41056 22.2054 3.84293 22.206 4.28892V10.9603C22.206 11.1373 22.278 11.307 22.4061 11.4322C22.5343 11.5574 22.708 11.6277 22.8893 11.6277ZM18.8535 2.43211C18.494 2.88405 18.0333 3.24947 17.5067 3.50027C16.9801 3.75108 16.4016 3.88059 15.8157 3.87886H8.39911C7.79254 3.87983 7.19433 3.74072 6.65327 3.47286C6.11222 3.20501 5.64365 2.816 5.28579 2.33758H18.9291L18.8535 2.43211Z" fill="#55B3FF" stroke="#55B3FF" stroke-width="0.2"/>
<path d="M30.0577 10.7268C29.606 10.2666 28.7517 10.5822 28.7609 11.2059V12.7464H22.3558C21.6404 12.7464 20.9542 13.0113 20.4483 13.483C19.9424 13.9547 19.6582 14.5944 19.6582 15.2614C19.6582 15.9284 19.9424 16.5682 20.4483 17.0398C20.9542 17.5115 21.6404 17.7765 22.3558 17.7765H28.7607V19.3175C28.7467 19.936 29.6102 20.2586 30.0574 19.7966L34.1478 15.7405C34.2787 15.6108 34.3515 15.4395 34.3515 15.2614C34.3515 15.0834 34.2787 14.912 34.1478 14.7823L30.0577 10.7268ZM30.2613 17.5532V17.0776C30.2613 16.8921 30.1823 16.7142 30.0416 16.5831C29.9009 16.4519 29.7101 16.3782 29.5111 16.3782H22.3558C20.7722 16.3231 20.7678 14.2025 22.3558 14.1457H29.5109C29.7098 14.1457 29.9006 14.0721 30.0413 13.9409C30.182 13.8097 30.2611 13.6318 30.2611 13.4463V12.9708L32.5716 15.2619L30.2613 17.5532Z" fill="#55B3FF" stroke="#55B3FF" stroke-width="0.2"/>
<path d="M23.91 20.0648C23.7702 20.0132 23.617 20.0019 23.4703 20.0324C23.3236 20.0629 23.1901 20.1338 23.0871 20.2359L18.9966 24.2913C18.8658 24.4209 18.793 24.5923 18.793 24.7703C18.793 24.9483 18.8658 25.1196 18.9966 25.2493L23.0871 29.3047C23.5334 29.7655 24.3983 29.4452 24.3838 28.8257V27.285H30.7886C31.5041 27.285 32.1902 27.0201 32.6961 26.5485C33.202 26.077 33.4863 25.4374 33.4863 24.7704C33.4863 24.1035 33.202 23.4639 32.6961 22.9924C32.1902 22.5208 31.5041 22.2559 30.7886 22.2559H24.3838V20.7148C24.3838 20.5747 24.3386 20.4378 24.2541 20.3219C24.1696 20.206 24.0497 20.1164 23.91 20.0648ZM30.7886 23.6543C32.373 23.7098 32.3759 25.8298 30.7886 25.8864H23.6336C23.4346 25.8864 23.2438 25.96 23.1031 26.0912C22.9624 26.2223 22.8834 26.4002 22.8834 26.5857V27.0611L20.5728 24.7704L22.8834 22.4796V22.9551C22.8834 23.1405 22.9624 23.3184 23.1031 23.4495C23.2438 23.5807 23.4346 23.6544 23.6336 23.6544L30.7886 23.6543Z" fill="#55B3FF" stroke="#55B3FF" stroke-width="0.2"/>
<path d="M10.7944 35.0684C9.89206 35.0953 9.89086 36.376 10.7944 36.4032H13.4191C14.3215 36.3763 14.3227 35.0956 13.4191 35.0684H10.7944Z" fill="#55B3FF" stroke="#55B3FF" stroke-width="0.2"/>
</svg>
