<svg width="20" height="20" viewBox="0 0 20 20" fill="none" xmlns="http://www.w3.org/2000/svg">
<path d="M9.05558 1.12208L9.23187 1.29934L9.05558 1.12208C8.81583 1.36052 8.68089 1.6842 8.68089 2.022V8.92603H1.73758C1.39917 8.92603 1.07435 9.05971 0.834651 9.2981C0.594902 9.53654 0.459961 9.86023 0.459961 10.198C0.459961 10.5358 0.594901 10.8595 0.834651 11.098C1.07435 11.3363 1.39917 11.47 1.73758 11.47H9.95851C10.2969 11.47 10.6217 11.3363 10.8614 11.098C11.1012 10.8595 11.2361 10.5358 11.2361 10.198V2.022C11.2361 1.6842 11.1012 1.36052 10.8614 1.12208C10.6217 0.883684 10.2969 0.75 9.95851 0.75C9.6201 0.75 9.29528 0.883684 9.05558 1.12208Z" fill="#FCFCFC" stroke="white" stroke-width="0.5"/>
<path d="M9.05548 19.2742L9.23177 19.0969L9.05548 19.2742C9.29518 19.5126 9.62 19.6462 9.9584 19.6462C10.2968 19.6462 10.6216 19.5126 10.8613 19.2742L10.685 19.0969L10.8613 19.2742C11.1011 19.0357 11.236 18.712 11.236 18.3742V11.4703H18.1793C18.5177 11.4703 18.8426 11.3366 19.0823 11.0982C19.322 10.8597 19.457 10.5361 19.457 10.1983C19.457 9.86047 19.322 9.53678 19.0823 9.29834C18.8426 9.05995 18.5177 8.92627 18.1793 8.92627H9.9584C9.62 8.92627 9.29518 9.05995 9.05548 9.29835C8.81573 9.53678 8.68079 9.86047 8.68079 10.1983V18.3742C8.68079 18.712 8.81573 19.0357 9.05548 19.2742Z" fill="#FCFCFC" stroke="white" stroke-width="0.5"/>
</svg>
