<svg width="46" height="42" viewBox="0 0 46 42" fill="none" xmlns="http://www.w3.org/2000/svg">
<path d="M34.6029 6.25894C34.6225 6.26034 34.6422 6.26173 34.6622 6.26173C34.6961 6.26173 34.7301 6.25894 34.7633 6.2544C35.6525 6.2722 36.3641 6.98064 36.3652 7.84927C36.3652 8.24397 36.6928 8.56399 37.0969 8.56399C37.5009 8.56399 37.8285 8.24397 37.8285 7.84927C37.8267 6.42855 36.8143 5.19942 35.3938 4.89371V4.20691C35.3938 3.81221 35.0662 3.49219 34.6622 3.49219C34.2581 3.49219 33.9305 3.81221 33.9305 4.20691V4.92617C32.4286 5.31843 31.4569 6.73775 31.6594 8.24362C31.862 9.74949 33.176 10.8753 34.7308 10.8753C35.6335 10.8753 36.3652 11.5904 36.3652 12.4723C36.3652 13.3538 35.6335 14.0689 34.7308 14.0689C33.828 14.0689 33.0963 13.3538 33.0963 12.4723C33.0963 12.0776 32.7687 11.7575 32.3647 11.7575C31.9606 11.7575 31.633 12.0776 31.633 12.4723C31.6348 13.8417 32.5765 15.0398 33.9305 15.3954V16.1785C33.9305 16.5732 34.2581 16.8932 34.6622 16.8932C35.0662 16.8932 35.3938 16.5732 35.3938 16.1785V15.4282C36.939 15.0977 37.9811 13.6829 37.8107 12.1467C37.6406 10.6104 36.3127 9.44622 34.7308 9.44657C33.853 9.44692 33.1317 8.76989 33.097 7.91313C33.0627 7.05637 33.7276 6.32595 34.6029 6.25929V6.25894Z" fill="#55B3FF" stroke="#55B3FF" stroke-width="0.7"/>
<path d="M34.7727 0C30.2716 0 26.4304 2.86901 24.9914 6.71063H6.83179C6.42952 6.71063 6.10299 7.06485 6.10013 7.45746L5.92722 32.5299H0.75095C0.346895 32.5299 0 32.8158 0 33.2112V36.3929C0.00928859 39.3882 2.42433 41.8489 5.48744 41.9843V42H28.0774V41.9791C28.2603 41.9857 28.3357 42 28.4514 42H28.4672C31.6374 41.9951 34.205 39.4831 34.205 36.3862V20.2994C34.3879 20.3092 34.5816 20.3144 34.7709 20.3144C40.4988 20.3144 45.1599 15.7525 45.1599 10.1569C45.1599 4.56158 40.5009 0 34.7727 0ZM5.76574 40.5706H5.7611C3.39428 40.5674 1.47403 38.6979 1.46332 36.3855V33.9594H22.6814V36.3754C22.6825 37.867 23.2923 39.2968 24.3755 40.3483C24.4523 40.4233 24.5477 40.4812 24.6281 40.5706H5.76574ZM32.7417 36.3855C32.7421 38.6937 30.829 40.566 28.4664 40.5706H28.4525C26.0803 40.5664 24.1565 38.693 24.1447 36.3761V33.2112C24.1508 33.0283 24.0793 32.8514 23.9468 32.7222C23.8143 32.5931 23.6331 32.5237 23.4463 32.5299H7.39054L7.55844 8.14008H24.5852C24.4555 8.79442 24.3884 9.45889 24.3848 10.1251C24.3834 11.534 24.6842 12.9271 25.2679 14.2152H18.3572C17.9528 14.2152 17.6255 14.5352 17.6255 14.9299C17.6255 15.3246 17.9528 15.6447 18.3572 15.6447H26.0618C27.5712 17.9633 29.9841 19.5798 32.7417 20.1207V36.3855ZM34.7727 18.8853C29.844 18.8853 25.8481 14.9823 25.8485 10.1673C25.8485 5.35238 29.844 1.44933 34.7731 1.44933C39.7018 1.44933 43.6973 5.35273 43.6973 10.1673C43.6919 14.9798 39.6996 18.8801 34.7727 18.8853Z" fill="#55B3FF"/>
<path d="M17.626 21.1874C17.626 21.5821 17.9532 21.9021 18.3576 21.9021H28.1121C28.5162 21.9021 28.8438 21.5821 28.8438 21.1874C28.8438 20.7927 28.5162 20.4727 28.1121 20.4727H18.3576C17.9532 20.4727 17.626 20.7927 17.626 21.1874Z" fill="#55B3FF"/>
<path d="M11.2002 21.1874C11.2002 21.5821 11.5274 21.9021 11.9319 21.9021H21.6863C22.0904 21.9021 22.418 21.5821 22.418 21.1874C22.418 20.7927 22.0904 20.4727 21.6863 20.4727H11.9319C11.5274 20.4727 11.2002 20.7927 11.2002 21.1874Z" fill="#55B3FF"/>
<path d="M11.2002 14.9296C11.2002 15.3243 11.5274 15.6443 11.9319 15.6443H21.6863C22.0904 15.6443 22.418 15.3243 22.418 14.9296C22.418 14.5349 22.0904 14.2148 21.6863 14.2148H11.9319C11.5274 14.2148 11.2002 14.5349 11.2002 14.9296Z" fill="#55B3FF"/>
<path d="M28.1121 26.7188H18.3576C17.9532 26.7188 17.626 27.0388 17.626 27.4335C17.626 27.8282 17.9532 28.1482 18.3576 28.1482H28.1121C28.5162 28.1482 28.8438 27.8282 28.8438 27.4335C28.8438 27.0388 28.5162 26.7188 28.1121 26.7188Z" fill="#55B3FF"/>
<path d="M21.6863 26.7188H11.9319C11.5274 26.7188 11.2002 27.0388 11.2002 27.4335C11.2002 27.8282 11.5274 28.1482 11.9319 28.1482H21.6863C22.0904 28.1482 22.418 27.8282 22.418 27.4335C22.418 27.0388 22.0904 26.7188 21.6863 26.7188Z" fill="#55B3FF"/>
</svg>
