<svg width="27" height="21" viewBox="0 0 27 21" fill="none" xmlns="http://www.w3.org/2000/svg">
<path d="M12.5648 11.952L8.77618 10.7643C8.63422 10.7206 8.47989 10.747 8.36128 10.8363C8.03797 11.0805 7.77465 11.3834 7.58277 11.7287C6.11092 10.8154 5.02283 9.35351 4.57496 7.68666C4.94361 7.6083 5.29486 7.45797 5.61084 7.24113C5.73586 7.15549 5.81005 7.01336 5.80867 6.86212L5.77112 2.85374C5.76975 2.70204 5.69236 2.56082 5.56505 2.47746C5.3434 2.33214 5.1071 2.21916 4.86805 2.14309C4.71967 2.09389 4.56168 2.05653 4.39682 2.03148C2.82239 1.79641 1.34871 2.88335 1.11195 4.4509V4.45135C0.284897 9.97625 4.12983 15.1426 9.68429 15.9685C9.82717 15.9895 9.9696 15.9995 10.1097 15.9995C11.5175 15.9995 12.7548 14.9732 12.9687 13.5491C12.9934 13.3851 13.0035 13.2229 12.9989 13.0717C12.9934 12.7856 12.9476 12.5082 12.862 12.2462C12.8171 12.1059 12.7058 11.9966 12.5648 11.952ZM12.0629 13.4147C11.9026 14.4844 10.8965 15.231 9.81939 15.067C4.76501 14.3158 1.26537 9.61363 2.01823 4.58574C2.18035 3.51474 3.186 2.7763 4.26127 2.93255C4.37301 2.94941 4.47971 2.97492 4.58366 3.00908C4.67663 3.03869 4.76821 3.07605 4.85797 3.12115L4.89049 6.61247C4.61801 6.75552 4.31714 6.83296 4.00802 6.83797C3.87293 6.84025 3.74562 6.90175 3.66044 7.00561C3.57526 7.10993 3.54045 7.24614 3.56564 7.37825C4.00298 9.67376 5.50597 11.6932 7.58552 12.7797C7.7055 12.8421 7.84655 12.8489 7.97202 12.7975C8.09704 12.7469 8.19321 12.643 8.23443 12.5146C8.33289 12.2071 8.50645 11.9324 8.74138 11.7087L12.0473 12.7446C12.0688 12.8562 12.0812 12.9724 12.0835 13.0927C12.0867 13.1956 12.0798 13.3036 12.0629 13.4147Z" fill="#55B3FF" stroke="#55B3FF" stroke-width="0.3"/>
<path d="M17.4847 5.92276C17.2189 6.17198 17.2134 6.58934 17.4398 6.8749C18.4169 8.10776 18.8821 9.66085 18.7261 11.2273C18.629 12.2003 18.3033 13.1208 17.7762 13.9234C17.5759 14.2284 17.616 14.6444 17.902 14.8711C18.1789 15.0905 18.583 15.0503 18.7841 14.7599C19.4809 13.7536 19.9097 12.5869 20.0328 11.3516C20.2273 9.4023 19.6254 7.47023 18.3718 5.95945C18.1468 5.68823 17.7418 5.68171 17.4847 5.92276Z" fill="#55B3FF"/>
<path d="M21.0327 3.46439C20.8006 3.19924 20.3965 3.19175 20.1392 3.4325C19.8733 3.68133 19.8661 4.09909 20.1031 4.37564C21.8192 6.37799 22.6477 8.96649 22.3878 11.5757C22.2221 13.2382 21.6292 14.8142 20.6638 16.1727C20.4523 16.4702 20.4967 16.8864 20.7843 17.1112C21.0628 17.3289 21.4659 17.2855 21.6738 16.9995C22.8081 15.4391 23.5035 13.6195 23.6946 11.6995C23.9916 8.70774 23.0258 5.74124 21.0327 3.46439Z" fill="#55B3FF"/>
<path d="M24.051 0.841835C23.7901 0.420318 23.1928 0.407768 22.8934 0.802906C22.7029 1.05445 22.6969 1.39893 22.8689 1.66348C24.6843 4.45542 25.9327 8.1247 25.6714 11.8263C25.5014 14.2332 24.5051 16.5106 23.423 18.4458C23.2721 18.7158 23.307 19.0524 23.5148 19.2816C23.8379 19.638 24.4146 19.5772 24.6428 19.1537C25.7844 17.0362 26.7662 14.5817 26.9484 11.9969C27.2326 7.95789 25.977 3.95409 24.051 0.841835Z" fill="#55B3FF"/>
</svg>
