<svg width="20" height="20" viewBox="0 0 20 20" fill="none" xmlns="http://www.w3.org/2000/svg">
<path d="M9.05558 1.12208L9.23187 1.29934L9.05558 1.12208C8.81583 1.36052 8.68089 1.6842 8.68089 2.022V8.92603H1.73758C1.39917 8.92603 1.07435 9.05971 0.834651 9.2981C0.594902 9.53654 0.459961 9.86023 0.459961 10.198C0.459961 10.5358 0.594901 10.8595 0.834651 11.098C1.07435 11.3363 1.39917 11.47 1.73758 11.47H9.95851C10.2969 11.47 10.6217 11.3363 10.8614 11.098C11.1012 10.8595 11.2361 10.5358 11.2361 10.198V2.022C11.2361 1.6842 11.1012 1.36052 10.8614 1.12208C10.6217 0.883684 10.2969 0.75 9.95851 0.75C9.6201 0.75 9.29528 0.883684 9.05558 1.12208Z" fill="#FCFCFC" stroke="white" stroke-width="0.5"/>
<path d="M9.0556 19.2737L9.23189 19.0964L9.0556 19.2737C9.2953 19.5121 9.62012 19.6458 9.95852 19.6458C10.2969 19.6458 10.6217 19.5121 10.8615 19.2737L10.6852 19.0964L10.8615 19.2737C11.1012 19.0352 11.2361 18.7116 11.2361 18.3738V11.4698H18.1795C18.5179 11.4698 18.8427 11.3361 19.0824 11.0977C19.3221 10.8593 19.4571 10.5356 19.4571 10.1978C19.4571 9.85998 19.3221 9.5363 19.0824 9.29786C18.8427 9.05946 18.5179 8.92578 18.1795 8.92578H9.95852C9.62012 8.92578 9.2953 9.05946 9.0556 9.29786C8.81585 9.5363 8.68091 9.85998 8.68091 10.1978V18.3738C8.68091 18.7116 8.81585 19.0352 9.0556 19.2737Z" fill="#FCFCFC" stroke="white" stroke-width="0.5"/>
</svg>
