<svg width="20" height="20" viewBox="0 0 20 20" fill="none" xmlns="http://www.w3.org/2000/svg">
<path fill-rule="evenodd" clip-rule="evenodd" d="M13.85 0.813636C14.481 0.813636 15.111 0.902636 15.71 1.10364C19.401 2.30364 20.731 6.35364 19.62 9.89364C18.99 11.7026 17.96 13.3536 16.611 14.7026C14.68 16.5726 12.561 18.2326 10.28 19.6626L10.03 19.8136L9.77002 19.6526C7.48102 18.2326 5.35002 16.5726 3.40102 14.6926C2.06102 13.3436 1.03002 11.7026 0.390017 9.89364C-0.739983 6.35364 0.590017 2.30364 4.32102 1.08264C4.61102 0.982636 4.91002 0.912636 5.21002 0.873636H5.33002C5.61102 0.832636 5.89002 0.813636 6.17002 0.813636H6.28002C6.91002 0.832636 7.52002 0.942636 8.11102 1.14364H8.17002C8.21002 1.16264 8.24002 1.18364 8.26002 1.20264C8.48102 1.27364 8.69002 1.35364 8.89002 1.46364L9.27002 1.63364C9.36184 1.68261 9.4649 1.75744 9.55398 1.82211C9.61041 1.86308 9.66123 1.89998 9.70002 1.92364C9.71634 1.93326 9.73292 1.94294 9.74964 1.9527C9.83538 2.00276 9.9247 2.0549 10 2.11264C11.111 1.26364 12.46 0.803636 13.85 0.813636ZM16.51 8.01364C16.92 8.00264 17.27 7.67364 17.3 7.25264V7.13364C17.33 5.73264 16.481 4.46364 15.19 3.97364C14.78 3.83264 14.33 4.05364 14.18 4.47364C14.04 4.89364 14.26 5.35364 14.68 5.50264C15.321 5.74264 15.75 6.37364 15.75 7.07264V7.10364C15.731 7.33264 15.8 7.55364 15.94 7.72364C16.08 7.89364 16.29 7.99264 16.51 8.01364Z" fill="#CFD1DE"/>
</svg>
