<svg width="20" height="20" viewBox="0 0 20 20" fill="none" xmlns="http://www.w3.org/2000/svg">
<path fill-rule="evenodd" clip-rule="evenodd" d="M13.8498 0.813636C14.4808 0.813636 15.1108 0.902636 15.7098 1.10364C19.4008 2.30364 20.7308 6.35364 19.6198 9.89364C18.9898 11.7026 17.9598 13.3536 16.6108 14.7026C14.6798 16.5726 12.5608 18.2326 10.2798 19.6626L10.0298 19.8136L9.76977 19.6526C7.48077 18.2326 5.34977 16.5726 3.40077 14.6926C2.06077 13.3436 1.02977 11.7026 0.389772 9.89364C-0.740228 6.35364 0.589773 2.30364 4.32077 1.08264C4.61077 0.982636 4.90977 0.912636 5.20977 0.873636H5.32977C5.61077 0.832636 5.88977 0.813636 6.16977 0.813636H6.27977C6.90977 0.832636 7.51977 0.942636 8.11077 1.14364H8.16977C8.20977 1.16264 8.23977 1.18364 8.25977 1.20264C8.48077 1.27364 8.68977 1.35364 8.88977 1.46364L9.26977 1.63364C9.36159 1.68261 9.46466 1.75744 9.55373 1.82211C9.61017 1.86308 9.66099 1.89998 9.69977 1.92364C9.71609 1.93326 9.73268 1.94294 9.7494 1.9527C9.83514 2.00276 9.92446 2.0549 9.99977 2.11264C11.1108 1.26364 12.4598 0.803636 13.8498 0.813636ZM16.5098 8.01364C16.9198 8.00264 17.2698 7.67364 17.2998 7.25264V7.13364C17.3298 5.73264 16.4808 4.46364 15.1898 3.97364C14.7798 3.83264 14.3298 4.05364 14.1798 4.47364C14.0398 4.89364 14.2598 5.35364 14.6798 5.50264C15.3208 5.74264 15.7498 6.37364 15.7498 7.07264V7.10364C15.7308 7.33264 15.7998 7.55364 15.9398 7.72364C16.0798 7.89364 16.2898 7.99264 16.5098 8.01364Z" fill="#CFD1DE"/>
</svg>
