<svg width="25" height="25" viewBox="0 0 25 25" fill="none" xmlns="http://www.w3.org/2000/svg">
<g opacity="0.5">
<path d="M2.02261 9.97467C2.02261 9.02111 2.47593 8.12435 3.24377 7.55895L12.1356 1.01129L21.0275 7.55895C21.7954 8.12435 22.2487 9.02111 22.2487 9.97467V20.76C22.2487 22.1407 21.1294 23.26 19.7487 23.26H16.1696C15.6173 23.26 15.1696 22.8122 15.1696 22.26V16.1752C15.1696 15.899 14.9457 15.6752 14.6696 15.6752H9.60173C9.32559 15.6752 9.10173 15.899 9.10173 16.1752V22.26C9.10173 22.8122 8.65402 23.26 8.10173 23.26H4.52261C3.1419 23.26 2.02261 22.1407 2.02261 20.76V9.97467Z" stroke="#A0A3BD" stroke-width="2.02261" stroke-linecap="round" stroke-linejoin="round"/>
</g>
</svg>
