<svg width="25" height="25" viewBox="0 0 25 25" fill="none" xmlns="http://www.w3.org/2000/svg">
<g opacity="0.5">
<path d="M2.02258 9.97467C2.02258 9.02111 2.4759 8.12435 3.24374 7.55895L12.1356 1.01129L21.0275 7.55895C21.7953 8.12435 22.2486 9.02111 22.2486 9.97467V20.76C22.2486 22.1407 21.1294 23.26 19.7486 23.26H16.1695C15.6172 23.26 15.1695 22.8122 15.1695 22.26V16.1752C15.1695 15.899 14.9457 15.6752 14.6695 15.6752H9.6017C9.32556 15.6752 9.1017 15.899 9.1017 16.1752V22.26C9.1017 22.8122 8.65399 23.26 8.1017 23.26H4.52258C3.14187 23.26 2.02258 22.1407 2.02258 20.76V9.97467Z" stroke="#A0A3BD" stroke-width="2.02261" stroke-linecap="round" stroke-linejoin="round"/>
</g>
</svg>
