<svg width="18" height="24" viewBox="0 0 18 24" fill="none" xmlns="http://www.w3.org/2000/svg">
<path fill-rule="evenodd" clip-rule="evenodd" d="M4.73242 3.20833C4.73242 1.43642 6.16884 0 7.94075 0H10.2741C12.046 0 13.4824 1.43642 13.4824 3.20833V5.54167C13.4824 6.02492 13.0907 6.41667 12.6074 6.41667H5.60742C5.12417 6.41667 4.73242 6.02492 4.73242 5.54167V3.20833ZM7.94075 1.75C7.13534 1.75 6.48242 2.40292 6.48242 3.20833V4.66667H11.7324V3.20833C11.7324 2.40292 11.0795 1.75 10.2741 1.75H7.94075Z" fill="#CFD1DE"/>
<path fill-rule="evenodd" clip-rule="evenodd" d="M2.67551 3.12523C2.823 3.05452 2.98676 3.16706 2.98646 3.33063L2.98242 5.54167C2.98242 6.99142 4.15767 8.16667 5.60742 8.16667H12.6074C14.0572 8.16667 15.2324 6.99142 15.2324 5.54167V3.32997C15.2324 3.16659 15.3961 3.05434 15.5434 3.12497C16.926 3.78781 17.8574 5.19958 17.8574 6.80803V19.0457C17.8574 21.0416 16.3707 22.7249 14.3901 22.9716C10.8819 23.4085 7.33297 23.4085 3.82472 22.9716C1.84412 22.7249 0.357422 21.0416 0.357422 19.0457V6.80803C0.357422 5.19979 1.29263 3.78818 2.67551 3.12523ZM12.6074 11.375C13.0907 11.375 13.4824 11.7668 13.4824 12.25C13.4824 12.7332 13.0907 13.125 12.6074 13.125H5.60742C5.12417 13.125 4.73242 12.7332 4.73242 12.25C4.73242 11.7668 5.12417 11.375 5.60742 11.375H12.6074ZM11.4408 14.875C11.924 14.875 12.3158 15.2668 12.3158 15.75C12.3158 16.2332 11.924 16.625 11.4408 16.625H5.60742C5.12417 16.625 4.73242 16.2332 4.73242 15.75C4.73242 15.2668 5.12417 14.875 5.60742 14.875H11.4408Z" fill="#CFD1DE"/>
</svg>
