<svg width="25" height="22" viewBox="0 0 25 22" fill="none" xmlns="http://www.w3.org/2000/svg">
<path fill-rule="evenodd" clip-rule="evenodd" d="M11.9261 1.99001C8.77528 0.0995337 4.92186 -0.209231 1.51025 1.15542C1.01334 1.35418 0.6875 1.83545 0.6875 2.37064V15.4869C0.6875 16.3655 1.57486 16.9662 2.3906 16.6399C5.18436 15.5224 8.33992 15.7753 10.9201 17.3234L12.1973 18.0897C12.2947 18.1481 12.3989 18.1737 12.5 18.1719C12.6011 18.1737 12.7053 18.1481 12.8027 18.0897L14.0799 17.3234C16.6601 15.7753 19.8156 15.5224 22.6094 16.6399C23.4251 16.9662 24.3125 16.3655 24.3125 15.4869V2.37064C24.3125 1.83545 23.9867 1.35418 23.4898 1.15542C20.0781 -0.209231 16.2247 0.0995337 13.0739 1.99001L12.5 2.33436L11.9261 1.99001ZM13.3438 4.67785C13.3438 4.21185 12.966 3.8341 12.5 3.8341C12.034 3.8341 11.6562 4.21185 11.6562 4.67785V15.3653C11.6562 15.8313 12.034 16.2091 12.5 16.2091C12.966 16.2091 13.3438 15.8313 13.3438 15.3653V4.67785Z" fill="#55B3FF"/>
<path d="M2.06544 18.7879C4.34228 17.4597 7.15772 17.4597 9.43456 18.7879L10.6577 19.5014C11.7961 20.1655 13.2039 20.1655 14.3423 19.5014L15.5654 18.7879C17.8423 17.4597 20.6577 17.4597 22.9346 18.7879L23.0501 18.8553C23.4527 19.0901 23.5886 19.6067 23.3538 20.0092C23.119 20.4118 22.6024 20.5477 22.1999 20.3129L22.0843 20.2455C20.3329 19.2238 18.1671 19.2238 16.4157 20.2455L15.1926 20.959C13.5287 21.9296 11.4713 21.9296 9.80744 20.959L8.58427 20.2455C6.83286 19.2238 4.66714 19.2238 2.91573 20.2455L2.80014 20.3129C2.39763 20.5477 1.88099 20.4118 1.64619 20.0092C1.41139 19.6067 1.54735 19.0901 1.94986 18.8553L2.06544 18.7879Z" fill="#55B3FF"/>
</svg>
