<svg width="18" height="24" viewBox="0 0 18 24" fill="none" xmlns="http://www.w3.org/2000/svg">
<path fill-rule="evenodd" clip-rule="evenodd" d="M4.625 3.20833C4.625 1.43642 6.06142 0 7.83333 0H10.1667C11.9386 0 13.375 1.43642 13.375 3.20833V5.54167C13.375 6.02492 12.9832 6.41667 12.5 6.41667H5.5C5.01675 6.41667 4.625 6.02492 4.625 5.54167V3.20833ZM7.83333 1.75C7.02792 1.75 6.375 2.40292 6.375 3.20833V4.66667H11.625V3.20833C11.625 2.40292 10.9721 1.75 10.1667 1.75H7.83333Z" fill="#CFD1DE"/>
<path fill-rule="evenodd" clip-rule="evenodd" d="M2.56808 3.12523C2.71558 3.05452 2.87933 3.16706 2.87903 3.33063L2.875 5.54167C2.875 6.99142 4.05025 8.16667 5.5 8.16667H12.5C13.9497 8.16667 15.125 6.99142 15.125 5.54167V3.32997C15.125 3.16659 15.2886 3.05434 15.436 3.12497C16.8186 3.78781 17.75 5.19958 17.75 6.80803V19.0457C17.75 21.0416 16.2633 22.7249 14.2827 22.9716C10.7745 23.4085 7.22555 23.4085 3.7173 22.9716C1.7367 22.7249 0.25 21.0416 0.25 19.0457V6.80803C0.25 5.19979 1.18521 3.78818 2.56808 3.12523ZM12.5 11.375C12.9832 11.375 13.375 11.7668 13.375 12.25C13.375 12.7332 12.9832 13.125 12.5 13.125H5.5C5.01675 13.125 4.625 12.7332 4.625 12.25C4.625 11.7668 5.01675 11.375 5.5 11.375H12.5ZM11.3333 14.875C11.8166 14.875 12.2083 15.2668 12.2083 15.75C12.2083 16.2332 11.8166 16.625 11.3333 16.625H5.5C5.01675 16.625 4.625 16.2332 4.625 15.75C4.625 15.2668 5.01675 14.875 5.5 14.875H11.3333Z" fill="#CFD1DE"/>
</svg>
