<svg width="25" height="22" viewBox="0 0 25 22" fill="none" xmlns="http://www.w3.org/2000/svg">
<path fill-rule="evenodd" clip-rule="evenodd" d="M12.0335 1.67556C8.88271 -0.214919 5.02928 -0.523684 1.61767 0.840962C1.12076 1.03973 0.794922 1.521 0.794922 2.05618V15.1724C0.794922 16.051 1.68228 16.6518 2.49802 16.3255C5.29178 15.208 8.44734 15.4608 11.0275 17.0089L12.3047 17.7752C12.4021 17.8337 12.5063 17.8592 12.6074 17.8574C12.7086 17.8592 12.8127 17.8337 12.9101 17.7752L14.1873 17.0089C16.7675 15.4608 19.9231 15.208 22.7168 16.3255C23.5326 16.6518 24.4199 16.051 24.4199 15.1724V2.05618C24.4199 1.521 24.0941 1.03973 23.5972 0.840962C20.1856 -0.523684 16.3321 -0.214919 13.1813 1.67556L12.6074 2.01991L12.0335 1.67556ZM13.4512 4.36339C13.4512 3.8974 13.0734 3.51964 12.6074 3.51964C12.1414 3.51964 11.7637 3.8974 11.7637 4.36339V15.0509C11.7637 15.5169 12.1414 15.8946 12.6074 15.8946C13.0734 15.8946 13.4512 15.5169 13.4512 15.0509V4.36339Z" fill="#55B3FF"/>
<path d="M2.17287 18.4734C4.4497 17.1453 7.26514 17.1453 9.54198 18.4734L10.7651 19.1869C11.9036 19.851 13.3113 19.851 14.4497 19.1869L15.6729 18.4734C17.9497 17.1453 20.7651 17.1453 23.042 18.4734L23.1576 18.5408C23.5601 18.7756 23.696 19.2923 23.4612 19.6948C23.2264 20.0973 22.7098 20.2333 22.3073 19.9985L22.1917 19.931C20.4403 18.9094 18.2746 18.9094 16.5231 19.931L15.3 20.6445C13.6361 21.6151 11.5787 21.6151 9.91486 20.6445L8.69169 19.931C6.94028 18.9094 4.77456 18.9094 3.02315 19.931L2.90756 19.9985C2.50505 20.2333 1.98841 20.0973 1.75361 19.6948C1.51881 19.2923 1.65477 18.7756 2.05728 18.5408L2.17287 18.4734Z" fill="#55B3FF"/>
</svg>
