<svg width="18" height="24" viewBox="0 0 18 24" fill="none" xmlns="http://www.w3.org/2000/svg">
<path fill-rule="evenodd" clip-rule="evenodd" d="M4.625 3.52279C4.625 1.75087 6.06142 0.314453 7.83333 0.314453H10.1667C11.9386 0.314453 13.375 1.75087 13.375 3.52279V5.85612C13.375 6.33937 12.9832 6.73112 12.5 6.73112H5.5C5.01675 6.73112 4.625 6.33937 4.625 5.85612V3.52279ZM7.83333 2.06445C7.02792 2.06445 6.375 2.71737 6.375 3.52279V4.98112H11.625V3.52279C11.625 2.71737 10.9721 2.06445 10.1667 2.06445H7.83333Z" fill="#CFD1DE"/>
<path fill-rule="evenodd" clip-rule="evenodd" d="M2.56808 3.43968C2.71558 3.36897 2.87933 3.48152 2.87903 3.64508L2.875 5.85613C2.875 7.30587 4.05025 8.48113 5.5 8.48113H12.5C13.9497 8.48113 15.125 7.30587 15.125 5.85613V3.64442C15.125 3.48104 15.2886 3.36879 15.436 3.43942C16.8186 4.10226 17.75 5.51404 17.75 7.12249V19.3601C17.75 21.356 16.2633 23.0394 14.2827 23.2861C10.7745 23.723 7.22555 23.723 3.7173 23.2861C1.7367 23.0394 0.25 21.356 0.25 19.3601V7.12248C0.25 5.51425 1.18521 4.10263 2.56808 3.43968ZM12.5 11.6895C12.9832 11.6895 13.375 12.0812 13.375 12.5645C13.375 13.0477 12.9832 13.4395 12.5 13.4395H5.5C5.01675 13.4395 4.625 13.0477 4.625 12.5645C4.625 12.0812 5.01675 11.6895 5.5 11.6895H12.5ZM11.3333 15.1895C11.8166 15.1895 12.2083 15.5812 12.2083 16.0645C12.2083 16.5477 11.8166 16.9395 11.3333 16.9395H5.5C5.01675 16.9395 4.625 16.5477 4.625 16.0645C4.625 15.5812 5.01675 15.1895 5.5 15.1895H11.3333Z" fill="#CFD1DE"/>
</svg>
