<svg width="25" height="22" viewBox="0 0 25 22" fill="none" xmlns="http://www.w3.org/2000/svg">
<path fill-rule="evenodd" clip-rule="evenodd" d="M11.9261 1.67556C8.77528 -0.214919 4.92186 -0.523684 1.51025 0.840962C1.01334 1.03973 0.6875 1.521 0.6875 2.05618V15.1724C0.6875 16.051 1.57486 16.6518 2.3906 16.3255C5.18436 15.208 8.33992 15.4608 10.9201 17.0089L12.1973 17.7752C12.2947 17.8337 12.3989 17.8592 12.5 17.8574C12.6011 17.8592 12.7053 17.8337 12.8027 17.7752L14.0799 17.0089C16.6601 15.4608 19.8156 15.208 22.6094 16.3255C23.4251 16.6518 24.3125 16.051 24.3125 15.1724V2.05618C24.3125 1.521 23.9867 1.03973 23.4898 0.840962C20.0781 -0.523684 16.2247 -0.214919 13.0739 1.67556L12.5 2.01991L11.9261 1.67556ZM13.3438 4.36339C13.3438 3.8974 12.966 3.51964 12.5 3.51964C12.034 3.51964 11.6562 3.8974 11.6562 4.36339V15.0509C11.6562 15.5169 12.034 15.8946 12.5 15.8946C12.966 15.8946 13.3438 15.5169 13.3438 15.0509V4.36339Z" fill="#CFD1DE"/>
<path d="M2.06544 18.4734C4.34228 17.1453 7.15772 17.1453 9.43456 18.4734L10.6577 19.1869C11.7961 19.851 13.2039 19.851 14.3423 19.1869L15.5654 18.4734C17.8423 17.1453 20.6577 17.1453 22.9346 18.4734L23.0501 18.5408C23.4527 18.7756 23.5886 19.2923 23.3538 19.6948C23.119 20.0973 22.6024 20.2333 22.1999 19.9985L22.0843 19.931C20.3329 18.9094 18.1671 18.9094 16.4157 19.931L15.1926 20.6445C13.5287 21.6151 11.4713 21.6151 9.80744 20.6445L8.58427 19.931C6.83286 18.9094 4.66714 18.9094 2.91573 19.931L2.80014 19.9985C2.39763 20.2333 1.88099 20.0973 1.64619 19.6948C1.41139 19.2923 1.54735 18.7756 1.94986 18.5408L2.06544 18.4734Z" fill="#CFD1DE"/>
</svg>
