<svg width="38" height="24" viewBox="0 0 38 24" fill="none" xmlns="http://www.w3.org/2000/svg">
<g style="mix-blend-mode:multiply">
<path fill-rule="evenodd" clip-rule="evenodd" d="M32.0082 2.03526C22.5537 -0.588333 11.6353 -0.226732 1.04897 5.79936C-0.614427 6.74622 -2.00476 7.66776 -3.15576 8.56353C-1.72516 13.7697 0.172181 18.6008 2.42099 23.1677C11.8381 13.4058 25.1801 10.5945 37.9462 13.8034C35.3569 9.78403 33.3931 5.97898 32.0082 2.03526Z" fill="#87C9FF"/>
<path fill-rule="evenodd" clip-rule="evenodd" d="M32.0082 2.03526C22.5537 -0.588333 11.6353 -0.226732 1.04897 5.79936C-0.614427 6.74622 -2.00476 7.66776 -3.15576 8.56353C-1.72516 13.7697 0.172181 18.6008 2.42099 23.1677C11.8381 13.4058 25.1801 10.5945 37.9462 13.8034C35.3569 9.78403 33.3931 5.97898 32.0082 2.03526Z" fill="url(#paint0_linear_2220_16911)" fill-opacity="0.26"/>
<path fill-rule="evenodd" clip-rule="evenodd" d="M32.0082 2.03526C22.5537 -0.588333 11.6353 -0.226732 1.04897 5.79936C-0.614427 6.74622 -2.00476 7.66776 -3.15576 8.56353C-1.72516 13.7697 0.172181 18.6008 2.42099 23.1677C11.8381 13.4058 25.1801 10.5945 37.9462 13.8034C35.3569 9.78403 33.3931 5.97898 32.0082 2.03526Z" fill="url(#paint1_radial_2220_16911)"/>
<path fill-rule="evenodd" clip-rule="evenodd" d="M32.0082 2.03526C22.5537 -0.588333 11.6353 -0.226732 1.04897 5.79936C-0.614427 6.74622 -2.00476 7.66776 -3.15576 8.56353C-1.72516 13.7697 0.172181 18.6008 2.42099 23.1677C11.8381 13.4058 25.1801 10.5945 37.9462 13.8034C35.3569 9.78403 33.3931 5.97898 32.0082 2.03526Z" fill="url(#paint2_radial_2220_16911)" fill-opacity="0.97"/>
</g>
<defs>
<linearGradient id="paint0_linear_2220_16911" x1="-11.8706" y1="-109.285" x2="41.1028" y2="-26.6811" gradientUnits="userSpaceOnUse">
<stop stop-color="#427DB6"/>
<stop offset="0.419203" stop-color="white"/>
<stop offset="1" stop-color="#427DB6"/>
</linearGradient>
<radialGradient id="paint1_radial_2220_16911" cx="0" cy="0" r="1" gradientUnits="userSpaceOnUse" gradientTransform="translate(117.589 -39.8782) rotate(134.012) scale(313.99 255.548)">
<stop stop-color="white" stop-opacity="0"/>
<stop offset="0.572917" stop-color="#3D77B1"/>
<stop offset="1" stop-color="#F7FBFF" stop-opacity="0"/>
</radialGradient>
<radialGradient id="paint2_radial_2220_16911" cx="0" cy="0" r="1" gradientUnits="userSpaceOnUse" gradientTransform="translate(89.7789 -29.5834) rotate(146.11) scale(114.944 80.1388)">
<stop stop-color="white" stop-opacity="0"/>
<stop offset="0.50821" stop-color="#3D77B1"/>
<stop offset="1" stop-color="#B3D9FF" stop-opacity="0"/>
</radialGradient>
</defs>
</svg>
