<svg width="37" height="19" viewBox="0 0 37 19" fill="none" xmlns="http://www.w3.org/2000/svg">
<g style="mix-blend-mode:multiply" opacity="0.56">
<path fill-rule="evenodd" clip-rule="evenodd" d="M36.6183 0.921875C36.6757 5.49595 36.377 10.3733 35.5761 15.3329C19.1416 22.7632 5.09969 14.9342 0.458008 9.89802C0.886594 7.34155 1.09892 4.57569 1.07104 1.63068C8.66754 10.6193 24.1072 12.2109 36.6183 0.921875Z" fill="#87C9FF"/>
<path fill-rule="evenodd" clip-rule="evenodd" d="M36.6183 0.921875C36.6757 5.49595 36.377 10.3733 35.5761 15.3329C19.1416 22.7632 5.09969 14.9342 0.458008 9.89802C0.886594 7.34155 1.09892 4.57569 1.07104 1.63068C8.66754 10.6193 24.1072 12.2109 36.6183 0.921875Z" fill="url(#paint0_radial_2220_16873)" fill-opacity="0.48"/>
<path fill-rule="evenodd" clip-rule="evenodd" d="M36.6183 0.921875C36.6757 5.49595 36.377 10.3733 35.5761 15.3329C19.1416 22.7632 5.09969 14.9342 0.458008 9.89802C0.886594 7.34155 1.09892 4.57569 1.07104 1.63068C8.66754 10.6193 24.1072 12.2109 36.6183 0.921875Z" fill="url(#paint1_linear_2220_16873)" fill-opacity="0.2"/>
</g>
<defs>
<radialGradient id="paint0_radial_2220_16873" cx="0" cy="0" r="1" gradientUnits="userSpaceOnUse" gradientTransform="translate(7.42873 13.1836) rotate(17.2578) scale(44.8773 12.337)">
<stop stop-color="#003873"/>
<stop offset="1" stop-color="#36679B" stop-opacity="0"/>
</radialGradient>
<linearGradient id="paint1_linear_2220_16873" x1="20.5735" y1="19.1573" x2="21.2783" y2="26.0737" gradientUnits="userSpaceOnUse">
<stop stop-color="#043277"/>
<stop offset="0.745154" stop-color="#A8C5FF" stop-opacity="0"/>
</linearGradient>
</defs>
</svg>
