<svg width="37" height="32" viewBox="0 0 37 32" fill="none" xmlns="http://www.w3.org/2000/svg">
<g style="mix-blend-mode:multiply" opacity="0.56">
<path fill-rule="evenodd" clip-rule="evenodd" d="M36.1141 18.095C34.3415 22.8254 31.9821 27.4445 28.9066 31.7567C13.8491 28.9971 4.91398 18.492 0.981934 9.47417C2.47691 6.91151 3.61567 3.83365 4.33054 0.326172C4.90582 6.93717 17.8729 19.2608 36.1141 18.095Z" fill="#87C9FF"/>
<path fill-rule="evenodd" clip-rule="evenodd" d="M36.1141 18.095C34.3415 22.8254 31.9821 27.4445 28.9066 31.7567C13.8491 28.9971 4.91398 18.492 0.981934 9.47417C2.47691 6.91151 3.61567 3.83365 4.33054 0.326172C4.90582 6.93717 17.8729 19.2608 36.1141 18.095Z" fill="url(#paint0_radial_2220_16876)" fill-opacity="0.48"/>
<path fill-rule="evenodd" clip-rule="evenodd" d="M36.1141 18.095C34.3415 22.8254 31.9821 27.4445 28.9066 31.7567C13.8491 28.9971 4.91398 18.492 0.981934 9.47417C2.47691 6.91151 3.61567 3.83365 4.33054 0.326172C4.90582 6.93717 17.8729 19.2608 36.1141 18.095Z" fill="url(#paint1_linear_2220_16876)" fill-opacity="0.2"/>
</g>
<defs>
<radialGradient id="paint0_radial_2220_16876" cx="0" cy="0" r="1" gradientUnits="userSpaceOnUse" gradientTransform="translate(7.75317 22.391) rotate(29.9202) scale(48.0321 20.1487)">
<stop stop-color="#003873"/>
<stop offset="1" stop-color="#36679B" stop-opacity="0"/>
</radialGradient>
<linearGradient id="paint1_linear_2220_16876" x1="20.5218" y1="33.1406" x2="22.8141" y2="45.2831" gradientUnits="userSpaceOnUse">
<stop stop-color="#043277"/>
<stop offset="0.745154" stop-color="#A8C5FF" stop-opacity="0"/>
</linearGradient>
</defs>
</svg>
