<svg width="114" height="49" viewBox="0 0 114 49" fill="none" xmlns="http://www.w3.org/2000/svg">
<g style="mix-blend-mode:multiply">
<path fill-rule="evenodd" clip-rule="evenodd" d="M113.062 2.2828C105.793 36.4309 86.315 47.1279 60.853 48.4076C33.8191 49.7663 8.47858 37.5181 0.304688 0.0712891C20.1772 10.4509 62.1467 21.0143 113.062 2.2828Z" fill="url(#paint0_radial_2220_16886)"/>
<path fill-rule="evenodd" clip-rule="evenodd" d="M113.062 2.2828C105.793 36.4309 86.315 47.1279 60.853 48.4076C33.8191 49.7663 8.47858 37.5181 0.304688 0.0712891C20.1772 10.4509 62.1467 21.0143 113.062 2.2828Z" fill="#FF9ABE" fill-opacity="0.13"/>
<path fill-rule="evenodd" clip-rule="evenodd" d="M113.062 2.2828C105.793 36.4309 86.315 47.1279 60.853 48.4076C33.8191 49.7663 8.47858 37.5181 0.304688 0.0712891C20.1772 10.4509 62.1467 21.0143 113.062 2.2828Z" fill="url(#paint1_radial_2220_16886)" fill-opacity="0.37"/>
<path fill-rule="evenodd" clip-rule="evenodd" d="M113.062 2.2828C105.793 36.4309 86.315 47.1279 60.853 48.4076C33.8191 49.7663 8.47858 37.5181 0.304688 0.0712891C20.1772 10.4509 62.1467 21.0143 113.062 2.2828Z" fill="url(#paint2_radial_2220_16886)" fill-opacity="0.2"/>
<path fill-rule="evenodd" clip-rule="evenodd" d="M113.062 2.2828C105.793 36.4309 86.315 47.1279 60.853 48.4076C33.8191 49.7663 8.47858 37.5181 0.304688 0.0712891C20.1772 10.4509 62.1467 21.0143 113.062 2.2828Z" fill="#1C006A"/>
<path fill-rule="evenodd" clip-rule="evenodd" d="M113.062 2.2828C105.793 36.4309 86.315 47.1279 60.853 48.4076C33.8191 49.7663 8.47858 37.5181 0.304688 0.0712891C20.1772 10.4509 62.1467 21.0143 113.062 2.2828Z" fill="url(#paint3_linear_2220_16886)" fill-opacity="0.87"/>
</g>
<defs>
<radialGradient id="paint0_radial_2220_16886" cx="0" cy="0" r="1" gradientUnits="userSpaceOnUse" gradientTransform="translate(70.1699 -73.8265) rotate(106.402) scale(143.753 116.669)">
<stop stop-color="#55B3FF"/>
<stop offset="1" stop-color="#0E5B9A"/>
</radialGradient>
<radialGradient id="paint1_radial_2220_16886" cx="0" cy="0" r="1" gradientUnits="userSpaceOnUse" gradientTransform="translate(88.0819 -88.8814) rotate(101.218) scale(139.966 110.432)">
<stop stop-color="white"/>
<stop offset="1" stop-color="white" stop-opacity="0"/>
</radialGradient>
<radialGradient id="paint2_radial_2220_16886" cx="0" cy="0" r="1" gradientUnits="userSpaceOnUse" gradientTransform="translate(56.2735 -107.97) rotate(-43.4358) scale(41.7414 48.9349)">
<stop stop-color="#3D5287"/>
<stop offset="1" stop-color="#7A9FFF" stop-opacity="0"/>
</radialGradient>
<linearGradient id="paint3_linear_2220_16886" x1="58.2073" y1="19.8802" x2="56.4713" y2="75.2436" gradientUnits="userSpaceOnUse">
<stop stop-color="#00C2FF"/>
<stop offset="0.927083" stop-color="#221EF0"/>
</linearGradient>
</defs>
</svg>
