<svg width="59" height="152" viewBox="0 0 59 152" fill="none" xmlns="http://www.w3.org/2000/svg">
<path fill-rule="evenodd" clip-rule="evenodd" d="M44.046 0.461914C41.9403 0.677155 39.8377 1.27482 37.836 2.287C9.92026 16.4028 -5.94952 41.0073 -5.94971 73.2602C-5.94989 105.644 9.951 124.63 26.7336 144.669L26.8959 144.863C33.1998 152.39 44.4118 153.381 51.9388 147.077C59.4658 140.773 60.4573 129.561 54.1535 122.034C36.9653 101.511 29.6044 91.5096 29.6045 73.2604C29.6046 54.7754 37.6066 42.2441 53.8797 34.0155C54.6427 33.6297 55.3658 33.1964 56.0474 32.7211C59.7112 14.0422 49.1208 2.64623 44.046 0.461914Z" fill="#87C9FF"/>
<path fill-rule="evenodd" clip-rule="evenodd" d="M44.046 0.461914C41.9403 0.677155 39.8377 1.27482 37.836 2.287C9.92026 16.4028 -5.94952 41.0073 -5.94971 73.2602C-5.94989 105.644 9.951 124.63 26.7336 144.669L26.8959 144.863C33.1998 152.39 44.4118 153.381 51.9388 147.077C59.4658 140.773 60.4573 129.561 54.1535 122.034C36.9653 101.511 29.6044 91.5096 29.6045 73.2604C29.6046 54.7754 37.6066 42.2441 53.8797 34.0155C54.6427 33.6297 55.3658 33.1964 56.0474 32.7211C59.7112 14.0422 49.1208 2.64623 44.046 0.461914Z" fill="url(#paint0_linear_2223_16909)" fill-opacity="0.26"/>
<path fill-rule="evenodd" clip-rule="evenodd" d="M44.046 0.461914C41.9403 0.677155 39.8377 1.27482 37.836 2.287C9.92026 16.4028 -5.94952 41.0073 -5.94971 73.2602C-5.94989 105.644 9.951 124.63 26.7336 144.669L26.8959 144.863C33.1998 152.39 44.4118 153.381 51.9388 147.077C59.4658 140.773 60.4573 129.561 54.1535 122.034C36.9653 101.511 29.6044 91.5096 29.6045 73.2604C29.6046 54.7754 37.6066 42.2441 53.8797 34.0155C54.6427 33.6297 55.3658 33.1964 56.0474 32.7211C59.7112 14.0422 49.1208 2.64623 44.046 0.461914Z" fill="url(#paint1_radial_2223_16909)"/>
<path fill-rule="evenodd" clip-rule="evenodd" d="M44.046 0.461914C41.9403 0.677155 39.8377 1.27482 37.836 2.287C9.92026 16.4028 -5.94952 41.0073 -5.94971 73.2602C-5.94989 105.644 9.951 124.63 26.7336 144.669L26.8959 144.863C33.1998 152.39 44.4118 153.381 51.9388 147.077C59.4658 140.773 60.4573 129.561 54.1535 122.034C36.9653 101.511 29.6044 91.5096 29.6045 73.2604C29.6046 54.7754 37.6066 42.2441 53.8797 34.0155C54.6427 33.6297 55.3658 33.1964 56.0474 32.7211C59.7112 14.0422 49.1208 2.64623 44.046 0.461914Z" fill="url(#paint2_radial_2223_16909)" fill-opacity="0.97"/>
<defs>
<linearGradient id="paint0_linear_2223_16909" x1="-11.7036" y1="-21.7874" x2="41.2672" y2="60.8164" gradientUnits="userSpaceOnUse">
<stop stop-color="#427DB6"/>
<stop offset="0.419203" stop-color="white"/>
<stop offset="1" stop-color="#427DB6"/>
</linearGradient>
<radialGradient id="paint1_radial_2223_16909" cx="0" cy="0" r="1" gradientUnits="userSpaceOnUse" gradientTransform="translate(117.759 47.6172) rotate(134.014) scale(313.99 255.548)">
<stop stop-color="white" stop-opacity="0"/>
<stop offset="0.572917" stop-color="#3D77B1"/>
<stop offset="1" stop-color="#F7FBFF" stop-opacity="0"/>
</radialGradient>
<radialGradient id="paint2_radial_2223_16909" cx="0" cy="0" r="1" gradientUnits="userSpaceOnUse" gradientTransform="translate(89.9487 57.9116) rotate(146.111) scale(114.945 80.1381)">
<stop stop-color="white" stop-opacity="0"/>
<stop offset="0.50821" stop-color="#3D77B1"/>
<stop offset="1" stop-color="#B3D9FF" stop-opacity="0"/>
</radialGradient>
</defs>
</svg>
