<svg width="37" height="32" viewBox="0 0 37 32" fill="none" xmlns="http://www.w3.org/2000/svg">
<g style="mix-blend-mode:multiply" opacity="0.56">
<path fill-rule="evenodd" clip-rule="evenodd" d="M36.114 18.0959C34.3414 22.8262 31.982 27.4454 28.9065 31.7575C13.849 28.9978 4.91391 18.4926 0.981934 9.47477C2.47696 6.91195 3.61573 3.83389 4.33057 0.326172C4.90482 6.93693 17.8721 19.2616 36.114 18.0959Z" fill="#87C9FF"/>
<path fill-rule="evenodd" clip-rule="evenodd" d="M36.114 18.0959C34.3414 22.8262 31.982 27.4454 28.9065 31.7575C13.849 28.9978 4.91391 18.4926 0.981934 9.47477C2.47696 6.91195 3.61573 3.83389 4.33057 0.326172C4.90482 6.93693 17.8721 19.2616 36.114 18.0959Z" fill="url(#paint0_radial_2223_16882)" fill-opacity="0.48"/>
<path fill-rule="evenodd" clip-rule="evenodd" d="M36.114 18.0959C34.3414 22.8262 31.982 27.4454 28.9065 31.7575C13.849 28.9978 4.91391 18.4926 0.981934 9.47477C2.47696 6.91195 3.61573 3.83389 4.33057 0.326172C4.90482 6.93693 17.8721 19.2616 36.114 18.0959Z" fill="url(#paint1_linear_2223_16882)" fill-opacity="0.2"/>
</g>
<defs>
<radialGradient id="paint0_radial_2223_16882" cx="0" cy="0" r="1" gradientUnits="userSpaceOnUse" gradientTransform="translate(7.75314 22.3914) rotate(29.9208) scale(48.0322 20.1489)">
<stop stop-color="#003873"/>
<stop offset="1" stop-color="#36679B" stop-opacity="0"/>
</radialGradient>
<linearGradient id="paint1_linear_2223_16882" x1="20.5217" y1="33.1413" x2="22.8142" y2="45.284" gradientUnits="userSpaceOnUse">
<stop stop-color="#043277"/>
<stop offset="0.745154" stop-color="#A8C5FF" stop-opacity="0"/>
</linearGradient>
</defs>
</svg>
