<svg width="114" height="49" viewBox="0 0 114 49" fill="none" xmlns="http://www.w3.org/2000/svg">
<g style="mix-blend-mode:multiply">
<path fill-rule="evenodd" clip-rule="evenodd" d="M113.062 2.28292C105.793 36.431 86.3147 47.1279 60.8527 48.4077C33.8189 49.7664 8.47832 37.5182 0.304443 0.0712891C20.1769 10.4509 62.1464 21.0144 113.062 2.28292Z" fill="url(#paint0_radial_2223_16892)"/>
<path fill-rule="evenodd" clip-rule="evenodd" d="M113.062 2.28292C105.793 36.431 86.3147 47.1279 60.8527 48.4077C33.8189 49.7664 8.47832 37.5182 0.304443 0.0712891C20.1769 10.4509 62.1464 21.0144 113.062 2.28292Z" fill="#FF9ABE" fill-opacity="0.13"/>
<path fill-rule="evenodd" clip-rule="evenodd" d="M113.062 2.28292C105.793 36.431 86.3147 47.1279 60.8527 48.4077C33.8189 49.7664 8.47832 37.5182 0.304443 0.0712891C20.1769 10.4509 62.1464 21.0144 113.062 2.28292Z" fill="url(#paint1_radial_2223_16892)" fill-opacity="0.37"/>
<path fill-rule="evenodd" clip-rule="evenodd" d="M113.062 2.28292C105.793 36.431 86.3147 47.1279 60.8527 48.4077C33.8189 49.7664 8.47832 37.5182 0.304443 0.0712891C20.1769 10.4509 62.1464 21.0144 113.062 2.28292Z" fill="url(#paint2_radial_2223_16892)" fill-opacity="0.2"/>
<path fill-rule="evenodd" clip-rule="evenodd" d="M113.062 2.28292C105.793 36.431 86.3147 47.1279 60.8527 48.4077C33.8189 49.7664 8.47832 37.5182 0.304443 0.0712891C20.1769 10.4509 62.1464 21.0144 113.062 2.28292Z" fill="#1C006A"/>
<path fill-rule="evenodd" clip-rule="evenodd" d="M113.062 2.28292C105.793 36.431 86.3147 47.1279 60.8527 48.4077C33.8189 49.7664 8.47832 37.5182 0.304443 0.0712891C20.1769 10.4509 62.1464 21.0144 113.062 2.28292Z" fill="url(#paint3_linear_2223_16892)" fill-opacity="0.87"/>
</g>
<defs>
<radialGradient id="paint0_radial_2223_16892" cx="0" cy="0" r="1" gradientUnits="userSpaceOnUse" gradientTransform="translate(70.1697 -73.8265) rotate(106.402) scale(143.753 116.669)">
<stop stop-color="#55B3FF"/>
<stop offset="1" stop-color="#0E5B9A"/>
</radialGradient>
<radialGradient id="paint1_radial_2223_16892" cx="0" cy="0" r="1" gradientUnits="userSpaceOnUse" gradientTransform="translate(88.0817 -88.8814) rotate(101.218) scale(139.966 110.432)">
<stop stop-color="white"/>
<stop offset="1" stop-color="white" stop-opacity="0"/>
</radialGradient>
<radialGradient id="paint2_radial_2223_16892" cx="0" cy="0" r="1" gradientUnits="userSpaceOnUse" gradientTransform="translate(56.2733 -107.97) rotate(-43.4358) scale(41.7414 48.9349)">
<stop stop-color="#3D5287"/>
<stop offset="1" stop-color="#7A9FFF" stop-opacity="0"/>
</radialGradient>
<linearGradient id="paint3_linear_2223_16892" x1="58.2071" y1="19.8802" x2="56.4711" y2="75.2436" gradientUnits="userSpaceOnUse">
<stop stop-color="#00C2FF"/>
<stop offset="0.927083" stop-color="#221EF0"/>
</linearGradient>
</defs>
</svg>
