<svg width="32" height="38" viewBox="0 0 32 38" fill="none" xmlns="http://www.w3.org/2000/svg">
<g style="mix-blend-mode:multiply" opacity="0.56">
<path fill-rule="evenodd" clip-rule="evenodd" d="M31.3626 28.7337C28.3458 31.2904 24.8307 34.1623 20.9279 37.0445C11.3558 31.8533 3.96195 20.1647 0.651855 7.81094C3.95747 5.32023 7.15367 2.66856 10.1756 0.0703125C13.7861 14.2993 22.7835 24.6456 31.3626 28.7337Z" fill="#87C9FF"/>
<path fill-rule="evenodd" clip-rule="evenodd" d="M31.3626 28.7337C28.3458 31.2904 24.8307 34.1623 20.9279 37.0445C11.3558 31.8533 3.96195 20.1647 0.651855 7.81094C3.95747 5.32023 7.15367 2.66856 10.1756 0.0703125C13.7861 14.2993 22.7835 24.6456 31.3626 28.7337Z" fill="url(#paint0_radial_2220_16879)" fill-opacity="0.48"/>
<path fill-rule="evenodd" clip-rule="evenodd" d="M31.3626 28.7337C28.3458 31.2904 24.8307 34.1623 20.9279 37.0445C11.3558 31.8533 3.96195 20.1647 0.651855 7.81094C3.95747 5.32023 7.15367 2.66856 10.1756 0.0703125C13.7861 14.2993 22.7835 24.6456 31.3626 28.7337Z" fill="url(#paint1_linear_2220_16879)" fill-opacity="0.2"/>
</g>
<defs>
<radialGradient id="paint0_radial_2220_16879" cx="0" cy="0" r="1" gradientUnits="userSpaceOnUse" gradientTransform="translate(9.0915 24.884) rotate(40.5168) scale(46.5084 22.2883)">
<stop stop-color="#003873"/>
<stop offset="1" stop-color="#36679B" stop-opacity="0"/>
</radialGradient>
<linearGradient id="paint1_linear_2220_16879" x1="19.9358" y1="38.4411" x2="24.0579" y2="53.145" gradientUnits="userSpaceOnUse">
<stop stop-color="#043277"/>
<stop offset="0.745154" stop-color="#A8C5FF" stop-opacity="0"/>
</linearGradient>
</defs>
</svg>
