<svg width="43" height="29" viewBox="0 0 43 29" fill="none" xmlns="http://www.w3.org/2000/svg">
<g style="mix-blend-mode:multiply">
<path fill-rule="evenodd" clip-rule="evenodd" d="M32.2411 0.771484C24.1484 1.34012 15.4565 4.02427 7.21377 9.64745C3.42447 12.2325 1.18657 14.5453 0.0368652 16.6177C2.67979 20.7604 5.57749 24.7287 8.62231 28.626C16.7837 17.3125 29.7515 12.7537 42.8455 14.3726C38.6548 9.30867 35.135 4.8894 32.2411 0.771484Z" fill="#87C9FF"/>
<path fill-rule="evenodd" clip-rule="evenodd" d="M32.2411 0.771484C24.1484 1.34012 15.4565 4.02427 7.21377 9.64745C3.42447 12.2325 1.18657 14.5453 0.0368652 16.6177C2.67979 20.7604 5.57749 24.7287 8.62231 28.626C16.7837 17.3125 29.7515 12.7537 42.8455 14.3726C38.6548 9.30867 35.135 4.8894 32.2411 0.771484Z" fill="url(#paint0_linear_2220_16906)" fill-opacity="0.26"/>
<path fill-rule="evenodd" clip-rule="evenodd" d="M32.2411 0.771484C24.1484 1.34012 15.4565 4.02427 7.21377 9.64745C3.42447 12.2325 1.18657 14.5453 0.0368652 16.6177C2.67979 20.7604 5.57749 24.7287 8.62231 28.626C16.7837 17.3125 29.7515 12.7537 42.8455 14.3726C38.6548 9.30867 35.135 4.8894 32.2411 0.771484Z" fill="url(#paint1_radial_2220_16906)"/>
<path fill-rule="evenodd" clip-rule="evenodd" d="M32.2411 0.771484C24.1484 1.34012 15.4565 4.02427 7.21377 9.64745C3.42447 12.2325 1.18657 14.5453 0.0368652 16.6177C2.67979 20.7604 5.57749 24.7287 8.62231 28.626C16.7837 17.3125 29.7515 12.7537 42.8455 14.3726C38.6548 9.30867 35.135 4.8894 32.2411 0.771484Z" fill="url(#paint2_radial_2220_16906)" fill-opacity="0.97"/>
</g>
<defs>
<linearGradient id="paint0_linear_2220_16906" x1="-19.7467" y1="-125.519" x2="33.2183" y2="-42.913" gradientUnits="userSpaceOnUse">
<stop stop-color="#427DB6"/>
<stop offset="0.419203" stop-color="white"/>
<stop offset="1" stop-color="#427DB6"/>
</linearGradient>
<radialGradient id="paint1_radial_2220_16906" cx="0" cy="0" r="1" gradientUnits="userSpaceOnUse" gradientTransform="translate(109.727 -56.1181) rotate(134.017) scale(313.994 255.553)">
<stop stop-color="white" stop-opacity="0"/>
<stop offset="0.572917" stop-color="#3D77B1"/>
<stop offset="1" stop-color="#F7FBFF" stop-opacity="0"/>
</radialGradient>
<radialGradient id="paint2_radial_2220_16906" cx="0" cy="0" r="1" gradientUnits="userSpaceOnUse" gradientTransform="translate(81.9141 -45.8242) rotate(146.115) scale(114.95 80.1372)">
<stop stop-color="white" stop-opacity="0"/>
<stop offset="0.50821" stop-color="#3D77B1"/>
<stop offset="1" stop-color="#B3D9FF" stop-opacity="0"/>
</radialGradient>
</defs>
</svg>
