<svg width="117" height="34" viewBox="0 0 117 34" fill="none" xmlns="http://www.w3.org/2000/svg">
<g style="mix-blend-mode:multiply">
<path fill-rule="evenodd" clip-rule="evenodd" d="M110.441 0.476314C113.171 6.93344 115.197 14.0888 116.36 21.8656C112.086 24.7476 95.8068 33.5594 58.3656 33.7504C22.0203 33.9358 5.62024 25.4618 0.781616 22.179C1.85317 14.1576 3.59149 6.90907 5.92323 0.445312C12.1638 5.23975 33.6285 11.6481 58.3656 11.6481C83.0494 11.6481 104.228 5.26732 110.441 0.476314Z" fill="url(#paint0_radial_2223_16895)"/>
<path fill-rule="evenodd" clip-rule="evenodd" d="M110.441 0.476314C113.171 6.93344 115.197 14.0888 116.36 21.8656C112.086 24.7476 95.8068 33.5594 58.3656 33.7504C22.0203 33.9358 5.62024 25.4618 0.781616 22.179C1.85317 14.1576 3.59149 6.90907 5.92323 0.445312C12.1638 5.23975 33.6285 11.6481 58.3656 11.6481C83.0494 11.6481 104.228 5.26732 110.441 0.476314Z" fill="#FF9ABE" fill-opacity="0.13"/>
<path fill-rule="evenodd" clip-rule="evenodd" d="M110.441 0.476314C113.171 6.93344 115.197 14.0888 116.36 21.8656C112.086 24.7476 95.8068 33.5594 58.3656 33.7504C22.0203 33.9358 5.62024 25.4618 0.781616 22.179C1.85317 14.1576 3.59149 6.90907 5.92323 0.445312C12.1638 5.23975 33.6285 11.6481 58.3656 11.6481C83.0494 11.6481 104.228 5.26732 110.441 0.476314Z" fill="url(#paint1_radial_2223_16895)" fill-opacity="0.37"/>
<path fill-rule="evenodd" clip-rule="evenodd" d="M110.441 0.476314C113.171 6.93344 115.197 14.0888 116.36 21.8656C112.086 24.7476 95.8068 33.5594 58.3656 33.7504C22.0203 33.9358 5.62024 25.4618 0.781616 22.179C1.85317 14.1576 3.59149 6.90907 5.92323 0.445312C12.1638 5.23975 33.6285 11.6481 58.3656 11.6481C83.0494 11.6481 104.228 5.26732 110.441 0.476314Z" fill="url(#paint2_radial_2223_16895)" fill-opacity="0.2"/>
</g>
<defs>
<radialGradient id="paint0_radial_2223_16895" cx="0" cy="0" r="1" gradientUnits="userSpaceOnUse" gradientTransform="translate(71.7459 -7.64285) rotate(102.756) scale(182.921 118.015)">
<stop stop-color="#55B3FF"/>
<stop offset="1" stop-color="#0E5B9A"/>
</radialGradient>
<radialGradient id="paint1_radial_2223_16895" cx="0" cy="0" r="1" gradientUnits="userSpaceOnUse" gradientTransform="translate(89.567 -27.1196) rotate(98.6722) scale(179.67 110.732)">
<stop stop-color="white"/>
<stop offset="1" stop-color="white" stop-opacity="0"/>
</radialGradient>
<radialGradient id="paint2_radial_2223_16895" cx="0" cy="0" r="1" gradientUnits="userSpaceOnUse" gradientTransform="translate(57.9199 -51.8142) rotate(-50.9154) scale(47.8323 54.9662)">
<stop stop-color="#3D5287"/>
<stop offset="1" stop-color="#7A9FFF" stop-opacity="0"/>
</radialGradient>
</defs>
</svg>
