<svg width="26" height="35" viewBox="0 0 26 35" fill="none" xmlns="http://www.w3.org/2000/svg">
<g style="mix-blend-mode:multiply">
<path fill-rule="evenodd" clip-rule="evenodd" d="M21.2885 34.7664C18.4173 18.9498 13.5821 9.88735 0.38208 5.78059C2.43371 4.53698 4.56229 3.35734 6.76593 2.24305C8.76763 1.23087 10.8702 0.633209 12.9759 0.417969C18.0508 2.60229 28.6412 13.9983 24.9773 32.6771C24.2958 33.1525 23.5726 33.5858 22.8097 33.9716C22.2943 34.2322 21.7872 34.4971 21.2885 34.7664Z" fill="#87C9FF"/>
<path fill-rule="evenodd" clip-rule="evenodd" d="M21.2885 34.7664C18.4173 18.9498 13.5821 9.88735 0.38208 5.78059C2.43371 4.53698 4.56229 3.35734 6.76593 2.24305C8.76763 1.23087 10.8702 0.633209 12.9759 0.417969C18.0508 2.60229 28.6412 13.9983 24.9773 32.6771C24.2958 33.1525 23.5726 33.5858 22.8097 33.9716C22.2943 34.2322 21.7872 34.4971 21.2885 34.7664Z" fill="url(#paint0_linear_2223_16937)" fill-opacity="0.26"/>
<path fill-rule="evenodd" clip-rule="evenodd" d="M21.2885 34.7664C18.4173 18.9498 13.5821 9.88735 0.38208 5.78059C2.43371 4.53698 4.56229 3.35734 6.76593 2.24305C8.76763 1.23087 10.8702 0.633209 12.9759 0.417969C18.0508 2.60229 28.6412 13.9983 24.9773 32.6771C24.2958 33.1525 23.5726 33.5858 22.8097 33.9716C22.2943 34.2322 21.7872 34.4971 21.2885 34.7664Z" fill="url(#paint1_radial_2223_16937)"/>
<path fill-rule="evenodd" clip-rule="evenodd" d="M21.2885 34.7664C18.4173 18.9498 13.5821 9.88735 0.38208 5.78059C2.43371 4.53698 4.56229 3.35734 6.76593 2.24305C8.76763 1.23087 10.8702 0.633209 12.9759 0.417969C18.0508 2.60229 28.6412 13.9983 24.9773 32.6771C24.2958 33.1525 23.5726 33.5858 22.8097 33.9716C22.2943 34.2322 21.7872 34.4971 21.2885 34.7664Z" fill="url(#paint2_radial_2223_16937)" fill-opacity="0.97"/>
</g>
<defs>
<linearGradient id="paint0_linear_2223_16937" x1="-42.7738" y1="-21.8316" x2="10.198" y2="60.7728" gradientUnits="userSpaceOnUse">
<stop stop-color="#427DB6"/>
<stop offset="0.419203" stop-color="white"/>
<stop offset="1" stop-color="#427DB6"/>
</linearGradient>
<radialGradient id="paint1_radial_2223_16937" cx="0" cy="0" r="1" gradientUnits="userSpaceOnUse" gradientTransform="translate(86.6894 47.5739) rotate(134.013) scale(313.992 255.55)">
<stop stop-color="white" stop-opacity="0"/>
<stop offset="0.572917" stop-color="#3D77B1"/>
<stop offset="1" stop-color="#F7FBFF" stop-opacity="0"/>
</radialGradient>
<radialGradient id="paint2_radial_2223_16937" cx="0" cy="0" r="1" gradientUnits="userSpaceOnUse" gradientTransform="translate(58.8788 57.8685) rotate(146.111) scale(114.946 80.1389)">
<stop stop-color="white" stop-opacity="0"/>
<stop offset="0.50821" stop-color="#3D77B1"/>
<stop offset="1" stop-color="#B3D9FF" stop-opacity="0"/>
</radialGradient>
</defs>
</svg>
