<svg width="86" height="28" viewBox="0 0 86 28" fill="none" xmlns="http://www.w3.org/2000/svg">
<g style="mix-blend-mode:multiply">
<path fill-rule="evenodd" clip-rule="evenodd" d="M65.5254 0.718975C72.5495 4.20676 78.9971 9.29492 84.4845 15.7968C84.6962 16.0964 84.899 16.3975 85.0922 16.6999C84.0763 20.34 74.1212 27.5693 42.4272 27.3662C10.9446 27.1643 1.41293 20.0966 0.540405 16.5176C5.74194 9.40167 12.0809 4.04356 19.3171 0.482422C19.3704 5.09442 29.6967 8.82718 42.4272 8.82718C54.9392 8.82718 65.1289 5.22138 65.5254 0.718975Z" fill="url(#paint0_radial_2223_16901)"/>
<path fill-rule="evenodd" clip-rule="evenodd" d="M65.5254 0.718975C72.5495 4.20676 78.9971 9.29492 84.4845 15.7968C84.6962 16.0964 84.899 16.3975 85.0922 16.6999C84.0763 20.34 74.1212 27.5693 42.4272 27.3662C10.9446 27.1643 1.41293 20.0966 0.540405 16.5176C5.74194 9.40167 12.0809 4.04356 19.3171 0.482422C19.3704 5.09442 29.6967 8.82718 42.4272 8.82718C54.9392 8.82718 65.1289 5.22138 65.5254 0.718975Z" fill="#FF9ABE" fill-opacity="0.13"/>
<path fill-rule="evenodd" clip-rule="evenodd" d="M65.5254 0.718975C72.5495 4.20676 78.9971 9.29492 84.4845 15.7968C84.6962 16.0964 84.899 16.3975 85.0922 16.6999C84.0763 20.34 74.1212 27.5693 42.4272 27.3662C10.9446 27.1643 1.41293 20.0966 0.540405 16.5176C5.74194 9.40167 12.0809 4.04356 19.3171 0.482422C19.3704 5.09442 29.6967 8.82718 42.4272 8.82718C54.9392 8.82718 65.1289 5.22138 65.5254 0.718975Z" fill="url(#paint1_radial_2223_16901)" fill-opacity="0.37"/>
<path fill-rule="evenodd" clip-rule="evenodd" d="M65.5254 0.718975C72.5495 4.20676 78.9971 9.29492 84.4845 15.7968C84.6962 16.0964 84.899 16.3975 85.0922 16.6999C84.0763 20.34 74.1212 27.5693 42.4272 27.3662C10.9446 27.1643 1.41293 20.0966 0.540405 16.5176C5.74194 9.40167 12.0809 4.04356 19.3171 0.482422C19.3704 5.09442 29.6967 8.82718 42.4272 8.82718C54.9392 8.82718 65.1289 5.22138 65.5254 0.718975Z" fill="url(#paint2_radial_2223_16901)" fill-opacity="0.2"/>
</g>
<defs>
<radialGradient id="paint0_radial_2223_16901" cx="0" cy="0" r="1" gradientUnits="userSpaceOnUse" gradientTransform="translate(56.568 30.1685) rotate(106.32) scale(143.693 116.101)">
<stop stop-color="#55B3FF"/>
<stop offset="1" stop-color="#0E5B9A"/>
</radialGradient>
<radialGradient id="paint1_radial_2223_16901" cx="0" cy="0" r="1" gradientUnits="userSpaceOnUse" gradientTransform="translate(74.3854 15.1136) rotate(101.16) scale(139.938 109.871)">
<stop stop-color="white"/>
<stop offset="1" stop-color="white" stop-opacity="0"/>
</radialGradient>
<radialGradient id="paint2_radial_2223_16901" cx="0" cy="0" r="1" gradientUnits="userSpaceOnUse" gradientTransform="translate(42.7449 -3.97457) rotate(-43.5871) scale(41.6253 48.8122)">
<stop stop-color="#3D5287"/>
<stop offset="1" stop-color="#7A9FFF" stop-opacity="0"/>
</radialGradient>
</defs>
</svg>
