<svg width="32" height="23" viewBox="0 0 32 23" fill="none" xmlns="http://www.w3.org/2000/svg">
<g style="mix-blend-mode:multiply">
<path fill-rule="evenodd" clip-rule="evenodd" d="M29.701 7.48976C22.6641 2.93968 13.3566 0.0842449 2.05886 0.687561C-1.16254 0.85959 -3.65808 1.31452 -5.57124 1.97822C-5.78878 4.5543 -5.89867 7.18495 -5.89868 9.86856C-5.8987 12.4016 -5.80143 14.8527 -5.61406 17.2287C7.62048 11.8638 21.0262 14.0554 31.0717 22.2926C30.1147 18.4709 29.6555 14.4271 29.6555 9.86877C29.6555 9.06454 29.6707 8.27158 29.701 7.48976Z" fill="#87C9FF"/>
<path fill-rule="evenodd" clip-rule="evenodd" d="M29.701 7.48976C22.6641 2.93968 13.3566 0.0842449 2.05886 0.687561C-1.16254 0.85959 -3.65808 1.31452 -5.57124 1.97822C-5.78878 4.5543 -5.89867 7.18495 -5.89868 9.86856C-5.8987 12.4016 -5.80143 14.8527 -5.61406 17.2287C7.62048 11.8638 21.0262 14.0554 31.0717 22.2926C30.1147 18.4709 29.6555 14.4271 29.6555 9.86877C29.6555 9.06454 29.6707 8.27158 29.701 7.48976Z" fill="url(#paint0_linear_2220_16916)" fill-opacity="0.26"/>
<path fill-rule="evenodd" clip-rule="evenodd" d="M29.701 7.48976C22.6641 2.93968 13.3566 0.0842449 2.05886 0.687561C-1.16254 0.85959 -3.65808 1.31452 -5.57124 1.97822C-5.78878 4.5543 -5.89867 7.18495 -5.89868 9.86856C-5.8987 12.4016 -5.80143 14.8527 -5.61406 17.2287C7.62048 11.8638 21.0262 14.0554 31.0717 22.2926C30.1147 18.4709 29.6555 14.4271 29.6555 9.86877C29.6555 9.06454 29.6707 8.27158 29.701 7.48976Z" fill="url(#paint1_radial_2220_16916)"/>
<path fill-rule="evenodd" clip-rule="evenodd" d="M29.701 7.48976C22.6641 2.93968 13.3566 0.0842449 2.05886 0.687561C-1.16254 0.85959 -3.65808 1.31452 -5.57124 1.97822C-5.78878 4.5543 -5.89867 7.18495 -5.89868 9.86856C-5.8987 12.4016 -5.80143 14.8527 -5.61406 17.2287C7.62048 11.8638 21.0262 14.0554 31.0717 22.2926C30.1147 18.4709 29.6555 14.4271 29.6555 9.86877C29.6555 9.06454 29.6707 8.27158 29.701 7.48976Z" fill="url(#paint2_radial_2220_16916)" fill-opacity="0.97"/>
</g>
<defs>
<linearGradient id="paint0_linear_2220_16916" x1="-11.6525" y1="-85.1766" x2="41.3144" y2="-2.57505" gradientUnits="userSpaceOnUse">
<stop stop-color="#427DB6"/>
<stop offset="0.419203" stop-color="white"/>
<stop offset="1" stop-color="#427DB6"/>
</linearGradient>
<radialGradient id="paint1_radial_2220_16916" cx="0" cy="0" r="1" gradientUnits="userSpaceOnUse" gradientTransform="translate(117.809 -15.7758) rotate(134.015) scale(313.98 255.541)">
<stop stop-color="white" stop-opacity="0"/>
<stop offset="0.572917" stop-color="#3D77B1"/>
<stop offset="1" stop-color="#F7FBFF" stop-opacity="0"/>
</radialGradient>
<radialGradient id="paint2_radial_2220_16916" cx="0" cy="0" r="1" gradientUnits="userSpaceOnUse" gradientTransform="translate(89.9989 -5.48193) rotate(146.113) scale(114.943 80.1348)">
<stop stop-color="white" stop-opacity="0"/>
<stop offset="0.50821" stop-color="#3D77B1"/>
<stop offset="1" stop-color="#B3D9FF" stop-opacity="0"/>
</radialGradient>
</defs>
</svg>
