<svg width="35" height="32" viewBox="0 0 35 32" fill="none" xmlns="http://www.w3.org/2000/svg">
<g style="mix-blend-mode:multiply" opacity="0.56">
<path fill-rule="evenodd" clip-rule="evenodd" d="M25.518 0.570312C26.7177 1.24765 27.8573 2.07621 28.9096 3.05697C31.1912 5.18356 33.1543 7.65043 34.8396 10.2787C25.7906 28.728 14.2612 32.0054 5.7649 31.0135C5.23395 29.932 4.83217 29.3412 4.68598 29.1263C4.61498 29.0219 4.60426 29.0062 4.66831 29.0659C2.71115 27.2417 1.25795 25.0793 0.314819 22.7532C17.7509 16.6153 23.9325 12.1572 25.518 0.570312Z" fill="#87C9FF"/>
<path fill-rule="evenodd" clip-rule="evenodd" d="M25.518 0.570312C26.7177 1.24765 27.8573 2.07621 28.9096 3.05697C31.1912 5.18356 33.1543 7.65043 34.8396 10.2787C25.7906 28.728 14.2612 32.0054 5.7649 31.0135C5.23395 29.932 4.83217 29.3412 4.68598 29.1263C4.61498 29.0219 4.60426 29.0062 4.66831 29.0659C2.71115 27.2417 1.25795 25.0793 0.314819 22.7532C17.7509 16.6153 23.9325 12.1572 25.518 0.570312Z" fill="url(#paint0_radial_2223_16873)" fill-opacity="0.48"/>
<path fill-rule="evenodd" clip-rule="evenodd" d="M25.518 0.570312C26.7177 1.24765 27.8573 2.07621 28.9096 3.05697C31.1912 5.18356 33.1543 7.65043 34.8396 10.2787C25.7906 28.728 14.2612 32.0054 5.7649 31.0135C5.23395 29.932 4.83217 29.3412 4.68598 29.1263C4.61498 29.0219 4.60426 29.0062 4.66831 29.0659C2.71115 27.2417 1.25795 25.0793 0.314819 22.7532C17.7509 16.6153 23.9325 12.1572 25.518 0.570312Z" fill="url(#paint1_linear_2223_16873)" fill-opacity="0.2"/>
</g>
<defs>
<radialGradient id="paint0_radial_2223_16873" cx="0" cy="0" r="1" gradientUnits="userSpaceOnUse" gradientTransform="translate(6.96898 22.0534) rotate(29.6909) scale(47.0936 19.6625)">
<stop stop-color="#003873"/>
<stop offset="1" stop-color="#36679B" stop-opacity="0"/>
</radialGradient>
<linearGradient id="paint1_linear_2223_16873" x1="19.5168" y1="32.5197" x2="21.7295" y2="44.3496" gradientUnits="userSpaceOnUse">
<stop stop-color="#043277"/>
<stop offset="0.745154" stop-color="#A8C5FF" stop-opacity="0"/>
</linearGradient>
</defs>
</svg>
