<svg width="86" height="28" viewBox="0 0 86 28" fill="none" xmlns="http://www.w3.org/2000/svg">
<g style="mix-blend-mode:multiply">
<path fill-rule="evenodd" clip-rule="evenodd" d="M65.5255 0.719093C72.55 4.20704 78.9978 9.29549 84.4853 15.7978C84.6967 16.0971 84.8994 16.3979 85.0923 16.7C84.0765 20.34 74.1213 27.5694 42.4273 27.3662C10.9444 27.1644 1.41287 20.0965 0.540527 16.5175C5.74208 9.40162 12.081 4.04354 19.3173 0.482422C19.3705 5.09444 29.6968 8.82724 42.4273 8.82724C54.9393 8.82724 65.129 5.22147 65.5255 0.719093Z" fill="url(#paint0_radial_2220_16895)"/>
<path fill-rule="evenodd" clip-rule="evenodd" d="M65.5255 0.719093C72.55 4.20704 78.9978 9.29549 84.4853 15.7978C84.6967 16.0971 84.8994 16.3979 85.0923 16.7C84.0765 20.34 74.1213 27.5694 42.4273 27.3662C10.9444 27.1644 1.41287 20.0965 0.540527 16.5175C5.74208 9.40162 12.081 4.04354 19.3173 0.482422C19.3705 5.09444 29.6968 8.82724 42.4273 8.82724C54.9393 8.82724 65.129 5.22147 65.5255 0.719093Z" fill="#FF9ABE" fill-opacity="0.13"/>
<path fill-rule="evenodd" clip-rule="evenodd" d="M65.5255 0.719093C72.55 4.20704 78.9978 9.29549 84.4853 15.7978C84.6967 16.0971 84.8994 16.3979 85.0923 16.7C84.0765 20.34 74.1213 27.5694 42.4273 27.3662C10.9444 27.1644 1.41287 20.0965 0.540527 16.5175C5.74208 9.40162 12.081 4.04354 19.3173 0.482422C19.3705 5.09444 29.6968 8.82724 42.4273 8.82724C54.9393 8.82724 65.129 5.22147 65.5255 0.719093Z" fill="url(#paint1_radial_2220_16895)" fill-opacity="0.37"/>
<path fill-rule="evenodd" clip-rule="evenodd" d="M65.5255 0.719093C72.55 4.20704 78.9978 9.29549 84.4853 15.7978C84.6967 16.0971 84.8994 16.3979 85.0923 16.7C84.0765 20.34 74.1213 27.5694 42.4273 27.3662C10.9444 27.1644 1.41287 20.0965 0.540527 16.5175C5.74208 9.40162 12.081 4.04354 19.3173 0.482422C19.3705 5.09444 29.6968 8.82724 42.4273 8.82724C54.9393 8.82724 65.129 5.22147 65.5255 0.719093Z" fill="url(#paint2_radial_2220_16895)" fill-opacity="0.2"/>
</g>
<defs>
<radialGradient id="paint0_radial_2220_16895" cx="0" cy="0" r="1" gradientUnits="userSpaceOnUse" gradientTransform="translate(56.5681 30.1685) rotate(106.32) scale(143.693 116.101)">
<stop stop-color="#55B3FF"/>
<stop offset="1" stop-color="#0E5B9A"/>
</radialGradient>
<radialGradient id="paint1_radial_2220_16895" cx="0" cy="0" r="1" gradientUnits="userSpaceOnUse" gradientTransform="translate(74.3855 15.1136) rotate(101.16) scale(139.937 109.871)">
<stop stop-color="white"/>
<stop offset="1" stop-color="white" stop-opacity="0"/>
</radialGradient>
<radialGradient id="paint2_radial_2220_16895" cx="0" cy="0" r="1" gradientUnits="userSpaceOnUse" gradientTransform="translate(42.745 -3.97457) rotate(-43.5871) scale(41.6253 48.8122)">
<stop stop-color="#3D5287"/>
<stop offset="1" stop-color="#7A9FFF" stop-opacity="0"/>
</radialGradient>
</defs>
</svg>
