<svg width="43" height="29" viewBox="0 0 43 29" fill="none" xmlns="http://www.w3.org/2000/svg">
<g style="mix-blend-mode:multiply">
<path fill-rule="evenodd" clip-rule="evenodd" d="M32.241 0.771484C24.1483 1.34013 15.4565 4.02429 7.21382 9.64744C3.42447 12.2325 1.18655 14.5454 0.0368652 16.6178C2.67979 20.7605 5.57749 24.7288 8.6223 28.6261C16.7837 17.3125 29.7514 12.7537 42.8454 14.3726C38.6547 9.30866 35.135 4.88939 32.241 0.771484Z" fill="#87C9FF"/>
<path fill-rule="evenodd" clip-rule="evenodd" d="M32.241 0.771484C24.1483 1.34013 15.4565 4.02429 7.21382 9.64744C3.42447 12.2325 1.18655 14.5454 0.0368652 16.6178C2.67979 20.7605 5.57749 24.7288 8.6223 28.6261C16.7837 17.3125 29.7514 12.7537 42.8454 14.3726C38.6547 9.30866 35.135 4.88939 32.241 0.771484Z" fill="url(#paint0_linear_2223_16912)" fill-opacity="0.26"/>
<path fill-rule="evenodd" clip-rule="evenodd" d="M32.241 0.771484C24.1483 1.34013 15.4565 4.02429 7.21382 9.64744C3.42447 12.2325 1.18655 14.5454 0.0368652 16.6178C2.67979 20.7605 5.57749 24.7288 8.6223 28.6261C16.7837 17.3125 29.7514 12.7537 42.8454 14.3726C38.6547 9.30866 35.135 4.88939 32.241 0.771484Z" fill="url(#paint1_radial_2223_16912)"/>
<path fill-rule="evenodd" clip-rule="evenodd" d="M32.241 0.771484C24.1483 1.34013 15.4565 4.02429 7.21382 9.64744C3.42447 12.2325 1.18655 14.5454 0.0368652 16.6178C2.67979 20.7605 5.57749 24.7288 8.6223 28.6261C16.7837 17.3125 29.7514 12.7537 42.8454 14.3726C38.6547 9.30866 35.135 4.88939 32.241 0.771484Z" fill="url(#paint2_radial_2223_16912)" fill-opacity="0.97"/>
</g>
<defs>
<linearGradient id="paint0_linear_2223_16912" x1="-19.7466" y1="-125.519" x2="33.2187" y2="-42.9135" gradientUnits="userSpaceOnUse">
<stop stop-color="#427DB6"/>
<stop offset="0.419203" stop-color="white"/>
<stop offset="1" stop-color="#427DB6"/>
</linearGradient>
<radialGradient id="paint1_radial_2223_16912" cx="0" cy="0" r="1" gradientUnits="userSpaceOnUse" gradientTransform="translate(109.727 -56.1183) rotate(134.017) scale(313.994 255.553)">
<stop stop-color="white" stop-opacity="0"/>
<stop offset="0.572917" stop-color="#3D77B1"/>
<stop offset="1" stop-color="#F7FBFF" stop-opacity="0"/>
</radialGradient>
<radialGradient id="paint2_radial_2223_16912" cx="0" cy="0" r="1" gradientUnits="userSpaceOnUse" gradientTransform="translate(81.9139 -45.8244) rotate(146.115) scale(114.95 80.1373)">
<stop stop-color="white" stop-opacity="0"/>
<stop offset="0.50821" stop-color="#3D77B1"/>
<stop offset="1" stop-color="#B3D9FF" stop-opacity="0"/>
</radialGradient>
</defs>
</svg>
