<svg width="11" height="14" viewBox="0 0 11 14" fill="none" xmlns="http://www.w3.org/2000/svg">
<path fill-rule="evenodd" clip-rule="evenodd" d="M0.198074 5.87855C0.198074 2.81197 2.61211 0.333374 5.53212 0.333374C8.46037 0.333374 10.8744 2.81197 10.8744 5.87855C10.8744 7.42383 10.345 8.85846 9.47361 10.0744C8.5123 11.4157 7.32745 12.5844 5.99378 13.5017C5.68854 13.7137 5.41307 13.7297 5.07807 13.5017C3.7368 12.5844 2.55195 11.4157 1.59887 10.0744C0.726856 8.85846 0.198074 7.42383 0.198074 5.87855ZM3.77416 6.05121C3.77416 7.07851 4.56385 7.88649 5.53212 7.88649C6.50103 7.88649 7.29832 7.07851 7.29832 6.05121C7.29832 5.0319 6.50103 4.1846 5.53212 4.1846C4.56385 4.1846 3.77416 5.0319 3.77416 6.05121Z" fill="#14142A"/>
</svg>
