<svg width="11" height="14" viewBox="0 0 11 14" fill="none" xmlns="http://www.w3.org/2000/svg">
<path fill-rule="evenodd" clip-rule="evenodd" d="M0.198242 5.87818C0.198242 2.8116 2.61227 0.333008 5.53229 0.333008C8.46054 0.333008 10.8746 2.8116 10.8746 5.87818C10.8746 7.42347 10.3452 8.85809 9.47377 10.0741C8.51247 11.4154 7.32762 12.584 5.99395 13.5013C5.68871 13.7133 5.41324 13.7293 5.07823 13.5013C3.73696 12.584 2.55211 11.4154 1.59904 10.0741C0.727024 8.85809 0.198242 7.42347 0.198242 5.87818ZM3.77433 6.05084C3.77433 7.07815 4.56402 7.88612 5.53229 7.88612C6.5012 7.88612 7.29848 7.07815 7.29848 6.05084C7.29848 5.03154 6.5012 4.18423 5.53229 4.18423C4.56402 4.18423 3.77433 5.03154 3.77433 6.05084Z" fill="#14142A"/>
</svg>
