<svg width="11" height="14" viewBox="0 0 11 14" fill="none" xmlns="http://www.w3.org/2000/svg">
<path fill-rule="evenodd" clip-rule="evenodd" d="M0.19812 5.87855C0.19812 2.81197 2.61215 0.333374 5.53217 0.333374C8.46042 0.333374 10.8744 2.81197 10.8744 5.87855C10.8744 7.42383 10.345 8.85846 9.47365 10.0744C8.51235 11.4157 7.32749 12.5844 5.99382 13.5017C5.68859 13.7137 5.41311 13.7297 5.07811 13.5017C3.73684 12.5844 2.55199 11.4157 1.59892 10.0744C0.726902 8.85846 0.19812 7.42383 0.19812 5.87855ZM3.77421 6.05121C3.77421 7.07851 4.5639 7.88649 5.53217 7.88649C6.50107 7.88649 7.29836 7.07851 7.29836 6.05121C7.29836 5.0319 6.50107 4.1846 5.53217 4.1846C4.5639 4.1846 3.77421 5.0319 3.77421 6.05121Z" fill="#14142A"/>
</svg>
