<svg width="11" height="14" viewBox="0 0 11 14" fill="none" xmlns="http://www.w3.org/2000/svg">
<path fill-rule="evenodd" clip-rule="evenodd" d="M0.197998 5.87818C0.197998 2.8116 2.61203 0.333008 5.53205 0.333008C8.46029 0.333008 10.8743 2.8116 10.8743 5.87818C10.8743 7.42347 10.3449 8.85809 9.47353 10.0741C8.51222 11.4154 7.32737 12.584 5.9937 13.5013C5.68846 13.7133 5.41299 13.7293 5.07799 13.5013C3.73672 12.584 2.55187 11.4154 1.5988 10.0741C0.72678 8.85809 0.197998 7.42347 0.197998 5.87818ZM3.77408 6.05084C3.77408 7.07815 4.56377 7.88612 5.53205 7.88612C6.50095 7.88612 7.29824 7.07815 7.29824 6.05084C7.29824 5.03154 6.50095 4.18423 5.53205 4.18423C4.56377 4.18423 3.77408 5.03154 3.77408 6.05084Z" fill="#14142A"/>
</svg>
