<svg width="12" height="14" viewBox="0 0 12 14" fill="none" xmlns="http://www.w3.org/2000/svg">
<path fill-rule="evenodd" clip-rule="evenodd" d="M0.333496 5.87818C0.333496 2.8116 2.89608 0.333008 5.99579 0.333008C9.10424 0.333008 11.6668 2.8116 11.6668 5.87818C11.6668 7.42347 11.1048 8.85809 10.1798 10.0741C9.15937 11.4154 7.9016 12.584 6.48586 13.5013C6.16184 13.7133 5.86941 13.7293 5.5138 13.5013C4.08999 12.584 2.83222 11.4154 1.8205 10.0741C0.894818 8.85809 0.333496 7.42347 0.333496 5.87818ZM4.12965 6.05084C4.12965 7.07815 4.96793 7.88612 5.99579 7.88612C7.02432 7.88612 7.87068 7.07815 7.87068 6.05084C7.87068 5.03154 7.02432 4.18423 5.99579 4.18423C4.96793 4.18423 4.12965 5.03154 4.12965 6.05084Z" fill="#FCFCFC"/>
</svg>
