<svg width="11" height="14" viewBox="0 0 11 14" fill="none" xmlns="http://www.w3.org/2000/svg">
<path fill-rule="evenodd" clip-rule="evenodd" d="M0.0671387 5.99146C0.0671387 2.92488 2.48117 0.446289 5.40119 0.446289C8.32944 0.446289 10.7435 2.92488 10.7435 5.99146C10.7435 7.53675 10.2141 8.97137 9.34267 10.1873C8.38136 11.5286 7.19651 12.6973 5.86284 13.6146C5.5576 13.8266 5.28213 13.8426 4.94713 13.6146C3.60586 12.6973 2.42101 11.5286 1.46794 10.1873C0.595921 8.97137 0.0671387 7.53675 0.0671387 5.99146ZM3.64322 6.16412C3.64322 7.19143 4.43291 7.9994 5.40119 7.9994C6.37009 7.9994 7.16738 7.19143 7.16738 6.16412C7.16738 5.14482 6.37009 4.29751 5.40119 4.29751C4.43291 4.29751 3.64322 5.14482 3.64322 6.16412Z" fill="#14142A"/>
</svg>
