<svg width="11" height="14" viewBox="0 0 11 14" fill="none" xmlns="http://www.w3.org/2000/svg">
<path fill-rule="evenodd" clip-rule="evenodd" d="M0.198059 5.87855C0.198059 2.81197 2.61209 0.333374 5.53211 0.333374C8.46036 0.333374 10.8744 2.81197 10.8744 5.87855C10.8744 7.42383 10.345 8.85846 9.47359 10.0744C8.51228 11.4157 7.32743 12.5844 5.99376 13.5017C5.68853 13.7137 5.41305 13.7297 5.07805 13.5017C3.73678 12.5844 2.55193 11.4157 1.59886 10.0744C0.726841 8.85846 0.198059 7.42383 0.198059 5.87855ZM3.77414 6.05121C3.77414 7.07851 4.56383 7.88649 5.53211 7.88649C6.50101 7.88649 7.2983 7.07851 7.2983 6.05121C7.2983 5.0319 6.50101 4.1846 5.53211 4.1846C4.56383 4.1846 3.77414 5.0319 3.77414 6.05121Z" fill="#14142A"/>
</svg>
