<svg width="12" height="14" viewBox="0 0 12 14" fill="none" xmlns="http://www.w3.org/2000/svg">
<path fill-rule="evenodd" clip-rule="evenodd" d="M0.333252 5.87818C0.333252 2.8116 2.89584 0.333008 5.99555 0.333008C9.104 0.333008 11.6666 2.8116 11.6666 5.87818C11.6666 7.42347 11.1046 8.85809 10.1796 10.0741C9.15912 11.4154 7.90136 12.584 6.48561 13.5013C6.16159 13.7133 5.86917 13.7293 5.51355 13.5013C4.08974 12.584 2.83198 11.4154 1.82025 10.0741C0.894574 8.85809 0.333252 7.42347 0.333252 5.87818ZM4.1294 6.05084C4.1294 7.07815 4.96769 7.88612 5.99555 7.88612C7.02408 7.88612 7.87043 7.07815 7.87043 6.05084C7.87043 5.03154 7.02408 4.18423 5.99555 4.18423C4.96769 4.18423 4.1294 5.03154 4.1294 6.05084Z" fill="#55B3FF"/>
</svg>
