<svg width="24" height="21" viewBox="0 0 24 21" fill="none" xmlns="http://www.w3.org/2000/svg">
<path d="M1.88686 8.08986C1.88686 6.27077 3.36153 4.79612 5.18062 4.79612V4.79612C6.28189 4.79612 7.3103 4.24573 7.92118 3.32941L7.95468 3.27916C8.58649 2.33145 9.65013 1.76221 10.7891 1.76221H13.2106C14.3497 1.76221 15.4133 2.33145 16.0451 3.27916L16.0786 3.32941C16.6895 4.24572 17.7179 4.79612 18.8192 4.79612V4.79612C20.6383 4.79612 22.1129 6.27078 22.1129 8.08987V15.9204C22.1129 18.1546 20.3018 19.9657 18.0677 19.9657H5.93207C3.69796 19.9657 1.88686 18.1546 1.88686 15.9204V8.08986Z" stroke="#4E4B66" stroke-width="2.02261" stroke-linecap="round" stroke-linejoin="round"/>
</svg>
