<svg width="55" height="49" viewBox="0 0 55 49" fill="none" xmlns="http://www.w3.org/2000/svg">
<path d="M2.91699 17.7566C2.91699 13.3347 6.50169 9.75 10.9236 9.75V9.75C13.6007 9.75 16.1006 8.41208 17.5856 6.18464L17.667 6.0625C19.2028 3.75875 21.7884 2.375 24.5571 2.375H30.4435C33.2123 2.375 35.7978 3.75875 37.3337 6.0625L37.4151 6.18464C38.9 8.41208 41.4 9.75 44.077 9.75V9.75C48.499 9.75 52.0837 13.3347 52.0837 17.7566V37.125C52.0837 42.3717 47.8304 46.625 42.5837 46.625H12.417C7.1703 46.625 2.91699 42.3717 2.91699 37.125V17.7566Z" stroke="#FCFCFC" stroke-width="4.75" stroke-linecap="round" stroke-linejoin="round"/>
</svg>
