<svg width="24" height="21" viewBox="0 0 24 21" fill="none" xmlns="http://www.w3.org/2000/svg">
<path d="M1.88684 8.09206C1.88684 6.27297 3.3615 4.79831 5.18059 4.79831V4.79831C6.28187 4.79831 7.31028 4.24792 7.92116 3.33161L7.95466 3.28136C8.58646 2.33365 9.65011 1.7644 10.7891 1.7644H13.2106C14.3496 1.7644 15.4133 2.33365 16.0451 3.28136L16.0786 3.3316C16.6895 4.24792 17.7179 4.79831 18.8191 4.79831V4.79831C20.6382 4.79831 22.1129 6.27298 22.1129 8.09206V15.9226C22.1129 18.1568 20.3018 19.9679 18.0677 19.9679H5.93205C3.69794 19.9679 1.88684 18.1568 1.88684 15.9226V8.09206Z" stroke="#4E4B66" stroke-width="2.02261" stroke-linecap="round" stroke-linejoin="round"/>
</svg>
