<svg width="24" height="21" viewBox="0 0 24 21" fill="none" xmlns="http://www.w3.org/2000/svg">
<path d="M1.88696 8.08986C1.88696 6.27077 3.36163 4.79612 5.18071 4.79612V4.79612C6.28199 4.79612 7.3104 4.24573 7.92128 3.32941L7.95478 3.27916C8.58659 2.33145 9.65023 1.76221 10.7892 1.76221H13.2107C14.3498 1.76221 15.4134 2.33145 16.0452 3.27916L16.0787 3.32941C16.6896 4.24572 17.718 4.79612 18.8193 4.79612V4.79612C20.6384 4.79612 22.113 6.27078 22.113 8.08987V15.9204C22.113 18.1546 20.3019 19.9657 18.0678 19.9657H5.93217C3.69806 19.9657 1.88696 18.1546 1.88696 15.9204V8.08986Z" stroke="#4E4B66" stroke-width="2.02261" stroke-linecap="round" stroke-linejoin="round"/>
</svg>
