<svg width="23" height="21" viewBox="0 0 23 21" fill="none" xmlns="http://www.w3.org/2000/svg">
<path d="M1.02271 7.36184C1.02271 5.54275 2.49737 4.06809 4.31646 4.06809V4.06809C5.41773 4.06809 6.44615 3.5177 7.05702 2.60138L7.09052 2.55113C7.72233 1.60343 8.78597 1.03418 9.92498 1.03418H12.3465C13.4855 1.03418 14.5491 1.60342 15.1809 2.55113L15.2144 2.60138C15.8253 3.5177 16.8537 4.06809 17.955 4.06809V4.06809C19.7741 4.06809 21.2488 5.54275 21.2488 7.36184V15.1924C21.2488 17.4265 19.4377 19.2376 17.2036 19.2376H5.06791C2.83381 19.2376 1.02271 17.4265 1.02271 15.1924V7.36184Z" stroke="#4E4B66" stroke-width="2.02261" stroke-linecap="round" stroke-linejoin="round"/>
</svg>
