<svg width="23" height="21" viewBox="0 0 23 21" fill="none" xmlns="http://www.w3.org/2000/svg">
<path d="M1.24332 8.09203C1.24332 6.27294 2.71798 4.79828 4.53707 4.79828V4.79828C5.63834 4.79828 6.66676 4.24789 7.27764 3.33158L7.31113 3.28133C7.94294 2.33362 9.00658 1.76437 10.1456 1.76437H12.5671C13.7061 1.76437 14.7697 2.33362 15.4016 3.28133L15.4351 3.33157C16.0459 4.24789 17.0743 4.79828 18.1756 4.79828V4.79828C19.9947 4.79828 21.4694 6.27295 21.4694 8.09203V15.9226C21.4694 18.1567 19.6583 19.9678 17.4242 19.9678H5.28853C3.05442 19.9678 1.24332 18.1567 1.24332 15.9226V8.09203Z" stroke="#4E4B66" stroke-width="2.02261" stroke-linecap="round" stroke-linejoin="round"/>
</svg>
