<svg width="55" height="49" viewBox="0 0 55 49" fill="none" xmlns="http://www.w3.org/2000/svg">
<path d="M2.91675 17.7566C2.91675 13.3347 6.50145 9.75 10.9234 9.75V9.75C13.6004 9.75 16.1004 8.41208 17.5853 6.18464L17.6667 6.0625C19.2026 3.75875 21.7881 2.375 24.5569 2.375H30.4433C33.212 2.375 35.7976 3.75875 37.3334 6.0625L37.4148 6.18464C38.8998 8.41208 41.3997 9.75 44.0768 9.75V9.75C48.4987 9.75 52.0834 13.3347 52.0834 17.7566V37.125C52.0834 42.3717 47.8301 46.625 42.5834 46.625H12.4168C7.17005 46.625 2.91675 42.3717 2.91675 37.125V17.7566Z" stroke="#FCFCFC" stroke-width="4.75" stroke-linecap="round" stroke-linejoin="round"/>
</svg>
