<svg width="23" height="21" viewBox="0 0 23 21" fill="none" xmlns="http://www.w3.org/2000/svg">
<path d="M1.02258 7.36159C1.02258 5.5425 2.49725 4.06784 4.31633 4.06784V4.06784C5.41761 4.06784 6.44602 3.51745 7.0569 2.60114L7.0904 2.55089C7.72221 1.60318 8.78585 1.03394 9.92485 1.03394H12.3464C13.4854 1.03394 14.549 1.60318 15.1808 2.55089L15.2143 2.60114C15.8252 3.51745 16.8536 4.06784 17.9549 4.06784V4.06784C19.774 4.06784 21.2486 5.54251 21.2486 7.3616V15.1922C21.2486 17.4263 19.4375 19.2374 17.2034 19.2374H5.06779C2.83368 19.2374 1.02258 17.4263 1.02258 15.1922V7.36159Z" stroke="#4E4B66" stroke-width="2.02261" stroke-linecap="round" stroke-linejoin="round"/>
</svg>
