<svg width="23" height="21" viewBox="0 0 23 21" fill="none" xmlns="http://www.w3.org/2000/svg">
<path d="M1.06555 8.09203C1.06555 6.27294 2.54021 4.79828 4.3593 4.79828V4.79828C5.46058 4.79828 6.48899 4.24789 7.09987 3.33158L7.13337 3.28133C7.76517 2.33362 8.82882 1.76437 9.96782 1.76437H12.3893C13.5283 1.76437 14.592 2.33362 15.2238 3.28133L15.2573 3.33157C15.8682 4.24789 16.8966 4.79828 17.9979 4.79828V4.79828C19.8169 4.79828 21.2916 6.27295 21.2916 8.09203V15.9226C21.2916 18.1567 19.4805 19.9678 17.2464 19.9678H5.11076C2.87665 19.9678 1.06555 18.1567 1.06555 15.9226V8.09203Z" stroke="#4E4B66" stroke-width="2.02261" stroke-linecap="round" stroke-linejoin="round"/>
</svg>
