<svg width="20" height="21" viewBox="0 0 20 21" fill="none" xmlns="http://www.w3.org/2000/svg">
<path fill-rule="evenodd" clip-rule="evenodd" d="M18.4023 12.2661C18.76 12.4517 19.036 12.7447 19.2301 13.0378C19.6083 13.6434 19.5776 14.3858 19.2097 15.0403L18.4943 16.2125C18.1162 16.8377 17.411 17.2285 16.6855 17.2285C16.3278 17.2285 15.9292 17.1308 15.6022 16.9354C15.3365 16.7693 15.0299 16.7107 14.7029 16.7107C13.6911 16.7107 12.8429 17.5215 12.8122 18.4886C12.8122 19.612 11.872 20.4911 10.6968 20.4911H9.30692C8.12145 20.4911 7.18125 19.612 7.18125 18.4886C7.16081 17.5215 6.31259 16.7107 5.30085 16.7107C4.96361 16.7107 4.65702 16.7693 4.40153 16.9354C4.0745 17.1308 3.66572 17.2285 3.31825 17.2285C2.58245 17.2285 1.87729 16.8377 1.49917 16.2125L0.79402 15.0403C0.415896 14.4054 0.395456 13.6434 0.773581 13.0378C0.937094 12.7447 1.24368 12.4517 1.59115 12.2661C1.87729 12.1293 2.06125 11.9046 2.23498 11.6409C2.74596 10.8008 2.43937 9.69693 1.57071 9.19874C0.55897 8.64193 0.231943 7.40133 0.814459 6.43424L1.49917 5.28156C2.09191 4.31447 3.35913 3.97258 4.38109 4.53915C5.27019 5.00804 6.425 4.69545 6.9462 3.86512C7.10972 3.5916 7.20169 3.29855 7.18125 3.00549C7.16081 2.62452 7.27323 2.26308 7.4674 1.97003C7.84553 1.36438 8.53024 0.973639 9.27627 0.954102H10.7172C11.4735 0.954102 12.1582 1.36438 12.5363 1.97003C12.7203 2.26308 12.8429 2.62452 12.8122 3.00549C12.7918 3.29855 12.8838 3.5916 13.0473 3.86512C13.5685 4.69545 14.7233 5.00804 15.6226 4.53915C16.6344 3.97258 17.9118 4.31447 18.4943 5.28156L19.179 6.43424C19.7718 7.40133 19.4447 8.64193 18.4228 9.19874C17.5541 9.69693 17.2475 10.8008 17.7687 11.6409C17.9322 11.9046 18.1162 12.1293 18.4023 12.2661ZM7.10972 10.7324C7.10972 12.2661 8.4076 13.4871 10.0121 13.4871C11.6165 13.4871 12.8838 12.2661 12.8838 10.7324C12.8838 9.19874 11.6165 7.9679 10.0121 7.9679C8.4076 7.9679 7.10972 9.19874 7.10972 10.7324Z" fill="#4E4B66"/>
</svg>
