<svg width="20" height="20" viewBox="0 0 20 20" fill="none" xmlns="http://www.w3.org/2000/svg">
<path fill-rule="evenodd" clip-rule="evenodd" d="M18.5097 11.5801C18.8674 11.7701 19.1433 12.0701 19.3375 12.3701C19.7156 12.9901 19.6849 13.7501 19.317 14.4201L18.6017 15.6201C18.2235 16.2601 17.5184 16.6601 16.7928 16.6601C16.4351 16.6601 16.0365 16.5601 15.7095 16.3601C15.4438 16.1901 15.1372 16.1301 14.8102 16.1301C13.7985 16.1301 12.9502 16.9601 12.9196 17.9501C12.9196 19.1001 11.9794 20.0001 10.8041 20.0001H9.41426C8.22878 20.0001 7.28858 19.1001 7.28858 17.9501C7.26814 16.9601 6.41992 16.1301 5.40818 16.1301C5.07094 16.1301 4.76435 16.1901 4.50886 16.3601C4.18183 16.5601 3.77305 16.6601 3.42558 16.6601C2.68978 16.6601 1.98462 16.2601 1.6065 15.6201L0.90135 14.4201C0.523226 13.7701 0.502787 12.9901 0.880911 12.3701C1.04442 12.0701 1.35101 11.7701 1.69848 11.5801C1.98462 11.4401 2.16858 11.2101 2.34231 10.9401C2.85329 10.0801 2.5467 8.95012 1.67804 8.44012C0.6663 7.87012 0.339274 6.60012 0.921789 5.61012L1.6065 4.43012C2.19924 3.44012 3.46646 3.09012 4.48842 3.67012C5.37752 4.15012 6.53234 3.83012 7.05353 2.98012C7.21705 2.70012 7.30902 2.40012 7.28858 2.10012C7.26814 1.71012 7.38056 1.34012 7.57473 1.04012C7.95286 0.420122 8.63757 0.0201221 9.3836 0.00012207H10.8246C11.5808 0.00012207 12.2655 0.420122 12.6436 1.04012C12.8276 1.34012 12.9502 1.71012 12.9196 2.10012C12.8991 2.40012 12.9911 2.70012 13.1546 2.98012C13.6758 3.83012 14.8306 4.15012 15.73 3.67012C16.7417 3.09012 18.0191 3.44012 18.6017 4.43012L19.2864 5.61012C19.8791 6.60012 19.5521 7.87012 18.5301 8.44012C17.6615 8.95012 17.3549 10.0801 17.8761 10.9401C18.0396 11.2101 18.2235 11.4401 18.5097 11.5801ZM7.21705 10.0101C7.21705 11.5801 8.51493 12.8301 10.1194 12.8301C11.7239 12.8301 12.9911 11.5801 12.9911 10.0101C12.9911 8.44012 11.7239 7.18012 10.1194 7.18012C8.51493 7.18012 7.21705 8.44012 7.21705 10.0101Z" fill="#4E4B66"/>
</svg>
