<svg width="20" height="20" viewBox="0 0 20 20" fill="none" xmlns="http://www.w3.org/2000/svg">
<path fill-rule="evenodd" clip-rule="evenodd" d="M18.5096 11.5801C18.8673 11.7701 19.1433 12.0701 19.3374 12.3701C19.7156 12.9901 19.6849 13.7501 19.317 14.4201L18.6016 15.6201C18.2235 16.2601 17.5183 16.6601 16.7928 16.6601C16.4351 16.6601 16.0365 16.5601 15.7095 16.3601C15.4438 16.1901 15.1372 16.1301 14.8102 16.1301C13.7984 16.1301 12.9502 16.9601 12.9195 17.9501C12.9195 19.1001 11.9793 20.0001 10.8041 20.0001H9.41422C8.22875 20.0001 7.28855 19.1001 7.28855 17.9501C7.26811 16.9601 6.41989 16.1301 5.40815 16.1301C5.07091 16.1301 4.76432 16.1901 4.50883 16.3601C4.1818 16.5601 3.77302 16.6601 3.42555 16.6601C2.68974 16.6601 1.98459 16.2601 1.60647 15.6201L0.90132 14.4201C0.523195 13.7701 0.502756 12.9901 0.88088 12.3701C1.04439 12.0701 1.35098 11.7701 1.69845 11.5801C1.98459 11.4401 2.16855 11.2101 2.34228 10.9401C2.85326 10.0801 2.54667 8.95012 1.67801 8.44012C0.666269 7.87012 0.339243 6.60012 0.921759 5.61012L1.60647 4.43012C2.19921 3.44012 3.46643 3.09012 4.48839 3.67012C5.37749 4.15012 6.5323 3.83012 7.0535 2.98012C7.21702 2.70012 7.30899 2.40012 7.28855 2.10012C7.26811 1.71012 7.38053 1.34012 7.5747 1.04012C7.95283 0.420122 8.63754 0.0201221 9.38357 0.00012207H10.8245C11.5808 0.00012207 12.2655 0.420122 12.6436 1.04012C12.8276 1.34012 12.9502 1.71012 12.9195 2.10012C12.8991 2.40012 12.9911 2.70012 13.1546 2.98012C13.6758 3.83012 14.8306 4.15012 15.7299 3.67012C16.7417 3.09012 18.0191 3.44012 18.6016 4.43012L19.2863 5.61012C19.8791 6.60012 19.552 7.87012 18.5301 8.44012C17.6614 8.95012 17.3548 10.0801 17.876 10.9401C18.0395 11.2101 18.2235 11.4401 18.5096 11.5801ZM7.21702 10.0101C7.21702 11.5801 8.5149 12.8301 10.1194 12.8301C11.7238 12.8301 12.9911 11.5801 12.9911 10.0101C12.9911 8.44012 11.7238 7.18012 10.1194 7.18012C8.5149 7.18012 7.21702 8.44012 7.21702 10.0101Z" fill="#4E4B66"/>
</svg>
