<svg width="29" height="30" viewBox="0 0 29 30" fill="none" xmlns="http://www.w3.org/2000/svg">
<path fill-rule="evenodd" clip-rule="evenodd" d="M8.76044 8.92806V9.37499H6.94657C6.4062 9.37499 5.94758 9.77131 5.86924 10.306L5.60501 12.1094C5.08902 15.6309 5.08902 19.2089 5.60501 22.7305C5.83621 24.3085 7.10864 25.5284 8.69493 25.6929L9.45481 25.7717C12.8093 26.1196 16.1907 26.1196 19.5452 25.7717L20.3051 25.6929C21.8914 25.5284 23.1638 24.3085 23.395 22.7305C23.911 19.2089 23.911 15.631 23.395 12.1094L23.1308 10.306C23.0525 9.77131 22.5938 9.37499 22.0535 9.37499H20.2396V8.92806C20.2396 6.3087 18.4662 4.02164 15.9294 3.36931C14.9917 3.1282 14.0083 3.1282 13.0706 3.36931C10.5338 4.02164 8.76044 6.3087 8.76044 8.92806ZM15.478 5.12471C14.8365 4.95973 14.1636 4.95973 13.522 5.12471C11.7863 5.57104 10.5729 7.13587 10.5729 8.92806V9.37499H18.4271V8.92806C18.4271 7.13587 17.2137 5.57104 15.478 5.12471ZM10.5729 11.1875C10.5729 10.687 10.1672 10.2812 9.66669 10.2812C9.16618 10.2812 8.76044 10.687 8.76044 11.1875V13.6042C8.76044 14.1047 9.16618 14.5104 9.66669 14.5104C10.1672 14.5104 10.5729 14.1047 10.5729 13.6042V11.1875ZM20.2396 11.1875C20.2396 10.687 19.8339 10.2812 19.3334 10.2812C18.8328 10.2812 18.4271 10.687 18.4271 11.1875V13.6042C18.4271 14.1047 18.8328 14.5104 19.3334 14.5104C19.8339 14.5104 20.2396 14.1047 20.2396 13.6042V11.1875Z" fill="#CFD1DE"/>
</svg>
