<svg width="29" height="30" viewBox="0 0 29 30" fill="none" xmlns="http://www.w3.org/2000/svg">
<path fill-rule="evenodd" clip-rule="evenodd" d="M8.76019 8.92806V9.37499H6.94633C6.40595 9.37499 5.94733 9.77131 5.86899 10.306L5.60476 12.1094C5.08878 15.6309 5.08878 19.2089 5.60476 22.7305C5.83596 24.3085 7.10839 25.5284 8.69468 25.6929L9.45457 25.7717C12.809 26.1196 16.1905 26.1196 19.545 25.7717L20.3049 25.6929C21.8911 25.5284 23.1636 24.3085 23.3948 22.7305C23.9108 19.2089 23.9108 15.631 23.3948 12.1094L23.1305 10.306C23.0522 9.77131 22.5936 9.37499 22.0532 9.37499H20.2394V8.92806C20.2394 6.3087 18.466 4.02164 15.9292 3.36931C14.9915 3.1282 14.0081 3.1282 13.0704 3.36931C10.5336 4.02164 8.76019 6.3087 8.76019 8.92806ZM15.4778 5.12471C14.8362 4.95973 14.1633 4.95973 13.5218 5.12471C11.786 5.57104 10.5727 7.13587 10.5727 8.92806V9.37499H18.4269V8.92806C18.4269 7.13587 17.2135 5.57104 15.4778 5.12471ZM10.5727 11.1875C10.5727 10.687 10.1669 10.2812 9.66644 10.2812C9.16593 10.2812 8.76019 10.687 8.76019 11.1875V13.6042C8.76019 14.1047 9.16593 14.5104 9.66644 14.5104C10.1669 14.5104 10.5727 14.1047 10.5727 13.6042V11.1875ZM20.2394 11.1875C20.2394 10.687 19.8336 10.2812 19.3331 10.2812C18.8326 10.2812 18.4269 10.687 18.4269 11.1875V13.6042C18.4269 14.1047 18.8326 14.5104 19.3331 14.5104C19.8336 14.5104 20.2394 14.1047 20.2394 13.6042V11.1875Z" fill="#55B3FF"/>
</svg>
