<svg width="12" height="11" viewBox="0 0 12 11" fill="none" xmlns="http://www.w3.org/2000/svg">
<path d="M4.91808 1.04033C5.21744 0.11902 6.52085 0.119021 6.8202 1.04033L7.44074 2.95016C7.57461 3.36219 7.95857 3.64115 8.3918 3.64115H10.3999C11.3686 3.64115 11.7714 4.88076 10.9877 5.45016L9.3631 6.6305C9.01261 6.88515 8.86595 7.33651 8.99982 7.74854L9.62037 9.65836C9.91972 10.5797 8.86524 11.3458 8.08152 10.7764L6.45693 9.59606C6.10644 9.34142 5.63184 9.34142 5.28136 9.59606L3.65676 10.7764C2.87304 11.3458 1.81856 10.5797 2.11792 9.65837L2.73846 7.74854C2.87233 7.33651 2.72567 6.88515 2.37519 6.6305L0.750585 5.45016C-0.0331283 4.88076 0.369649 3.64115 1.33837 3.64115H3.34649C3.77971 3.64115 4.16367 3.36219 4.29754 2.95016L4.91808 1.04033Z" fill="#FCFCFC"/>
</svg>
