<svg width="11" height="11" viewBox="0 0 11 11" fill="none" xmlns="http://www.w3.org/2000/svg">
<path d="M5.31452 1.41648C5.50542 0.828929 6.33665 0.828929 6.52756 1.41648L7.28124 3.73609C7.36662 3.99885 7.61148 4.17675 7.88776 4.17675H10.3267C10.9445 4.17675 11.2014 4.9673 10.7016 5.33042L8.72842 6.76402C8.5049 6.92642 8.41137 7.21427 8.49675 7.47703L9.25044 9.79664C9.44134 10.3842 8.76887 10.8728 8.26907 10.5096L6.29589 9.07605C6.07237 8.91365 5.7697 8.91365 5.54619 9.07605L3.57301 10.5096C3.07321 10.8728 2.40073 10.3842 2.59164 9.79664L3.34533 7.47703C3.4307 7.21427 3.33717 6.92642 3.11366 6.76402L1.14048 5.33042C0.640676 4.9673 0.897539 4.17675 1.51532 4.17675H3.95431C4.23059 4.17675 4.47545 3.99885 4.56083 3.73609L5.31452 1.41648Z" fill="#FFD600"/>
</svg>
