<svg width="11" height="11" viewBox="0 0 11 11" fill="none" xmlns="http://www.w3.org/2000/svg">
<path d="M4.60846 1.41648C4.79937 0.828929 5.6306 0.828929 5.8215 1.41648L6.57519 3.73609C6.66057 3.99885 6.90543 4.17675 7.18171 4.17675H9.6207C10.2385 4.17675 10.4953 4.9673 9.99554 5.33042L8.02236 6.76402C7.79885 6.92642 7.70532 7.21427 7.79069 7.47703L8.54438 9.79664C8.73529 10.3842 8.06281 10.8728 7.56301 10.5096L5.58983 9.07605C5.36631 8.91365 5.06365 8.91365 4.84013 9.07605L2.86695 10.5096C2.36715 10.8728 1.69468 10.3842 1.88558 9.79664L2.63927 7.47703C2.72465 7.21427 2.63112 6.92642 2.4076 6.76402L0.434421 5.33042C-0.0653784 4.9673 0.191484 4.17675 0.80927 4.17675H3.24826C3.52454 4.17675 3.7694 3.99885 3.85478 3.73609L4.60846 1.41648Z" fill="#FFD600"/>
</svg>
