<svg width="11" height="11" viewBox="0 0 11 11" fill="none" xmlns="http://www.w3.org/2000/svg">
<path d="M5.31476 1.21628C5.50567 0.628734 6.33689 0.628734 6.5278 1.21628L7.28149 3.5359C7.36686 3.79866 7.61173 3.97656 7.88801 3.97656H10.327C10.9448 3.97656 11.2016 4.7671 10.7018 5.13023L8.72866 6.56383C8.50514 6.72622 8.41162 7.01407 8.49699 7.27683L9.25068 9.59645C9.44159 10.184 8.76911 10.6726 8.26931 10.3095L6.29613 8.87585C6.07261 8.71346 5.76995 8.71346 5.54643 8.87585L3.57325 10.3095C3.07345 10.6726 2.40098 10.184 2.59188 9.59645L3.34557 7.27683C3.43095 7.01407 3.33742 6.72622 3.1139 6.56383L1.14072 5.13023C0.64092 4.7671 0.897783 3.97656 1.51557 3.97656H3.95456C4.23084 3.97656 4.4757 3.79866 4.56107 3.5359L5.31476 1.21628Z" fill="#FFD600"/>
</svg>
