<svg width="11" height="11" viewBox="0 0 11 11" fill="none" xmlns="http://www.w3.org/2000/svg">
<path d="M4.60859 1.21628C4.79949 0.628734 5.63072 0.628734 5.82162 1.21628L6.57531 3.5359C6.66069 3.79866 6.90555 3.97656 7.18183 3.97656H9.62082C10.2386 3.97656 10.4955 4.7671 9.99567 5.13023L8.02248 6.56383C7.79897 6.72622 7.70544 7.01407 7.79082 7.27683L8.5445 9.59645C8.73541 10.184 8.06293 10.6726 7.56314 10.3095L5.58995 8.87585C5.36644 8.71346 5.06377 8.71346 4.84026 8.87585L2.86707 10.3095C2.36727 10.6726 1.6948 10.184 1.88571 9.59645L2.63939 7.27683C2.72477 7.01407 2.63124 6.72622 2.40772 6.56383L0.434543 5.13023C-0.0652564 4.7671 0.191606 3.97656 0.809392 3.97656H3.24838C3.52466 3.97656 3.76952 3.79866 3.8549 3.5359L4.60859 1.21628Z" fill="#FFD600"/>
</svg>
