<svg width="11" height="11" viewBox="0 0 11 11" fill="none" xmlns="http://www.w3.org/2000/svg">
<path d="M4.85395 1.31589C5.04485 0.728343 5.87608 0.728343 6.06698 1.31589L6.82067 3.63551C6.90605 3.89827 7.15091 4.07617 7.42719 4.07617H9.86618C10.484 4.07617 10.7408 4.86671 10.241 5.22984L8.26785 6.66344C8.04433 6.82583 7.9508 7.11368 8.03618 7.37644L8.78987 9.69606C8.98077 10.2836 8.3083 10.7722 7.8085 10.4091L5.83532 8.97546C5.6118 8.81307 5.30913 8.81307 5.08562 8.97546L3.11244 10.4091C2.61264 10.7722 1.94016 10.2836 2.13107 9.69606L2.88476 7.37644C2.97013 7.11368 2.8766 6.82583 2.65309 6.66344L0.679904 5.22984C0.180105 4.86671 0.436968 4.07617 1.05475 4.07617H3.49374C3.77002 4.07617 4.01488 3.89827 4.10026 3.63551L4.85395 1.31589Z" fill="#FFD600"/>
</svg>
