<svg width="11" height="10" viewBox="0 0 11 10" fill="none" xmlns="http://www.w3.org/2000/svg">
<path d="M4.70697 0.516088C4.89788 -0.0714616 5.72911 -0.0714617 5.92001 0.516087L6.6737 2.8357C6.75908 3.09846 7.00394 3.27636 7.28022 3.27636H9.71921C10.337 3.27636 10.5939 4.06691 10.0941 4.43003L8.12087 5.86363C7.89736 6.02603 7.80383 6.31388 7.8892 6.57664L8.64289 8.89625C8.8338 9.4838 8.16132 9.97238 7.66152 9.60926L5.68834 8.17566C5.46483 8.01326 5.16216 8.01326 4.93864 8.17566L2.96546 9.60926C2.46566 9.97238 1.79319 9.4838 1.98409 8.89625L2.73778 6.57664C2.82316 6.31388 2.72963 6.02603 2.50611 5.86363L0.532931 4.43003C0.0331323 4.06691 0.289995 3.27636 0.907781 3.27636H3.34677C3.62305 3.27636 3.86791 3.09846 3.95329 2.8357L4.70697 0.516088Z" fill="#FFD600"/>
</svg>
