<svg width="11" height="11" viewBox="0 0 11 11" fill="none" xmlns="http://www.w3.org/2000/svg">
<path d="M4.46161 1.1157C4.65252 0.528148 5.48374 0.528148 5.67465 1.1157L6.42834 3.43531C6.51371 3.69807 6.75858 3.87597 7.03486 3.87597H9.47384C10.0916 3.87597 10.3485 4.66651 9.84869 5.02964L7.87551 6.46324C7.65199 6.62564 7.55847 6.91349 7.64384 7.17625L8.39753 9.49586C8.58844 10.0834 7.91596 10.572 7.41616 10.2089L5.44298 8.77527C5.21946 8.61287 4.9168 8.61287 4.69328 8.77527L2.7201 10.2089C2.2203 10.572 1.54783 10.0834 1.73873 9.49586L2.49242 7.17625C2.5778 6.91349 2.48427 6.62563 2.26075 6.46324L0.28757 5.02964C-0.212229 4.66651 0.0446337 3.87597 0.66242 3.87597H3.10141C3.37769 3.87597 3.62255 3.69807 3.70792 3.43531L4.46161 1.1157Z" fill="#FFD600"/>
</svg>
