<svg width="11" height="11" viewBox="0 0 11 11" fill="none" xmlns="http://www.w3.org/2000/svg">
<path d="M5.31464 1.1157C5.50555 0.528148 6.33677 0.528148 6.52768 1.1157L7.28137 3.43531C7.36674 3.69807 7.6116 3.87597 7.88789 3.87597H10.3269C10.9447 3.87597 11.2015 4.66651 10.7017 5.02964L8.72854 6.46324C8.50502 6.62564 8.41149 6.91349 8.49687 7.17625L9.25056 9.49586C9.44146 10.0834 8.76899 10.572 8.26919 10.2089L6.29601 8.77527C6.07249 8.61287 5.76983 8.61287 5.54631 8.77527L3.57313 10.2089C3.07333 10.572 2.40085 10.0834 2.59176 9.49586L3.34545 7.17625C3.43082 6.91349 3.3373 6.62563 3.11378 6.46324L1.1406 5.02964C0.640798 4.66651 0.897661 3.87597 1.51545 3.87597H3.95443C4.23072 3.87597 4.47558 3.69807 4.56095 3.43531L5.31464 1.1157Z" fill="#FFD600"/>
</svg>
