<svg width="11" height="11" viewBox="0 0 11 11" fill="none" xmlns="http://www.w3.org/2000/svg">
<path d="M4.60846 1.1157C4.79937 0.528148 5.6306 0.528148 5.8215 1.1157L6.57519 3.43531C6.66057 3.69807 6.90543 3.87597 7.18171 3.87597H9.6207C10.2385 3.87597 10.4953 4.66651 9.99554 5.02964L8.02236 6.46324C7.79885 6.62564 7.70532 6.91349 7.79069 7.17625L8.54438 9.49586C8.73529 10.0834 8.06281 10.572 7.56301 10.2089L5.58983 8.77527C5.36631 8.61287 5.06365 8.61287 4.84013 8.77527L2.86695 10.2089C2.36715 10.572 1.69468 10.0834 1.88558 9.49586L2.63927 7.17625C2.72465 6.91349 2.63112 6.62563 2.4076 6.46324L0.434421 5.02964C-0.0653784 4.66651 0.191484 3.87597 0.80927 3.87597H3.24826C3.52454 3.87597 3.7694 3.69807 3.85478 3.43531L4.60846 1.1157Z" fill="#C4C4C4"/>
</svg>
