<svg width="11" height="11" viewBox="0 0 11 11" fill="none" xmlns="http://www.w3.org/2000/svg">
<path d="M5.31452 1.31589C5.50542 0.728343 6.33665 0.728343 6.52756 1.31589L7.28124 3.63551C7.36662 3.89827 7.61148 4.07617 7.88776 4.07617H10.3267C10.9445 4.07617 11.2014 4.86671 10.7016 5.22984L8.72842 6.66344C8.5049 6.82583 8.41137 7.11368 8.49675 7.37644L9.25044 9.69606C9.44134 10.2836 8.76887 10.7722 8.26907 10.4091L6.29589 8.97546C6.07237 8.81307 5.7697 8.81307 5.54619 8.97546L3.57301 10.4091C3.07321 10.7722 2.40073 10.2836 2.59164 9.69606L3.34533 7.37644C3.4307 7.11368 3.33717 6.82583 3.11366 6.66344L1.14048 5.22984C0.640676 4.86671 0.897539 4.07617 1.51532 4.07617H3.95431C4.23059 4.07617 4.47545 3.89827 4.56083 3.63551L5.31452 1.31589Z" fill="#FFD600"/>
</svg>
