<svg width="11" height="10" viewBox="0 0 11 10" fill="none" xmlns="http://www.w3.org/2000/svg">
<path d="M4.85395 0.516088C5.04485 -0.0714616 5.87608 -0.0714617 6.06698 0.516087L6.82067 2.8357C6.90605 3.09846 7.15091 3.27636 7.42719 3.27636H9.86618C10.484 3.27636 10.7408 4.06691 10.241 4.43003L8.26785 5.86363C8.04433 6.02603 7.9508 6.31388 8.03618 6.57664L8.78987 8.89625C8.98077 9.4838 8.3083 9.97238 7.8085 9.60926L5.83532 8.17566C5.6118 8.01326 5.30913 8.01326 5.08562 8.17566L3.11244 9.60926C2.61264 9.97238 1.94016 9.4838 2.13107 8.89625L2.88476 6.57664C2.97013 6.31388 2.8766 6.02603 2.65309 5.86363L0.679904 4.43003C0.180105 4.06691 0.436968 3.27636 1.05475 3.27636H3.49374C3.77002 3.27636 4.01488 3.09846 4.10026 2.8357L4.85395 0.516088Z" fill="#FFD600"/>
</svg>
