<svg width="11" height="11" viewBox="0 0 11 11" fill="none" xmlns="http://www.w3.org/2000/svg">
<path d="M4.85395 1.41648C5.04485 0.828929 5.87608 0.828929 6.06698 1.41648L6.82067 3.73609C6.90605 3.99885 7.15091 4.17675 7.42719 4.17675H9.86618C10.484 4.17675 10.7408 4.9673 10.241 5.33042L8.26785 6.76402C8.04433 6.92642 7.9508 7.21427 8.03618 7.47703L8.78987 9.79664C8.98077 10.3842 8.3083 10.8728 7.8085 10.5096L5.83532 9.07605C5.6118 8.91365 5.30913 8.91365 5.08562 9.07605L3.11244 10.5096C2.61264 10.8728 1.94016 10.3842 2.13107 9.79664L2.88476 7.47703C2.97013 7.21427 2.8766 6.92642 2.65309 6.76402L0.679904 5.33042C0.180105 4.9673 0.436968 4.17675 1.05475 4.17675H3.49374C3.77002 4.17675 4.01488 3.99885 4.10026 3.73609L4.85395 1.41648Z" fill="#FFD600"/>
</svg>
