<svg width="11" height="11" viewBox="0 0 11 11" fill="none" xmlns="http://www.w3.org/2000/svg">
<path d="M4.7071 1.21628C4.898 0.628734 5.72923 0.628734 5.92013 1.21628L6.67382 3.5359C6.7592 3.79866 7.00406 3.97656 7.28034 3.97656H9.71933C10.3371 3.97656 10.594 4.7671 10.0942 5.13023L8.121 6.56383C7.89748 6.72622 7.80395 7.01407 7.88933 7.27683L8.64301 9.59645C8.83392 10.184 8.16145 10.6726 7.66165 10.3095L5.68846 8.87585C5.46495 8.71346 5.16228 8.71346 4.93877 8.87585L2.96558 10.3095C2.46579 10.6726 1.79331 10.184 1.98422 9.59645L2.73791 7.27683C2.82328 7.01407 2.72975 6.72622 2.50624 6.56383L0.533054 5.13023C0.0332544 4.7671 0.290117 3.97656 0.907903 3.97656H3.34689C3.62317 3.97656 3.86803 3.79866 3.95341 3.5359L4.7071 1.21628Z" fill="#FFD600"/>
</svg>
