<svg width="11" height="11" viewBox="0 0 11 11" fill="none" xmlns="http://www.w3.org/2000/svg">
<path d="M4.46173 1.21628C4.65264 0.628734 5.48387 0.628734 5.67477 1.21628L6.42846 3.5359C6.51384 3.79866 6.7587 3.97656 7.03498 3.97656H9.47397C10.0918 3.97656 10.3486 4.7671 9.84882 5.13023L7.87563 6.56383C7.65212 6.72622 7.55859 7.01407 7.64396 7.27683L8.39765 9.59645C8.58856 10.184 7.91608 10.6726 7.41628 10.3095L5.4431 8.87585C5.21959 8.71346 4.91692 8.71346 4.6934 8.87585L2.72022 10.3095C2.22042 10.6726 1.54795 10.184 1.73885 9.59645L2.49254 7.27683C2.57792 7.01407 2.48439 6.72622 2.26087 6.56383L0.287692 5.13023C-0.212107 4.7671 0.0447558 3.97656 0.662542 3.97656H3.10153C3.37781 3.97656 3.62267 3.79866 3.70805 3.5359L4.46173 1.21628Z" fill="#FFD600"/>
</svg>
