<svg width="11" height="11" viewBox="0 0 11 11" fill="none" xmlns="http://www.w3.org/2000/svg">
<path d="M4.85395 1.1157C5.04485 0.528148 5.87608 0.528148 6.06698 1.1157L6.82067 3.43531C6.90605 3.69807 7.15091 3.87597 7.42719 3.87597H9.86618C10.484 3.87597 10.7408 4.66651 10.241 5.02964L8.26785 6.46324C8.04433 6.62564 7.9508 6.91349 8.03618 7.17625L8.78987 9.49586C8.98077 10.0834 8.3083 10.572 7.8085 10.2089L5.83532 8.77527C5.6118 8.61287 5.30913 8.61287 5.08562 8.77527L3.11244 10.2089C2.61264 10.572 1.94016 10.0834 2.13107 9.49586L2.88476 7.17625C2.97013 6.91349 2.8766 6.62563 2.65309 6.46324L0.679904 5.02964C0.180105 4.66651 0.436968 3.87597 1.05475 3.87597H3.49374C3.77002 3.87597 4.01488 3.69807 4.10026 3.43531L4.85395 1.1157Z" fill="#FFD600"/>
</svg>
