<svg width="11" height="11" viewBox="0 0 11 11" fill="none" xmlns="http://www.w3.org/2000/svg">
<path d="M4.60846 1.31589C4.79937 0.728343 5.6306 0.728343 5.8215 1.31589L6.57519 3.63551C6.66057 3.89827 6.90543 4.07617 7.18171 4.07617H9.6207C10.2385 4.07617 10.4953 4.86671 9.99554 5.22984L8.02236 6.66344C7.79885 6.82583 7.70532 7.11368 7.79069 7.37644L8.54438 9.69606C8.73529 10.2836 8.06281 10.7722 7.56301 10.4091L5.58983 8.97546C5.36631 8.81307 5.06365 8.81307 4.84013 8.97546L2.86695 10.4091C2.36715 10.7722 1.69468 10.2836 1.88558 9.69606L2.63927 7.37644C2.72465 7.11368 2.63112 6.82583 2.4076 6.66344L0.434421 5.22984C-0.0653784 4.86671 0.191484 4.07617 0.80927 4.07617H3.24826C3.52454 4.07617 3.7694 3.89827 3.85478 3.63551L4.60846 1.31589Z" fill="#C4C4C4"/>
</svg>
