<svg width="11" height="11" viewBox="0 0 11 11" fill="none" xmlns="http://www.w3.org/2000/svg">
<path d="M4.70685 1.41648C4.89776 0.828929 5.72898 0.828929 5.91989 1.41648L6.67358 3.73609C6.75895 3.99885 7.00382 4.17675 7.2801 4.17675H9.71908C10.3369 4.17675 10.5937 4.9673 10.0939 5.33042L8.12075 6.76402C7.89723 6.92642 7.80371 7.21427 7.88908 7.47703L8.64277 9.79664C8.83368 10.3842 8.1612 10.8728 7.6614 10.5096L5.68822 9.07605C5.4647 8.91365 5.16204 8.91365 4.93852 9.07605L2.96534 10.5096C2.46554 10.8728 1.79307 10.3842 1.98397 9.79664L2.73766 7.47703C2.82304 7.21427 2.72951 6.92642 2.50599 6.76402L0.532809 5.33042C0.0330102 4.9673 0.289873 4.17675 0.907659 4.17675H3.34665C3.62293 4.17675 3.86779 3.99885 3.95316 3.73609L4.70685 1.41648Z" fill="#FFD600"/>
</svg>
