<svg width="11" height="11" viewBox="0 0 11 11" fill="none" xmlns="http://www.w3.org/2000/svg">
<path d="M4.46149 1.41648C4.6524 0.828929 5.48362 0.828929 5.67453 1.41648L6.42822 3.73609C6.51359 3.99885 6.75845 4.17675 7.03474 4.17675H9.47372C10.0915 4.17675 10.3484 4.9673 9.84857 5.33042L7.87539 6.76402C7.65187 6.92642 7.55834 7.21427 7.64372 7.47703L8.39741 9.79664C8.58832 10.3842 7.91584 10.8728 7.41604 10.5096L5.44286 9.07605C5.21934 8.91365 4.91668 8.91365 4.69316 9.07605L2.71998 10.5096C2.22018 10.8728 1.5477 10.3842 1.73861 9.79664L2.4923 7.47703C2.57768 7.21427 2.48415 6.92642 2.26063 6.76402L0.287448 5.33042C-0.212351 4.9673 0.0445117 4.17675 0.662297 4.17675H3.10128C3.37757 4.17675 3.62243 3.99885 3.7078 3.73609L4.46149 1.41648Z" fill="#FFD600"/>
</svg>
