<svg width="14" height="13" viewBox="0 0 14 13" fill="none" xmlns="http://www.w3.org/2000/svg">
<path d="M5.73189 0.799807C6.07086 -0.243442 7.54678 -0.243442 7.88576 0.799806L8.58843 2.96241C8.74002 3.42896 9.17479 3.74484 9.66536 3.74484H11.9393C13.0362 3.74484 13.4923 5.14853 12.6048 5.79329L10.7652 7.12985C10.3683 7.4182 10.2023 7.92931 10.3539 8.39586L11.0565 10.5585C11.3955 11.6017 10.2015 12.4692 9.31402 11.8245L7.4744 10.4879C7.07753 10.1996 6.54012 10.1996 6.14324 10.4879L4.30362 11.8245C3.41618 12.4692 2.22214 11.6017 2.56111 10.5585L3.26378 8.39586C3.41538 7.92931 3.24931 7.4182 2.85243 7.12985L1.01281 5.79329C0.125374 5.14853 0.581458 3.74484 1.67839 3.74484H3.95229C4.44285 3.74484 4.87763 3.42896 5.02922 2.96241L5.73189 0.799807Z" fill="#FCFCFC"/>
</svg>
