<svg width="11" height="10" viewBox="0 0 11 10" fill="none" xmlns="http://www.w3.org/2000/svg">
<path d="M4.60846 0.516088C4.79937 -0.0714616 5.6306 -0.0714617 5.8215 0.516087L6.57519 2.8357C6.66057 3.09846 6.90543 3.27636 7.18171 3.27636H9.6207C10.2385 3.27636 10.4953 4.06691 9.99554 4.43003L8.02236 5.86363C7.79885 6.02603 7.70532 6.31388 7.79069 6.57664L8.54438 8.89625C8.73529 9.4838 8.06281 9.97238 7.56301 9.60926L5.58983 8.17566C5.36631 8.01326 5.06365 8.01326 4.84013 8.17566L2.86695 9.60926C2.36715 9.97238 1.69468 9.4838 1.88558 8.89625L2.63927 6.57664C2.72465 6.31388 2.63112 6.02603 2.4076 5.86363L0.434421 4.43003C-0.0653784 4.06691 0.191484 3.27636 0.80927 3.27636H3.24826C3.52454 3.27636 3.7694 3.09846 3.85478 2.8357L4.60846 0.516088Z" fill="#FFD600"/>
</svg>
