<svg width="11" height="10" viewBox="0 0 11 10" fill="none" xmlns="http://www.w3.org/2000/svg">
<path d="M5.31464 0.516088C5.50555 -0.0714616 6.33677 -0.0714617 6.52768 0.516087L7.28137 2.8357C7.36674 3.09846 7.6116 3.27636 7.88789 3.27636H10.3269C10.9447 3.27636 11.2015 4.06691 10.7017 4.43003L8.72854 5.86363C8.50502 6.02603 8.41149 6.31388 8.49687 6.57664L9.25056 8.89625C9.44146 9.4838 8.76899 9.97238 8.26919 9.60926L6.29601 8.17566C6.07249 8.01326 5.76983 8.01326 5.54631 8.17566L3.57313 9.60926C3.07333 9.97238 2.40085 9.4838 2.59176 8.89625L3.34545 6.57664C3.43082 6.31388 3.3373 6.02603 3.11378 5.86363L1.1406 4.43003C0.640798 4.06691 0.897661 3.27636 1.51545 3.27636H3.95443C4.23072 3.27636 4.47558 3.09846 4.56095 2.8357L5.31464 0.516088Z" fill="#FFD600"/>
</svg>
