<svg width="11" height="11" viewBox="0 0 11 11" fill="none" xmlns="http://www.w3.org/2000/svg">
<path d="M4.85407 1.21628C5.04498 0.628734 5.8762 0.628734 6.06711 1.21628L6.8208 3.5359C6.90617 3.79866 7.15103 3.97656 7.42731 3.97656H9.8663C10.4841 3.97656 10.7409 4.7671 10.2411 5.13023L8.26797 6.56383C8.04445 6.72622 7.95092 7.01407 8.0363 7.27683L8.78999 9.59645C8.98089 10.184 8.30842 10.6726 7.80862 10.3095L5.83544 8.87585C5.61192 8.71346 5.30926 8.71346 5.08574 8.87585L3.11256 10.3095C2.61276 10.6726 1.94028 10.184 2.13119 9.59645L2.88488 7.27683C2.97025 7.01407 2.87672 6.72622 2.65321 6.56383L0.680026 5.13023C0.180227 4.7671 0.43709 3.97656 1.05488 3.97656H3.49386C3.77014 3.97656 4.015 3.79866 4.10038 3.5359L4.85407 1.21628Z" fill="#FFD600"/>
</svg>
