<svg width="11" height="10" viewBox="0 0 11 10" fill="none" xmlns="http://www.w3.org/2000/svg">
<path d="M4.46161 0.516088C4.65252 -0.0714616 5.48374 -0.0714617 5.67465 0.516087L6.42834 2.8357C6.51371 3.09846 6.75858 3.27636 7.03486 3.27636H9.47384C10.0916 3.27636 10.3485 4.06691 9.84869 4.43003L7.87551 5.86363C7.65199 6.02603 7.55847 6.31388 7.64384 6.57664L8.39753 8.89625C8.58844 9.4838 7.91596 9.97238 7.41616 9.60926L5.44298 8.17566C5.21946 8.01326 4.9168 8.01326 4.69328 8.17566L2.7201 9.60926C2.2203 9.97238 1.54783 9.4838 1.73873 8.89625L2.49242 6.57664C2.5778 6.31388 2.48427 6.02603 2.26075 5.86363L0.28757 4.43003C-0.212229 4.06691 0.0446337 3.27636 0.66242 3.27636H3.10141C3.37769 3.27636 3.62255 3.09846 3.70792 2.8357L4.46161 0.516088Z" fill="#FFD600"/>
</svg>
