<svg width="11" height="11" viewBox="0 0 11 11" fill="none" xmlns="http://www.w3.org/2000/svg">
<path d="M4.70685 1.31589C4.89776 0.728343 5.72898 0.728343 5.91989 1.31589L6.67358 3.63551C6.75895 3.89827 7.00382 4.07617 7.2801 4.07617H9.71908C10.3369 4.07617 10.5937 4.86671 10.0939 5.22984L8.12075 6.66344C7.89723 6.82583 7.80371 7.11368 7.88908 7.37644L8.64277 9.69606C8.83368 10.2836 8.1612 10.7722 7.6614 10.4091L5.68822 8.97546C5.4647 8.81307 5.16204 8.81307 4.93852 8.97546L2.96534 10.4091C2.46554 10.7722 1.79307 10.2836 1.98397 9.69606L2.73766 7.37644C2.82304 7.11368 2.72951 6.82583 2.50599 6.66344L0.532809 5.22984C0.0330102 4.86671 0.289873 4.07617 0.907659 4.07617H3.34665C3.62293 4.07617 3.86779 3.89827 3.95316 3.63551L4.70685 1.31589Z" fill="#FFD600"/>
</svg>
