<svg width="11" height="11" viewBox="0 0 11 11" fill="none" xmlns="http://www.w3.org/2000/svg">
<path d="M4.70697 1.1157C4.89788 0.528148 5.72911 0.528148 5.92001 1.1157L6.6737 3.43531C6.75908 3.69807 7.00394 3.87597 7.28022 3.87597H9.71921C10.337 3.87597 10.5939 4.66651 10.0941 5.02964L8.12087 6.46324C7.89736 6.62564 7.80383 6.91349 7.8892 7.17625L8.64289 9.49586C8.8338 10.0834 8.16132 10.572 7.66152 10.2089L5.68834 8.77527C5.46483 8.61287 5.16216 8.61287 4.93864 8.77527L2.96546 10.2089C2.46566 10.572 1.79319 10.0834 1.98409 9.49586L2.73778 7.17625C2.82316 6.91349 2.72963 6.62563 2.50611 6.46324L0.532931 5.02964C0.0331323 4.66651 0.289995 3.87597 0.907781 3.87597H3.34677C3.62305 3.87597 3.86791 3.69807 3.95329 3.43531L4.70697 1.1157Z" fill="#FFD600"/>
</svg>
