<svg width="11" height="11" viewBox="0 0 11 11" fill="none" xmlns="http://www.w3.org/2000/svg">
<path d="M4.46149 1.31589C4.6524 0.728343 5.48362 0.728343 5.67453 1.31589L6.42822 3.63551C6.51359 3.89827 6.75845 4.07617 7.03474 4.07617H9.47372C10.0915 4.07617 10.3484 4.86671 9.84857 5.22984L7.87539 6.66344C7.65187 6.82583 7.55834 7.11368 7.64372 7.37644L8.39741 9.69606C8.58832 10.2836 7.91584 10.7722 7.41604 10.4091L5.44286 8.97546C5.21934 8.81307 4.91668 8.81307 4.69316 8.97546L2.71998 10.4091C2.22018 10.7722 1.5477 10.2836 1.73861 9.69606L2.4923 7.37644C2.57768 7.11368 2.48415 6.82583 2.26063 6.66344L0.287448 5.22984C-0.212351 4.86671 0.0445117 4.07617 0.662297 4.07617H3.10128C3.37757 4.07617 3.62243 3.89827 3.7078 3.63551L4.46149 1.31589Z" fill="#FFD600"/>
</svg>
