<svg width="14" height="13" viewBox="0 0 14 13" fill="none" xmlns="http://www.w3.org/2000/svg">
<path d="M5.73189 0.79883C6.07086 -0.244419 7.54678 -0.244419 7.88576 0.79883L8.58843 2.96143C8.74002 3.42799 9.17479 3.74387 9.66536 3.74387H11.9393C13.0362 3.74387 13.4923 5.14755 12.6048 5.79231L10.7652 7.12887C10.3683 7.41722 10.2023 7.92833 10.3539 8.39488L11.0565 10.5575C11.3955 11.6007 10.2015 12.4683 9.31402 11.8235L7.4744 10.4869C7.07753 10.1986 6.54012 10.1986 6.14324 10.4869L4.30362 11.8235C3.41618 12.4683 2.22214 11.6007 2.56111 10.5575L3.26378 8.39488C3.41538 7.92833 3.24931 7.41722 2.85243 7.12887L1.01281 5.79231C0.125374 5.14755 0.581458 3.74387 1.67839 3.74387H3.95229C4.44285 3.74387 4.87763 3.42799 5.02922 2.96143L5.73189 0.79883Z" fill="#FCFCFC"/>
</svg>
