<svg width="10" height="10" viewBox="0 0 10 10" fill="none" xmlns="http://www.w3.org/2000/svg">
<path fill-rule="evenodd" clip-rule="evenodd" d="M5.36914 9.11328C7.85442 9.11328 9.86914 7.09856 9.86914 4.61328C9.86914 2.128 7.85442 0.113281 5.36914 0.113281C2.88386 0.113281 0.869141 2.128 0.869141 4.61328C0.869141 7.09856 2.88386 9.11328 5.36914 9.11328ZM7.49847 3.90928C7.66192 3.74583 7.66192 3.48082 7.49847 3.31737C7.33501 3.15391 7.07 3.15391 6.90655 3.31737L4.88145 5.34246L4.01688 4.47789C3.85343 4.31444 3.58842 4.31444 3.42496 4.47789C3.26151 4.64135 3.26151 4.90636 3.42496 5.06981L4.58549 6.23034C4.66399 6.30884 4.77045 6.35293 4.88145 6.35293C4.99246 6.35293 5.09892 6.30884 5.17741 6.23034L7.49847 3.90928Z" fill="#55B3FF"/>
</svg>
