<svg width="9" height="9" viewBox="0 0 9 9" fill="none" xmlns="http://www.w3.org/2000/svg">
<path fill-rule="evenodd" clip-rule="evenodd" d="M4.5 9C6.98528 9 9 6.98528 9 4.5C9 2.01472 6.98528 0 4.5 0C2.01472 0 0 2.01472 0 4.5C0 6.98528 2.01472 9 4.5 9ZM6.62994 3.79596C6.7934 3.63251 6.7934 3.36749 6.62994 3.20404C6.46649 3.04059 6.20148 3.04059 6.03802 3.20404L4.01293 5.22914L3.14836 4.36457C2.98491 4.20112 2.71989 4.20112 2.55644 4.36457C2.39299 4.52802 2.39299 4.79303 2.55644 4.95649L3.71697 6.11702C3.79546 6.19551 3.90192 6.23961 4.01293 6.23961C4.12393 6.23961 4.23039 6.19551 4.30889 6.11702L6.62994 3.79596Z" fill="#55B3FF"/>
</svg>
