<svg width="9" height="9" viewBox="0 0 9 9" fill="none" xmlns="http://www.w3.org/2000/svg">
<path fill-rule="evenodd" clip-rule="evenodd" d="M4.5 9C6.98528 9 9 6.98528 9 4.5C9 2.01472 6.98528 0 4.5 0C2.01472 0 0 2.01472 0 4.5C0 6.98528 2.01472 9 4.5 9ZM6.62933 3.796C6.79278 3.63255 6.79278 3.36754 6.62933 3.20409C6.46587 3.04063 6.20086 3.04063 6.03741 3.20409L4.01231 5.22918L3.14774 4.36461C2.98429 4.20116 2.71928 4.20116 2.55582 4.36461C2.39237 4.52807 2.39237 4.79308 2.55582 4.95653L3.71635 6.11706C3.79485 6.19555 3.90131 6.23965 4.01231 6.23965C4.12332 6.23965 4.22978 6.19555 4.30827 6.11706L6.62933 3.796Z" fill="#55B3FF"/>
</svg>
