<svg width="38" height="36" viewBox="0 0 38 36" fill="none" xmlns="http://www.w3.org/2000/svg">
<path fill-rule="evenodd" clip-rule="evenodd" d="M10.9382 0.732178C8.70697 0.732178 6.8982 2.54095 6.8982 4.77218V18.9382C6.8982 21.1695 8.70697 22.9782 10.9382 22.9782H27.0616C29.2928 22.9782 31.1016 21.1695 31.1016 18.9382V8.72287C31.1016 6.49164 29.2928 4.68287 27.0616 4.68287H10.4122C9.85457 4.68287 9.4025 4.2308 9.4025 3.67314C9.4025 3.60758 9.39625 3.54348 9.38432 3.48141C9.75485 3.03584 10.3134 2.75218 10.9382 2.75218H28.0955C28.6533 2.75218 29.1055 2.29999 29.1055 1.74218C29.1055 1.18437 28.6533 0.732178 28.0955 0.732178H10.9382ZM8.9182 18.9382V6.30949C9.35909 6.55988 9.86896 6.70287 10.4122 6.70287H27.0616C28.1772 6.70287 29.0816 7.60726 29.0816 8.72287V18.9382C29.0816 20.0539 28.1772 20.9582 27.0616 20.9582H10.9382C9.82258 20.9582 8.9182 20.0539 8.9182 18.9382Z" fill="#CFD1DE"/>
<path fill-rule="evenodd" clip-rule="evenodd" d="M0.783997 28.4245V35.6973H3.41184C3.98475 35.6973 4.44995 35.612 4.80743 35.4416C5.16492 35.2711 5.42652 35.0403 5.59224 34.7491C5.75795 34.4579 5.84081 34.13 5.84081 33.7654C5.84081 33.3819 5.76506 33.0576 5.61354 32.7924C5.46203 32.5273 5.27382 32.3237 5.04891 32.1816C4.82401 32.0396 4.60028 31.9615 4.37775 31.9473V31.8762C4.58608 31.8194 4.77903 31.7318 4.95658 31.6134C5.13651 31.4951 5.28092 31.3341 5.38982 31.1305C5.50109 30.9269 5.55672 30.6688 5.55672 30.3563C5.55672 30.0012 5.47623 29.6781 5.31525 29.3869C5.15426 29.0933 4.90923 28.8601 4.58016 28.6873C4.25109 28.5121 3.83324 28.4245 3.32661 28.4245H0.783997ZM3.41184 34.916H1.66468V32.3876H3.45445C3.77169 32.3876 4.04631 32.4515 4.27831 32.5794C4.51032 32.7048 4.68906 32.8729 4.81454 33.0836C4.94001 33.292 5.00275 33.5192 5.00275 33.7654C5.00275 34.085 4.88082 34.3573 4.63698 34.5822C4.3955 34.8047 3.98712 34.916 3.41184 34.916ZM3.2982 31.6206H1.66468V29.2058H3.32661C3.80956 29.2058 4.16231 29.3182 4.38485 29.5431C4.60739 29.7657 4.71866 30.0367 4.71866 30.3563C4.71866 30.612 4.65474 30.8346 4.52689 31.024C4.40142 31.2134 4.23097 31.3601 4.01553 31.4643C3.80246 31.5685 3.56335 31.6206 3.2982 31.6206Z" fill="#CFD1DE"/>
<path d="M7.17427 30.2427V35.6973H8.01233V30.2427H7.17427Z" fill="#CFD1DE"/>
<path d="M7.17782 29.1667C7.29619 29.278 7.43705 29.3336 7.6004 29.3336C7.76375 29.3336 7.90343 29.278 8.01944 29.1667C8.13781 29.0554 8.19699 28.9217 8.19699 28.7654C8.19699 28.6092 8.13781 28.4754 8.01944 28.3642C7.90343 28.2529 7.76375 28.1973 7.6004 28.1973C7.43705 28.1973 7.29619 28.2529 7.17782 28.3642C7.06181 28.4754 7.00381 28.6092 7.00381 28.7654C7.00381 28.9217 7.06181 29.0554 7.17782 29.1667Z" fill="#CFD1DE"/>
<path d="M10.3854 35.6973V28.4245H9.54731V35.6973H10.3854Z" fill="#CFD1DE"/>
<path d="M12.7584 35.6973V28.4245H11.9204V35.6973H12.7584Z" fill="#CFD1DE"/>
<path fill-rule="evenodd" clip-rule="evenodd" d="M15.2203 35.4629C15.6014 35.6949 16.0548 35.8109 16.5803 35.8109C16.9497 35.8109 17.2823 35.7541 17.5782 35.6404C17.8741 35.5244 18.1227 35.3634 18.3239 35.1575C18.5252 34.9492 18.6684 34.7077 18.7536 34.4331L17.944 34.2058C17.873 34.3952 17.7723 34.5538 17.6421 34.6816C17.5119 34.8071 17.3569 34.9018 17.1769 34.9657C16.9994 35.0273 16.8005 35.0581 16.5803 35.0581C16.2418 35.0581 15.9447 34.9847 15.689 34.8379C15.4333 34.6887 15.2333 34.4721 15.0889 34.188C14.9601 33.9283 14.8897 33.617 14.8776 33.2541H18.8389V32.899C18.8389 32.39 18.7714 31.9615 18.6364 31.6134C18.5015 31.2654 18.3204 30.9861 18.0931 30.7754C17.8659 30.5623 17.6137 30.4084 17.3367 30.3137C17.0597 30.219 16.7792 30.1717 16.4951 30.1717C16.0027 30.1717 15.5718 30.2924 15.2025 30.5339C14.8355 30.773 14.5491 31.1068 14.3431 31.5353C14.1395 31.9615 14.0377 32.4539 14.0377 33.0126C14.0377 33.5713 14.1395 34.0614 14.3431 34.4828C14.5491 34.9018 14.8415 35.2285 15.2203 35.4629ZM14.8798 32.5296C14.8957 32.2766 14.9595 32.0375 15.0711 31.8123C15.2013 31.5495 15.3872 31.3365 15.6286 31.1731C15.8725 31.0074 16.1613 30.9245 16.4951 30.9245C16.7981 30.9245 17.0609 30.9944 17.2835 31.134C17.5084 31.2737 17.6812 31.4643 17.8019 31.7058C17.925 31.9473 17.9866 32.2219 17.9866 32.5296H14.8798Z" fill="#CFD1DE"/>
<path d="M22.4859 30.9529V30.2427H21.3211V28.9359H20.483V30.2427H19.6592V30.9529H20.483V34.362C20.483 34.6793 20.5564 34.942 20.7032 35.1504C20.8524 35.3587 21.0394 35.5138 21.2643 35.6156C21.4916 35.7174 21.7236 35.7683 21.9603 35.7683C22.1166 35.7683 22.2456 35.7564 22.3474 35.7328C22.4492 35.7115 22.5285 35.6902 22.5853 35.6688L22.4149 34.916L22.2728 34.9444C22.2136 34.9539 22.1379 34.9586 22.0455 34.9586C21.9224 34.9586 21.8052 34.9397 21.694 34.9018C21.5851 34.8616 21.4951 34.7834 21.4241 34.6674C21.3554 34.5491 21.3211 34.3715 21.3211 34.1348V30.9529H22.4859Z" fill="#CFD1DE"/>
<path fill-rule="evenodd" clip-rule="evenodd" d="M24.6148 35.4629C24.9959 35.6949 25.4493 35.8109 25.9749 35.8109C26.3442 35.8109 26.6768 35.7541 26.9727 35.6404C27.2687 35.5244 27.5172 35.3634 27.7185 35.1575C27.9197 34.9492 28.0629 34.7077 28.1482 34.4331L27.3385 34.2058C27.2675 34.3952 27.1669 34.5538 27.0367 34.6816C26.9065 34.8071 26.7514 34.9018 26.5715 34.9657C26.3939 35.0273 26.195 35.0581 25.9749 35.0581C25.6363 35.0581 25.3392 34.9847 25.0835 34.8379C24.8279 34.6887 24.6278 34.4721 24.4834 34.188C24.3546 33.9283 24.2842 33.617 24.2722 33.2541H28.2334V32.899C28.2334 32.39 28.1659 31.9615 28.031 31.6134C27.896 31.2654 27.7149 30.9861 27.4877 30.7754C27.2604 30.5623 27.0083 30.4084 26.7313 30.3137C26.4543 30.219 26.1737 30.1717 25.8896 30.1717C25.3972 30.1717 24.9663 30.2924 24.597 30.5339C24.2301 30.773 23.9436 31.1068 23.7377 31.5353C23.5341 31.9615 23.4323 32.4539 23.4323 33.0126C23.4323 33.5713 23.5341 34.0614 23.7377 34.4828C23.9436 34.9018 24.236 35.2285 24.6148 35.4629ZM24.2743 32.5296C24.2903 32.2766 24.3541 32.0375 24.4656 31.8123C24.5958 31.5495 24.7817 31.3365 25.0232 31.1731C25.267 31.0074 25.5558 30.9245 25.8896 30.9245C26.1927 30.9245 26.4555 30.9944 26.678 31.134C26.9029 31.2737 27.0757 31.4643 27.1965 31.7058C27.3196 31.9473 27.3811 32.2219 27.3811 32.5296H24.2743Z" fill="#CFD1DE"/>
<path d="M29.5083 30.2427V35.6973H30.3463V32.2456C30.3463 31.9993 30.4055 31.7804 30.5239 31.5886C30.6446 31.3945 30.808 31.2429 31.0139 31.134C31.2223 31.0228 31.459 30.9671 31.7242 30.9671C31.8354 30.9671 31.9408 30.9754 32.0402 30.992C32.142 31.0062 32.2071 31.0169 32.2355 31.024V30.1717C32.1882 30.167 32.1183 30.1634 32.026 30.161C31.9337 30.1587 31.8567 30.1575 31.7952 30.1575C31.4685 30.1575 31.1749 30.2415 30.9145 30.4096C30.6541 30.5777 30.4742 30.7967 30.3747 31.0666H30.3179V30.2427H29.5083Z" fill="#CFD1DE"/>
<path fill-rule="evenodd" clip-rule="evenodd" d="M33.893 35.6298C34.1747 35.76 34.4884 35.8251 34.8341 35.8251C35.1513 35.8251 35.42 35.7777 35.6402 35.6831C35.8603 35.5884 36.0367 35.4735 36.1693 35.3386C36.3019 35.2036 36.3966 35.077 36.4534 34.9586H36.496V35.6973H37.3341V32.1035C37.3341 31.6703 37.263 31.3246 37.121 31.0666C36.979 30.8085 36.8002 30.6156 36.5848 30.4877C36.3717 30.3599 36.1504 30.2759 35.9207 30.2356C35.6934 30.193 35.4922 30.1717 35.317 30.1717C35.0424 30.1717 34.763 30.2096 34.479 30.2853C34.1972 30.3587 33.9368 30.4889 33.6977 30.6759C33.461 30.8606 33.2716 31.1187 33.1295 31.4501L33.925 31.7342C34.0173 31.5353 34.1771 31.3483 34.4044 31.1731C34.6317 30.9979 34.9453 30.9103 35.3454 30.9103C35.7313 30.9103 36.019 31.0074 36.2084 31.2015C36.4001 31.3956 36.496 31.6679 36.496 32.0183V32.0467C36.496 32.1816 36.4475 32.2763 36.3504 32.3308C36.2557 32.3852 36.1042 32.4243 35.8959 32.448C35.6899 32.4693 35.4212 32.5012 35.0898 32.5438C34.8364 32.577 34.5843 32.622 34.3334 32.6788C34.0848 32.7332 33.8575 32.8161 33.6515 32.9274C33.4456 33.0386 33.281 33.1925 33.1579 33.389C33.0348 33.5831 32.9733 33.8365 32.9733 34.149C32.9733 34.5041 33.0561 34.8071 33.2219 35.0581C33.3876 35.3066 33.6113 35.4972 33.893 35.6298ZM35.8 34.8769C35.5727 35.0072 35.2934 35.0723 34.9619 35.0723C34.6281 35.0723 34.3523 34.9989 34.1345 34.8521C33.9191 34.7029 33.8113 34.4828 33.8113 34.1916C33.8113 33.9785 33.8682 33.8104 33.9818 33.6873C34.0978 33.5618 34.2493 33.4683 34.4363 33.4068C34.6257 33.3429 34.8293 33.2967 35.0471 33.2683C35.1371 33.2564 35.2543 33.2422 35.3987 33.2257C35.5455 33.2067 35.6958 33.1854 35.8497 33.1617C36.0059 33.1357 36.1433 33.1061 36.2616 33.073C36.3824 33.0375 36.4605 32.9984 36.496 32.9558V33.7228C36.496 33.9501 36.4368 34.1667 36.3184 34.3727C36.2024 34.5786 36.0296 34.7467 35.8 34.8769Z" fill="#CFD1DE"/>
</svg>
