<svg width="38" height="36" viewBox="0 0 38 36" fill="none" xmlns="http://www.w3.org/2000/svg">
<path fill-rule="evenodd" clip-rule="evenodd" d="M11.0456 0.732178C8.81439 0.732178 7.00562 2.54095 7.00562 4.77218V18.9382C7.00562 21.1695 8.81439 22.9782 11.0456 22.9782H27.169C29.4003 22.9782 31.209 21.1695 31.209 18.9382V8.72287C31.209 6.49164 29.4003 4.68287 27.169 4.68287H10.5197C9.96199 4.68287 9.50992 4.2308 9.50992 3.67314C9.50992 3.60758 9.50367 3.54348 9.49174 3.48141C9.86228 3.03584 10.4208 2.75218 11.0456 2.75218H28.2029C28.7608 2.75218 29.2129 2.29999 29.2129 1.74218C29.2129 1.18437 28.7608 0.732178 28.2029 0.732178H11.0456ZM9.02562 18.9382V6.30949C9.46651 6.55988 9.97639 6.70287 10.5197 6.70287H27.169C28.2846 6.70287 29.189 7.60726 29.189 8.72287V18.9382C29.189 20.0539 28.2847 20.9582 27.169 20.9582H11.0456C9.93001 20.9582 9.02562 20.0539 9.02562 18.9382Z" fill="#CFD1DE"/>
<path fill-rule="evenodd" clip-rule="evenodd" d="M0.891418 28.4245V35.6973H3.51926C4.09218 35.6973 4.55737 35.612 4.91486 35.4416C5.27234 35.2711 5.53394 35.0403 5.69966 34.7491C5.86538 34.4579 5.94824 34.13 5.94824 33.7654C5.94824 33.3819 5.87248 33.0576 5.72096 32.7924C5.56945 32.5273 5.38124 32.3237 5.15633 32.1816C4.93143 32.0396 4.70771 31.9615 4.48517 31.9473V31.8762C4.6935 31.8194 4.88645 31.7318 5.064 31.6134C5.24393 31.4951 5.38834 31.3341 5.49724 31.1305C5.60851 30.9269 5.66415 30.6688 5.66415 30.3563C5.66415 30.0012 5.58365 29.6781 5.42267 29.3869C5.26168 29.0933 5.01666 28.8601 4.68758 28.6873C4.35851 28.5121 3.94066 28.4245 3.43403 28.4245H0.891418ZM3.51926 34.916H1.7721V32.3876H3.56187C3.87911 32.3876 4.15373 32.4515 4.38574 32.5794C4.61774 32.7048 4.79648 32.8729 4.92196 33.0836C5.04743 33.292 5.11017 33.5192 5.11017 33.7654C5.11017 34.085 4.98825 34.3573 4.7444 34.5822C4.50292 34.8047 4.09454 34.916 3.51926 34.916ZM3.40562 31.6206H1.7721V29.2058H3.43403C3.91699 29.2058 4.26973 29.3182 4.49227 29.5431C4.71481 29.7657 4.82608 30.0367 4.82608 30.3563C4.82608 30.612 4.76216 30.8346 4.63432 31.024C4.50884 31.2134 4.33839 31.3601 4.12295 31.4643C3.90988 31.5685 3.67077 31.6206 3.40562 31.6206Z" fill="#CFD1DE"/>
<path d="M7.28169 30.2427V35.6973H8.11976V30.2427H7.28169Z" fill="#CFD1DE"/>
<path d="M7.28524 29.1667C7.40361 29.278 7.54447 29.3336 7.70782 29.3336C7.87118 29.3336 8.01085 29.278 8.12686 29.1667C8.24523 29.0554 8.30442 28.9217 8.30442 28.7654C8.30442 28.6092 8.24523 28.4754 8.12686 28.3642C8.01085 28.2529 7.87118 28.1973 7.70782 28.1973C7.54447 28.1973 7.40361 28.2529 7.28524 28.3642C7.16924 28.4754 7.11123 28.6092 7.11123 28.7654C7.11123 28.9217 7.16924 29.0554 7.28524 29.1667Z" fill="#CFD1DE"/>
<path d="M10.4928 35.6973V28.4245H9.65473V35.6973H10.4928Z" fill="#CFD1DE"/>
<path d="M12.8659 35.6973V28.4245H12.0278V35.6973H12.8659Z" fill="#CFD1DE"/>
<path fill-rule="evenodd" clip-rule="evenodd" d="M15.3277 35.4629C15.7088 35.6949 16.1622 35.8109 16.6878 35.8109C17.0571 35.8109 17.3897 35.7541 17.6856 35.6404C17.9816 35.5244 18.2301 35.3634 18.4314 35.1575C18.6326 34.9492 18.7758 34.7077 18.8611 34.4331L18.0514 34.2058C17.9804 34.3952 17.8798 34.5538 17.7495 34.6816C17.6193 34.8071 17.4643 34.9018 17.2844 34.9657C17.1068 35.0273 16.9079 35.0581 16.6878 35.0581C16.3492 35.0581 16.0521 34.9847 15.7964 34.8379C15.5407 34.6887 15.3407 34.4721 15.1963 34.188C15.0675 33.9283 14.9971 33.617 14.9851 33.2541H18.9463V32.899C18.9463 32.39 18.8788 31.9615 18.7439 31.6134C18.6089 31.2654 18.4278 30.9861 18.2005 30.7754C17.9733 30.5623 17.7211 30.4084 17.4442 30.3137C17.1672 30.219 16.8866 30.1717 16.6025 30.1717C16.1101 30.1717 15.6792 30.2924 15.3099 30.5339C14.943 30.773 14.6565 31.1068 14.4505 31.5353C14.2469 31.9615 14.1451 32.4539 14.1451 33.0126C14.1451 33.5713 14.2469 34.0614 14.4505 34.4828C14.6565 34.9018 14.9489 35.2285 15.3277 35.4629ZM14.9872 32.5296C15.0032 32.2766 15.0669 32.0375 15.1785 31.8123C15.3087 31.5495 15.4946 31.3365 15.7361 31.1731C15.9799 31.0074 16.2687 30.9245 16.6025 30.9245C16.9056 30.9245 17.1683 30.9944 17.3909 31.134C17.6158 31.2737 17.7886 31.4643 17.9094 31.7058C18.0325 31.9473 18.094 32.2219 18.094 32.5296H14.9872Z" fill="#CFD1DE"/>
<path d="M22.5933 30.9529V30.2427H21.4285V28.9359H20.5905V30.2427H19.7666V30.9529H20.5905V34.362C20.5905 34.6793 20.6638 34.942 20.8106 35.1504C20.9598 35.3587 21.1468 35.5138 21.3717 35.6156C21.599 35.7174 21.831 35.7683 22.0677 35.7683C22.224 35.7683 22.353 35.7564 22.4548 35.7328C22.5566 35.7115 22.6359 35.6902 22.6927 35.6688L22.5223 34.916L22.3802 34.9444C22.321 34.9539 22.2453 34.9586 22.153 34.9586C22.0299 34.9586 21.9127 34.9397 21.8014 34.9018C21.6925 34.8616 21.6025 34.7834 21.5315 34.6674C21.4629 34.5491 21.4285 34.3715 21.4285 34.1348V30.9529H22.5933Z" fill="#CFD1DE"/>
<path fill-rule="evenodd" clip-rule="evenodd" d="M24.7222 35.4629C25.1034 35.6949 25.5567 35.8109 26.0823 35.8109C26.4516 35.8109 26.7842 35.7541 27.0802 35.6404C27.3761 35.5244 27.6247 35.3634 27.8259 35.1575C28.0271 34.9492 28.1704 34.7077 28.2556 34.4331L27.4459 34.2058C27.3749 34.3952 27.2743 34.5538 27.1441 34.6816C27.0139 34.8071 26.8588 34.9018 26.6789 34.9657C26.5013 35.0273 26.3025 35.0581 26.0823 35.0581C25.7437 35.0581 25.4466 34.9847 25.191 34.8379C24.9353 34.6887 24.7352 34.4721 24.5908 34.188C24.462 33.9283 24.3916 33.617 24.3796 33.2541H28.3408V32.899C28.3408 32.39 28.2733 31.9615 28.1384 31.6134C28.0035 31.2654 27.8223 30.9861 27.5951 30.7754C27.3678 30.5623 27.1157 30.4084 26.8387 30.3137C26.5617 30.219 26.2812 30.1717 25.9971 30.1717C25.5046 30.1717 25.0738 30.2924 24.7045 30.5339C24.3375 30.773 24.051 31.1068 23.8451 31.5353C23.6415 31.9615 23.5397 32.4539 23.5397 33.0126C23.5397 33.5713 23.6415 34.0614 23.8451 34.4828C24.051 34.9018 24.3434 35.2285 24.7222 35.4629ZM24.3817 32.5296C24.3977 32.2766 24.4615 32.0375 24.5731 31.8123C24.7033 31.5495 24.8891 31.3365 25.1306 31.1731C25.3744 31.0074 25.6633 30.9245 25.9971 30.9245C26.3001 30.9245 26.5629 30.9944 26.7854 31.134C27.0103 31.2737 27.1831 31.4643 27.3039 31.7058C27.427 31.9473 27.4885 32.2219 27.4885 32.5296H24.3817Z" fill="#CFD1DE"/>
<path d="M29.6157 30.2427V35.6973H30.4537V32.2456C30.4537 31.9993 30.5129 31.7804 30.6313 31.5886C30.752 31.3945 30.9154 31.2429 31.1214 31.134C31.3297 31.0228 31.5664 30.9671 31.8316 30.9671C31.9429 30.9671 32.0482 30.9754 32.1476 30.992C32.2494 31.0062 32.3145 31.0169 32.3429 31.024V30.1717C32.2956 30.167 32.2258 30.1634 32.1334 30.161C32.0411 30.1587 31.9642 30.1575 31.9026 30.1575C31.5759 30.1575 31.2823 30.2415 31.0219 30.4096C30.7615 30.5777 30.5816 30.7967 30.4821 31.0666H30.4253V30.2427H29.6157Z" fill="#CFD1DE"/>
<path fill-rule="evenodd" clip-rule="evenodd" d="M34.0004 35.6298C34.2822 35.76 34.5958 35.8251 34.9415 35.8251C35.2587 35.8251 35.5274 35.7777 35.7476 35.6831C35.9678 35.5884 36.1441 35.4735 36.2767 35.3386C36.4093 35.2036 36.504 35.077 36.5608 34.9586H36.6034V35.6973H37.4415V32.1035C37.4415 31.6703 37.3705 31.3246 37.2284 31.0666C37.0864 30.8085 36.9076 30.6156 36.6922 30.4877C36.4791 30.3599 36.2578 30.2759 36.0281 30.2356C35.8009 30.193 35.5996 30.1717 35.4244 30.1717C35.1498 30.1717 34.8705 30.2096 34.5864 30.2853C34.3047 30.3587 34.0442 30.4889 33.8051 30.6759C33.5684 30.8606 33.379 31.1187 33.2369 31.4501L34.0324 31.7342C34.1247 31.5353 34.2845 31.3483 34.5118 31.1731C34.7391 30.9979 35.0528 30.9103 35.4529 30.9103C35.8387 30.9103 36.1264 31.0074 36.3158 31.2015C36.5075 31.3956 36.6034 31.6679 36.6034 32.0183V32.0467C36.6034 32.1816 36.5549 32.2763 36.4578 32.3308C36.3631 32.3852 36.2116 32.4243 36.0033 32.448C35.7973 32.4693 35.5286 32.5012 35.1972 32.5438C34.9439 32.577 34.6917 32.622 34.4408 32.6788C34.1922 32.7332 33.9649 32.8161 33.759 32.9274C33.553 33.0386 33.3885 33.1925 33.2654 33.389C33.1423 33.5831 33.0807 33.8365 33.0807 34.149C33.0807 34.5041 33.1636 34.8071 33.3293 35.0581C33.495 35.3066 33.7187 35.4972 34.0004 35.6298ZM35.9074 34.8769C35.6801 35.0072 35.4008 35.0723 35.0693 35.0723C34.7355 35.0723 34.4597 34.9989 34.2419 34.8521C34.0265 34.7029 33.9188 34.4828 33.9188 34.1916C33.9188 33.9785 33.9756 33.8104 34.0892 33.6873C34.2052 33.5618 34.3567 33.4683 34.5438 33.4068C34.7332 33.3429 34.9368 33.2967 35.1546 33.2683C35.2445 33.2564 35.3617 33.2422 35.5061 33.2257C35.6529 33.2067 35.8032 33.1854 35.9571 33.1617C36.1134 33.1357 36.2507 33.1061 36.369 33.073C36.4898 33.0375 36.5679 32.9984 36.6034 32.9558V33.7228C36.6034 33.9501 36.5442 34.1667 36.4259 34.3727C36.3099 34.5786 36.137 34.7467 35.9074 34.8769Z" fill="#CFD1DE"/>
</svg>
