<svg width="27" height="38" viewBox="0 0 27 38" fill="none" xmlns="http://www.w3.org/2000/svg">
<path fill-rule="evenodd" clip-rule="evenodd" d="M14.1681 0.196962C13.8114 -0.0656538 13.3254 -0.0656538 12.9688 0.196962L4.0769 6.74462C3.05023 7.50062 2.4441 8.69968 2.4441 9.97468V20.76C2.4441 22.6992 4.01616 24.2713 5.9554 24.2713H9.53452C10.6453 24.2713 11.5458 23.3708 11.5458 22.26V16.6865H15.591V22.26C15.591 23.3708 16.4915 24.2713 17.6023 24.2713H21.1815C23.1207 24.2713 24.6928 22.6992 24.6928 20.76V9.97468C24.6928 8.69968 24.0866 7.50062 23.06 6.74462L14.1681 0.196962ZM5.27621 8.3733L13.5684 2.26721L21.8607 8.3733C22.3697 8.74811 22.6702 9.34257 22.6702 9.97468V20.76C22.6702 21.5821 22.0036 22.2487 21.1815 22.2487H17.6136V16.1752C17.6136 15.3405 16.937 14.6639 16.1023 14.6639H11.0345C10.1999 14.6639 9.52322 15.3405 9.52322 16.1752V22.2487H5.9554C5.13322 22.2487 4.4667 21.5821 4.4667 20.76V9.97468C4.4667 9.34257 4.76721 8.74811 5.27621 8.3733Z" fill="#CFD1DE"/>
<path d="M0.507812 29.7273V37H1.3885V33.7472H5.26634V37H6.14702V29.7273H5.26634V32.9659H1.3885V29.7273H0.507812Z" fill="#CFD1DE"/>
<path fill-rule="evenodd" clip-rule="evenodd" d="M8.71627 36.7621C9.08795 36.9964 9.52001 37.1136 10.0124 37.1136C10.5049 37.1136 10.9357 36.9964 11.305 36.7621C11.6767 36.5277 11.9656 36.1998 12.1715 35.7784C12.3799 35.357 12.484 34.8646 12.484 34.3011C12.484 33.733 12.3799 33.237 12.1715 32.8132C11.9656 32.3894 11.6767 32.0604 11.305 31.826C10.9357 31.5916 10.5049 31.4744 10.0124 31.4744C9.52001 31.4744 9.08795 31.5916 8.71627 31.826C8.34695 32.0604 8.05812 32.3894 7.84979 32.8132C7.64382 33.237 7.54084 33.733 7.54084 34.3011C7.54084 34.8646 7.64382 35.357 7.84979 35.7784C8.05812 36.1998 8.34695 36.5277 8.71627 36.7621ZM10.9357 36.0732C10.6942 36.2649 10.3865 36.3608 10.0124 36.3608C9.63838 36.3608 9.33061 36.2649 9.08914 36.0732C8.84766 35.8814 8.66892 35.6293 8.55291 35.3168C8.43691 35.0043 8.37891 34.6657 8.37891 34.3011C8.37891 33.9366 8.43691 33.5968 8.55291 33.282C8.66892 32.9671 8.84766 32.7126 9.08914 32.5185C9.33061 32.3243 9.63838 32.2273 10.0124 32.2273C10.3865 32.2273 10.6942 32.3243 10.9357 32.5185C11.1772 32.7126 11.3559 32.9671 11.4719 33.282C11.588 33.5968 11.646 33.9366 11.646 34.3011C11.646 34.6657 11.588 35.0043 11.4719 35.3168C11.3559 35.6293 11.1772 35.8814 10.9357 36.0732Z" fill="#CFD1DE"/>
<path d="M13.7633 31.5455V37H14.6014V33.5909C14.6014 33.3234 14.6582 33.0878 14.7718 32.8842C14.8878 32.6783 15.0394 32.5173 15.2264 32.4013C15.4158 32.2853 15.6194 32.2273 15.8372 32.2273C16.1544 32.2273 16.4137 32.3232 16.6149 32.5149C16.8161 32.7043 16.9167 32.9541 16.9167 33.2642V37H17.769V33.4489C17.769 33.0961 17.8744 32.8049 18.0851 32.5753C18.2958 32.3433 18.5929 32.2273 18.9764 32.2273C19.2747 32.2273 19.5339 32.3137 19.7541 32.4865C19.9743 32.6593 20.0843 32.947 20.0843 33.3494V37H20.9224V33.3494C20.9224 32.7079 20.7673 32.2356 20.4572 31.9325C20.1471 31.6271 19.7482 31.4744 19.2605 31.4744C18.8699 31.4744 18.5349 31.5585 18.2555 31.7266C17.9762 31.8923 17.7666 32.116 17.627 32.3977H17.5701C17.4352 32.1065 17.247 31.8804 17.0055 31.7195C16.7664 31.5561 16.4669 31.4744 16.1071 31.4744C15.752 31.4744 15.4477 31.5561 15.1944 31.7195C14.9411 31.8804 14.7576 32.1065 14.644 32.3977H14.573V31.5455H13.7633Z" fill="#CFD1DE"/>
<path fill-rule="evenodd" clip-rule="evenodd" d="M23.3816 36.7656C23.7627 36.9976 24.2161 37.1136 24.7417 37.1136C25.111 37.1136 25.4436 37.0568 25.7395 36.9432C26.0355 36.8272 26.284 36.6662 26.4853 36.4602C26.6865 36.2519 26.8297 36.0104 26.915 35.7358L26.1053 35.5085C26.0343 35.6979 25.9337 35.8565 25.8034 35.9844C25.6732 36.1098 25.5182 36.2045 25.3382 36.2685C25.1607 36.33 24.9618 36.3608 24.7417 36.3608C24.4031 36.3608 24.106 36.2874 23.8503 36.1406C23.5946 35.9915 23.3946 35.7749 23.2502 35.4908C23.1214 35.231 23.051 34.9197 23.039 34.5568H27.0002V34.2017C27.0002 33.6927 26.9327 33.2642 26.7978 32.9162C26.6628 32.5682 26.4817 32.2888 26.2544 32.0781C26.0272 31.8651 25.775 31.7112 25.498 31.6165C25.2211 31.5218 24.9405 31.4744 24.6564 31.4744C24.164 31.4744 23.7331 31.5952 23.3638 31.8366C22.9969 32.0758 22.7104 32.4096 22.5044 32.8381C22.3008 33.2642 22.199 33.7566 22.199 34.3153C22.199 34.8741 22.3008 35.3641 22.5044 35.7855C22.7104 36.2045 23.0028 36.5312 23.3816 36.7656ZM23.0411 33.8324C23.0571 33.5794 23.1208 33.3403 23.2324 33.1151C23.3626 32.8523 23.5485 32.6392 23.79 32.4759C24.0338 32.3101 24.3226 32.2273 24.6564 32.2273C24.9595 32.2273 25.2222 32.2971 25.4448 32.4368C25.6697 32.5765 25.8425 32.767 25.9632 33.0085C26.0864 33.25 26.1479 33.5246 26.1479 33.8324H23.0411Z" fill="#CFD1DE"/>
</svg>
