<svg width="28" height="38" viewBox="0 0 28 38" fill="none" xmlns="http://www.w3.org/2000/svg">
<path fill-rule="evenodd" clip-rule="evenodd" d="M14.2675 0.196962C13.9109 -0.0656538 13.4248 -0.0656538 13.0682 0.196962L4.19013 6.73445C3.15478 7.49685 2.54353 8.70605 2.54353 9.99182V20.7317C2.54353 22.6866 4.12824 24.2713 6.08309 24.2713H9.62265C10.7397 24.2713 11.6453 23.3657 11.6453 22.2487V16.6865H15.6905V22.2487C15.6905 23.3657 16.596 24.2713 17.7131 24.2713H21.2526C23.2075 24.2713 24.7922 22.6866 24.7922 20.7317V9.99182C24.7922 8.70605 24.1809 7.49685 23.1456 6.73445L14.2675 0.196962ZM5.38943 8.36313L13.6679 2.26721L21.9463 8.36313C22.464 8.74433 22.7696 9.34893 22.7696 9.99182V20.7317C22.7696 21.5695 22.0904 22.2487 21.2526 22.2487H17.7131V16.1808C17.7131 15.3431 17.0339 14.6639 16.1961 14.6639H11.1396C10.3018 14.6639 9.62265 15.3431 9.62265 16.1808V22.2487H6.08309C5.2453 22.2487 4.56613 21.5695 4.56613 20.7317V9.99182C4.56613 9.34893 4.87176 8.74433 5.38943 8.36313Z" fill="#CFD1DE"/>
<path d="M0.608215 29.7273V37H1.4889V33.7472H5.36674V37H6.24742V29.7273H5.36674V32.9659H1.4889V29.7273H0.608215Z" fill="#CFD1DE"/>
<path fill-rule="evenodd" clip-rule="evenodd" d="M8.81667 36.7621C9.18835 36.9964 9.62041 37.1136 10.1128 37.1136C10.6053 37.1136 11.0361 36.9964 11.4054 36.7621C11.7771 36.5277 12.066 36.1998 12.2719 35.7784C12.4803 35.357 12.5844 34.8646 12.5844 34.3011C12.5844 33.733 12.4803 33.237 12.2719 32.8132C12.066 32.3894 11.7771 32.0604 11.4054 31.826C11.0361 31.5916 10.6053 31.4744 10.1128 31.4744C9.62041 31.4744 9.18835 31.5916 8.81667 31.826C8.44735 32.0604 8.15852 32.3894 7.95019 32.8132C7.74423 33.237 7.64124 33.733 7.64124 34.3011C7.64124 34.8646 7.74423 35.357 7.95019 35.7784C8.15852 36.1998 8.44735 36.5277 8.81667 36.7621ZM11.0361 36.0732C10.7947 36.2649 10.4869 36.3608 10.1128 36.3608C9.73878 36.3608 9.43102 36.2649 9.18954 36.0732C8.94806 35.8814 8.76932 35.6293 8.65332 35.3168C8.53731 35.0043 8.47931 34.6657 8.47931 34.3011C8.47931 33.9366 8.53731 33.5968 8.65332 33.282C8.76932 32.9671 8.94806 32.7126 9.18954 32.5185C9.43102 32.3243 9.73878 32.2273 10.1128 32.2273C10.4869 32.2273 10.7947 32.3243 11.0361 32.5185C11.2776 32.7126 11.4563 32.9671 11.5724 33.282C11.6884 33.5968 11.7464 33.9366 11.7464 34.3011C11.7464 34.6657 11.6884 35.0043 11.5724 35.3168C11.4563 35.6293 11.2776 35.8814 11.0361 36.0732Z" fill="#CFD1DE"/>
<path d="M13.8637 31.5455V37H14.7018V33.5909C14.7018 33.3234 14.7586 33.0878 14.8722 32.8842C14.9882 32.6783 15.1398 32.5173 15.3268 32.4013C15.5162 32.2853 15.7198 32.2273 15.9376 32.2273C16.2548 32.2273 16.5141 32.3232 16.7153 32.5149C16.9165 32.7043 17.0171 32.9541 17.0171 33.2642V37H17.8694V33.4489C17.8694 33.0961 17.9748 32.8049 18.1855 32.5753C18.3962 32.3433 18.6933 32.2273 19.0768 32.2273C19.3751 32.2273 19.6343 32.3137 19.8545 32.4865C20.0747 32.6593 20.1847 32.947 20.1847 33.3494V37H21.0228V33.3494C21.0228 32.7079 20.8677 32.2356 20.5576 31.9325C20.2475 31.6271 19.8486 31.4744 19.3609 31.4744C18.9703 31.4744 18.6353 31.5585 18.3559 31.7266C18.0766 31.8923 17.867 32.116 17.7274 32.3977H17.6705C17.5356 32.1065 17.3474 31.8804 17.1059 31.7195C16.8668 31.5561 16.5673 31.4744 16.2075 31.4744C15.8524 31.4744 15.5481 31.5561 15.2948 31.7195C15.0415 31.8804 14.858 32.1065 14.7444 32.3977H14.6734V31.5455H13.8637Z" fill="#CFD1DE"/>
<path fill-rule="evenodd" clip-rule="evenodd" d="M23.482 36.7656C23.8631 36.9976 24.3165 37.1136 24.8421 37.1136C25.2114 37.1136 25.544 37.0568 25.8399 36.9432C26.1359 36.8272 26.3844 36.6662 26.5857 36.4602C26.7869 36.2519 26.9301 36.0104 27.0154 35.7358L26.2057 35.5085C26.1347 35.6979 26.0341 35.8565 25.9038 35.9844C25.7736 36.1098 25.6186 36.2045 25.4387 36.2685C25.2611 36.33 25.0622 36.3608 24.8421 36.3608C24.5035 36.3608 24.2064 36.2874 23.9507 36.1406C23.695 35.9915 23.495 35.7749 23.3506 35.4908C23.2218 35.231 23.1514 34.9197 23.1394 34.5568H27.1006V34.2017C27.1006 33.6927 27.0331 33.2642 26.8982 32.9162C26.7632 32.5682 26.5821 32.2888 26.3548 32.0781C26.1276 31.8651 25.8754 31.7112 25.5985 31.6165C25.3215 31.5218 25.0409 31.4744 24.7568 31.4744C24.2644 31.4744 23.8335 31.5952 23.4642 31.8366C23.0973 32.0758 22.8108 32.4096 22.6048 32.8381C22.4012 33.2642 22.2994 33.7566 22.2994 34.3153C22.2994 34.8741 22.4012 35.3641 22.6048 35.7855C22.8108 36.2045 23.1032 36.5312 23.482 36.7656ZM23.1415 33.8324C23.1575 33.5794 23.2212 33.3403 23.3328 33.1151C23.463 32.8523 23.6489 32.6392 23.8904 32.4759C24.1342 32.3101 24.423 32.2273 24.7568 32.2273C25.0599 32.2273 25.3226 32.2971 25.5452 32.4368C25.7701 32.5765 25.9429 32.767 26.0637 33.0085C26.1868 33.25 26.2483 33.5246 26.2483 33.8324H23.1415Z" fill="#CFD1DE"/>
</svg>
