<svg width="47" height="40" viewBox="0 0 47 40" fill="none" xmlns="http://www.w3.org/2000/svg">
<path fill-rule="evenodd" clip-rule="evenodd" d="M29.7357 2.02261H29.563C29.1466 0.844244 28.0228 0 26.7018 0H20.634C19.313 0 18.1892 0.844243 17.7727 2.02261H17.6C15.3659 2.02261 13.5548 3.8337 13.5548 6.06781V20.2261C13.5548 22.4602 15.3659 24.2713 17.6 24.2713H29.7357C31.9698 24.2713 33.7809 22.4602 33.7809 20.2261V6.06782C33.7809 3.83371 31.9698 2.02261 29.7357 2.02261ZM15.5774 6.06781C15.5774 4.95076 16.483 4.04521 17.6 4.04521C17.6 5.72079 18.9584 7.07912 20.634 7.07912H26.7018C28.3774 7.07912 29.7357 5.72079 29.7357 4.04521C30.8527 4.04521 31.7583 4.95076 31.7583 6.06782V20.2261C31.7583 21.3431 30.8527 22.2487 29.7357 22.2487H17.6C16.483 22.2487 15.5774 21.3431 15.5774 20.2261V6.06781ZM20.634 2.02261C20.0754 2.02261 19.6227 2.47538 19.6227 3.03391V4.04521C19.6227 4.60374 20.0754 5.05651 20.634 5.05651H26.7018C27.2603 5.05651 27.7131 4.60374 27.7131 4.04521V3.03391C27.7131 2.47538 27.2603 2.02261 26.7018 2.02261H20.634Z" fill="#CFD1DE"/>
<path fill-rule="evenodd" clip-rule="evenodd" d="M0.940254 29.7273V37H1.82094V34.3438H3.41185C3.97766 34.3438 4.44167 34.2408 4.80389 34.0348C5.16611 33.8265 5.43363 33.5471 5.60645 33.1967C5.78164 32.8464 5.86923 32.4569 5.86923 32.0284C5.86923 31.5999 5.78164 31.2116 5.60645 30.8636C5.43126 30.5156 5.16137 30.2398 4.79679 30.0362C4.43457 29.8303 3.96819 29.7273 3.39764 29.7273H0.940254ZM1.82094 33.5625H3.38344C3.77406 33.5625 4.08774 33.495 4.32449 33.3601C4.56123 33.2251 4.73287 33.0429 4.8394 32.8132C4.9483 32.5812 5.00275 32.3196 5.00275 32.0284C5.00275 31.7372 4.9483 31.4768 4.8394 31.2472C4.73287 31.0175 4.56005 30.8376 4.32094 30.7074C4.08183 30.5748 3.76459 30.5085 3.36923 30.5085H1.82094V33.5625Z" fill="#CFD1DE"/>
<path d="M7.17427 31.5455V37H8.01234V33.5483C8.01234 33.3021 8.07153 33.0831 8.1899 32.8913C8.31064 32.6972 8.47399 32.5457 8.67996 32.4368C8.88829 32.3255 9.12503 32.2699 9.39018 32.2699C9.50145 32.2699 9.6068 32.2782 9.70623 32.2947C9.80803 32.3089 9.87314 32.3196 9.90155 32.3267V31.4744C9.8542 31.4697 9.78436 31.4661 9.69203 31.4638C9.5997 31.4614 9.52276 31.4602 9.46121 31.4602C9.1345 31.4602 8.84094 31.5443 8.58052 31.7124C8.32011 31.8804 8.14018 32.0994 8.04075 32.3693H7.98393V31.5455H7.17427Z" fill="#CFD1DE"/>
<path fill-rule="evenodd" clip-rule="evenodd" d="M11.6487 36.7621C12.0204 36.9964 12.4524 37.1136 12.9449 37.1136C13.4373 37.1136 13.8682 36.9964 14.2375 36.7621C14.6092 36.5277 14.898 36.1998 15.104 35.7784C15.3123 35.357 15.4165 34.8646 15.4165 34.3011C15.4165 33.733 15.3123 33.237 15.104 32.8132C14.898 32.3894 14.6092 32.0604 14.2375 31.826C13.8682 31.5916 13.4373 31.4744 12.9449 31.4744C12.4524 31.4744 12.0204 31.5916 11.6487 31.826C11.2794 32.0604 10.9906 32.3894 10.7822 32.8132C10.5763 33.237 10.4733 33.733 10.4733 34.3011C10.4733 34.8646 10.5763 35.357 10.7822 35.7784C10.9906 36.1998 11.2794 36.5277 11.6487 36.7621ZM13.8682 36.0732C13.6267 36.2649 13.3189 36.3608 12.9449 36.3608C12.5708 36.3608 12.2631 36.2649 12.0216 36.0732C11.7801 35.8814 11.6014 35.6293 11.4854 35.3168C11.3693 35.0043 11.3113 34.6657 11.3113 34.3011C11.3113 33.9366 11.3693 33.5968 11.4854 33.282C11.6014 32.9671 11.7801 32.7126 12.0216 32.5185C12.2631 32.3243 12.5708 32.2273 12.9449 32.2273C13.3189 32.2273 13.6267 32.3243 13.8682 32.5185C14.1096 32.7126 14.2884 32.9671 14.4044 33.282C14.5204 33.5968 14.5784 33.9366 14.5784 34.3011C14.5784 34.6657 14.5204 35.0043 14.4044 35.3168C14.2884 35.6293 14.1096 35.8814 13.8682 36.0732Z" fill="#CFD1DE"/>
<path d="M16.6602 39.0099C16.7715 39.0336 16.8982 39.0455 17.0402 39.0455C17.2935 39.0455 17.5208 39.0005 17.722 38.9105C17.9256 38.8205 18.1044 38.6821 18.2583 38.495C18.4121 38.3104 18.5412 38.0772 18.6453 37.7955L20.9607 31.5455H20.0516L18.5459 35.892H18.4891L16.9834 31.5455H16.0743L18.0914 37.0284L17.9351 37.4545C17.8333 37.7315 17.7209 37.9316 17.5977 38.0547C17.477 38.1802 17.3385 38.25 17.1823 38.2642C17.026 38.2784 16.8461 38.2595 16.6425 38.2074L16.4294 38.946C16.472 38.9673 16.549 38.9886 16.6602 39.0099Z" fill="#CFD1DE"/>
<path fill-rule="evenodd" clip-rule="evenodd" d="M22.7984 36.7656C23.1795 36.9976 23.6329 37.1136 24.1585 37.1136C24.5278 37.1136 24.8604 37.0568 25.1563 36.9432C25.4523 36.8272 25.7008 36.6662 25.9021 36.4602C26.1033 36.2519 26.2465 36.0104 26.3318 35.7358L25.5221 35.5085C25.4511 35.6979 25.3505 35.8565 25.2203 35.9844C25.0901 36.1098 24.935 36.2045 24.7551 36.2685C24.5775 36.33 24.3786 36.3608 24.1585 36.3608C23.8199 36.3608 23.5228 36.2874 23.2671 36.1406C23.0115 35.9915 22.8114 35.7749 22.667 35.4908C22.5382 35.231 22.4678 34.9197 22.4558 34.5568H26.417V34.2017C26.417 33.6927 26.3495 33.2642 26.2146 32.9162C26.0796 32.5682 25.8985 32.2888 25.6713 32.0781C25.444 31.8651 25.1919 31.7112 24.9149 31.6165C24.6379 31.5218 24.3573 31.4744 24.0732 31.4744C23.5808 31.4744 23.1499 31.5952 22.7806 31.8366C22.4137 32.0758 22.1272 32.4096 21.9213 32.8381C21.7177 33.2642 21.6159 33.7566 21.6159 34.3153C21.6159 34.8741 21.7177 35.3641 21.9213 35.7855C22.1272 36.2045 22.4196 36.5312 22.7984 36.7656ZM22.4579 33.8324C22.4739 33.5794 22.5377 33.3403 22.6492 33.1151C22.7794 32.8523 22.9653 32.6392 23.2068 32.4759C23.4506 32.3101 23.7394 32.2273 24.0732 32.2273C24.3763 32.2273 24.6391 32.2971 24.8616 32.4368C25.0865 32.5765 25.2593 32.767 25.3801 33.0085C25.5032 33.25 25.5647 33.5246 25.5647 33.8324H22.4579Z" fill="#CFD1DE"/>
<path d="M28.5867 36.7514C28.9561 36.9929 29.3964 37.1136 29.9078 37.1136C30.3102 37.1136 30.663 37.0391 30.966 36.8899C31.2714 36.7384 31.5164 36.5348 31.7011 36.2791C31.8881 36.0211 32.0053 35.7311 32.0526 35.4091H31.2146C31.1625 35.608 31.0749 35.7784 30.9518 35.9205C30.8287 36.0625 30.6784 36.1714 30.5008 36.2472C30.3232 36.3229 30.1256 36.3608 29.9078 36.3608C29.5763 36.3608 29.2875 36.2744 29.0413 36.1016C28.7974 35.9287 28.608 35.6861 28.4731 35.3736C28.3405 35.0611 28.2742 34.6941 28.2742 34.2727C28.2742 33.8608 28.3417 33.5021 28.4767 33.1967C28.614 32.889 28.8045 32.651 29.0484 32.483C29.2946 32.3125 29.5811 32.2273 29.9078 32.2273C30.2771 32.2273 30.5706 32.3243 30.7884 32.5185C31.0086 32.7102 31.1507 32.9304 31.2146 33.179H32.0526C32.0053 32.8381 31.8834 32.5398 31.6869 32.2841C31.4904 32.0284 31.2383 31.8295 30.9305 31.6875C30.6227 31.5455 30.2771 31.4744 29.8936 31.4744C29.4011 31.4744 28.9703 31.5952 28.6009 31.8366C28.234 32.0758 27.9475 32.4084 27.7416 32.8345C27.538 33.2583 27.4362 33.7472 27.4362 34.3011C27.4362 34.8456 27.5356 35.3298 27.7345 35.7536C27.9333 36.1773 28.2174 36.5099 28.5867 36.7514Z" fill="#CFD1DE"/>
<path d="M35.65 32.2557V31.5455H34.4852V30.2386H33.6471V31.5455H32.8232V32.2557H33.6471V35.6648C33.6471 35.982 33.7205 36.2448 33.8673 36.4531C34.0164 36.6615 34.2035 36.8165 34.4284 36.9183C34.6556 37.0201 34.8876 37.071 35.1244 37.071C35.2806 37.071 35.4097 37.0592 35.5115 37.0355C35.6133 37.0142 35.6926 36.9929 35.7494 36.9716L35.5789 36.2188L35.4369 36.2472C35.3777 36.2566 35.3019 36.2614 35.2096 36.2614C35.0865 36.2614 34.9693 36.2424 34.858 36.2045C34.7491 36.1643 34.6592 36.0862 34.5882 35.9702C34.5195 35.8518 34.4852 35.6742 34.4852 35.4375V32.2557H35.65Z" fill="#CFD1DE"/>
<path fill-rule="evenodd" clip-rule="evenodd" d="M37.7718 36.7621C38.1434 36.9964 38.5755 37.1136 39.0679 37.1136C39.5603 37.1136 39.9912 36.9964 40.3605 36.7621C40.7322 36.5277 41.021 36.1998 41.227 35.7784C41.4353 35.357 41.5395 34.8646 41.5395 34.3011C41.5395 33.733 41.4353 33.237 41.227 32.8132C41.021 32.3894 40.7322 32.0604 40.3605 31.826C39.9912 31.5916 39.5603 31.4744 39.0679 31.4744C38.5755 31.4744 38.1434 31.5916 37.7718 31.826C37.4024 32.0604 37.1136 32.3894 36.9053 32.8132C36.6993 33.237 36.5963 33.733 36.5963 34.3011C36.5963 34.8646 36.6993 35.357 36.9053 35.7784C37.1136 36.1998 37.4024 36.5277 37.7718 36.7621ZM39.9912 36.0732C39.7497 36.2649 39.442 36.3608 39.0679 36.3608C38.6939 36.3608 38.3861 36.2649 38.1446 36.0732C37.9031 35.8814 37.7244 35.6293 37.6084 35.3168C37.4924 35.0043 37.4344 34.6657 37.4344 34.3011C37.4344 33.9366 37.4924 33.5968 37.6084 33.282C37.7244 32.9671 37.9031 32.7126 38.1446 32.5185C38.3861 32.3243 38.6939 32.2273 39.0679 32.2273C39.442 32.2273 39.7497 32.3243 39.9912 32.5185C40.2327 32.7126 40.4114 32.9671 40.5274 33.282C40.6434 33.5968 40.7014 33.9366 40.7014 34.3011C40.7014 34.6657 40.6434 35.0043 40.5274 35.3168C40.4114 35.6293 40.2327 35.8814 39.9912 36.0732Z" fill="#CFD1DE"/>
<path d="M45.9296 32.9801L46.6824 32.767C46.5522 32.3788 46.3321 32.0663 46.0219 31.8295C45.7142 31.5928 45.2904 31.4744 44.7506 31.4744C44.3671 31.4744 44.0238 31.5419 43.7208 31.6768C43.4201 31.8118 43.1822 31.9976 43.007 32.2344C42.8342 32.4711 42.7478 32.7434 42.7478 33.0511C42.7478 33.4276 42.8638 33.7412 43.0958 33.9922C43.3302 34.2408 43.6971 34.4242 44.1966 34.5426L45.1057 34.7557C45.3804 34.8196 45.584 34.9167 45.7165 35.0469C45.8491 35.1747 45.9154 35.3333 45.9154 35.5227C45.9154 35.7571 45.7994 35.9583 45.5674 36.1264C45.3377 36.2921 45.0276 36.375 44.637 36.375C44.2937 36.375 44.0155 36.3016 43.8025 36.1548C43.5918 36.008 43.4485 35.7879 43.3728 35.4943L42.5773 35.6932C42.6744 36.1572 42.9052 36.5099 43.2698 36.7514C43.6344 36.9929 44.0948 37.1136 44.6512 37.1136C45.075 37.1136 45.4466 37.0426 45.7663 36.9006C46.0859 36.7585 46.3344 36.5644 46.512 36.3182C46.6919 36.072 46.7819 35.7926 46.7819 35.4801C46.7819 35.099 46.6623 34.7876 46.4232 34.5462C46.1841 34.3023 45.8207 34.1212 45.333 34.0028L44.5234 33.804C44.2014 33.7235 43.9646 33.6229 43.8131 33.5021C43.6616 33.3814 43.5859 33.2169 43.5859 33.0085C43.5859 32.7741 43.6959 32.5812 43.9161 32.4297C44.1386 32.2758 44.4168 32.1989 44.7506 32.1989C44.9945 32.1989 45.1945 32.2379 45.3508 32.3161C45.507 32.3942 45.6301 32.4936 45.7201 32.6143C45.8124 32.7327 45.8823 32.8546 45.9296 32.9801Z" fill="#CFD1DE"/>
</svg>
