<svg width="38" height="36" viewBox="0 0 38 36" fill="none" xmlns="http://www.w3.org/2000/svg">
<path fill-rule="evenodd" clip-rule="evenodd" d="M10.9381 0.535156C8.70691 0.535156 6.89814 2.34392 6.89814 4.57516V18.7412C6.89814 20.9724 8.70691 22.7812 10.9381 22.7812H27.0616C29.2928 22.7812 31.1016 20.9724 31.1016 18.7412V8.52585C31.1016 6.29462 29.2928 4.48585 27.0616 4.48585H10.4122C9.85451 4.48585 9.40244 4.03378 9.40244 3.47611C9.40244 3.41056 9.39619 3.34646 9.38426 3.28439C9.75479 2.83882 10.3133 2.55516 10.9381 2.55516H28.0955C28.6533 2.55516 29.1055 2.10296 29.1055 1.54516C29.1055 0.987349 28.6533 0.535156 28.0955 0.535156H10.9381ZM8.91814 18.7412V6.11247C9.35903 6.36286 9.8689 6.50585 10.4122 6.50585H27.0616C28.1772 6.50585 29.0816 7.41024 29.0816 8.52585V18.7412C29.0816 19.8568 28.1772 20.7612 27.0616 20.7612H10.9381C9.82252 20.7612 8.91814 19.8568 8.91814 18.7412Z" fill="#55B3FF"/>
<path fill-rule="evenodd" clip-rule="evenodd" d="M0.783936 28.2275V35.5002H3.41178C3.98469 35.5002 4.44989 35.415 4.80737 35.2446C5.16485 35.0741 5.42645 34.8433 5.59217 34.5521C5.75789 34.2609 5.84075 33.933 5.84075 33.5684C5.84075 33.1849 5.765 32.8606 5.61348 32.5954C5.46197 32.3303 5.27376 32.1267 5.04885 31.9846C4.82395 31.8426 4.60022 31.7644 4.37769 31.7502V31.6792C4.58602 31.6224 4.77896 31.5348 4.95652 31.4164C5.13645 31.2981 5.28086 31.1371 5.38976 30.9335C5.50103 30.7299 5.55666 30.4718 5.55666 30.1593C5.55666 29.8042 5.47617 29.4811 5.31519 29.1899C5.1542 28.8963 4.90917 28.6631 4.5801 28.4903C4.25103 28.3151 3.83318 28.2275 3.32655 28.2275H0.783936ZM3.41178 34.719H1.66462V32.1906H3.45439C3.77162 32.1906 4.04625 32.2545 4.27825 32.3823C4.51026 32.5078 4.689 32.6759 4.81448 32.8866C4.93995 33.0949 5.00269 33.3222 5.00269 33.5684C5.00269 33.888 4.88076 34.1603 4.63692 34.3852C4.39544 34.6077 3.98706 34.719 3.41178 34.719ZM3.29814 31.4235H1.66462V29.0088H3.32655C3.8095 29.0088 4.16225 29.1212 4.38479 29.3461C4.60733 29.5687 4.71859 29.8397 4.71859 30.1593C4.71859 30.415 4.65467 30.6375 4.52683 30.8269C4.40136 31.0163 4.23091 31.1631 4.01547 31.2673C3.8024 31.3714 3.56329 31.4235 3.29814 31.4235Z" fill="#55B3FF"/>
<path d="M7.17421 30.0457V35.5002H8.01227V30.0457H7.17421Z" fill="#55B3FF"/>
<path d="M7.17776 28.9697C7.29613 29.081 7.43699 29.1366 7.60034 29.1366C7.76369 29.1366 7.90337 29.081 8.01938 28.9697C8.13775 28.8584 8.19693 28.7247 8.19693 28.5684C8.19693 28.4122 8.13775 28.2784 8.01938 28.1671C7.90337 28.0559 7.76369 28.0002 7.60034 28.0002C7.43699 28.0002 7.29613 28.0559 7.17776 28.1671C7.06175 28.2784 7.00375 28.4122 7.00375 28.5684C7.00375 28.7247 7.06175 28.8584 7.17776 28.9697Z" fill="#55B3FF"/>
<path d="M10.3853 35.5002V28.2275H9.54725V35.5002H10.3853Z" fill="#55B3FF"/>
<path d="M12.7584 35.5002V28.2275H11.9203V35.5002H12.7584Z" fill="#55B3FF"/>
<path fill-rule="evenodd" clip-rule="evenodd" d="M15.2202 35.2659C15.6013 35.4979 16.0547 35.6139 16.5803 35.6139C16.9496 35.6139 17.2822 35.5571 17.5781 35.4434C17.8741 35.3274 18.1227 35.1664 18.3239 34.9605C18.5251 34.7521 18.6683 34.5107 18.7536 34.236L17.9439 34.0088C17.8729 34.1982 17.7723 34.3568 17.6421 34.4846C17.5119 34.6101 17.3568 34.7048 17.1769 34.7687C16.9993 34.8303 16.8004 34.861 16.5803 34.861C16.2417 34.861 15.9446 34.7876 15.6889 34.6409C15.4333 34.4917 15.2332 34.2751 15.0888 33.991C14.96 33.7313 14.8896 33.4199 14.8776 33.0571H18.8388V32.7019C18.8388 32.1929 18.7713 31.7644 18.6364 31.4164C18.5014 31.0684 18.3203 30.7891 18.0931 30.5784C17.8658 30.3653 17.6137 30.2114 17.3367 30.1167C17.0597 30.022 16.7791 29.9747 16.4951 29.9747C16.0026 29.9747 15.5718 30.0954 15.2024 30.3369C14.8355 30.576 14.549 30.9098 14.3431 31.3383C14.1395 31.7644 14.0377 32.2569 14.0377 32.8156C14.0377 33.3743 14.1395 33.8643 14.3431 34.2857C14.549 34.7048 14.8414 35.0315 15.2202 35.2659ZM14.8797 32.3326C14.8957 32.0796 14.9595 31.8405 15.071 31.6153C15.2013 31.3525 15.3871 31.1394 15.6286 30.9761C15.8724 30.8104 16.1612 30.7275 16.4951 30.7275C16.7981 30.7275 17.0609 30.7973 17.2834 30.937C17.5083 31.0767 17.6811 31.2673 17.8019 31.5088C17.925 31.7502 17.9865 32.0249 17.9865 32.3326H14.8797Z" fill="#55B3FF"/>
<path d="M22.4858 30.7559V30.0457H21.321V28.7389H20.483V30.0457H19.6591V30.7559H20.483V34.165C20.483 34.4822 20.5564 34.745 20.7031 34.9534C20.8523 35.1617 21.0393 35.3168 21.2642 35.4186C21.4915 35.5204 21.7235 35.5713 21.9602 35.5713C22.1165 35.5713 22.2455 35.5594 22.3473 35.5357C22.4491 35.5144 22.5284 35.4931 22.5852 35.4718L22.4148 34.719L22.2727 34.7474C22.2136 34.7569 22.1378 34.7616 22.0455 34.7616C21.9224 34.7616 21.8052 34.7427 21.6939 34.7048C21.585 34.6645 21.4951 34.5864 21.424 34.4704C21.3554 34.352 21.321 34.1745 21.321 33.9377V30.7559H22.4858Z" fill="#55B3FF"/>
<path fill-rule="evenodd" clip-rule="evenodd" d="M24.6147 35.2659C24.9959 35.4979 25.4492 35.6139 25.9748 35.6139C26.3441 35.6139 26.6768 35.5571 26.9727 35.4434C27.2686 35.3274 27.5172 35.1664 27.7184 34.9605C27.9196 34.7521 28.0629 34.5107 28.1481 34.236L27.3384 34.0088C27.2674 34.1982 27.1668 34.3568 27.0366 34.4846C26.9064 34.6101 26.7513 34.7048 26.5714 34.7687C26.3938 34.8303 26.195 34.861 25.9748 34.861C25.6363 34.861 25.3392 34.7876 25.0835 34.6409C24.8278 34.4917 24.6277 34.2751 24.4833 33.991C24.3545 33.7313 24.2841 33.4199 24.2721 33.0571H28.2333V32.7019C28.2333 32.1929 28.1659 31.7644 28.0309 31.4164C27.896 31.0684 27.7149 30.7891 27.4876 30.5784C27.2603 30.3653 27.0082 30.2114 26.7312 30.1167C26.4542 30.022 26.1737 29.9747 25.8896 29.9747C25.3972 29.9747 24.9663 30.0954 24.597 30.3369C24.23 30.576 23.9436 30.9098 23.7376 31.3383C23.534 31.7644 23.4322 32.2569 23.4322 32.8156C23.4322 33.3743 23.534 33.8643 23.7376 34.2857C23.9436 34.7048 24.2359 35.0315 24.6147 35.2659ZM24.2743 32.3326C24.2902 32.0796 24.354 31.8405 24.4656 31.6153C24.5958 31.3525 24.7816 31.1394 25.0231 30.9761C25.2669 30.8104 25.5558 30.7275 25.8896 30.7275C26.1926 30.7275 26.4554 30.7973 26.6779 30.937C26.9028 31.0767 27.0757 31.2673 27.1964 31.5088C27.3195 31.7502 27.3811 32.0249 27.3811 32.3326H24.2743Z" fill="#55B3FF"/>
<path d="M29.5082 30.0457V35.5002H30.3463V32.0485C30.3463 31.8023 30.4054 31.5833 30.5238 31.3916C30.6446 31.1974 30.8079 31.0459 31.0139 30.937C31.2222 30.8258 31.4589 30.7701 31.7241 30.7701C31.8354 30.7701 31.9407 30.7784 32.0401 30.795C32.1419 30.8092 32.2071 30.8198 32.2355 30.8269V29.9747C32.1881 29.9699 32.1183 29.9664 32.0259 29.964C31.9336 29.9616 31.8567 29.9605 31.7951 29.9605C31.4684 29.9605 31.1749 30.0445 30.9144 30.2126C30.654 30.3807 30.4741 30.5997 30.3747 30.8696H30.3178V30.0457H29.5082Z" fill="#55B3FF"/>
<path fill-rule="evenodd" clip-rule="evenodd" d="M33.893 35.4328C34.1747 35.563 34.4884 35.6281 34.834 35.6281C35.1512 35.6281 35.4199 35.5807 35.6401 35.486C35.8603 35.3913 36.0367 35.2765 36.1692 35.1416C36.3018 35.0066 36.3965 34.88 36.4533 34.7616H36.4959V35.5002H37.334V31.9065C37.334 31.4732 37.263 31.1276 37.1209 30.8696C36.9789 30.6115 36.8002 30.4186 36.5847 30.2907C36.3717 30.1629 36.1503 30.0788 35.9207 30.0386C35.6934 29.996 35.4922 29.9747 35.317 29.9747C35.0423 29.9747 34.763 30.0125 34.4789 30.0883C34.1972 30.1617 33.9368 30.2919 33.6976 30.4789C33.4609 30.6636 33.2715 30.9216 33.1295 31.2531L33.9249 31.5372C34.0172 31.3383 34.177 31.1513 34.4043 30.9761C34.6316 30.8009 34.9453 30.7133 35.3454 30.7133C35.7313 30.7133 36.0189 30.8104 36.2083 31.0045C36.4001 31.1986 36.4959 31.4709 36.4959 31.8213V31.8497C36.4959 31.9846 36.4474 32.0793 36.3503 32.1338C36.2556 32.1882 36.1041 32.2273 35.8958 32.2509C35.6898 32.2723 35.4211 32.3042 35.0897 32.3468C34.8364 32.38 34.5842 32.4249 34.3333 32.4818C34.0847 32.5362 33.8574 32.6191 33.6515 32.7303C33.4455 32.8416 33.281 32.9955 33.1579 33.192C33.0348 33.3861 32.9732 33.6394 32.9732 33.9519C32.9732 34.3071 33.0561 34.6101 33.2218 34.861C33.3875 35.1096 33.6112 35.3002 33.893 35.4328ZM35.7999 34.6799C35.5726 34.8101 35.2933 34.8752 34.9618 34.8752C34.628 34.8752 34.3522 34.8018 34.1344 34.6551C33.919 34.5059 33.8113 34.2857 33.8113 33.9946C33.8113 33.7815 33.8681 33.6134 33.9817 33.4903C34.0977 33.3648 34.2493 33.2713 34.4363 33.2098C34.6257 33.1458 34.8293 33.0997 35.0471 33.0713C35.137 33.0594 35.2542 33.0452 35.3986 33.0286C35.5454 33.0097 35.6958 32.9884 35.8496 32.9647C36.0059 32.9387 36.1432 32.9091 36.2616 32.8759C36.3823 32.8404 36.4604 32.8014 36.4959 32.7588V33.5258C36.4959 33.7531 36.4368 33.9697 36.3184 34.1757C36.2024 34.3816 36.0296 34.5497 35.7999 34.6799Z" fill="#55B3FF"/>
</svg>
