<svg width="24" height="37" viewBox="0 0 24 37" fill="none" xmlns="http://www.w3.org/2000/svg">
<path fill-rule="evenodd" clip-rule="evenodd" d="M6.93207 6.07917C6.93207 2.72801 9.64872 0.0113525 12.9999 0.0113525C16.351 0.0113525 19.0677 2.72801 19.0677 6.07917C19.0677 9.43033 16.351 12.147 12.9999 12.147C9.64872 12.147 6.93207 9.43033 6.93207 6.07917ZM12.9999 2.03396C10.7658 2.03396 8.95467 3.84506 8.95467 6.07917C8.95467 8.31328 10.7658 10.1244 12.9999 10.1244C15.234 10.1244 17.0451 8.31328 17.0451 6.07917C17.0451 3.84506 15.234 2.03396 12.9999 2.03396Z" fill="#CFD1DE"/>
<path d="M12.9999 16.6978C10.5886 16.6978 8.30455 17.2361 6.74811 17.7182C5.87137 17.9897 5.22635 18.7841 5.06857 19.7984L4.89745 20.8985C4.8116 21.4504 4.29461 21.8282 3.74272 21.7423C3.19083 21.6565 2.81303 21.1395 2.89888 20.5876L3.07 19.4875C3.32938 17.8201 4.43396 16.3175 6.1497 15.7861C7.81279 15.271 10.3112 14.6752 12.9999 14.6752C15.6886 14.6752 18.187 15.271 19.8501 15.7861C21.5658 16.3175 22.6704 17.8201 22.9298 19.4875L23.1009 20.5876C23.1867 21.1395 22.8089 21.6565 22.2571 21.7423C21.7052 21.8282 21.1882 21.4504 21.1023 20.8985L20.9312 19.7984C20.7734 18.7841 20.1284 17.9897 19.2517 17.7182C17.6952 17.2361 15.4111 16.6978 12.9999 16.6978Z" fill="#CFD1DE"/>
<path fill-rule="evenodd" clip-rule="evenodd" d="M0.619934 28.7273V36H1.50062V33.3438H3.09153C3.65734 33.3438 4.12135 33.2408 4.48357 33.0349C4.84579 32.8265 5.11331 32.5472 5.28613 32.1968C5.46132 31.8464 5.54891 31.457 5.54891 31.0285C5.54891 30.6 5.46132 30.2117 5.28613 29.8637C5.11094 29.5157 4.84105 29.2399 4.47647 29.0363C4.11425 28.8303 3.64787 28.7273 3.07732 28.7273H0.619934ZM1.50062 32.5625H3.06312C3.45374 32.5625 3.76742 32.4951 4.00417 32.3601C4.24091 32.2252 4.41255 32.0429 4.51908 31.8133C4.62798 31.5813 4.68243 31.3197 4.68243 31.0285C4.68243 30.7373 4.62798 30.4768 4.51908 30.2472C4.41255 30.0176 4.23973 29.8376 4.00062 29.7074C3.76151 29.5749 3.44427 29.5086 3.04891 29.5086H1.50062V32.5625Z" fill="#CFD1DE"/>
<path fill-rule="evenodd" clip-rule="evenodd" d="M7.72221 35.7657C8.10336 35.9977 8.55672 36.1137 9.08229 36.1137C9.45161 36.1137 9.78423 36.0569 10.0802 35.9432C10.3761 35.8272 10.6247 35.6662 10.8259 35.4603C11.0271 35.2519 11.1704 35.0105 11.2556 34.7358L10.4459 34.5086C10.3749 34.698 10.2743 34.8566 10.1441 34.9844C10.0139 35.1099 9.85881 35.2046 9.67888 35.2685C9.50133 35.3301 9.30246 35.3608 9.08229 35.3608C8.74375 35.3608 8.44664 35.2875 8.19096 35.1407C7.93528 34.9915 7.73523 34.7749 7.59081 34.4908C7.46202 34.2311 7.39161 33.9198 7.3796 33.5569H11.3408V33.2018C11.3408 32.6928 11.2733 32.2643 11.1384 31.9162C11.0035 31.5682 10.8223 31.2889 10.5951 31.0782C10.3678 30.8651 10.1157 30.7112 9.83868 30.6165C9.5617 30.5218 9.28116 30.4745 8.99706 30.4745C8.50464 30.4745 8.07377 30.5952 7.70445 30.8367C7.3375 31.0758 7.05104 31.4096 6.84508 31.8381C6.64148 32.2643 6.53968 32.7567 6.53968 33.3154C6.53968 33.8741 6.64148 34.3642 6.84508 34.7856C7.05104 35.2046 7.34342 35.5313 7.72221 35.7657ZM7.38174 32.8324C7.3977 32.5794 7.46147 32.3403 7.57306 32.1151C7.70327 31.8523 7.88911 31.6393 8.13059 31.4759C8.37443 31.3102 8.66326 31.2273 8.99706 31.2273C9.30009 31.2273 9.56288 31.2972 9.78542 31.4368C10.0103 31.5765 10.1831 31.7671 10.3039 32.0086C10.427 32.25 10.4885 32.5247 10.4885 32.8324H7.38174Z" fill="#CFD1DE"/>
<path d="M12.6157 30.5455V36H13.4537V32.5483C13.4537 32.3021 13.5129 32.0831 13.6313 31.8914C13.752 31.6973 13.9154 31.5457 14.1214 31.4368C14.3297 31.3256 14.5664 31.2699 14.8316 31.2699C14.9429 31.2699 15.0482 31.2782 15.1476 31.2948C15.2494 31.309 15.3145 31.3197 15.3429 31.3268V30.4745C15.2956 30.4697 15.2258 30.4662 15.1334 30.4638C15.0411 30.4615 14.9642 30.4603 14.9026 30.4603C14.5759 30.4603 14.2823 30.5443 14.0219 30.7124C13.7615 30.8805 13.5816 31.0995 13.4822 31.3694H13.4253V30.5455H12.6157Z" fill="#CFD1DE"/>
<path d="M19.1071 31.2557V30.5455H17.8856V29.9915C17.8856 29.7216 17.9459 29.5169 18.0667 29.3772C18.1898 29.2375 18.3898 29.1677 18.6668 29.1677C18.7875 29.1677 18.8846 29.1783 18.958 29.1996C19.0338 29.2209 19.0929 29.2387 19.1356 29.2529L19.377 28.5285C19.3131 28.5 19.2161 28.4693 19.0858 28.4361C18.9556 28.403 18.7875 28.3864 18.5816 28.3864C18.3212 28.3864 18.0738 28.4385 17.8394 28.5427C17.605 28.6468 17.4144 28.8031 17.2677 29.0114C17.1209 29.2197 17.0475 29.4802 17.0475 29.7927V30.5455H16.1668V31.2557H17.0475V36H17.8856V31.2557H19.1071Z" fill="#CFD1DE"/>
<path d="M20.2817 30.5455V36H21.1198V30.5455H20.2817Z" fill="#CFD1DE"/>
<path d="M20.2852 29.4695C20.4036 29.5808 20.5445 29.6364 20.7078 29.6364C20.8712 29.6364 21.0109 29.5808 21.1269 29.4695C21.2452 29.3582 21.3044 29.2245 21.3044 29.0682C21.3044 28.912 21.2452 28.7782 21.1269 28.667C21.0109 28.5557 20.8712 28.5 20.7078 28.5C20.5445 28.5 20.4036 28.5557 20.2852 28.667C20.1692 28.7782 20.1112 28.912 20.1112 29.0682C20.1112 29.2245 20.1692 29.3582 20.2852 29.4695Z" fill="#CFD1DE"/>
<path d="M23.4928 36V28.7273H22.6547V36H23.4928Z" fill="#CFD1DE"/>
</svg>
