<svg width="47" height="40" viewBox="0 0 47 40" fill="none" xmlns="http://www.w3.org/2000/svg">
<path fill-rule="evenodd" clip-rule="evenodd" d="M29.0679 2.02261H28.8953C28.4788 0.844244 27.355 0 26.034 0H19.9662C18.6452 0 17.5214 0.844243 17.1049 2.02261H16.9323C14.6981 2.02261 12.887 3.8337 12.887 6.06781V20.2261C12.887 22.4602 14.6981 24.2713 16.9323 24.2713H29.0679C31.302 24.2713 33.1131 22.4602 33.1131 20.2261V6.06782C33.1131 3.83371 31.302 2.02261 29.0679 2.02261ZM14.9096 6.06781C14.9096 4.95076 15.8152 4.04521 16.9323 4.04521C16.9323 5.72079 18.2906 7.07912 19.9662 7.07912H26.034C27.7096 7.07912 29.0679 5.72079 29.0679 4.04521C30.1849 4.04521 31.0905 4.95076 31.0905 6.06782V20.2261C31.0905 21.3431 30.1849 22.2487 29.0679 22.2487H16.9323C15.8152 22.2487 14.9096 21.3431 14.9096 20.2261V6.06781ZM19.9662 2.02261C19.4076 2.02261 18.9549 2.47538 18.9549 3.03391V4.04521C18.9549 4.60374 19.4076 5.05651 19.9662 5.05651H26.034C26.5925 5.05651 27.0453 4.60374 27.0453 4.04521V3.03391C27.0453 2.47538 26.5925 2.02261 26.034 2.02261H19.9662Z" fill="#CFD1DE"/>
<path fill-rule="evenodd" clip-rule="evenodd" d="M0.272461 29.7273V37H1.15314V34.3438H2.74405C3.30987 34.3438 3.77388 34.2408 4.1361 34.0348C4.49831 33.8265 4.76583 33.5471 4.93865 33.1967C5.11384 32.8464 5.20144 32.4569 5.20144 32.0284C5.20144 31.5999 5.11384 31.2116 4.93865 30.8636C4.76346 30.5156 4.49358 30.2398 4.12899 30.0362C3.76678 29.8303 3.3004 29.7273 2.72985 29.7273H0.272461ZM1.15314 33.5625H2.71564C3.10627 33.5625 3.41995 33.495 3.65669 33.3601C3.89344 33.2251 4.06507 33.0429 4.17161 32.8132C4.28051 32.5812 4.33496 32.3196 4.33496 32.0284C4.33496 31.7372 4.28051 31.4768 4.17161 31.2472C4.06507 31.0175 3.89225 30.8376 3.65314 30.7074C3.41403 30.5748 3.0968 30.5085 2.70144 30.5085H1.15314V33.5625Z" fill="#CFD1DE"/>
<path d="M6.50648 31.5455V37H7.34455V33.5483C7.34455 33.3021 7.40373 33.0831 7.52211 32.8913C7.64284 32.6972 7.8062 32.5457 8.01216 32.4368C8.2205 32.3255 8.45724 32.2699 8.72239 32.2699C8.83366 32.2699 8.93901 32.2782 9.03844 32.2947C9.14024 32.3089 9.20534 32.3196 9.23375 32.3267V31.4744C9.18641 31.4697 9.11657 31.4661 9.02424 31.4638C8.93191 31.4614 8.85497 31.4602 8.79341 31.4602C8.46671 31.4602 8.17315 31.5443 7.91273 31.7124C7.65231 31.8804 7.47239 32.0994 7.37296 32.3693H7.31614V31.5455H6.50648Z" fill="#CFD1DE"/>
<path fill-rule="evenodd" clip-rule="evenodd" d="M10.9809 36.7621C11.3526 36.9964 11.7847 37.1136 12.2771 37.1136C12.7695 37.1136 13.2004 36.9964 13.5697 36.7621C13.9414 36.5277 14.2302 36.1998 14.4362 35.7784C14.6445 35.357 14.7487 34.8646 14.7487 34.3011C14.7487 33.733 14.6445 33.237 14.4362 32.8132C14.2302 32.3894 13.9414 32.0604 13.5697 31.826C13.2004 31.5916 12.7695 31.4744 12.2771 31.4744C11.7847 31.4744 11.3526 31.5916 10.9809 31.826C10.6116 32.0604 10.3228 32.3894 10.1144 32.8132C9.90847 33.237 9.80549 33.733 9.80549 34.3011C9.80549 34.8646 9.90847 35.357 10.1144 35.7784C10.3228 36.1998 10.6116 36.5277 10.9809 36.7621ZM13.2004 36.0732C12.9589 36.2649 12.6511 36.3608 12.2771 36.3608C11.903 36.3608 11.5953 36.2649 11.3538 36.0732C11.1123 35.8814 10.9336 35.6293 10.8176 35.3168C10.7016 35.0043 10.6436 34.6657 10.6436 34.3011C10.6436 33.9366 10.7016 33.5968 10.8176 33.282C10.9336 32.9671 11.1123 32.7126 11.3538 32.5185C11.5953 32.3243 11.903 32.2273 12.2771 32.2273C12.6511 32.2273 12.9589 32.3243 13.2004 32.5185C13.4418 32.7126 13.6206 32.9671 13.7366 33.282C13.8526 33.5968 13.9106 33.9366 13.9106 34.3011C13.9106 34.6657 13.8526 35.0043 13.7366 35.3168C13.6206 35.6293 13.4418 35.8814 13.2004 36.0732Z" fill="#CFD1DE"/>
<path d="M15.9925 39.0099C16.1037 39.0336 16.2304 39.0455 16.3724 39.0455C16.6257 39.0455 16.853 39.0005 17.0542 38.9105C17.2578 38.8205 17.4366 38.6821 17.5905 38.495C17.7443 38.3104 17.8734 38.0772 17.9775 37.7955L20.2929 31.5455H19.3838L17.8781 35.892H17.8213L16.3156 31.5455H15.4065L17.4236 37.0284L17.2673 37.4545C17.1655 37.7315 17.0531 37.9316 16.93 38.0547C16.8092 38.1802 16.6707 38.25 16.5145 38.2642C16.3582 38.2784 16.1783 38.2595 15.9747 38.2074L15.7616 38.946C15.8042 38.9673 15.8812 38.9886 15.9925 39.0099Z" fill="#CFD1DE"/>
<path fill-rule="evenodd" clip-rule="evenodd" d="M22.1306 36.7656C22.5117 36.9976 22.9651 37.1136 23.4907 37.1136C23.86 37.1136 24.1926 37.0568 24.4885 36.9432C24.7845 36.8272 25.0331 36.6662 25.2343 36.4602C25.4355 36.2519 25.5787 36.0104 25.664 35.7358L24.8543 35.5085C24.7833 35.6979 24.6827 35.8565 24.5525 35.9844C24.4223 36.1098 24.2672 36.2045 24.0873 36.2685C23.9097 36.33 23.7108 36.3608 23.4907 36.3608C23.1521 36.3608 22.855 36.2874 22.5993 36.1406C22.3437 35.9915 22.1436 35.7749 21.9992 35.4908C21.8704 35.231 21.8 34.9197 21.788 34.5568H25.7492V34.2017C25.7492 33.6927 25.6817 33.2642 25.5468 32.9162C25.4118 32.5682 25.2307 32.2888 25.0035 32.0781C24.7762 31.8651 24.5241 31.7112 24.2471 31.6165C23.9701 31.5218 23.6895 31.4744 23.4055 31.4744C22.913 31.4744 22.4822 31.5952 22.1128 31.8366C21.7459 32.0758 21.4594 32.4096 21.2535 32.8381C21.0499 33.2642 20.9481 33.7566 20.9481 34.3153C20.9481 34.8741 21.0499 35.3641 21.2535 35.7855C21.4594 36.2045 21.7518 36.5312 22.1306 36.7656ZM21.7901 33.8324C21.8061 33.5794 21.8699 33.3403 21.9814 33.1151C22.1117 32.8523 22.2975 32.6392 22.539 32.4759C22.7828 32.3101 23.0716 32.2273 23.4055 32.2273C23.7085 32.2273 23.9713 32.2971 24.1938 32.4368C24.4187 32.5765 24.5915 32.767 24.7123 33.0085C24.8354 33.25 24.8969 33.5246 24.8969 33.8324H21.7901Z" fill="#CFD1DE"/>
<path d="M27.9189 36.7514C28.2883 36.9929 28.7286 37.1136 29.24 37.1136C29.6424 37.1136 29.9952 37.0391 30.2982 36.8899C30.6036 36.7384 30.8486 36.5348 31.0333 36.2791C31.2203 36.0211 31.3375 35.7311 31.3849 35.4091H30.5468C30.4947 35.608 30.4071 35.7784 30.284 35.9205C30.1609 36.0625 30.0106 36.1714 29.833 36.2472C29.6555 36.3229 29.4578 36.3608 29.24 36.3608C28.9085 36.3608 28.6197 36.2744 28.3735 36.1016C28.1296 35.9287 27.9403 35.6861 27.8053 35.3736C27.6727 35.0611 27.6064 34.6941 27.6064 34.2727C27.6064 33.8608 27.6739 33.5021 27.8089 33.1967C27.9462 32.889 28.1367 32.651 28.3806 32.483C28.6268 32.3125 28.9133 32.2273 29.24 32.2273C29.6093 32.2273 29.9028 32.3243 30.1206 32.5185C30.3408 32.7102 30.4829 32.9304 30.5468 33.179H31.3849C31.3375 32.8381 31.2156 32.5398 31.0191 32.2841C30.8226 32.0284 30.5705 31.8295 30.2627 31.6875C29.9549 31.5455 29.6093 31.4744 29.2258 31.4744C28.7333 31.4744 28.3025 31.5952 27.9331 31.8366C27.5662 32.0758 27.2797 32.4084 27.0738 32.8345C26.8702 33.2583 26.7684 33.7472 26.7684 34.3011C26.7684 34.8456 26.8678 35.3298 27.0667 35.7536C27.2655 36.1773 27.5496 36.5099 27.9189 36.7514Z" fill="#CFD1DE"/>
<path d="M34.9822 32.2557V31.5455H33.8174V30.2386H32.9793V31.5455H32.1555V32.2557H32.9793V35.6648C32.9793 35.982 33.0527 36.2448 33.1995 36.4531C33.3486 36.6615 33.5357 36.8165 33.7606 36.9183C33.9878 37.0201 34.2198 37.071 34.4566 37.071C34.6128 37.071 34.7419 37.0592 34.8437 37.0355C34.9455 37.0142 35.0248 36.9929 35.0816 36.9716L34.9111 36.2188L34.7691 36.2472C34.7099 36.2566 34.6341 36.2614 34.5418 36.2614C34.4187 36.2614 34.3015 36.2424 34.1903 36.2045C34.0814 36.1643 33.9914 36.0862 33.9204 35.9702C33.8517 35.8518 33.8174 35.6742 33.8174 35.4375V32.2557H34.9822Z" fill="#CFD1DE"/>
<path fill-rule="evenodd" clip-rule="evenodd" d="M37.104 36.7621C37.4756 36.9964 37.9077 37.1136 38.4001 37.1136C38.8926 37.1136 39.3234 36.9964 39.6927 36.7621C40.0644 36.5277 40.3533 36.1998 40.5592 35.7784C40.7676 35.357 40.8717 34.8646 40.8717 34.3011C40.8717 33.733 40.7676 33.237 40.5592 32.8132C40.3533 32.3894 40.0644 32.0604 39.6927 31.826C39.3234 31.5916 38.8926 31.4744 38.4001 31.4744C37.9077 31.4744 37.4756 31.5916 37.104 31.826C36.7346 32.0604 36.4458 32.3894 36.2375 32.8132C36.0315 33.237 35.9285 33.733 35.9285 34.3011C35.9285 34.8646 36.0315 35.357 36.2375 35.7784C36.4458 36.1998 36.7346 36.5277 37.104 36.7621ZM39.3234 36.0732C39.0819 36.2649 38.7742 36.3608 38.4001 36.3608C38.0261 36.3608 37.7183 36.2649 37.4768 36.0732C37.2354 35.8814 37.0566 35.6293 36.9406 35.3168C36.8246 35.0043 36.7666 34.6657 36.7666 34.3011C36.7666 33.9366 36.8246 33.5968 36.9406 33.282C37.0566 32.9671 37.2354 32.7126 37.4768 32.5185C37.7183 32.3243 38.0261 32.2273 38.4001 32.2273C38.7742 32.2273 39.0819 32.3243 39.3234 32.5185C39.5649 32.7126 39.7436 32.9671 39.8596 33.282C39.9756 33.5968 40.0336 33.9366 40.0336 34.3011C40.0336 34.6657 39.9756 35.0043 39.8596 35.3168C39.7436 35.6293 39.5649 35.8814 39.3234 36.0732Z" fill="#CFD1DE"/>
<path d="M45.2618 32.9801L46.0146 32.767C45.8844 32.3788 45.6643 32.0663 45.3541 31.8295C45.0464 31.5928 44.6226 31.4744 44.0828 31.4744C43.6993 31.4744 43.356 31.5419 43.053 31.6768C42.7523 31.8118 42.5144 31.9976 42.3392 32.2344C42.1664 32.4711 42.08 32.7434 42.08 33.0511C42.08 33.4276 42.196 33.7412 42.428 33.9922C42.6624 34.2408 43.0293 34.4242 43.5289 34.5426L44.4379 34.7557C44.7126 34.8196 44.9162 34.9167 45.0487 35.0469C45.1813 35.1747 45.2476 35.3333 45.2476 35.5227C45.2476 35.7571 45.1316 35.9583 44.8996 36.1264C44.67 36.2921 44.3598 36.375 43.9692 36.375C43.6259 36.375 43.3477 36.3016 43.1347 36.1548C42.924 36.008 42.7808 35.7879 42.705 35.4943L41.9095 35.6932C42.0066 36.1572 42.2374 36.5099 42.602 36.7514C42.9666 36.9929 43.4271 37.1136 43.9834 37.1136C44.4072 37.1136 44.7789 37.0426 45.0985 36.9006C45.4181 36.7585 45.6666 36.5644 45.8442 36.3182C46.0241 36.072 46.1141 35.7926 46.1141 35.4801C46.1141 35.099 45.9945 34.7876 45.7554 34.5462C45.5163 34.3023 45.1529 34.1212 44.6652 34.0028L43.8556 33.804C43.5336 33.7235 43.2968 33.6229 43.1453 33.5021C42.9938 33.3814 42.9181 33.2169 42.9181 33.0085C42.9181 32.7741 43.0281 32.5812 43.2483 32.4297C43.4709 32.2758 43.749 32.1989 44.0828 32.1989C44.3267 32.1989 44.5267 32.2379 44.683 32.3161C44.8392 32.3942 44.9623 32.4936 45.0523 32.6143C45.1446 32.7327 45.2145 32.8546 45.2618 32.9801Z" fill="#CFD1DE"/>
</svg>
