<svg width="38" height="37" viewBox="0 0 38 37" fill="none" xmlns="http://www.w3.org/2000/svg">
<path fill-rule="evenodd" clip-rule="evenodd" d="M10.9381 0.990234C8.70691 0.990234 6.89814 2.799 6.89814 5.03023V19.1963C6.89814 21.4275 8.70691 23.2363 10.9381 23.2363H27.0616C29.2928 23.2363 31.1016 21.4275 31.1016 19.1963V8.98093C31.1016 6.7497 29.2928 4.94093 27.0616 4.94093H10.4122C9.85451 4.94093 9.40244 4.48885 9.40244 3.93119C9.40244 3.86564 9.39619 3.80154 9.38426 3.73946C9.75479 3.2939 10.3133 3.01023 10.9381 3.01023H28.0955C28.6533 3.01023 29.1055 2.55804 29.1055 2.00023C29.1055 1.44243 28.6533 0.990234 28.0955 0.990234H10.9381ZM8.91814 19.1963V6.56754C9.35903 6.81794 9.8689 6.96093 10.4122 6.96093H27.0616C28.1772 6.96093 29.0816 7.86531 29.0816 8.98093V19.1963C29.0816 20.3119 28.1772 21.2163 27.0616 21.2163H10.9381C9.82252 21.2163 8.91814 20.3119 8.91814 19.1963Z" fill="#CFD1DE"/>
<path fill-rule="evenodd" clip-rule="evenodd" d="M0.783936 28.6823V35.9551H3.41178C3.98469 35.9551 4.44989 35.8698 4.80737 35.6994C5.16485 35.5289 5.42645 35.2981 5.59217 35.0069C5.75789 34.7157 5.84075 34.3878 5.84075 34.0233C5.84075 33.6397 5.765 33.3154 5.61348 33.0502C5.46197 32.7851 5.27376 32.5815 5.04885 32.4394C4.82395 32.2974 4.60022 32.2193 4.37769 32.2051V32.134C4.58602 32.0772 4.77896 31.9896 4.95652 31.8713C5.13645 31.7529 5.28086 31.5919 5.38976 31.3883C5.50103 31.1847 5.55666 30.9267 5.55666 30.6142C5.55666 30.259 5.47617 29.9359 5.31519 29.6447C5.1542 29.3511 4.90917 29.1179 4.5801 28.9451C4.25103 28.7699 3.83318 28.6823 3.32655 28.6823H0.783936ZM3.41178 35.1738H1.66462V32.6454H3.45439C3.77162 32.6454 4.04625 32.7093 4.27825 32.8372C4.51026 32.9626 4.689 33.1307 4.81448 33.3414C4.93995 33.5498 5.00269 33.777 5.00269 34.0233C5.00269 34.3429 4.88076 34.6151 4.63692 34.84C4.39544 35.0625 3.98706 35.1738 3.41178 35.1738ZM3.29814 31.8784H1.66462V29.4636H3.32655C3.8095 29.4636 4.16225 29.576 4.38479 29.8009C4.60733 30.0235 4.71859 30.2946 4.71859 30.6142C4.71859 30.8698 4.65467 31.0924 4.52683 31.2818C4.40136 31.4712 4.23091 31.6179 4.01547 31.7221C3.8024 31.8263 3.56329 31.8784 3.29814 31.8784Z" fill="#CFD1DE"/>
<path d="M7.17421 30.5005V35.9551H8.01227V30.5005H7.17421Z" fill="#CFD1DE"/>
<path d="M7.17776 29.4245C7.29613 29.5358 7.43699 29.5914 7.60034 29.5914C7.76369 29.5914 7.90337 29.5358 8.01938 29.4245C8.13775 29.3133 8.19693 29.1795 8.19693 29.0233C8.19693 28.867 8.13775 28.7332 8.01938 28.622C7.90337 28.5107 7.76369 28.4551 7.60034 28.4551C7.43699 28.4551 7.29613 28.5107 7.17776 28.622C7.06175 28.7332 7.00375 28.867 7.00375 29.0233C7.00375 29.1795 7.06175 29.3133 7.17776 29.4245Z" fill="#CFD1DE"/>
<path d="M10.3853 35.9551V28.6823H9.54725V35.9551H10.3853Z" fill="#CFD1DE"/>
<path d="M12.7584 35.9551V28.6823H11.9203V35.9551H12.7584Z" fill="#CFD1DE"/>
<path fill-rule="evenodd" clip-rule="evenodd" d="M15.2202 35.7207C15.6013 35.9527 16.0547 36.0687 16.5803 36.0687C16.9496 36.0687 17.2822 36.0119 17.5781 35.8983C17.8741 35.7822 18.1227 35.6213 18.3239 35.4153C18.5251 35.207 18.6683 34.9655 18.7536 34.6909L17.9439 34.4636C17.8729 34.653 17.7723 34.8116 17.6421 34.9394C17.5119 35.0649 17.3568 35.1596 17.1769 35.2235C16.9993 35.2851 16.8004 35.3159 16.5803 35.3159C16.2417 35.3159 15.9446 35.2425 15.6889 35.0957C15.4333 34.9465 15.2332 34.7299 15.0888 34.4458C14.96 34.1861 14.8896 33.8748 14.8776 33.5119H18.8388V33.1568C18.8388 32.6478 18.7713 32.2193 18.6364 31.8713C18.5014 31.5233 18.3203 31.2439 18.0931 31.0332C17.8658 30.8201 17.6137 30.6662 17.3367 30.5715C17.0597 30.4768 16.7791 30.4295 16.4951 30.4295C16.0026 30.4295 15.5718 30.5502 15.2024 30.7917C14.8355 31.0308 14.549 31.3646 14.3431 31.7931C14.1395 32.2193 14.0377 32.7117 14.0377 33.2704C14.0377 33.8291 14.1395 34.3192 14.3431 34.7406C14.549 35.1596 14.8414 35.4863 15.2202 35.7207ZM14.8797 32.7875C14.8957 32.5344 14.9595 32.2953 15.071 32.0701C15.2013 31.8073 15.3871 31.5943 15.6286 31.4309C15.8724 31.2652 16.1612 31.1823 16.4951 31.1823C16.7981 31.1823 17.0609 31.2522 17.2834 31.3919C17.5083 31.5315 17.6811 31.7221 17.8019 31.9636C17.925 32.2051 17.9865 32.4797 17.9865 32.7875H14.8797Z" fill="#CFD1DE"/>
<path d="M22.4858 31.2108V30.5005H21.321V29.1937H20.483V30.5005H19.6591V31.2108H20.483V34.6198C20.483 34.9371 20.5564 35.1999 20.7031 35.4082C20.8523 35.6165 21.0393 35.7716 21.2642 35.8734C21.4915 35.9752 21.7235 36.0261 21.9602 36.0261C22.1165 36.0261 22.2455 36.0143 22.3473 35.9906C22.4491 35.9693 22.5284 35.948 22.5852 35.9267L22.4148 35.1738L22.2727 35.2022C22.2136 35.2117 22.1378 35.2164 22.0455 35.2164C21.9224 35.2164 21.8052 35.1975 21.6939 35.1596C21.585 35.1194 21.4951 35.0412 21.424 34.9252C21.3554 34.8069 21.321 34.6293 21.321 34.3926V31.2108H22.4858Z" fill="#CFD1DE"/>
<path fill-rule="evenodd" clip-rule="evenodd" d="M24.6147 35.7207C24.9959 35.9527 25.4492 36.0687 25.9748 36.0687C26.3441 36.0687 26.6768 36.0119 26.9727 35.8983C27.2686 35.7822 27.5172 35.6213 27.7184 35.4153C27.9196 35.207 28.0629 34.9655 28.1481 34.6909L27.3384 34.4636C27.2674 34.653 27.1668 34.8116 27.0366 34.9394C26.9064 35.0649 26.7513 35.1596 26.5714 35.2235C26.3938 35.2851 26.195 35.3159 25.9748 35.3159C25.6363 35.3159 25.3392 35.2425 25.0835 35.0957C24.8278 34.9465 24.6277 34.7299 24.4833 34.4458C24.3545 34.1861 24.2841 33.8748 24.2721 33.5119H28.2333V33.1568C28.2333 32.6478 28.1659 32.2193 28.0309 31.8713C27.896 31.5233 27.7149 31.2439 27.4876 31.0332C27.2603 30.8201 27.0082 30.6662 26.7312 30.5715C26.4542 30.4768 26.1737 30.4295 25.8896 30.4295C25.3972 30.4295 24.9663 30.5502 24.597 30.7917C24.23 31.0308 23.9436 31.3646 23.7376 31.7931C23.534 32.2193 23.4322 32.7117 23.4322 33.2704C23.4322 33.8291 23.534 34.3192 23.7376 34.7406C23.9436 35.1596 24.2359 35.4863 24.6147 35.7207ZM24.2743 32.7875C24.2902 32.5344 24.354 32.2953 24.4656 32.0701C24.5958 31.8073 24.7816 31.5943 25.0231 31.4309C25.2669 31.2652 25.5558 31.1823 25.8896 31.1823C26.1926 31.1823 26.4554 31.2522 26.6779 31.3919C26.9028 31.5315 27.0757 31.7221 27.1964 31.9636C27.3195 32.2051 27.3811 32.4797 27.3811 32.7875H24.2743Z" fill="#CFD1DE"/>
<path d="M29.5082 30.5005V35.9551H30.3463V32.5034C30.3463 32.2572 30.4054 32.0382 30.5238 31.8464C30.6446 31.6523 30.8079 31.5008 31.0139 31.3919C31.2222 31.2806 31.4589 31.225 31.7241 31.225C31.8354 31.225 31.9407 31.2332 32.0401 31.2498C32.1419 31.264 32.2071 31.2747 32.2355 31.2818V30.4295C32.1881 30.4248 32.1183 30.4212 32.0259 30.4188C31.9336 30.4165 31.8567 30.4153 31.7951 30.4153C31.4684 30.4153 31.1749 30.4993 30.9144 30.6674C30.654 30.8355 30.4741 31.0545 30.3747 31.3244H30.3178V30.5005H29.5082Z" fill="#CFD1DE"/>
<path fill-rule="evenodd" clip-rule="evenodd" d="M33.893 35.8876C34.1747 36.0178 34.4884 36.0829 34.834 36.0829C35.1512 36.0829 35.4199 36.0356 35.6401 35.9409C35.8603 35.8462 36.0367 35.7313 36.1692 35.5964C36.3018 35.4615 36.3965 35.3348 36.4533 35.2164H36.4959V35.9551H37.334V32.3613C37.334 31.9281 37.263 31.5824 37.1209 31.3244C36.9789 31.0663 36.8002 30.8734 36.5847 30.7456C36.3717 30.6177 36.1503 30.5337 35.9207 30.4934C35.6934 30.4508 35.4922 30.4295 35.317 30.4295C35.0423 30.4295 34.763 30.4674 34.4789 30.5431C34.1972 30.6165 33.9368 30.7467 33.6976 30.9338C33.4609 31.1184 33.2715 31.3765 33.1295 31.7079L33.9249 31.992C34.0172 31.7931 34.177 31.6061 34.4043 31.4309C34.6316 31.2557 34.9453 31.1681 35.3454 31.1681C35.7313 31.1681 36.0189 31.2652 36.2083 31.4593C36.4001 31.6535 36.4959 31.9257 36.4959 32.2761V32.3045C36.4959 32.4394 36.4474 32.5341 36.3503 32.5886C36.2556 32.643 36.1041 32.6821 35.8958 32.7058C35.6898 32.7271 35.4211 32.759 35.0897 32.8017C34.8364 32.8348 34.5842 32.8798 34.3333 32.9366C34.0847 32.9911 33.8574 33.0739 33.6515 33.1852C33.4455 33.2965 33.281 33.4503 33.1579 33.6468C33.0348 33.841 32.9732 34.0943 32.9732 34.4068C32.9732 34.7619 33.0561 35.0649 33.2218 35.3159C33.3875 35.5644 33.6112 35.755 33.893 35.8876ZM35.7999 35.1348C35.5726 35.265 35.2933 35.3301 34.9618 35.3301C34.628 35.3301 34.3522 35.2567 34.1344 35.1099C33.919 34.9608 33.8113 34.7406 33.8113 34.4494C33.8113 34.2363 33.8681 34.0682 33.9817 33.9451C34.0977 33.8197 34.2493 33.7261 34.4363 33.6646C34.6257 33.6007 34.8293 33.5545 35.0471 33.5261C35.137 33.5143 35.2542 33.5 35.3986 33.4835C35.5454 33.4645 35.6958 33.4432 35.8496 33.4196C36.0059 33.3935 36.1432 33.3639 36.2616 33.3308C36.3823 33.2953 36.4604 33.2562 36.4959 33.2136V33.9806C36.4959 34.2079 36.4368 34.4245 36.3184 34.6305C36.2024 34.8365 36.0296 35.0045 35.7999 35.1348Z" fill="#CFD1DE"/>
</svg>
