<svg width="24" height="37" viewBox="0 0 24 37" fill="none" xmlns="http://www.w3.org/2000/svg">
<path fill-rule="evenodd" clip-rule="evenodd" d="M6.93207 6.07954C6.93207 2.72837 9.64872 0.0117188 12.9999 0.0117188C16.351 0.0117188 19.0677 2.72837 19.0677 6.07954C19.0677 9.4307 16.351 12.1474 12.9999 12.1474C9.64872 12.1474 6.93207 9.4307 6.93207 6.07954ZM12.9999 2.03432C10.7658 2.03432 8.95467 3.84543 8.95467 6.07954C8.95467 8.31364 10.7658 10.1247 12.9999 10.1247C15.234 10.1247 17.0451 8.31364 17.0451 6.07954C17.0451 3.84543 15.234 2.03432 12.9999 2.03432Z" fill="#CFD1DE"/>
<path d="M12.9999 16.6982C10.6002 16.6982 8.32638 17.2313 6.77026 17.7117C5.87952 17.9866 5.22498 18.7933 5.06479 19.8231L4.89745 20.8989C4.8116 21.4508 4.29461 21.8286 3.74272 21.7427C3.19083 21.6569 2.81303 21.1399 2.89888 20.588L3.06622 19.5122C3.32791 17.8299 4.44186 16.3137 6.17367 15.7791C7.83653 15.2657 10.3239 14.6756 12.9999 14.6756C15.6759 14.6756 18.1632 15.2657 19.8261 15.7791C21.5579 16.3137 22.6719 17.8299 22.9336 19.5122L23.1009 20.588C23.1867 21.1399 22.8089 21.6569 22.2571 21.7427C21.7052 21.8286 21.1882 21.4508 21.1023 20.8989L20.935 19.8231C20.7748 18.7933 20.1203 17.9866 19.2295 17.7117C17.6734 17.2313 15.3996 16.6982 12.9999 16.6982Z" fill="#CFD1DE"/>
<path fill-rule="evenodd" clip-rule="evenodd" d="M0.619934 28.7277V36.0004H1.50062V33.3442H3.09153C3.65734 33.3442 4.12135 33.2412 4.48357 33.0352C4.84579 32.8269 5.11331 32.5475 5.28613 32.1971C5.46132 31.8468 5.54891 31.4573 5.54891 31.0288C5.54891 30.6003 5.46132 30.2121 5.28613 29.8641C5.11094 29.516 4.84105 29.2402 4.47647 29.0366C4.11425 28.8307 3.64787 28.7277 3.07732 28.7277H0.619934ZM1.50062 32.5629H3.06312C3.45374 32.5629 3.76742 32.4954 4.00417 32.3605C4.24091 32.2256 4.41255 32.0433 4.51908 31.8136C4.62798 31.5816 4.68243 31.32 4.68243 31.0288C4.68243 30.7376 4.62798 30.4772 4.51908 30.2476C4.41255 30.0179 4.23973 29.838 4.00062 29.7078C3.76151 29.5752 3.44427 29.5089 3.04891 29.5089H1.50062V32.5629Z" fill="#CFD1DE"/>
<path fill-rule="evenodd" clip-rule="evenodd" d="M7.72221 35.766C8.10336 35.998 8.55672 36.1141 9.08229 36.1141C9.45161 36.1141 9.78423 36.0572 10.0802 35.9436C10.3761 35.8276 10.6247 35.6666 10.8259 35.4606C11.0271 35.2523 11.1704 35.0108 11.2556 34.7362L10.4459 34.5089C10.3749 34.6983 10.2743 34.8569 10.1441 34.9848C10.0139 35.1103 9.85881 35.205 9.67888 35.2689C9.50133 35.3304 9.30246 35.3612 9.08229 35.3612C8.74375 35.3612 8.44664 35.2878 8.19096 35.141C7.93528 34.9919 7.73523 34.7753 7.59081 34.4912C7.46202 34.2314 7.39161 33.9201 7.3796 33.5572H11.3408V33.2021C11.3408 32.6931 11.2733 32.2646 11.1384 31.9166C11.0035 31.5686 10.8223 31.2892 10.5951 31.0785C10.3678 30.8655 10.1157 30.7116 9.83868 30.6169C9.5617 30.5222 9.28116 30.4748 8.99706 30.4748C8.50464 30.4748 8.07377 30.5956 7.70445 30.8371C7.3375 31.0762 7.05104 31.41 6.84508 31.8385C6.64148 32.2646 6.53968 32.757 6.53968 33.3158C6.53968 33.8745 6.64148 34.3645 6.84508 34.7859C7.05104 35.205 7.34342 35.5317 7.72221 35.766ZM7.38174 32.8328C7.3977 32.5798 7.46147 32.3407 7.57306 32.1155C7.70327 31.8527 7.88911 31.6396 8.13059 31.4763C8.37443 31.3105 8.66326 31.2277 8.99706 31.2277C9.30009 31.2277 9.56288 31.2975 9.78542 31.4372C10.0103 31.5769 10.1831 31.7675 10.3039 32.0089C10.427 32.2504 10.4885 32.525 10.4885 32.8328H7.38174Z" fill="#CFD1DE"/>
<path d="M12.6157 30.5459V36.0004H13.4537V32.5487C13.4537 32.3025 13.5129 32.0835 13.6313 31.8918C13.752 31.6976 13.9154 31.5461 14.1214 31.4372C14.3297 31.3259 14.5664 31.2703 14.8316 31.2703C14.9429 31.2703 15.0482 31.2786 15.1476 31.2952C15.2494 31.3094 15.3145 31.32 15.3429 31.3271V30.4748C15.2956 30.4701 15.2258 30.4666 15.1334 30.4642C15.0411 30.4618 14.9642 30.4606 14.9026 30.4606C14.5759 30.4606 14.2823 30.5447 14.0219 30.7128C13.7615 30.8809 13.5816 31.0998 13.4822 31.3697H13.4253V30.5459H12.6157Z" fill="#CFD1DE"/>
<path d="M19.1071 31.2561V30.5459H17.8856V29.9919C17.8856 29.722 17.9459 29.5172 18.0667 29.3775C18.1898 29.2379 18.3898 29.168 18.6668 29.168C18.7875 29.168 18.8846 29.1787 18.958 29.2C19.0338 29.2213 19.0929 29.2391 19.1356 29.2533L19.377 28.5288C19.3131 28.5004 19.2161 28.4696 19.0858 28.4365C18.9556 28.4034 18.7875 28.3868 18.5816 28.3868C18.3212 28.3868 18.0738 28.4389 17.8394 28.543C17.605 28.6472 17.4144 28.8034 17.2677 29.0118C17.1209 29.2201 17.0475 29.4805 17.0475 29.793V30.5459H16.1668V31.2561H17.0475V36.0004H17.8856V31.2561H19.1071Z" fill="#CFD1DE"/>
<path d="M20.2817 30.5459V36.0004H21.1198V30.5459H20.2817Z" fill="#CFD1DE"/>
<path d="M20.2852 29.4699C20.4036 29.5811 20.5445 29.6368 20.7078 29.6368C20.8712 29.6368 21.0109 29.5811 21.1269 29.4699C21.2452 29.3586 21.3044 29.2248 21.3044 29.0686C21.3044 28.9123 21.2452 28.7786 21.1269 28.6673C21.0109 28.556 20.8712 28.5004 20.7078 28.5004C20.5445 28.5004 20.4036 28.556 20.2852 28.6673C20.1692 28.7786 20.1112 28.9123 20.1112 29.0686C20.1112 29.2248 20.1692 29.3586 20.2852 29.4699Z" fill="#CFD1DE"/>
<path d="M23.4928 36.0004V28.7277H22.6547V36.0004H23.4928Z" fill="#CFD1DE"/>
</svg>
