<svg width="47" height="40" viewBox="0 0 47 40" fill="none" xmlns="http://www.w3.org/2000/svg">
<path fill-rule="evenodd" clip-rule="evenodd" d="M29.0678 2.52261H28.8951C28.4786 1.34424 27.3548 0.5 26.0339 0.5H19.966C18.6451 0.5 17.5213 1.34424 17.1048 2.52261H16.9321C14.698 2.52261 12.8869 4.3337 12.8869 6.56781V20.7261C12.8869 22.9602 14.698 24.7713 16.9321 24.7713H29.0678C31.3019 24.7713 33.113 22.9602 33.113 20.7261V6.56782C33.113 4.33371 31.3019 2.52261 29.0678 2.52261ZM14.9095 6.56781C14.9095 5.45076 15.8151 4.54521 16.9321 4.54521C16.9321 6.22079 18.2905 7.57912 19.966 7.57912H26.0339C27.7094 7.57912 29.0678 6.22079 29.0678 4.54521C30.1848 4.54521 31.0904 5.45076 31.0904 6.56782V20.7261C31.0904 21.8431 30.1848 22.7487 29.0678 22.7487H16.9321C15.8151 22.7487 14.9095 21.8431 14.9095 20.7261V6.56781ZM19.966 2.52261C19.4075 2.52261 18.9547 2.97538 18.9547 3.53391V4.54521C18.9547 5.10374 19.4075 5.55651 19.966 5.55651H26.0339C26.5924 5.55651 27.0452 5.10374 27.0452 4.54521V3.53391C27.0452 2.97538 26.5924 2.52261 26.0339 2.52261H19.966Z" fill="#CFD1DE"/>
<path fill-rule="evenodd" clip-rule="evenodd" d="M0.272339 30.2273V37.5H1.15302V34.8438H2.74393C3.30974 34.8438 3.77376 34.7408 4.13598 34.5348C4.49819 34.3265 4.76571 34.0471 4.93853 33.6967C5.11372 33.3464 5.20132 32.9569 5.20132 32.5284C5.20132 32.0999 5.11372 31.7116 4.93853 31.3636C4.76334 31.0156 4.49346 30.7398 4.12887 30.5362C3.76666 30.3303 3.30027 30.2273 2.72973 30.2273H0.272339ZM1.15302 34.0625H2.71552C3.10615 34.0625 3.41983 33.995 3.65657 33.8601C3.89331 33.7251 4.06495 33.5429 4.17149 33.3132C4.28039 33.0812 4.33484 32.8196 4.33484 32.5284C4.33484 32.2372 4.28039 31.9768 4.17149 31.7472C4.06495 31.5175 3.89213 31.3376 3.65302 31.2074C3.41391 31.0748 3.09668 31.0085 2.70132 31.0085H1.15302V34.0625Z" fill="#CFD1DE"/>
<path d="M6.50636 32.0455V37.5H7.34443V34.0483C7.34443 33.8021 7.40361 33.5831 7.52198 33.3913C7.64272 33.1972 7.80607 33.0457 8.01204 32.9368C8.22037 32.8255 8.45712 32.7699 8.72227 32.7699C8.83354 32.7699 8.93889 32.7782 9.03832 32.7947C9.14012 32.8089 9.20522 32.8196 9.23363 32.8267V31.9744C9.18628 31.9697 9.11644 31.9661 9.02411 31.9638C8.93178 31.9614 8.85484 31.9602 8.79329 31.9602C8.46659 31.9602 8.17303 32.0443 7.91261 32.2124C7.65219 32.3804 7.47227 32.5994 7.37284 32.8693H7.31602V32.0455H6.50636Z" fill="#CFD1DE"/>
<path fill-rule="evenodd" clip-rule="evenodd" d="M10.9808 37.2621C11.3525 37.4964 11.7845 37.6136 12.277 37.6136C12.7694 37.6136 13.2003 37.4964 13.5696 37.2621C13.9413 37.0277 14.2301 36.6998 14.436 36.2784C14.6444 35.857 14.7485 35.3646 14.7485 34.8011C14.7485 34.233 14.6444 33.737 14.436 33.3132C14.2301 32.8894 13.9413 32.5604 13.5696 32.326C13.2003 32.0916 12.7694 31.9744 12.277 31.9744C11.7845 31.9744 11.3525 32.0916 10.9808 32.326C10.6115 32.5604 10.3226 32.8894 10.1143 33.3132C9.90835 33.737 9.80536 34.233 9.80536 34.8011C9.80536 35.3646 9.90835 35.857 10.1143 36.2784C10.3226 36.6998 10.6115 37.0277 10.9808 37.2621ZM13.2003 36.5732C12.9588 36.7649 12.651 36.8608 12.277 36.8608C11.9029 36.8608 11.5951 36.7649 11.3537 36.5732C11.1122 36.3814 10.9334 36.1293 10.8174 35.8168C10.7014 35.5043 10.6434 35.1657 10.6434 34.8011C10.6434 34.4366 10.7014 34.0968 10.8174 33.782C10.9334 33.4671 11.1122 33.2126 11.3537 33.0185C11.5951 32.8243 11.9029 32.7273 12.277 32.7273C12.651 32.7273 12.9588 32.8243 13.2003 33.0185C13.4417 33.2126 13.6205 33.4671 13.7365 33.782C13.8525 34.0968 13.9105 34.4366 13.9105 34.8011C13.9105 35.1657 13.8525 35.5043 13.7365 35.8168C13.6205 36.1293 13.4417 36.3814 13.2003 36.5732Z" fill="#CFD1DE"/>
<path d="M15.9923 39.5099C16.1036 39.5336 16.2303 39.5455 16.3723 39.5455C16.6256 39.5455 16.8529 39.5005 17.0541 39.4105C17.2577 39.3205 17.4365 39.1821 17.5903 38.995C17.7442 38.8104 17.8733 38.5772 17.9774 38.2955L20.2928 32.0455H19.3837L17.878 36.392H17.8212L16.3155 32.0455H15.4064L17.4234 37.5284L17.2672 37.9545C17.1654 38.2315 17.0529 38.4316 16.9298 38.5547C16.8091 38.6802 16.6706 38.75 16.5143 38.7642C16.3581 38.7784 16.1782 38.7595 15.9746 38.7074L15.7615 39.446C15.8041 39.4673 15.8811 39.4886 15.9923 39.5099Z" fill="#CFD1DE"/>
<path fill-rule="evenodd" clip-rule="evenodd" d="M22.1305 37.2656C22.5116 37.4976 22.965 37.6136 23.4906 37.6136C23.8599 37.6136 24.1925 37.5568 24.4884 37.4432C24.7844 37.3272 25.0329 37.1662 25.2342 36.9602C25.4354 36.7519 25.5786 36.5104 25.6639 36.2358L24.8542 36.0085C24.7832 36.1979 24.6826 36.3565 24.5523 36.4844C24.4221 36.6098 24.2671 36.7045 24.0871 36.7685C23.9096 36.83 23.7107 36.8608 23.4906 36.8608C23.152 36.8608 22.8549 36.7874 22.5992 36.6406C22.3435 36.4915 22.1435 36.2749 21.9991 35.9908C21.8703 35.731 21.7999 35.4197 21.7879 35.0568H25.7491V34.7017C25.7491 34.1927 25.6816 33.7642 25.5467 33.4162C25.4117 33.0682 25.2306 32.7888 25.0033 32.5781C24.7761 32.3651 24.5239 32.2112 24.2469 32.1165C23.97 32.0218 23.6894 31.9744 23.4053 31.9744C22.9129 31.9744 22.482 32.0952 22.1127 32.3366C21.7458 32.5758 21.4593 32.9096 21.2533 33.3381C21.0497 33.7642 20.9479 34.2566 20.9479 34.8153C20.9479 35.3741 21.0497 35.8641 21.2533 36.2855C21.4593 36.7045 21.7517 37.0312 22.1305 37.2656ZM21.79 34.3324C21.806 34.0794 21.8697 33.8403 21.9813 33.6151C22.1115 33.3523 22.2974 33.1392 22.5389 32.9759C22.7827 32.8101 23.0715 32.7273 23.4053 32.7273C23.7084 32.7273 23.9711 32.7971 24.1937 32.9368C24.4186 33.0765 24.5914 33.267 24.7121 33.5085C24.8353 33.75 24.8968 34.0246 24.8968 34.3324H21.79Z" fill="#CFD1DE"/>
<path d="M27.9188 37.2514C28.2881 37.4929 28.7285 37.6136 29.2398 37.6136C29.6423 37.6136 29.9951 37.5391 30.2981 37.3899C30.6035 37.2384 30.8485 37.0348 31.0332 36.7791C31.2202 36.5211 31.3374 36.2311 31.3847 35.9091H30.5467C30.4946 36.108 30.407 36.2784 30.2839 36.4205C30.1608 36.5625 30.0104 36.6714 29.8329 36.7472C29.6553 36.8229 29.4576 36.8608 29.2398 36.8608C28.9084 36.8608 28.6196 36.7744 28.3734 36.6016C28.1295 36.4287 27.9401 36.1861 27.8052 35.8736C27.6726 35.5611 27.6063 35.1941 27.6063 34.7727C27.6063 34.3608 27.6738 34.0021 27.8087 33.6967C27.946 33.389 28.1366 33.151 28.3805 32.983C28.6267 32.8125 28.9131 32.7273 29.2398 32.7273C29.6092 32.7273 29.9027 32.8243 30.1205 33.0185C30.3407 33.2102 30.4827 33.4304 30.5467 33.679H31.3847C31.3374 33.3381 31.2155 33.0398 31.019 32.7841C30.8225 32.5284 30.5703 32.3295 30.2626 32.1875C29.9548 32.0455 29.6092 31.9744 29.2256 31.9744C28.7332 31.9744 28.3023 32.0952 27.933 32.3366C27.5661 32.5758 27.2796 32.9084 27.0737 33.3345C26.8701 33.7583 26.7683 34.2472 26.7683 34.8011C26.7683 35.3456 26.8677 35.8298 27.0666 36.2536C27.2654 36.6773 27.5495 37.0099 27.9188 37.2514Z" fill="#CFD1DE"/>
<path d="M34.982 32.7557V32.0455H33.8173V30.7386H32.9792V32.0455H32.1553V32.7557H32.9792V36.1648C32.9792 36.482 33.0526 36.7448 33.1994 36.9531C33.3485 37.1615 33.5355 37.3165 33.7604 37.4183C33.9877 37.5201 34.2197 37.571 34.4565 37.571C34.6127 37.571 34.7417 37.5592 34.8435 37.5355C34.9453 37.5142 35.0247 37.4929 35.0815 37.4716L34.911 36.7188L34.769 36.7472C34.7098 36.7566 34.634 36.7614 34.5417 36.7614C34.4186 36.7614 34.3014 36.7424 34.1901 36.7045C34.0812 36.6643 33.9913 36.5862 33.9202 36.4702C33.8516 36.3518 33.8173 36.1742 33.8173 35.9375V32.7557H34.982Z" fill="#CFD1DE"/>
<path fill-rule="evenodd" clip-rule="evenodd" d="M37.1038 37.2621C37.4755 37.4964 37.9076 37.6136 38.4 37.6136C38.8924 37.6136 39.3233 37.4964 39.6926 37.2621C40.0643 37.0277 40.3531 36.6998 40.5591 36.2784C40.7674 35.857 40.8716 35.3646 40.8716 34.8011C40.8716 34.233 40.7674 33.737 40.5591 33.3132C40.3531 32.8894 40.0643 32.5604 39.6926 32.326C39.3233 32.0916 38.8924 31.9744 38.4 31.9744C37.9076 31.9744 37.4755 32.0916 37.1038 32.326C36.7345 32.5604 36.4457 32.8894 36.2374 33.3132C36.0314 33.737 35.9284 34.233 35.9284 34.8011C35.9284 35.3646 36.0314 35.857 36.2374 36.2784C36.4457 36.6998 36.7345 37.0277 37.1038 37.2621ZM39.3233 36.5732C39.0818 36.7649 38.7741 36.8608 38.4 36.8608C38.026 36.8608 37.7182 36.7649 37.4767 36.5732C37.2352 36.3814 37.0565 36.1293 36.9405 35.8168C36.8245 35.5043 36.7665 35.1657 36.7665 34.8011C36.7665 34.4366 36.8245 34.0968 36.9405 33.782C37.0565 33.4671 37.2352 33.2126 37.4767 33.0185C37.7182 32.8243 38.026 32.7273 38.4 32.7273C38.7741 32.7273 39.0818 32.8243 39.3233 33.0185C39.5648 33.2126 39.7435 33.4671 39.8595 33.782C39.9755 34.0968 40.0335 34.4366 40.0335 34.8011C40.0335 35.1657 39.9755 35.5043 39.8595 35.8168C39.7435 36.1293 39.5648 36.3814 39.3233 36.5732Z" fill="#CFD1DE"/>
<path d="M45.2617 33.4801L46.0145 33.267C45.8843 32.8788 45.6642 32.5663 45.354 32.3295C45.0463 32.0928 44.6225 31.9744 44.0827 31.9744C43.6992 31.9744 43.3559 32.0419 43.0529 32.1768C42.7522 32.3118 42.5143 32.4976 42.3391 32.7344C42.1663 32.9711 42.0799 33.2434 42.0799 33.5511C42.0799 33.9276 42.1959 34.2412 42.4279 34.4922C42.6623 34.7408 43.0292 34.9242 43.5287 35.0426L44.4378 35.2557C44.7124 35.3196 44.916 35.4167 45.0486 35.5469C45.1812 35.6747 45.2475 35.8333 45.2475 36.0227C45.2475 36.2571 45.1315 36.4583 44.8995 36.6264C44.6698 36.7921 44.3597 36.875 43.9691 36.875C43.6258 36.875 43.3476 36.8016 43.1346 36.6548C42.9239 36.508 42.7806 36.2879 42.7049 35.9943L41.9094 36.1932C42.0065 36.6572 42.2373 37.0099 42.6019 37.2514C42.9665 37.4929 43.4269 37.6136 43.9833 37.6136C44.407 37.6136 44.7787 37.5426 45.0983 37.4006C45.4179 37.2585 45.6665 37.0644 45.8441 36.8182C46.024 36.572 46.114 36.2926 46.114 35.9801C46.114 35.599 45.9944 35.2876 45.7553 35.0462C45.5162 34.8023 45.1528 34.6212 44.6651 34.5028L43.8554 34.304C43.5335 34.2235 43.2967 34.1229 43.1452 34.0021C42.9937 33.8814 42.9179 33.7169 42.9179 33.5085C42.9179 33.2741 43.028 33.0812 43.2482 32.9297C43.4707 32.7758 43.7489 32.6989 44.0827 32.6989C44.3266 32.6989 44.5266 32.7379 44.6829 32.8161C44.8391 32.8942 44.9622 32.9936 45.0522 33.1143C45.1445 33.2327 45.2143 33.3546 45.2617 33.4801Z" fill="#CFD1DE"/>
</svg>
