<svg width="47" height="40" viewBox="0 0 47 40" fill="none" xmlns="http://www.w3.org/2000/svg">
<path fill-rule="evenodd" clip-rule="evenodd" d="M29.0676 2.52261H28.895C28.4785 1.34424 27.3547 0.5 26.0337 0.5H19.9659C18.6449 0.5 17.5211 1.34424 17.1046 2.52261H16.932C14.6979 2.52261 12.8868 4.3337 12.8868 6.56781V20.7261C12.8868 22.9602 14.6979 24.7713 16.932 24.7713H29.0676C31.3018 24.7713 33.1129 22.9602 33.1129 20.7261V6.56782C33.1129 4.33371 31.3018 2.52261 29.0676 2.52261ZM14.9094 6.56781C14.9094 5.45076 15.815 4.54521 16.932 4.54521C16.932 6.22079 18.2903 7.57912 19.9659 7.57912H26.0337C27.7093 7.57912 29.0676 6.22079 29.0676 4.54521C30.1847 4.54521 31.0902 5.45076 31.0902 6.56782V20.7261C31.0902 21.8431 30.1847 22.7487 29.0676 22.7487H16.932C15.815 22.7487 14.9094 21.8431 14.9094 20.7261V6.56781ZM19.9659 2.52261C19.4074 2.52261 18.9546 2.97538 18.9546 3.53391V4.54521C18.9546 5.10374 19.4074 5.55651 19.9659 5.55651H26.0337C26.5923 5.55651 27.045 5.10374 27.045 4.54521V3.53391C27.045 2.97538 26.5923 2.52261 26.0337 2.52261H19.9659Z" fill="#CFD1DE"/>
<path fill-rule="evenodd" clip-rule="evenodd" d="M0.272217 30.2273V37.5H1.1529V34.8438H2.74381C3.30962 34.8438 3.77364 34.7408 4.13585 34.5348C4.49807 34.3265 4.76559 34.0471 4.93841 33.6967C5.1136 33.3464 5.20119 32.9569 5.20119 32.5284C5.20119 32.0999 5.1136 31.7116 4.93841 31.3636C4.76322 31.0156 4.49333 30.7398 4.12875 30.5362C3.76653 30.3303 3.30015 30.2273 2.7296 30.2273H0.272217ZM1.1529 34.0625H2.7154C3.10602 34.0625 3.41971 33.995 3.65645 33.8601C3.89319 33.7251 4.06483 33.5429 4.17136 33.3132C4.28027 33.0812 4.33472 32.8196 4.33472 32.5284C4.33472 32.2372 4.28027 31.9768 4.17136 31.7472C4.06483 31.5175 3.89201 31.3376 3.6529 31.2074C3.41379 31.0748 3.09655 31.0085 2.70119 31.0085H1.1529V34.0625Z" fill="#CFD1DE"/>
<path d="M6.50624 32.0455V37.5H7.34431V34.0483C7.34431 33.8021 7.40349 33.5831 7.52186 33.3913C7.6426 33.1972 7.80595 33.0457 8.01192 32.9368C8.22025 32.8255 8.45699 32.7699 8.72215 32.7699C8.83342 32.7699 8.93877 32.7782 9.0382 32.7947C9.14 32.8089 9.2051 32.8196 9.23351 32.8267V31.9744C9.18616 31.9697 9.11632 31.9661 9.02399 31.9638C8.93166 31.9614 8.85472 31.9602 8.79317 31.9602C8.46646 31.9602 8.1729 32.0443 7.91249 32.2124C7.65207 32.3804 7.47215 32.5994 7.37271 32.8693H7.3159V32.0455H6.50624Z" fill="#CFD1DE"/>
<path fill-rule="evenodd" clip-rule="evenodd" d="M10.9807 37.2621C11.3524 37.4964 11.7844 37.6136 12.2768 37.6136C12.7693 37.6136 13.2001 37.4964 13.5694 37.2621C13.9411 37.0277 14.23 36.6998 14.4359 36.2784C14.6443 35.857 14.7484 35.3646 14.7484 34.8011C14.7484 34.233 14.6443 33.737 14.4359 33.3132C14.23 32.8894 13.9411 32.5604 13.5694 32.326C13.2001 32.0916 12.7693 31.9744 12.2768 31.9744C11.7844 31.9744 11.3524 32.0916 10.9807 32.326C10.6114 32.5604 10.3225 32.8894 10.1142 33.3132C9.90823 33.737 9.80524 34.233 9.80524 34.8011C9.80524 35.3646 9.90823 35.857 10.1142 36.2784C10.3225 36.6998 10.6114 37.0277 10.9807 37.2621ZM13.2001 36.5732C12.9587 36.7649 12.6509 36.8608 12.2768 36.8608C11.9028 36.8608 11.595 36.7649 11.3535 36.5732C11.1121 36.3814 10.9333 36.1293 10.8173 35.8168C10.7013 35.5043 10.6433 35.1657 10.6433 34.8011C10.6433 34.4366 10.7013 34.0968 10.8173 33.782C10.9333 33.4671 11.1121 33.2126 11.3535 33.0185C11.595 32.8243 11.9028 32.7273 12.2768 32.7273C12.6509 32.7273 12.9587 32.8243 13.2001 33.0185C13.4416 33.2126 13.6203 33.4671 13.7364 33.782C13.8524 34.0968 13.9104 34.4366 13.9104 34.8011C13.9104 35.1657 13.8524 35.5043 13.7364 35.8168C13.6203 36.1293 13.4416 36.3814 13.2001 36.5732Z" fill="#CFD1DE"/>
<path d="M15.9922 39.5099C16.1035 39.5336 16.2301 39.5455 16.3722 39.5455C16.6255 39.5455 16.8528 39.5005 17.054 39.4105C17.2576 39.3205 17.4363 39.1821 17.5902 38.995C17.7441 38.8104 17.8731 38.5772 17.9773 38.2955L20.2926 32.0455H19.3835L17.8779 36.392H17.821L16.3154 32.0455H15.4063L17.4233 37.5284L17.2671 37.9545C17.1653 38.2315 17.0528 38.4316 16.9297 38.5547C16.809 38.6802 16.6705 38.75 16.5142 38.7642C16.358 38.7784 16.1781 38.7595 15.9745 38.7074L15.7614 39.446C15.804 39.4673 15.8809 39.4886 15.9922 39.5099Z" fill="#CFD1DE"/>
<path fill-rule="evenodd" clip-rule="evenodd" d="M22.1303 37.2656C22.5115 37.4976 22.9649 37.6136 23.4904 37.6136C23.8598 37.6136 24.1924 37.5568 24.4883 37.4432C24.7842 37.3272 25.0328 37.1662 25.234 36.9602C25.4353 36.7519 25.5785 36.5104 25.6637 36.2358L24.8541 36.0085C24.783 36.1979 24.6824 36.3565 24.5522 36.4844C24.422 36.6098 24.2669 36.7045 24.087 36.7685C23.9095 36.83 23.7106 36.8608 23.4904 36.8608C23.1519 36.8608 22.8548 36.7874 22.5991 36.6406C22.3434 36.4915 22.1434 36.2749 21.999 35.9908C21.8702 35.731 21.7998 35.4197 21.7877 35.0568H25.749V34.7017C25.749 34.1927 25.6815 33.7642 25.5465 33.4162C25.4116 33.0682 25.2305 32.7888 25.0032 32.5781C24.7759 32.3651 24.5238 32.2112 24.2468 32.1165C23.9698 32.0218 23.6893 31.9744 23.4052 31.9744C22.9128 31.9744 22.4819 32.0952 22.1126 32.3366C21.7456 32.5758 21.4592 32.9096 21.2532 33.3381C21.0496 33.7642 20.9478 34.2566 20.9478 34.8153C20.9478 35.3741 21.0496 35.8641 21.2532 36.2855C21.4592 36.7045 21.7516 37.0312 22.1303 37.2656ZM21.7899 34.3324C21.8058 34.0794 21.8696 33.8403 21.9812 33.6151C22.1114 33.3523 22.2973 33.1392 22.5387 32.9759C22.7826 32.8101 23.0714 32.7273 23.4052 32.7273C23.7082 32.7273 23.971 32.7971 24.1936 32.9368C24.4185 33.0765 24.5913 33.267 24.712 33.5085C24.8351 33.75 24.8967 34.0246 24.8967 34.3324H21.7899Z" fill="#CFD1DE"/>
<path d="M27.9187 37.2514C28.288 37.4929 28.7284 37.6136 29.2397 37.6136C29.6422 37.6136 29.9949 37.5391 30.298 37.3899C30.6034 37.2384 30.8484 37.0348 31.033 36.7791C31.2201 36.5211 31.3373 36.2311 31.3846 35.9091H30.5465C30.4945 36.108 30.4069 36.2784 30.2838 36.4205C30.1607 36.5625 30.0103 36.6714 29.8328 36.7472C29.6552 36.8229 29.4575 36.8608 29.2397 36.8608C28.9083 36.8608 28.6195 36.7744 28.3732 36.6016C28.1294 36.4287 27.94 36.1861 27.8051 35.8736C27.6725 35.5611 27.6062 35.1941 27.6062 34.7727C27.6062 34.3608 27.6737 34.0021 27.8086 33.6967C27.9459 33.389 28.1365 33.151 28.3803 32.983C28.6266 32.8125 28.913 32.7273 29.2397 32.7273C29.609 32.7273 29.9026 32.8243 30.1204 33.0185C30.3406 33.2102 30.4826 33.4304 30.5465 33.679H31.3846C31.3373 33.3381 31.2153 33.0398 31.0188 32.7841C30.8223 32.5284 30.5702 32.3295 30.2625 32.1875C29.9547 32.0455 29.609 31.9744 29.2255 31.9744C28.7331 31.9744 28.3022 32.0952 27.9329 32.3366C27.566 32.5758 27.2795 32.9084 27.0735 33.3345C26.8699 33.7583 26.7681 34.2472 26.7681 34.8011C26.7681 35.3456 26.8676 35.8298 27.0664 36.2536C27.2653 36.6773 27.5494 37.0099 27.9187 37.2514Z" fill="#CFD1DE"/>
<path d="M34.9819 32.7557V32.0455H33.8171V30.7386H32.9791V32.0455H32.1552V32.7557H32.9791V36.1648C32.9791 36.482 33.0525 36.7448 33.1992 36.9531C33.3484 37.1615 33.5354 37.3165 33.7603 37.4183C33.9876 37.5201 34.2196 37.571 34.4563 37.571C34.6126 37.571 34.7416 37.5592 34.8434 37.5355C34.9452 37.5142 35.0245 37.4929 35.0813 37.4716L34.9109 36.7188L34.7688 36.7472C34.7097 36.7566 34.6339 36.7614 34.5416 36.7614C34.4185 36.7614 34.3013 36.7424 34.19 36.7045C34.0811 36.6643 33.9911 36.5862 33.9201 36.4702C33.8515 36.3518 33.8171 36.1742 33.8171 35.9375V32.7557H34.9819Z" fill="#CFD1DE"/>
<path fill-rule="evenodd" clip-rule="evenodd" d="M37.1037 37.2621C37.4754 37.4964 37.9075 37.6136 38.3999 37.6136C38.8923 37.6136 39.3232 37.4964 39.6925 37.2621C40.0642 37.0277 40.353 36.6998 40.559 36.2784C40.7673 35.857 40.8715 35.3646 40.8715 34.8011C40.8715 34.233 40.7673 33.737 40.559 33.3132C40.353 32.8894 40.0642 32.5604 39.6925 32.326C39.3232 32.0916 38.8923 31.9744 38.3999 31.9744C37.9075 31.9744 37.4754 32.0916 37.1037 32.326C36.7344 32.5604 36.4456 32.8894 36.2372 33.3132C36.0313 33.737 35.9283 34.233 35.9283 34.8011C35.9283 35.3646 36.0313 35.857 36.2372 36.2784C36.4456 36.6998 36.7344 37.0277 37.1037 37.2621ZM39.3232 36.5732C39.0817 36.7649 38.7739 36.8608 38.3999 36.8608C38.0258 36.8608 37.7181 36.7649 37.4766 36.5732C37.2351 36.3814 37.0564 36.1293 36.9404 35.8168C36.8244 35.5043 36.7664 35.1657 36.7664 34.8011C36.7664 34.4366 36.8244 34.0968 36.9404 33.782C37.0564 33.4671 37.2351 33.2126 37.4766 33.0185C37.7181 32.8243 38.0258 32.7273 38.3999 32.7273C38.7739 32.7273 39.0817 32.8243 39.3232 33.0185C39.5647 33.2126 39.7434 33.4671 39.8594 33.782C39.9754 34.0968 40.0334 34.4366 40.0334 34.8011C40.0334 35.1657 39.9754 35.5043 39.8594 35.8168C39.7434 36.1293 39.5647 36.3814 39.3232 36.5732Z" fill="#CFD1DE"/>
<path d="M45.2616 33.4801L46.0144 33.267C45.8842 32.8788 45.664 32.5663 45.3539 32.3295C45.0461 32.0928 44.6224 31.9744 44.0826 31.9744C43.6991 31.9744 43.3558 32.0419 43.0528 32.1768C42.7521 32.3118 42.5142 32.4976 42.339 32.7344C42.1662 32.9711 42.0797 33.2434 42.0797 33.5511C42.0797 33.9276 42.1958 34.2412 42.4278 34.4922C42.6621 34.7408 43.0291 34.9242 43.5286 35.0426L44.4377 35.2557C44.7123 35.3196 44.9159 35.4167 45.0485 35.5469C45.1811 35.6747 45.2474 35.8333 45.2474 36.0227C45.2474 36.2571 45.1314 36.4583 44.8993 36.6264C44.6697 36.7921 44.3596 36.875 43.969 36.875C43.6257 36.875 43.3475 36.8016 43.1344 36.6548C42.9237 36.508 42.7805 36.2879 42.7047 35.9943L41.9093 36.1932C42.0064 36.6572 42.2372 37.0099 42.6018 37.2514C42.9663 37.4929 43.4268 37.6136 43.9832 37.6136C44.4069 37.6136 44.7786 37.5426 45.0982 37.4006C45.4178 37.2585 45.6664 37.0644 45.844 36.8182C46.0239 36.572 46.1138 36.2926 46.1138 35.9801C46.1138 35.599 45.9943 35.2876 45.7552 35.0462C45.5161 34.8023 45.1527 34.6212 44.665 34.5028L43.8553 34.304C43.5333 34.2235 43.2966 34.1229 43.1451 34.0021C42.9936 33.8814 42.9178 33.7169 42.9178 33.5085C42.9178 33.2741 43.0279 33.0812 43.2481 32.9297C43.4706 32.7758 43.7488 32.6989 44.0826 32.6989C44.3264 32.6989 44.5265 32.7379 44.6827 32.8161C44.839 32.8942 44.9621 32.9936 45.052 33.1143C45.1444 33.2327 45.2142 33.3546 45.2616 33.4801Z" fill="#CFD1DE"/>
</svg>
