<svg width="24" height="37" viewBox="0 0 24 37" fill="none" xmlns="http://www.w3.org/2000/svg">
<path fill-rule="evenodd" clip-rule="evenodd" d="M6.93201 6.19282C6.93201 2.84165 9.64866 0.125 12.9998 0.125C16.351 0.125 19.0676 2.84165 19.0676 6.19282C19.0676 9.54398 16.351 12.2606 12.9998 12.2606C9.64866 12.2606 6.93201 9.54398 6.93201 6.19282ZM12.9998 2.14761C10.7657 2.14761 8.95461 3.95871 8.95461 6.19282C8.95461 8.42693 10.7657 10.238 12.9998 10.238C15.2339 10.238 17.045 8.42693 17.045 6.19282C17.045 3.95871 15.2339 2.14761 12.9998 2.14761Z" fill="#CFD1DE"/>
<path d="M12.9998 16.8115C10.6001 16.8115 8.32632 17.3446 6.7702 17.825C5.87946 18.0999 5.22492 18.9066 5.06473 19.9364L4.89738 21.0122C4.81153 21.564 4.29455 21.9418 3.74266 21.856C3.19077 21.7701 2.81297 21.2532 2.89881 20.7013L3.06616 19.6255C3.32785 17.9432 4.4418 16.4269 6.17361 15.8923C7.83647 15.379 10.3238 14.7889 12.9998 14.7889C15.6758 14.7889 18.1632 15.379 19.826 15.8923C21.5579 16.4269 22.6718 17.9432 22.9335 19.6255L23.1008 20.7013C23.1867 21.2532 22.8089 21.7701 22.257 21.856C21.7051 21.9418 21.1881 21.564 21.1023 21.0122L20.9349 19.9364C20.7747 18.9066 20.1202 18.0999 19.2295 17.825C17.6733 17.3446 15.3995 16.8115 12.9998 16.8115Z" fill="#CFD1DE"/>
<path fill-rule="evenodd" clip-rule="evenodd" d="M0.619873 28.841V36.1137H1.50055V33.4574H3.09146C3.65728 33.4574 4.12129 33.3545 4.48351 33.1485C4.84573 32.9402 5.11324 32.6608 5.28607 32.3104C5.46126 31.9601 5.54885 31.5706 5.54885 31.1421C5.54885 30.7136 5.46126 30.3253 5.28607 29.9773C5.11088 29.6293 4.84099 29.3535 4.47641 29.1499C4.11419 28.944 3.64781 28.841 3.07726 28.841H0.619873ZM1.50055 32.6762H3.06306C3.45368 32.6762 3.76736 32.6087 4.00411 32.4738C4.24085 32.3388 4.41249 32.1565 4.51902 31.9269C4.62792 31.6949 4.68237 31.4333 4.68237 31.1421C4.68237 30.8509 4.62792 30.5905 4.51902 30.3609C4.41249 30.1312 4.23966 29.9513 4.00056 29.8211C3.76145 29.6885 3.44421 29.6222 3.04885 29.6222H1.50055V32.6762Z" fill="#CFD1DE"/>
<path fill-rule="evenodd" clip-rule="evenodd" d="M7.72215 35.8793C8.1033 36.1113 8.55666 36.2273 9.08223 36.2273C9.45155 36.2273 9.78417 36.1705 10.0801 36.0569C10.376 35.9409 10.6246 35.7799 10.8258 35.5739C11.0271 35.3656 11.1703 35.1241 11.2555 34.8495L10.4459 34.6222C10.3748 34.8116 10.2742 34.9702 10.144 35.0981C10.0138 35.2235 9.85875 35.3182 9.67882 35.3822C9.50127 35.4437 9.3024 35.4745 9.08223 35.4745C8.74369 35.4745 8.44658 35.4011 8.1909 35.2543C7.93521 35.1052 7.73517 34.8886 7.59075 34.6045C7.46196 34.3447 7.39155 34.0334 7.37954 33.6705H11.3408V33.3154C11.3408 32.8064 11.2733 32.3779 11.1383 32.0299C11.0034 31.6819 10.8223 31.4025 10.595 31.1918C10.3677 30.9788 10.1156 30.8249 9.83862 30.7302C9.56163 30.6355 9.28109 30.5881 8.997 30.5881C8.50458 30.5881 8.07371 30.7089 7.70439 30.9503C7.33744 31.1895 7.05098 31.5233 6.84502 31.9518C6.64142 32.3779 6.53962 32.8703 6.53962 33.429C6.53962 33.9878 6.64142 34.4778 6.84502 34.8992C7.05098 35.3182 7.34336 35.6449 7.72215 35.8793ZM7.38168 32.9461C7.39764 32.6931 7.46141 32.454 7.573 32.2288C7.70321 31.966 7.88905 31.7529 8.13053 31.5896C8.37437 31.4238 8.6632 31.341 8.997 31.341C9.30003 31.341 9.56282 31.4108 9.78536 31.5505C10.0103 31.6902 10.1831 31.8807 10.3038 32.1222C10.4269 32.3637 10.4885 32.6383 10.4885 32.9461H7.38168Z" fill="#CFD1DE"/>
<path d="M12.6156 30.6592V36.1137H13.4537V32.662C13.4537 32.4158 13.5129 32.1968 13.6312 32.005C13.752 31.8109 13.9153 31.6594 14.1213 31.5505C14.3296 31.4392 14.5664 31.3836 14.8315 31.3836C14.9428 31.3836 15.0481 31.3919 15.1476 31.4084C15.2494 31.4226 15.3145 31.4333 15.3429 31.4404V30.5881C15.2955 30.5834 15.2257 30.5798 15.1334 30.5775C15.041 30.5751 14.9641 30.5739 14.9025 30.5739C14.5758 30.5739 14.2823 30.658 14.0219 30.8261C13.7614 30.9941 13.5815 31.2131 13.4821 31.483H13.4253V30.6592H12.6156Z" fill="#CFD1DE"/>
<path d="M19.1071 31.3694V30.6592H17.8855V30.1052C17.8855 29.8353 17.9459 29.6305 18.0666 29.4908C18.1897 29.3511 18.3898 29.2813 18.6667 29.2813C18.7875 29.2813 18.8846 29.292 18.9579 29.3133C19.0337 29.3346 19.0929 29.3523 19.1355 29.3665L19.377 28.6421C19.3131 28.6137 19.216 28.5829 19.0858 28.5498C18.9556 28.5166 18.7875 28.5001 18.5815 28.5001C18.3211 28.5001 18.0737 28.5521 17.8393 28.6563C17.605 28.7605 17.4144 28.9167 17.2676 29.1251C17.1208 29.3334 17.0474 29.5938 17.0474 29.9063V30.6592H16.1667V31.3694H17.0474V36.1137H17.8855V31.3694H19.1071Z" fill="#CFD1DE"/>
<path d="M20.2816 30.6592V36.1137H21.1197V30.6592H20.2816Z" fill="#CFD1DE"/>
<path d="M20.2852 29.5832C20.4035 29.6944 20.5444 29.7501 20.7078 29.7501C20.8711 29.7501 21.0108 29.6944 21.1268 29.5832C21.2452 29.4719 21.3044 29.3381 21.3044 29.1819C21.3044 29.0256 21.2452 28.8919 21.1268 28.7806C21.0108 28.6693 20.8711 28.6137 20.7078 28.6137C20.5444 28.6137 20.4035 28.6693 20.2852 28.7806C20.1692 28.8919 20.1112 29.0256 20.1112 29.1819C20.1112 29.3381 20.1692 29.4719 20.2852 29.5832Z" fill="#CFD1DE"/>
<path d="M23.4927 36.1137V28.841H22.6547V36.1137H23.4927Z" fill="#CFD1DE"/>
</svg>
