<svg width="28" height="38" viewBox="0 0 28 38" fill="none" xmlns="http://www.w3.org/2000/svg">
<path fill-rule="evenodd" clip-rule="evenodd" d="M14.5996 0.894227C14.243 0.631612 13.7569 0.631612 13.4003 0.894227L4.52222 7.43172C3.48687 8.19412 2.87562 9.40331 2.87562 10.6891V21.429C2.87562 23.3838 4.46033 24.9685 6.41518 24.9685H9.95474C11.0718 24.9685 11.9773 24.063 11.9773 22.9459V17.3838H16.0226V22.9459C16.0226 24.063 16.9281 24.9685 18.0452 24.9685H21.5847C23.5396 24.9685 25.1243 23.3838 25.1243 21.429V10.6891C25.1243 9.40331 24.513 8.19411 23.4777 7.43172L14.5996 0.894227ZM5.72153 9.0604L13.9999 2.96447L22.2784 9.0604C22.796 9.4416 23.1017 10.0462 23.1017 10.6891V21.429C23.1017 22.2668 22.4225 22.9459 21.5847 22.9459H18.0452V16.8781C18.0452 16.0403 17.366 15.3612 16.5282 15.3612H11.4717C10.6339 15.3612 9.95474 16.0403 9.95474 16.8781V22.9459H6.41518C5.57739 22.9459 4.89822 22.2668 4.89822 21.429V10.6891C4.89822 10.0462 5.20385 9.4416 5.72153 9.0604Z" fill="#CFD1DE"/>
<path d="M0.940308 30.4245V37.6973H1.82099V34.4444H5.69883V37.6973H6.57951V30.4245H5.69883V33.6632H1.82099V30.4245H0.940308Z" fill="#CFD1DE"/>
<path fill-rule="evenodd" clip-rule="evenodd" d="M9.14876 37.4593C9.52045 37.6937 9.9525 37.8109 10.4449 37.8109C10.9374 37.8109 11.3682 37.6937 11.7375 37.4593C12.1092 37.225 12.3981 36.8971 12.604 36.4757C12.8124 36.0543 12.9165 35.5618 12.9165 34.9984C12.9165 34.4302 12.8124 33.9342 12.604 33.5105C12.3981 33.0867 12.1092 32.7576 11.7375 32.5233C11.3682 32.2889 10.9374 32.1717 10.4449 32.1717C9.9525 32.1717 9.52045 32.2889 9.14876 32.5233C8.77944 32.7576 8.49062 33.0867 8.28228 33.5105C8.07632 33.9342 7.97333 34.4302 7.97333 34.9984C7.97333 35.5618 8.07632 36.0543 8.28228 36.4757C8.49062 36.8971 8.77944 37.225 9.14876 37.4593ZM11.3682 36.7704C11.1267 36.9622 10.819 37.0581 10.4449 37.0581C10.0709 37.0581 9.76311 36.9622 9.52163 36.7704C9.28015 36.5787 9.10141 36.3265 8.98541 36.014C8.8694 35.7015 8.8114 35.363 8.8114 34.9984C8.8114 34.6338 8.8694 34.2941 8.98541 33.9792C9.10141 33.6644 9.28015 33.4099 9.52163 33.2157C9.76311 33.0216 10.0709 32.9245 10.4449 32.9245C10.819 32.9245 11.1267 33.0216 11.3682 33.2157C11.6097 33.4099 11.7884 33.6644 11.9044 33.9792C12.0204 34.2941 12.0784 34.6338 12.0784 34.9984C12.0784 35.363 12.0204 35.7015 11.9044 36.014C11.7884 36.3265 11.6097 36.5787 11.3682 36.7704Z" fill="#CFD1DE"/>
<path d="M14.1958 32.2427V37.6973H15.0339V34.2882C15.0339 34.0207 15.0907 33.7851 15.2043 33.5815C15.3203 33.3755 15.4719 33.2145 15.6589 33.0985C15.8483 32.9825 16.0519 32.9245 16.2697 32.9245C16.5869 32.9245 16.8461 33.0204 17.0474 33.2122C17.2486 33.4016 17.3492 33.6513 17.3492 33.9615V37.6973H18.2015V34.1461C18.2015 33.7934 18.3068 33.5022 18.5175 33.2725C18.7282 33.0405 19.0254 32.9245 19.4089 32.9245C19.7072 32.9245 19.9664 33.0109 20.1866 33.1838C20.4068 33.3566 20.5168 33.6442 20.5168 34.0467V37.6973H21.3549V34.0467C21.3549 33.4051 21.1998 32.9328 20.8897 32.6298C20.5796 32.3244 20.1807 32.1717 19.693 32.1717C19.3023 32.1717 18.9674 32.2557 18.688 32.4238C18.4086 32.5895 18.1991 32.8133 18.0595 33.095H18.0026C17.8677 32.8038 17.6795 32.5777 17.438 32.4167C17.1989 32.2534 16.8994 32.1717 16.5396 32.1717C16.1845 32.1717 15.8802 32.2534 15.6269 32.4167C15.3736 32.5777 15.1901 32.8038 15.0765 33.095H15.0055V32.2427H14.1958Z" fill="#CFD1DE"/>
<path fill-rule="evenodd" clip-rule="evenodd" d="M23.8141 37.4629C24.1952 37.6949 24.6486 37.8109 25.1742 37.8109C25.5435 37.8109 25.8761 37.7541 26.172 37.6404C26.4679 37.5244 26.7165 37.3635 26.9178 37.1575C27.119 36.9492 27.2622 36.7077 27.3474 36.4331L26.5378 36.2058C26.4668 36.3952 26.3661 36.5538 26.2359 36.6816C26.1057 36.8071 25.9507 36.9018 25.7707 36.9657C25.5932 37.0273 25.3943 37.0581 25.1742 37.0581C24.8356 37.0581 24.5385 36.9847 24.2828 36.8379C24.0271 36.6887 23.8271 36.4721 23.6827 36.188C23.5539 35.9283 23.4835 35.617 23.4715 35.2541H27.4327V34.899C27.4327 34.39 27.3652 33.9615 27.2303 33.6135C27.0953 33.2654 26.9142 32.9861 26.6869 32.7754C26.4597 32.5623 26.2075 32.4084 25.9305 32.3137C25.6536 32.219 25.373 32.1717 25.0889 32.1717C24.5965 32.1717 24.1656 32.2924 23.7963 32.5339C23.4294 32.773 23.1429 33.1068 22.9369 33.5353C22.7333 33.9615 22.6315 34.4539 22.6315 35.0126C22.6315 35.5713 22.7333 36.0614 22.9369 36.4828C23.1429 36.9018 23.4353 37.2285 23.8141 37.4629ZM23.4736 34.5297C23.4896 34.2766 23.5533 34.0375 23.6649 33.8123C23.7951 33.5495 23.981 33.3365 24.2224 33.1731C24.4663 33.0074 24.7551 32.9245 25.0889 32.9245C25.392 32.9245 25.6547 32.9944 25.8773 33.1341C26.1022 33.2737 26.275 33.4643 26.3957 33.7058C26.5188 33.9473 26.5804 34.2219 26.5804 34.5297H23.4736Z" fill="#CFD1DE"/>
</svg>
