<svg width="28" height="38" viewBox="0 0 28 38" fill="none" xmlns="http://www.w3.org/2000/svg">
<path fill-rule="evenodd" clip-rule="evenodd" d="M14.5996 0.696962C14.243 0.434346 13.7569 0.434346 13.4003 0.696962L4.52222 7.23445C3.48687 7.99685 2.87562 9.20605 2.87562 10.4918V21.2317C2.87562 23.1866 4.46033 24.7713 6.41518 24.7713H9.95474C11.0718 24.7713 11.9773 23.8657 11.9773 22.7487V17.1865H16.0226V22.7487C16.0226 23.8657 16.9281 24.7713 18.0452 24.7713H21.5847C23.5396 24.7713 25.1243 23.1866 25.1243 21.2317V10.4918C25.1243 9.20605 24.513 7.99685 23.4777 7.23445L14.5996 0.696962ZM5.72153 8.86313L13.9999 2.76721L22.2784 8.86313C22.796 9.24433 23.1017 9.84893 23.1017 10.4918V21.2317C23.1017 22.0695 22.4225 22.7487 21.5847 22.7487H18.0452V16.6808C18.0452 15.8431 17.366 15.1639 16.5282 15.1639H11.4717C10.6339 15.1639 9.95474 15.8431 9.95474 16.6808V22.7487H6.41518C5.57739 22.7487 4.89822 22.0695 4.89822 21.2317V10.4918C4.89822 9.84893 5.20385 9.24433 5.72153 8.86313Z" fill="#CFD1DE"/>
<path d="M0.940308 30.2273V37.5H1.82099V34.2472H5.69883V37.5H6.57951V30.2273H5.69883V33.4659H1.82099V30.2273H0.940308Z" fill="#CFD1DE"/>
<path fill-rule="evenodd" clip-rule="evenodd" d="M9.14876 37.2621C9.52045 37.4964 9.9525 37.6136 10.4449 37.6136C10.9374 37.6136 11.3682 37.4964 11.7375 37.2621C12.1092 37.0277 12.3981 36.6998 12.604 36.2784C12.8124 35.857 12.9165 35.3646 12.9165 34.8011C12.9165 34.233 12.8124 33.737 12.604 33.3132C12.3981 32.8894 12.1092 32.5604 11.7375 32.326C11.3682 32.0916 10.9374 31.9744 10.4449 31.9744C9.9525 31.9744 9.52045 32.0916 9.14876 32.326C8.77944 32.5604 8.49062 32.8894 8.28228 33.3132C8.07632 33.737 7.97333 34.233 7.97333 34.8011C7.97333 35.3646 8.07632 35.857 8.28228 36.2784C8.49062 36.6998 8.77944 37.0277 9.14876 37.2621ZM11.3682 36.5732C11.1267 36.7649 10.819 36.8608 10.4449 36.8608C10.0709 36.8608 9.76311 36.7649 9.52163 36.5732C9.28015 36.3814 9.10141 36.1293 8.98541 35.8168C8.8694 35.5043 8.8114 35.1657 8.8114 34.8011C8.8114 34.4366 8.8694 34.0968 8.98541 33.782C9.10141 33.4671 9.28015 33.2126 9.52163 33.0185C9.76311 32.8243 10.0709 32.7273 10.4449 32.7273C10.819 32.7273 11.1267 32.8243 11.3682 33.0185C11.6097 33.2126 11.7884 33.4671 11.9044 33.782C12.0204 34.0968 12.0784 34.4366 12.0784 34.8011C12.0784 35.1657 12.0204 35.5043 11.9044 35.8168C11.7884 36.1293 11.6097 36.3814 11.3682 36.5732Z" fill="#CFD1DE"/>
<path d="M14.1958 32.0455V37.5H15.0339V34.0909C15.0339 33.8234 15.0907 33.5878 15.2043 33.3842C15.3203 33.1783 15.4719 33.0173 15.6589 32.9013C15.8483 32.7853 16.0519 32.7273 16.2697 32.7273C16.5869 32.7273 16.8461 32.8232 17.0474 33.0149C17.2486 33.2043 17.3492 33.4541 17.3492 33.7642V37.5H18.2015V33.9489C18.2015 33.5961 18.3068 33.3049 18.5175 33.0753C18.7282 32.8433 19.0254 32.7273 19.4089 32.7273C19.7072 32.7273 19.9664 32.8137 20.1866 32.9865C20.4068 33.1593 20.5168 33.447 20.5168 33.8494V37.5H21.3549V33.8494C21.3549 33.2079 21.1998 32.7356 20.8897 32.4325C20.5796 32.1271 20.1807 31.9744 19.693 31.9744C19.3023 31.9744 18.9674 32.0585 18.688 32.2266C18.4086 32.3923 18.1991 32.616 18.0595 32.8977H18.0026C17.8677 32.6065 17.6795 32.3804 17.438 32.2195C17.1989 32.0561 16.8994 31.9744 16.5396 31.9744C16.1845 31.9744 15.8802 32.0561 15.6269 32.2195C15.3736 32.3804 15.1901 32.6065 15.0765 32.8977H15.0055V32.0455H14.1958Z" fill="#CFD1DE"/>
<path fill-rule="evenodd" clip-rule="evenodd" d="M23.8141 37.2656C24.1952 37.4976 24.6486 37.6136 25.1742 37.6136C25.5435 37.6136 25.8761 37.5568 26.172 37.4432C26.4679 37.3272 26.7165 37.1662 26.9178 36.9602C27.119 36.7519 27.2622 36.5104 27.3474 36.2358L26.5378 36.0085C26.4668 36.1979 26.3661 36.3565 26.2359 36.4844C26.1057 36.6098 25.9507 36.7045 25.7707 36.7685C25.5932 36.83 25.3943 36.8608 25.1742 36.8608C24.8356 36.8608 24.5385 36.7874 24.2828 36.6406C24.0271 36.4915 23.8271 36.2749 23.6827 35.9908C23.5539 35.731 23.4835 35.4197 23.4715 35.0568H27.4327V34.7017C27.4327 34.1927 27.3652 33.7642 27.2303 33.4162C27.0953 33.0682 26.9142 32.7888 26.6869 32.5781C26.4597 32.3651 26.2075 32.2112 25.9305 32.1165C25.6536 32.0218 25.373 31.9744 25.0889 31.9744C24.5965 31.9744 24.1656 32.0952 23.7963 32.3366C23.4294 32.5758 23.1429 32.9096 22.9369 33.3381C22.7333 33.7642 22.6315 34.2566 22.6315 34.8153C22.6315 35.3741 22.7333 35.8641 22.9369 36.2855C23.1429 36.7045 23.4353 37.0312 23.8141 37.2656ZM23.4736 34.3324C23.4896 34.0794 23.5533 33.8403 23.6649 33.6151C23.7951 33.3523 23.981 33.1392 24.2224 32.9759C24.4663 32.8101 24.7551 32.7273 25.0889 32.7273C25.392 32.7273 25.6547 32.7971 25.8773 32.9368C26.1022 33.0765 26.275 33.267 26.3957 33.5085C26.5188 33.75 26.5804 34.0246 26.5804 34.3324H23.4736Z" fill="#CFD1DE"/>
</svg>
