<svg width="24" height="37" viewBox="0 0 24 37" fill="none" xmlns="http://www.w3.org/2000/svg">
<path fill-rule="evenodd" clip-rule="evenodd" d="M6.93207 6.07911C6.93207 2.72795 9.64872 0.0112915 12.9999 0.0112915C16.351 0.0112915 19.0677 2.72795 19.0677 6.07911C19.0677 9.43027 16.351 12.1469 12.9999 12.1469C9.64872 12.1469 6.93207 9.43027 6.93207 6.07911ZM12.9999 2.0339C10.7658 2.0339 8.95467 3.845 8.95467 6.07911C8.95467 8.31322 10.7658 10.1243 12.9999 10.1243C15.234 10.1243 17.0451 8.31322 17.0451 6.07911C17.0451 3.845 15.234 2.0339 12.9999 2.0339Z" fill="#55B3FF"/>
<path d="M12.9999 16.6978C10.6002 16.6978 8.32638 17.2309 6.77026 17.7112C5.87952 17.9862 5.22498 18.7929 5.06479 19.8227L4.89745 20.8984C4.8116 21.4503 4.29461 21.8281 3.74272 21.7423C3.19083 21.6564 2.81303 21.1394 2.89888 20.5876L3.06622 19.5118C3.32791 17.8295 4.44186 16.3132 6.17367 15.7786C7.83653 15.2653 10.3239 14.6752 12.9999 14.6752C15.6759 14.6752 18.1632 15.2653 19.8261 15.7786C21.5579 16.3132 22.6719 17.8295 22.9336 19.5118L23.1009 20.5876C23.1867 21.1394 22.8089 21.6564 22.2571 21.7423C21.7052 21.8281 21.1882 21.4503 21.1023 20.8984L20.935 19.8227C20.7748 18.7929 20.1203 17.9862 19.2295 17.7112C17.6734 17.2309 15.3996 16.6978 12.9999 16.6978Z" fill="#55B3FF"/>
<path fill-rule="evenodd" clip-rule="evenodd" d="M0.619934 28.7273V36H1.50062V33.3437H3.09153C3.65734 33.3437 4.12135 33.2408 4.48357 33.0348C4.84579 32.8265 5.11331 32.5471 5.28613 32.1967C5.46132 31.8463 5.54891 31.4569 5.54891 31.0284C5.54891 30.5999 5.46132 30.2116 5.28613 29.8636C5.11094 29.5156 4.84105 29.2398 4.47647 29.0362C4.11425 28.8302 3.64787 28.7273 3.07732 28.7273H0.619934ZM1.50062 32.5625H3.06312C3.45374 32.5625 3.76742 32.495 4.00417 32.3601C4.24091 32.2251 4.41255 32.0428 4.51908 31.8132C4.62798 31.5812 4.68243 31.3196 4.68243 31.0284C4.68243 30.7372 4.62798 30.4768 4.51908 30.2471C4.41255 30.0175 4.23973 29.8376 4.00062 29.7074C3.76151 29.5748 3.44427 29.5085 3.04891 29.5085H1.50062V32.5625Z" fill="#55B3FF"/>
<path fill-rule="evenodd" clip-rule="evenodd" d="M7.72221 35.7656C8.10336 35.9976 8.55672 36.1136 9.08229 36.1136C9.45161 36.1136 9.78423 36.0568 10.0802 35.9432C10.3761 35.8272 10.6247 35.6662 10.8259 35.4602C11.0271 35.2519 11.1704 35.0104 11.2556 34.7358L10.4459 34.5085C10.3749 34.6979 10.2743 34.8565 10.1441 34.9844C10.0139 35.1098 9.85881 35.2045 9.67888 35.2685C9.50133 35.33 9.30246 35.3608 9.08229 35.3608C8.74375 35.3608 8.44664 35.2874 8.19096 35.1406C7.93528 34.9915 7.73523 34.7748 7.59081 34.4908C7.46202 34.231 7.39161 33.9197 7.3796 33.5568H11.3408V33.2017C11.3408 32.6927 11.2733 32.2642 11.1384 31.9162C11.0035 31.5682 10.8223 31.2888 10.5951 31.0781C10.3678 30.865 10.1157 30.7112 9.83868 30.6165C9.5617 30.5218 9.28116 30.4744 8.99706 30.4744C8.50464 30.4744 8.07377 30.5952 7.70445 30.8366C7.3375 31.0757 7.05104 31.4096 6.84508 31.8381C6.64148 32.2642 6.53968 32.7566 6.53968 33.3153C6.53968 33.874 6.64148 34.3641 6.84508 34.7855C7.05104 35.2045 7.34342 35.5312 7.72221 35.7656ZM7.38174 32.8324C7.3977 32.5794 7.46147 32.3402 7.57306 32.115C7.70327 31.8523 7.88911 31.6392 8.13059 31.4758C8.37443 31.3101 8.66326 31.2273 8.99706 31.2273C9.30009 31.2273 9.56288 31.2971 9.78542 31.4368C10.0103 31.5765 10.1831 31.767 10.3039 32.0085C10.427 32.25 10.4885 32.5246 10.4885 32.8324H7.38174Z" fill="#55B3FF"/>
<path d="M12.6157 30.5454V36H13.4537V32.5483C13.4537 32.3021 13.5129 32.0831 13.6313 31.8913C13.752 31.6972 13.9154 31.5457 14.1214 31.4368C14.3297 31.3255 14.5664 31.2699 14.8316 31.2699C14.9429 31.2699 15.0482 31.2782 15.1476 31.2947C15.2494 31.3089 15.3145 31.3196 15.3429 31.3267V30.4744C15.2956 30.4697 15.2258 30.4661 15.1334 30.4638C15.0411 30.4614 14.9642 30.4602 14.9026 30.4602C14.5759 30.4602 14.2823 30.5443 14.0219 30.7123C13.7615 30.8804 13.5816 31.0994 13.4822 31.3693H13.4253V30.5454H12.6157Z" fill="#55B3FF"/>
<path d="M19.1071 31.2557V30.5454H17.8856V29.9915C17.8856 29.7216 17.9459 29.5168 18.0667 29.3771C18.1898 29.2374 18.3898 29.1676 18.6668 29.1676C18.7875 29.1676 18.8846 29.1783 18.958 29.1996C19.0338 29.2209 19.0929 29.2386 19.1356 29.2528L19.377 28.5284C19.3131 28.5 19.2161 28.4692 19.0858 28.4361C18.9556 28.4029 18.7875 28.3864 18.5816 28.3864C18.3212 28.3864 18.0738 28.4384 17.8394 28.5426C17.605 28.6468 17.4144 28.803 17.2677 29.0114C17.1209 29.2197 17.0475 29.4801 17.0475 29.7926V30.5454H16.1668V31.2557H17.0475V36H17.8856V31.2557H19.1071Z" fill="#55B3FF"/>
<path d="M20.2817 30.5454V36H21.1198V30.5454H20.2817Z" fill="#55B3FF"/>
<path d="M20.2852 29.4694C20.4036 29.5807 20.5445 29.6364 20.7078 29.6364C20.8712 29.6364 21.0109 29.5807 21.1269 29.4694C21.2452 29.3582 21.3044 29.2244 21.3044 29.0682C21.3044 28.9119 21.2452 28.7782 21.1269 28.6669C21.0109 28.5556 20.8712 28.5 20.7078 28.5C20.5445 28.5 20.4036 28.5556 20.2852 28.6669C20.1692 28.7782 20.1112 28.9119 20.1112 29.0682C20.1112 29.2244 20.1692 29.3582 20.2852 29.4694Z" fill="#55B3FF"/>
<path d="M23.4928 36V28.7273H22.6547V36H23.4928Z" fill="#55B3FF"/>
</svg>
