<svg width="38" height="36" viewBox="0 0 38 36" fill="none" xmlns="http://www.w3.org/2000/svg">
<path fill-rule="evenodd" clip-rule="evenodd" d="M10.9381 0.103516C8.70691 0.103516 6.89814 1.91228 6.89814 4.14351V18.3096C6.89814 20.5408 8.70691 22.3496 10.9381 22.3496H27.0616C29.2928 22.3496 31.1016 20.5408 31.1016 18.3096V8.09421C31.1016 5.86298 29.2928 4.05421 27.0616 4.05421H10.4122C9.85451 4.05421 9.40244 3.60214 9.40244 3.04447C9.40244 2.97892 9.39619 2.91482 9.38426 2.85275C9.75479 2.40718 10.3133 2.12352 10.9381 2.12352H28.0955C28.6533 2.12352 29.1055 1.67132 29.1055 1.11352C29.1055 0.555708 28.6533 0.103516 28.0955 0.103516H10.9381ZM8.91814 18.3096V5.68083C9.35903 5.93122 9.8689 6.07421 10.4122 6.07421H27.0616C28.1772 6.07421 29.0816 6.9786 29.0816 8.09421V18.3096C29.0816 19.4252 28.1772 20.3296 27.0616 20.3296H10.9381C9.82252 20.3296 8.91814 19.4252 8.91814 18.3096Z" fill="#CFD1DE"/>
<path fill-rule="evenodd" clip-rule="evenodd" d="M0.783936 27.7956V35.0684H3.41178C3.98469 35.0684 4.44989 34.9831 4.80737 34.8127C5.16485 34.6422 5.42645 34.4114 5.59217 34.1202C5.75789 33.829 5.84075 33.5011 5.84075 33.1365C5.84075 32.753 5.765 32.4287 5.61348 32.1635C5.46197 31.8984 5.27376 31.6948 5.04885 31.5527C4.82395 31.4107 4.60022 31.3326 4.37769 31.3183V31.2473C4.58602 31.1905 4.77896 31.1029 4.95652 30.9845C5.13645 30.8662 5.28086 30.7052 5.38976 30.5016C5.50103 30.298 5.55666 30.0399 5.55666 29.7274C5.55666 29.3723 5.47617 29.0492 5.31519 28.758C5.1542 28.4644 4.90917 28.2312 4.5801 28.0584C4.25103 27.8832 3.83318 27.7956 3.32655 27.7956H0.783936ZM3.41178 34.2871H1.66462V31.7587H3.45439C3.77162 31.7587 4.04625 31.8226 4.27825 31.9505C4.51026 32.0759 4.689 32.244 4.81448 32.4547C4.93995 32.663 5.00269 32.8903 5.00269 33.1365C5.00269 33.4561 4.88076 33.7284 4.63692 33.9533C4.39544 34.1758 3.98706 34.2871 3.41178 34.2871ZM3.29814 30.9916H1.66462V28.5769H3.32655C3.8095 28.5769 4.16225 28.6893 4.38479 28.9142C4.60733 29.1368 4.71859 29.4078 4.71859 29.7274C4.71859 29.9831 4.65467 30.2057 4.52683 30.3951C4.40136 30.5844 4.23091 30.7312 4.01547 30.8354C3.8024 30.9396 3.56329 30.9916 3.29814 30.9916Z" fill="#CFD1DE"/>
<path d="M7.17421 29.6138V35.0684H8.01227V29.6138H7.17421Z" fill="#CFD1DE"/>
<path d="M7.17776 28.5378C7.29613 28.6491 7.43699 28.7047 7.60034 28.7047C7.76369 28.7047 7.90337 28.6491 8.01938 28.5378C8.13775 28.4265 8.19693 28.2928 8.19693 28.1365C8.19693 27.9803 8.13775 27.8465 8.01938 27.7353C7.90337 27.624 7.76369 27.5683 7.60034 27.5683C7.43699 27.5683 7.29613 27.624 7.17776 27.7353C7.06175 27.8465 7.00375 27.9803 7.00375 28.1365C7.00375 28.2928 7.06175 28.4265 7.17776 28.5378Z" fill="#CFD1DE"/>
<path d="M10.3853 35.0684V27.7956H9.54725V35.0684H10.3853Z" fill="#CFD1DE"/>
<path d="M12.7584 35.0684V27.7956H11.9203V35.0684H12.7584Z" fill="#CFD1DE"/>
<path fill-rule="evenodd" clip-rule="evenodd" d="M15.2202 34.834C15.6013 35.066 16.0547 35.182 16.5803 35.182C16.9496 35.182 17.2822 35.1252 17.5781 35.0115C17.8741 34.8955 18.1227 34.7345 18.3239 34.5286C18.5251 34.3202 18.6683 34.0788 18.7536 33.8041L17.9439 33.5769C17.8729 33.7663 17.7723 33.9249 17.6421 34.0527C17.5119 34.1782 17.3568 34.2729 17.1769 34.3368C16.9993 34.3984 16.8004 34.4291 16.5803 34.4291C16.2417 34.4291 15.9446 34.3558 15.6889 34.209C15.4333 34.0598 15.2332 33.8432 15.0888 33.5591C14.96 33.2994 14.8896 32.9881 14.8776 32.6252H18.8388V32.2701C18.8388 31.7611 18.7713 31.3326 18.6364 30.9845C18.5014 30.6365 18.3203 30.3572 18.0931 30.1465C17.8658 29.9334 17.6137 29.7795 17.3367 29.6848C17.0597 29.5901 16.7791 29.5428 16.4951 29.5428C16.0026 29.5428 15.5718 29.6635 15.2024 29.905C14.8355 30.1441 14.549 30.4779 14.3431 30.9064C14.1395 31.3326 14.0377 31.825 14.0377 32.3837C14.0377 32.9424 14.1395 33.4325 14.3431 33.8539C14.549 34.2729 14.8414 34.5996 15.2202 34.834ZM14.8797 31.9007C14.8957 31.6477 14.9595 31.4086 15.071 31.1834C15.2013 30.9206 15.3871 30.7076 15.6286 30.5442C15.8724 30.3785 16.1612 30.2956 16.4951 30.2956C16.7981 30.2956 17.0609 30.3655 17.2834 30.5051C17.5083 30.6448 17.6811 30.8354 17.8019 31.0769C17.925 31.3183 17.9865 31.593 17.9865 31.9007H14.8797Z" fill="#CFD1DE"/>
<path d="M22.4858 30.324V29.6138H21.321V28.307H20.483V29.6138H19.6591V30.324H20.483V33.7331C20.483 34.0504 20.5564 34.3131 20.7031 34.5215C20.8523 34.7298 21.0393 34.8849 21.2642 34.9867C21.4915 35.0885 21.7235 35.1394 21.9602 35.1394C22.1165 35.1394 22.2455 35.1275 22.3473 35.1039C22.4491 35.0826 22.5284 35.0612 22.5852 35.0399L22.4148 34.2871L22.2727 34.3155C22.2136 34.325 22.1378 34.3297 22.0455 34.3297C21.9224 34.3297 21.8052 34.3108 21.6939 34.2729C21.585 34.2327 21.4951 34.1545 21.424 34.0385C21.3554 33.9202 21.321 33.7426 21.321 33.5059V30.324H22.4858Z" fill="#CFD1DE"/>
<path fill-rule="evenodd" clip-rule="evenodd" d="M24.6147 34.834C24.9959 35.066 25.4492 35.182 25.9748 35.182C26.3441 35.182 26.6768 35.1252 26.9727 35.0115C27.2686 34.8955 27.5172 34.7345 27.7184 34.5286C27.9196 34.3202 28.0629 34.0788 28.1481 33.8041L27.3384 33.5769C27.2674 33.7663 27.1668 33.9249 27.0366 34.0527C26.9064 34.1782 26.7513 34.2729 26.5714 34.3368C26.3938 34.3984 26.195 34.4291 25.9748 34.4291C25.6363 34.4291 25.3392 34.3558 25.0835 34.209C24.8278 34.0598 24.6277 33.8432 24.4833 33.5591C24.3545 33.2994 24.2841 32.9881 24.2721 32.6252H28.2333V32.2701C28.2333 31.7611 28.1659 31.3326 28.0309 30.9845C27.896 30.6365 27.7149 30.3572 27.4876 30.1465C27.2603 29.9334 27.0082 29.7795 26.7312 29.6848C26.4542 29.5901 26.1737 29.5428 25.8896 29.5428C25.3972 29.5428 24.9663 29.6635 24.597 29.905C24.23 30.1441 23.9436 30.4779 23.7376 30.9064C23.534 31.3326 23.4322 31.825 23.4322 32.3837C23.4322 32.9424 23.534 33.4325 23.7376 33.8539C23.9436 34.2729 24.2359 34.5996 24.6147 34.834ZM24.2743 31.9007C24.2902 31.6477 24.354 31.4086 24.4656 31.1834C24.5958 30.9206 24.7816 30.7076 25.0231 30.5442C25.2669 30.3785 25.5558 30.2956 25.8896 30.2956C26.1926 30.2956 26.4554 30.3655 26.6779 30.5051C26.9028 30.6448 27.0757 30.8354 27.1964 31.0769C27.3195 31.3183 27.3811 31.593 27.3811 31.9007H24.2743Z" fill="#CFD1DE"/>
<path d="M29.5082 29.6138V35.0684H30.3463V31.6166C30.3463 31.3704 30.4054 31.1514 30.5238 30.9597C30.6446 30.7656 30.8079 30.614 31.0139 30.5051C31.2222 30.3939 31.4589 30.3382 31.7241 30.3382C31.8354 30.3382 31.9407 30.3465 32.0401 30.3631C32.1419 30.3773 32.2071 30.388 32.2355 30.3951V29.5428C32.1881 29.538 32.1183 29.5345 32.0259 29.5321C31.9336 29.5298 31.8567 29.5286 31.7951 29.5286C31.4684 29.5286 31.1749 29.6126 30.9144 29.7807C30.654 29.9488 30.4741 30.1678 30.3747 30.4377H30.3178V29.6138H29.5082Z" fill="#CFD1DE"/>
<path fill-rule="evenodd" clip-rule="evenodd" d="M33.893 35.0009C34.1747 35.1311 34.4884 35.1962 34.834 35.1962C35.1512 35.1962 35.4199 35.1488 35.6401 35.0541C35.8603 34.9594 36.0367 34.8446 36.1692 34.7097C36.3018 34.5747 36.3965 34.4481 36.4533 34.3297H36.4959V35.0684H37.334V31.4746C37.334 31.0414 37.263 30.6957 37.1209 30.4377C36.9789 30.1796 36.8002 29.9867 36.5847 29.8588C36.3717 29.731 36.1503 29.6469 35.9207 29.6067C35.6934 29.5641 35.4922 29.5428 35.317 29.5428C35.0423 29.5428 34.763 29.5807 34.4789 29.6564C34.1972 29.7298 33.9368 29.86 33.6976 30.047C33.4609 30.2317 33.2715 30.4898 33.1295 30.8212L33.9249 31.1053C34.0172 30.9064 34.177 30.7194 34.4043 30.5442C34.6316 30.369 34.9453 30.2814 35.3454 30.2814C35.7313 30.2814 36.0189 30.3785 36.2083 30.5726C36.4001 30.7667 36.4959 31.039 36.4959 31.3894V31.4178C36.4959 31.5527 36.4474 31.6474 36.3503 31.7019C36.2556 31.7563 36.1041 31.7954 35.8958 31.8191C35.6898 31.8404 35.4211 31.8723 35.0897 31.9149C34.8364 31.9481 34.5842 31.9931 34.3333 32.0499C34.0847 32.1043 33.8574 32.1872 33.6515 32.2985C33.4455 32.4097 33.281 32.5636 33.1579 32.7601C33.0348 32.9542 32.9732 33.2076 32.9732 33.5201C32.9732 33.8752 33.0561 34.1782 33.2218 34.4291C33.3875 34.6777 33.6112 34.8683 33.893 35.0009ZM35.7999 34.248C35.5726 34.3782 35.2933 34.4434 34.9618 34.4434C34.628 34.4434 34.3522 34.37 34.1344 34.2232C33.919 34.074 33.8113 33.8539 33.8113 33.5627C33.8113 33.3496 33.8681 33.1815 33.9817 33.0584C34.0977 32.9329 34.2493 32.8394 34.4363 32.7779C34.6257 32.7139 34.8293 32.6678 35.0471 32.6394C35.137 32.6275 35.2542 32.6133 35.3986 32.5968C35.5454 32.5778 35.6958 32.5565 35.8496 32.5328C36.0059 32.5068 36.1432 32.4772 36.2616 32.4441C36.3823 32.4086 36.4604 32.3695 36.4959 32.3269V33.0939C36.4959 33.3212 36.4368 33.5378 36.3184 33.7438C36.2024 33.9497 36.0296 34.1178 35.7999 34.248Z" fill="#CFD1DE"/>
</svg>
