<svg width="38" height="36" viewBox="0 0 38 36" fill="none" xmlns="http://www.w3.org/2000/svg">
<path fill-rule="evenodd" clip-rule="evenodd" d="M11.0456 0.732178C8.81433 0.732178 7.00556 2.54095 7.00556 4.77218V18.9382C7.00556 21.1695 8.81433 22.9782 11.0456 22.9782H27.169C29.4002 22.9782 31.209 21.1695 31.209 18.9382V8.72287C31.209 6.49164 29.4002 4.68287 27.169 4.68287H10.5196C9.96193 4.68287 9.50986 4.2308 9.50986 3.67314C9.50986 3.60758 9.50361 3.54348 9.49168 3.48141C9.86222 3.03584 10.4208 2.75218 11.0456 2.75218H28.2029C28.7607 2.75218 29.2129 2.29999 29.2129 1.74218C29.2129 1.18437 28.7607 0.732178 28.2029 0.732178H11.0456ZM9.02556 18.9382V6.30949C9.46645 6.55988 9.97632 6.70287 10.5196 6.70287H27.169C28.2846 6.70287 29.189 7.60726 29.189 8.72287V18.9382C29.189 20.0539 28.2846 20.9582 27.169 20.9582H11.0456C9.92994 20.9582 9.02556 20.0539 9.02556 18.9382Z" fill="#CFD1DE"/>
<path fill-rule="evenodd" clip-rule="evenodd" d="M0.891357 28.4245V35.6973H3.5192C4.09212 35.6973 4.55731 35.612 4.91479 35.4416C5.27228 35.2711 5.53388 35.0403 5.6996 34.7491C5.86532 34.4579 5.94818 34.13 5.94818 33.7654C5.94818 33.3819 5.87242 33.0576 5.7209 32.7924C5.56939 32.5273 5.38118 32.3237 5.15627 32.1816C4.93137 32.0396 4.70765 31.9615 4.48511 31.9473V31.8762C4.69344 31.8194 4.88639 31.7318 5.06394 31.6134C5.24387 31.4951 5.38828 31.3341 5.49718 31.1305C5.60845 30.9269 5.66408 30.6688 5.66408 30.3563C5.66408 30.0012 5.58359 29.6781 5.42261 29.3869C5.26162 29.0933 5.01659 28.8601 4.68752 28.6873C4.35845 28.5121 3.9406 28.4245 3.43397 28.4245H0.891357ZM3.5192 34.916H1.77204V32.3876H3.56181C3.87905 32.3876 4.15367 32.4515 4.38568 32.5794C4.61768 32.7048 4.79642 32.8729 4.9219 33.0836C5.04737 33.292 5.11011 33.5192 5.11011 33.7654C5.11011 34.085 4.98818 34.3573 4.74434 34.5822C4.50286 34.8047 4.09448 34.916 3.5192 34.916ZM3.40556 31.6206H1.77204V29.2058H3.43397C3.91693 29.2058 4.26967 29.3182 4.49221 29.5431C4.71475 29.7657 4.82602 30.0367 4.82602 30.3563C4.82602 30.612 4.7621 30.8346 4.63426 31.024C4.50878 31.2134 4.33833 31.3601 4.12289 31.4643C3.90982 31.5685 3.67071 31.6206 3.40556 31.6206Z" fill="#CFD1DE"/>
<path d="M7.28163 30.2427V35.6973H8.1197V30.2427H7.28163Z" fill="#CFD1DE"/>
<path d="M7.28518 29.1667C7.40355 29.278 7.54441 29.3336 7.70776 29.3336C7.87112 29.3336 8.01079 29.278 8.1268 29.1667C8.24517 29.0554 8.30435 28.9217 8.30435 28.7654C8.30435 28.6092 8.24517 28.4754 8.1268 28.3642C8.01079 28.2529 7.87112 28.1973 7.70776 28.1973C7.54441 28.1973 7.40355 28.2529 7.28518 28.3642C7.16917 28.4754 7.11117 28.6092 7.11117 28.7654C7.11117 28.9217 7.16917 29.0554 7.28518 29.1667Z" fill="#CFD1DE"/>
<path d="M10.4927 35.6973V28.4245H9.65467V35.6973H10.4927Z" fill="#CFD1DE"/>
<path d="M12.8658 35.6973V28.4245H12.0277V35.6973H12.8658Z" fill="#CFD1DE"/>
<path fill-rule="evenodd" clip-rule="evenodd" d="M15.3276 35.4629C15.7088 35.6949 16.1621 35.8109 16.6877 35.8109C17.057 35.8109 17.3896 35.7541 17.6856 35.6404C17.9815 35.5244 18.2301 35.3634 18.4313 35.1575C18.6325 34.9492 18.7758 34.7077 18.861 34.4331L18.0513 34.2058C17.9803 34.3952 17.8797 34.5538 17.7495 34.6816C17.6193 34.8071 17.4642 34.9018 17.2843 34.9657C17.1067 35.0273 16.9079 35.0581 16.6877 35.0581C16.3492 35.0581 16.052 34.9847 15.7964 34.8379C15.5407 34.6887 15.3406 34.4721 15.1962 34.188C15.0674 33.9283 14.997 33.617 14.985 33.2541H18.9462V32.899C18.9462 32.39 18.8788 31.9615 18.7438 31.6134C18.6089 31.2654 18.4278 30.9861 18.2005 30.7754C17.9732 30.5623 17.7211 30.4084 17.4441 30.3137C17.1671 30.219 16.8866 30.1717 16.6025 30.1717C16.11 30.1717 15.6792 30.2924 15.3099 30.5339C14.9429 30.773 14.6564 31.1068 14.4505 31.5353C14.2469 31.9615 14.1451 32.4539 14.1451 33.0126C14.1451 33.5713 14.2469 34.0614 14.4505 34.4828C14.6564 34.9018 14.9488 35.2285 15.3276 35.4629ZM14.9871 32.5296C15.0031 32.2766 15.0669 32.0375 15.1785 31.8123C15.3087 31.5495 15.4945 31.3365 15.736 31.1731C15.9798 31.0074 16.2687 30.9245 16.6025 30.9245C16.9055 30.9245 17.1683 30.9944 17.3908 31.134C17.6157 31.2737 17.7886 31.4643 17.9093 31.7058C18.0324 31.9473 18.094 32.2219 18.094 32.5296H14.9871Z" fill="#CFD1DE"/>
<path d="M22.5932 30.9529V30.2427H21.4285V28.9359H20.5904V30.2427H19.7665V30.9529H20.5904V34.362C20.5904 34.6793 20.6638 34.942 20.8106 35.1504C20.9597 35.3587 21.1467 35.5138 21.3716 35.6156C21.5989 35.7174 21.8309 35.7683 22.0677 35.7683C22.2239 35.7683 22.3529 35.7564 22.4547 35.7328C22.5565 35.7115 22.6359 35.6902 22.6927 35.6688L22.5222 34.916L22.3802 34.9444C22.321 34.9539 22.2452 34.9586 22.1529 34.9586C22.0298 34.9586 21.9126 34.9397 21.8013 34.9018C21.6924 34.8616 21.6025 34.7834 21.5315 34.6674C21.4628 34.5491 21.4285 34.3715 21.4285 34.1348V30.9529H22.5932Z" fill="#CFD1DE"/>
<path fill-rule="evenodd" clip-rule="evenodd" d="M24.7221 35.4629C25.1033 35.6949 25.5567 35.8109 26.0822 35.8109C26.4515 35.8109 26.7842 35.7541 27.0801 35.6404C27.376 35.5244 27.6246 35.3634 27.8258 35.1575C28.0271 34.9492 28.1703 34.7077 28.2555 34.4331L27.4459 34.2058C27.3748 34.3952 27.2742 34.5538 27.144 34.6816C27.0138 34.8071 26.8587 34.9018 26.6788 34.9657C26.5013 35.0273 26.3024 35.0581 26.0822 35.0581C25.7437 35.0581 25.4466 34.9847 25.1909 34.8379C24.9352 34.6887 24.7352 34.4721 24.5908 34.188C24.462 33.9283 24.3916 33.617 24.3795 33.2541H28.3408V32.899C28.3408 32.39 28.2733 31.9615 28.1383 31.6134C28.0034 31.2654 27.8223 30.9861 27.595 30.7754C27.3677 30.5623 27.1156 30.4084 26.8386 30.3137C26.5616 30.219 26.2811 30.1717 25.997 30.1717C25.5046 30.1717 25.0737 30.2924 24.7044 30.5339C24.3374 30.773 24.051 31.1068 23.845 31.5353C23.6414 31.9615 23.5396 32.4539 23.5396 33.0126C23.5396 33.5713 23.6414 34.0614 23.845 34.4828C24.051 34.9018 24.3434 35.2285 24.7221 35.4629ZM24.3817 32.5296C24.3976 32.2766 24.4614 32.0375 24.573 31.8123C24.7032 31.5495 24.889 31.3365 25.1305 31.1731C25.3744 31.0074 25.6632 30.9245 25.997 30.9245C26.3 30.9245 26.5628 30.9944 26.7854 31.134C27.0103 31.2737 27.1831 31.4643 27.3038 31.7058C27.4269 31.9473 27.4885 32.2219 27.4885 32.5296H24.3817Z" fill="#CFD1DE"/>
<path d="M29.6156 30.2427V35.6973H30.4537V32.2456C30.4537 31.9993 30.5129 31.7804 30.6312 31.5886C30.752 31.3945 30.9153 31.2429 31.1213 31.134C31.3296 31.0228 31.5664 30.9671 31.8315 30.9671C31.9428 30.9671 32.0481 30.9754 32.1476 30.992C32.2494 31.0062 32.3145 31.0169 32.3429 31.024V30.1717C32.2955 30.167 32.2257 30.1634 32.1334 30.161C32.041 30.1587 31.9641 30.1575 31.9025 30.1575C31.5758 30.1575 31.2823 30.2415 31.0219 30.4096C30.7614 30.5777 30.5815 30.7967 30.4821 31.0666H30.4253V30.2427H29.6156Z" fill="#CFD1DE"/>
<path fill-rule="evenodd" clip-rule="evenodd" d="M34.0004 35.6298C34.2821 35.76 34.5958 35.8251 34.9414 35.8251C35.2587 35.8251 35.5274 35.7777 35.7475 35.6831C35.9677 35.5884 36.1441 35.4735 36.2767 35.3386C36.4092 35.2036 36.5039 35.077 36.5607 34.9586H36.6034V35.6973H37.4414V32.1035C37.4414 31.6703 37.3704 31.3246 37.2284 31.0666C37.0863 30.8085 36.9076 30.6156 36.6921 30.4877C36.4791 30.3599 36.2577 30.2759 36.0281 30.2356C35.8008 30.193 35.5996 30.1717 35.4244 30.1717C35.1498 30.1717 34.8704 30.2096 34.5863 30.2853C34.3046 30.3587 34.0442 30.4889 33.8051 30.6759C33.5683 30.8606 33.3789 31.1187 33.2369 31.4501L34.0323 31.7342C34.1247 31.5353 34.2845 31.3483 34.5117 31.1731C34.739 30.9979 35.0527 30.9103 35.4528 30.9103C35.8387 30.9103 36.1263 31.0074 36.3157 31.2015C36.5075 31.3956 36.6034 31.6679 36.6034 32.0183V32.0467C36.6034 32.1816 36.5548 32.2763 36.4578 32.3308C36.3631 32.3852 36.2116 32.4243 36.0032 32.448C35.7973 32.4693 35.5286 32.5012 35.1971 32.5438C34.9438 32.577 34.6917 32.622 34.4407 32.6788C34.1921 32.7332 33.9649 32.8161 33.7589 32.9274C33.5529 33.0386 33.3884 33.1925 33.2653 33.389C33.1422 33.5831 33.0806 33.8365 33.0806 34.149C33.0806 34.5041 33.1635 34.8071 33.3292 35.0581C33.4949 35.3066 33.7187 35.4972 34.0004 35.6298ZM35.9073 34.8769C35.6801 35.0072 35.4007 35.0723 35.0693 35.0723C34.7355 35.0723 34.4597 34.9989 34.2419 34.8521C34.0264 34.7029 33.9187 34.4828 33.9187 34.1916C33.9187 33.9785 33.9755 33.8104 34.0892 33.6873C34.2052 33.5618 34.3567 33.4683 34.5437 33.4068C34.7331 33.3429 34.9367 33.2967 35.1545 33.2683C35.2445 33.2564 35.3616 33.2422 35.5061 33.2257C35.6528 33.2067 35.8032 33.1854 35.9571 33.1617C36.1133 33.1357 36.2506 33.1061 36.369 33.073C36.4897 33.0375 36.5679 32.9984 36.6034 32.9558V33.7228C36.6034 33.9501 36.5442 34.1667 36.4258 34.3727C36.3098 34.5786 36.137 34.7467 35.9073 34.8769Z" fill="#CFD1DE"/>
</svg>
