<svg width="38" height="36" viewBox="0 0 38 36" fill="none" xmlns="http://www.w3.org/2000/svg">
<path fill-rule="evenodd" clip-rule="evenodd" d="M11.1169 0.0349121C8.88568 0.0349121 7.07691 1.84368 7.07691 4.07491V18.241C7.07691 20.4722 8.88568 22.281 11.1169 22.281H27.2403C29.4716 22.281 31.2803 20.4722 31.2803 18.241V8.02561C31.2803 5.79437 29.4715 3.98561 27.2403 3.98561H10.5909C10.0333 3.98561 9.58121 3.53353 9.58121 2.97587C9.58121 2.91031 9.57496 2.84622 9.56303 2.78414C9.93357 2.33858 10.4921 2.05491 11.1169 2.05491H28.2742C28.832 2.05491 29.2842 1.60272 29.2842 1.04491C29.2842 0.487105 28.832 0.0349121 28.2742 0.0349121H11.1169ZM9.09691 18.241V5.61222C9.5378 5.86262 10.0477 6.00561 10.5909 6.00561H27.2403C28.3559 6.00561 29.2603 6.90999 29.2603 8.02561V18.241C29.2603 19.3566 28.3559 20.261 27.2403 20.261H11.1169C10.0013 20.261 9.09691 19.3566 9.09691 18.241Z" fill="#CFD1DE"/>
<path fill-rule="evenodd" clip-rule="evenodd" d="M0.962708 27.7273V35H3.59055C4.16347 35 4.62866 34.9148 4.98615 34.7443C5.34363 34.5739 5.60523 34.343 5.77095 34.0518C5.93667 33.7606 6.01953 33.4328 6.01953 33.0682C6.01953 32.6847 5.94377 32.3603 5.79225 32.0952C5.64074 31.83 5.45253 31.6264 5.22762 31.4844C5.00272 31.3423 4.779 31.2642 4.55646 31.25V31.179C4.76479 31.1222 4.95774 31.0346 5.13529 30.9162C5.31522 30.7978 5.45963 30.6368 5.56853 30.4332C5.6798 30.2296 5.73544 29.9716 5.73544 29.6591C5.73544 29.304 5.65494 28.9808 5.49396 28.6896C5.33297 28.3961 5.08794 28.1629 4.75887 27.99C4.4298 27.8149 4.01195 27.7273 3.50532 27.7273H0.962708ZM3.59055 34.2187H1.84339V31.6903H3.63316C3.9504 31.6903 4.22502 31.7543 4.45703 31.8821C4.68903 32.0076 4.86777 32.1757 4.99325 32.3864C5.11872 32.5947 5.18146 32.822 5.18146 33.0682C5.18146 33.3878 5.05954 33.66 4.81569 33.8849C4.57421 34.1075 4.16583 34.2187 3.59055 34.2187ZM3.47691 30.9233H1.84339V28.5085H3.50532C3.98828 28.5085 4.34102 28.621 4.56356 28.8459C4.7861 29.0684 4.89737 29.3395 4.89737 29.6591C4.89737 29.9148 4.83345 30.1373 4.70561 30.3267C4.58013 30.5161 4.40968 30.6629 4.19424 30.767C3.98117 30.8712 3.74206 30.9233 3.47691 30.9233Z" fill="#CFD1DE"/>
<path d="M7.35298 29.5454V35H8.19105V29.5454H7.35298Z" fill="#CFD1DE"/>
<path d="M7.35653 28.4694C7.4749 28.5807 7.61576 28.6364 7.77911 28.6364C7.94247 28.6364 8.08214 28.5807 8.19815 28.4694C8.31652 28.3582 8.3757 28.2244 8.3757 28.0682C8.3757 27.9119 8.31652 27.7782 8.19815 27.6669C8.08214 27.5556 7.94247 27.5 7.77911 27.5C7.61576 27.5 7.4749 27.5556 7.35653 27.6669C7.24052 27.7782 7.18252 27.9119 7.18252 28.0682C7.18252 28.2244 7.24052 28.3582 7.35653 28.4694Z" fill="#CFD1DE"/>
<path d="M10.5641 35V27.7273H9.72602V35H10.5641Z" fill="#CFD1DE"/>
<path d="M12.9371 35V27.7273H12.0991V35H12.9371Z" fill="#CFD1DE"/>
<path fill-rule="evenodd" clip-rule="evenodd" d="M15.399 34.7656C15.7801 34.9976 16.2335 35.1136 16.7591 35.1136C17.1284 35.1136 17.461 35.0568 17.7569 34.9432C18.0528 34.8272 18.3014 34.6662 18.5027 34.4602C18.7039 34.2519 18.8471 34.0104 18.9323 33.7358L18.1227 33.5085C18.0517 33.6979 17.951 33.8565 17.8208 33.9844C17.6906 34.1098 17.5356 34.2045 17.3556 34.2685C17.1781 34.33 16.9792 34.3608 16.7591 34.3608C16.4205 34.3608 16.1234 34.2874 15.8677 34.1406C15.612 33.9915 15.412 33.7748 15.2676 33.4908C15.1388 33.231 15.0684 32.9197 15.0564 32.5568H19.0176V32.2017C19.0176 31.6927 18.9501 31.2642 18.8152 30.9162C18.6802 30.5682 18.4991 30.2888 18.2718 30.0781C18.0446 29.865 17.7924 29.7112 17.5154 29.6165C17.2385 29.5218 16.9579 29.4744 16.6738 29.4744C16.1814 29.4744 15.7505 29.5952 15.3812 29.8366C15.0143 30.0757 14.7278 30.4096 14.5218 30.8381C14.3182 31.2642 14.2164 31.7566 14.2164 32.3153C14.2164 32.874 14.3182 33.3641 14.5218 33.7855C14.7278 34.2045 15.0202 34.5312 15.399 34.7656ZM15.0585 31.8324C15.0745 31.5794 15.1382 31.3402 15.2498 31.115C15.38 30.8523 15.5659 30.6392 15.8073 30.4758C16.0512 30.3101 16.34 30.2273 16.6738 30.2273C16.9769 30.2273 17.2396 30.2971 17.4622 30.4368C17.6871 30.5765 17.8599 30.767 17.9806 31.0085C18.1037 31.25 18.1653 31.5246 18.1653 31.8324H15.0585Z" fill="#CFD1DE"/>
<path d="M22.6646 30.2557V29.5454H21.4998V28.2386H20.6617V29.5454H19.8379V30.2557H20.6617V33.6648C20.6617 33.982 20.7351 34.2448 20.8819 34.4531C21.0311 34.6614 21.2181 34.8165 21.443 34.9183C21.6703 35.0201 21.9023 35.071 22.139 35.071C22.2953 35.071 22.4243 35.0592 22.5261 35.0355C22.6279 35.0142 22.7072 34.9929 22.764 34.9716L22.5936 34.2187L22.4515 34.2472C22.3923 34.2566 22.3166 34.2614 22.2242 34.2614C22.1011 34.2614 21.984 34.2424 21.8727 34.2045C21.7638 34.1643 21.6738 34.0862 21.6028 33.9702C21.5341 33.8518 21.4998 33.6742 21.4998 33.4375V30.2557H22.6646Z" fill="#CFD1DE"/>
<path fill-rule="evenodd" clip-rule="evenodd" d="M24.7935 34.7656C25.1747 34.9976 25.628 35.1136 26.1536 35.1136C26.5229 35.1136 26.8555 35.0568 27.1515 34.9432C27.4474 34.8272 27.696 34.6662 27.8972 34.4602C28.0984 34.2519 28.2416 34.0104 28.3269 33.7358L27.5172 33.5085C27.4462 33.6979 27.3456 33.8565 27.2154 33.9844C27.0852 34.1098 26.9301 34.2045 26.7502 34.2685C26.5726 34.33 26.3738 34.3608 26.1536 34.3608C25.815 34.3608 25.5179 34.2874 25.2622 34.1406C25.0066 33.9915 24.8065 33.7748 24.6621 33.4908C24.5333 33.231 24.4629 32.9197 24.4509 32.5568H28.4121V32.2017C28.4121 31.6927 28.3446 31.2642 28.2097 30.9162C28.0747 30.5682 27.8936 30.2888 27.6664 30.0781C27.4391 29.865 27.187 29.7112 26.91 29.6165C26.633 29.5218 26.3524 29.4744 26.0684 29.4744C25.5759 29.4744 25.1451 29.5952 24.7757 29.8366C24.4088 30.0757 24.1223 30.4096 23.9164 30.8381C23.7128 31.2642 23.611 31.7566 23.611 32.3153C23.611 32.874 23.7128 33.3641 23.9164 33.7855C24.1223 34.2045 24.4147 34.5312 24.7935 34.7656ZM24.453 31.8324C24.469 31.5794 24.5328 31.3402 24.6443 31.115C24.7746 30.8523 24.9604 30.6392 25.2019 30.4758C25.4457 30.3101 25.7345 30.2273 26.0684 30.2273C26.3714 30.2273 26.6342 30.2971 26.8567 30.4368C27.0816 30.5765 27.2544 30.767 27.3752 31.0085C27.4983 31.25 27.5598 31.5246 27.5598 31.8324H24.453Z" fill="#CFD1DE"/>
<path d="M29.687 29.5454V35H30.525V31.5483C30.525 31.3021 30.5842 31.0831 30.7026 30.8913C30.8233 30.6972 30.9867 30.5457 31.1926 30.4368C31.401 30.3255 31.6377 30.2699 31.9029 30.2699C32.0141 30.2699 32.1195 30.2782 32.2189 30.2947C32.3207 30.3089 32.3858 30.3196 32.4142 30.3267V29.4744C32.3669 29.4697 32.297 29.4661 32.2047 29.4638C32.1124 29.4614 32.0354 29.4602 31.9739 29.4602C31.6472 29.4602 31.3536 29.5443 31.0932 29.7123C30.8328 29.8804 30.6529 30.0994 30.5534 30.3693H30.4966V29.5454H29.687Z" fill="#CFD1DE"/>
<path fill-rule="evenodd" clip-rule="evenodd" d="M34.0717 34.9325C34.3535 35.0627 34.6671 35.1278 35.0128 35.1278C35.33 35.1278 35.5987 35.0805 35.8189 34.9858C36.0391 34.8911 36.2154 34.7763 36.348 34.6413C36.4806 34.5064 36.5753 34.3797 36.6321 34.2614H36.6747V35H37.5128V31.4062C37.5128 30.973 37.4418 30.6274 37.2997 30.3693C37.1577 30.1113 36.9789 29.9183 36.7635 29.7905C36.5504 29.6626 36.3291 29.5786 36.0994 29.5383C35.8722 29.4957 35.6709 29.4744 35.4957 29.4744C35.2211 29.4744 34.9418 29.5123 34.6577 29.5881C34.3759 29.6614 34.1155 29.7917 33.8764 29.9787C33.6397 30.1633 33.4503 30.4214 33.3082 30.7528L34.1037 31.0369C34.196 30.8381 34.3558 30.651 34.5831 30.4758C34.8104 30.3007 35.1241 30.2131 35.5241 30.2131C35.91 30.2131 36.1977 30.3101 36.3871 30.5043C36.5788 30.6984 36.6747 30.9706 36.6747 31.321V31.3494C36.6747 31.4844 36.6262 31.5791 36.5291 31.6335C36.4344 31.688 36.2829 31.727 36.0746 31.7507C35.8686 31.772 35.5999 31.804 35.2685 31.8466C35.0151 31.8797 34.763 31.9247 34.5121 31.9815C34.2635 32.036 34.0362 32.1188 33.8303 32.2301C33.6243 32.3414 33.4598 32.4953 33.3366 32.6918C33.2135 32.8859 33.152 33.1392 33.152 33.4517C33.152 33.8068 33.2348 34.1098 33.4006 34.3608C33.5663 34.6094 33.79 34.7999 34.0717 34.9325ZM35.9787 34.1797C35.7514 34.3099 35.4721 34.375 35.1406 34.375C34.8068 34.375 34.531 34.3016 34.3132 34.1548C34.0978 34.0057 33.9901 33.7855 33.9901 33.4943C33.9901 33.2812 34.0469 33.1132 34.1605 32.99C34.2765 32.8646 34.428 32.7711 34.6151 32.7095C34.8044 32.6456 35.008 32.5994 35.2258 32.571C35.3158 32.5592 35.433 32.545 35.5774 32.5284C35.7242 32.5095 35.8745 32.4882 36.0284 32.4645C36.1847 32.4384 36.322 32.4088 36.4403 32.3757C36.5611 32.3402 36.6392 32.3011 36.6747 32.2585V33.0256C36.6747 33.2528 36.6155 33.4695 36.4972 33.6754C36.3812 33.8814 36.2083 34.0495 35.9787 34.1797Z" fill="#CFD1DE"/>
</svg>
