<svg width="36" height="53" viewBox="0 0 36 53" fill="none" xmlns="http://www.w3.org/2000/svg">
<g style="mix-blend-mode:overlay" filter="url(#filter0_f_2220_16995)">
<path fill-rule="evenodd" clip-rule="evenodd" d="M11.8234 33.0151C11.3914 32.6436 10.9996 32.2128 10.6607 31.7252C8.95811 29.2749 7.5562 26.0764 6.63642 23.1317C5.76908 20.3549 4.97555 16.6926 5.41602 13.5015C5.92414 9.82042 9.37189 7.26668 13.1168 7.79762C13.7123 7.88206 14.2795 8.03942 14.8103 8.25918C16.1387 6.22845 18.5465 4.98194 21.1725 5.22489C24.9177 5.57139 27.6968 8.81737 27.409 12.4912C27.4093 12.4924 27.4098 12.498 27.4105 12.5081C27.4148 12.5662 27.43 12.7724 27.508 13.1521C27.6199 13.6969 27.8144 14.3743 28.0848 15.1168C28.6649 16.7103 29.3491 17.9469 29.667 18.3766C31.8989 21.3936 31.2337 25.5992 28.1811 27.7702C27.4945 28.2585 26.7457 28.6023 25.9719 28.8076C25.9535 29.9987 25.9045 31.2669 25.7853 32.3715C25.45 35.476 24.4812 39.5289 21.3001 42.9092L16.6331 47.8687L6.75986 38.6107L11.4269 33.6513C11.5468 33.524 11.6874 33.3314 11.8234 33.0151Z" fill="#353535" fill-opacity="0.37"/>
</g>
<defs>
<filter id="filter0_f_2220_16995" x="0.541594" y="0.445403" width="35.1946" height="52.1727" filterUnits="userSpaceOnUse" color-interpolation-filters="sRGB">
<feFlood flood-opacity="0" result="BackgroundImageFix"/>
<feBlend mode="normal" in="SourceGraphic" in2="BackgroundImageFix" result="shape"/>
<feGaussianBlur stdDeviation="2.37447" result="effect1_foregroundBlur_2220_16995"/>
</filter>
</defs>
</svg>
