<svg width="9" height="18" viewBox="0 0 9 18" fill="none" xmlns="http://www.w3.org/2000/svg">
<path fill-rule="evenodd" clip-rule="evenodd" d="M3.69488 1.15055C3.69488 0.683123 4.07381 0.304199 4.54123 0.304199C5.00866 0.304199 5.38758 0.683123 5.38758 1.15055V2.01912C7.15418 2.3877 8.48462 4.00527 8.48462 5.94492C8.48462 6.64764 7.93501 7.21731 7.25703 7.21731C6.57905 7.21731 6.02944 6.64764 6.02944 5.94492C6.02944 5.13867 5.39886 4.48508 4.621 4.48508C3.84314 4.48508 3.21256 5.13867 3.21256 5.94492C3.21256 6.75117 3.84314 7.40476 4.621 7.40476C4.6366 7.40476 4.65213 7.40506 4.66758 7.40566C6.78021 7.43119 8.48522 9.21422 8.48522 11.41C8.48522 13.3499 7.15447 14.9676 5.38757 15.3359V16.2792C5.38757 16.7466 5.00864 17.1255 4.54122 17.1255C4.07379 17.1255 3.69487 16.7466 3.69487 16.2792L3.69487 15.2987C2.00863 14.8684 0.757989 13.2906 0.757989 11.41C0.757989 10.7073 1.3076 10.1376 1.98558 10.1376C2.66356 10.1376 3.21317 10.7073 3.21317 11.41C3.21317 12.2162 3.84375 12.8698 4.62161 12.8698C5.39946 12.8698 6.03004 12.2162 6.03004 11.41C6.03004 10.6038 5.39947 9.95016 4.62161 9.95016C4.606 9.95016 4.59047 9.94986 4.57501 9.94926C2.46238 9.92372 0.757385 8.1407 0.757385 5.94492C0.757385 4.06411 2.00833 2.48613 3.69488 2.05608V1.15055Z" fill="#389BEC"/>
</svg>
