<svg width="28" height="38" viewBox="0 0 28 38" fill="none" xmlns="http://www.w3.org/2000/svg">
<path fill-rule="evenodd" clip-rule="evenodd" d="M14.6005 0.540712C14.2438 0.278096 13.7578 0.278096 13.4012 0.540712L4.50928 7.08837C3.4826 7.84437 2.87647 9.04343 2.87647 10.3184V21.1037C2.87647 23.043 4.44854 24.615 6.38778 24.615H9.9669C11.0777 24.615 11.9782 23.7145 11.9782 22.6037V17.0302H16.0234V22.6037C16.0234 23.7145 16.9239 24.615 18.0347 24.615H21.6138C23.5531 24.615 25.1251 23.043 25.1251 21.1037V10.3184C25.1251 9.04343 24.519 7.84437 23.4923 7.08837L14.6005 0.540712ZM5.70858 8.71705L14.0008 2.61096L22.293 8.71705C22.802 9.09186 23.1025 9.68632 23.1025 10.3184V21.1037C23.1025 21.9259 22.436 22.5924 21.6138 22.5924H18.046V16.5189C18.046 15.6843 17.3694 15.0076 16.5347 15.0076H11.4669C10.6322 15.0076 9.95559 15.6843 9.95559 16.5189V22.5924H6.38778C5.56559 22.5924 4.89908 21.9259 4.89908 21.1037V10.3184C4.89908 9.68632 5.19958 9.09186 5.70858 8.71705Z" fill="#CFD1DE"/>
<path d="M0.940186 30.071V37.3438H1.82087V34.0909H5.69871V37.3438H6.57939V30.071H5.69871V33.3097H1.82087V30.071H0.940186Z" fill="#CFD1DE"/>
<path fill-rule="evenodd" clip-rule="evenodd" d="M9.14864 37.1058C9.52032 37.3402 9.95238 37.4574 10.4448 37.4574C10.9372 37.4574 11.3681 37.3402 11.7374 37.1058C12.1091 36.8714 12.3979 36.5436 12.6039 36.1222C12.8122 35.7008 12.9164 35.2083 12.9164 34.6449C12.9164 34.0767 12.8122 33.5807 12.6039 33.157C12.3979 32.7332 12.1091 32.4041 11.7374 32.1697C11.3681 31.9354 10.9372 31.8182 10.4448 31.8182C9.95238 31.8182 9.52032 31.9354 9.14864 32.1697C8.77932 32.4041 8.4905 32.7332 8.28216 33.157C8.0762 33.5807 7.97321 34.0767 7.97321 34.6449C7.97321 35.2083 8.0762 35.7008 8.28216 36.1222C8.4905 36.5436 8.77932 36.8714 9.14864 37.1058ZM11.3681 36.4169C11.1266 36.6087 10.8189 36.7045 10.4448 36.7045C10.0708 36.7045 9.76299 36.6087 9.52151 36.4169C9.28003 36.2251 9.10129 35.973 8.98529 35.6605C8.86928 35.348 8.81128 35.0095 8.81128 34.6449C8.81128 34.2803 8.86928 33.9406 8.98529 33.6257C9.10129 33.3108 9.28003 33.0563 9.52151 32.8622C9.76299 32.6681 10.0708 32.571 10.4448 32.571C10.8189 32.571 11.1266 32.6681 11.3681 32.8622C11.6096 33.0563 11.7883 33.3108 11.9043 33.6257C12.0203 33.9406 12.0783 34.2803 12.0783 34.6449C12.0783 35.0095 12.0203 35.348 11.9043 35.6605C11.7883 35.973 11.6096 36.2251 11.3681 36.4169Z" fill="#CFD1DE"/>
<path d="M14.1957 31.8892V37.3438H15.0338V33.9347C15.0338 33.6671 15.0906 33.4316 15.2042 33.228C15.3202 33.022 15.4717 32.861 15.6588 32.745C15.8482 32.629 16.0518 32.571 16.2696 32.571C16.5868 32.571 16.846 32.6669 17.0473 32.8587C17.2485 33.0481 17.3491 33.2978 17.3491 33.608V37.3438H18.2014V33.7926C18.2014 33.4399 18.3067 33.1487 18.5174 32.919C18.7281 32.687 19.0252 32.571 19.4088 32.571C19.7071 32.571 19.9663 32.6574 20.1865 32.8303C20.4066 33.0031 20.5167 33.2907 20.5167 33.6932V37.3438H21.3548V33.6932C21.3548 33.0516 21.1997 32.5793 20.8896 32.2763C20.5795 31.9709 20.1805 31.8182 19.6929 31.8182C19.3022 31.8182 18.9672 31.9022 18.6879 32.0703C18.4085 32.236 18.199 32.4598 18.0593 32.7415H18.0025C17.8676 32.4503 17.6794 32.2242 17.4379 32.0632C17.1988 31.8999 16.8993 31.8182 16.5394 31.8182C16.1843 31.8182 15.8801 31.8999 15.6268 32.0632C15.3735 32.2242 15.19 32.4503 15.0764 32.7415H15.0054V31.8892H14.1957Z" fill="#CFD1DE"/>
<path fill-rule="evenodd" clip-rule="evenodd" d="M23.8139 37.1094C24.1951 37.3414 24.6485 37.4574 25.174 37.4574C25.5433 37.4574 25.876 37.4006 26.1719 37.2869C26.4678 37.1709 26.7164 37.0099 26.9176 36.804C27.1189 36.5956 27.2621 36.3542 27.3473 36.0795L26.5377 35.8523C26.4666 36.0417 26.366 36.2003 26.2358 36.3281C26.1056 36.4536 25.9505 36.5483 25.7706 36.6122C25.5931 36.6738 25.3942 36.7045 25.174 36.7045C24.8355 36.7045 24.5384 36.6312 24.2827 36.4844C24.027 36.3352 23.827 36.1186 23.6826 35.8345C23.5538 35.5748 23.4834 35.2635 23.4713 34.9006H27.4326V34.5455C27.4326 34.0365 27.3651 33.608 27.2301 33.2599C27.0952 32.9119 26.9141 32.6326 26.6868 32.4219C26.4595 32.2088 26.2074 32.0549 25.9304 31.9602C25.6534 31.8655 25.3729 31.8182 25.0888 31.8182C24.5964 31.8182 24.1655 31.9389 23.7962 32.1804C23.4292 32.4195 23.1428 32.7533 22.9368 33.1818C22.7332 33.608 22.6314 34.1004 22.6314 34.6591C22.6314 35.2178 22.7332 35.7079 22.9368 36.1293C23.1428 36.5483 23.4352 36.875 23.8139 37.1094ZM23.4735 34.1761C23.4894 33.9231 23.5532 33.684 23.6648 33.4588C23.795 33.196 23.9808 32.983 24.2223 32.8196C24.4662 32.6539 24.755 32.571 25.0888 32.571C25.3918 32.571 25.6546 32.6409 25.8772 32.7805C26.1021 32.9202 26.2749 33.1108 26.3956 33.3523C26.5187 33.5938 26.5803 33.8684 26.5803 34.1761H23.4735Z" fill="#CFD1DE"/>
</svg>
