<svg width="47" height="40" viewBox="0 0 47 40" fill="none" xmlns="http://www.w3.org/2000/svg">
<path fill-rule="evenodd" clip-rule="evenodd" d="M29.1752 2.71987H29.0026C28.5861 1.54151 27.4623 0.697266 26.1413 0.697266H20.0735C18.7525 0.697266 17.6287 1.54151 17.2122 2.71987H17.0396C14.8054 2.71987 12.9943 4.53097 12.9943 6.76508V20.9233C12.9943 23.1574 14.8054 24.9685 17.0396 24.9685H29.1752C31.4093 24.9685 33.2204 23.1574 33.2204 20.9233V6.76508C33.2204 4.53097 31.4093 2.71987 29.1752 2.71987ZM15.0169 6.76508C15.0169 5.64803 15.9225 4.74248 17.0396 4.74248C17.0396 6.41806 18.3979 7.77639 20.0735 7.77639H26.1413C27.8169 7.77639 29.1752 6.41806 29.1752 4.74248C30.2922 4.74248 31.1978 5.64803 31.1978 6.76508V20.9233C31.1978 22.0404 30.2922 22.9459 29.1752 22.9459H17.0396C15.9225 22.9459 15.0169 22.0404 15.0169 20.9233V6.76508ZM20.0735 2.71987C19.5149 2.71987 19.0622 3.17265 19.0622 3.73117V4.74248C19.0622 5.301 19.5149 5.75378 20.0735 5.75378H26.1413C26.6998 5.75378 27.1526 5.301 27.1526 4.74248V3.73117C27.1526 3.17265 26.6998 2.71987 26.1413 2.71987H20.0735Z" fill="#55B3FF"/>
<path fill-rule="evenodd" clip-rule="evenodd" d="M0.379761 30.4245V37.6973H1.26044V35.041H2.85135C3.41717 35.041 3.88118 34.938 4.2434 34.7321C4.60561 34.5237 4.87313 34.2444 5.04595 33.894C5.22114 33.5436 5.30874 33.1542 5.30874 32.7257C5.30874 32.2972 5.22114 31.9089 5.04595 31.5609C4.87076 31.2129 4.60088 30.9371 4.23629 30.7335C3.87408 30.5275 3.4077 30.4245 2.83715 30.4245H0.379761ZM1.26044 34.2598H2.82294C3.21357 34.2598 3.52725 34.1923 3.76399 34.0574C4.00074 33.9224 4.17237 33.7401 4.27891 33.5105C4.38781 33.2785 4.44226 33.0169 4.44226 32.7257C4.44226 32.4345 4.38781 32.1741 4.27891 31.9444C4.17237 31.7148 3.99955 31.5349 3.76044 31.4047C3.52133 31.2721 3.2041 31.2058 2.80874 31.2058H1.26044V34.2598Z" fill="#55B3FF"/>
<path d="M6.61378 32.2427V37.6973H7.45185V34.2456C7.45185 33.9993 7.51103 33.7804 7.62941 33.5886C7.75014 33.3945 7.9135 33.243 8.11946 33.1341C8.3278 33.0228 8.56454 32.9672 8.82969 32.9672C8.94096 32.9672 9.04631 32.9754 9.14574 32.992C9.24754 33.0062 9.31264 33.0169 9.34105 33.024V32.1717C9.2937 32.167 9.22387 32.1634 9.13154 32.161C9.03921 32.1587 8.96227 32.1575 8.90071 32.1575C8.57401 32.1575 8.28045 32.2415 8.02003 32.4096C7.75961 32.5777 7.57969 32.7967 7.48026 33.0666H7.42344V32.2427H6.61378Z" fill="#55B3FF"/>
<path fill-rule="evenodd" clip-rule="evenodd" d="M11.0882 37.4593C11.4599 37.6937 11.892 37.8109 12.3844 37.8109C12.8768 37.8109 13.3077 37.6937 13.677 37.4593C14.0487 37.225 14.3375 36.8971 14.5435 36.4757C14.7518 36.0543 14.856 35.5618 14.856 34.9984C14.856 34.4302 14.7518 33.9342 14.5435 33.5105C14.3375 33.0867 14.0487 32.7576 13.677 32.5233C13.3077 32.2889 12.8768 32.1717 12.3844 32.1717C11.892 32.1717 11.4599 32.2889 11.0882 32.5233C10.7189 32.7576 10.4301 33.0867 10.2217 33.5105C10.0158 33.9342 9.91279 34.4302 9.91279 34.9984C9.91279 35.5618 10.0158 36.0543 10.2217 36.4757C10.4301 36.8971 10.7189 37.225 11.0882 37.4593ZM13.3077 36.7704C13.0662 36.9622 12.7584 37.0581 12.3844 37.0581C12.0103 37.0581 11.7026 36.9622 11.4611 36.7704C11.2196 36.5787 11.0409 36.3265 10.9249 36.014C10.8089 35.7015 10.7509 35.363 10.7509 34.9984C10.7509 34.6338 10.8089 34.2941 10.9249 33.9792C11.0409 33.6644 11.2196 33.4099 11.4611 33.2157C11.7026 33.0216 12.0103 32.9245 12.3844 32.9245C12.7584 32.9245 13.0662 33.0216 13.3077 33.2157C13.5491 33.4099 13.7279 33.6644 13.8439 33.9792C13.9599 34.2941 14.0179 34.6338 14.0179 34.9984C14.0179 35.363 13.9599 35.7015 13.8439 36.014C13.7279 36.3265 13.5491 36.5787 13.3077 36.7704Z" fill="#55B3FF"/>
<path d="M16.0998 39.7072C16.211 39.7309 16.3377 39.7427 16.4797 39.7427C16.733 39.7427 16.9603 39.6977 17.1615 39.6078C17.3651 39.5178 17.5439 39.3793 17.6978 39.1923C17.8516 39.0076 17.9807 38.7744 18.0848 38.4927L20.4002 32.2427H19.4911L17.9854 36.5893H17.9286L16.4229 32.2427H15.5138L17.5309 37.7257L17.3746 38.1518C17.2728 38.4288 17.1604 38.6288 17.0373 38.752C16.9165 38.8774 16.778 38.9473 16.6218 38.9615C16.4655 38.9757 16.2856 38.9567 16.082 38.9047L15.8689 39.6433C15.9115 39.6646 15.9885 39.6859 16.0998 39.7072Z" fill="#55B3FF"/>
<path fill-rule="evenodd" clip-rule="evenodd" d="M22.2379 37.4629C22.619 37.6949 23.0724 37.8109 23.598 37.8109C23.9673 37.8109 24.2999 37.7541 24.5958 37.6404C24.8918 37.5244 25.1404 37.3635 25.3416 37.1575C25.5428 36.9492 25.686 36.7077 25.7713 36.4331L24.9616 36.2058C24.8906 36.3952 24.79 36.5538 24.6598 36.6816C24.5296 36.8071 24.3745 36.9018 24.1946 36.9657C24.017 37.0273 23.8181 37.0581 23.598 37.0581C23.2594 37.0581 22.9623 36.9847 22.7066 36.8379C22.451 36.6887 22.2509 36.4721 22.1065 36.188C21.9777 35.9283 21.9073 35.617 21.8953 35.2541H25.8565V34.899C25.8565 34.39 25.789 33.9615 25.6541 33.6135C25.5191 33.2654 25.338 32.9861 25.1108 32.7754C24.8835 32.5623 24.6314 32.4084 24.3544 32.3137C24.0774 32.219 23.7968 32.1717 23.5128 32.1717C23.0203 32.1717 22.5895 32.2924 22.2201 32.5339C21.8532 32.773 21.5667 33.1068 21.3608 33.5353C21.1572 33.9615 21.0554 34.4539 21.0554 35.0126C21.0554 35.5713 21.1572 36.0614 21.3608 36.4828C21.5667 36.9018 21.8591 37.2285 22.2379 37.4629ZM21.8974 34.5297C21.9134 34.2766 21.9772 34.0375 22.0887 33.8123C22.219 33.5495 22.4048 33.3365 22.6463 33.1731C22.8901 33.0074 23.1789 32.9245 23.5128 32.9245C23.8158 32.9245 24.0786 32.9944 24.3011 33.1341C24.526 33.2737 24.6988 33.4643 24.8196 33.7058C24.9427 33.9473 25.0042 34.2219 25.0042 34.5297H21.8974Z" fill="#55B3FF"/>
<path d="M28.0262 37.4487C28.3956 37.6902 28.8359 37.8109 29.3473 37.8109C29.7497 37.8109 30.1025 37.7363 30.4055 37.5872C30.7109 37.4357 30.9559 37.2321 31.1406 36.9764C31.3276 36.7183 31.4448 36.4283 31.4922 36.1064H30.6541C30.602 36.3052 30.5144 36.4757 30.3913 36.6177C30.2682 36.7598 30.1179 36.8687 29.9403 36.9444C29.7628 37.0202 29.5651 37.0581 29.3473 37.0581C29.0158 37.0581 28.727 36.9716 28.4808 36.7988C28.2369 36.626 28.0476 36.3833 27.9126 36.0708C27.78 35.7583 27.7137 35.3914 27.7137 34.97C27.7137 34.5581 27.7812 34.1994 27.9162 33.894C28.0535 33.5862 28.244 33.3483 28.4879 33.1802C28.7341 33.0098 29.0206 32.9245 29.3473 32.9245C29.7166 32.9245 30.0101 33.0216 30.2279 33.2157C30.4481 33.4075 30.5902 33.6277 30.6541 33.8762H31.4922C31.4448 33.5353 31.3229 33.237 31.1264 32.9814C30.9299 32.7257 30.6778 32.5268 30.37 32.3848C30.0622 32.2427 29.7166 32.1717 29.3331 32.1717C28.8406 32.1717 28.4098 32.2924 28.0404 32.5339C27.6735 32.773 27.387 33.1056 27.1811 33.5318C26.9775 33.9556 26.8757 34.4444 26.8757 34.9984C26.8757 35.5429 26.9751 36.027 27.174 36.4508C27.3728 36.8746 27.6569 37.2072 28.0262 37.4487Z" fill="#55B3FF"/>
<path d="M35.0895 32.9529V32.2427H33.9247V30.9359H33.0866V32.2427H32.2628V32.9529H33.0866V36.362C33.0866 36.6793 33.16 36.9421 33.3068 37.1504C33.4559 37.3587 33.643 37.5138 33.8679 37.6156C34.0951 37.7174 34.3271 37.7683 34.5639 37.7683C34.7201 37.7683 34.8492 37.7565 34.951 37.7328C35.0528 37.7115 35.1321 37.6902 35.1889 37.6689L35.0184 36.916L34.8764 36.9444C34.8172 36.9539 34.7414 36.9586 34.6491 36.9586C34.526 36.9586 34.4088 36.9397 34.2976 36.9018C34.1887 36.8616 34.0987 36.7834 34.0277 36.6674C33.959 36.5491 33.9247 36.3715 33.9247 36.1348V32.9529H35.0895Z" fill="#55B3FF"/>
<path fill-rule="evenodd" clip-rule="evenodd" d="M37.2113 37.4593C37.5829 37.6937 38.015 37.8109 38.5074 37.8109C38.9999 37.8109 39.4307 37.6937 39.8 37.4593C40.1717 37.225 40.4606 36.8971 40.6665 36.4757C40.8749 36.0543 40.979 35.5618 40.979 34.9984C40.979 34.4302 40.8749 33.9342 40.6665 33.5105C40.4606 33.0867 40.1717 32.7576 39.8 32.5233C39.4307 32.2889 38.9999 32.1717 38.5074 32.1717C38.015 32.1717 37.5829 32.2889 37.2113 32.5233C36.8419 32.7576 36.5531 33.0867 36.3448 33.5105C36.1388 33.9342 36.0358 34.4302 36.0358 34.9984C36.0358 35.5618 36.1388 36.0543 36.3448 36.4757C36.5531 36.8971 36.8419 37.225 37.2113 37.4593ZM39.4307 36.7704C39.1892 36.9622 38.8815 37.0581 38.5074 37.0581C38.1334 37.0581 37.8256 36.9622 37.5841 36.7704C37.3427 36.5787 37.1639 36.3265 37.0479 36.014C36.9319 35.7015 36.8739 35.363 36.8739 34.9984C36.8739 34.6338 36.9319 34.2941 37.0479 33.9792C37.1639 33.6644 37.3427 33.4099 37.5841 33.2157C37.8256 33.0216 38.1334 32.9245 38.5074 32.9245C38.8815 32.9245 39.1892 33.0216 39.4307 33.2157C39.6722 33.4099 39.8509 33.6644 39.9669 33.9792C40.0829 34.2941 40.1409 34.6338 40.1409 34.9984C40.1409 35.363 40.0829 35.7015 39.9669 36.014C39.8509 36.3265 39.6722 36.5787 39.4307 36.7704Z" fill="#55B3FF"/>
<path d="M45.3691 33.6774L46.1219 33.4643C45.9917 33.0761 45.7716 32.7636 45.4614 32.5268C45.1537 32.2901 44.7299 32.1717 44.1901 32.1717C43.8066 32.1717 43.4633 32.2392 43.1603 32.3741C42.8596 32.5091 42.6217 32.6949 42.4465 32.9316C42.2737 33.1684 42.1873 33.4406 42.1873 33.7484C42.1873 34.1248 42.3033 34.4385 42.5353 34.6895C42.7697 34.938 43.1366 35.1215 43.6362 35.2399L44.5452 35.4529C44.8199 35.5169 45.0235 35.6139 45.156 35.7441C45.2886 35.872 45.3549 36.0306 45.3549 36.22C45.3549 36.4544 45.2389 36.6556 45.0069 36.8237C44.7773 36.9894 44.4671 37.0723 44.0765 37.0723C43.7332 37.0723 43.455 36.9989 43.242 36.8521C43.0313 36.7053 42.8881 36.4851 42.8123 36.1916L42.0168 36.3904C42.1139 36.8545 42.3447 37.2072 42.7093 37.4487C43.0739 37.6902 43.5344 37.8109 44.0907 37.8109C44.5145 37.8109 44.8862 37.7399 45.2058 37.5978C45.5254 37.4558 45.7739 37.2617 45.9515 37.0154C46.1314 36.7692 46.2214 36.4899 46.2214 36.1774C46.2214 35.7962 46.1018 35.4849 45.8627 35.2434C45.6236 34.9996 45.2602 34.8185 44.7725 34.7001L43.9629 34.5012C43.6409 34.4207 43.4041 34.3201 43.2526 34.1994C43.1011 34.0787 43.0254 33.9141 43.0254 33.7058C43.0254 33.4714 43.1354 33.2785 43.3556 33.127C43.5782 32.9731 43.8563 32.8961 44.1901 32.8961C44.434 32.8961 44.634 32.9352 44.7903 33.0133C44.9465 33.0914 45.0696 33.1909 45.1596 33.3116C45.2519 33.43 45.3218 33.5519 45.3691 33.6774Z" fill="#55B3FF"/>
</svg>
