<svg width="28" height="38" viewBox="0 0 28 38" fill="none" xmlns="http://www.w3.org/2000/svg">
<path fill-rule="evenodd" clip-rule="evenodd" d="M14.4696 0.310243C14.113 0.0476274 13.6269 0.0476274 13.2703 0.310243L4.37842 6.8579C3.35174 7.6139 2.74561 8.81296 2.74561 10.088V20.8732C2.74561 22.8125 4.31768 24.3846 6.25692 24.3846H9.83604C10.9468 24.3846 11.8473 23.4841 11.8473 22.3732V16.7998H15.8925V22.3732C15.8925 23.4841 16.793 24.3846 17.9039 24.3846H21.483C23.4222 24.3846 24.9943 22.8125 24.9943 20.8732V10.088C24.9943 8.81296 24.3881 7.6139 23.3615 6.8579L14.4696 0.310243ZM5.57772 8.48658L13.8699 2.38049L22.1622 8.48658C22.6712 8.86139 22.9717 9.45585 22.9717 10.088V20.8732C22.9717 21.6954 22.3052 22.3619 21.483 22.3619H17.9152V16.2885C17.9152 15.4538 17.2385 14.7772 16.4039 14.7772H11.336C10.5014 14.7772 9.82473 15.4538 9.82473 16.2885V22.3619H6.25692C5.43473 22.3619 4.76822 21.6954 4.76822 20.8732V10.088C4.76822 9.45585 5.06872 8.86139 5.57772 8.48658Z" fill="#CFD1DE"/>
<path d="M0.809326 29.8406V37.1133H1.69001V33.8604H5.56785V37.1133H6.44853V29.8406H5.56785V33.0792H1.69001V29.8406H0.809326Z" fill="#CFD1DE"/>
<path fill-rule="evenodd" clip-rule="evenodd" d="M9.01778 36.8754C9.38947 37.1097 9.82152 37.2269 10.3139 37.2269C10.8064 37.2269 11.2372 37.1097 11.6066 36.8754C11.9782 36.641 12.2671 36.3131 12.473 35.8917C12.6814 35.4703 12.7855 34.9779 12.7855 34.4144C12.7855 33.8462 12.6814 33.3503 12.473 32.9265C12.2671 32.5027 11.9782 32.1736 11.6066 31.9393C11.2372 31.7049 10.8064 31.5877 10.3139 31.5877C9.82152 31.5877 9.38947 31.7049 9.01778 31.9393C8.64846 32.1736 8.35964 32.5027 8.1513 32.9265C7.94534 33.3503 7.84235 33.8462 7.84235 34.4144C7.84235 34.9779 7.94534 35.4703 8.1513 35.8917C8.35964 36.3131 8.64846 36.641 9.01778 36.8754ZM11.2372 36.1864C10.9958 36.3782 10.688 36.4741 10.3139 36.4741C9.93989 36.4741 9.63213 36.3782 9.39065 36.1864C9.14917 35.9947 8.97043 35.7425 8.85443 35.43C8.73842 35.1175 8.68042 34.779 8.68042 34.4144C8.68042 34.0498 8.73842 33.7101 8.85443 33.3952C8.97043 33.0804 9.14917 32.8259 9.39065 32.6317C9.63213 32.4376 9.93989 32.3406 10.3139 32.3406C10.688 32.3406 10.9958 32.4376 11.2372 32.6317C11.4787 32.8259 11.6575 33.0804 11.7735 33.3952C11.8895 33.7101 11.9475 34.0498 11.9475 34.4144C11.9475 34.779 11.8895 35.1175 11.7735 35.43C11.6575 35.7425 11.4787 35.9947 11.2372 36.1864Z" fill="#CFD1DE"/>
<path d="M14.0648 31.6587V37.1133H14.9029V33.7042C14.9029 33.4367 14.9597 33.2011 15.0734 32.9975C15.1894 32.7915 15.3409 32.6306 15.5279 32.5146C15.7173 32.3986 15.9209 32.3406 16.1387 32.3406C16.4559 32.3406 16.7152 32.4364 16.9164 32.6282C17.1176 32.8176 17.2182 33.0674 17.2182 33.3775V37.1133H18.0705V33.5621C18.0705 33.2094 18.1759 32.9182 18.3866 32.6886C18.5973 32.4566 18.8944 32.3406 19.2779 32.3406C19.5762 32.3406 19.8354 32.427 20.0556 32.5998C20.2758 32.7726 20.3859 33.0602 20.3859 33.4627V37.1133H21.2239V33.4627C21.2239 32.8211 21.0689 32.3488 20.7587 32.0458C20.4486 31.7404 20.0497 31.5877 19.562 31.5877C19.1714 31.5877 18.8364 31.6718 18.557 31.8398C18.2777 32.0056 18.0681 32.2293 17.9285 32.511H17.8717C17.7367 32.2198 17.5485 31.9937 17.307 31.8327C17.0679 31.6694 16.7684 31.5877 16.4086 31.5877C16.0535 31.5877 15.7493 31.6694 15.4959 31.8327C15.2426 31.9937 15.0592 32.2198 14.9455 32.511H14.8745V31.6587H14.0648Z" fill="#CFD1DE"/>
<path fill-rule="evenodd" clip-rule="evenodd" d="M23.6831 36.8789C24.0642 37.1109 24.5176 37.2269 25.0432 37.2269C25.4125 37.2269 25.7451 37.1701 26.041 37.0565C26.337 36.9405 26.5855 36.7795 26.7868 36.5735C26.988 36.3652 27.1312 36.1237 27.2165 35.8491L26.4068 35.6218C26.3358 35.8112 26.2352 35.9698 26.105 36.0977C25.9748 36.2231 25.8197 36.3178 25.6398 36.3817C25.4622 36.4433 25.2633 36.4741 25.0432 36.4741C24.7046 36.4741 24.4075 36.4007 24.1518 36.2539C23.8962 36.1048 23.6961 35.8881 23.5517 35.604C23.4229 35.3443 23.3525 35.033 23.3405 34.6701H27.3017V34.315C27.3017 33.806 27.2342 33.3775 27.0993 33.0295C26.9643 32.6815 26.7832 32.4021 26.556 32.1914C26.3287 31.9783 26.0766 31.8245 25.7996 31.7298C25.5226 31.6351 25.242 31.5877 24.9579 31.5877C24.4655 31.5877 24.0346 31.7085 23.6653 31.9499C23.2984 32.189 23.0119 32.5228 22.806 32.9513C22.6024 33.3775 22.5006 33.8699 22.5006 34.4286C22.5006 34.9873 22.6024 35.4774 22.806 35.8988C23.0119 36.3178 23.3043 36.6445 23.6831 36.8789ZM23.3426 33.9457C23.3586 33.6926 23.4224 33.4535 23.5339 33.2283C23.6641 32.9656 23.85 32.7525 24.0915 32.5891C24.3353 32.4234 24.6241 32.3406 24.9579 32.3406C25.261 32.3406 25.5238 32.4104 25.7463 32.5501C25.9712 32.6897 26.144 32.8803 26.2648 33.1218C26.3879 33.3633 26.4494 33.6379 26.4494 33.9457H23.3426Z" fill="#CFD1DE"/>
</svg>
