<svg width="47" height="40" viewBox="0 0 47 40" fill="none" xmlns="http://www.w3.org/2000/svg">
<path fill-rule="evenodd" clip-rule="evenodd" d="M29.0678 2.02261H28.8951C28.4786 0.844244 27.3548 0 26.0339 0H19.966C18.6451 0 17.5213 0.844243 17.1048 2.02261H16.9321C14.698 2.02261 12.8869 3.8337 12.8869 6.06781V20.2261C12.8869 22.4602 14.698 24.2713 16.9321 24.2713H29.0678C31.3019 24.2713 33.113 22.4602 33.113 20.2261V6.06782C33.113 3.83371 31.3019 2.02261 29.0678 2.02261ZM14.9095 6.06781C14.9095 4.95076 15.8151 4.04521 16.9321 4.04521C16.9321 5.72079 18.2905 7.07912 19.966 7.07912H26.0339C27.7094 7.07912 29.0678 5.72079 29.0678 4.04521C30.1848 4.04521 31.0904 4.95076 31.0904 6.06782V20.2261C31.0904 21.3431 30.1848 22.2487 29.0678 22.2487H16.9321C15.8151 22.2487 14.9095 21.3431 14.9095 20.2261V6.06781ZM19.966 2.02261C19.4075 2.02261 18.9547 2.47538 18.9547 3.03391V4.04521C18.9547 4.60374 19.4075 5.05651 19.966 5.05651H26.0339C26.5924 5.05651 27.0452 4.60374 27.0452 4.04521V3.03391C27.0452 2.47538 26.5924 2.02261 26.0339 2.02261H19.966Z" fill="#CFD1DE"/>
<path fill-rule="evenodd" clip-rule="evenodd" d="M0.272339 29.7273V37H1.15302V34.3438H2.74393C3.30974 34.3438 3.77376 34.2408 4.13598 34.0348C4.49819 33.8265 4.76571 33.5471 4.93853 33.1967C5.11372 32.8464 5.20132 32.4569 5.20132 32.0284C5.20132 31.5999 5.11372 31.2116 4.93853 30.8636C4.76334 30.5156 4.49346 30.2398 4.12887 30.0362C3.76666 29.8303 3.30027 29.7273 2.72973 29.7273H0.272339ZM1.15302 33.5625H2.71552C3.10615 33.5625 3.41983 33.495 3.65657 33.3601C3.89331 33.2251 4.06495 33.0429 4.17149 32.8132C4.28039 32.5812 4.33484 32.3196 4.33484 32.0284C4.33484 31.7372 4.28039 31.4768 4.17149 31.2472C4.06495 31.0175 3.89213 30.8376 3.65302 30.7074C3.41391 30.5748 3.09668 30.5085 2.70132 30.5085H1.15302V33.5625Z" fill="#CFD1DE"/>
<path d="M6.50636 31.5455V37H7.34443V33.5483C7.34443 33.3021 7.40361 33.0831 7.52198 32.8913C7.64272 32.6972 7.80607 32.5457 8.01204 32.4368C8.22037 32.3255 8.45712 32.2699 8.72227 32.2699C8.83354 32.2699 8.93889 32.2782 9.03832 32.2947C9.14012 32.3089 9.20522 32.3196 9.23363 32.3267V31.4744C9.18628 31.4697 9.11644 31.4661 9.02411 31.4638C8.93178 31.4614 8.85484 31.4602 8.79329 31.4602C8.46659 31.4602 8.17303 31.5443 7.91261 31.7124C7.65219 31.8804 7.47227 32.0994 7.37284 32.3693H7.31602V31.5455H6.50636Z" fill="#CFD1DE"/>
<path fill-rule="evenodd" clip-rule="evenodd" d="M10.9808 36.7621C11.3525 36.9964 11.7845 37.1136 12.277 37.1136C12.7694 37.1136 13.2003 36.9964 13.5696 36.7621C13.9413 36.5277 14.2301 36.1998 14.436 35.7784C14.6444 35.357 14.7485 34.8646 14.7485 34.3011C14.7485 33.733 14.6444 33.237 14.436 32.8132C14.2301 32.3894 13.9413 32.0604 13.5696 31.826C13.2003 31.5916 12.7694 31.4744 12.277 31.4744C11.7845 31.4744 11.3525 31.5916 10.9808 31.826C10.6115 32.0604 10.3226 32.3894 10.1143 32.8132C9.90835 33.237 9.80536 33.733 9.80536 34.3011C9.80536 34.8646 9.90835 35.357 10.1143 35.7784C10.3226 36.1998 10.6115 36.5277 10.9808 36.7621ZM13.2003 36.0732C12.9588 36.2649 12.651 36.3608 12.277 36.3608C11.9029 36.3608 11.5951 36.2649 11.3537 36.0732C11.1122 35.8814 10.9334 35.6293 10.8174 35.3168C10.7014 35.0043 10.6434 34.6657 10.6434 34.3011C10.6434 33.9366 10.7014 33.5968 10.8174 33.282C10.9334 32.9671 11.1122 32.7126 11.3537 32.5185C11.5951 32.3243 11.9029 32.2273 12.277 32.2273C12.651 32.2273 12.9588 32.3243 13.2003 32.5185C13.4417 32.7126 13.6205 32.9671 13.7365 33.282C13.8525 33.5968 13.9105 33.9366 13.9105 34.3011C13.9105 34.6657 13.8525 35.0043 13.7365 35.3168C13.6205 35.6293 13.4417 35.8814 13.2003 36.0732Z" fill="#CFD1DE"/>
<path d="M15.9923 39.0099C16.1036 39.0336 16.2303 39.0455 16.3723 39.0455C16.6256 39.0455 16.8529 39.0005 17.0541 38.9105C17.2577 38.8205 17.4365 38.6821 17.5903 38.495C17.7442 38.3104 17.8733 38.0772 17.9774 37.7955L20.2928 31.5455H19.3837L17.878 35.892H17.8212L16.3155 31.5455H15.4064L17.4234 37.0284L17.2672 37.4545C17.1654 37.7315 17.0529 37.9316 16.9298 38.0547C16.8091 38.1802 16.6706 38.25 16.5143 38.2642C16.3581 38.2784 16.1782 38.2595 15.9746 38.2074L15.7615 38.946C15.8041 38.9673 15.8811 38.9886 15.9923 39.0099Z" fill="#CFD1DE"/>
<path fill-rule="evenodd" clip-rule="evenodd" d="M22.1305 36.7656C22.5116 36.9976 22.965 37.1136 23.4906 37.1136C23.8599 37.1136 24.1925 37.0568 24.4884 36.9432C24.7844 36.8272 25.0329 36.6662 25.2342 36.4602C25.4354 36.2519 25.5786 36.0104 25.6639 35.7358L24.8542 35.5085C24.7832 35.6979 24.6826 35.8565 24.5523 35.9844C24.4221 36.1098 24.2671 36.2045 24.0871 36.2685C23.9096 36.33 23.7107 36.3608 23.4906 36.3608C23.152 36.3608 22.8549 36.2874 22.5992 36.1406C22.3435 35.9915 22.1435 35.7749 21.9991 35.4908C21.8703 35.231 21.7999 34.9197 21.7879 34.5568H25.7491V34.2017C25.7491 33.6927 25.6816 33.2642 25.5467 32.9162C25.4117 32.5682 25.2306 32.2888 25.0033 32.0781C24.7761 31.8651 24.5239 31.7112 24.2469 31.6165C23.97 31.5218 23.6894 31.4744 23.4053 31.4744C22.9129 31.4744 22.482 31.5952 22.1127 31.8366C21.7458 32.0758 21.4593 32.4096 21.2533 32.8381C21.0497 33.2642 20.9479 33.7566 20.9479 34.3153C20.9479 34.8741 21.0497 35.3641 21.2533 35.7855C21.4593 36.2045 21.7517 36.5312 22.1305 36.7656ZM21.79 33.8324C21.806 33.5794 21.8697 33.3403 21.9813 33.1151C22.1115 32.8523 22.2974 32.6392 22.5389 32.4759C22.7827 32.3101 23.0715 32.2273 23.4053 32.2273C23.7084 32.2273 23.9711 32.2971 24.1937 32.4368C24.4186 32.5765 24.5914 32.767 24.7121 33.0085C24.8353 33.25 24.8968 33.5246 24.8968 33.8324H21.79Z" fill="#CFD1DE"/>
<path d="M27.9188 36.7514C28.2881 36.9929 28.7285 37.1136 29.2398 37.1136C29.6423 37.1136 29.9951 37.0391 30.2981 36.8899C30.6035 36.7384 30.8485 36.5348 31.0332 36.2791C31.2202 36.0211 31.3374 35.7311 31.3847 35.4091H30.5467C30.4946 35.608 30.407 35.7784 30.2839 35.9205C30.1608 36.0625 30.0104 36.1714 29.8329 36.2472C29.6553 36.3229 29.4576 36.3608 29.2398 36.3608C28.9084 36.3608 28.6196 36.2744 28.3734 36.1016C28.1295 35.9287 27.9401 35.6861 27.8052 35.3736C27.6726 35.0611 27.6063 34.6941 27.6063 34.2727C27.6063 33.8608 27.6738 33.5021 27.8087 33.1967C27.946 32.889 28.1366 32.651 28.3805 32.483C28.6267 32.3125 28.9131 32.2273 29.2398 32.2273C29.6092 32.2273 29.9027 32.3243 30.1205 32.5185C30.3407 32.7102 30.4827 32.9304 30.5467 33.179H31.3847C31.3374 32.8381 31.2155 32.5398 31.019 32.2841C30.8225 32.0284 30.5703 31.8295 30.2626 31.6875C29.9548 31.5455 29.6092 31.4744 29.2256 31.4744C28.7332 31.4744 28.3023 31.5952 27.933 31.8366C27.5661 32.0758 27.2796 32.4084 27.0737 32.8345C26.8701 33.2583 26.7683 33.7472 26.7683 34.3011C26.7683 34.8456 26.8677 35.3298 27.0666 35.7536C27.2654 36.1773 27.5495 36.5099 27.9188 36.7514Z" fill="#CFD1DE"/>
<path d="M34.982 32.2557V31.5455H33.8173V30.2386H32.9792V31.5455H32.1553V32.2557H32.9792V35.6648C32.9792 35.982 33.0526 36.2448 33.1994 36.4531C33.3485 36.6615 33.5355 36.8165 33.7604 36.9183C33.9877 37.0201 34.2197 37.071 34.4565 37.071C34.6127 37.071 34.7417 37.0592 34.8435 37.0355C34.9453 37.0142 35.0247 36.9929 35.0815 36.9716L34.911 36.2188L34.769 36.2472C34.7098 36.2566 34.634 36.2614 34.5417 36.2614C34.4186 36.2614 34.3014 36.2424 34.1901 36.2045C34.0812 36.1643 33.9913 36.0862 33.9202 35.9702C33.8516 35.8518 33.8173 35.6742 33.8173 35.4375V32.2557H34.982Z" fill="#CFD1DE"/>
<path fill-rule="evenodd" clip-rule="evenodd" d="M37.1038 36.7621C37.4755 36.9964 37.9076 37.1136 38.4 37.1136C38.8924 37.1136 39.3233 36.9964 39.6926 36.7621C40.0643 36.5277 40.3531 36.1998 40.5591 35.7784C40.7674 35.357 40.8716 34.8646 40.8716 34.3011C40.8716 33.733 40.7674 33.237 40.5591 32.8132C40.3531 32.3894 40.0643 32.0604 39.6926 31.826C39.3233 31.5916 38.8924 31.4744 38.4 31.4744C37.9076 31.4744 37.4755 31.5916 37.1038 31.826C36.7345 32.0604 36.4457 32.3894 36.2374 32.8132C36.0314 33.237 35.9284 33.733 35.9284 34.3011C35.9284 34.8646 36.0314 35.357 36.2374 35.7784C36.4457 36.1998 36.7345 36.5277 37.1038 36.7621ZM39.3233 36.0732C39.0818 36.2649 38.7741 36.3608 38.4 36.3608C38.026 36.3608 37.7182 36.2649 37.4767 36.0732C37.2352 35.8814 37.0565 35.6293 36.9405 35.3168C36.8245 35.0043 36.7665 34.6657 36.7665 34.3011C36.7665 33.9366 36.8245 33.5968 36.9405 33.282C37.0565 32.9671 37.2352 32.7126 37.4767 32.5185C37.7182 32.3243 38.026 32.2273 38.4 32.2273C38.7741 32.2273 39.0818 32.3243 39.3233 32.5185C39.5648 32.7126 39.7435 32.9671 39.8595 33.282C39.9755 33.5968 40.0335 33.9366 40.0335 34.3011C40.0335 34.6657 39.9755 35.0043 39.8595 35.3168C39.7435 35.6293 39.5648 35.8814 39.3233 36.0732Z" fill="#CFD1DE"/>
<path d="M45.2617 32.9801L46.0145 32.767C45.8843 32.3788 45.6642 32.0663 45.354 31.8295C45.0463 31.5928 44.6225 31.4744 44.0827 31.4744C43.6992 31.4744 43.3559 31.5419 43.0529 31.6768C42.7522 31.8118 42.5143 31.9976 42.3391 32.2344C42.1663 32.4711 42.0799 32.7434 42.0799 33.0511C42.0799 33.4276 42.1959 33.7412 42.4279 33.9922C42.6623 34.2408 43.0292 34.4242 43.5287 34.5426L44.4378 34.7557C44.7124 34.8196 44.916 34.9167 45.0486 35.0469C45.1812 35.1747 45.2475 35.3333 45.2475 35.5227C45.2475 35.7571 45.1315 35.9583 44.8995 36.1264C44.6698 36.2921 44.3597 36.375 43.9691 36.375C43.6258 36.375 43.3476 36.3016 43.1346 36.1548C42.9239 36.008 42.7806 35.7879 42.7049 35.4943L41.9094 35.6932C42.0065 36.1572 42.2373 36.5099 42.6019 36.7514C42.9665 36.9929 43.4269 37.1136 43.9833 37.1136C44.407 37.1136 44.7787 37.0426 45.0983 36.9006C45.4179 36.7585 45.6665 36.5644 45.8441 36.3182C46.024 36.072 46.114 35.7926 46.114 35.4801C46.114 35.099 45.9944 34.7876 45.7553 34.5462C45.5162 34.3023 45.1528 34.1212 44.6651 34.0028L43.8554 33.804C43.5335 33.7235 43.2967 33.6229 43.1452 33.5021C42.9937 33.3814 42.9179 33.2169 42.9179 33.0085C42.9179 32.7741 43.028 32.5812 43.2482 32.4297C43.4707 32.2758 43.7489 32.1989 44.0827 32.1989C44.3266 32.1989 44.5266 32.2379 44.6829 32.3161C44.8391 32.3942 44.9622 32.4936 45.0522 32.6143C45.1445 32.7327 45.2143 32.8546 45.2617 32.9801Z" fill="#CFD1DE"/>
</svg>
