<svg width="28" height="38" viewBox="0 0 28 38" fill="none" xmlns="http://www.w3.org/2000/svg">
<path fill-rule="evenodd" clip-rule="evenodd" d="M14.5995 0.696962C14.2428 0.434346 13.7568 0.434346 13.4002 0.696962L4.5221 7.23445C3.48675 7.99685 2.8755 9.20605 2.8755 10.4918V21.2317C2.8755 23.1866 4.46021 24.7713 6.41506 24.7713H9.95462C11.0717 24.7713 11.9772 23.8657 11.9772 22.7487V17.1865H16.0224V22.7487C16.0224 23.8657 16.928 24.7713 18.045 24.7713H21.5846C23.5394 24.7713 25.1242 23.1866 25.1242 21.2317V10.4918C25.1242 9.20605 24.5129 7.99685 23.4776 7.23445L14.5995 0.696962ZM5.7214 8.86313L13.9998 2.76721L22.2782 8.86313C22.7959 9.24433 23.1016 9.84893 23.1016 10.4918V21.2317C23.1016 22.0695 22.4224 22.7487 21.5846 22.7487H18.045V16.6808C18.045 15.8431 17.3659 15.1639 16.5281 15.1639H11.4716C10.6338 15.1639 9.95462 15.8431 9.95462 16.6808V22.7487H6.41506C5.57727 22.7487 4.8981 22.0695 4.8981 21.2317V10.4918C4.8981 9.84893 5.20373 9.24433 5.7214 8.86313Z" fill="#CFD1DE"/>
<path d="M0.940186 30.2273V37.5H1.82087V34.2472H5.69871V37.5H6.57939V30.2273H5.69871V33.4659H1.82087V30.2273H0.940186Z" fill="#CFD1DE"/>
<path fill-rule="evenodd" clip-rule="evenodd" d="M9.14864 37.2621C9.52032 37.4964 9.95238 37.6136 10.4448 37.6136C10.9372 37.6136 11.3681 37.4964 11.7374 37.2621C12.1091 37.0277 12.3979 36.6998 12.6039 36.2784C12.8122 35.857 12.9164 35.3646 12.9164 34.8011C12.9164 34.233 12.8122 33.737 12.6039 33.3132C12.3979 32.8894 12.1091 32.5604 11.7374 32.326C11.3681 32.0916 10.9372 31.9744 10.4448 31.9744C9.95238 31.9744 9.52032 32.0916 9.14864 32.326C8.77932 32.5604 8.4905 32.8894 8.28216 33.3132C8.0762 33.737 7.97321 34.233 7.97321 34.8011C7.97321 35.3646 8.0762 35.857 8.28216 36.2784C8.4905 36.6998 8.77932 37.0277 9.14864 37.2621ZM11.3681 36.5732C11.1266 36.7649 10.8189 36.8608 10.4448 36.8608C10.0708 36.8608 9.76299 36.7649 9.52151 36.5732C9.28003 36.3814 9.10129 36.1293 8.98529 35.8168C8.86928 35.5043 8.81128 35.1657 8.81128 34.8011C8.81128 34.4366 8.86928 34.0968 8.98529 33.782C9.10129 33.4671 9.28003 33.2126 9.52151 33.0185C9.76299 32.8243 10.0708 32.7273 10.4448 32.7273C10.8189 32.7273 11.1266 32.8243 11.3681 33.0185C11.6096 33.2126 11.7883 33.4671 11.9043 33.782C12.0203 34.0968 12.0783 34.4366 12.0783 34.8011C12.0783 35.1657 12.0203 35.5043 11.9043 35.8168C11.7883 36.1293 11.6096 36.3814 11.3681 36.5732Z" fill="#CFD1DE"/>
<path d="M14.1957 32.0455V37.5H15.0338V34.0909C15.0338 33.8234 15.0906 33.5878 15.2042 33.3842C15.3202 33.1783 15.4717 33.0173 15.6588 32.9013C15.8482 32.7853 16.0518 32.7273 16.2696 32.7273C16.5868 32.7273 16.846 32.8232 17.0473 33.0149C17.2485 33.2043 17.3491 33.4541 17.3491 33.7642V37.5H18.2014V33.9489C18.2014 33.5961 18.3067 33.3049 18.5174 33.0753C18.7281 32.8433 19.0252 32.7273 19.4088 32.7273C19.7071 32.7273 19.9663 32.8137 20.1865 32.9865C20.4066 33.1593 20.5167 33.447 20.5167 33.8494V37.5H21.3548V33.8494C21.3548 33.2079 21.1997 32.7356 20.8896 32.4325C20.5795 32.1271 20.1805 31.9744 19.6929 31.9744C19.3022 31.9744 18.9672 32.0585 18.6879 32.2266C18.4085 32.3923 18.199 32.616 18.0593 32.8977H18.0025C17.8676 32.6065 17.6794 32.3804 17.4379 32.2195C17.1988 32.0561 16.8993 31.9744 16.5394 31.9744C16.1843 31.9744 15.8801 32.0561 15.6268 32.2195C15.3735 32.3804 15.19 32.6065 15.0764 32.8977H15.0054V32.0455H14.1957Z" fill="#CFD1DE"/>
<path fill-rule="evenodd" clip-rule="evenodd" d="M23.8139 37.2656C24.1951 37.4976 24.6485 37.6136 25.174 37.6136C25.5433 37.6136 25.876 37.5568 26.1719 37.4432C26.4678 37.3272 26.7164 37.1662 26.9176 36.9602C27.1189 36.7519 27.2621 36.5104 27.3473 36.2358L26.5377 36.0085C26.4666 36.1979 26.366 36.3565 26.2358 36.4844C26.1056 36.6098 25.9505 36.7045 25.7706 36.7685C25.5931 36.83 25.3942 36.8608 25.174 36.8608C24.8355 36.8608 24.5384 36.7874 24.2827 36.6406C24.027 36.4915 23.827 36.2749 23.6826 35.9908C23.5538 35.731 23.4834 35.4197 23.4713 35.0568H27.4326V34.7017C27.4326 34.1927 27.3651 33.7642 27.2301 33.4162C27.0952 33.0682 26.9141 32.7888 26.6868 32.5781C26.4595 32.3651 26.2074 32.2112 25.9304 32.1165C25.6534 32.0218 25.3729 31.9744 25.0888 31.9744C24.5964 31.9744 24.1655 32.0952 23.7962 32.3366C23.4292 32.5758 23.1428 32.9096 22.9368 33.3381C22.7332 33.7642 22.6314 34.2566 22.6314 34.8153C22.6314 35.3741 22.7332 35.8641 22.9368 36.2855C23.1428 36.7045 23.4352 37.0312 23.8139 37.2656ZM23.4735 34.3324C23.4894 34.0794 23.5532 33.8403 23.6648 33.6151C23.795 33.3523 23.9808 33.1392 24.2223 32.9759C24.4662 32.8101 24.755 32.7273 25.0888 32.7273C25.3918 32.7273 25.6546 32.7971 25.8772 32.9368C26.1021 33.0765 26.2749 33.267 26.3956 33.5085C26.5187 33.75 26.5803 34.0246 26.5803 34.3324H23.4735Z" fill="#CFD1DE"/>
</svg>
