<svg width="24" height="37" viewBox="0 0 24 37" fill="none" xmlns="http://www.w3.org/2000/svg">
<path fill-rule="evenodd" clip-rule="evenodd" d="M7.03949 6.77643C7.03949 3.42527 9.75614 0.708618 13.1073 0.708618C16.4585 0.708618 19.1751 3.42527 19.1751 6.77643C19.1751 10.1276 16.4585 12.8443 13.1073 12.8443C9.75614 12.8443 7.03949 10.1276 7.03949 6.77643ZM13.1073 2.73122C10.8732 2.73122 9.0621 4.54233 9.0621 6.77643C9.0621 9.01054 10.8732 10.8216 13.1073 10.8216C15.3414 10.8216 17.1525 9.01054 17.1525 6.77643C17.1525 4.54233 15.3414 2.73122 13.1073 2.73122Z" fill="#CFD1DE"/>
<path d="M13.1073 17.3951C10.7076 17.3951 8.4338 17.9282 6.87768 18.4086C5.98694 18.6835 5.3324 19.4902 5.17221 20.52L5.00487 21.5958C4.91902 22.1477 4.40203 22.5255 3.85014 22.4396C3.29825 22.3538 2.92045 21.8368 3.0063 21.2849L3.17364 20.2091C3.43533 18.5268 4.54928 17.0106 6.28109 16.476C7.94395 15.9626 10.4313 15.3725 13.1073 15.3725C15.7833 15.3725 18.2707 15.9626 19.9335 16.476C21.6653 17.0106 22.7793 18.5268 23.041 20.2091L23.2083 21.2849C23.2942 21.8368 22.9164 22.3538 22.3645 22.4396C21.8126 22.5255 21.2956 22.1477 21.2097 21.5958L21.0424 20.52C20.8822 19.4902 20.2277 18.6835 19.3369 18.4086C17.7808 17.9282 15.507 17.3951 13.1073 17.3951Z" fill="#CFD1DE"/>
<path fill-rule="evenodd" clip-rule="evenodd" d="M0.727356 29.4246V36.6973H1.60804V34.0411H3.19895C3.76476 34.0411 4.22878 33.9381 4.59099 33.7321C4.95321 33.5238 5.22073 33.2444 5.39355 32.894C5.56874 32.5437 5.65633 32.1542 5.65633 31.7257C5.65633 31.2972 5.56874 30.909 5.39355 30.561C5.21836 30.2129 4.94847 29.9371 4.58389 29.7335C4.22167 29.5276 3.75529 29.4246 3.18474 29.4246H0.727356ZM1.60804 33.2598H3.17054C3.56116 33.2598 3.87485 33.1923 4.11159 33.0574C4.34833 32.9225 4.51997 32.7402 4.6265 32.5105C4.7354 32.2785 4.78986 32.0169 4.78986 31.7257C4.78986 31.4345 4.7354 31.1741 4.6265 30.9445C4.51997 30.7148 4.34715 30.5349 4.10804 30.4047C3.86893 30.2721 3.55169 30.2058 3.15633 30.2058H1.60804V33.2598Z" fill="#CFD1DE"/>
<path fill-rule="evenodd" clip-rule="evenodd" d="M7.82963 36.4629C8.21078 36.6949 8.66415 36.811 9.18971 36.811C9.55903 36.811 9.89165 36.7541 10.1876 36.6405C10.4835 36.5245 10.7321 36.3635 10.9333 36.1575C11.1346 35.9492 11.2778 35.7077 11.363 35.4331L10.5534 35.2058C10.4823 35.3952 10.3817 35.5538 10.2515 35.6817C10.1213 35.8072 9.96623 35.9019 9.7863 35.9658C9.60875 36.0273 9.40988 36.0581 9.18971 36.0581C8.85117 36.0581 8.55406 35.9847 8.29838 35.8379C8.0427 35.6888 7.84265 35.4722 7.69824 35.1881C7.56944 34.9283 7.49904 34.617 7.48702 34.2541H11.4482V33.899C11.4482 33.39 11.3808 32.9615 11.2458 32.6135C11.1109 32.2655 10.9298 31.9861 10.7025 31.7754C10.4752 31.5624 10.2231 31.4085 9.94611 31.3138C9.66912 31.2191 9.38858 31.1717 9.10449 31.1717C8.61206 31.1717 8.18119 31.2925 7.81187 31.534C7.44492 31.7731 7.15846 32.1069 6.9525 32.5354C6.7489 32.9615 6.6471 33.4539 6.6471 34.0127C6.6471 34.5714 6.7489 35.0614 6.9525 35.4828C7.15846 35.9019 7.45084 36.2286 7.82963 36.4629ZM7.48916 33.5297C7.50512 33.2767 7.5689 33.0376 7.68048 32.8124C7.81069 32.5496 7.99653 32.3365 8.23801 32.1732C8.48185 32.0074 8.77068 31.9246 9.10449 31.9246C9.40752 31.9246 9.6703 31.9944 9.89284 32.1341C10.1177 32.2738 10.2906 32.4644 10.4113 32.7058C10.5344 32.9473 10.596 33.2219 10.596 33.5297H7.48916Z" fill="#CFD1DE"/>
<path d="M12.7231 31.2428V36.6973H13.5612V33.2456C13.5612 32.9994 13.6203 32.7804 13.7387 32.5886C13.8595 32.3945 14.0228 32.243 14.2288 32.1341C14.4371 32.0228 14.6739 31.9672 14.939 31.9672C15.0503 31.9672 15.1556 31.9755 15.2551 31.9921C15.3569 32.0063 15.422 32.0169 15.4504 32.024V31.1717C15.403 31.167 15.3332 31.1635 15.2409 31.1611C15.1485 31.1587 15.0716 31.1575 15.01 31.1575C14.6833 31.1575 14.3898 31.2416 14.1293 31.4097C13.8689 31.5778 13.689 31.7967 13.5896 32.0666H13.5328V31.2428H12.7231Z" fill="#CFD1DE"/>
<path d="M19.2146 31.953V31.2428H17.993V30.6888C17.993 30.4189 18.0534 30.2141 18.1741 30.0744C18.2972 29.9348 18.4972 29.8649 18.7742 29.8649C18.895 29.8649 18.992 29.8756 19.0654 29.8969C19.1412 29.9182 19.2004 29.936 19.243 29.9502L19.4845 29.2257C19.4205 29.1973 19.3235 29.1665 19.1933 29.1334C19.0631 29.1003 18.895 29.0837 18.689 29.0837C18.4286 29.0837 18.1812 29.1358 17.9468 29.2399C17.7124 29.3441 17.5219 29.5003 17.3751 29.7087C17.2283 29.917 17.1549 30.1774 17.1549 30.4899V31.2428H16.2742V31.953H17.1549V36.6973H17.993V31.953H19.2146Z" fill="#CFD1DE"/>
<path d="M20.3891 31.2428V36.6973H21.2272V31.2428H20.3891Z" fill="#CFD1DE"/>
<path d="M20.3927 30.1668C20.511 30.278 20.6519 30.3337 20.8152 30.3337C20.9786 30.3337 21.1183 30.278 21.2343 30.1668C21.3527 30.0555 21.4118 29.9217 21.4118 29.7655C21.4118 29.6092 21.3527 29.4755 21.2343 29.3642C21.1183 29.2529 20.9786 29.1973 20.8152 29.1973C20.6519 29.1973 20.511 29.2529 20.3927 29.3642C20.2767 29.4755 20.2187 29.6092 20.2187 29.7655C20.2187 29.9217 20.2767 30.0555 20.3927 30.1668Z" fill="#CFD1DE"/>
<path d="M23.6002 36.6973V29.4246H22.7622V36.6973H23.6002Z" fill="#CFD1DE"/>
</svg>
