<svg width="27" height="38" viewBox="0 0 27 38" fill="none" xmlns="http://www.w3.org/2000/svg">
<path fill-rule="evenodd" clip-rule="evenodd" d="M13.6603 0.310243C13.3036 0.0476274 12.8176 0.0476274 12.461 0.310243L3.58289 6.84773C2.54754 7.61013 1.93629 8.81933 1.93629 10.1051V20.845C1.93629 22.7998 3.521 24.3846 5.47585 24.3846H9.01541C10.1325 24.3846 11.038 23.479 11.038 22.3619V16.7998H15.0832V22.3619C15.0832 23.479 15.9888 24.3846 17.1058 24.3846H20.6454C22.6002 24.3846 24.1849 22.7998 24.1849 20.845V10.1051C24.1849 8.81933 23.5737 7.61013 22.5383 6.84773L13.6603 0.310243ZM4.7822 8.47642L13.0606 2.38049L21.339 8.47642C21.8567 8.85761 22.1623 9.46221 22.1623 10.1051V20.845C22.1623 21.6828 21.4832 22.3619 20.6454 22.3619H17.1058V16.2941C17.1058 15.4563 16.4267 14.7772 15.5889 14.7772H10.5324C9.69457 14.7772 9.01541 15.4563 9.01541 16.2941V22.3619H5.47585C4.63806 22.3619 3.95889 21.6828 3.95889 20.845V10.1051C3.95889 9.46221 4.26452 8.85761 4.7822 8.47642Z" fill="#55B3FF"/>
<path d="M0 29.8406V37.1133H0.880684V33.8604H4.75852V37.1133H5.63921V29.8406H4.75852V33.0792H0.880684V29.8406H0Z" fill="#55B3FF"/>
<path fill-rule="evenodd" clip-rule="evenodd" d="M8.20845 36.8754C8.58014 37.1097 9.01219 37.2269 9.50462 37.2269C9.99704 37.2269 10.4279 37.1097 10.7972 36.8754C11.1689 36.641 11.4577 36.3131 11.6637 35.8917C11.872 35.4703 11.9762 34.9779 11.9762 34.4144C11.9762 33.8462 11.872 33.3503 11.6637 32.9265C11.4577 32.5027 11.1689 32.1736 10.7972 31.9393C10.4279 31.7049 9.99704 31.5877 9.50462 31.5877C9.01219 31.5877 8.58014 31.7049 8.20845 31.9393C7.83914 32.1736 7.55031 32.5027 7.34198 32.9265C7.13601 33.3503 7.03303 33.8462 7.03303 34.4144C7.03303 34.9779 7.13601 35.4703 7.34198 35.8917C7.55031 36.3131 7.83914 36.641 8.20845 36.8754ZM10.4279 36.1864C10.1864 36.3782 9.87867 36.4741 9.50462 36.4741C9.13057 36.4741 8.8228 36.3782 8.58132 36.1864C8.33985 35.9947 8.16111 35.7425 8.0451 35.43C7.9291 35.1175 7.8711 34.779 7.8711 34.4144C7.8711 34.0498 7.9291 33.7101 8.0451 33.3952C8.16111 33.0804 8.33985 32.8259 8.58132 32.6317C8.8228 32.4376 9.13057 32.3406 9.50462 32.3406C9.87867 32.3406 10.1864 32.4376 10.4279 32.6317C10.6694 32.8259 10.8481 33.0804 10.9641 33.3952C11.0801 33.7101 11.1381 34.0498 11.1381 34.4144C11.1381 34.779 11.0801 35.1175 10.9641 35.43C10.8481 35.7425 10.6694 35.9947 10.4279 36.1864Z" fill="#55B3FF"/>
<path d="M13.2555 31.6587V37.1133H14.0936V33.7042C14.0936 33.4367 14.1504 33.2011 14.264 32.9975C14.38 32.7915 14.5315 32.6306 14.7186 32.5146C14.908 32.3986 15.1116 32.3406 15.3294 32.3406C15.6466 32.3406 15.9058 32.4364 16.1071 32.6282C16.3083 32.8176 16.4089 33.0674 16.4089 33.3775V37.1133H17.2612V33.5621C17.2612 33.2094 17.3665 32.9182 17.5772 32.6886C17.7879 32.4566 18.0851 32.3406 18.4686 32.3406C18.7669 32.3406 19.0261 32.427 19.2463 32.5998C19.4664 32.7726 19.5765 33.0602 19.5765 33.4627V37.1133H20.4146V33.4627C20.4146 32.8211 20.2595 32.3488 19.9494 32.0458C19.6393 31.7404 19.2404 31.5877 18.7527 31.5877C18.362 31.5877 18.0271 31.6718 17.7477 31.8398C17.4683 32.0056 17.2588 32.2293 17.1191 32.511H17.0623C16.9274 32.2198 16.7392 31.9937 16.4977 31.8327C16.2586 31.6694 15.9591 31.5877 15.5993 31.5877C15.2441 31.5877 14.9399 31.6694 14.6866 31.8327C14.4333 31.9937 14.2498 32.2198 14.1362 32.511H14.0652V31.6587H13.2555Z" fill="#55B3FF"/>
<path fill-rule="evenodd" clip-rule="evenodd" d="M22.8738 36.8789C23.2549 37.1109 23.7083 37.2269 24.2338 37.2269C24.6032 37.2269 24.9358 37.1701 25.2317 37.0565C25.5276 36.9405 25.7762 36.7795 25.9775 36.5735C26.1787 36.3652 26.3219 36.1237 26.4071 35.8491L25.5975 35.6218C25.5265 35.8112 25.4258 35.9698 25.2956 36.0977C25.1654 36.2231 25.0104 36.3178 24.8304 36.3817C24.6529 36.4433 24.454 36.4741 24.2338 36.4741C23.8953 36.4741 23.5982 36.4007 23.3425 36.2539C23.0868 36.1048 22.8868 35.8881 22.7424 35.604C22.6136 35.3443 22.5432 35.033 22.5312 34.6701H26.4924V34.315C26.4924 33.806 26.4249 33.3775 26.29 33.0295C26.155 32.6815 25.9739 32.4021 25.7466 32.1914C25.5194 31.9783 25.2672 31.8245 24.9902 31.7298C24.7132 31.6351 24.4327 31.5877 24.1486 31.5877C23.6562 31.5877 23.2253 31.7085 22.856 31.9499C22.4891 32.189 22.2026 32.5228 21.9966 32.9513C21.793 33.3775 21.6912 33.8699 21.6912 34.4286C21.6912 34.9873 21.793 35.4774 21.9966 35.8988C22.2026 36.3178 22.495 36.6445 22.8738 36.8789ZM22.5333 33.9457C22.5493 33.6926 22.613 33.4535 22.7246 33.2283C22.8548 32.9656 23.0407 32.7525 23.2821 32.5891C23.526 32.4234 23.8148 32.3406 24.1486 32.3406C24.4516 32.3406 24.7144 32.4104 24.937 32.5501C25.1619 32.6897 25.3347 32.8803 25.4554 33.1218C25.5785 33.3633 25.6401 33.6379 25.6401 33.9457H22.5333Z" fill="#55B3FF"/>
</svg>
