<svg width="24" height="37" viewBox="0 0 24 37" fill="none" xmlns="http://www.w3.org/2000/svg">
<path fill-rule="evenodd" clip-rule="evenodd" d="M7.28851 6.07911C7.28851 2.72795 10.0052 0.0112915 13.3563 0.0112915C16.7075 0.0112915 19.4241 2.72795 19.4241 6.07911C19.4241 9.43027 16.7075 12.1469 13.3563 12.1469C10.0052 12.1469 7.28851 9.43027 7.28851 6.07911ZM13.3563 2.0339C11.1222 2.0339 9.31112 3.845 9.31112 6.07911C9.31112 8.31322 11.1222 10.1243 13.3563 10.1243C15.5904 10.1243 17.4015 8.31322 17.4015 6.07911C17.4015 3.845 15.5904 2.0339 13.3563 2.0339Z" fill="#55B3FF"/>
<path d="M13.3563 16.6978C10.9566 16.6978 8.68283 17.2309 7.1267 17.7112C6.23596 17.9862 5.58142 18.7929 5.42124 19.8227L5.25389 20.8984C5.16804 21.4503 4.65105 21.8281 4.09916 21.7423C3.54727 21.6564 3.16947 21.1394 3.25532 20.5876L3.42267 19.5118C3.68435 17.8295 4.7983 16.3132 6.53011 15.7786C8.19297 15.2653 10.6803 14.6752 13.3563 14.6752C16.0323 14.6752 18.5197 15.2653 20.1826 15.7786C21.9144 16.3132 23.0283 17.8295 23.29 19.5118L23.4573 20.5876C23.5432 21.1394 23.1654 21.6564 22.6135 21.7423C22.0616 21.8281 21.5446 21.4503 21.4588 20.8984L21.2914 19.8227C21.1312 18.7929 20.4767 17.9862 19.586 17.7112C18.0298 17.2309 15.756 16.6978 13.3563 16.6978Z" fill="#55B3FF"/>
<path fill-rule="evenodd" clip-rule="evenodd" d="M0.976379 28.7273V36H1.85706V33.3437H3.44797C4.01378 33.3437 4.4778 33.2408 4.84002 33.0348C5.20223 32.8265 5.46975 32.5471 5.64257 32.1967C5.81776 31.8463 5.90536 31.4569 5.90536 31.0284C5.90536 30.5999 5.81776 30.2116 5.64257 29.8636C5.46738 29.5156 5.1975 29.2398 4.83291 29.0362C4.4707 28.8302 4.00431 28.7273 3.43377 28.7273H0.976379ZM1.85706 32.5625H3.41956C3.81019 32.5625 4.12387 32.495 4.36061 32.3601C4.59735 32.2251 4.76899 32.0428 4.87553 31.8132C4.98443 31.5812 5.03888 31.3196 5.03888 31.0284C5.03888 30.7372 4.98443 30.4768 4.87553 30.2471C4.76899 30.0175 4.59617 29.8376 4.35706 29.7074C4.11795 29.5748 3.80072 29.5085 3.40536 29.5085H1.85706V32.5625Z" fill="#55B3FF"/>
<path fill-rule="evenodd" clip-rule="evenodd" d="M8.07865 35.7656C8.45981 35.9976 8.91317 36.1136 9.43874 36.1136C9.80806 36.1136 10.1407 36.0568 10.4366 35.9432C10.7325 35.8272 10.9811 35.6662 11.1823 35.4602C11.3836 35.2519 11.5268 35.0104 11.612 34.7358L10.8024 34.5085C10.7314 34.6979 10.6307 34.8565 10.5005 34.9844C10.3703 35.1098 10.2153 35.2045 10.0353 35.2685C9.85777 35.33 9.65891 35.3608 9.43874 35.3608C9.1002 35.3608 8.80308 35.2874 8.5474 35.1406C8.29172 34.9915 8.09167 34.7748 7.94726 34.4908C7.81846 34.231 7.74806 33.9197 7.73605 33.5568H11.6973V33.2017C11.6973 32.6927 11.6298 32.2642 11.4948 31.9162C11.3599 31.5682 11.1788 31.2888 10.9515 31.0781C10.7242 30.865 10.4721 30.7112 10.1951 30.6165C9.91814 30.5218 9.6376 30.4744 9.35351 30.4744C8.86109 30.4744 8.43021 30.5952 8.0609 30.8366C7.69395 31.0757 7.40749 31.4096 7.20152 31.8381C6.99792 32.2642 6.89612 32.7566 6.89612 33.3153C6.89612 33.874 6.99792 34.3641 7.20152 34.7855C7.40749 35.2045 7.69986 35.5312 8.07865 35.7656ZM7.73819 32.8324C7.75415 32.5794 7.81792 32.3402 7.9295 32.115C8.05971 31.8523 8.24556 31.6392 8.48703 31.4758C8.73088 31.3101 9.0197 31.2273 9.35351 31.2273C9.65654 31.2273 9.91932 31.2971 10.1419 31.4368C10.3668 31.5765 10.5396 31.767 10.6603 32.0085C10.7834 32.25 10.845 32.5246 10.845 32.8324H7.73819Z" fill="#55B3FF"/>
<path d="M12.9721 30.5454V36H13.8102V32.5483C13.8102 32.3021 13.8694 32.0831 13.9877 31.8913C14.1085 31.6972 14.2718 31.5457 14.4778 31.4368C14.6861 31.3255 14.9229 31.2699 15.188 31.2699C15.2993 31.2699 15.4046 31.2782 15.5041 31.2947C15.6059 31.3089 15.671 31.3196 15.6994 31.3267V30.4744C15.652 30.4697 15.5822 30.4661 15.4899 30.4638C15.3975 30.4614 15.3206 30.4602 15.2591 30.4602C14.9323 30.4602 14.6388 30.5443 14.3784 30.7123C14.118 30.8804 13.938 31.0994 13.8386 31.3693H13.7818V30.5454H12.9721Z" fill="#55B3FF"/>
<path d="M19.4636 31.2557V30.5454H18.242V29.9915C18.242 29.7216 18.3024 29.5168 18.4231 29.3771C18.5462 29.2374 18.7463 29.1676 19.0233 29.1676C19.144 29.1676 19.2411 29.1783 19.3144 29.1996C19.3902 29.2209 19.4494 29.2386 19.492 29.2528L19.7335 28.5284C19.6696 28.5 19.5725 28.4692 19.4423 28.4361C19.3121 28.4029 19.144 28.3864 18.938 28.3864C18.6776 28.3864 18.4302 28.4384 18.1958 28.5426C17.9615 28.6468 17.7709 28.803 17.6241 29.0114C17.4773 29.2197 17.4039 29.4801 17.4039 29.7926V30.5454H16.5233V31.2557H17.4039V36H18.242V31.2557H19.4636Z" fill="#55B3FF"/>
<path d="M20.6381 30.5454V36H21.4762V30.5454H20.6381Z" fill="#55B3FF"/>
<path d="M20.6417 29.4694C20.7601 29.5807 20.9009 29.6364 21.0643 29.6364C21.2276 29.6364 21.3673 29.5807 21.4833 29.4694C21.6017 29.3582 21.6609 29.2244 21.6609 29.0682C21.6609 28.9119 21.6017 28.7782 21.4833 28.6669C21.3673 28.5556 21.2276 28.5 21.0643 28.5C20.9009 28.5 20.7601 28.5556 20.6417 28.6669C20.5257 28.7782 20.4677 28.9119 20.4677 29.0682C20.4677 29.2244 20.5257 29.3582 20.6417 29.4694Z" fill="#55B3FF"/>
<path d="M23.8492 36V28.7273H23.0112V36H23.8492Z" fill="#55B3FF"/>
</svg>
