<svg width="28" height="38" viewBox="0 0 28 38" fill="none" xmlns="http://www.w3.org/2000/svg">
<path fill-rule="evenodd" clip-rule="evenodd" d="M14.5995 0.196962C14.2429 -0.0656538 13.7569 -0.0656538 13.4002 0.196962L4.52216 6.73445C3.48681 7.49685 2.87556 8.70605 2.87556 9.99182V20.7317C2.87556 22.6866 4.46027 24.2713 6.41512 24.2713H9.95468C11.0717 24.2713 11.9773 23.3657 11.9773 22.2487V16.6865H16.0225V22.2487C16.0225 23.3657 16.928 24.2713 18.0451 24.2713H21.5847C23.5395 24.2713 25.1242 22.6866 25.1242 20.7317V9.99182C25.1242 8.70605 24.513 7.49685 23.4776 6.73445L14.5995 0.196962ZM5.72147 8.36313L13.9999 2.26721L22.2783 8.36313C22.796 8.74433 23.1016 9.34893 23.1016 9.99182V20.7317C23.1016 21.5695 22.4224 22.2487 21.5847 22.2487H18.0451V16.1808C18.0451 15.3431 17.3659 14.6639 16.5281 14.6639H11.4716C10.6338 14.6639 9.95468 15.3431 9.95468 16.1808V22.2487H6.41512C5.57733 22.2487 4.89816 21.5695 4.89816 20.7317V9.99182C4.89816 9.34893 5.20379 8.74433 5.72147 8.36313Z" fill="#CFD1DE"/>
<path d="M0.940247 29.7273V37H1.82093V33.7472H5.69877V37H6.57945V29.7273H5.69877V32.9659H1.82093V29.7273H0.940247Z" fill="#CFD1DE"/>
<path fill-rule="evenodd" clip-rule="evenodd" d="M9.1487 36.7621C9.52039 36.9964 9.95244 37.1136 10.4449 37.1136C10.9373 37.1136 11.3682 36.9964 11.7375 36.7621C12.1092 36.5277 12.398 36.1998 12.604 35.7784C12.8123 35.357 12.9165 34.8646 12.9165 34.3011C12.9165 33.733 12.8123 33.237 12.604 32.8132C12.398 32.3894 12.1092 32.0604 11.7375 31.826C11.3682 31.5916 10.9373 31.4744 10.4449 31.4744C9.95244 31.4744 9.52039 31.5916 9.1487 31.826C8.77938 32.0604 8.49056 32.3894 8.28222 32.8132C8.07626 33.237 7.97327 33.733 7.97327 34.3011C7.97327 34.8646 8.07626 35.357 8.28222 35.7784C8.49056 36.1998 8.77938 36.5277 9.1487 36.7621ZM11.3682 36.0732C11.1267 36.2649 10.8189 36.3608 10.4449 36.3608C10.0708 36.3608 9.76305 36.2649 9.52157 36.0732C9.28009 35.8814 9.10135 35.6293 8.98535 35.3168C8.86934 35.0043 8.81134 34.6657 8.81134 34.3011C8.81134 33.9366 8.86934 33.5968 8.98535 33.282C9.10135 32.9671 9.28009 32.7126 9.52157 32.5185C9.76305 32.3243 10.0708 32.2273 10.4449 32.2273C10.8189 32.2273 11.1267 32.3243 11.3682 32.5185C11.6096 32.7126 11.7884 32.9671 11.9044 33.282C12.0204 33.5968 12.0784 33.9366 12.0784 34.3011C12.0784 34.6657 12.0204 35.0043 11.9044 35.3168C11.7884 35.6293 11.6096 35.8814 11.3682 36.0732Z" fill="#CFD1DE"/>
<path d="M14.1958 31.5455V37H15.0338V33.5909C15.0338 33.3234 15.0906 33.0878 15.2043 32.8842C15.3203 32.6783 15.4718 32.5173 15.6588 32.4013C15.8482 32.2853 16.0518 32.2273 16.2696 32.2273C16.5869 32.2273 16.8461 32.3232 17.0473 32.5149C17.2485 32.7043 17.3492 32.9541 17.3492 33.2642V37H18.2014V33.4489C18.2014 33.0961 18.3068 32.8049 18.5175 32.5753C18.7282 32.3433 19.0253 32.2273 19.4088 32.2273C19.7071 32.2273 19.9663 32.3137 20.1865 32.4865C20.4067 32.6593 20.5168 32.947 20.5168 33.3494V37H21.3548V33.3494C21.3548 32.7079 21.1998 32.2356 20.8896 31.9325C20.5795 31.6271 20.1806 31.4744 19.6929 31.4744C19.3023 31.4744 18.9673 31.5585 18.6879 31.7266C18.4086 31.8923 18.1991 32.116 18.0594 32.3977H18.0026C17.8676 32.1065 17.6794 31.8804 17.4379 31.7195C17.1988 31.5561 16.8994 31.4744 16.5395 31.4744C16.1844 31.4744 15.8802 31.5561 15.6269 31.7195C15.3735 31.8804 15.1901 32.1065 15.0764 32.3977H15.0054V31.5455H14.1958Z" fill="#CFD1DE"/>
<path fill-rule="evenodd" clip-rule="evenodd" d="M23.814 36.7656C24.1952 36.9976 24.6485 37.1136 25.1741 37.1136C25.5434 37.1136 25.876 37.0568 26.172 36.9432C26.4679 36.8272 26.7165 36.6662 26.9177 36.4602C27.1189 36.2519 27.2622 36.0104 27.3474 35.7358L26.5377 35.5085C26.4667 35.6979 26.3661 35.8565 26.2359 35.9844C26.1057 36.1098 25.9506 36.2045 25.7707 36.2685C25.5931 36.33 25.3943 36.3608 25.1741 36.3608C24.8355 36.3608 24.5384 36.2874 24.2828 36.1406C24.0271 35.9915 23.827 35.7749 23.6826 35.4908C23.5538 35.231 23.4834 34.9197 23.4714 34.5568H27.4326V34.2017C27.4326 33.6927 27.3651 33.2642 27.2302 32.9162C27.0953 32.5682 26.9141 32.2888 26.6869 32.0781C26.4596 31.8651 26.2075 31.7112 25.9305 31.6165C25.6535 31.5218 25.373 31.4744 25.0889 31.4744C24.5964 31.4744 24.1656 31.5952 23.7962 31.8366C23.4293 32.0758 23.1428 32.4096 22.9369 32.8381C22.7333 33.2642 22.6315 33.7566 22.6315 34.3153C22.6315 34.8741 22.7333 35.3641 22.9369 35.7855C23.1428 36.2045 23.4352 36.5312 23.814 36.7656ZM23.4735 33.8324C23.4895 33.5794 23.5533 33.3403 23.6649 33.1151C23.7951 32.8523 23.9809 32.6392 24.2224 32.4759C24.4662 32.3101 24.7551 32.2273 25.0889 32.2273C25.3919 32.2273 25.6547 32.2971 25.8772 32.4368C26.1021 32.5765 26.2749 32.767 26.3957 33.0085C26.5188 33.25 26.5803 33.5246 26.5803 33.8324H23.4735Z" fill="#CFD1DE"/>
</svg>
