<svg width="38" height="36" viewBox="0 0 38 36" fill="none" xmlns="http://www.w3.org/2000/svg">
<path fill-rule="evenodd" clip-rule="evenodd" d="M10.9384 0.0349121C8.70715 0.0349121 6.89838 1.84368 6.89838 4.07491V18.241C6.89838 20.4722 8.70715 22.281 10.9384 22.281H27.0618C29.293 22.281 31.1018 20.4722 31.1018 18.241V8.02561C31.1018 5.79437 29.293 3.98561 27.0618 3.98561H10.4124C9.85475 3.98561 9.40268 3.53353 9.40268 2.97587C9.40268 2.91031 9.39643 2.84622 9.38451 2.78414C9.75504 2.33858 10.3136 2.05491 10.9384 2.05491H28.0957C28.6535 2.05491 29.1057 1.60272 29.1057 1.04491C29.1057 0.487105 28.6535 0.0349121 28.0957 0.0349121H10.9384ZM8.91838 18.241V5.61222C9.35927 5.86262 9.86915 6.00561 10.4124 6.00561H27.0618C28.1774 6.00561 29.0818 6.90999 29.0818 8.02561V18.241C29.0818 19.3566 28.1774 20.261 27.0618 20.261H10.9384C9.82277 20.261 8.91838 19.3566 8.91838 18.241Z" fill="#CFD1DE"/>
<path fill-rule="evenodd" clip-rule="evenodd" d="M0.78418 27.7273V35H3.41202C3.98494 35 4.45014 34.9148 4.80762 34.7443C5.1651 34.5739 5.4267 34.343 5.59242 34.0518C5.75814 33.7606 5.841 33.4328 5.841 33.0682C5.841 32.6847 5.76524 32.3603 5.61373 32.0952C5.46221 31.83 5.274 31.6264 5.04909 31.4844C4.82419 31.3423 4.60047 31.2642 4.37793 31.25V31.179C4.58626 31.1222 4.77921 31.0346 4.95677 30.9162C5.13669 30.7978 5.2811 30.6368 5.39 30.4332C5.50127 30.2296 5.55691 29.9716 5.55691 29.6591C5.55691 29.304 5.47641 28.9808 5.31543 28.6896C5.15445 28.3961 4.90942 28.1629 4.58034 27.99C4.25127 27.8149 3.83342 27.7273 3.32679 27.7273H0.78418ZM3.41202 34.2187H1.66486V31.6903H3.45463C3.77187 31.6903 4.04649 31.7543 4.2785 31.8821C4.51051 32.0076 4.68925 32.1757 4.81472 32.3864C4.94019 32.5947 5.00293 32.822 5.00293 33.0682C5.00293 33.3878 4.88101 33.66 4.63716 33.8849C4.39569 34.1075 3.9873 34.2187 3.41202 34.2187ZM3.29838 30.9233H1.66486V28.5085H3.32679C3.80975 28.5085 4.16249 28.621 4.38503 28.8459C4.60757 29.0684 4.71884 29.3395 4.71884 29.6591C4.71884 29.9148 4.65492 30.1373 4.52708 30.3267C4.4016 30.5161 4.23115 30.6629 4.01571 30.767C3.80265 30.8712 3.56354 30.9233 3.29838 30.9233Z" fill="#CFD1DE"/>
<path d="M7.17445 29.5454V35H8.01252V29.5454H7.17445Z" fill="#CFD1DE"/>
<path d="M7.178 28.4694C7.29637 28.5807 7.43723 28.6364 7.60059 28.6364C7.76394 28.6364 7.90362 28.5807 8.01962 28.4694C8.13799 28.3582 8.19718 28.2244 8.19718 28.0682C8.19718 27.9119 8.13799 27.7782 8.01962 27.6669C7.90362 27.5556 7.76394 27.5 7.60059 27.5C7.43723 27.5 7.29637 27.5556 7.178 27.6669C7.062 27.7782 7.00399 27.9119 7.00399 28.0682C7.00399 28.2244 7.062 28.3582 7.178 28.4694Z" fill="#CFD1DE"/>
<path d="M10.3856 35V27.7273H9.5475V35H10.3856Z" fill="#CFD1DE"/>
<path d="M12.7586 35V27.7273H11.9205V35H12.7586Z" fill="#CFD1DE"/>
<path fill-rule="evenodd" clip-rule="evenodd" d="M15.2204 34.7656C15.6016 34.9976 16.055 35.1136 16.5805 35.1136C16.9498 35.1136 17.2825 35.0568 17.5784 34.9432C17.8743 34.8272 18.1229 34.6662 18.3241 34.4602C18.5254 34.2519 18.6686 34.0104 18.7538 33.7358L17.9442 33.5085C17.8731 33.6979 17.7725 33.8565 17.6423 33.9844C17.5121 34.1098 17.357 34.2045 17.1771 34.2685C16.9996 34.33 16.8007 34.3608 16.5805 34.3608C16.242 34.3608 15.9449 34.2874 15.6892 34.1406C15.4335 33.9915 15.2335 33.7748 15.089 33.4908C14.9602 33.231 14.8898 32.9197 14.8778 32.5568H18.839V32.2017C18.839 31.6927 18.7716 31.2642 18.6366 30.9162C18.5017 30.5682 18.3206 30.2888 18.0933 30.0781C17.866 29.865 17.6139 29.7112 17.3369 29.6165C17.0599 29.5218 16.7794 29.4744 16.4953 29.4744C16.0029 29.4744 15.572 29.5952 15.2027 29.8366C14.8357 30.0757 14.5493 30.4096 14.3433 30.8381C14.1397 31.2642 14.0379 31.7566 14.0379 32.3153C14.0379 32.874 14.1397 33.3641 14.3433 33.7855C14.5493 34.2045 14.8416 34.5312 15.2204 34.7656ZM14.88 31.8324C14.8959 31.5794 14.9597 31.3402 15.0713 31.115C15.2015 30.8523 15.3873 30.6392 15.6288 30.4758C15.8727 30.3101 16.1615 30.2273 16.4953 30.2273C16.7983 30.2273 17.0611 30.2971 17.2836 30.4368C17.5086 30.5765 17.6814 30.767 17.8021 31.0085C17.9252 31.25 17.9868 31.5246 17.9868 31.8324H14.88Z" fill="#CFD1DE"/>
<path d="M22.4861 30.2557V29.5454H21.3213V28.2386H20.4832V29.5454H19.6594V30.2557H20.4832V33.6648C20.4832 33.982 20.5566 34.2448 20.7034 34.4531C20.8525 34.6614 21.0396 34.8165 21.2645 34.9183C21.4917 35.0201 21.7238 35.071 21.9605 35.071C22.1167 35.071 22.2458 35.0592 22.3476 35.0355C22.4494 35.0142 22.5287 34.9929 22.5855 34.9716L22.415 34.2187L22.273 34.2472C22.2138 34.2566 22.1381 34.2614 22.0457 34.2614C21.9226 34.2614 21.8054 34.2424 21.6942 34.2045C21.5853 34.1643 21.4953 34.0862 21.4243 33.9702C21.3556 33.8518 21.3213 33.6742 21.3213 33.4375V30.2557H22.4861Z" fill="#CFD1DE"/>
<path fill-rule="evenodd" clip-rule="evenodd" d="M24.615 34.7656C24.9961 34.9976 25.4495 35.1136 25.9751 35.1136C26.3444 35.1136 26.677 35.0568 26.9729 34.9432C27.2689 34.8272 27.5174 34.6662 27.7187 34.4602C27.9199 34.2519 28.0631 34.0104 28.1483 33.7358L27.3387 33.5085C27.2677 33.6979 27.1671 33.8565 27.0368 33.9844C26.9066 34.1098 26.7516 34.2045 26.5716 34.2685C26.3941 34.33 26.1952 34.3608 25.9751 34.3608C25.6365 34.3608 25.3394 34.2874 25.0837 34.1406C24.828 33.9915 24.628 33.7748 24.4836 33.4908C24.3548 33.231 24.2844 32.9197 24.2724 32.5568H28.2336V32.2017C28.2336 31.6927 28.1661 31.2642 28.0312 30.9162C27.8962 30.5682 27.7151 30.2888 27.4878 30.0781C27.2606 29.865 27.0084 29.7112 26.7314 29.6165C26.4545 29.5218 26.1739 29.4744 25.8898 29.4744C25.3974 29.4744 24.9665 29.5952 24.5972 29.8366C24.2303 30.0757 23.9438 30.4096 23.7378 30.8381C23.5342 31.2642 23.4324 31.7566 23.4324 32.3153C23.4324 32.874 23.5342 33.3641 23.7378 33.7855C23.9438 34.2045 24.2362 34.5312 24.615 34.7656ZM24.2745 31.8324C24.2905 31.5794 24.3542 31.3402 24.4658 31.115C24.596 30.8523 24.7819 30.6392 25.0233 30.4758C25.2672 30.3101 25.556 30.2273 25.8898 30.2273C26.1929 30.2273 26.4556 30.2971 26.6782 30.4368C26.9031 30.5765 27.0759 30.767 27.1966 31.0085C27.3197 31.25 27.3813 31.5246 27.3813 31.8324H24.2745Z" fill="#CFD1DE"/>
<path d="M29.5084 29.5454V35H30.3465V31.5483C30.3465 31.3021 30.4057 31.0831 30.5241 30.8913C30.6448 30.6972 30.8081 30.5457 31.0141 30.4368C31.2224 30.3255 31.4592 30.2699 31.7243 30.2699C31.8356 30.2699 31.941 30.2782 32.0404 30.2947C32.1422 30.3089 32.2073 30.3196 32.2357 30.3267V29.4744C32.1884 29.4697 32.1185 29.4661 32.0262 29.4638C31.9339 29.4614 31.8569 29.4602 31.7954 29.4602C31.4687 29.4602 31.1751 29.5443 30.9147 29.7123C30.6543 29.8804 30.4743 30.0994 30.3749 30.3693H30.3181V29.5454H29.5084Z" fill="#CFD1DE"/>
<path fill-rule="evenodd" clip-rule="evenodd" d="M33.8932 34.9325C34.1749 35.0627 34.4886 35.1278 34.8343 35.1278C35.1515 35.1278 35.4202 35.0805 35.6404 34.9858C35.8605 34.8911 36.0369 34.7763 36.1695 34.6413C36.3021 34.5064 36.3968 34.3797 36.4536 34.2614H36.4962V35H37.3343V31.4062C37.3343 30.973 37.2632 30.6274 37.1212 30.3693C36.9791 30.1113 36.8004 29.9183 36.585 29.7905C36.3719 29.6626 36.1505 29.5786 35.9209 29.5383C35.6936 29.4957 35.4924 29.4744 35.3172 29.4744C35.0426 29.4744 34.7632 29.5123 34.4791 29.5881C34.1974 29.6614 33.937 29.7917 33.6979 29.9787C33.4611 30.1633 33.2718 30.4214 33.1297 30.7528L33.9252 31.0369C34.0175 30.8381 34.1773 30.651 34.4046 30.4758C34.6318 30.3007 34.9455 30.2131 35.3456 30.2131C35.7315 30.2131 36.0191 30.3101 36.2085 30.5043C36.4003 30.6984 36.4962 30.9706 36.4962 31.321V31.3494C36.4962 31.4844 36.4477 31.5791 36.3506 31.6335C36.2559 31.688 36.1044 31.727 35.896 31.7507C35.6901 31.772 35.4214 31.804 35.0899 31.8466C34.8366 31.8797 34.5845 31.9247 34.3335 31.9815C34.085 32.036 33.8577 32.1188 33.6517 32.2301C33.4458 32.3414 33.2812 32.4953 33.1581 32.6918C33.035 32.8859 32.9735 33.1392 32.9735 33.4517C32.9735 33.8068 33.0563 34.1098 33.222 34.3608C33.3878 34.6094 33.6115 34.7999 33.8932 34.9325ZM35.8002 34.1797C35.5729 34.3099 35.2935 34.375 34.9621 34.375C34.6283 34.375 34.3525 34.3016 34.1347 34.1548C33.9192 34.0057 33.8115 33.7855 33.8115 33.4943C33.8115 33.2812 33.8683 33.1132 33.982 32.99C34.098 32.8646 34.2495 32.7711 34.4365 32.7095C34.6259 32.6456 34.8295 32.5994 35.0473 32.571C35.1373 32.5592 35.2545 32.545 35.3989 32.5284C35.5457 32.5095 35.696 32.4882 35.8499 32.4645C36.0061 32.4384 36.1434 32.4088 36.2618 32.3757C36.3825 32.3402 36.4607 32.3011 36.4962 32.2585V33.0256C36.4962 33.2528 36.437 33.4695 36.3186 33.6754C36.2026 33.8814 36.0298 34.0495 35.8002 34.1797Z" fill="#CFD1DE"/>
</svg>
