<svg width="38" height="63" viewBox="0 0 38 63" fill="none" xmlns="http://www.w3.org/2000/svg">
<g style="mix-blend-mode:overlay" filter="url(#filter0_f_2220_16991)">
<path fill-rule="evenodd" clip-rule="evenodd" d="M12.0668 39.5437C11.5771 39.0202 11.168 38.3801 10.8682 37.6323C9.5535 34.3523 8.59302 30.0387 8.08409 26.016C7.60011 22.1905 7.37129 17.4753 8.23629 13.647C9.13098 9.68722 12.5851 6.92386 15.9513 7.47485C17.0448 7.65385 17.9946 8.1606 18.7478 8.89902C20.1564 6.40409 22.6683 4.83326 25.2017 5.13336C28.5764 5.53313 30.7115 9.10155 29.9704 13.1036C29.9704 13.1032 29.9704 13.1034 29.9703 13.1042C29.9685 13.1153 29.9472 13.2498 29.9348 13.5327C29.922 13.8249 29.9217 14.2038 29.943 14.6678C29.9859 15.6042 30.1084 16.7138 30.3027 17.8924C30.7084 20.353 31.3182 22.4749 31.7444 23.4621C33.218 26.8757 31.8791 31.3673 28.7539 33.4942C28.0463 33.9758 27.3078 34.2948 26.5716 34.4607C26.3363 36.5834 26.0341 39.131 25.59 41.3365C24.8283 45.1192 23.3914 49.6998 20.0062 53.2671L15.4734 58.0438L5.64547 48.1113L10.1783 43.3345C10.9187 42.5542 11.5542 41.3482 12.0668 39.5437Z" fill="#353535" fill-opacity="0.37"/>
</g>
<defs>
<filter id="filter0_f_2220_16991" x="0.896574" y="0.347746" width="36.1956" height="62.4451" filterUnits="userSpaceOnUse" color-interpolation-filters="sRGB">
<feFlood flood-opacity="0" result="BackgroundImageFix"/>
<feBlend mode="normal" in="SourceGraphic" in2="BackgroundImageFix" result="shape"/>
<feGaussianBlur stdDeviation="2.37447" result="effect1_foregroundBlur_2220_16991"/>
</filter>
</defs>
</svg>
