<svg width="37" height="36" viewBox="0 0 37 36" fill="none" xmlns="http://www.w3.org/2000/svg">
<path fill-rule="evenodd" clip-rule="evenodd" d="M10.2946 0.0349121C8.06341 0.0349121 6.25464 1.84368 6.25464 4.07491V18.241C6.25464 20.4722 8.06341 22.281 10.2946 22.281H26.4181C28.6493 22.281 30.4581 20.4722 30.4581 18.241V8.02561C30.4581 5.79437 28.6493 3.98561 26.4181 3.98561H9.76868C9.21102 3.98561 8.75894 3.53353 8.75894 2.97587C8.75894 2.91031 8.7527 2.84622 8.74077 2.78414C9.1113 2.33858 9.66984 2.05491 10.2946 2.05491H27.452C28.0098 2.05491 28.462 1.60272 28.462 1.04491C28.462 0.487105 28.0098 0.0349121 27.452 0.0349121H10.2946ZM8.27464 18.241V5.61222C8.71554 5.86262 9.22541 6.00561 9.76868 6.00561H26.4181C27.5337 6.00561 28.4381 6.90999 28.4381 8.02561V18.241C28.4381 19.3566 27.5337 20.261 26.4181 20.261H10.2946C9.17903 20.261 8.27464 19.3566 8.27464 18.241Z" fill="#CFD1DE"/>
<path fill-rule="evenodd" clip-rule="evenodd" d="M0.140442 27.7273V35H2.76828C3.3412 35 3.8064 34.9148 4.16388 34.7443C4.52136 34.5739 4.78296 34.343 4.94868 34.0518C5.1144 33.7606 5.19726 33.4328 5.19726 33.0682C5.19726 32.6847 5.1215 32.3603 4.96999 32.0952C4.81847 31.83 4.63026 31.6264 4.40536 31.4844C4.18045 31.3423 3.95673 31.2642 3.73419 31.25V31.179C3.94253 31.1222 4.13547 31.0346 4.31303 30.9162C4.49295 30.7978 4.63736 30.6368 4.74627 30.4332C4.85753 30.2296 4.91317 29.9716 4.91317 29.6591C4.91317 29.304 4.83268 28.9808 4.67169 28.6896C4.51071 28.3961 4.26568 28.1629 3.93661 27.99C3.60753 27.8149 3.18968 27.7273 2.68306 27.7273H0.140442ZM2.76828 34.2187H1.02112V31.6903H2.8109C3.12813 31.6903 3.40275 31.7543 3.63476 31.8821C3.86677 32.0076 4.04551 32.1757 4.17098 32.3864C4.29645 32.5947 4.35919 32.822 4.35919 33.0682C4.35919 33.3878 4.23727 33.66 3.99342 33.8849C3.75195 34.1075 3.34357 34.2187 2.76828 34.2187ZM2.65465 30.9233H1.02112V28.5085H2.68306C3.16601 28.5085 3.51876 28.621 3.74129 28.8459C3.96383 29.0684 4.0751 29.3395 4.0751 29.6591C4.0751 29.9148 4.01118 30.1373 3.88334 30.3267C3.75787 30.5161 3.58741 30.6629 3.37198 30.767C3.15891 30.8712 2.9198 30.9233 2.65465 30.9233Z" fill="#CFD1DE"/>
<path d="M6.53071 29.5454V35H7.36878V29.5454H6.53071Z" fill="#CFD1DE"/>
<path d="M6.53426 28.4694C6.65263 28.5807 6.7935 28.6364 6.95685 28.6364C7.1202 28.6364 7.25988 28.5807 7.37588 28.4694C7.49425 28.3582 7.55344 28.2244 7.55344 28.0682C7.55344 27.9119 7.49425 27.7782 7.37588 27.6669C7.25988 27.5556 7.1202 27.5 6.95685 27.5C6.7935 27.5 6.65263 27.5556 6.53426 27.6669C6.41826 27.7782 6.36026 27.9119 6.36026 28.0682C6.36026 28.2244 6.41826 28.3582 6.53426 28.4694Z" fill="#CFD1DE"/>
<path d="M9.74183 35V27.7273H8.90376V35H9.74183Z" fill="#CFD1DE"/>
<path d="M12.1149 35V27.7273H11.2768V35H12.1149Z" fill="#CFD1DE"/>
<path fill-rule="evenodd" clip-rule="evenodd" d="M14.5767 34.7656C14.9579 34.9976 15.4112 35.1136 15.9368 35.1136C16.3061 35.1136 16.6387 35.0568 16.9347 34.9432C17.2306 34.8272 17.4792 34.6662 17.6804 34.4602C17.8816 34.2519 18.0249 34.0104 18.1101 33.7358L17.3004 33.5085C17.2294 33.6979 17.1288 33.8565 16.9986 33.9844C16.8684 34.1098 16.7133 34.2045 16.5334 34.2685C16.3558 34.33 16.157 34.3608 15.9368 34.3608C15.5982 34.3608 15.3011 34.2874 15.0454 34.1406C14.7898 33.9915 14.5897 33.7748 14.4453 33.4908C14.3165 33.231 14.2461 32.9197 14.2341 32.5568H18.1953V32.2017C18.1953 31.6927 18.1278 31.2642 17.9929 30.9162C17.8579 30.5682 17.6768 30.2888 17.4496 30.0781C17.2223 29.865 16.9702 29.7112 16.6932 29.6165C16.4162 29.5218 16.1356 29.4744 15.8516 29.4744C15.3591 29.4744 14.9283 29.5952 14.5589 29.8366C14.192 30.0757 13.9055 30.4096 13.6996 30.8381C13.496 31.2642 13.3942 31.7566 13.3942 32.3153C13.3942 32.874 13.496 33.3641 13.6996 33.7855C13.9055 34.2045 14.1979 34.5312 14.5767 34.7656ZM14.2362 31.8324C14.2522 31.5794 14.316 31.3402 14.4276 31.115C14.5578 30.8523 14.7436 30.6392 14.9851 30.4758C15.2289 30.3101 15.5177 30.2273 15.8516 30.2273C16.1546 30.2273 16.4174 30.2971 16.6399 30.4368C16.8648 30.5765 17.0376 30.767 17.1584 31.0085C17.2815 31.25 17.343 31.5246 17.343 31.8324H14.2362Z" fill="#CFD1DE"/>
<path d="M21.8423 30.2557V29.5454H20.6776V28.2386H19.8395V29.5454H19.0156V30.2557H19.8395V33.6648C19.8395 33.982 19.9129 34.2448 20.0597 34.4531C20.2088 34.6614 20.3958 34.8165 20.6207 34.9183C20.848 35.0201 21.08 35.071 21.3168 35.071C21.473 35.071 21.602 35.0592 21.7038 35.0355C21.8056 35.0142 21.8849 34.9929 21.9418 34.9716L21.7713 34.2187L21.6293 34.2472C21.5701 34.2566 21.4943 34.2614 21.402 34.2614C21.2789 34.2614 21.1617 34.2424 21.0504 34.2045C20.9415 34.1643 20.8516 34.0862 20.7805 33.9702C20.7119 33.8518 20.6776 33.6742 20.6776 33.4375V30.2557H21.8423Z" fill="#CFD1DE"/>
<path fill-rule="evenodd" clip-rule="evenodd" d="M23.9712 34.7656C24.3524 34.9976 24.8057 35.1136 25.3313 35.1136C25.7006 35.1136 26.0333 35.0568 26.3292 34.9432C26.6251 34.8272 26.8737 34.6662 27.0749 34.4602C27.2762 34.2519 27.4194 34.0104 27.5046 33.7358L26.695 33.5085C26.6239 33.6979 26.5233 33.8565 26.3931 33.9844C26.2629 34.1098 26.1078 34.2045 25.9279 34.2685C25.7503 34.33 25.5515 34.3608 25.3313 34.3608C24.9928 34.3608 24.6957 34.2874 24.44 34.1406C24.1843 33.9915 23.9843 33.7748 23.8398 33.4908C23.711 33.231 23.6406 32.9197 23.6286 32.5568H27.5898V32.2017C27.5898 31.6927 27.5224 31.2642 27.3874 30.9162C27.2525 30.5682 27.0714 30.2888 26.8441 30.0781C26.6168 29.865 26.3647 29.7112 26.0877 29.6165C25.8107 29.5218 25.5302 29.4744 25.2461 29.4744C24.7537 29.4744 24.3228 29.5952 23.9535 29.8366C23.5865 30.0757 23.3001 30.4096 23.0941 30.8381C22.8905 31.2642 22.7887 31.7566 22.7887 32.3153C22.7887 32.874 22.8905 33.3641 23.0941 33.7855C23.3001 34.2045 23.5924 34.5312 23.9712 34.7656ZM23.6308 31.8324C23.6467 31.5794 23.7105 31.3402 23.8221 31.115C23.9523 30.8523 24.1381 30.6392 24.3796 30.4758C24.6235 30.3101 24.9123 30.2273 25.2461 30.2273C25.5491 30.2273 25.8119 30.2971 26.0344 30.4368C26.2593 30.5765 26.4322 30.767 26.5529 31.0085C26.676 31.25 26.7376 31.5246 26.7376 31.8324H23.6308Z" fill="#CFD1DE"/>
<path d="M28.8647 29.5454V35H29.7028V31.5483C29.7028 31.3021 29.7619 31.0831 29.8803 30.8913C30.0011 30.6972 30.1644 30.5457 30.3704 30.4368C30.5787 30.3255 30.8155 30.2699 31.0806 30.2699C31.1919 30.2699 31.2972 30.2782 31.3967 30.2947C31.4985 30.3089 31.5636 30.3196 31.592 30.3267V29.4744C31.5446 29.4697 31.4748 29.4661 31.3825 29.4638C31.2901 29.4614 31.2132 29.4602 31.1516 29.4602C30.8249 29.4602 30.5314 29.5443 30.2709 29.7123C30.0105 29.8804 29.8306 30.0994 29.7312 30.3693H29.6744V29.5454H28.8647Z" fill="#CFD1DE"/>
<path fill-rule="evenodd" clip-rule="evenodd" d="M33.2495 34.9325C33.5312 35.0627 33.8449 35.1278 34.1905 35.1278C34.5078 35.1278 34.7765 35.0805 34.9966 34.9858C35.2168 34.8911 35.3932 34.7763 35.5257 34.6413C35.6583 34.5064 35.753 34.3797 35.8098 34.2614H35.8524V35H36.6905V31.4062C36.6905 30.973 36.6195 30.6274 36.4774 30.3693C36.3354 30.1113 36.1567 29.9183 35.9412 29.7905C35.7282 29.6626 35.5068 29.5786 35.2772 29.5383C35.0499 29.4957 34.8487 29.4744 34.6735 29.4744C34.3988 29.4744 34.1195 29.5123 33.8354 29.5881C33.5537 29.6614 33.2933 29.7917 33.0541 29.9787C32.8174 30.1633 32.628 30.4214 32.486 30.7528L33.2814 31.0369C33.3738 30.8381 33.5336 30.651 33.7608 30.4758C33.9881 30.3007 34.3018 30.2131 34.7019 30.2131C35.0878 30.2131 35.3754 30.3101 35.5648 30.5043C35.7566 30.6984 35.8524 30.9706 35.8524 31.321V31.3494C35.8524 31.4844 35.8039 31.5791 35.7068 31.6335C35.6122 31.688 35.4606 31.727 35.2523 31.7507C35.0463 31.772 34.7776 31.804 34.4462 31.8466C34.1929 31.8797 33.9408 31.9247 33.6898 31.9815C33.4412 32.036 33.214 32.1188 33.008 32.2301C32.802 32.3414 32.6375 32.4953 32.5144 32.6918C32.3913 32.8859 32.3297 33.1392 32.3297 33.4517C32.3297 33.8068 32.4126 34.1098 32.5783 34.3608C32.744 34.6094 32.9677 34.7999 33.2495 34.9325ZM35.1564 34.1797C34.9291 34.3099 34.6498 34.375 34.3184 34.375C33.9846 34.375 33.7087 34.3016 33.4909 34.1548C33.2755 34.0057 33.1678 33.7855 33.1678 33.4943C33.1678 33.2812 33.2246 33.1132 33.3382 32.99C33.4542 32.8646 33.6058 32.7711 33.7928 32.7095C33.9822 32.6456 34.1858 32.5994 34.4036 32.571C34.4935 32.5592 34.6107 32.545 34.7551 32.5284C34.9019 32.5095 35.0523 32.4882 35.2061 32.4645C35.3624 32.4384 35.4997 32.4088 35.6181 32.3757C35.7388 32.3402 35.8169 32.3011 35.8524 32.2585V33.0256C35.8524 33.2528 35.7933 33.4695 35.6749 33.6754C35.5589 33.8814 35.3861 34.0495 35.1564 34.1797Z" fill="#CFD1DE"/>
</svg>
