<svg width="24" height="37" viewBox="0 0 24 37" fill="none" xmlns="http://www.w3.org/2000/svg">
<path fill-rule="evenodd" clip-rule="evenodd" d="M6.93225 6.07905C6.93225 2.72788 9.64891 0.0112305 13.0001 0.0112305C16.3512 0.0112305 19.0679 2.72788 19.0679 6.07905C19.0679 9.43021 16.3512 12.1469 13.0001 12.1469C9.64891 12.1469 6.93225 9.43021 6.93225 6.07905ZM13.0001 2.03384C10.766 2.03384 8.95486 3.84494 8.95486 6.07905C8.95486 8.31316 10.766 10.1243 13.0001 10.1243C15.2342 10.1243 17.0453 8.31316 17.0453 6.07905C17.0453 3.84494 15.2342 2.03384 13.0001 2.03384Z" fill="#CFD1DE"/>
<path d="M13.0001 16.6977C10.6004 16.6977 8.32656 17.2308 6.77044 17.7112C5.8797 17.9862 5.22516 18.7928 5.06497 19.8226L4.89763 20.8984C4.81178 21.4503 4.29479 21.8281 3.7429 21.7422C3.19101 21.6564 2.81321 21.1394 2.89906 20.5875L3.0664 19.5117C3.32809 17.8294 4.44204 16.3132 6.17385 15.7786C7.83671 15.2653 10.3241 14.6751 13.0001 14.6751C15.6761 14.6751 18.1634 15.2653 19.8263 15.7786C21.5581 16.3132 22.672 17.8294 22.9337 19.5117L23.1011 20.5875C23.1869 21.1394 22.8091 21.6564 22.2572 21.7422C21.7053 21.8281 21.1884 21.4503 21.1025 20.8984L20.9352 19.8226C20.775 18.7928 20.1204 17.9862 19.2297 17.7112C17.6736 17.2308 15.3998 16.6977 13.0001 16.6977Z" fill="#CFD1DE"/>
<path fill-rule="evenodd" clip-rule="evenodd" d="M0.620117 28.7272V35.9999H1.5008V33.3437H3.09171C3.65752 33.3437 4.12154 33.2407 4.48375 33.0347C4.84597 32.8264 5.11349 32.547 5.28631 32.1967C5.4615 31.8463 5.54909 31.4568 5.54909 31.0283C5.54909 30.5998 5.4615 30.2116 5.28631 29.8636C5.11112 29.5156 4.84123 29.2397 4.47665 29.0361C4.11444 28.8302 3.64805 28.7272 3.0775 28.7272H0.620117ZM1.5008 32.5624H3.0633C3.45392 32.5624 3.76761 32.495 4.00435 32.36C4.24109 32.2251 4.41273 32.0428 4.51927 31.8131C4.62817 31.5811 4.68262 31.3195 4.68262 31.0283C4.68262 30.7371 4.62817 30.4767 4.51927 30.2471C4.41273 30.0174 4.23991 29.8375 4.0008 29.7073C3.76169 29.5747 3.44445 29.5084 3.04909 29.5084H1.5008V32.5624Z" fill="#CFD1DE"/>
<path fill-rule="evenodd" clip-rule="evenodd" d="M7.72239 35.7656C8.10355 35.9976 8.55691 36.1136 9.08248 36.1136C9.45179 36.1136 9.78442 36.0567 10.0803 35.9431C10.3763 35.8271 10.6249 35.6661 10.8261 35.4602C11.0273 35.2518 11.1705 35.0103 11.2558 34.7357L10.4461 34.5084C10.3751 34.6978 10.2745 34.8565 10.1443 34.9843C10.0141 35.1098 9.85899 35.2045 9.67907 35.2684C9.50151 35.3299 9.30265 35.3607 9.08248 35.3607C8.74393 35.3607 8.44682 35.2873 8.19114 35.1406C7.93546 34.9914 7.73541 34.7748 7.591 34.4907C7.4622 34.231 7.3918 33.9196 7.37978 33.5567H11.341V33.2016C11.341 32.6926 11.2735 32.2641 11.1386 31.9161C11.0036 31.5681 10.8225 31.2888 10.5953 31.0781C10.368 30.865 10.1159 30.7111 9.83887 30.6164C9.56188 30.5217 9.28134 30.4744 8.99725 30.4744C8.50482 30.4744 8.07395 30.5951 7.70463 30.8366C7.33768 31.0757 7.05123 31.4095 6.84526 31.838C6.64166 32.2641 6.53986 32.7566 6.53986 33.3153C6.53986 33.874 6.64166 34.364 6.84526 34.7854C7.05123 35.2045 7.3436 35.5312 7.72239 35.7656ZM7.38192 32.8323C7.39788 32.5793 7.46166 32.3402 7.57324 32.115C7.70345 31.8522 7.88929 31.6391 8.13077 31.4758C8.37462 31.3101 8.66344 31.2272 8.99725 31.2272C9.30028 31.2272 9.56306 31.297 9.7856 31.4367C10.0105 31.5764 10.1833 31.767 10.3041 32.0084C10.4272 32.2499 10.4887 32.5245 10.4887 32.8323H7.38192Z" fill="#CFD1DE"/>
<path d="M12.6159 30.5454V35.9999H13.4539V32.5482C13.4539 32.302 13.5131 32.083 13.6315 31.8913C13.7522 31.6971 13.9156 31.5456 14.1215 31.4367C14.3299 31.3254 14.5666 31.2698 14.8318 31.2698C14.943 31.2698 15.0484 31.2781 15.1478 31.2947C15.2496 31.3089 15.3147 31.3195 15.3431 31.3266V30.4744C15.2958 30.4696 15.2259 30.4661 15.1336 30.4637C15.0413 30.4613 14.9643 30.4602 14.9028 30.4602C14.5761 30.4602 14.2825 30.5442 14.0221 30.7123C13.7617 30.8804 13.5818 31.0994 13.4823 31.3692H13.4255V30.5454H12.6159Z" fill="#CFD1DE"/>
<path d="M19.1073 31.2556V30.5454H17.8857V29.9914C17.8857 29.7215 17.9461 29.5167 18.0669 29.3771C18.19 29.2374 18.39 29.1675 18.667 29.1675C18.7877 29.1675 18.8848 29.1782 18.9582 29.1995C19.0339 29.2208 19.0931 29.2386 19.1357 29.2528L19.3772 28.5283C19.3133 28.4999 19.2162 28.4692 19.086 28.436C18.9558 28.4029 18.7877 28.3863 18.5818 28.3863C18.3213 28.3863 18.074 28.4384 17.8396 28.5425C17.6052 28.6467 17.4146 28.803 17.2678 29.0113C17.1211 29.2196 17.0477 29.48 17.0477 29.7925V30.5454H16.167V31.2556H17.0477V35.9999H17.8857V31.2556H19.1073Z" fill="#CFD1DE"/>
<path d="M20.2819 30.5454V35.9999H21.1199V30.5454H20.2819Z" fill="#CFD1DE"/>
<path d="M20.2854 29.4694C20.4038 29.5807 20.5447 29.6363 20.708 29.6363C20.8714 29.6363 21.011 29.5807 21.127 29.4694C21.2454 29.3581 21.3046 29.2244 21.3046 29.0681C21.3046 28.9119 21.2454 28.7781 21.127 28.6668C21.011 28.5556 20.8714 28.4999 20.708 28.4999C20.5447 28.4999 20.4038 28.5556 20.2854 28.6668C20.1694 28.7781 20.1114 28.9119 20.1114 29.0681C20.1114 29.2244 20.1694 29.3581 20.2854 29.4694Z" fill="#CFD1DE"/>
<path d="M23.493 35.9999V28.7272H22.6549V35.9999H23.493Z" fill="#CFD1DE"/>
</svg>
