<svg width="24" height="37" viewBox="0 0 24 37" fill="none" xmlns="http://www.w3.org/2000/svg">
<path fill-rule="evenodd" clip-rule="evenodd" d="M6.93225 6.07954C6.93225 2.72837 9.64891 0.0117188 13.0001 0.0117188C16.3512 0.0117188 19.0679 2.72837 19.0679 6.07954C19.0679 9.4307 16.3512 12.1474 13.0001 12.1474C9.64891 12.1474 6.93225 9.4307 6.93225 6.07954ZM13.0001 2.03432C10.766 2.03432 8.95486 3.84543 8.95486 6.07954C8.95486 8.31364 10.766 10.1247 13.0001 10.1247C15.2342 10.1247 17.0453 8.31364 17.0453 6.07954C17.0453 3.84543 15.2342 2.03432 13.0001 2.03432Z" fill="#CFD1DE"/>
<path d="M13.0001 16.6982C10.5888 16.6982 8.30474 17.2365 6.74829 17.7185C5.87155 17.9901 5.22653 18.7845 5.06875 19.7988L4.89763 20.8989C4.81178 21.4508 4.29479 21.8286 3.7429 21.7427C3.19101 21.6569 2.81321 21.1399 2.89906 20.588L3.07018 19.4879C3.32957 17.8204 4.43414 16.3179 6.14989 15.7865C7.81297 15.2714 10.3113 14.6756 13.0001 14.6756C15.6888 14.6756 18.1872 15.2714 19.8503 15.7865C21.566 16.3179 22.6706 17.8204 22.93 19.4879L23.1011 20.588C23.1869 21.1399 22.8091 21.6569 22.2572 21.7427C21.7053 21.8286 21.1884 21.4508 21.1025 20.8989L20.9314 19.7988C20.7736 18.7845 20.1286 17.9901 19.2518 17.7185C17.6954 17.2365 15.4113 16.6982 13.0001 16.6982Z" fill="#CFD1DE"/>
<path fill-rule="evenodd" clip-rule="evenodd" d="M0.620117 28.7277V36.0004H1.5008V33.3442H3.09171C3.65752 33.3442 4.12154 33.2412 4.48375 33.0352C4.84597 32.8269 5.11349 32.5475 5.28631 32.1971C5.4615 31.8468 5.54909 31.4573 5.54909 31.0288C5.54909 30.6003 5.4615 30.2121 5.28631 29.8641C5.11112 29.516 4.84123 29.2402 4.47665 29.0366C4.11444 28.8307 3.64805 28.7277 3.0775 28.7277H0.620117ZM1.5008 32.5629H3.0633C3.45392 32.5629 3.76761 32.4954 4.00435 32.3605C4.24109 32.2256 4.41273 32.0433 4.51926 31.8136C4.62817 31.5816 4.68262 31.32 4.68262 31.0288C4.68262 30.7376 4.62817 30.4772 4.51926 30.2476C4.41273 30.0179 4.23991 29.838 4.0008 29.7078C3.76169 29.5752 3.44445 29.5089 3.04909 29.5089H1.5008V32.5629Z" fill="#CFD1DE"/>
<path fill-rule="evenodd" clip-rule="evenodd" d="M7.72239 35.766C8.10355 35.998 8.55691 36.1141 9.08248 36.1141C9.45179 36.1141 9.78442 36.0572 10.0803 35.9436C10.3763 35.8276 10.6249 35.6666 10.8261 35.4606C11.0273 35.2523 11.1705 35.0108 11.2558 34.7362L10.4461 34.5089C10.3751 34.6983 10.2745 34.8569 10.1443 34.9848C10.0141 35.1103 9.85899 35.205 9.67907 35.2689C9.50151 35.3304 9.30265 35.3612 9.08248 35.3612C8.74393 35.3612 8.44682 35.2878 8.19114 35.141C7.93546 34.9919 7.73541 34.7753 7.591 34.4912C7.4622 34.2314 7.3918 33.9201 7.37978 33.5572H11.341V33.2021C11.341 32.6931 11.2735 32.2646 11.1386 31.9166C11.0036 31.5686 10.8225 31.2892 10.5953 31.0785C10.368 30.8655 10.1159 30.7116 9.83887 30.6169C9.56188 30.5222 9.28134 30.4748 8.99725 30.4748C8.50482 30.4748 8.07395 30.5956 7.70463 30.8371C7.33768 31.0762 7.05123 31.41 6.84526 31.8385C6.64166 32.2646 6.53986 32.757 6.53986 33.3158C6.53986 33.8745 6.64166 34.3645 6.84526 34.7859C7.05123 35.205 7.3436 35.5317 7.72239 35.766ZM7.38192 32.8328C7.39788 32.5798 7.46166 32.3407 7.57324 32.1155C7.70345 31.8527 7.88929 31.6396 8.13077 31.4763C8.37462 31.3105 8.66344 31.2277 8.99725 31.2277C9.30028 31.2277 9.56306 31.2975 9.7856 31.4372C10.0105 31.5769 10.1833 31.7675 10.3041 32.0089C10.4272 32.2504 10.4887 32.525 10.4887 32.8328H7.38192Z" fill="#CFD1DE"/>
<path d="M12.6159 30.5459V36.0004H13.4539V32.5487C13.4539 32.3025 13.5131 32.0835 13.6315 31.8918C13.7522 31.6976 13.9156 31.5461 14.1215 31.4372C14.3299 31.3259 14.5666 31.2703 14.8318 31.2703C14.943 31.2703 15.0484 31.2786 15.1478 31.2952C15.2496 31.3094 15.3147 31.32 15.3431 31.3271V30.4748C15.2958 30.4701 15.2259 30.4666 15.1336 30.4642C15.0413 30.4618 14.9643 30.4606 14.9028 30.4606C14.5761 30.4606 14.2825 30.5447 14.0221 30.7128C13.7617 30.8809 13.5818 31.0998 13.4823 31.3697H13.4255V30.5459H12.6159Z" fill="#CFD1DE"/>
<path d="M19.1073 31.2561V30.5459H17.8857V29.9919C17.8857 29.722 17.9461 29.5172 18.0669 29.3775C18.19 29.2379 18.39 29.168 18.667 29.168C18.7877 29.168 18.8848 29.1787 18.9582 29.2C19.0339 29.2213 19.0931 29.2391 19.1357 29.2533L19.3772 28.5288C19.3133 28.5004 19.2162 28.4696 19.086 28.4365C18.9558 28.4034 18.7877 28.3868 18.5818 28.3868C18.3213 28.3868 18.074 28.4389 17.8396 28.543C17.6052 28.6472 17.4146 28.8034 17.2678 29.0118C17.1211 29.2201 17.0477 29.4805 17.0477 29.793V30.5459H16.167V31.2561H17.0477V36.0004H17.8857V31.2561H19.1073Z" fill="#CFD1DE"/>
<path d="M20.2819 30.5459V36.0004H21.1199V30.5459H20.2819Z" fill="#CFD1DE"/>
<path d="M20.2854 29.4699C20.4038 29.5811 20.5447 29.6368 20.708 29.6368C20.8714 29.6368 21.011 29.5811 21.127 29.4699C21.2454 29.3586 21.3046 29.2248 21.3046 29.0686C21.3046 28.9123 21.2454 28.7786 21.127 28.6673C21.011 28.556 20.8714 28.5004 20.708 28.5004C20.5447 28.5004 20.4038 28.556 20.2854 28.6673C20.1694 28.7786 20.1114 28.9123 20.1114 29.0686C20.1114 29.2248 20.1694 29.3586 20.2854 29.4699Z" fill="#CFD1DE"/>
<path d="M23.493 36.0004V28.7277H22.6549V36.0004H23.493Z" fill="#CFD1DE"/>
</svg>
