<svg width="47" height="40" viewBox="0 0 47 40" fill="none" xmlns="http://www.w3.org/2000/svg">
<path fill-rule="evenodd" clip-rule="evenodd" d="M29.0686 2.13589H28.896C28.4795 0.957525 27.3557 0.113281 26.0347 0.113281H19.9669C18.6459 0.113281 17.5221 0.957525 17.1056 2.13589H16.933C14.6989 2.13589 12.8878 3.94699 12.8878 6.1811V20.3393C12.8878 22.5734 14.6989 24.3846 16.933 24.3846H29.0686C31.3027 24.3846 33.1138 22.5735 33.1138 20.3393V6.1811C33.1138 3.94699 31.3027 2.13589 29.0686 2.13589ZM14.9104 6.1811C14.9104 5.06404 15.8159 4.15849 16.933 4.15849C16.933 5.83407 18.2913 7.1924 19.9669 7.1924H26.0347C27.7103 7.1924 29.0686 5.83407 29.0686 4.15849C30.1857 4.15849 31.0912 5.06404 31.0912 6.1811V20.3393C31.0912 21.4564 30.1857 22.3619 29.0686 22.3619H16.933C15.8159 22.3619 14.9104 21.4564 14.9104 20.3393V6.1811ZM19.9669 2.13589C19.4084 2.13589 18.9556 2.58866 18.9556 3.14719V4.15849C18.9556 4.71702 19.4084 5.1698 19.9669 5.1698H26.0347C26.5932 5.1698 27.046 4.71702 27.046 4.15849V3.14719C27.046 2.58866 26.5932 2.13589 26.0347 2.13589H19.9669Z" fill="#CFD1DE"/>
<path fill-rule="evenodd" clip-rule="evenodd" d="M0.272217 29.8406V37.1133H1.1529V34.457H2.74381C3.30962 34.457 3.77364 34.354 4.13585 34.1481C4.49807 33.9398 4.76559 33.6604 4.93841 33.31C5.1136 32.9596 5.20119 32.5702 5.20119 32.1417C5.20119 31.7132 5.1136 31.3249 4.93841 30.9769C4.76322 30.6289 4.49333 30.3531 4.12875 30.1495C3.76653 29.9435 3.30015 29.8406 2.7296 29.8406H0.272217ZM1.1529 33.6758H2.7154C3.10602 33.6758 3.41971 33.6083 3.65645 33.4734C3.89319 33.3384 4.06483 33.1561 4.17136 32.9265C4.28027 32.6945 4.33472 32.4329 4.33472 32.1417C4.33472 31.8505 4.28027 31.5901 4.17136 31.3604C4.06483 31.1308 3.89201 30.9509 3.6529 30.8207C3.41379 30.6881 3.09655 30.6218 2.70119 30.6218H1.1529V33.6758Z" fill="#CFD1DE"/>
<path d="M6.50624 31.6587V37.1133H7.34431V33.6616C7.34431 33.4154 7.40349 33.1964 7.52186 33.0046C7.6426 32.8105 7.80595 32.659 8.01192 32.5501C8.22025 32.4388 8.45699 32.3832 8.72215 32.3832C8.83342 32.3832 8.93877 32.3915 9.0382 32.408C9.14 32.4222 9.2051 32.4329 9.23351 32.44V31.5877C9.18616 31.583 9.11632 31.5794 9.02399 31.5771C8.93166 31.5747 8.85472 31.5735 8.79317 31.5735C8.46646 31.5735 8.1729 31.6576 7.91249 31.8256C7.65207 31.9937 7.47215 32.2127 7.37271 32.4826H7.3159V31.6587H6.50624Z" fill="#CFD1DE"/>
<path fill-rule="evenodd" clip-rule="evenodd" d="M10.9807 36.8754C11.3524 37.1097 11.7844 37.2269 12.2768 37.2269C12.7693 37.2269 13.2001 37.1097 13.5694 36.8754C13.9411 36.641 14.23 36.3131 14.4359 35.8917C14.6443 35.4703 14.7484 34.9779 14.7484 34.4144C14.7484 33.8462 14.6443 33.3503 14.4359 32.9265C14.23 32.5027 13.9411 32.1736 13.5694 31.9393C13.2001 31.7049 12.7693 31.5877 12.2768 31.5877C11.7844 31.5877 11.3524 31.7049 10.9807 31.9393C10.6114 32.1736 10.3225 32.5027 10.1142 32.9265C9.90823 33.3503 9.80524 33.8462 9.80524 34.4144C9.80524 34.9779 9.90823 35.4703 10.1142 35.8917C10.3225 36.3131 10.6114 36.641 10.9807 36.8754ZM13.2001 36.1864C12.9587 36.3782 12.6509 36.4741 12.2768 36.4741C11.9028 36.4741 11.595 36.3782 11.3535 36.1864C11.1121 35.9947 10.9333 35.7425 10.8173 35.43C10.7013 35.1175 10.6433 34.779 10.6433 34.4144C10.6433 34.0498 10.7013 33.7101 10.8173 33.3952C10.9333 33.0804 11.1121 32.8259 11.3535 32.6317C11.595 32.4376 11.9028 32.3406 12.2768 32.3406C12.6509 32.3406 12.9587 32.4376 13.2001 32.6317C13.4416 32.8259 13.6203 33.0804 13.7364 33.3952C13.8524 33.7101 13.9104 34.0498 13.9104 34.4144C13.9104 34.779 13.8524 35.1175 13.7364 35.43C13.6203 35.7425 13.4416 35.9947 13.2001 36.1864Z" fill="#CFD1DE"/>
<path d="M15.9922 39.1232C16.1035 39.1469 16.2301 39.1587 16.3722 39.1587C16.6255 39.1587 16.8528 39.1138 17.054 39.0238C17.2576 38.9338 17.4363 38.7953 17.5902 38.6083C17.7441 38.4236 17.8731 38.1905 17.9773 37.9087L20.2926 31.6587H19.3835L17.8779 36.0053H17.821L16.3154 31.6587H15.4063L17.4233 37.1417L17.2671 37.5678C17.1653 37.8448 17.0528 38.0449 16.9297 38.168C16.809 38.2934 16.6705 38.3633 16.5142 38.3775C16.358 38.3917 16.1781 38.3727 15.9745 38.3207L15.7614 39.0593C15.804 39.0806 15.8809 39.1019 15.9922 39.1232Z" fill="#CFD1DE"/>
<path fill-rule="evenodd" clip-rule="evenodd" d="M22.1303 36.8789C22.5115 37.1109 22.9649 37.2269 23.4904 37.2269C23.8598 37.2269 24.1924 37.1701 24.4883 37.0565C24.7842 36.9405 25.0328 36.7795 25.234 36.5735C25.4353 36.3652 25.5785 36.1237 25.6637 35.8491L24.8541 35.6218C24.783 35.8112 24.6824 35.9698 24.5522 36.0977C24.422 36.2231 24.2669 36.3178 24.087 36.3817C23.9095 36.4433 23.7106 36.4741 23.4904 36.4741C23.1519 36.4741 22.8548 36.4007 22.5991 36.2539C22.3434 36.1048 22.1434 35.8881 21.999 35.604C21.8702 35.3443 21.7998 35.033 21.7877 34.6701H25.749V34.315C25.749 33.806 25.6815 33.3775 25.5465 33.0295C25.4116 32.6815 25.2305 32.4021 25.0032 32.1914C24.7759 31.9783 24.5238 31.8245 24.2468 31.7298C23.9698 31.6351 23.6893 31.5877 23.4052 31.5877C22.9128 31.5877 22.4819 31.7085 22.1126 31.9499C21.7456 32.189 21.4592 32.5228 21.2532 32.9514C21.0496 33.3775 20.9478 33.8699 20.9478 34.4286C20.9478 34.9873 21.0496 35.4774 21.2532 35.8988C21.4592 36.3178 21.7516 36.6445 22.1303 36.8789ZM21.7899 33.9457C21.8058 33.6926 21.8696 33.4535 21.9812 33.2283C22.1114 32.9656 22.2973 32.7525 22.5387 32.5891C22.7826 32.4234 23.0714 32.3406 23.4052 32.3406C23.7082 32.3406 23.971 32.4104 24.1936 32.5501C24.4185 32.6898 24.5913 32.8803 24.712 33.1218C24.8351 33.3633 24.8967 33.6379 24.8967 33.9457H21.7899Z" fill="#CFD1DE"/>
<path d="M27.9187 36.8647C28.288 37.1062 28.7284 37.2269 29.2397 37.2269C29.6422 37.2269 29.9949 37.1523 30.298 37.0032C30.6034 36.8517 30.8484 36.6481 31.033 36.3924C31.2201 36.1343 31.3373 35.8443 31.3846 35.5224H30.5465C30.4945 35.7212 30.4069 35.8917 30.2838 36.0337C30.1607 36.1758 30.0103 36.2847 29.8328 36.3604C29.6552 36.4362 29.4575 36.4741 29.2397 36.4741C28.9083 36.4741 28.6195 36.3877 28.3732 36.2148C28.1294 36.042 27.94 35.7994 27.8051 35.4869C27.6725 35.1744 27.6062 34.8074 27.6062 34.386C27.6062 33.9741 27.6737 33.6154 27.8086 33.31C27.9459 33.0023 28.1365 32.7643 28.3803 32.5962C28.6266 32.4258 28.913 32.3406 29.2397 32.3406C29.609 32.3406 29.9026 32.4376 30.1204 32.6317C30.3406 32.8235 30.4826 33.0437 30.5465 33.2923H31.3846C31.3373 32.9514 31.2153 32.6531 31.0188 32.3974C30.8223 32.1417 30.5702 31.9428 30.2625 31.8008C29.9547 31.6587 29.609 31.5877 29.2255 31.5877C28.7331 31.5877 28.3022 31.7085 27.9329 31.9499C27.566 32.189 27.2795 32.5217 27.0735 32.9478C26.8699 33.3716 26.7681 33.8604 26.7681 34.4144C26.7681 34.9589 26.8676 35.4431 27.0664 35.8668C27.2653 36.2906 27.5494 36.6232 27.9187 36.8647Z" fill="#CFD1DE"/>
<path d="M34.9819 32.369V31.6587H33.8171V30.3519H32.9791V31.6587H32.1552V32.369H32.9791V35.7781C32.9791 36.0953 33.0525 36.3581 33.1992 36.5664C33.3484 36.7747 33.5354 36.9298 33.7603 37.0316C33.9876 37.1334 34.2196 37.1843 34.4563 37.1843C34.6126 37.1843 34.7416 37.1725 34.8434 37.1488C34.9452 37.1275 35.0245 37.1062 35.0813 37.0849L34.9109 36.332L34.7688 36.3604C34.7097 36.3699 34.6339 36.3746 34.5416 36.3746C34.4185 36.3746 34.3013 36.3557 34.19 36.3178C34.0811 36.2776 33.9911 36.1995 33.9201 36.0835C33.8515 35.9651 33.8171 35.7875 33.8171 35.5508V32.369H34.9819Z" fill="#CFD1DE"/>
<path fill-rule="evenodd" clip-rule="evenodd" d="M37.1037 36.8754C37.4754 37.1097 37.9075 37.2269 38.3999 37.2269C38.8923 37.2269 39.3232 37.1097 39.6925 36.8754C40.0642 36.641 40.353 36.3131 40.559 35.8917C40.7673 35.4703 40.8715 34.9779 40.8715 34.4144C40.8715 33.8462 40.7673 33.3503 40.559 32.9265C40.353 32.5027 40.0642 32.1736 39.6925 31.9393C39.3232 31.7049 38.8923 31.5877 38.3999 31.5877C37.9075 31.5877 37.4754 31.7049 37.1037 31.9393C36.7344 32.1736 36.4456 32.5027 36.2372 32.9265C36.0313 33.3503 35.9283 33.8462 35.9283 34.4144C35.9283 34.9779 36.0313 35.4703 36.2372 35.8917C36.4456 36.3131 36.7344 36.641 37.1037 36.8754ZM39.3232 36.1864C39.0817 36.3782 38.7739 36.4741 38.3999 36.4741C38.0258 36.4741 37.7181 36.3782 37.4766 36.1864C37.2351 35.9947 37.0564 35.7425 36.9404 35.43C36.8244 35.1175 36.7664 34.779 36.7664 34.4144C36.7664 34.0498 36.8244 33.7101 36.9404 33.3952C37.0564 33.0804 37.2351 32.8259 37.4766 32.6317C37.7181 32.4376 38.0258 32.3406 38.3999 32.3406C38.7739 32.3406 39.0817 32.4376 39.3232 32.6317C39.5647 32.8259 39.7434 33.0804 39.8594 33.3952C39.9754 33.7101 40.0334 34.0498 40.0334 34.4144C40.0334 34.779 39.9754 35.1175 39.8594 35.43C39.7434 35.7425 39.5647 35.9947 39.3232 36.1864Z" fill="#CFD1DE"/>
<path d="M45.2616 33.0934L46.0144 32.8803C45.8842 32.4921 45.664 32.1796 45.3539 31.9428C45.0461 31.7061 44.6224 31.5877 44.0826 31.5877C43.6991 31.5877 43.3558 31.6552 43.0528 31.7901C42.7521 31.9251 42.5142 32.1109 42.339 32.3477C42.1662 32.5844 42.0797 32.8567 42.0797 33.1644C42.0797 33.5408 42.1958 33.8545 42.4278 34.1055C42.6621 34.354 43.0291 34.5375 43.5286 34.6559L44.4377 34.869C44.7123 34.9329 44.9159 35.0299 45.0485 35.1602C45.1811 35.288 45.2474 35.4466 45.2474 35.636C45.2474 35.8704 45.1314 36.0716 44.8993 36.2397C44.6697 36.4054 44.3596 36.4883 43.969 36.4883C43.6257 36.4883 43.3475 36.4149 43.1344 36.2681C42.9237 36.1213 42.7805 35.9012 42.7047 35.6076L41.9093 35.8065C42.0064 36.2705 42.2372 36.6232 42.6018 36.8647C42.9663 37.1062 43.4268 37.2269 43.9832 37.2269C44.4069 37.2269 44.7786 37.1559 45.0982 37.0139C45.4178 36.8718 45.6664 36.6777 45.844 36.4315C46.0239 36.1852 46.1138 35.9059 46.1138 35.5934C46.1138 35.2122 45.9943 34.9009 45.7552 34.6594C45.5161 34.4156 45.1527 34.2345 44.665 34.1161L43.8553 33.9173C43.5333 33.8368 43.2966 33.7361 43.1451 33.6154C42.9936 33.4947 42.9178 33.3301 42.9178 33.1218C42.9178 32.8874 43.0279 32.6945 43.2481 32.543C43.4706 32.3891 43.7488 32.3121 44.0826 32.3121C44.3264 32.3121 44.5265 32.3512 44.6827 32.4293C44.839 32.5075 44.9621 32.6069 45.052 32.7276C45.1444 32.846 45.2142 32.9679 45.2616 33.0934Z" fill="#CFD1DE"/>
</svg>
