<svg width="47" height="40" viewBox="0 0 47 40" fill="none" xmlns="http://www.w3.org/2000/svg">
<path fill-rule="evenodd" clip-rule="evenodd" d="M29.6362 2.02261H29.4636C29.0471 0.844244 27.9233 0 26.6023 0H20.5345C19.2135 0 18.0897 0.844243 17.6732 2.02261H17.5006C15.2665 2.02261 13.4554 3.8337 13.4554 6.06781V20.2261C13.4554 22.4602 15.2665 24.2713 17.5006 24.2713H29.6362C31.8704 24.2713 33.6815 22.4602 33.6815 20.2261V6.06782C33.6815 3.83371 31.8704 2.02261 29.6362 2.02261ZM15.478 6.06781C15.478 4.95076 16.3836 4.04521 17.5006 4.04521C17.5006 5.72079 18.8589 7.07912 20.5345 7.07912H26.6023C28.2779 7.07912 29.6362 5.72079 29.6362 4.04521C30.7533 4.04521 31.6589 4.95076 31.6589 6.06782V20.2261C31.6589 21.3431 30.7533 22.2487 29.6362 22.2487H17.5006C16.3836 22.2487 15.478 21.3431 15.478 20.2261V6.06781ZM20.5345 2.02261C19.976 2.02261 19.5232 2.47538 19.5232 3.03391V4.04521C19.5232 4.60374 19.976 5.05651 20.5345 5.05651H26.6023C27.1609 5.05651 27.6136 4.60374 27.6136 4.04521V3.03391C27.6136 2.47538 27.1609 2.02261 26.6023 2.02261H20.5345Z" fill="#CFD1DE"/>
<path fill-rule="evenodd" clip-rule="evenodd" d="M0.839844 29.7273V37H1.72053V34.3438H3.31143C3.87725 34.3438 4.34126 34.2408 4.70348 34.0348C5.0657 33.8265 5.33322 33.5471 5.50604 33.1967C5.68123 32.8464 5.76882 32.4569 5.76882 32.0284C5.76882 31.5999 5.68123 31.2116 5.50604 30.8636C5.33085 30.5156 5.06096 30.2398 4.69638 30.0362C4.33416 29.8303 3.86778 29.7273 3.29723 29.7273H0.839844ZM1.72053 33.5625H3.28303C3.67365 33.5625 3.98733 33.495 4.22408 33.3601C4.46082 33.2251 4.63246 33.0429 4.73899 32.8132C4.84789 32.5812 4.90234 32.3196 4.90234 32.0284C4.90234 31.7372 4.84789 31.4768 4.73899 31.2472C4.63246 31.0175 4.45964 30.8376 4.22053 30.7074C3.98142 30.5748 3.66418 30.5085 3.26882 30.5085H1.72053V33.5625Z" fill="#CFD1DE"/>
<path d="M7.07386 31.5455V37H7.91193V33.5483C7.91193 33.3021 7.97112 33.0831 8.08949 32.8913C8.21023 32.6972 8.37358 32.5457 8.57955 32.4368C8.78788 32.3255 9.02462 32.2699 9.28977 32.2699C9.40104 32.2699 9.50639 32.2782 9.60582 32.2947C9.70762 32.3089 9.77273 32.3196 9.80114 32.3267V31.4744C9.75379 31.4697 9.68395 31.4661 9.59162 31.4638C9.49929 31.4614 9.42235 31.4602 9.3608 31.4602C9.03409 31.4602 8.74053 31.5443 8.48011 31.7124C8.2197 31.8804 8.03977 32.0994 7.94034 32.3693H7.88352V31.5455H7.07386Z" fill="#CFD1DE"/>
<path fill-rule="evenodd" clip-rule="evenodd" d="M11.5483 36.7621C11.92 36.9964 12.352 37.1136 12.8445 37.1136C13.3369 37.1136 13.7678 36.9964 14.1371 36.7621C14.5088 36.5277 14.7976 36.1998 15.0036 35.7784C15.2119 35.357 15.3161 34.8646 15.3161 34.3011C15.3161 33.733 15.2119 33.237 15.0036 32.8132C14.7976 32.3894 14.5088 32.0604 14.1371 31.826C13.7678 31.5916 13.3369 31.4744 12.8445 31.4744C12.352 31.4744 11.92 31.5916 11.5483 31.826C11.179 32.0604 10.8902 32.3894 10.6818 32.8132C10.4759 33.237 10.3729 33.733 10.3729 34.3011C10.3729 34.8646 10.4759 35.357 10.6818 35.7784C10.8902 36.1998 11.179 36.5277 11.5483 36.7621ZM13.7678 36.0732C13.5263 36.2649 13.2185 36.3608 12.8445 36.3608C12.4704 36.3608 12.1626 36.2649 11.9212 36.0732C11.6797 35.8814 11.5009 35.6293 11.3849 35.3168C11.2689 35.0043 11.2109 34.6657 11.2109 34.3011C11.2109 33.9366 11.2689 33.5968 11.3849 33.282C11.5009 32.9671 11.6797 32.7126 11.9212 32.5185C12.1626 32.3243 12.4704 32.2273 12.8445 32.2273C13.2185 32.2273 13.5263 32.3243 13.7678 32.5185C14.0092 32.7126 14.188 32.9671 14.304 33.282C14.42 33.5968 14.478 33.9366 14.478 34.3011C14.478 34.6657 14.42 35.0043 14.304 35.3168C14.188 35.6293 14.0092 35.8814 13.7678 36.0732Z" fill="#CFD1DE"/>
<path d="M16.5598 39.0099C16.6711 39.0336 16.7978 39.0455 16.9398 39.0455C17.1931 39.0455 17.4204 39.0005 17.6216 38.9105C17.8252 38.8205 18.004 38.6821 18.1578 38.495C18.3117 38.3104 18.4408 38.0772 18.5449 37.7955L20.8603 31.5455H19.9512L18.4455 35.892H18.3887L16.883 31.5455H15.9739L17.9909 37.0284L17.8347 37.4545C17.7329 37.7315 17.6204 37.9316 17.4973 38.0547C17.3766 38.1802 17.2381 38.25 17.0819 38.2642C16.9256 38.2784 16.7457 38.2595 16.5421 38.2074L16.329 38.946C16.3716 38.9673 16.4486 38.9886 16.5598 39.0099Z" fill="#CFD1DE"/>
<path fill-rule="evenodd" clip-rule="evenodd" d="M22.698 36.7656C23.0791 36.9976 23.5325 37.1136 24.0581 37.1136C24.4274 37.1136 24.76 37.0568 25.0559 36.9432C25.3519 36.8272 25.6004 36.6662 25.8017 36.4602C26.0029 36.2519 26.1461 36.0104 26.2314 35.7358L25.4217 35.5085C25.3507 35.6979 25.2501 35.8565 25.1199 35.9844C24.9896 36.1098 24.8346 36.2045 24.6547 36.2685C24.4771 36.33 24.2782 36.3608 24.0581 36.3608C23.7195 36.3608 23.4224 36.2874 23.1667 36.1406C22.911 35.9915 22.711 35.7749 22.5666 35.4908C22.4378 35.231 22.3674 34.9197 22.3554 34.5568H26.3166V34.2017C26.3166 33.6927 26.2491 33.2642 26.1142 32.9162C25.9792 32.5682 25.7981 32.2888 25.5708 32.0781C25.3436 31.8651 25.0914 31.7112 24.8145 31.6165C24.5375 31.5218 24.2569 31.4744 23.9728 31.4744C23.4804 31.4744 23.0495 31.5952 22.6802 31.8366C22.3133 32.0758 22.0268 32.4096 21.8208 32.8381C21.6172 33.2642 21.5154 33.7566 21.5154 34.3153C21.5154 34.8741 21.6172 35.3641 21.8208 35.7855C22.0268 36.2045 22.3192 36.5312 22.698 36.7656ZM22.3575 33.8324C22.3735 33.5794 22.4372 33.3403 22.5488 33.1151C22.679 32.8523 22.8649 32.6392 23.1064 32.4759C23.3502 32.3101 23.639 32.2273 23.9728 32.2273C24.2759 32.2273 24.5386 32.2971 24.7612 32.4368C24.9861 32.5765 25.1589 32.767 25.2797 33.0085C25.4028 33.25 25.4643 33.5246 25.4643 33.8324H22.3575Z" fill="#CFD1DE"/>
<path d="M28.4863 36.7514C28.8556 36.9929 29.296 37.1136 29.8074 37.1136C30.2098 37.1136 30.5626 37.0391 30.8656 36.8899C31.171 36.7384 31.416 36.5348 31.6007 36.2791C31.7877 36.0211 31.9049 35.7311 31.9522 35.4091H31.1142C31.0621 35.608 30.9745 35.7784 30.8514 35.9205C30.7283 36.0625 30.5779 36.1714 30.4004 36.2472C30.2228 36.3229 30.0252 36.3608 29.8074 36.3608C29.4759 36.3608 29.1871 36.2744 28.9409 36.1016C28.697 35.9287 28.5076 35.6861 28.3727 35.3736C28.2401 35.0611 28.1738 34.6941 28.1738 34.2727C28.1738 33.8608 28.2413 33.5021 28.3762 33.1967C28.5136 32.889 28.7041 32.651 28.948 32.483C29.1942 32.3125 29.4806 32.2273 29.8074 32.2273C30.1767 32.2273 30.4702 32.3243 30.688 32.5185C30.9082 32.7102 31.0502 32.9304 31.1142 33.179H31.9522C31.9049 32.8381 31.783 32.5398 31.5865 32.2841C31.39 32.0284 31.1378 31.8295 30.8301 31.6875C30.5223 31.5455 30.1767 31.4744 29.7931 31.4744C29.3007 31.4744 28.8699 31.5952 28.5005 31.8366C28.1336 32.0758 27.8471 32.4084 27.6412 32.8345C27.4376 33.2583 27.3358 33.7472 27.3358 34.3011C27.3358 34.8456 27.4352 35.3298 27.6341 35.7536C27.8329 36.1773 28.117 36.5099 28.4863 36.7514Z" fill="#CFD1DE"/>
<path d="M35.5495 32.2557V31.5455H34.3848V30.2386H33.5467V31.5455H32.7228V32.2557H33.5467V35.6648C33.5467 35.982 33.6201 36.2448 33.7669 36.4531C33.916 36.6615 34.103 36.8165 34.3279 36.9183C34.5552 37.0201 34.7872 37.071 35.024 37.071C35.1802 37.071 35.3092 37.0592 35.411 37.0355C35.5128 37.0142 35.5922 36.9929 35.649 36.9716L35.4785 36.2188L35.3365 36.2472C35.2773 36.2566 35.2015 36.2614 35.1092 36.2614C34.9861 36.2614 34.8689 36.2424 34.7576 36.2045C34.6487 36.1643 34.5588 36.0862 34.4877 35.9702C34.4191 35.8518 34.3848 35.6742 34.3848 35.4375V32.2557H35.5495Z" fill="#CFD1DE"/>
<path fill-rule="evenodd" clip-rule="evenodd" d="M37.6713 36.7621C38.043 36.9964 38.4751 37.1136 38.9675 37.1136C39.4599 37.1136 39.8908 36.9964 40.2601 36.7621C40.6318 36.5277 40.9206 36.1998 41.1266 35.7784C41.3349 35.357 41.4391 34.8646 41.4391 34.3011C41.4391 33.733 41.3349 33.237 41.1266 32.8132C40.9206 32.3894 40.6318 32.0604 40.2601 31.826C39.8908 31.5916 39.4599 31.4744 38.9675 31.4744C38.4751 31.4744 38.043 31.5916 37.6713 31.826C37.302 32.0604 37.0132 32.3894 36.8049 32.8132C36.5989 33.237 36.4959 33.733 36.4959 34.3011C36.4959 34.8646 36.5989 35.357 36.8049 35.7784C37.0132 36.1998 37.302 36.5277 37.6713 36.7621ZM39.8908 36.0732C39.6493 36.2649 39.3416 36.3608 38.9675 36.3608C38.5935 36.3608 38.2857 36.2649 38.0442 36.0732C37.8027 35.8814 37.624 35.6293 37.508 35.3168C37.392 35.0043 37.334 34.6657 37.334 34.3011C37.334 33.9366 37.392 33.5968 37.508 33.282C37.624 32.9671 37.8027 32.7126 38.0442 32.5185C38.2857 32.3243 38.5935 32.2273 38.9675 32.2273C39.3416 32.2273 39.6493 32.3243 39.8908 32.5185C40.1323 32.7126 40.311 32.9671 40.427 33.282C40.543 33.5968 40.601 33.9366 40.601 34.3011C40.601 34.6657 40.543 35.0043 40.427 35.3168C40.311 35.6293 40.1323 35.8814 39.8908 36.0732Z" fill="#CFD1DE"/>
<path d="M45.8292 32.9801L46.582 32.767C46.4518 32.3788 46.2317 32.0663 45.9215 31.8295C45.6138 31.5928 45.19 31.4744 44.6502 31.4744C44.2667 31.4744 43.9234 31.5419 43.6204 31.6768C43.3197 31.8118 43.0818 31.9976 42.9066 32.2344C42.7338 32.4711 42.6474 32.7434 42.6474 33.0511C42.6474 33.4276 42.7634 33.7412 42.9954 33.9922C43.2298 34.2408 43.5967 34.4242 44.0962 34.5426L45.0053 34.7557C45.2799 34.8196 45.4835 34.9167 45.6161 35.0469C45.7487 35.1747 45.815 35.3333 45.815 35.5227C45.815 35.7571 45.699 35.9583 45.467 36.1264C45.2373 36.2921 44.9272 36.375 44.5366 36.375C44.1933 36.375 43.9151 36.3016 43.7021 36.1548C43.4914 36.008 43.3481 35.7879 43.2724 35.4943L42.4769 35.6932C42.574 36.1572 42.8048 36.5099 43.1694 36.7514C43.534 36.9929 43.9944 37.1136 44.5508 37.1136C44.9745 37.1136 45.3462 37.0426 45.6658 36.9006C45.9854 36.7585 46.234 36.5644 46.4116 36.3182C46.5915 36.072 46.6815 35.7926 46.6815 35.4801C46.6815 35.099 46.5619 34.7876 46.3228 34.5462C46.0837 34.3023 45.7203 34.1212 45.2326 34.0028L44.4229 33.804C44.101 33.7235 43.8642 33.6229 43.7127 33.5021C43.5612 33.3814 43.4854 33.2169 43.4854 33.0085C43.4854 32.7741 43.5955 32.5812 43.8157 32.4297C44.0382 32.2758 44.3164 32.1989 44.6502 32.1989C44.8941 32.1989 45.0941 32.2379 45.2504 32.3161C45.4066 32.3942 45.5297 32.4936 45.6197 32.6143C45.712 32.7327 45.7818 32.8546 45.8292 32.9801Z" fill="#CFD1DE"/>
</svg>
