<svg width="69" height="51" viewBox="0 0 69 51" fill="none" xmlns="http://www.w3.org/2000/svg">
<path fill-rule="evenodd" clip-rule="evenodd" d="M68.8061 26.6816C68.806 26.6816 68.806 26.6817 68.806 26.6817V38.7527C68.806 41.2255 67.3119 43.4533 65.0241 44.3918L50.0137 50.5489C50.0135 50.549 50.0133 50.5492 50.0133 50.5495C50.0133 50.5499 50.0129 50.5502 50.0125 50.5501L5.87704 35.3074C2.80591 34.2468 0.745361 31.3552 0.745361 28.106V1.79361C0.745361 1.79219 0.746936 1.79133 0.748132 1.7921L0.749425 1.79293C0.749885 1.79323 0.750427 1.79338 0.750974 1.79335L36.5985 0.131545C38.1971 0.057439 39.7607 0.615003 40.9517 1.68385L68.8018 26.6776C68.8023 26.678 68.803 26.6781 68.8036 26.6779C68.8048 26.6775 68.806 26.6783 68.806 26.6796V26.6812C68.806 26.6813 68.806 26.6813 68.8061 26.6814L68.8061 26.6814C68.8062 26.6815 68.8062 26.6816 68.8061 26.6816Z" fill="#02195B"/>
</svg>
