<svg width="24" height="37" viewBox="0 0 24 37" fill="none" xmlns="http://www.w3.org/2000/svg">
<path fill-rule="evenodd" clip-rule="evenodd" d="M7.03943 6.77643C7.03943 3.42527 9.75608 0.708618 13.1072 0.708618C16.4584 0.708618 19.1751 3.42527 19.1751 6.77643C19.1751 10.1276 16.4584 12.8443 13.1072 12.8443C9.75608 12.8443 7.03943 10.1276 7.03943 6.77643ZM13.1072 2.73122C10.8731 2.73122 9.06204 4.54233 9.06204 6.77643C9.06204 9.01054 10.8731 10.8216 13.1072 10.8216C15.3414 10.8216 17.1525 9.01054 17.1525 6.77643C17.1525 4.54233 15.3414 2.73122 13.1072 2.73122Z" fill="#CFD1DE"/>
<path d="M13.1072 17.3951C10.7076 17.3951 8.43374 17.9282 6.87762 18.4086C5.98688 18.6835 5.33234 19.4902 5.17215 20.52L5.00481 21.5958C4.91896 22.1477 4.40197 22.5255 3.85008 22.4396C3.29819 22.3538 2.92039 21.8368 3.00624 21.2849L3.17358 20.2091C3.43527 18.5268 4.54922 17.0106 6.28103 16.476C7.94389 15.9626 10.4312 15.3725 13.1072 15.3725C15.7832 15.3725 18.2706 15.9626 19.9335 16.476C21.6653 17.0106 22.7792 18.5268 23.0409 20.2091L23.2083 21.2849C23.2941 21.8368 22.9163 22.3538 22.3644 22.4396C21.8125 22.5255 21.2955 22.1477 21.2097 21.5958L21.0423 20.52C20.8822 19.4902 20.2276 18.6835 19.3369 18.4086C17.7808 17.9282 15.5069 17.3951 13.1072 17.3951Z" fill="#CFD1DE"/>
<path fill-rule="evenodd" clip-rule="evenodd" d="M0.727295 29.4246V36.6973H1.60798V34.0411H3.19889C3.7647 34.0411 4.22872 33.9381 4.59093 33.7321C4.95315 33.5238 5.22067 33.2444 5.39349 32.894C5.56868 32.5437 5.65627 32.1542 5.65627 31.7257C5.65627 31.2972 5.56868 30.909 5.39349 30.561C5.2183 30.2129 4.94841 29.9371 4.58383 29.7335C4.22161 29.5276 3.75523 29.4246 3.18468 29.4246H0.727295ZM1.60798 33.2598H3.17048C3.5611 33.2598 3.87479 33.1923 4.11153 33.0574C4.34827 32.9225 4.51991 32.7402 4.62644 32.5105C4.73534 32.2785 4.78979 32.0169 4.78979 31.7257C4.78979 31.4345 4.73534 31.1741 4.62644 30.9445C4.51991 30.7148 4.34709 30.5349 4.10798 30.4047C3.86887 30.2721 3.55163 30.2058 3.15627 30.2058H1.60798V33.2598Z" fill="#CFD1DE"/>
<path fill-rule="evenodd" clip-rule="evenodd" d="M7.82957 36.4629C8.21072 36.6949 8.66408 36.811 9.18965 36.811C9.55897 36.811 9.89159 36.7541 10.1875 36.6405C10.4834 36.5245 10.732 36.3635 10.9333 36.1575C11.1345 35.9492 11.2777 35.7077 11.3629 35.4331L10.5533 35.2058C10.4823 35.3952 10.3817 35.5538 10.2514 35.6817C10.1212 35.8072 9.96617 35.9019 9.78624 35.9658C9.60869 36.0273 9.40982 36.0581 9.18965 36.0581C8.85111 36.0581 8.554 35.9847 8.29832 35.8379C8.04264 35.6888 7.84259 35.4722 7.69818 35.1881C7.56938 34.9283 7.49898 34.617 7.48696 34.2541H11.4482V33.899C11.4482 33.39 11.3807 32.9615 11.2458 32.6135C11.1108 32.2655 10.9297 31.9861 10.7024 31.7754C10.4752 31.5624 10.223 31.4085 9.94604 31.3138C9.66906 31.2191 9.38852 31.1717 9.10443 31.1717C8.612 31.1717 8.18113 31.2925 7.81181 31.534C7.44486 31.7731 7.1584 32.1069 6.95244 32.5354C6.74884 32.9615 6.64704 33.4539 6.64704 34.0127C6.64704 34.5714 6.74884 35.0614 6.95244 35.4828C7.1584 35.9019 7.45078 36.2286 7.82957 36.4629ZM7.4891 33.5297C7.50506 33.2767 7.56883 33.0376 7.68042 32.8124C7.81063 32.5496 7.99647 32.3365 8.23795 32.1732C8.48179 32.0074 8.77062 31.9246 9.10443 31.9246C9.40746 31.9246 9.67024 31.9944 9.89278 32.1341C10.1177 32.2738 10.2905 32.4644 10.4112 32.7058C10.5343 32.9473 10.5959 33.2219 10.5959 33.5297H7.4891Z" fill="#CFD1DE"/>
<path d="M12.723 31.2428V36.6973H13.5611V33.2456C13.5611 32.9994 13.6203 32.7804 13.7387 32.5886C13.8594 32.3945 14.0227 32.243 14.2287 32.1341C14.437 32.0228 14.6738 31.9672 14.9389 31.9672C15.0502 31.9672 15.1556 31.9755 15.255 31.9921C15.3568 32.0063 15.4219 32.0169 15.4503 32.024V31.1717C15.403 31.167 15.3331 31.1635 15.2408 31.1611C15.1485 31.1587 15.0715 31.1575 15.01 31.1575C14.6833 31.1575 14.3897 31.2416 14.1293 31.4097C13.8689 31.5778 13.6889 31.7967 13.5895 32.0666H13.5327V31.2428H12.723Z" fill="#CFD1DE"/>
<path d="M19.2145 31.953V31.2428H17.9929V30.6888C17.9929 30.4189 18.0533 30.2141 18.174 30.0744C18.2971 29.9348 18.4972 29.8649 18.7742 29.8649C18.8949 29.8649 18.992 29.8756 19.0654 29.8969C19.1411 29.9182 19.2003 29.936 19.2429 29.9502L19.4844 29.2257C19.4205 29.1973 19.3234 29.1665 19.1932 29.1334C19.063 29.1003 18.8949 29.0837 18.6889 29.0837C18.4285 29.0837 18.1811 29.1358 17.9468 29.2399C17.7124 29.3441 17.5218 29.5003 17.375 29.7087C17.2282 29.917 17.1549 30.1774 17.1549 30.4899V31.2428H16.2742V31.953H17.1549V36.6973H17.9929V31.953H19.2145Z" fill="#CFD1DE"/>
<path d="M20.389 31.2428V36.6973H21.2271V31.2428H20.389Z" fill="#CFD1DE"/>
<path d="M20.3926 30.1668C20.511 30.278 20.6518 30.3337 20.8152 30.3337C20.9785 30.3337 21.1182 30.278 21.2342 30.1668C21.3526 30.0555 21.4118 29.9217 21.4118 29.7655C21.4118 29.6092 21.3526 29.4755 21.2342 29.3642C21.1182 29.2529 20.9785 29.1973 20.8152 29.1973C20.6518 29.1973 20.511 29.2529 20.3926 29.3642C20.2766 29.4755 20.2186 29.6092 20.2186 29.7655C20.2186 29.9217 20.2766 30.0555 20.3926 30.1668Z" fill="#CFD1DE"/>
<path d="M23.6002 36.6973V29.4246H22.7621V36.6973H23.6002Z" fill="#CFD1DE"/>
</svg>
