<svg width="27" height="38" viewBox="0 0 27 38" fill="none" xmlns="http://www.w3.org/2000/svg">
<path fill-rule="evenodd" clip-rule="evenodd" d="M13.707 0.894227C13.3504 0.631612 12.8644 0.631612 12.5077 0.894227L3.62965 7.43172C2.59429 8.19412 1.98304 9.40331 1.98304 10.6891V21.429C1.98304 23.3838 3.56776 24.9685 5.5226 24.9685H9.06216C10.1792 24.9685 11.0848 24.063 11.0848 22.9459V17.3838H15.13V22.9459C15.13 24.063 16.0355 24.9685 17.1526 24.9685H20.6921C22.647 24.9685 24.2317 23.3838 24.2317 21.429V10.6891C24.2317 9.40331 23.6204 8.19411 22.5851 7.43172L13.707 0.894227ZM4.82895 9.0604L13.1074 2.96447L21.3858 9.0604C21.9035 9.4416 22.2091 10.0462 22.2091 10.6891V21.429C22.2091 22.2668 21.5299 22.9459 20.6921 22.9459H17.1526V16.8781C17.1526 16.0403 16.4734 15.3612 15.6356 15.3612H10.5791C9.74133 15.3612 9.06216 16.0403 9.06216 16.8781V22.9459H5.5226C4.68481 22.9459 4.00565 22.2668 4.00565 21.429V10.6891C4.00565 10.0462 4.31127 9.4416 4.82895 9.0604Z" fill="#CFD1DE"/>
<path d="M0.0477295 30.4245V37.6973H0.928413V34.4444H4.80625V37.6973H5.68694V30.4245H4.80625V33.6632H0.928413V30.4245H0.0477295Z" fill="#CFD1DE"/>
<path fill-rule="evenodd" clip-rule="evenodd" d="M8.25618 37.4593C8.62787 37.6937 9.05992 37.8109 9.55235 37.8109C10.0448 37.8109 10.4756 37.6937 10.845 37.4593C11.2166 37.225 11.5055 36.8971 11.7114 36.4757C11.9198 36.0543 12.0239 35.5618 12.0239 34.9984C12.0239 34.4302 11.9198 33.9342 11.7114 33.5105C11.5055 33.0867 11.2166 32.7576 10.845 32.5233C10.4756 32.2889 10.0448 32.1717 9.55235 32.1717C9.05992 32.1717 8.62787 32.2889 8.25618 32.5233C7.88686 32.7576 7.59804 33.0867 7.38971 33.5105C7.18374 33.9342 7.08076 34.4302 7.08076 34.9984C7.08076 35.5618 7.18374 36.0543 7.38971 36.4757C7.59804 36.8971 7.88686 37.225 8.25618 37.4593ZM10.4756 36.7704C10.2342 36.9622 9.9264 37.0581 9.55235 37.0581C9.1783 37.0581 8.87053 36.9622 8.62905 36.7704C8.38758 36.5787 8.20883 36.3265 8.09283 36.014C7.97683 35.7015 7.91883 35.363 7.91883 34.9984C7.91883 34.6338 7.97683 34.2941 8.09283 33.9792C8.20883 33.6644 8.38758 33.4099 8.62905 33.2157C8.87053 33.0216 9.1783 32.9245 9.55235 32.9245C9.9264 32.9245 10.2342 33.0216 10.4756 33.2157C10.7171 33.4099 10.8959 33.6644 11.0119 33.9792C11.1279 34.2941 11.1859 34.6338 11.1859 34.9984C11.1859 35.363 11.1279 35.7015 11.0119 36.014C10.8959 36.3265 10.7171 36.5787 10.4756 36.7704Z" fill="#CFD1DE"/>
<path d="M13.3032 32.2427V37.6973H14.1413V34.2882C14.1413 34.0207 14.1981 33.7851 14.3118 33.5815C14.4278 33.3755 14.5793 33.2145 14.7663 33.0985C14.9557 32.9825 15.1593 32.9245 15.3771 32.9245C15.6943 32.9245 15.9536 33.0204 16.1548 33.2122C16.356 33.4016 16.4566 33.6513 16.4566 33.9615V37.6973H17.3089V34.1461C17.3089 33.7934 17.4143 33.5022 17.625 33.2725C17.8357 33.0405 18.1328 32.9245 18.5163 32.9245C18.8146 32.9245 19.0738 33.0109 19.294 33.1838C19.5142 33.3566 19.6243 33.6442 19.6243 34.0467V37.6973H20.4623V34.0467C20.4623 33.4051 20.3073 32.9328 19.9971 32.6298C19.687 32.3244 19.2881 32.1717 18.8004 32.1717C18.4098 32.1717 18.0748 32.2557 17.7954 32.4238C17.5161 32.5895 17.3065 32.8133 17.1669 33.095H17.1101C16.9751 32.8038 16.7869 32.5777 16.5454 32.4167C16.3063 32.2534 16.0068 32.1717 15.647 32.1717C15.2919 32.1717 14.9877 32.2534 14.7343 32.4167C14.481 32.5777 14.2976 32.8038 14.1839 33.095H14.1129V32.2427H13.3032Z" fill="#CFD1DE"/>
<path fill-rule="evenodd" clip-rule="evenodd" d="M22.9215 37.4629C23.3026 37.6949 23.756 37.8109 24.2816 37.8109C24.6509 37.8109 24.9835 37.7541 25.2794 37.6404C25.5754 37.5244 25.8239 37.3635 26.0252 37.1575C26.2264 36.9492 26.3696 36.7077 26.4549 36.4331L25.6452 36.2058C25.5742 36.3952 25.4736 36.5538 25.3434 36.6816C25.2132 36.8071 25.0581 36.9018 24.8782 36.9657C24.7006 37.0273 24.5017 37.0581 24.2816 37.0581C23.943 37.0581 23.6459 36.9847 23.3902 36.8379C23.1346 36.6887 22.9345 36.4721 22.7901 36.188C22.6613 35.9283 22.5909 35.617 22.5789 35.2541H26.5401V34.899C26.5401 34.39 26.4726 33.9615 26.3377 33.6135C26.2027 33.2654 26.0216 32.9861 25.7944 32.7754C25.5671 32.5623 25.315 32.4084 25.038 32.3137C24.761 32.219 24.4804 32.1717 24.1963 32.1717C23.7039 32.1717 23.2731 32.2924 22.9037 32.5339C22.5368 32.773 22.2503 33.1068 22.0444 33.5353C21.8408 33.9615 21.739 34.4539 21.739 35.0126C21.739 35.5713 21.8408 36.0614 22.0444 36.4828C22.2503 36.9018 22.5427 37.2285 22.9215 37.4629ZM22.581 34.5297C22.597 34.2766 22.6608 34.0375 22.7723 33.8123C22.9025 33.5495 23.0884 33.3365 23.3299 33.1731C23.5737 33.0074 23.8625 32.9245 24.1963 32.9245C24.4994 32.9245 24.7622 32.9944 24.9847 33.1341C25.2096 33.2737 25.3824 33.4643 25.5032 33.7058C25.6263 33.9473 25.6878 34.2219 25.6878 34.5297H22.581Z" fill="#CFD1DE"/>
</svg>
