<svg width="38" height="36" viewBox="0 0 38 36" fill="none" xmlns="http://www.w3.org/2000/svg">
<path fill-rule="evenodd" clip-rule="evenodd" d="M10.9381 0.0351562C8.70691 0.0351562 6.89814 1.84392 6.89814 4.07516V18.2412C6.89814 20.4724 8.70691 22.2812 10.9381 22.2812H27.0616C29.2928 22.2812 31.1016 20.4724 31.1016 18.2412V8.02585C31.1016 5.79462 29.2928 3.98585 27.0616 3.98585H10.4122C9.85451 3.98585 9.40244 3.53378 9.40244 2.97611C9.40244 2.91056 9.39619 2.84646 9.38426 2.78439C9.75479 2.33882 10.3133 2.05516 10.9381 2.05516H28.0955C28.6533 2.05516 29.1055 1.60296 29.1055 1.04516C29.1055 0.487349 28.6533 0.0351562 28.0955 0.0351562H10.9381ZM8.91814 18.2412V5.61247C9.35903 5.86286 9.8689 6.00585 10.4122 6.00585H27.0616C28.1772 6.00585 29.0816 6.91024 29.0816 8.02585V18.2412C29.0816 19.3568 28.1772 20.2612 27.0616 20.2612H10.9381C9.82252 20.2612 8.91814 19.3568 8.91814 18.2412Z" fill="#55B3FF"/>
<path fill-rule="evenodd" clip-rule="evenodd" d="M0.783936 27.7275V35.0002H3.41178C3.98469 35.0002 4.44989 34.915 4.80737 34.7446C5.16485 34.5741 5.42645 34.3433 5.59217 34.0521C5.75789 33.7609 5.84075 33.433 5.84075 33.0684C5.84075 32.6849 5.765 32.3606 5.61348 32.0954C5.46197 31.8303 5.27376 31.6267 5.04885 31.4846C4.82395 31.3426 4.60022 31.2644 4.37769 31.2502V31.1792C4.58602 31.1224 4.77896 31.0348 4.95652 30.9164C5.13645 30.7981 5.28086 30.6371 5.38976 30.4335C5.50103 30.2299 5.55666 29.9718 5.55666 29.6593C5.55666 29.3042 5.47617 28.9811 5.31519 28.6899C5.1542 28.3963 4.90917 28.1631 4.5801 27.9903C4.25103 27.8151 3.83318 27.7275 3.32655 27.7275H0.783936ZM3.41178 34.219H1.66462V31.6906H3.45439C3.77162 31.6906 4.04625 31.7545 4.27825 31.8823C4.51026 32.0078 4.689 32.1759 4.81448 32.3866C4.93995 32.5949 5.00269 32.8222 5.00269 33.0684C5.00269 33.388 4.88076 33.6603 4.63692 33.8852C4.39544 34.1077 3.98706 34.219 3.41178 34.219ZM3.29814 30.9235H1.66462V28.5088H3.32655C3.8095 28.5088 4.16225 28.6212 4.38479 28.8461C4.60733 29.0687 4.71859 29.3397 4.71859 29.6593C4.71859 29.915 4.65467 30.1375 4.52683 30.3269C4.40136 30.5163 4.23091 30.6631 4.01547 30.7673C3.8024 30.8714 3.56329 30.9235 3.29814 30.9235Z" fill="#55B3FF"/>
<path d="M7.17421 29.5457V35.0002H8.01227V29.5457H7.17421Z" fill="#55B3FF"/>
<path d="M7.17776 28.4697C7.29613 28.581 7.43699 28.6366 7.60034 28.6366C7.76369 28.6366 7.90337 28.581 8.01938 28.4697C8.13775 28.3584 8.19693 28.2247 8.19693 28.0684C8.19693 27.9122 8.13775 27.7784 8.01938 27.6671C7.90337 27.5559 7.76369 27.5002 7.60034 27.5002C7.43699 27.5002 7.29613 27.5559 7.17776 27.6671C7.06175 27.7784 7.00375 27.9122 7.00375 28.0684C7.00375 28.2247 7.06175 28.3584 7.17776 28.4697Z" fill="#55B3FF"/>
<path d="M10.3853 35.0002V27.7275H9.54725V35.0002H10.3853Z" fill="#55B3FF"/>
<path d="M12.7584 35.0002V27.7275H11.9203V35.0002H12.7584Z" fill="#55B3FF"/>
<path fill-rule="evenodd" clip-rule="evenodd" d="M15.2202 34.7659C15.6013 34.9979 16.0547 35.1139 16.5803 35.1139C16.9496 35.1139 17.2822 35.0571 17.5781 34.9434C17.8741 34.8274 18.1227 34.6664 18.3239 34.4605C18.5251 34.2521 18.6683 34.0107 18.7536 33.736L17.9439 33.5088C17.8729 33.6982 17.7723 33.8568 17.6421 33.9846C17.5119 34.1101 17.3568 34.2048 17.1769 34.2687C16.9993 34.3303 16.8004 34.361 16.5803 34.361C16.2417 34.361 15.9446 34.2876 15.6889 34.1409C15.4333 33.9917 15.2332 33.7751 15.0888 33.491C14.96 33.2313 14.8896 32.9199 14.8776 32.5571H18.8388V32.2019C18.8388 31.6929 18.7713 31.2644 18.6364 30.9164C18.5014 30.5684 18.3203 30.2891 18.0931 30.0784C17.8658 29.8653 17.6137 29.7114 17.3367 29.6167C17.0597 29.522 16.7791 29.4747 16.4951 29.4747C16.0026 29.4747 15.5718 29.5954 15.2024 29.8369C14.8355 30.076 14.549 30.4098 14.3431 30.8383C14.1395 31.2644 14.0377 31.7569 14.0377 32.3156C14.0377 32.8743 14.1395 33.3643 14.3431 33.7857C14.549 34.2048 14.8414 34.5315 15.2202 34.7659ZM14.8797 31.8326C14.8957 31.5796 14.9595 31.3405 15.071 31.1153C15.2013 30.8525 15.3871 30.6394 15.6286 30.4761C15.8724 30.3104 16.1612 30.2275 16.4951 30.2275C16.7981 30.2275 17.0609 30.2973 17.2834 30.437C17.5083 30.5767 17.6811 30.7673 17.8019 31.0088C17.925 31.2502 17.9865 31.5249 17.9865 31.8326H14.8797Z" fill="#55B3FF"/>
<path d="M22.4858 30.2559V29.5457H21.321V28.2389H20.483V29.5457H19.6591V30.2559H20.483V33.665C20.483 33.9822 20.5564 34.245 20.7031 34.4534C20.8523 34.6617 21.0393 34.8168 21.2642 34.9186C21.4915 35.0204 21.7235 35.0713 21.9602 35.0713C22.1165 35.0713 22.2455 35.0594 22.3473 35.0357C22.4491 35.0144 22.5284 34.9931 22.5852 34.9718L22.4148 34.219L22.2727 34.2474C22.2136 34.2569 22.1378 34.2616 22.0455 34.2616C21.9224 34.2616 21.8052 34.2427 21.6939 34.2048C21.585 34.1645 21.4951 34.0864 21.424 33.9704C21.3554 33.852 21.321 33.6745 21.321 33.4377V30.2559H22.4858Z" fill="#55B3FF"/>
<path fill-rule="evenodd" clip-rule="evenodd" d="M24.6147 34.7659C24.9959 34.9979 25.4492 35.1139 25.9748 35.1139C26.3441 35.1139 26.6768 35.0571 26.9727 34.9434C27.2686 34.8274 27.5172 34.6664 27.7184 34.4605C27.9196 34.2521 28.0629 34.0107 28.1481 33.736L27.3384 33.5088C27.2674 33.6982 27.1668 33.8568 27.0366 33.9846C26.9064 34.1101 26.7513 34.2048 26.5714 34.2687C26.3938 34.3303 26.195 34.361 25.9748 34.361C25.6363 34.361 25.3392 34.2876 25.0835 34.1409C24.8278 33.9917 24.6277 33.7751 24.4833 33.491C24.3545 33.2313 24.2841 32.9199 24.2721 32.5571H28.2333V32.2019C28.2333 31.6929 28.1659 31.2644 28.0309 30.9164C27.896 30.5684 27.7149 30.2891 27.4876 30.0784C27.2603 29.8653 27.0082 29.7114 26.7312 29.6167C26.4542 29.522 26.1737 29.4747 25.8896 29.4747C25.3972 29.4747 24.9663 29.5954 24.597 29.8369C24.23 30.076 23.9436 30.4098 23.7376 30.8383C23.534 31.2644 23.4322 31.7569 23.4322 32.3156C23.4322 32.8743 23.534 33.3643 23.7376 33.7857C23.9436 34.2048 24.2359 34.5315 24.6147 34.7659ZM24.2743 31.8326C24.2902 31.5796 24.354 31.3405 24.4656 31.1153C24.5958 30.8525 24.7816 30.6394 25.0231 30.4761C25.2669 30.3104 25.5558 30.2275 25.8896 30.2275C26.1926 30.2275 26.4554 30.2973 26.6779 30.437C26.9028 30.5767 27.0757 30.7673 27.1964 31.0088C27.3195 31.2502 27.3811 31.5249 27.3811 31.8326H24.2743Z" fill="#55B3FF"/>
<path d="M29.5082 29.5457V35.0002H30.3463V31.5485C30.3463 31.3023 30.4054 31.0833 30.5238 30.8916C30.6446 30.6974 30.8079 30.5459 31.0139 30.437C31.2222 30.3258 31.4589 30.2701 31.7241 30.2701C31.8354 30.2701 31.9407 30.2784 32.0401 30.295C32.1419 30.3092 32.2071 30.3198 32.2355 30.3269V29.4747C32.1881 29.4699 32.1183 29.4664 32.0259 29.464C31.9336 29.4616 31.8567 29.4605 31.7951 29.4605C31.4684 29.4605 31.1749 29.5445 30.9144 29.7126C30.654 29.8807 30.4741 30.0997 30.3747 30.3696H30.3178V29.5457H29.5082Z" fill="#55B3FF"/>
<path fill-rule="evenodd" clip-rule="evenodd" d="M33.893 34.9328C34.1747 35.063 34.4884 35.1281 34.834 35.1281C35.1512 35.1281 35.4199 35.0807 35.6401 34.986C35.8603 34.8913 36.0367 34.7765 36.1692 34.6416C36.3018 34.5066 36.3965 34.38 36.4533 34.2616H36.4959V35.0002H37.334V31.4065C37.334 30.9732 37.263 30.6276 37.1209 30.3696C36.9789 30.1115 36.8002 29.9186 36.5847 29.7907C36.3717 29.6629 36.1503 29.5788 35.9207 29.5386C35.6934 29.496 35.4922 29.4747 35.317 29.4747C35.0423 29.4747 34.763 29.5125 34.4789 29.5883C34.1972 29.6617 33.9368 29.7919 33.6976 29.9789C33.4609 30.1636 33.2715 30.4216 33.1295 30.7531L33.9249 31.0372C34.0172 30.8383 34.177 30.6513 34.4043 30.4761C34.6316 30.3009 34.9453 30.2133 35.3454 30.2133C35.7313 30.2133 36.0189 30.3104 36.2083 30.5045C36.4001 30.6986 36.4959 30.9709 36.4959 31.3213V31.3497C36.4959 31.4846 36.4474 31.5793 36.3503 31.6338C36.2556 31.6882 36.1041 31.7273 35.8958 31.7509C35.6898 31.7723 35.4211 31.8042 35.0897 31.8468C34.8364 31.88 34.5842 31.9249 34.3333 31.9818C34.0847 32.0362 33.8574 32.1191 33.6515 32.2303C33.4455 32.3416 33.281 32.4955 33.1579 32.692C33.0348 32.8861 32.9732 33.1394 32.9732 33.4519C32.9732 33.8071 33.0561 34.1101 33.2218 34.361C33.3875 34.6096 33.6112 34.8002 33.893 34.9328ZM35.7999 34.1799C35.5726 34.3101 35.2933 34.3752 34.9618 34.3752C34.628 34.3752 34.3522 34.3018 34.1344 34.1551C33.919 34.0059 33.8113 33.7857 33.8113 33.4946C33.8113 33.2815 33.8681 33.1134 33.9817 32.9903C34.0977 32.8648 34.2493 32.7713 34.4363 32.7098C34.6257 32.6458 34.8293 32.5997 35.0471 32.5713C35.137 32.5594 35.2542 32.5452 35.3986 32.5286C35.5454 32.5097 35.6958 32.4884 35.8496 32.4647C36.0059 32.4387 36.1432 32.4091 36.2616 32.3759C36.3823 32.3404 36.4604 32.3014 36.4959 32.2588V33.0258C36.4959 33.2531 36.4368 33.4697 36.3184 33.6757C36.2024 33.8816 36.0296 34.0497 35.7999 34.1799Z" fill="#55B3FF"/>
</svg>
