<svg width="24" height="37" viewBox="0 0 24 37" fill="none" xmlns="http://www.w3.org/2000/svg">
<path fill-rule="evenodd" clip-rule="evenodd" d="M6.93201 6.49311C6.93201 3.14195 9.64866 0.425293 12.9998 0.425293C16.351 0.425293 19.0676 3.14195 19.0676 6.49311C19.0676 9.84427 16.351 12.5609 12.9998 12.5609C9.64866 12.5609 6.93201 9.84427 6.93201 6.49311ZM12.9998 2.4479C10.7657 2.4479 8.95461 4.259 8.95461 6.49311C8.95461 8.72722 10.7657 10.5383 12.9998 10.5383C15.2339 10.5383 17.045 8.72722 17.045 6.49311C17.045 4.259 15.2339 2.4479 12.9998 2.4479Z" fill="#55B3FF"/>
<path d="M12.9998 17.1118C10.6001 17.1118 8.32632 17.6449 6.7702 18.1252C5.87946 18.4002 5.22492 19.2069 5.06473 20.2367L4.89738 21.3124C4.81153 21.8643 4.29455 22.2421 3.74266 22.1563C3.19077 22.0704 2.81297 21.5534 2.89881 21.0016L3.06616 19.9258C3.32785 18.2435 4.4418 16.7272 6.17361 16.1926C7.83647 15.6793 10.3238 15.0892 12.9998 15.0892C15.6758 15.0892 18.1632 15.6793 19.826 16.1926C21.5579 16.7272 22.6718 18.2435 22.9335 19.9258L23.1008 21.0016C23.1867 21.5534 22.8089 22.0704 22.257 22.1563C21.7051 22.2421 21.1881 21.8643 21.1023 21.3124L20.9349 20.2367C20.7747 19.2069 20.1202 18.4002 19.2295 18.1252C17.6733 17.6449 15.3995 17.1118 12.9998 17.1118Z" fill="#55B3FF"/>
<path fill-rule="evenodd" clip-rule="evenodd" d="M0.619873 29.1413V36.414H1.50055V33.7577H3.09146C3.65728 33.7577 4.12129 33.6548 4.48351 33.4488C4.84573 33.2405 5.11324 32.9611 5.28607 32.6107C5.46126 32.2603 5.54885 31.8709 5.54885 31.4424C5.54885 31.0139 5.46126 30.6256 5.28607 30.2776C5.11088 29.9296 4.84099 29.6538 4.47641 29.4502C4.11419 29.2442 3.64781 29.1413 3.07726 29.1413H0.619873ZM1.50055 32.9765H3.06306C3.45368 32.9765 3.76736 32.909 4.00411 32.7741C4.24085 32.6391 4.41249 32.4568 4.51902 32.2272C4.62792 31.9952 4.68237 31.7336 4.68237 31.4424C4.68237 31.1512 4.62792 30.8908 4.51902 30.6611C4.41249 30.4315 4.23966 30.2516 4.00056 30.1214C3.76145 29.9888 3.44421 29.9225 3.04885 29.9225H1.50055V32.9765Z" fill="#55B3FF"/>
<path fill-rule="evenodd" clip-rule="evenodd" d="M7.72215 36.1796C8.1033 36.4116 8.55666 36.5276 9.08223 36.5276C9.45155 36.5276 9.78417 36.4708 10.0801 36.3572C10.376 36.2412 10.6246 36.0802 10.8258 35.8742C11.0271 35.6659 11.1703 35.4244 11.2555 35.1498L10.4459 34.9225C10.3748 35.1119 10.2742 35.2705 10.144 35.3984C10.0138 35.5238 9.85875 35.6185 9.67882 35.6825C9.50127 35.744 9.3024 35.7748 9.08223 35.7748C8.74369 35.7748 8.44658 35.7014 8.1909 35.5546C7.93521 35.4055 7.73517 35.1888 7.59075 34.9048C7.46196 34.645 7.39155 34.3337 7.37954 33.9708H11.3408V33.6157C11.3408 33.1067 11.2733 32.6782 11.1383 32.3302C11.0034 31.9822 10.8223 31.7028 10.595 31.4921C10.3677 31.279 10.1156 31.1252 9.83862 31.0305C9.56163 30.9358 9.28109 30.8884 8.997 30.8884C8.50458 30.8884 8.07371 31.0092 7.70439 31.2506C7.33744 31.4897 7.05098 31.8236 6.84502 32.2521C6.64142 32.6782 6.53962 33.1706 6.53962 33.7293C6.53962 34.288 6.64142 34.7781 6.84502 35.1995C7.05098 35.6185 7.34336 35.9452 7.72215 36.1796ZM7.38168 33.2464C7.39764 32.9934 7.46141 32.7542 7.573 32.529C7.70321 32.2663 7.88905 32.0532 8.13053 31.8898C8.37437 31.7241 8.6632 31.6413 8.997 31.6413C9.30003 31.6413 9.56282 31.7111 9.78536 31.8508C10.0103 31.9905 10.1831 32.181 10.3038 32.4225C10.4269 32.664 10.4885 32.9386 10.4885 33.2464H7.38168Z" fill="#55B3FF"/>
<path d="M12.6156 30.9594V36.414H13.4537V32.9623C13.4537 32.7161 13.5129 32.4971 13.6312 32.3053C13.752 32.1112 13.9153 31.9597 14.1213 31.8508C14.3296 31.7395 14.5664 31.6839 14.8315 31.6839C14.9428 31.6839 15.0481 31.6922 15.1476 31.7087C15.2494 31.7229 15.3145 31.7336 15.3429 31.7407V30.8884C15.2955 30.8837 15.2257 30.8801 15.1334 30.8778C15.041 30.8754 14.9641 30.8742 14.9025 30.8742C14.5758 30.8742 14.2823 30.9583 14.0219 31.1263C13.7614 31.2944 13.5815 31.5134 13.4821 31.7833H13.4253V30.9594H12.6156Z" fill="#55B3FF"/>
<path d="M19.1071 31.6697V30.9594H17.8855V30.4055C17.8855 30.1356 17.9459 29.9308 18.0666 29.7911C18.1897 29.6514 18.3898 29.5816 18.6667 29.5816C18.7875 29.5816 18.8846 29.5923 18.9579 29.6136C19.0337 29.6349 19.0929 29.6526 19.1355 29.6668L19.377 28.9424C19.3131 28.914 19.216 28.8832 19.0858 28.8501C18.9556 28.8169 18.7875 28.8004 18.5815 28.8004C18.3211 28.8004 18.0737 28.8524 17.8393 28.9566C17.605 29.0608 17.4144 29.217 17.2676 29.4254C17.1208 29.6337 17.0474 29.8941 17.0474 30.2066V30.9594H16.1667V31.6697H17.0474V36.414H17.8855V31.6697H19.1071Z" fill="#55B3FF"/>
<path d="M20.2816 30.9594V36.414H21.1197V30.9594H20.2816Z" fill="#55B3FF"/>
<path d="M20.2852 29.8834C20.4035 29.9947 20.5444 30.0504 20.7078 30.0504C20.8711 30.0504 21.0108 29.9947 21.1268 29.8834C21.2452 29.7722 21.3044 29.6384 21.3044 29.4822C21.3044 29.3259 21.2452 29.1922 21.1268 29.0809C21.0108 28.9696 20.8711 28.914 20.7078 28.914C20.5444 28.914 20.4035 28.9696 20.2852 29.0809C20.1692 29.1922 20.1112 29.3259 20.1112 29.4822C20.1112 29.6384 20.1692 29.7722 20.2852 29.8834Z" fill="#55B3FF"/>
<path d="M23.4927 36.414V29.1413H22.6547V36.414H23.4927Z" fill="#55B3FF"/>
</svg>
