<svg width="12" height="12" viewBox="0 0 12 12" fill="none" xmlns="http://www.w3.org/2000/svg">
<path fill-rule="evenodd" clip-rule="evenodd" d="M6.60185 0.851852C6.60185 0.381387 6.22046 0 5.75 0C5.27954 0 4.89815 0.381387 4.89815 0.851852V4.89815H0.851851C0.381386 4.89815 0 5.27953 0 5.75C0 6.22046 0.381386 6.60185 0.851851 6.60185H4.89815V10.6481C4.89815 11.1186 5.27954 11.5 5.75 11.5C6.22046 11.5 6.60185 11.1186 6.60185 10.6481V6.60185H10.6481C11.1186 6.60185 11.5 6.22046 11.5 5.75C11.5 5.27954 11.1186 4.89815 10.6481 4.89815H6.60185V0.851852Z" fill="white"/>
</svg>
