<svg width="24" height="37" viewBox="0 0 24 37" fill="none" xmlns="http://www.w3.org/2000/svg">
<path fill-rule="evenodd" clip-rule="evenodd" d="M6.80115 6.19282C6.80115 2.84165 9.5178 0.125 12.869 0.125C16.2201 0.125 18.9368 2.84165 18.9368 6.19282C18.9368 9.54398 16.2201 12.2606 12.869 12.2606C9.5178 12.2606 6.80115 9.54398 6.80115 6.19282ZM12.869 2.14761C10.6349 2.14761 8.82375 3.95871 8.82375 6.19282C8.82375 8.42693 10.6349 10.238 12.869 10.238C15.1031 10.238 16.9142 8.42693 16.9142 6.19282C16.9142 3.95871 15.1031 2.14761 12.869 2.14761Z" fill="#CFD1DE"/>
<path d="M12.869 16.8115C10.4577 16.8115 8.17363 17.3497 6.61719 17.8318C5.74045 18.1034 5.09543 18.8978 4.93765 19.9121L4.76653 21.0122C4.68068 21.564 4.16369 21.9418 3.6118 21.856C3.05991 21.7701 2.68211 21.2532 2.76796 20.7013L2.93908 19.6012C3.19846 17.9337 4.30304 16.4312 6.01878 15.8997C7.68186 15.3847 10.1802 14.7889 12.869 14.7889C15.5577 14.7889 18.0561 15.3847 19.7192 15.8997C21.4349 16.4312 22.5395 17.9337 22.7989 19.6012L22.97 20.7013C23.0558 21.2532 22.678 21.7701 22.1261 21.856C21.5742 21.9418 21.0573 21.564 20.9714 21.0122L20.8003 19.9121C20.6425 18.8978 19.9975 18.1034 19.1207 17.8318C17.5643 17.3497 15.2802 16.8115 12.869 16.8115Z" fill="#CFD1DE"/>
<path fill-rule="evenodd" clip-rule="evenodd" d="M0.489014 28.841V36.1137H1.3697V33.4574H2.9606C3.52642 33.4574 3.99043 33.3545 4.35265 33.1485C4.71487 32.9402 4.98239 32.6608 5.15521 32.3104C5.3304 31.9601 5.41799 31.5706 5.41799 31.1421C5.41799 30.7136 5.3304 30.3253 5.15521 29.9773C4.98002 29.6293 4.71013 29.3535 4.34555 29.1499C3.98333 28.944 3.51695 28.841 2.9464 28.841H0.489014ZM1.3697 32.6762H2.9322C3.32282 32.6762 3.6365 32.6087 3.87325 32.4738C4.10999 32.3388 4.28163 32.1565 4.38816 31.9269C4.49706 31.6949 4.55151 31.4333 4.55151 31.1421C4.55151 30.8509 4.49706 30.5905 4.38816 30.3609C4.28163 30.1312 4.10881 29.9513 3.8697 29.8211C3.63059 29.6885 3.31335 29.6222 2.91799 29.6222H1.3697V32.6762Z" fill="#CFD1DE"/>
<path fill-rule="evenodd" clip-rule="evenodd" d="M7.59129 35.8793C7.97244 36.1113 8.4258 36.2273 8.95137 36.2273C9.32069 36.2273 9.65331 36.1705 9.94924 36.0569C10.2452 35.9409 10.4937 35.7799 10.695 35.5739C10.8962 35.3656 11.0394 35.1241 11.1247 34.8495L10.315 34.6222C10.244 34.8116 10.1434 34.9702 10.0132 35.0981C9.88295 35.2235 9.72789 35.3182 9.54796 35.3822C9.37041 35.4437 9.17154 35.4745 8.95137 35.4745C8.61283 35.4745 8.31572 35.4011 8.06004 35.2543C7.80435 35.1052 7.60431 34.8886 7.45989 34.6045C7.3311 34.3447 7.26069 34.0334 7.24868 33.6705H11.2099V33.3154C11.2099 32.8064 11.1424 32.3779 11.0075 32.0299C10.8725 31.6819 10.6914 31.4025 10.4642 31.1918C10.2369 30.9788 9.98475 30.8249 9.70776 30.7302C9.43077 30.6355 9.15024 30.5881 8.86614 30.5881C8.37372 30.5881 7.94285 30.7089 7.57353 30.9503C7.20658 31.1895 6.92012 31.5233 6.71416 31.9518C6.51056 32.3779 6.40876 32.8703 6.40876 33.429C6.40876 33.9878 6.51056 34.4778 6.71416 34.8992C6.92012 35.3182 7.2125 35.6449 7.59129 35.8793ZM7.25082 32.9461C7.26678 32.6931 7.33055 32.454 7.44214 32.2288C7.57235 31.966 7.75819 31.7529 7.99967 31.5896C8.24351 31.4238 8.53234 31.341 8.86614 31.341C9.16917 31.341 9.43196 31.4108 9.6545 31.5505C9.8794 31.6902 10.0522 31.8807 10.173 32.1222C10.2961 32.3637 10.3576 32.6383 10.3576 32.9461H7.25082Z" fill="#CFD1DE"/>
<path d="M12.4848 30.6592V36.1137H13.3228V32.662C13.3228 32.4158 13.382 32.1968 13.5004 32.005C13.6211 31.8109 13.7845 31.6594 13.9904 31.5505C14.1988 31.4392 14.4355 31.3836 14.7007 31.3836C14.8119 31.3836 14.9173 31.3919 15.0167 31.4084C15.1185 31.4226 15.1836 31.4333 15.212 31.4404V30.5881C15.1647 30.5834 15.0948 30.5798 15.0025 30.5775C14.9102 30.5751 14.8332 30.5739 14.7717 30.5739C14.445 30.5739 14.1514 30.658 13.891 30.8261C13.6306 30.9941 13.4507 31.2131 13.3512 31.483H13.2944V30.6592H12.4848Z" fill="#CFD1DE"/>
<path d="M18.9762 31.3694V30.6592H17.7546V30.1052C17.7546 29.8353 17.815 29.6305 17.9357 29.4908C18.0589 29.3511 18.2589 29.2813 18.5359 29.2813C18.6566 29.2813 18.7537 29.292 18.8271 29.3133C18.9028 29.3346 18.962 29.3523 19.0046 29.3665L19.2461 28.6421C19.1822 28.6137 19.0851 28.5829 18.9549 28.5498C18.8247 28.5166 18.6566 28.5001 18.4507 28.5001C18.1902 28.5001 17.9428 28.5521 17.7085 28.6563C17.4741 28.7605 17.2835 28.9167 17.1367 29.1251C16.99 29.3334 16.9166 29.5938 16.9166 29.9063V30.6592H16.0359V31.3694H16.9166V36.1137H17.7546V31.3694H18.9762Z" fill="#CFD1DE"/>
<path d="M20.1508 30.6592V36.1137H20.9888V30.6592H20.1508Z" fill="#CFD1DE"/>
<path d="M20.1543 29.5832C20.2727 29.6944 20.4136 29.7501 20.5769 29.7501C20.7403 29.7501 20.8799 29.6944 20.9959 29.5832C21.1143 29.4719 21.1735 29.3381 21.1735 29.1819C21.1735 29.0256 21.1143 28.8919 20.9959 28.7806C20.8799 28.6693 20.7403 28.6137 20.5769 28.6137C20.4136 28.6137 20.2727 28.6693 20.1543 28.7806C20.0383 28.8919 19.9803 29.0256 19.9803 29.1819C19.9803 29.3381 20.0383 29.4719 20.1543 29.5832Z" fill="#CFD1DE"/>
<path d="M23.3619 36.1137V28.841H22.5238V36.1137H23.3619Z" fill="#CFD1DE"/>
</svg>
