<svg width="24" height="37" viewBox="0 0 24 37" fill="none" xmlns="http://www.w3.org/2000/svg">
<path fill-rule="evenodd" clip-rule="evenodd" d="M6.93201 6.07917C6.93201 2.72801 9.64866 0.0113525 12.9998 0.0113525C16.351 0.0113525 19.0676 2.72801 19.0676 6.07917C19.0676 9.43033 16.351 12.147 12.9998 12.147C9.64866 12.147 6.93201 9.43033 6.93201 6.07917ZM12.9998 2.03396C10.7657 2.03396 8.95461 3.84506 8.95461 6.07917C8.95461 8.31328 10.7657 10.1244 12.9998 10.1244C15.2339 10.1244 17.045 8.31328 17.045 6.07917C17.045 3.84506 15.2339 2.03396 12.9998 2.03396Z" fill="#CFD1DE"/>
<path d="M12.9998 16.6978C10.6001 16.6978 8.32632 17.2309 6.7702 17.7113C5.87946 17.9863 5.22492 18.7929 5.06473 19.8227L4.89738 20.8985C4.81153 21.4504 4.29455 21.8282 3.74266 21.7423C3.19077 21.6565 2.81297 21.1395 2.89881 20.5876L3.06616 19.5118C3.32785 17.8295 4.4418 16.3133 6.17361 15.7787C7.83647 15.2654 10.3238 14.6752 12.9998 14.6752C15.6758 14.6752 18.1632 15.2654 19.826 15.7787C21.5579 16.3133 22.6718 17.8295 22.9335 19.5118L23.1008 20.5876C23.1867 21.1395 22.8089 21.6565 22.257 21.7423C21.7051 21.8282 21.1881 21.4504 21.1023 20.8985L20.9349 19.8227C20.7747 18.7929 20.1202 17.9863 19.2295 17.7113C17.6733 17.2309 15.3995 16.6978 12.9998 16.6978Z" fill="#CFD1DE"/>
<path fill-rule="evenodd" clip-rule="evenodd" d="M0.619873 28.7273V36H1.50055V33.3438H3.09146C3.65728 33.3438 4.12129 33.2408 4.48351 33.0349C4.84573 32.8265 5.11324 32.5472 5.28607 32.1968C5.46126 31.8464 5.54885 31.457 5.54885 31.0285C5.54885 30.6 5.46126 30.2117 5.28607 29.8637C5.11088 29.5157 4.84099 29.2399 4.47641 29.0363C4.11419 28.8303 3.64781 28.7273 3.07726 28.7273H0.619873ZM1.50055 32.5625H3.06306C3.45368 32.5625 3.76736 32.4951 4.00411 32.3601C4.24085 32.2252 4.41249 32.0429 4.51902 31.8133C4.62792 31.5813 4.68237 31.3197 4.68237 31.0285C4.68237 30.7373 4.62792 30.4768 4.51902 30.2472C4.41249 30.0176 4.23966 29.8376 4.00056 29.7074C3.76145 29.5749 3.44421 29.5086 3.04885 29.5086H1.50055V32.5625Z" fill="#CFD1DE"/>
<path fill-rule="evenodd" clip-rule="evenodd" d="M7.72215 35.7657C8.1033 35.9977 8.55666 36.1137 9.08223 36.1137C9.45155 36.1137 9.78417 36.0569 10.0801 35.9432C10.376 35.8272 10.6246 35.6662 10.8258 35.4603C11.0271 35.2519 11.1703 35.0105 11.2555 34.7358L10.4459 34.5086C10.3748 34.698 10.2742 34.8566 10.144 34.9844C10.0138 35.1099 9.85875 35.2046 9.67882 35.2685C9.50127 35.3301 9.3024 35.3608 9.08223 35.3608C8.74369 35.3608 8.44658 35.2875 8.1909 35.1407C7.93521 34.9915 7.73517 34.7749 7.59075 34.4908C7.46196 34.2311 7.39155 33.9198 7.37954 33.5569H11.3408V33.2018C11.3408 32.6928 11.2733 32.2643 11.1383 31.9162C11.0034 31.5682 10.8223 31.2889 10.595 31.0782C10.3677 30.8651 10.1156 30.7112 9.83862 30.6165C9.56163 30.5218 9.28109 30.4745 8.997 30.4745C8.50458 30.4745 8.07371 30.5952 7.70439 30.8367C7.33744 31.0758 7.05098 31.4096 6.84502 31.8381C6.64142 32.2643 6.53962 32.7567 6.53962 33.3154C6.53962 33.8741 6.64142 34.3642 6.84502 34.7856C7.05098 35.2046 7.34336 35.5313 7.72215 35.7657ZM7.38168 32.8324C7.39764 32.5794 7.46141 32.3403 7.573 32.1151C7.70321 31.8523 7.88905 31.6393 8.13053 31.4759C8.37437 31.3102 8.6632 31.2273 8.997 31.2273C9.30003 31.2273 9.56282 31.2972 9.78536 31.4368C10.0103 31.5765 10.1831 31.7671 10.3038 32.0086C10.4269 32.25 10.4885 32.5247 10.4885 32.8324H7.38168Z" fill="#CFD1DE"/>
<path d="M12.6156 30.5455V36H13.4537V32.5483C13.4537 32.3021 13.5129 32.0831 13.6312 31.8914C13.752 31.6973 13.9153 31.5457 14.1213 31.4368C14.3296 31.3256 14.5664 31.2699 14.8315 31.2699C14.9428 31.2699 15.0481 31.2782 15.1476 31.2948C15.2494 31.309 15.3145 31.3197 15.3429 31.3268V30.4745C15.2955 30.4697 15.2257 30.4662 15.1334 30.4638C15.041 30.4615 14.9641 30.4603 14.9025 30.4603C14.5758 30.4603 14.2823 30.5443 14.0219 30.7124C13.7614 30.8805 13.5815 31.0995 13.4821 31.3694H13.4253V30.5455H12.6156Z" fill="#CFD1DE"/>
<path d="M19.1071 31.2557V30.5455H17.8855V29.9915C17.8855 29.7216 17.9459 29.5169 18.0666 29.3772C18.1897 29.2375 18.3898 29.1677 18.6667 29.1677C18.7875 29.1677 18.8846 29.1783 18.9579 29.1996C19.0337 29.2209 19.0929 29.2387 19.1355 29.2529L19.377 28.5285C19.3131 28.5 19.216 28.4693 19.0858 28.4361C18.9556 28.403 18.7875 28.3864 18.5815 28.3864C18.3211 28.3864 18.0737 28.4385 17.8393 28.5427C17.605 28.6468 17.4144 28.8031 17.2676 29.0114C17.1208 29.2197 17.0474 29.4802 17.0474 29.7927V30.5455H16.1667V31.2557H17.0474V36H17.8855V31.2557H19.1071Z" fill="#CFD1DE"/>
<path d="M20.2816 30.5455V36H21.1197V30.5455H20.2816Z" fill="#CFD1DE"/>
<path d="M20.2852 29.4695C20.4035 29.5808 20.5444 29.6364 20.7078 29.6364C20.8711 29.6364 21.0108 29.5808 21.1268 29.4695C21.2452 29.3582 21.3044 29.2245 21.3044 29.0682C21.3044 28.912 21.2452 28.7782 21.1268 28.667C21.0108 28.5557 20.8711 28.5 20.7078 28.5C20.5444 28.5 20.4035 28.5557 20.2852 28.667C20.1692 28.7782 20.1112 28.912 20.1112 29.0682C20.1112 29.2245 20.1692 29.3582 20.2852 29.4695Z" fill="#CFD1DE"/>
<path d="M23.4927 36V28.7273H22.6547V36H23.4927Z" fill="#CFD1DE"/>
</svg>
