<svg width="24" height="37" viewBox="0 0 24 37" fill="none" xmlns="http://www.w3.org/2000/svg">
<path fill-rule="evenodd" clip-rule="evenodd" d="M6.60004 6.07911C6.60004 2.72795 9.31669 0.0112915 12.6679 0.0112915C16.019 0.0112915 18.7357 2.72795 18.7357 6.07911C18.7357 9.43027 16.019 12.1469 12.6679 12.1469C9.31669 12.1469 6.60004 9.43027 6.60004 6.07911ZM12.6679 2.0339C10.4337 2.0339 8.62264 3.845 8.62264 6.07911C8.62264 8.31322 10.4337 10.1243 12.6679 10.1243C14.902 10.1243 16.7131 8.31322 16.7131 6.07911C16.7131 3.845 14.902 2.0339 12.6679 2.0339Z" fill="#55B3FF"/>
<path d="M12.6679 16.6978C10.2682 16.6978 7.99435 17.2309 6.43823 17.7112C5.54749 17.9862 4.89295 18.7929 4.73276 19.8227L4.56541 20.8984C4.47956 21.4503 3.96257 21.8281 3.41069 21.7423C2.8588 21.6564 2.48099 21.1394 2.56684 20.5876L2.73419 19.5118C2.99588 17.8295 4.10983 16.3132 5.84164 15.7786C7.5045 15.2653 9.99186 14.6752 12.6679 14.6752C15.3439 14.6752 17.8312 15.2653 19.4941 15.7786C21.2259 16.3132 22.3398 17.8295 22.6015 19.5118L22.7689 20.5876C22.8547 21.1394 22.4769 21.6564 21.925 21.7423C21.3731 21.8281 20.8561 21.4503 20.7703 20.8984L20.603 19.8227C20.4428 18.7929 19.7882 17.9862 18.8975 17.7112C17.3414 17.2309 15.0675 16.6978 12.6679 16.6978Z" fill="#55B3FF"/>
<path fill-rule="evenodd" clip-rule="evenodd" d="M0.287903 28.7273V36H1.16858V33.3437H2.75949C3.32531 33.3437 3.78932 33.2408 4.15154 33.0348C4.51376 32.8265 4.78127 32.5471 4.9541 32.1967C5.12929 31.8463 5.21688 31.4569 5.21688 31.0284C5.21688 30.5999 5.12929 30.2116 4.9541 29.8636C4.77891 29.5156 4.50902 29.2398 4.14444 29.0362C3.78222 28.8302 3.31584 28.7273 2.74529 28.7273H0.287903ZM1.16858 32.5625H2.73108C3.12171 32.5625 3.43539 32.495 3.67214 32.3601C3.90888 32.2251 4.08052 32.0428 4.18705 31.8132C4.29595 31.5812 4.3504 31.3196 4.3504 31.0284C4.3504 30.7372 4.29595 30.4768 4.18705 30.2471C4.08052 30.0175 3.90769 29.8376 3.66858 29.7074C3.42948 29.5748 3.11224 29.5085 2.71688 29.5085H1.16858V32.5625Z" fill="#55B3FF"/>
<path fill-rule="evenodd" clip-rule="evenodd" d="M7.39018 35.7656C7.77133 35.9976 8.22469 36.1136 8.75026 36.1136C9.11958 36.1136 9.4522 36.0568 9.74813 35.9432C10.0441 35.8272 10.2926 35.6662 10.4939 35.4602C10.6951 35.2519 10.8383 35.0104 10.9236 34.7358L10.1139 34.5085C10.0429 34.6979 9.94226 34.8565 9.81205 34.9844C9.68184 35.1098 9.52678 35.2045 9.34685 35.2685C9.1693 35.33 8.97043 35.3608 8.75026 35.3608C8.41172 35.3608 8.11461 35.2874 7.85893 35.1406C7.60324 34.9915 7.4032 34.7748 7.25878 34.4908C7.12999 34.231 7.05958 33.9197 7.04757 33.5568H11.0088V33.2017C11.0088 32.6927 10.9413 32.2642 10.8064 31.9162C10.6714 31.5682 10.4903 31.2888 10.263 31.0781C10.0358 30.865 9.78364 30.7112 9.50665 30.6165C9.22966 30.5218 8.94912 30.4744 8.66503 30.4744C8.17261 30.4744 7.74174 30.5952 7.37242 30.8366C7.00547 31.0757 6.71901 31.4096 6.51304 31.8381C6.30945 32.2642 6.20765 32.7566 6.20765 33.3153C6.20765 33.874 6.30945 34.3641 6.51304 34.7855C6.71901 35.2045 7.01139 35.5312 7.39018 35.7656ZM7.04971 32.8324C7.06567 32.5794 7.12944 32.3402 7.24103 32.115C7.37124 31.8523 7.55708 31.6392 7.79856 31.4758C8.0424 31.3101 8.33123 31.2273 8.66503 31.2273C8.96806 31.2273 9.23085 31.2971 9.45339 31.4368C9.67829 31.5765 9.85111 31.767 9.97185 32.0085C10.095 32.25 10.1565 32.5246 10.1565 32.8324H7.04971Z" fill="#55B3FF"/>
<path d="M12.2836 30.5454V36H13.1217V32.5483C13.1217 32.3021 13.1809 32.0831 13.2993 31.8913C13.42 31.6972 13.5834 31.5457 13.7893 31.4368C13.9977 31.3255 14.2344 31.2699 14.4996 31.2699C14.6108 31.2699 14.7162 31.2782 14.8156 31.2947C14.9174 31.3089 14.9825 31.3196 15.0109 31.3267V30.4744C14.9636 30.4697 14.8937 30.4661 14.8014 30.4638C14.7091 30.4614 14.6321 30.4602 14.5706 30.4602C14.2439 30.4602 13.9503 30.5443 13.6899 30.7123C13.4295 30.8804 13.2496 31.0994 13.1501 31.3693H13.0933V30.5454H12.2836Z" fill="#55B3FF"/>
<path d="M18.7751 31.2557V30.5454H17.5535V29.9915C17.5535 29.7216 17.6139 29.5168 17.7346 29.3771C17.8577 29.2374 18.0578 29.1676 18.3348 29.1676C18.4555 29.1676 18.5526 29.1783 18.626 29.1996C18.7017 29.2209 18.7609 29.2386 18.8035 29.2528L19.045 28.5284C18.9811 28.5 18.884 28.4692 18.7538 28.4361C18.6236 28.4029 18.4555 28.3864 18.2495 28.3864C17.9891 28.3864 17.7417 28.4384 17.5074 28.5426C17.273 28.6468 17.0824 28.803 16.9356 29.0114C16.7888 29.2197 16.7155 29.4801 16.7155 29.7926V30.5454H15.8348V31.2557H16.7155V36H17.5535V31.2557H18.7751Z" fill="#55B3FF"/>
<path d="M19.9497 30.5454V36H20.7877V30.5454H19.9497Z" fill="#55B3FF"/>
<path d="M19.9532 29.4694C20.0716 29.5807 20.2124 29.6364 20.3758 29.6364C20.5391 29.6364 20.6788 29.5807 20.7948 29.4694C20.9132 29.3582 20.9724 29.2244 20.9724 29.0682C20.9724 28.9119 20.9132 28.7782 20.7948 28.6669C20.6788 28.5556 20.5391 28.5 20.3758 28.5C20.2124 28.5 20.0716 28.5556 19.9532 28.6669C19.8372 28.7782 19.7792 28.9119 19.7792 29.0682C19.7792 29.2244 19.8372 29.3582 19.9532 29.4694Z" fill="#55B3FF"/>
<path d="M23.1608 36V28.7273H22.3227V36H23.1608Z" fill="#55B3FF"/>
</svg>
