<svg width="28" height="38" viewBox="0 0 28 38" fill="none" xmlns="http://www.w3.org/2000/svg">
<path fill-rule="evenodd" clip-rule="evenodd" d="M14.5995 0.894227C14.2429 0.631612 13.7569 0.631612 13.4002 0.894227L4.52216 7.43172C3.48681 8.19412 2.87556 9.40331 2.87556 10.6891V21.429C2.87556 23.3838 4.46027 24.9685 6.41512 24.9685H9.95468C11.0717 24.9685 11.9773 24.063 11.9773 22.9459V17.3838H16.0225V22.9459C16.0225 24.063 16.928 24.9685 18.0451 24.9685H21.5847C23.5395 24.9685 25.1242 23.3838 25.1242 21.429V10.6891C25.1242 9.40331 24.513 8.19411 23.4776 7.43172L14.5995 0.894227ZM5.72147 9.0604L13.9999 2.96447L22.2783 9.0604C22.796 9.4416 23.1016 10.0462 23.1016 10.6891V21.429C23.1016 22.2668 22.4224 22.9459 21.5847 22.9459H18.0451V16.8781C18.0451 16.0403 17.3659 15.3612 16.5281 15.3612H11.4716C10.6338 15.3612 9.95468 16.0403 9.95468 16.8781V22.9459H6.41512C5.57733 22.9459 4.89816 22.2668 4.89816 21.429V10.6891C4.89816 10.0462 5.20379 9.4416 5.72147 9.0604Z" fill="#CFD1DE"/>
<path d="M0.940247 30.4245V37.6973H1.82093V34.4444H5.69877V37.6973H6.57945V30.4245H5.69877V33.6632H1.82093V30.4245H0.940247Z" fill="#CFD1DE"/>
<path fill-rule="evenodd" clip-rule="evenodd" d="M9.1487 37.4593C9.52039 37.6937 9.95244 37.8109 10.4449 37.8109C10.9373 37.8109 11.3682 37.6937 11.7375 37.4593C12.1092 37.225 12.398 36.8971 12.604 36.4757C12.8123 36.0543 12.9165 35.5618 12.9165 34.9984C12.9165 34.4302 12.8123 33.9342 12.604 33.5105C12.398 33.0867 12.1092 32.7576 11.7375 32.5233C11.3682 32.2889 10.9373 32.1717 10.4449 32.1717C9.95244 32.1717 9.52039 32.2889 9.1487 32.5233C8.77938 32.7576 8.49056 33.0867 8.28222 33.5105C8.07626 33.9342 7.97327 34.4302 7.97327 34.9984C7.97327 35.5618 8.07626 36.0543 8.28222 36.4757C8.49056 36.8971 8.77938 37.225 9.1487 37.4593ZM11.3682 36.7704C11.1267 36.9622 10.8189 37.0581 10.4449 37.0581C10.0708 37.0581 9.76305 36.9622 9.52157 36.7704C9.28009 36.5787 9.10135 36.3265 8.98535 36.014C8.86934 35.7015 8.81134 35.363 8.81134 34.9984C8.81134 34.6338 8.86934 34.2941 8.98535 33.9792C9.10135 33.6644 9.28009 33.4099 9.52157 33.2157C9.76305 33.0216 10.0708 32.9245 10.4449 32.9245C10.8189 32.9245 11.1267 33.0216 11.3682 33.2157C11.6096 33.4099 11.7884 33.6644 11.9044 33.9792C12.0204 34.2941 12.0784 34.6338 12.0784 34.9984C12.0784 35.363 12.0204 35.7015 11.9044 36.014C11.7884 36.3265 11.6096 36.5787 11.3682 36.7704Z" fill="#CFD1DE"/>
<path d="M14.1958 32.2427V37.6973H15.0338V34.2882C15.0338 34.0207 15.0906 33.7851 15.2043 33.5815C15.3203 33.3755 15.4718 33.2145 15.6588 33.0985C15.8482 32.9825 16.0518 32.9245 16.2696 32.9245C16.5869 32.9245 16.8461 33.0204 17.0473 33.2122C17.2485 33.4016 17.3492 33.6513 17.3492 33.9615V37.6973H18.2014V34.1461C18.2014 33.7934 18.3068 33.5022 18.5175 33.2725C18.7282 33.0405 19.0253 32.9245 19.4088 32.9245C19.7071 32.9245 19.9663 33.0109 20.1865 33.1838C20.4067 33.3566 20.5168 33.6442 20.5168 34.0467V37.6973H21.3548V34.0467C21.3548 33.4051 21.1998 32.9328 20.8896 32.6298C20.5795 32.3244 20.1806 32.1717 19.6929 32.1717C19.3023 32.1717 18.9673 32.2557 18.6879 32.4238C18.4086 32.5895 18.1991 32.8133 18.0594 33.095H18.0026C17.8676 32.8038 17.6794 32.5777 17.4379 32.4167C17.1988 32.2534 16.8994 32.1717 16.5395 32.1717C16.1844 32.1717 15.8802 32.2534 15.6269 32.4167C15.3735 32.5777 15.1901 32.8038 15.0764 33.095H15.0054V32.2427H14.1958Z" fill="#CFD1DE"/>
<path fill-rule="evenodd" clip-rule="evenodd" d="M23.814 37.4629C24.1952 37.6949 24.6485 37.8109 25.1741 37.8109C25.5434 37.8109 25.876 37.7541 26.172 37.6404C26.4679 37.5244 26.7165 37.3635 26.9177 37.1575C27.1189 36.9492 27.2622 36.7077 27.3474 36.4331L26.5377 36.2058C26.4667 36.3952 26.3661 36.5538 26.2359 36.6816C26.1057 36.8071 25.9506 36.9018 25.7707 36.9657C25.5931 37.0273 25.3943 37.0581 25.1741 37.0581C24.8355 37.0581 24.5384 36.9847 24.2828 36.8379C24.0271 36.6887 23.827 36.4721 23.6826 36.188C23.5538 35.9283 23.4834 35.617 23.4714 35.2541H27.4326V34.899C27.4326 34.39 27.3651 33.9615 27.2302 33.6135C27.0953 33.2654 26.9141 32.9861 26.6869 32.7754C26.4596 32.5623 26.2075 32.4084 25.9305 32.3137C25.6535 32.219 25.373 32.1717 25.0889 32.1717C24.5964 32.1717 24.1656 32.2924 23.7962 32.5339C23.4293 32.773 23.1428 33.1068 22.9369 33.5353C22.7333 33.9615 22.6315 34.4539 22.6315 35.0126C22.6315 35.5713 22.7333 36.0614 22.9369 36.4828C23.1428 36.9018 23.4352 37.2285 23.814 37.4629ZM23.4735 34.5297C23.4895 34.2766 23.5533 34.0375 23.6649 33.8123C23.7951 33.5495 23.9809 33.3365 24.2224 33.1731C24.4662 33.0074 24.7551 32.9245 25.0889 32.9245C25.3919 32.9245 25.6547 32.9944 25.8772 33.1341C26.1021 33.2737 26.2749 33.4643 26.3957 33.7058C26.5188 33.9473 26.5803 34.2219 26.5803 34.5297H23.4735Z" fill="#CFD1DE"/>
</svg>
