<svg width="24" height="37" viewBox="0 0 24 37" fill="none" xmlns="http://www.w3.org/2000/svg">
<path fill-rule="evenodd" clip-rule="evenodd" d="M7.11078 6.07911C7.11078 2.72795 9.82743 0.0112915 13.1786 0.0112915C16.5298 0.0112915 19.2464 2.72795 19.2464 6.07911C19.2464 9.43027 16.5298 12.1469 13.1786 12.1469C9.82743 12.1469 7.11078 9.43027 7.11078 6.07911ZM13.1786 2.0339C10.9445 2.0339 9.13339 3.845 9.13339 6.07911C9.13339 8.31322 10.9445 10.1243 13.1786 10.1243C15.4127 10.1243 17.2238 8.31322 17.2238 6.07911C17.2238 3.845 15.4127 2.0339 13.1786 2.0339Z" fill="#55B3FF"/>
<path d="M13.1786 16.6978C10.7789 16.6978 8.50509 17.2309 6.94897 17.7112C6.05823 17.9862 5.40369 18.7929 5.2435 19.8227L5.07616 20.8984C4.99031 21.4503 4.47332 21.8281 3.92143 21.7423C3.36954 21.6564 2.99174 21.1394 3.07759 20.5876L3.24493 19.5118C3.50662 17.8295 4.62057 16.3132 6.35238 15.7786C8.01524 15.2653 10.5026 14.6752 13.1786 14.6752C15.8546 14.6752 18.342 15.2653 20.0048 15.7786C21.7366 16.3132 22.8506 17.8295 23.1123 19.5118L23.2796 20.5876C23.3655 21.1394 22.9877 21.6564 22.4358 21.7423C21.8839 21.8281 21.3669 21.4503 21.281 20.8984L21.1137 19.8227C20.9535 18.7929 20.299 17.9862 19.4082 17.7112C17.8521 17.2309 15.5783 16.6978 13.1786 16.6978Z" fill="#55B3FF"/>
<path fill-rule="evenodd" clip-rule="evenodd" d="M0.798645 28.7273V36H1.67933V33.3437H3.27024C3.83605 33.3437 4.30007 33.2408 4.66228 33.0348C5.0245 32.8265 5.29202 32.5471 5.46484 32.1967C5.64003 31.8463 5.72762 31.4569 5.72762 31.0284C5.72762 30.5999 5.64003 30.2116 5.46484 29.8636C5.28965 29.5156 5.01976 29.2398 4.65518 29.0362C4.29296 28.8302 3.82658 28.7273 3.25603 28.7273H0.798645ZM1.67933 32.5625H3.24183C3.63245 32.5625 3.94614 32.495 4.18288 32.3601C4.41962 32.2251 4.59126 32.0428 4.69779 31.8132C4.80669 31.5812 4.86115 31.3196 4.86115 31.0284C4.86115 30.7372 4.80669 30.4768 4.69779 30.2471C4.59126 30.0175 4.41844 29.8376 4.17933 29.7074C3.94022 29.5748 3.62298 29.5085 3.22762 29.5085H1.67933V32.5625Z" fill="#55B3FF"/>
<path fill-rule="evenodd" clip-rule="evenodd" d="M7.90092 35.7656C8.28207 35.9976 8.73543 36.1136 9.261 36.1136C9.63032 36.1136 9.96294 36.0568 10.2589 35.9432C10.5548 35.8272 10.8034 35.6662 11.0046 35.4602C11.2058 35.2519 11.3491 35.0104 11.4343 34.7358L10.6246 34.5085C10.5536 34.6979 10.453 34.8565 10.3228 34.9844C10.1926 35.1098 10.0375 35.2045 9.85759 35.2685C9.68004 35.33 9.48117 35.3608 9.261 35.3608C8.92246 35.3608 8.62535 35.2874 8.36967 35.1406C8.11399 34.9915 7.91394 34.7748 7.76953 34.4908C7.64073 34.231 7.57033 33.9197 7.55831 33.5568H11.5195V33.2017C11.5195 32.6927 11.4521 32.2642 11.3171 31.9162C11.1822 31.5682 11.0011 31.2888 10.7738 31.0781C10.5465 30.865 10.2944 30.7112 10.0174 30.6165C9.74041 30.5218 9.45987 30.4744 9.17578 30.4744C8.68335 30.4744 8.25248 30.5952 7.88316 30.8366C7.51621 31.0757 7.22975 31.4096 7.02379 31.8381C6.82019 32.2642 6.71839 32.7566 6.71839 33.3153C6.71839 33.874 6.82019 34.3641 7.02379 34.7855C7.22975 35.2045 7.52213 35.5312 7.90092 35.7656ZM7.56045 32.8324C7.57641 32.5794 7.64018 32.3402 7.75177 32.115C7.88198 31.8523 8.06782 31.6392 8.3093 31.4758C8.55314 31.3101 8.84197 31.2273 9.17578 31.2273C9.47881 31.2273 9.74159 31.2971 9.96413 31.4368C10.189 31.5765 10.3619 31.767 10.4826 32.0085C10.6057 32.25 10.6673 32.5246 10.6673 32.8324H7.56045Z" fill="#55B3FF"/>
<path d="M12.7944 30.5454V36H13.6325V32.5483C13.6325 32.3021 13.6916 32.0831 13.81 31.8913C13.9307 31.6972 14.0941 31.5457 14.3001 31.4368C14.5084 31.3255 14.7451 31.2699 15.0103 31.2699C15.1216 31.2699 15.2269 31.2782 15.3263 31.2947C15.4281 31.3089 15.4932 31.3196 15.5217 31.3267V30.4744C15.4743 30.4697 15.4045 30.4661 15.3121 30.4638C15.2198 30.4614 15.1429 30.4602 15.0813 30.4602C14.7546 30.4602 14.4611 30.5443 14.2006 30.7123C13.9402 30.8804 13.7603 31.0994 13.6609 31.3693H13.604V30.5454H12.7944Z" fill="#55B3FF"/>
<path d="M19.2859 31.2557V30.5454H18.0643V29.9915C18.0643 29.7216 18.1246 29.5168 18.2454 29.3771C18.3685 29.2374 18.5685 29.1676 18.8455 29.1676C18.9663 29.1676 19.0633 29.1783 19.1367 29.1996C19.2125 29.2209 19.2717 29.2386 19.3143 29.2528L19.5557 28.5284C19.4918 28.5 19.3948 28.4692 19.2646 28.4361C19.1343 28.4029 18.9663 28.3864 18.7603 28.3864C18.4999 28.3864 18.2525 28.4384 18.0181 28.5426C17.7837 28.6468 17.5932 28.803 17.4464 29.0114C17.2996 29.2197 17.2262 29.4801 17.2262 29.7926V30.5454H16.3455V31.2557H17.2262V36H18.0643V31.2557H19.2859Z" fill="#55B3FF"/>
<path d="M20.4604 30.5454V36H21.2985V30.5454H20.4604Z" fill="#55B3FF"/>
<path d="M20.464 29.4694C20.5823 29.5807 20.7232 29.6364 20.8865 29.6364C21.0499 29.6364 21.1896 29.5807 21.3056 29.4694C21.4239 29.3582 21.4831 29.2244 21.4831 29.0682C21.4831 28.9119 21.4239 28.7782 21.3056 28.6669C21.1896 28.5556 21.0499 28.5 20.8865 28.5C20.7232 28.5 20.5823 28.5556 20.464 28.6669C20.3479 28.7782 20.2899 28.9119 20.2899 29.0682C20.2899 29.2244 20.3479 29.3582 20.464 29.4694Z" fill="#55B3FF"/>
<path d="M23.6715 36V28.7273H22.8334V36H23.6715Z" fill="#55B3FF"/>
</svg>
