<svg width="38" height="36" viewBox="0 0 38 36" fill="none" xmlns="http://www.w3.org/2000/svg">
<path fill-rule="evenodd" clip-rule="evenodd" d="M10.9381 0.0349121C8.70691 0.0349121 6.89814 1.84368 6.89814 4.07491V18.241C6.89814 20.4722 8.70691 22.281 10.9381 22.281H27.0616C29.2928 22.281 31.1016 20.4722 31.1016 18.241V8.02561C31.1016 5.79437 29.2928 3.98561 27.0616 3.98561H10.4122C9.85451 3.98561 9.40244 3.53353 9.40244 2.97587C9.40244 2.91031 9.39619 2.84622 9.38426 2.78414C9.75479 2.33858 10.3133 2.05491 10.9381 2.05491H28.0955C28.6533 2.05491 29.1055 1.60272 29.1055 1.04491C29.1055 0.487105 28.6533 0.0349121 28.0955 0.0349121H10.9381ZM8.91814 18.241V5.61222C9.35903 5.86262 9.8689 6.00561 10.4122 6.00561H27.0616C28.1772 6.00561 29.0816 6.90999 29.0816 8.02561V18.241C29.0816 19.3566 28.1772 20.261 27.0616 20.261H10.9381C9.82252 20.261 8.91814 19.3566 8.91814 18.241Z" fill="#55B3FF"/>
<path fill-rule="evenodd" clip-rule="evenodd" d="M0.783936 27.7273V35H3.41178C3.98469 35 4.44989 34.9148 4.80737 34.7443C5.16485 34.5739 5.42645 34.343 5.59217 34.0518C5.75789 33.7606 5.84075 33.4328 5.84075 33.0682C5.84075 32.6847 5.765 32.3603 5.61348 32.0952C5.46197 31.83 5.27376 31.6264 5.04885 31.4844C4.82395 31.3423 4.60022 31.2642 4.37769 31.25V31.179C4.58602 31.1222 4.77896 31.0346 4.95652 30.9162C5.13645 30.7978 5.28086 30.6368 5.38976 30.4332C5.50103 30.2296 5.55666 29.9716 5.55666 29.6591C5.55666 29.304 5.47617 28.9808 5.31519 28.6896C5.1542 28.3961 4.90917 28.1629 4.5801 27.99C4.25103 27.8149 3.83318 27.7273 3.32655 27.7273H0.783936ZM3.41178 34.2187H1.66462V31.6903H3.45439C3.77162 31.6903 4.04625 31.7543 4.27825 31.8821C4.51026 32.0076 4.689 32.1757 4.81448 32.3864C4.93995 32.5947 5.00269 32.822 5.00269 33.0682C5.00269 33.3878 4.88076 33.66 4.63692 33.8849C4.39544 34.1075 3.98706 34.2187 3.41178 34.2187ZM3.29814 30.9233H1.66462V28.5085H3.32655C3.8095 28.5085 4.16225 28.621 4.38479 28.8459C4.60733 29.0684 4.71859 29.3395 4.71859 29.6591C4.71859 29.9148 4.65467 30.1373 4.52683 30.3267C4.40136 30.5161 4.23091 30.6629 4.01547 30.767C3.8024 30.8712 3.56329 30.9233 3.29814 30.9233Z" fill="#55B3FF"/>
<path d="M7.17421 29.5454V35H8.01227V29.5454H7.17421Z" fill="#55B3FF"/>
<path d="M7.17776 28.4694C7.29613 28.5807 7.43699 28.6364 7.60034 28.6364C7.76369 28.6364 7.90337 28.5807 8.01938 28.4694C8.13775 28.3582 8.19693 28.2244 8.19693 28.0682C8.19693 27.9119 8.13775 27.7782 8.01938 27.6669C7.90337 27.5556 7.76369 27.5 7.60034 27.5C7.43699 27.5 7.29613 27.5556 7.17776 27.6669C7.06175 27.7782 7.00375 27.9119 7.00375 28.0682C7.00375 28.2244 7.06175 28.3582 7.17776 28.4694Z" fill="#55B3FF"/>
<path d="M10.3853 35V27.7273H9.54725V35H10.3853Z" fill="#55B3FF"/>
<path d="M12.7584 35V27.7273H11.9203V35H12.7584Z" fill="#55B3FF"/>
<path fill-rule="evenodd" clip-rule="evenodd" d="M15.2202 34.7656C15.6013 34.9976 16.0547 35.1136 16.5803 35.1136C16.9496 35.1136 17.2822 35.0568 17.5781 34.9432C17.8741 34.8272 18.1227 34.6662 18.3239 34.4602C18.5251 34.2519 18.6683 34.0104 18.7536 33.7358L17.9439 33.5085C17.8729 33.6979 17.7723 33.8565 17.6421 33.9844C17.5119 34.1098 17.3568 34.2045 17.1769 34.2685C16.9993 34.33 16.8004 34.3608 16.5803 34.3608C16.2417 34.3608 15.9446 34.2874 15.6889 34.1406C15.4333 33.9915 15.2332 33.7748 15.0888 33.4908C14.96 33.231 14.8896 32.9197 14.8776 32.5568H18.8388V32.2017C18.8388 31.6927 18.7713 31.2642 18.6364 30.9162C18.5014 30.5682 18.3203 30.2888 18.0931 30.0781C17.8658 29.865 17.6137 29.7112 17.3367 29.6165C17.0597 29.5218 16.7791 29.4744 16.4951 29.4744C16.0026 29.4744 15.5718 29.5952 15.2024 29.8366C14.8355 30.0757 14.549 30.4096 14.3431 30.8381C14.1395 31.2642 14.0377 31.7566 14.0377 32.3153C14.0377 32.874 14.1395 33.3641 14.3431 33.7855C14.549 34.2045 14.8414 34.5312 15.2202 34.7656ZM14.8797 31.8324C14.8957 31.5794 14.9595 31.3402 15.071 31.115C15.2013 30.8523 15.3871 30.6392 15.6286 30.4758C15.8724 30.3101 16.1612 30.2273 16.4951 30.2273C16.7981 30.2273 17.0609 30.2971 17.2834 30.4368C17.5083 30.5765 17.6811 30.767 17.8019 31.0085C17.925 31.25 17.9865 31.5246 17.9865 31.8324H14.8797Z" fill="#55B3FF"/>
<path d="M22.4858 30.2557V29.5454H21.321V28.2386H20.483V29.5454H19.6591V30.2557H20.483V33.6648C20.483 33.982 20.5564 34.2448 20.7031 34.4531C20.8523 34.6614 21.0393 34.8165 21.2642 34.9183C21.4915 35.0201 21.7235 35.071 21.9602 35.071C22.1165 35.071 22.2455 35.0592 22.3473 35.0355C22.4491 35.0142 22.5284 34.9929 22.5852 34.9716L22.4148 34.2187L22.2727 34.2472C22.2136 34.2566 22.1378 34.2614 22.0455 34.2614C21.9224 34.2614 21.8052 34.2424 21.6939 34.2045C21.585 34.1643 21.4951 34.0862 21.424 33.9702C21.3554 33.8518 21.321 33.6742 21.321 33.4375V30.2557H22.4858Z" fill="#55B3FF"/>
<path fill-rule="evenodd" clip-rule="evenodd" d="M24.6147 34.7656C24.9959 34.9976 25.4492 35.1136 25.9748 35.1136C26.3441 35.1136 26.6768 35.0568 26.9727 34.9432C27.2686 34.8272 27.5172 34.6662 27.7184 34.4602C27.9196 34.2519 28.0629 34.0104 28.1481 33.7358L27.3384 33.5085C27.2674 33.6979 27.1668 33.8565 27.0366 33.9844C26.9064 34.1098 26.7513 34.2045 26.5714 34.2685C26.3938 34.33 26.195 34.3608 25.9748 34.3608C25.6363 34.3608 25.3392 34.2874 25.0835 34.1406C24.8278 33.9915 24.6277 33.7748 24.4833 33.4908C24.3545 33.231 24.2841 32.9197 24.2721 32.5568H28.2333V32.2017C28.2333 31.6927 28.1659 31.2642 28.0309 30.9162C27.896 30.5682 27.7149 30.2888 27.4876 30.0781C27.2603 29.865 27.0082 29.7112 26.7312 29.6165C26.4542 29.5218 26.1737 29.4744 25.8896 29.4744C25.3972 29.4744 24.9663 29.5952 24.597 29.8366C24.23 30.0757 23.9436 30.4096 23.7376 30.8381C23.534 31.2642 23.4322 31.7566 23.4322 32.3153C23.4322 32.874 23.534 33.3641 23.7376 33.7855C23.9436 34.2045 24.2359 34.5312 24.6147 34.7656ZM24.2743 31.8324C24.2902 31.5794 24.354 31.3402 24.4656 31.115C24.5958 30.8523 24.7816 30.6392 25.0231 30.4758C25.2669 30.3101 25.5558 30.2273 25.8896 30.2273C26.1926 30.2273 26.4554 30.2971 26.6779 30.4368C26.9028 30.5765 27.0757 30.767 27.1964 31.0085C27.3195 31.25 27.3811 31.5246 27.3811 31.8324H24.2743Z" fill="#55B3FF"/>
<path d="M29.5082 29.5454V35H30.3463V31.5483C30.3463 31.3021 30.4054 31.0831 30.5238 30.8913C30.6446 30.6972 30.8079 30.5457 31.0139 30.4368C31.2222 30.3255 31.4589 30.2699 31.7241 30.2699C31.8354 30.2699 31.9407 30.2782 32.0401 30.2947C32.1419 30.3089 32.2071 30.3196 32.2355 30.3267V29.4744C32.1881 29.4697 32.1183 29.4661 32.0259 29.4638C31.9336 29.4614 31.8567 29.4602 31.7951 29.4602C31.4684 29.4602 31.1749 29.5443 30.9144 29.7123C30.654 29.8804 30.4741 30.0994 30.3747 30.3693H30.3178V29.5454H29.5082Z" fill="#55B3FF"/>
<path fill-rule="evenodd" clip-rule="evenodd" d="M33.893 34.9325C34.1747 35.0627 34.4884 35.1278 34.834 35.1278C35.1512 35.1278 35.4199 35.0805 35.6401 34.9858C35.8603 34.8911 36.0367 34.7763 36.1692 34.6413C36.3018 34.5064 36.3965 34.3797 36.4533 34.2614H36.4959V35H37.334V31.4062C37.334 30.973 37.263 30.6274 37.1209 30.3693C36.9789 30.1113 36.8002 29.9183 36.5847 29.7905C36.3717 29.6626 36.1503 29.5786 35.9207 29.5383C35.6934 29.4957 35.4922 29.4744 35.317 29.4744C35.0423 29.4744 34.763 29.5123 34.4789 29.5881C34.1972 29.6614 33.9368 29.7917 33.6976 29.9787C33.4609 30.1633 33.2715 30.4214 33.1295 30.7528L33.9249 31.0369C34.0172 30.8381 34.177 30.651 34.4043 30.4758C34.6316 30.3007 34.9453 30.2131 35.3454 30.2131C35.7313 30.2131 36.0189 30.3101 36.2083 30.5043C36.4001 30.6984 36.4959 30.9706 36.4959 31.321V31.3494C36.4959 31.4844 36.4474 31.5791 36.3503 31.6335C36.2556 31.688 36.1041 31.727 35.8958 31.7507C35.6898 31.772 35.4211 31.804 35.0897 31.8466C34.8364 31.8797 34.5842 31.9247 34.3333 31.9815C34.0847 32.036 33.8574 32.1188 33.6515 32.2301C33.4455 32.3414 33.281 32.4953 33.1579 32.6918C33.0348 32.8859 32.9732 33.1392 32.9732 33.4517C32.9732 33.8068 33.0561 34.1098 33.2218 34.3608C33.3875 34.6094 33.6112 34.7999 33.893 34.9325ZM35.7999 34.1797C35.5726 34.3099 35.2933 34.375 34.9618 34.375C34.628 34.375 34.3522 34.3016 34.1344 34.1548C33.919 34.0057 33.8113 33.7855 33.8113 33.4943C33.8113 33.2812 33.8681 33.1132 33.9817 32.99C34.0977 32.8646 34.2493 32.7711 34.4363 32.7095C34.6257 32.6456 34.8293 32.5994 35.0471 32.571C35.137 32.5592 35.2542 32.545 35.3986 32.5284C35.5454 32.5095 35.6958 32.4882 35.8496 32.4645C36.0059 32.4384 36.1432 32.4088 36.2616 32.3757C36.3823 32.3402 36.4604 32.3011 36.4959 32.2585V33.0256C36.4959 33.2528 36.4368 33.4695 36.3184 33.6754C36.2024 33.8814 36.0296 34.0495 35.7999 34.1797Z" fill="#55B3FF"/>
</svg>
