<svg width="36" height="53" viewBox="0 0 36 53" fill="none" xmlns="http://www.w3.org/2000/svg">
<g style="mix-blend-mode:overlay" filter="url(#filter0_f_2223_17001)">
<path fill-rule="evenodd" clip-rule="evenodd" d="M11.8233 33.0151C11.3913 32.6436 10.9994 32.2128 10.6606 31.7252C8.95799 29.2749 7.55608 26.0764 6.6363 23.1317C5.76896 20.3549 4.97543 16.6926 5.4159 13.5015C5.92402 9.82042 9.37177 7.26668 13.1167 7.79762C13.7122 7.88206 14.2794 8.03942 14.8102 8.25918C16.1386 6.22845 18.5464 4.98194 21.1723 5.22489C24.9176 5.57139 27.6967 8.81737 27.4089 12.4912C27.4092 12.4924 27.4096 12.498 27.4104 12.5081C27.4147 12.5662 27.4298 12.7724 27.5078 13.1521C27.6197 13.6969 27.8143 14.3743 28.0846 15.1168C28.6648 16.7103 29.349 17.9469 29.6669 18.3766C31.8988 21.3936 31.2336 25.5992 28.181 27.7702C27.4944 28.2585 26.7456 28.6023 25.9718 28.8076C25.9534 29.9987 25.9044 31.2669 25.7851 32.3715C25.4499 35.476 24.4811 39.5289 21.3 42.9092L16.6329 47.8687L6.75974 38.6107L11.4268 33.6513C11.5466 33.524 11.6873 33.3314 11.8233 33.0151Z" fill="#353535" fill-opacity="0.37"/>
</g>
<defs>
<filter id="filter0_f_2223_17001" x="0.541472" y="0.445403" width="35.1946" height="52.1727" filterUnits="userSpaceOnUse" color-interpolation-filters="sRGB">
<feFlood flood-opacity="0" result="BackgroundImageFix"/>
<feBlend mode="normal" in="SourceGraphic" in2="BackgroundImageFix" result="shape"/>
<feGaussianBlur stdDeviation="2.37447" result="effect1_foregroundBlur_2223_17001"/>
</filter>
</defs>
</svg>
