<svg width="24" height="37" viewBox="0 0 24 37" fill="none" xmlns="http://www.w3.org/2000/svg">
<path fill-rule="evenodd" clip-rule="evenodd" d="M6.49963 6.07954C6.49963 2.72837 9.21629 0.0117188 12.5675 0.0117188C15.9186 0.0117188 18.6353 2.72837 18.6353 6.07954C18.6353 9.4307 15.9186 12.1474 12.5675 12.1474C9.21629 12.1474 6.49963 9.4307 6.49963 6.07954ZM12.5675 2.03432C10.3333 2.03432 8.52224 3.84543 8.52224 6.07954C8.52224 8.31364 10.3333 10.1247 12.5675 10.1247C14.8016 10.1247 16.6127 8.31364 16.6127 6.07954C16.6127 3.84543 14.8016 2.03432 12.5675 2.03432Z" fill="#CFD1DE"/>
<path d="M12.5675 16.6982C10.1562 16.6982 7.87212 17.2365 6.31567 17.7185C5.43894 17.9901 4.79391 18.7845 4.63614 19.7988L4.46501 20.8989C4.37916 21.4508 3.86217 21.8286 3.31028 21.7427C2.75839 21.6569 2.38059 21.1399 2.46644 20.588L2.63757 19.4879C2.89695 17.8204 4.00152 16.3179 5.71727 15.7865C7.38035 15.2714 9.87873 14.6756 12.5675 14.6756C15.2562 14.6756 17.7546 15.2714 19.4176 15.7865C21.1334 16.3179 22.238 17.8204 22.4973 19.4879L22.6685 20.588C22.7543 21.1399 22.3765 21.6569 21.8246 21.7427C21.2727 21.8286 20.7557 21.4508 20.6699 20.8989L20.4988 19.7988C20.341 18.7845 19.696 17.9901 18.8192 17.7185C17.2628 17.2365 14.9787 16.6982 12.5675 16.6982Z" fill="#CFD1DE"/>
<path fill-rule="evenodd" clip-rule="evenodd" d="M0.1875 28.7277V36.0004H1.06818V33.3442H2.65909C3.22491 33.3442 3.68892 33.2412 4.05114 33.0352C4.41335 32.8269 4.68087 32.5475 4.85369 32.1971C5.02888 31.8468 5.11648 31.4573 5.11648 31.0288C5.11648 30.6003 5.02888 30.2121 4.85369 29.8641C4.6785 29.516 4.40862 29.2402 4.04403 29.0366C3.68182 28.8307 3.21544 28.7277 2.64489 28.7277H0.1875ZM1.06818 32.5629H2.63068C3.02131 32.5629 3.33499 32.4954 3.57173 32.3605C3.80848 32.2256 3.98011 32.0433 4.08665 31.8136C4.19555 31.5816 4.25 31.32 4.25 31.0288C4.25 30.7376 4.19555 30.4772 4.08665 30.2476C3.98011 30.0179 3.80729 29.838 3.56818 29.7078C3.32907 29.5752 3.01184 29.5089 2.61648 29.5089H1.06818V32.5629Z" fill="#CFD1DE"/>
<path fill-rule="evenodd" clip-rule="evenodd" d="M7.28977 35.766C7.67093 35.998 8.12429 36.1141 8.64986 36.1141C9.01918 36.1141 9.3518 36.0572 9.64773 35.9436C9.94366 35.8276 10.1922 35.6666 10.3935 35.4606C10.5947 35.2523 10.7379 35.0108 10.8232 34.7362L10.0135 34.5089C9.94247 34.6983 9.84186 34.8569 9.71165 34.9848C9.58144 35.1103 9.42637 35.205 9.24645 35.2689C9.06889 35.3304 8.87003 35.3612 8.64986 35.3612C8.31132 35.3612 8.0142 35.2878 7.75852 35.141C7.50284 34.9919 7.30279 34.7753 7.15838 34.4912C7.02959 34.2314 6.95918 33.9201 6.94717 33.5572H10.9084V33.2021C10.9084 32.6931 10.8409 32.2646 10.706 31.9166C10.571 31.5686 10.3899 31.2892 10.1626 31.0785C9.93537 30.8655 9.68324 30.7116 9.40625 30.6169C9.12926 30.5222 8.84872 30.4748 8.56463 30.4748C8.07221 30.4748 7.64134 30.5956 7.27202 30.8371C6.90507 31.0762 6.61861 31.41 6.41264 31.8385C6.20904 32.2646 6.10724 32.757 6.10724 33.3158C6.10724 33.8745 6.20904 34.3645 6.41264 34.7859C6.61861 35.205 6.91098 35.5317 7.28977 35.766ZM6.94931 32.8328C6.96527 32.5798 7.02904 32.3407 7.14062 32.1155C7.27083 31.8527 7.45668 31.6396 7.69815 31.4763C7.942 31.3105 8.23082 31.2277 8.56463 31.2277C8.86766 31.2277 9.13045 31.2975 9.35298 31.4372C9.57789 31.5769 9.75071 31.7675 9.87145 32.0089C9.99455 32.2504 10.0561 32.525 10.0561 32.8328H6.94931Z" fill="#CFD1DE"/>
<path d="M12.1832 30.5459V36.0004H13.0213V32.5487C13.0213 32.3025 13.0805 32.0835 13.1989 31.8918C13.3196 31.6976 13.483 31.5461 13.6889 31.4372C13.8973 31.3259 14.134 31.2703 14.3991 31.2703C14.5104 31.2703 14.6158 31.2786 14.7152 31.2952C14.817 31.3094 14.8821 31.32 14.9105 31.3271V30.4748C14.8632 30.4701 14.7933 30.4666 14.701 30.4642C14.6087 30.4618 14.5317 30.4606 14.4702 30.4606C14.1435 30.4606 13.8499 30.5447 13.5895 30.7128C13.3291 30.8809 13.1491 31.0998 13.0497 31.3697H12.9929V30.5459H12.1832Z" fill="#CFD1DE"/>
<path d="M18.6747 31.2561V30.5459H17.4531V29.9919C17.4531 29.722 17.5135 29.5172 17.6342 29.3775C17.7573 29.2379 17.9574 29.168 18.2344 29.168C18.3551 29.168 18.4522 29.1787 18.5256 29.2C18.6013 29.2213 18.6605 29.2391 18.7031 29.2533L18.9446 28.5288C18.8807 28.5004 18.7836 28.4696 18.6534 28.4365C18.5232 28.4034 18.3551 28.3868 18.1491 28.3868C17.8887 28.3868 17.6413 28.4389 17.407 28.543C17.1726 28.6472 16.982 28.8034 16.8352 29.0118C16.6884 29.2201 16.6151 29.4805 16.6151 29.793V30.5459H15.7344V31.2561H16.6151V36.0004H17.4531V31.2561H18.6747Z" fill="#CFD1DE"/>
<path d="M19.8493 30.5459V36.0004H20.6873V30.5459H19.8493Z" fill="#CFD1DE"/>
<path d="M19.8528 29.4699C19.9712 29.5811 20.112 29.6368 20.2754 29.6368C20.4387 29.6368 20.5784 29.5811 20.6944 29.4699C20.8128 29.3586 20.872 29.2248 20.872 29.0686C20.872 28.9123 20.8128 28.7786 20.6944 28.6673C20.5784 28.556 20.4387 28.5004 20.2754 28.5004C20.112 28.5004 19.9712 28.556 19.8528 28.6673C19.7368 28.7786 19.6788 28.9123 19.6788 29.0686C19.6788 29.2248 19.7368 29.3586 19.8528 29.4699Z" fill="#CFD1DE"/>
<path d="M23.0604 36.0004V28.7277H22.2223V36.0004H23.0604Z" fill="#CFD1DE"/>
</svg>
