<svg width="24" height="37" viewBox="0 0 24 37" fill="none" xmlns="http://www.w3.org/2000/svg">
<path fill-rule="evenodd" clip-rule="evenodd" d="M6.93201 6.07954C6.93201 2.72837 9.64866 0.0117188 12.9998 0.0117188C16.351 0.0117188 19.0676 2.72837 19.0676 6.07954C19.0676 9.4307 16.351 12.1474 12.9998 12.1474C9.64866 12.1474 6.93201 9.4307 6.93201 6.07954ZM12.9998 2.03432C10.7657 2.03432 8.95461 3.84543 8.95461 6.07954C8.95461 8.31364 10.7657 10.1247 12.9998 10.1247C15.2339 10.1247 17.045 8.31364 17.045 6.07954C17.045 3.84543 15.2339 2.03432 12.9998 2.03432Z" fill="#CFD1DE"/>
<path d="M12.9998 16.6982C10.6001 16.6982 8.32632 17.2313 6.7702 17.7117C5.87946 17.9866 5.22492 18.7933 5.06473 19.8231L4.89738 20.8989C4.81153 21.4508 4.29455 21.8286 3.74266 21.7427C3.19077 21.6569 2.81297 21.1399 2.89881 20.588L3.06616 19.5122C3.32785 17.8299 4.4418 16.3137 6.17361 15.7791C7.83647 15.2657 10.3238 14.6756 12.9998 14.6756C15.6758 14.6756 18.1632 15.2657 19.826 15.7791C21.5579 16.3137 22.6718 17.8299 22.9335 19.5122L23.1008 20.588C23.1867 21.1399 22.8089 21.6569 22.257 21.7427C21.7051 21.8286 21.1881 21.4508 21.1023 20.8989L20.9349 19.8231C20.7747 18.7933 20.1202 17.9866 19.2295 17.7117C17.6733 17.2313 15.3995 16.6982 12.9998 16.6982Z" fill="#CFD1DE"/>
<path fill-rule="evenodd" clip-rule="evenodd" d="M0.619873 28.7277V36.0004H1.50055V33.3442H3.09146C3.65728 33.3442 4.12129 33.2412 4.48351 33.0352C4.84573 32.8269 5.11324 32.5475 5.28607 32.1971C5.46126 31.8468 5.54885 31.4573 5.54885 31.0288C5.54885 30.6003 5.46126 30.2121 5.28607 29.8641C5.11088 29.516 4.84099 29.2402 4.47641 29.0366C4.11419 28.8307 3.64781 28.7277 3.07726 28.7277H0.619873ZM1.50055 32.5629H3.06306C3.45368 32.5629 3.76736 32.4954 4.00411 32.3605C4.24085 32.2256 4.41249 32.0433 4.51902 31.8136C4.62792 31.5816 4.68237 31.32 4.68237 31.0288C4.68237 30.7376 4.62792 30.4772 4.51902 30.2476C4.41249 30.0179 4.23966 29.838 4.00056 29.7078C3.76145 29.5752 3.44421 29.5089 3.04885 29.5089H1.50055V32.5629Z" fill="#CFD1DE"/>
<path fill-rule="evenodd" clip-rule="evenodd" d="M7.72215 35.766C8.1033 35.998 8.55666 36.1141 9.08223 36.1141C9.45155 36.1141 9.78417 36.0572 10.0801 35.9436C10.376 35.8276 10.6246 35.6666 10.8258 35.4606C11.0271 35.2523 11.1703 35.0108 11.2555 34.7362L10.4459 34.5089C10.3748 34.6983 10.2742 34.8569 10.144 34.9848C10.0138 35.1103 9.85875 35.205 9.67882 35.2689C9.50127 35.3304 9.3024 35.3612 9.08223 35.3612C8.74369 35.3612 8.44658 35.2878 8.1909 35.141C7.93521 34.9919 7.73517 34.7753 7.59075 34.4912C7.46196 34.2314 7.39155 33.9201 7.37954 33.5572H11.3408V33.2021C11.3408 32.6931 11.2733 32.2646 11.1383 31.9166C11.0034 31.5686 10.8223 31.2892 10.595 31.0785C10.3677 30.8655 10.1156 30.7116 9.83862 30.6169C9.56163 30.5222 9.28109 30.4748 8.997 30.4748C8.50458 30.4748 8.07371 30.5956 7.70439 30.8371C7.33744 31.0762 7.05098 31.41 6.84502 31.8385C6.64142 32.2646 6.53962 32.757 6.53962 33.3158C6.53962 33.8745 6.64142 34.3645 6.84502 34.7859C7.05098 35.205 7.34336 35.5317 7.72215 35.766ZM7.38168 32.8328C7.39764 32.5798 7.46141 32.3407 7.573 32.1155C7.70321 31.8527 7.88905 31.6396 8.13053 31.4763C8.37437 31.3105 8.6632 31.2277 8.997 31.2277C9.30003 31.2277 9.56282 31.2975 9.78536 31.4372C10.0103 31.5769 10.1831 31.7675 10.3038 32.0089C10.4269 32.2504 10.4885 32.525 10.4885 32.8328H7.38168Z" fill="#CFD1DE"/>
<path d="M12.6156 30.5459V36.0004H13.4537V32.5487C13.4537 32.3025 13.5129 32.0835 13.6312 31.8918C13.752 31.6976 13.9153 31.5461 14.1213 31.4372C14.3296 31.3259 14.5664 31.2703 14.8315 31.2703C14.9428 31.2703 15.0481 31.2786 15.1476 31.2952C15.2494 31.3094 15.3145 31.32 15.3429 31.3271V30.4748C15.2955 30.4701 15.2257 30.4666 15.1334 30.4642C15.041 30.4618 14.9641 30.4606 14.9025 30.4606C14.5758 30.4606 14.2823 30.5447 14.0219 30.7128C13.7614 30.8809 13.5815 31.0998 13.4821 31.3697H13.4253V30.5459H12.6156Z" fill="#CFD1DE"/>
<path d="M19.1071 31.2561V30.5459H17.8855V29.9919C17.8855 29.722 17.9459 29.5172 18.0666 29.3775C18.1897 29.2379 18.3898 29.168 18.6667 29.168C18.7875 29.168 18.8846 29.1787 18.9579 29.2C19.0337 29.2213 19.0929 29.2391 19.1355 29.2533L19.377 28.5288C19.3131 28.5004 19.216 28.4696 19.0858 28.4365C18.9556 28.4034 18.7875 28.3868 18.5815 28.3868C18.3211 28.3868 18.0737 28.4389 17.8393 28.543C17.605 28.6472 17.4144 28.8034 17.2676 29.0118C17.1208 29.2201 17.0474 29.4805 17.0474 29.793V30.5459H16.1667V31.2561H17.0474V36.0004H17.8855V31.2561H19.1071Z" fill="#CFD1DE"/>
<path d="M20.2816 30.5459V36.0004H21.1197V30.5459H20.2816Z" fill="#CFD1DE"/>
<path d="M20.2852 29.4699C20.4035 29.5811 20.5444 29.6368 20.7078 29.6368C20.8711 29.6368 21.0108 29.5811 21.1268 29.4699C21.2452 29.3586 21.3044 29.2248 21.3044 29.0686C21.3044 28.9123 21.2452 28.7786 21.1268 28.6673C21.0108 28.556 20.8711 28.5004 20.7078 28.5004C20.5444 28.5004 20.4035 28.556 20.2852 28.6673C20.1692 28.7786 20.1112 28.9123 20.1112 29.0686C20.1112 29.2248 20.1692 29.3586 20.2852 29.4699Z" fill="#CFD1DE"/>
<path d="M23.4927 36.0004V28.7277H22.6547V36.0004H23.4927Z" fill="#CFD1DE"/>
</svg>
