<svg width="27" height="38" viewBox="0 0 27 38" fill="none" xmlns="http://www.w3.org/2000/svg">
<path fill-rule="evenodd" clip-rule="evenodd" d="M13.7783 0.196962C13.4217 -0.0656538 12.9356 -0.0656538 12.579 0.196962L3.70093 6.73445C2.66558 7.49685 2.05433 8.70605 2.05433 9.99182V20.7317C2.05433 22.6866 3.63905 24.2713 5.59389 24.2713H9.13345C10.2505 24.2713 11.1561 23.3657 11.1561 22.2487V16.6865H15.2013V22.2487C15.2013 23.3657 16.1068 24.2713 17.2239 24.2713H20.7634C22.7183 24.2713 24.303 22.6866 24.303 20.7317V9.99182C24.303 8.70605 23.6917 7.49685 22.6564 6.73445L13.7783 0.196962ZM4.90024 8.36313L13.1787 2.26721L21.4571 8.36313C21.9748 8.74433 22.2804 9.34893 22.2804 9.99182V20.7317C22.2804 21.5695 21.6012 22.2487 20.7634 22.2487H17.2239V16.1808C17.2239 15.3431 16.5447 14.6639 15.7069 14.6639H10.6504C9.81261 14.6639 9.13345 15.3431 9.13345 16.1808V22.2487H5.59389C4.7561 22.2487 4.07693 21.5695 4.07693 20.7317V9.99182C4.07693 9.34893 4.38256 8.74433 4.90024 8.36313Z" fill="#CFD1DE"/>
<path d="M0.119019 29.7273V37H0.999702V33.7472H4.87754V37H5.75823V29.7273H4.87754V32.9659H0.999702V29.7273H0.119019Z" fill="#CFD1DE"/>
<path fill-rule="evenodd" clip-rule="evenodd" d="M8.32747 36.7621C8.69916 36.9964 9.13121 37.1136 9.62364 37.1136C10.1161 37.1136 10.5469 36.9964 10.9163 36.7621C11.2879 36.5277 11.5768 36.1998 11.7827 35.7784C11.9911 35.357 12.0952 34.8646 12.0952 34.3011C12.0952 33.733 11.9911 33.237 11.7827 32.8132C11.5768 32.3894 11.2879 32.0604 10.9163 31.826C10.5469 31.5916 10.1161 31.4744 9.62364 31.4744C9.13121 31.4744 8.69916 31.5916 8.32747 31.826C7.95815 32.0604 7.66933 32.3894 7.46099 32.8132C7.25503 33.237 7.15205 33.733 7.15205 34.3011C7.15205 34.8646 7.25503 35.357 7.46099 35.7784C7.66933 36.1998 7.95815 36.5277 8.32747 36.7621ZM10.5469 36.0732C10.3055 36.2649 9.99769 36.3608 9.62364 36.3608C9.24958 36.3608 8.94182 36.2649 8.70034 36.0732C8.45886 35.8814 8.28012 35.6293 8.16412 35.3168C8.04812 35.0043 7.99011 34.6657 7.99011 34.3011C7.99011 33.9366 8.04812 33.5968 8.16412 33.282C8.28012 32.9671 8.45886 32.7126 8.70034 32.5185C8.94182 32.3243 9.24958 32.2273 9.62364 32.2273C9.99769 32.2273 10.3055 32.3243 10.5469 32.5185C10.7884 32.7126 10.9671 32.9671 11.0832 33.282C11.1992 33.5968 11.2572 33.9366 11.2572 34.3011C11.2572 34.6657 11.1992 35.0043 11.0832 35.3168C10.9671 35.6293 10.7884 35.8814 10.5469 36.0732Z" fill="#CFD1DE"/>
<path d="M13.3745 31.5455V37H14.2126V33.5909C14.2126 33.3234 14.2694 33.0878 14.383 32.8842C14.4991 32.6783 14.6506 32.5173 14.8376 32.4013C15.027 32.2853 15.2306 32.2273 15.4484 32.2273C15.7656 32.2273 16.0249 32.3232 16.2261 32.5149C16.4273 32.7043 16.5279 32.9541 16.5279 33.2642V37H17.3802V33.4489C17.3802 33.0961 17.4856 32.8049 17.6963 32.5753C17.907 32.3433 18.2041 32.2273 18.5876 32.2273C18.8859 32.2273 19.1451 32.3137 19.3653 32.4865C19.5855 32.6593 19.6955 32.947 19.6955 33.3494V37H20.5336V33.3494C20.5336 32.7079 20.3785 32.2356 20.0684 31.9325C19.7583 31.6271 19.3594 31.4744 18.8717 31.4744C18.4811 31.4744 18.1461 31.5585 17.8667 31.7266C17.5874 31.8923 17.3778 32.116 17.2382 32.3977H17.1813C17.0464 32.1065 16.8582 31.8804 16.6167 31.7195C16.3776 31.5561 16.0781 31.4744 15.7183 31.4744C15.3632 31.4744 15.0589 31.5561 14.8056 31.7195C14.5523 31.8804 14.3688 32.1065 14.2552 32.3977H14.1842V31.5455H13.3745Z" fill="#CFD1DE"/>
<path fill-rule="evenodd" clip-rule="evenodd" d="M22.9928 36.7656C23.3739 36.9976 23.8273 37.1136 24.3529 37.1136C24.7222 37.1136 25.0548 37.0568 25.3507 36.9432C25.6467 36.8272 25.8952 36.6662 26.0965 36.4602C26.2977 36.2519 26.4409 36.0104 26.5262 35.7358L25.7165 35.5085C25.6455 35.6979 25.5449 35.8565 25.4147 35.9844C25.2844 36.1098 25.1294 36.2045 24.9495 36.2685C24.7719 36.33 24.573 36.3608 24.3529 36.3608C24.0143 36.3608 23.7172 36.2874 23.4615 36.1406C23.2058 35.9915 23.0058 35.7749 22.8614 35.4908C22.7326 35.231 22.6622 34.9197 22.6502 34.5568H26.6114V34.2017C26.6114 33.6927 26.5439 33.2642 26.409 32.9162C26.274 32.5682 26.0929 32.2888 25.8656 32.0781C25.6384 31.8651 25.3862 31.7112 25.1093 31.6165C24.8323 31.5218 24.5517 31.4744 24.2676 31.4744C23.7752 31.4744 23.3443 31.5952 22.975 31.8366C22.6081 32.0758 22.3216 32.4096 22.1156 32.8381C21.912 33.2642 21.8102 33.7566 21.8102 34.3153C21.8102 34.8741 21.912 35.3641 22.1156 35.7855C22.3216 36.2045 22.614 36.5312 22.9928 36.7656ZM22.6523 33.8324C22.6683 33.5794 22.732 33.3403 22.8436 33.1151C22.9738 32.8523 23.1597 32.6392 23.4012 32.4759C23.645 32.3101 23.9338 32.2273 24.2676 32.2273C24.5707 32.2273 24.8335 32.2971 25.056 32.4368C25.2809 32.5765 25.4537 32.767 25.5745 33.0085C25.6976 33.25 25.7591 33.5246 25.7591 33.8324H22.6523Z" fill="#CFD1DE"/>
</svg>
