<svg width="6" height="12" viewBox="0 0 6 12" fill="none" xmlns="http://www.w3.org/2000/svg">
<path fill-rule="evenodd" clip-rule="evenodd" d="M2.00458 1.19038C2.00458 0.892155 2.24634 0.650391 2.54457 0.650391C2.8428 0.650391 3.08456 0.892154 3.08456 1.19038V1.74456C4.2117 1.97972 5.06056 3.01177 5.06056 4.24932C5.06056 4.69768 4.70989 5.06114 4.27732 5.06114C3.84475 5.06114 3.49409 4.69768 3.49409 4.24932C3.49409 3.73492 3.09176 3.31791 2.59546 3.31791C2.09917 3.31791 1.69684 3.73492 1.69684 4.24932C1.69684 4.76373 2.09917 5.18074 2.59546 5.18074C2.60541 5.18074 2.61532 5.18093 2.62518 5.18132C3.9731 5.1976 5.06094 6.33522 5.06094 7.7362C5.06094 8.97389 4.21189 10.006 3.08455 10.241L3.08455 10.8429C3.08455 11.1411 2.84279 11.3829 2.54456 11.3829C2.24633 11.3829 2.00457 11.1411 2.00457 10.8429L2.00457 10.2173C0.928697 9.94275 0.130756 8.93606 0.130756 7.7362C0.130756 7.28784 0.481423 6.92438 0.913992 6.92438C1.34656 6.92438 1.69723 7.28784 1.69723 7.7362C1.69723 8.2506 2.09955 8.66761 2.59585 8.66761C3.09214 8.66761 3.49447 8.25061 3.49447 7.7362C3.49447 7.22179 3.09215 6.80478 2.59585 6.80478C2.5859 6.80478 2.576 6.80459 2.56614 6.80421C1.21822 6.78792 0.130371 5.6503 0.130371 4.24932C0.130371 3.04931 0.928508 2.04252 2.00458 1.76814V1.19038Z" fill="#55B3FF"/>
</svg>
