<svg width="38" height="36" viewBox="0 0 38 36" fill="none" xmlns="http://www.w3.org/2000/svg">
<path fill-rule="evenodd" clip-rule="evenodd" d="M10.9382 0.0351562C8.70697 0.0351562 6.8982 1.84392 6.8982 4.07516V18.2412C6.8982 20.4724 8.70697 22.2812 10.9382 22.2812H27.0616C29.2928 22.2812 31.1016 20.4724 31.1016 18.2412V8.02585C31.1016 5.79462 29.2928 3.98585 27.0616 3.98585H10.4122C9.85457 3.98585 9.4025 3.53378 9.4025 2.97611C9.4025 2.91056 9.39625 2.84646 9.38432 2.78439C9.75485 2.33882 10.3134 2.05516 10.9382 2.05516H28.0955C28.6533 2.05516 29.1055 1.60296 29.1055 1.04516C29.1055 0.487349 28.6533 0.0351562 28.0955 0.0351562H10.9382ZM8.9182 18.2412V5.61247C9.35909 5.86286 9.86896 6.00585 10.4122 6.00585H27.0616C28.1772 6.00585 29.0816 6.91024 29.0816 8.02585V18.2412C29.0816 19.3568 28.1772 20.2612 27.0616 20.2612H10.9382C9.82258 20.2612 8.9182 19.3568 8.9182 18.2412Z" fill="#55B3FF"/>
<path fill-rule="evenodd" clip-rule="evenodd" d="M0.783997 27.7275V35.0002H3.41184C3.98475 35.0002 4.44995 34.915 4.80743 34.7446C5.16492 34.5741 5.42652 34.3433 5.59224 34.0521C5.75795 33.7609 5.84081 33.433 5.84081 33.0684C5.84081 32.6849 5.76506 32.3606 5.61354 32.0954C5.46203 31.8303 5.27382 31.6267 5.04891 31.4846C4.82401 31.3426 4.60028 31.2644 4.37775 31.2502V31.1792C4.58608 31.1224 4.77903 31.0348 4.95658 30.9164C5.13651 30.7981 5.28092 30.6371 5.38982 30.4335C5.50109 30.2299 5.55672 29.9718 5.55672 29.6593C5.55672 29.3042 5.47623 28.9811 5.31525 28.6899C5.15426 28.3963 4.90923 28.1631 4.58016 27.9903C4.25109 27.8151 3.83324 27.7275 3.32661 27.7275H0.783997ZM3.41184 34.219H1.66468V31.6906H3.45445C3.77169 31.6906 4.04631 31.7545 4.27831 31.8823C4.51032 32.0078 4.68906 32.1759 4.81454 32.3866C4.94001 32.5949 5.00275 32.8222 5.00275 33.0684C5.00275 33.388 4.88082 33.6603 4.63698 33.8852C4.3955 34.1077 3.98712 34.219 3.41184 34.219ZM3.2982 30.9235H1.66468V28.5088H3.32661C3.80956 28.5088 4.16231 28.6212 4.38485 28.8461C4.60739 29.0687 4.71866 29.3397 4.71866 29.6593C4.71866 29.915 4.65474 30.1375 4.52689 30.3269C4.40142 30.5163 4.23097 30.6631 4.01553 30.7673C3.80246 30.8714 3.56335 30.9235 3.2982 30.9235Z" fill="#55B3FF"/>
<path d="M7.17427 29.5457V35.0002H8.01233V29.5457H7.17427Z" fill="#55B3FF"/>
<path d="M7.17782 28.4697C7.29619 28.581 7.43705 28.6366 7.6004 28.6366C7.76375 28.6366 7.90343 28.581 8.01944 28.4697C8.13781 28.3584 8.19699 28.2247 8.19699 28.0684C8.19699 27.9122 8.13781 27.7784 8.01944 27.6671C7.90343 27.5559 7.76375 27.5002 7.6004 27.5002C7.43705 27.5002 7.29619 27.5559 7.17782 27.6671C7.06181 27.7784 7.00381 27.9122 7.00381 28.0684C7.00381 28.2247 7.06181 28.3584 7.17782 28.4697Z" fill="#55B3FF"/>
<path d="M10.3854 35.0002V27.7275H9.54731V35.0002H10.3854Z" fill="#55B3FF"/>
<path d="M12.7584 35.0002V27.7275H11.9204V35.0002H12.7584Z" fill="#55B3FF"/>
<path fill-rule="evenodd" clip-rule="evenodd" d="M15.2203 34.7659C15.6014 34.9979 16.0548 35.1139 16.5803 35.1139C16.9497 35.1139 17.2823 35.0571 17.5782 34.9434C17.8741 34.8274 18.1227 34.6664 18.3239 34.4605C18.5252 34.2521 18.6684 34.0107 18.7536 33.736L17.944 33.5088C17.873 33.6982 17.7723 33.8568 17.6421 33.9846C17.5119 34.1101 17.3569 34.2048 17.1769 34.2687C16.9994 34.3303 16.8005 34.361 16.5803 34.361C16.2418 34.361 15.9447 34.2876 15.689 34.1409C15.4333 33.9917 15.2333 33.7751 15.0889 33.491C14.9601 33.2313 14.8897 32.9199 14.8776 32.5571H18.8389V32.2019C18.8389 31.6929 18.7714 31.2644 18.6364 30.9164C18.5015 30.5684 18.3204 30.2891 18.0931 30.0784C17.8659 29.8653 17.6137 29.7114 17.3367 29.6167C17.0597 29.522 16.7792 29.4747 16.4951 29.4747C16.0027 29.4747 15.5718 29.5954 15.2025 29.8369C14.8355 30.076 14.5491 30.4098 14.3431 30.8383C14.1395 31.2644 14.0377 31.7569 14.0377 32.3156C14.0377 32.8743 14.1395 33.3643 14.3431 33.7857C14.5491 34.2048 14.8415 34.5315 15.2203 34.7659ZM14.8798 31.8326C14.8957 31.5796 14.9595 31.3405 15.0711 31.1153C15.2013 30.8525 15.3872 30.6394 15.6286 30.4761C15.8725 30.3104 16.1613 30.2275 16.4951 30.2275C16.7981 30.2275 17.0609 30.2973 17.2835 30.437C17.5084 30.5767 17.6812 30.7673 17.8019 31.0088C17.925 31.2502 17.9866 31.5249 17.9866 31.8326H14.8798Z" fill="#55B3FF"/>
<path d="M22.4859 30.2559V29.5457H21.3211V28.2389H20.483V29.5457H19.6592V30.2559H20.483V33.665C20.483 33.9822 20.5564 34.245 20.7032 34.4534C20.8524 34.6617 21.0394 34.8168 21.2643 34.9186C21.4916 35.0204 21.7236 35.0713 21.9603 35.0713C22.1166 35.0713 22.2456 35.0594 22.3474 35.0357C22.4492 35.0144 22.5285 34.9931 22.5853 34.9718L22.4149 34.219L22.2728 34.2474C22.2136 34.2569 22.1379 34.2616 22.0455 34.2616C21.9224 34.2616 21.8052 34.2427 21.694 34.2048C21.5851 34.1645 21.4951 34.0864 21.4241 33.9704C21.3554 33.852 21.3211 33.6745 21.3211 33.4377V30.2559H22.4859Z" fill="#55B3FF"/>
<path fill-rule="evenodd" clip-rule="evenodd" d="M24.6148 34.7659C24.9959 34.9979 25.4493 35.1139 25.9749 35.1139C26.3442 35.1139 26.6768 35.0571 26.9727 34.9434C27.2687 34.8274 27.5172 34.6664 27.7185 34.4605C27.9197 34.2521 28.0629 34.0107 28.1482 33.736L27.3385 33.5088C27.2675 33.6982 27.1669 33.8568 27.0367 33.9846C26.9065 34.1101 26.7514 34.2048 26.5715 34.2687C26.3939 34.3303 26.195 34.361 25.9749 34.361C25.6363 34.361 25.3392 34.2876 25.0835 34.1409C24.8279 33.9917 24.6278 33.7751 24.4834 33.491C24.3546 33.2313 24.2842 32.9199 24.2722 32.5571H28.2334V32.2019C28.2334 31.6929 28.1659 31.2644 28.031 30.9164C27.896 30.5684 27.7149 30.2891 27.4877 30.0784C27.2604 29.8653 27.0083 29.7114 26.7313 29.6167C26.4543 29.522 26.1737 29.4747 25.8896 29.4747C25.3972 29.4747 24.9663 29.5954 24.597 29.8369C24.2301 30.076 23.9436 30.4098 23.7377 30.8383C23.5341 31.2644 23.4323 31.7569 23.4323 32.3156C23.4323 32.8743 23.5341 33.3643 23.7377 33.7857C23.9436 34.2048 24.236 34.5315 24.6148 34.7659ZM24.2743 31.8326C24.2903 31.5796 24.3541 31.3405 24.4656 31.1153C24.5958 30.8525 24.7817 30.6394 25.0232 30.4761C25.267 30.3104 25.5558 30.2275 25.8896 30.2275C26.1927 30.2275 26.4555 30.2973 26.678 30.437C26.9029 30.5767 27.0757 30.7673 27.1965 31.0088C27.3196 31.2502 27.3811 31.5249 27.3811 31.8326H24.2743Z" fill="#55B3FF"/>
<path d="M29.5083 29.5457V35.0002H30.3463V31.5485C30.3463 31.3023 30.4055 31.0833 30.5239 30.8916C30.6446 30.6974 30.808 30.5459 31.0139 30.437C31.2223 30.3258 31.459 30.2701 31.7242 30.2701C31.8354 30.2701 31.9408 30.2784 32.0402 30.295C32.142 30.3092 32.2071 30.3198 32.2355 30.3269V29.4747C32.1882 29.4699 32.1183 29.4664 32.026 29.464C31.9337 29.4616 31.8567 29.4605 31.7952 29.4605C31.4685 29.4605 31.1749 29.5445 30.9145 29.7126C30.6541 29.8807 30.4742 30.0997 30.3747 30.3696H30.3179V29.5457H29.5083Z" fill="#55B3FF"/>
<path fill-rule="evenodd" clip-rule="evenodd" d="M33.893 34.9328C34.1747 35.063 34.4884 35.1281 34.8341 35.1281C35.1513 35.1281 35.42 35.0807 35.6402 34.986C35.8603 34.8913 36.0367 34.7765 36.1693 34.6416C36.3019 34.5066 36.3966 34.38 36.4534 34.2616H36.496V35.0002H37.3341V31.4065C37.3341 30.9732 37.263 30.6276 37.121 30.3696C36.979 30.1115 36.8002 29.9186 36.5848 29.7907C36.3717 29.6629 36.1504 29.5788 35.9207 29.5386C35.6934 29.496 35.4922 29.4747 35.317 29.4747C35.0424 29.4747 34.763 29.5125 34.479 29.5883C34.1972 29.6617 33.9368 29.7919 33.6977 29.9789C33.461 30.1636 33.2716 30.4216 33.1295 30.7531L33.925 31.0372C34.0173 30.8383 34.1771 30.6513 34.4044 30.4761C34.6317 30.3009 34.9453 30.2133 35.3454 30.2133C35.7313 30.2133 36.019 30.3104 36.2084 30.5045C36.4001 30.6986 36.496 30.9709 36.496 31.3213V31.3497C36.496 31.4846 36.4475 31.5793 36.3504 31.6338C36.2557 31.6882 36.1042 31.7273 35.8959 31.7509C35.6899 31.7723 35.4212 31.8042 35.0898 31.8468C34.8364 31.88 34.5843 31.9249 34.3334 31.9818C34.0848 32.0362 33.8575 32.1191 33.6515 32.2303C33.4456 32.3416 33.281 32.4955 33.1579 32.692C33.0348 32.8861 32.9733 33.1394 32.9733 33.4519C32.9733 33.8071 33.0561 34.1101 33.2219 34.361C33.3876 34.6096 33.6113 34.8002 33.893 34.9328ZM35.8 34.1799C35.5727 34.3101 35.2934 34.3752 34.9619 34.3752C34.6281 34.3752 34.3523 34.3018 34.1345 34.1551C33.9191 34.0059 33.8113 33.7857 33.8113 33.4946C33.8113 33.2815 33.8682 33.1134 33.9818 32.9903C34.0978 32.8648 34.2493 32.7713 34.4363 32.7098C34.6257 32.6458 34.8293 32.5997 35.0471 32.5713C35.1371 32.5594 35.2543 32.5452 35.3987 32.5286C35.5455 32.5097 35.6958 32.4884 35.8497 32.4647C36.0059 32.4387 36.1433 32.4091 36.2616 32.3759C36.3824 32.3404 36.4605 32.3014 36.496 32.2588V33.0258C36.496 33.2531 36.4368 33.4697 36.3184 33.6757C36.2024 33.8816 36.0296 34.0497 35.8 34.1799Z" fill="#55B3FF"/>
</svg>
