<svg width="27" height="38" viewBox="0 0 27 38" fill="none" xmlns="http://www.w3.org/2000/svg">
<path fill-rule="evenodd" clip-rule="evenodd" d="M13.956 0.196962C13.5993 -0.0656538 13.1133 -0.0656538 12.7567 0.196962L3.87861 6.73445C2.84325 7.49685 2.232 8.70605 2.232 9.99182V20.7317C2.232 22.6866 3.81672 24.2713 5.77156 24.2713H9.31112C10.4282 24.2713 11.3337 23.3657 11.3337 22.2487V16.6865H15.3789V22.2487C15.3789 23.3657 16.2845 24.2713 17.4015 24.2713H20.9411C22.896 24.2713 24.4807 22.6866 24.4807 20.7317V9.99182C24.4807 8.70605 23.8694 7.49685 22.8341 6.73445L13.956 0.196962ZM5.07791 8.36313L13.3563 2.26721L21.6348 8.36313C22.1524 8.74433 22.4581 9.34893 22.4581 9.99182V20.7317C22.4581 21.5695 21.7789 22.2487 20.9411 22.2487H17.4015V16.1808C17.4015 15.3431 16.7224 14.6639 15.8846 14.6639H10.8281C9.99029 14.6639 9.31112 15.3431 9.31112 16.1808V22.2487H5.77156C4.93377 22.2487 4.25461 21.5695 4.25461 20.7317V9.99182C4.25461 9.34893 4.56023 8.74433 5.07791 8.36313Z" fill="#CFD1DE"/>
<path d="M0.296692 29.7273V37H1.17738V33.7472H5.05522V37H5.9359V29.7273H5.05522V32.9659H1.17738V29.7273H0.296692Z" fill="#CFD1DE"/>
<path fill-rule="evenodd" clip-rule="evenodd" d="M8.50515 36.7621C8.87683 36.9964 9.30889 37.1136 9.80131 37.1136C10.2937 37.1136 10.7246 36.9964 11.0939 36.7621C11.4656 36.5277 11.7544 36.1998 11.9604 35.7784C12.1687 35.357 12.2729 34.8646 12.2729 34.3011C12.2729 33.733 12.1687 33.237 11.9604 32.8132C11.7544 32.3894 11.4656 32.0604 11.0939 31.826C10.7246 31.5916 10.2937 31.4744 9.80131 31.4744C9.30889 31.4744 8.87683 31.5916 8.50515 31.826C8.13583 32.0604 7.847 32.3894 7.63867 32.8132C7.4327 33.237 7.32972 33.733 7.32972 34.3011C7.32972 34.8646 7.4327 35.357 7.63867 35.7784C7.847 36.1998 8.13583 36.5277 8.50515 36.7621ZM10.7246 36.0732C10.4831 36.2649 10.1754 36.3608 9.80131 36.3608C9.42726 36.3608 9.11949 36.2649 8.87801 36.0732C8.63654 35.8814 8.4578 35.6293 8.34179 35.3168C8.22579 35.0043 8.16779 34.6657 8.16779 34.3011C8.16779 33.9366 8.22579 33.5968 8.34179 33.282C8.4578 32.9671 8.63654 32.7126 8.87801 32.5185C9.11949 32.3243 9.42726 32.2273 9.80131 32.2273C10.1754 32.2273 10.4831 32.3243 10.7246 32.5185C10.9661 32.7126 11.1448 32.9671 11.2608 33.282C11.3768 33.5968 11.4348 33.9366 11.4348 34.3011C11.4348 34.6657 11.3768 35.0043 11.2608 35.3168C11.1448 35.6293 10.9661 35.8814 10.7246 36.0732Z" fill="#CFD1DE"/>
<path d="M13.5522 31.5455V37H14.3903V33.5909C14.3903 33.3234 14.4471 33.0878 14.5607 32.8842C14.6767 32.6783 14.8282 32.5173 15.0153 32.4013C15.2047 32.2853 15.4083 32.2273 15.6261 32.2273C15.9433 32.2273 16.2025 32.3232 16.4038 32.5149C16.605 32.7043 16.7056 32.9541 16.7056 33.2642V37H17.5579V33.4489C17.5579 33.0961 17.6632 32.8049 17.8739 32.5753C18.0846 32.3433 18.3817 32.2273 18.7653 32.2273C19.0636 32.2273 19.3228 32.3137 19.543 32.4865C19.7631 32.6593 19.8732 32.947 19.8732 33.3494V37H20.7113V33.3494C20.7113 32.7079 20.5562 32.2356 20.2461 31.9325C19.936 31.6271 19.537 31.4744 19.0494 31.4744C18.6587 31.4744 18.3237 31.5585 18.0444 31.7266C17.765 31.8923 17.5555 32.116 17.4158 32.3977H17.359C17.2241 32.1065 17.0359 31.8804 16.7944 31.7195C16.5553 31.5561 16.2558 31.4744 15.8959 31.4744C15.5408 31.4744 15.2366 31.5561 14.9833 31.7195C14.73 31.8804 14.5465 32.1065 14.4329 32.3977H14.3619V31.5455H13.5522Z" fill="#CFD1DE"/>
<path fill-rule="evenodd" clip-rule="evenodd" d="M23.1705 36.7656C23.5516 36.9976 24.005 37.1136 24.5305 37.1136C24.8999 37.1136 25.2325 37.0568 25.5284 36.9432C25.8243 36.8272 26.0729 36.6662 26.2741 36.4602C26.4754 36.2519 26.6186 36.0104 26.7038 35.7358L25.8942 35.5085C25.8232 35.6979 25.7225 35.8565 25.5923 35.9844C25.4621 36.1098 25.3071 36.2045 25.1271 36.2685C24.9496 36.33 24.7507 36.3608 24.5305 36.3608C24.192 36.3608 23.8949 36.2874 23.6392 36.1406C23.3835 35.9915 23.1835 35.7749 23.0391 35.4908C22.9103 35.231 22.8399 34.9197 22.8278 34.5568H26.7891V34.2017C26.7891 33.6927 26.7216 33.2642 26.5866 32.9162C26.4517 32.5682 26.2706 32.2888 26.0433 32.0781C25.816 31.8651 25.5639 31.7112 25.2869 31.6165C25.0099 31.5218 24.7294 31.4744 24.4453 31.4744C23.9529 31.4744 23.522 31.5952 23.1527 31.8366C22.7857 32.0758 22.4993 32.4096 22.2933 32.8381C22.0897 33.2642 21.9879 33.7566 21.9879 34.3153C21.9879 34.8741 22.0897 35.3641 22.2933 35.7855C22.4993 36.2045 22.7917 36.5312 23.1705 36.7656ZM22.83 33.8324C22.8459 33.5794 22.9097 33.3403 23.0213 33.1151C23.1515 32.8523 23.3374 32.6392 23.5788 32.4759C23.8227 32.3101 24.1115 32.2273 24.4453 32.2273C24.7483 32.2273 25.0111 32.2971 25.2337 32.4368C25.4586 32.5765 25.6314 32.767 25.7521 33.0085C25.8752 33.25 25.9368 33.5246 25.9368 33.8324H22.83Z" fill="#CFD1DE"/>
</svg>
