<svg width="47" height="40" viewBox="0 0 47 40" fill="none" xmlns="http://www.w3.org/2000/svg">
<path fill-rule="evenodd" clip-rule="evenodd" d="M29.4241 2.02261H29.2515C28.835 0.844244 27.7112 0 26.3902 0H20.3224C19.0014 0 17.8776 0.844243 17.4612 2.02261H17.2885C15.0544 2.02261 13.2433 3.8337 13.2433 6.06781V20.2261C13.2433 22.4602 15.0544 24.2713 17.2885 24.2713H29.4241C31.6583 24.2713 33.4694 22.4602 33.4694 20.2261V6.06782C33.4694 3.83371 31.6583 2.02261 29.4241 2.02261ZM15.2659 6.06781C15.2659 4.95076 16.1715 4.04521 17.2885 4.04521C17.2885 5.72079 18.6468 7.07912 20.3224 7.07912H26.3902C28.0658 7.07912 29.4241 5.72079 29.4241 4.04521C30.5412 4.04521 31.4468 4.95076 31.4468 6.06782V20.2261C31.4468 21.3431 30.5412 22.2487 29.4241 22.2487H17.2885C16.1715 22.2487 15.2659 21.3431 15.2659 20.2261V6.06781ZM20.3224 2.02261C19.7639 2.02261 19.3111 2.47538 19.3111 3.03391V4.04521C19.3111 4.60374 19.7639 5.05651 20.3224 5.05651H26.3902C26.9488 5.05651 27.4015 4.60374 27.4015 4.04521V3.03391C27.4015 2.47538 26.9488 2.02261 26.3902 2.02261H20.3224Z" fill="#CFD1DE"/>
<path fill-rule="evenodd" clip-rule="evenodd" d="M0.628723 29.7273V37H1.50941V34.3438H3.10031C3.66613 34.3438 4.13014 34.2408 4.49236 34.0348C4.85458 33.8265 5.12209 33.5471 5.29492 33.1967C5.47011 32.8464 5.5577 32.4569 5.5577 32.0284C5.5577 31.5999 5.47011 31.2116 5.29492 30.8636C5.11973 30.5156 4.84984 30.2398 4.48526 30.0362C4.12304 29.8303 3.65666 29.7273 3.08611 29.7273H0.628723ZM1.50941 33.5625H3.07191C3.46253 33.5625 3.77621 33.495 4.01296 33.3601C4.2497 33.2251 4.42134 33.0429 4.52787 32.8132C4.63677 32.5812 4.69122 32.3196 4.69122 32.0284C4.69122 31.7372 4.63677 31.4768 4.52787 31.2472C4.42134 31.0175 4.24851 30.8376 4.00941 30.7074C3.7703 30.5748 3.45306 30.5085 3.0577 30.5085H1.50941V33.5625Z" fill="#CFD1DE"/>
<path d="M6.86274 31.5455V37H7.70081V33.5483C7.70081 33.3021 7.76 33.0831 7.87837 32.8913C7.99911 32.6972 8.16246 32.5457 8.36842 32.4368C8.57676 32.3255 8.8135 32.2699 9.07865 32.2699C9.18992 32.2699 9.29527 32.2782 9.3947 32.2947C9.4965 32.3089 9.56161 32.3196 9.59002 32.3267V31.4744C9.54267 31.4697 9.47283 31.4661 9.3805 31.4638C9.28817 31.4614 9.21123 31.4602 9.14968 31.4602C8.82297 31.4602 8.52941 31.5443 8.26899 31.7124C8.00858 31.8804 7.82865 32.0994 7.72922 32.3693H7.6724V31.5455H6.86274Z" fill="#CFD1DE"/>
<path fill-rule="evenodd" clip-rule="evenodd" d="M11.3372 36.7621C11.7089 36.9964 12.1409 37.1136 12.6333 37.1136C13.1258 37.1136 13.5566 36.9964 13.926 36.7621C14.2976 36.5277 14.5865 36.1998 14.7924 35.7784C15.0008 35.357 15.1049 34.8646 15.1049 34.3011C15.1049 33.733 15.0008 33.237 14.7924 32.8132C14.5865 32.3894 14.2976 32.0604 13.926 31.826C13.5566 31.5916 13.1258 31.4744 12.6333 31.4744C12.1409 31.4744 11.7089 31.5916 11.3372 31.826C10.9679 32.0604 10.679 32.3894 10.4707 32.8132C10.2647 33.237 10.1617 33.733 10.1617 34.3011C10.1617 34.8646 10.2647 35.357 10.4707 35.7784C10.679 36.1998 10.9679 36.5277 11.3372 36.7621ZM13.5566 36.0732C13.3152 36.2649 13.0074 36.3608 12.6333 36.3608C12.2593 36.3608 11.9515 36.2649 11.71 36.0732C11.4686 35.8814 11.2898 35.6293 11.1738 35.3168C11.0578 35.0043 10.9998 34.6657 10.9998 34.3011C10.9998 33.9366 11.0578 33.5968 11.1738 33.282C11.2898 32.9671 11.4686 32.7126 11.71 32.5185C11.9515 32.3243 12.2593 32.2273 12.6333 32.2273C13.0074 32.2273 13.3152 32.3243 13.5566 32.5185C13.7981 32.7126 13.9769 32.9671 14.0929 33.282C14.2089 33.5968 14.2669 33.9366 14.2669 34.3011C14.2669 34.6657 14.2089 35.0043 14.0929 35.3168C13.9769 35.6293 13.7981 35.8814 13.5566 36.0732Z" fill="#CFD1DE"/>
<path d="M16.3487 39.0099C16.46 39.0336 16.5866 39.0455 16.7287 39.0455C16.982 39.0455 17.2093 39.0005 17.4105 38.9105C17.6141 38.8205 17.7928 38.6821 17.9467 38.495C18.1006 38.3104 18.2296 38.0772 18.3338 37.7955L20.6491 31.5455H19.7401L18.2344 35.892H18.1776L16.6719 31.5455H15.7628L17.7798 37.0284L17.6236 37.4545C17.5218 37.7315 17.4093 37.9316 17.2862 38.0547C17.1655 38.1802 17.027 38.25 16.8707 38.2642C16.7145 38.2784 16.5346 38.2595 16.331 38.2074L16.1179 38.946C16.1605 38.9673 16.2374 38.9886 16.3487 39.0099Z" fill="#CFD1DE"/>
<path fill-rule="evenodd" clip-rule="evenodd" d="M22.4869 36.7656C22.868 36.9976 23.3214 37.1136 23.8469 37.1136C24.2163 37.1136 24.5489 37.0568 24.8448 36.9432C25.1407 36.8272 25.3893 36.6662 25.5905 36.4602C25.7918 36.2519 25.935 36.0104 26.0202 35.7358L25.2106 35.5085C25.1396 35.6979 25.0389 35.8565 24.9087 35.9844C24.7785 36.1098 24.6235 36.2045 24.4435 36.2685C24.266 36.33 24.0671 36.3608 23.8469 36.3608C23.5084 36.3608 23.2113 36.2874 22.9556 36.1406C22.6999 35.9915 22.4999 35.7749 22.3555 35.4908C22.2267 35.231 22.1563 34.9197 22.1442 34.5568H26.1055V34.2017C26.1055 33.6927 26.038 33.2642 25.903 32.9162C25.7681 32.5682 25.587 32.2888 25.3597 32.0781C25.1325 31.8651 24.8803 31.7112 24.6033 31.6165C24.3263 31.5218 24.0458 31.4744 23.7617 31.4744C23.2693 31.4744 22.8384 31.5952 22.4691 31.8366C22.1021 32.0758 21.8157 32.4096 21.6097 32.8381C21.4061 33.2642 21.3043 33.7566 21.3043 34.3153C21.3043 34.8741 21.4061 35.3641 21.6097 35.7855C21.8157 36.2045 22.1081 36.5312 22.4869 36.7656ZM22.1464 33.8324C22.1623 33.5794 22.2261 33.3403 22.3377 33.1151C22.4679 32.8523 22.6538 32.6392 22.8952 32.4759C23.1391 32.3101 23.4279 32.2273 23.7617 32.2273C24.0647 32.2273 24.3275 32.2971 24.5501 32.4368C24.775 32.5765 24.9478 32.767 25.0685 33.0085C25.1916 33.25 25.2532 33.5246 25.2532 33.8324H22.1464Z" fill="#CFD1DE"/>
<path d="M28.2752 36.7514C28.6445 36.9929 29.0849 37.1136 29.5962 37.1136C29.9987 37.1136 30.3514 37.0391 30.6545 36.8899C30.9599 36.7384 31.2049 36.5348 31.3896 36.2791C31.5766 36.0211 31.6938 35.7311 31.7411 35.4091H30.903C30.851 35.608 30.7634 35.7784 30.6403 35.9205C30.5172 36.0625 30.3668 36.1714 30.1893 36.2472C30.0117 36.3229 29.814 36.3608 29.5962 36.3608C29.2648 36.3608 28.976 36.2744 28.7298 36.1016C28.4859 35.9287 28.2965 35.6861 28.1616 35.3736C28.029 35.0611 27.9627 34.6941 27.9627 34.2727C27.9627 33.8608 28.0302 33.5021 28.1651 33.1967C28.3024 32.889 28.493 32.651 28.7369 32.483C28.9831 32.3125 29.2695 32.2273 29.5962 32.2273C29.9655 32.2273 30.2591 32.3243 30.4769 32.5185C30.6971 32.7102 30.8391 32.9304 30.903 33.179H31.7411C31.6938 32.8381 31.5718 32.5398 31.3753 32.2841C31.1789 32.0284 30.9267 31.8295 30.619 31.6875C30.3112 31.5455 29.9655 31.4744 29.582 31.4744C29.0896 31.4744 28.6587 31.5952 28.2894 31.8366C27.9225 32.0758 27.636 32.4084 27.43 32.8345C27.2264 33.2583 27.1246 33.7472 27.1246 34.3011C27.1246 34.8456 27.2241 35.3298 27.4229 35.7536C27.6218 36.1773 27.9059 36.5099 28.2752 36.7514Z" fill="#CFD1DE"/>
<path d="M35.3384 32.2557V31.5455H34.1736V30.2386H33.3356V31.5455H32.5117V32.2557H33.3356V35.6648C33.3356 35.982 33.409 36.2448 33.5557 36.4531C33.7049 36.6615 33.8919 36.8165 34.1168 36.9183C34.3441 37.0201 34.5761 37.071 34.8129 37.071C34.9691 37.071 35.0981 37.0592 35.1999 37.0355C35.3017 37.0142 35.381 36.9929 35.4379 36.9716L35.2674 36.2188L35.1254 36.2472C35.0662 36.2566 34.9904 36.2614 34.8981 36.2614C34.775 36.2614 34.6578 36.2424 34.5465 36.2045C34.4376 36.1643 34.3477 36.0862 34.2766 35.9702C34.208 35.8518 34.1736 35.6742 34.1736 35.4375V32.2557H35.3384Z" fill="#CFD1DE"/>
<path fill-rule="evenodd" clip-rule="evenodd" d="M37.4602 36.7621C37.8319 36.9964 38.264 37.1136 38.7564 37.1136C39.2488 37.1136 39.6797 36.9964 40.049 36.7621C40.4207 36.5277 40.7095 36.1998 40.9155 35.7784C41.1238 35.357 41.228 34.8646 41.228 34.3011C41.228 33.733 41.1238 33.237 40.9155 32.8132C40.7095 32.3894 40.4207 32.0604 40.049 31.826C39.6797 31.5916 39.2488 31.4744 38.7564 31.4744C38.264 31.4744 37.8319 31.5916 37.4602 31.826C37.0909 32.0604 36.8021 32.3894 36.5937 32.8132C36.3878 33.237 36.2848 33.733 36.2848 34.3011C36.2848 34.8646 36.3878 35.357 36.5937 35.7784C36.8021 36.1998 37.0909 36.5277 37.4602 36.7621ZM39.6797 36.0732C39.4382 36.2649 39.1304 36.3608 38.7564 36.3608C38.3823 36.3608 38.0746 36.2649 37.8331 36.0732C37.5916 35.8814 37.4129 35.6293 37.2969 35.3168C37.1809 35.0043 37.1229 34.6657 37.1229 34.3011C37.1229 33.9366 37.1809 33.5968 37.2969 33.282C37.4129 32.9671 37.5916 32.7126 37.8331 32.5185C38.0746 32.3243 38.3823 32.2273 38.7564 32.2273C39.1304 32.2273 39.4382 32.3243 39.6797 32.5185C39.9212 32.7126 40.0999 32.9671 40.2159 33.282C40.3319 33.5968 40.3899 33.9366 40.3899 34.3011C40.3899 34.6657 40.3319 35.0043 40.2159 35.3168C40.0999 35.6293 39.9212 35.8814 39.6797 36.0732Z" fill="#CFD1DE"/>
<path d="M45.6181 32.9801L46.3709 32.767C46.2407 32.3788 46.0205 32.0663 45.7104 31.8295C45.4026 31.5928 44.9789 31.4744 44.4391 31.4744C44.0556 31.4744 43.7123 31.5419 43.4093 31.6768C43.1086 31.8118 42.8707 31.9976 42.6955 32.2344C42.5227 32.4711 42.4363 32.7434 42.4363 33.0511C42.4363 33.4276 42.5523 33.7412 42.7843 33.9922C43.0186 34.2408 43.3856 34.4242 43.8851 34.5426L44.7942 34.7557C45.0688 34.8196 45.2724 34.9167 45.405 35.0469C45.5376 35.1747 45.6039 35.3333 45.6039 35.5227C45.6039 35.7571 45.4879 35.9583 45.2559 36.1264C45.0262 36.2921 44.7161 36.375 44.3255 36.375C43.9822 36.375 43.704 36.3016 43.4909 36.1548C43.2802 36.008 43.137 35.7879 43.0613 35.4943L42.2658 35.6932C42.3629 36.1572 42.5937 36.5099 42.9583 36.7514C43.3229 36.9929 43.7833 37.1136 44.3397 37.1136C44.7634 37.1136 45.1351 37.0426 45.4547 36.9006C45.7743 36.7585 46.0229 36.5644 46.2005 36.3182C46.3804 36.072 46.4703 35.7926 46.4703 35.4801C46.4703 35.099 46.3508 34.7876 46.1117 34.5462C45.8726 34.3023 45.5092 34.1212 45.0215 34.0028L44.2118 33.804C43.8899 33.7235 43.6531 33.6229 43.5016 33.5021C43.3501 33.3814 43.2743 33.2169 43.2743 33.0085C43.2743 32.7741 43.3844 32.5812 43.6046 32.4297C43.8271 32.2758 44.1053 32.1989 44.4391 32.1989C44.6829 32.1989 44.883 32.2379 45.0392 32.3161C45.1955 32.3942 45.3186 32.4936 45.4086 32.6143C45.5009 32.7327 45.5707 32.8546 45.6181 32.9801Z" fill="#CFD1DE"/>
</svg>
