<svg width="43" height="69" viewBox="0 0 43 69" fill="none" xmlns="http://www.w3.org/2000/svg">
<path fill-rule="evenodd" clip-rule="evenodd" d="M13.4858 5.4786C13.7897 7.15977 14.8337 8.61507 16.3288 9.44173L36.2507 20.4565C38.0337 21.4424 39.2062 23.254 39.3754 25.2844L42.0761 57.6952C42.0784 57.7225 42.0552 57.7453 42.0278 57.7424C42.0541 57.7463 42.0692 57.7744 42.0579 57.7984L38.6646 65.0454C37.5174 67.4955 34.8728 68.8752 32.2069 68.4144L9.65314 64.516C9.6403 64.5138 9.63525 64.498 9.6444 64.4888C9.63394 64.4985 9.61697 64.4951 9.61115 64.482L-9.3619 21.8481C-10.6829 18.8796 -9.97604 15.4 -7.60144 13.1823L4.01267 2.33568C7.30127 -0.735606 12.6852 1.05064 13.4858 5.4786Z" fill="#02195B"/>
</svg>
