<svg width="38" height="37" viewBox="0 0 38 37" fill="none" xmlns="http://www.w3.org/2000/svg">
<path fill-rule="evenodd" clip-rule="evenodd" d="M10.9381 0.98999C8.70691 0.98999 6.89814 2.79876 6.89814 5.02999V19.196C6.89814 21.4273 8.70691 23.236 10.9381 23.236H27.0616C29.2928 23.236 31.1016 21.4273 31.1016 19.196V8.98068C31.1016 6.74945 29.2928 4.94068 27.0616 4.94068H10.4122C9.85451 4.94068 9.40244 4.48861 9.40244 3.93095C9.40244 3.86539 9.39619 3.8013 9.38426 3.73922C9.75479 3.29365 10.3133 3.00999 10.9381 3.00999H28.0955C28.6533 3.00999 29.1055 2.5578 29.1055 1.99999C29.1055 1.44218 28.6533 0.98999 28.0955 0.98999H10.9381ZM8.91814 19.196V6.5673C9.35903 6.8177 9.8689 6.96068 10.4122 6.96068H27.0616C28.1772 6.96068 29.0816 7.86507 29.0816 8.98068V19.196C29.0816 20.3117 28.1772 21.216 27.0616 21.216H10.9381C9.82252 21.216 8.91814 20.3117 8.91814 19.196Z" fill="#55B3FF"/>
<path fill-rule="evenodd" clip-rule="evenodd" d="M0.783936 28.6821V35.9548H3.41178C3.98469 35.9548 4.44989 35.8696 4.80737 35.6991C5.16485 35.5287 5.42645 35.2979 5.59217 35.0067C5.75789 34.7155 5.84075 34.3876 5.84075 34.023C5.84075 33.6395 5.765 33.3151 5.61348 33.05C5.46197 32.7848 5.27376 32.5812 5.04885 32.4392C4.82395 32.2972 4.60022 32.219 4.37769 32.2048V32.1338C4.58602 32.077 4.77896 31.9894 4.95652 31.871C5.13645 31.7526 5.28086 31.5917 5.38976 31.3881C5.50103 31.1845 5.55666 30.9264 5.55666 30.6139C5.55666 30.2588 5.47617 29.9356 5.31519 29.6445C5.1542 29.3509 4.90917 29.1177 4.5801 28.9449C4.25103 28.7697 3.83318 28.6821 3.32655 28.6821H0.783936ZM3.41178 35.1736H1.66462V32.6452H3.45439C3.77162 32.6452 4.04625 32.7091 4.27825 32.8369C4.51026 32.9624 4.689 33.1305 4.81448 33.3412C4.93995 33.5495 5.00269 33.7768 5.00269 34.023C5.00269 34.3426 4.88076 34.6149 4.63692 34.8398C4.39544 35.0623 3.98706 35.1736 3.41178 35.1736ZM3.29814 31.8781H1.66462V29.4633H3.32655C3.8095 29.4633 4.16225 29.5758 4.38479 29.8007C4.60733 30.0232 4.71859 30.2943 4.71859 30.6139C4.71859 30.8696 4.65467 31.0921 4.52683 31.2815C4.40136 31.4709 4.23091 31.6177 4.01547 31.7219C3.8024 31.826 3.56329 31.8781 3.29814 31.8781Z" fill="#55B3FF"/>
<path d="M7.17421 30.5003V35.9548H8.01227V30.5003H7.17421Z" fill="#55B3FF"/>
<path d="M7.17776 29.4243C7.29613 29.5356 7.43699 29.5912 7.60034 29.5912C7.76369 29.5912 7.90337 29.5356 8.01938 29.4243C8.13775 29.313 8.19693 29.1793 8.19693 29.023C8.19693 28.8668 8.13775 28.733 8.01938 28.6217C7.90337 28.5105 7.76369 28.4548 7.60034 28.4548C7.43699 28.4548 7.29613 28.5105 7.17776 28.6217C7.06175 28.733 7.00375 28.8668 7.00375 29.023C7.00375 29.1793 7.06175 29.313 7.17776 29.4243Z" fill="#55B3FF"/>
<path d="M10.3853 35.9548V28.6821H9.54725V35.9548H10.3853Z" fill="#55B3FF"/>
<path d="M12.7584 35.9548V28.6821H11.9203V35.9548H12.7584Z" fill="#55B3FF"/>
<path fill-rule="evenodd" clip-rule="evenodd" d="M15.2202 35.7205C15.6013 35.9525 16.0547 36.0685 16.5803 36.0685C16.9496 36.0685 17.2822 36.0116 17.5781 35.898C17.8741 35.782 18.1227 35.621 18.3239 35.4151C18.5251 35.2067 18.6683 34.9652 18.7536 34.6906L17.9439 34.4633C17.8729 34.6527 17.7723 34.8114 17.6421 34.9392C17.5119 35.0647 17.3568 35.1594 17.1769 35.2233C16.9993 35.2848 16.8004 35.3156 16.5803 35.3156C16.2417 35.3156 15.9446 35.2422 15.6889 35.0955C15.4333 34.9463 15.2332 34.7297 15.0888 34.4456C14.96 34.1859 14.8896 33.8745 14.8776 33.5116H18.8388V33.1565C18.8388 32.6475 18.7713 32.219 18.6364 31.871C18.5014 31.523 18.3203 31.2437 18.0931 31.0329C17.8658 30.8199 17.6137 30.666 17.3367 30.5713C17.0597 30.4766 16.7791 30.4293 16.4951 30.4293C16.0026 30.4293 15.5718 30.55 15.2024 30.7915C14.8355 31.0306 14.549 31.3644 14.3431 31.7929C14.1395 32.219 14.0377 32.7115 14.0377 33.2702C14.0377 33.8289 14.1395 34.3189 14.3431 34.7403C14.549 35.1594 14.8414 35.4861 15.2202 35.7205ZM14.8797 32.7872C14.8957 32.5342 14.9595 32.2951 15.071 32.0699C15.2013 31.8071 15.3871 31.594 15.6286 31.4307C15.8724 31.265 16.1612 31.1821 16.4951 31.1821C16.7981 31.1821 17.0609 31.2519 17.2834 31.3916C17.5083 31.5313 17.6811 31.7219 17.8019 31.9633C17.925 32.2048 17.9865 32.4794 17.9865 32.7872H14.8797Z" fill="#55B3FF"/>
<path d="M22.4858 31.2105V30.5003H21.321V29.1935H20.483V30.5003H19.6591V31.2105H20.483V34.6196C20.483 34.9368 20.5564 35.1996 20.7031 35.408C20.8523 35.6163 21.0393 35.7714 21.2642 35.8731C21.4915 35.9749 21.7235 36.0258 21.9602 36.0258C22.1165 36.0258 22.2455 36.014 22.3473 35.9903C22.4491 35.969 22.5284 35.9477 22.5852 35.9264L22.4148 35.1736L22.2727 35.202C22.2136 35.2115 22.1378 35.2162 22.0455 35.2162C21.9224 35.2162 21.8052 35.1973 21.6939 35.1594C21.585 35.1191 21.4951 35.041 21.424 34.925C21.3554 34.8066 21.321 34.6291 21.321 34.3923V31.2105H22.4858Z" fill="#55B3FF"/>
<path fill-rule="evenodd" clip-rule="evenodd" d="M24.6147 35.7205C24.9959 35.9525 25.4492 36.0685 25.9748 36.0685C26.3441 36.0685 26.6768 36.0116 26.9727 35.898C27.2686 35.782 27.5172 35.621 27.7184 35.4151C27.9196 35.2067 28.0629 34.9652 28.1481 34.6906L27.3384 34.4633C27.2674 34.6527 27.1668 34.8114 27.0366 34.9392C26.9064 35.0647 26.7513 35.1594 26.5714 35.2233C26.3938 35.2848 26.195 35.3156 25.9748 35.3156C25.6363 35.3156 25.3392 35.2422 25.0835 35.0955C24.8278 34.9463 24.6277 34.7297 24.4833 34.4456C24.3545 34.1859 24.2841 33.8745 24.2721 33.5116H28.2333V33.1565C28.2333 32.6475 28.1659 32.219 28.0309 31.871C27.896 31.523 27.7149 31.2437 27.4876 31.0329C27.2603 30.8199 27.0082 30.666 26.7312 30.5713C26.4542 30.4766 26.1737 30.4293 25.8896 30.4293C25.3972 30.4293 24.9663 30.55 24.597 30.7915C24.23 31.0306 23.9436 31.3644 23.7376 31.7929C23.534 32.219 23.4322 32.7115 23.4322 33.2702C23.4322 33.8289 23.534 34.3189 23.7376 34.7403C23.9436 35.1594 24.2359 35.4861 24.6147 35.7205ZM24.2743 32.7872C24.2902 32.5342 24.354 32.2951 24.4656 32.0699C24.5958 31.8071 24.7816 31.594 25.0231 31.4307C25.2669 31.265 25.5558 31.1821 25.8896 31.1821C26.1926 31.1821 26.4554 31.2519 26.6779 31.3916C26.9028 31.5313 27.0757 31.7219 27.1964 31.9633C27.3195 32.2048 27.3811 32.4794 27.3811 32.7872H24.2743Z" fill="#55B3FF"/>
<path d="M29.5082 30.5003V35.9548H30.3463V32.5031C30.3463 32.2569 30.4054 32.0379 30.5238 31.8462C30.6446 31.652 30.8079 31.5005 31.0139 31.3916C31.2222 31.2803 31.4589 31.2247 31.7241 31.2247C31.8354 31.2247 31.9407 31.233 32.0401 31.2496C32.1419 31.2638 32.2071 31.2744 32.2355 31.2815V30.4293C32.1881 30.4245 32.1183 30.421 32.0259 30.4186C31.9336 30.4162 31.8567 30.4151 31.7951 30.4151C31.4684 30.4151 31.1749 30.4991 30.9144 30.6672C30.654 30.8353 30.4741 31.0543 30.3747 31.3241H30.3178V30.5003H29.5082Z" fill="#55B3FF"/>
<path fill-rule="evenodd" clip-rule="evenodd" d="M33.893 35.8874C34.1747 36.0176 34.4884 36.0827 34.834 36.0827C35.1512 36.0827 35.4199 36.0353 35.6401 35.9406C35.8603 35.8459 36.0367 35.7311 36.1692 35.5962C36.3018 35.4612 36.3965 35.3346 36.4533 35.2162H36.4959V35.9548H37.334V32.3611C37.334 31.9278 37.263 31.5822 37.1209 31.3241C36.9789 31.0661 36.8002 30.8731 36.5847 30.7453C36.3717 30.6175 36.1503 30.5334 35.9207 30.4932C35.6934 30.4506 35.4922 30.4293 35.317 30.4293C35.0423 30.4293 34.763 30.4671 34.4789 30.5429C34.1972 30.6163 33.9368 30.7465 33.6976 30.9335C33.4609 31.1182 33.2715 31.3762 33.1295 31.7077L33.9249 31.9918C34.0172 31.7929 34.177 31.6059 34.4043 31.4307C34.6316 31.2555 34.9453 31.1679 35.3454 31.1679C35.7313 31.1679 36.0189 31.265 36.2083 31.4591C36.4001 31.6532 36.4959 31.9255 36.4959 32.2758V32.3043C36.4959 32.4392 36.4474 32.5339 36.3503 32.5883C36.2556 32.6428 36.1041 32.6819 35.8958 32.7055C35.6898 32.7268 35.4211 32.7588 35.0897 32.8014C34.8364 32.8346 34.5842 32.8795 34.3333 32.9364C34.0847 32.9908 33.8574 33.0737 33.6515 33.1849C33.4455 33.2962 33.281 33.4501 33.1579 33.6466C33.0348 33.8407 32.9732 34.094 32.9732 34.4065C32.9732 34.7616 33.0561 35.0647 33.2218 35.3156C33.3875 35.5642 33.6112 35.7548 33.893 35.8874ZM35.7999 35.1345C35.5726 35.2647 35.2933 35.3298 34.9618 35.3298C34.628 35.3298 34.3522 35.2564 34.1344 35.1097C33.919 34.9605 33.8113 34.7403 33.8113 34.4491C33.8113 34.2361 33.8681 34.068 33.9817 33.9449C34.0977 33.8194 34.2493 33.7259 34.4363 33.6643C34.6257 33.6004 34.8293 33.5543 35.0471 33.5258C35.137 33.514 35.2542 33.4998 35.3986 33.4832C35.5454 33.4643 35.6958 33.443 35.8496 33.4193C36.0059 33.3933 36.1432 33.3637 36.2616 33.3305C36.3823 33.295 36.4604 33.256 36.4959 33.2133V33.9804C36.4959 34.2077 36.4368 34.4243 36.3184 34.6302C36.2024 34.8362 36.0296 35.0043 35.7999 35.1345Z" fill="#55B3FF"/>
</svg>
