<svg width="38" height="36" viewBox="0 0 38 36" fill="none" xmlns="http://www.w3.org/2000/svg">
<path fill-rule="evenodd" clip-rule="evenodd" d="M10.9382 0.0349121C8.70697 0.0349121 6.8982 1.84368 6.8982 4.07491V18.241C6.8982 20.4722 8.70697 22.281 10.9382 22.281H27.0616C29.2928 22.281 31.1016 20.4722 31.1016 18.241V8.02561C31.1016 5.79437 29.2928 3.98561 27.0616 3.98561H10.4122C9.85457 3.98561 9.4025 3.53353 9.4025 2.97587C9.4025 2.91031 9.39625 2.84622 9.38432 2.78414C9.75485 2.33858 10.3134 2.05491 10.9382 2.05491H28.0955C28.6533 2.05491 29.1055 1.60272 29.1055 1.04491C29.1055 0.487105 28.6533 0.0349121 28.0955 0.0349121H10.9382ZM8.9182 18.241V5.61222C9.35909 5.86262 9.86896 6.00561 10.4122 6.00561H27.0616C28.1772 6.00561 29.0816 6.90999 29.0816 8.02561V18.241C29.0816 19.3566 28.1772 20.261 27.0616 20.261H10.9382C9.82258 20.261 8.9182 19.3566 8.9182 18.241Z" fill="#CFD1DE"/>
<path fill-rule="evenodd" clip-rule="evenodd" d="M0.783997 27.7273V35H3.41184C3.98475 35 4.44995 34.9148 4.80743 34.7443C5.16492 34.5739 5.42652 34.343 5.59224 34.0518C5.75795 33.7606 5.84081 33.4328 5.84081 33.0682C5.84081 32.6847 5.76506 32.3603 5.61354 32.0952C5.46203 31.83 5.27382 31.6264 5.04891 31.4844C4.82401 31.3423 4.60028 31.2642 4.37775 31.25V31.179C4.58608 31.1222 4.77903 31.0346 4.95658 30.9162C5.13651 30.7978 5.28092 30.6368 5.38982 30.4332C5.50109 30.2296 5.55672 29.9716 5.55672 29.6591C5.55672 29.304 5.47623 28.9808 5.31525 28.6896C5.15426 28.3961 4.90923 28.1629 4.58016 27.99C4.25109 27.8149 3.83324 27.7273 3.32661 27.7273H0.783997ZM3.41184 34.2187H1.66468V31.6903H3.45445C3.77169 31.6903 4.04631 31.7543 4.27831 31.8821C4.51032 32.0076 4.68906 32.1757 4.81454 32.3864C4.94001 32.5947 5.00275 32.822 5.00275 33.0682C5.00275 33.3878 4.88082 33.66 4.63698 33.8849C4.3955 34.1075 3.98712 34.2187 3.41184 34.2187ZM3.2982 30.9233H1.66468V28.5085H3.32661C3.80956 28.5085 4.16231 28.621 4.38485 28.8459C4.60739 29.0684 4.71866 29.3395 4.71866 29.6591C4.71866 29.9148 4.65474 30.1373 4.52689 30.3267C4.40142 30.5161 4.23097 30.6629 4.01553 30.767C3.80246 30.8712 3.56335 30.9233 3.2982 30.9233Z" fill="#CFD1DE"/>
<path d="M7.17427 29.5454V35H8.01233V29.5454H7.17427Z" fill="#CFD1DE"/>
<path d="M7.17782 28.4694C7.29619 28.5807 7.43705 28.6364 7.6004 28.6364C7.76375 28.6364 7.90343 28.5807 8.01944 28.4694C8.13781 28.3582 8.19699 28.2244 8.19699 28.0682C8.19699 27.9119 8.13781 27.7782 8.01944 27.6669C7.90343 27.5556 7.76375 27.5 7.6004 27.5C7.43705 27.5 7.29619 27.5556 7.17782 27.6669C7.06181 27.7782 7.00381 27.9119 7.00381 28.0682C7.00381 28.2244 7.06181 28.3582 7.17782 28.4694Z" fill="#CFD1DE"/>
<path d="M10.3854 35V27.7273H9.54731V35H10.3854Z" fill="#CFD1DE"/>
<path d="M12.7584 35V27.7273H11.9204V35H12.7584Z" fill="#CFD1DE"/>
<path fill-rule="evenodd" clip-rule="evenodd" d="M15.2203 34.7656C15.6014 34.9976 16.0548 35.1136 16.5803 35.1136C16.9497 35.1136 17.2823 35.0568 17.5782 34.9432C17.8741 34.8272 18.1227 34.6662 18.3239 34.4602C18.5252 34.2519 18.6684 34.0104 18.7536 33.7358L17.944 33.5085C17.873 33.6979 17.7723 33.8565 17.6421 33.9844C17.5119 34.1098 17.3569 34.2045 17.1769 34.2685C16.9994 34.33 16.8005 34.3608 16.5803 34.3608C16.2418 34.3608 15.9447 34.2874 15.689 34.1406C15.4333 33.9915 15.2333 33.7748 15.0889 33.4908C14.9601 33.231 14.8897 32.9197 14.8776 32.5568H18.8389V32.2017C18.8389 31.6927 18.7714 31.2642 18.6364 30.9162C18.5015 30.5682 18.3204 30.2888 18.0931 30.0781C17.8659 29.865 17.6137 29.7112 17.3367 29.6165C17.0597 29.5218 16.7792 29.4744 16.4951 29.4744C16.0027 29.4744 15.5718 29.5952 15.2025 29.8366C14.8355 30.0757 14.5491 30.4096 14.3431 30.8381C14.1395 31.2642 14.0377 31.7566 14.0377 32.3153C14.0377 32.874 14.1395 33.3641 14.3431 33.7855C14.5491 34.2045 14.8415 34.5312 15.2203 34.7656ZM14.8798 31.8324C14.8957 31.5794 14.9595 31.3402 15.0711 31.115C15.2013 30.8523 15.3872 30.6392 15.6286 30.4758C15.8725 30.3101 16.1613 30.2273 16.4951 30.2273C16.7981 30.2273 17.0609 30.2971 17.2835 30.4368C17.5084 30.5765 17.6812 30.767 17.8019 31.0085C17.925 31.25 17.9866 31.5246 17.9866 31.8324H14.8798Z" fill="#CFD1DE"/>
<path d="M22.4859 30.2557V29.5454H21.3211V28.2386H20.483V29.5454H19.6592V30.2557H20.483V33.6648C20.483 33.982 20.5564 34.2448 20.7032 34.4531C20.8524 34.6614 21.0394 34.8165 21.2643 34.9183C21.4916 35.0201 21.7236 35.071 21.9603 35.071C22.1166 35.071 22.2456 35.0592 22.3474 35.0355C22.4492 35.0142 22.5285 34.9929 22.5853 34.9716L22.4149 34.2187L22.2728 34.2472C22.2136 34.2566 22.1379 34.2614 22.0455 34.2614C21.9224 34.2614 21.8052 34.2424 21.694 34.2045C21.5851 34.1643 21.4951 34.0862 21.4241 33.9702C21.3554 33.8518 21.3211 33.6742 21.3211 33.4375V30.2557H22.4859Z" fill="#CFD1DE"/>
<path fill-rule="evenodd" clip-rule="evenodd" d="M24.6148 34.7656C24.9959 34.9976 25.4493 35.1136 25.9749 35.1136C26.3442 35.1136 26.6768 35.0568 26.9727 34.9432C27.2687 34.8272 27.5172 34.6662 27.7185 34.4602C27.9197 34.2519 28.0629 34.0104 28.1482 33.7358L27.3385 33.5085C27.2675 33.6979 27.1669 33.8565 27.0367 33.9844C26.9065 34.1098 26.7514 34.2045 26.5715 34.2685C26.3939 34.33 26.195 34.3608 25.9749 34.3608C25.6363 34.3608 25.3392 34.2874 25.0835 34.1406C24.8279 33.9915 24.6278 33.7748 24.4834 33.4908C24.3546 33.231 24.2842 32.9197 24.2722 32.5568H28.2334V32.2017C28.2334 31.6927 28.1659 31.2642 28.031 30.9162C27.896 30.5682 27.7149 30.2888 27.4877 30.0781C27.2604 29.865 27.0083 29.7112 26.7313 29.6165C26.4543 29.5218 26.1737 29.4744 25.8896 29.4744C25.3972 29.4744 24.9663 29.5952 24.597 29.8366C24.2301 30.0757 23.9436 30.4096 23.7377 30.8381C23.5341 31.2642 23.4323 31.7566 23.4323 32.3153C23.4323 32.874 23.5341 33.3641 23.7377 33.7855C23.9436 34.2045 24.236 34.5312 24.6148 34.7656ZM24.2743 31.8324C24.2903 31.5794 24.3541 31.3402 24.4656 31.115C24.5958 30.8523 24.7817 30.6392 25.0232 30.4758C25.267 30.3101 25.5558 30.2273 25.8896 30.2273C26.1927 30.2273 26.4555 30.2971 26.678 30.4368C26.9029 30.5765 27.0757 30.767 27.1965 31.0085C27.3196 31.25 27.3811 31.5246 27.3811 31.8324H24.2743Z" fill="#CFD1DE"/>
<path d="M29.5083 29.5454V35H30.3463V31.5483C30.3463 31.3021 30.4055 31.0831 30.5239 30.8913C30.6446 30.6972 30.808 30.5457 31.0139 30.4368C31.2223 30.3255 31.459 30.2699 31.7242 30.2699C31.8354 30.2699 31.9408 30.2782 32.0402 30.2947C32.142 30.3089 32.2071 30.3196 32.2355 30.3267V29.4744C32.1882 29.4697 32.1183 29.4661 32.026 29.4638C31.9337 29.4614 31.8567 29.4602 31.7952 29.4602C31.4685 29.4602 31.1749 29.5443 30.9145 29.7123C30.6541 29.8804 30.4742 30.0994 30.3747 30.3693H30.3179V29.5454H29.5083Z" fill="#CFD1DE"/>
<path fill-rule="evenodd" clip-rule="evenodd" d="M33.893 34.9325C34.1747 35.0627 34.4884 35.1278 34.8341 35.1278C35.1513 35.1278 35.42 35.0805 35.6402 34.9858C35.8603 34.8911 36.0367 34.7763 36.1693 34.6413C36.3019 34.5064 36.3966 34.3797 36.4534 34.2614H36.496V35H37.3341V31.4062C37.3341 30.973 37.263 30.6274 37.121 30.3693C36.979 30.1113 36.8002 29.9183 36.5848 29.7905C36.3717 29.6626 36.1504 29.5786 35.9207 29.5383C35.6934 29.4957 35.4922 29.4744 35.317 29.4744C35.0424 29.4744 34.763 29.5123 34.479 29.5881C34.1972 29.6614 33.9368 29.7917 33.6977 29.9787C33.461 30.1633 33.2716 30.4214 33.1295 30.7528L33.925 31.0369C34.0173 30.8381 34.1771 30.651 34.4044 30.4758C34.6317 30.3007 34.9453 30.2131 35.3454 30.2131C35.7313 30.2131 36.019 30.3101 36.2084 30.5043C36.4001 30.6984 36.496 30.9706 36.496 31.321V31.3494C36.496 31.4844 36.4475 31.5791 36.3504 31.6335C36.2557 31.688 36.1042 31.727 35.8959 31.7507C35.6899 31.772 35.4212 31.804 35.0898 31.8466C34.8364 31.8797 34.5843 31.9247 34.3334 31.9815C34.0848 32.036 33.8575 32.1188 33.6515 32.2301C33.4456 32.3414 33.281 32.4953 33.1579 32.6918C33.0348 32.8859 32.9733 33.1392 32.9733 33.4517C32.9733 33.8068 33.0561 34.1098 33.2219 34.3608C33.3876 34.6094 33.6113 34.7999 33.893 34.9325ZM35.8 34.1797C35.5727 34.3099 35.2934 34.375 34.9619 34.375C34.6281 34.375 34.3523 34.3016 34.1345 34.1548C33.9191 34.0057 33.8113 33.7855 33.8113 33.4943C33.8113 33.2812 33.8682 33.1132 33.9818 32.99C34.0978 32.8646 34.2493 32.7711 34.4363 32.7095C34.6257 32.6456 34.8293 32.5994 35.0471 32.571C35.1371 32.5592 35.2543 32.545 35.3987 32.5284C35.5455 32.5095 35.6958 32.4882 35.8497 32.4645C36.0059 32.4384 36.1433 32.4088 36.2616 32.3757C36.3824 32.3402 36.4605 32.3011 36.496 32.2585V33.0256C36.496 33.2528 36.4368 33.4695 36.3184 33.6754C36.2024 33.8814 36.0296 34.0495 35.8 34.1797Z" fill="#CFD1DE"/>
</svg>
