<svg width="24" height="37" viewBox="0 0 24 37" fill="none" xmlns="http://www.w3.org/2000/svg">
<path fill-rule="evenodd" clip-rule="evenodd" d="M6.93201 6.07911C6.93201 2.72795 9.64866 0.0112915 12.9998 0.0112915C16.351 0.0112915 19.0676 2.72795 19.0676 6.07911C19.0676 9.43027 16.351 12.1469 12.9998 12.1469C9.64866 12.1469 6.93201 9.43027 6.93201 6.07911ZM12.9998 2.0339C10.7657 2.0339 8.95461 3.845 8.95461 6.07911C8.95461 8.31322 10.7657 10.1243 12.9998 10.1243C15.2339 10.1243 17.045 8.31322 17.045 6.07911C17.045 3.845 15.2339 2.0339 12.9998 2.0339Z" fill="#55B3FF"/>
<path d="M12.9998 16.6978C10.6001 16.6978 8.32632 17.2309 6.7702 17.7112C5.87946 17.9862 5.22492 18.7929 5.06473 19.8227L4.89738 20.8984C4.81153 21.4503 4.29455 21.8281 3.74266 21.7423C3.19077 21.6564 2.81297 21.1394 2.89881 20.5876L3.06616 19.5118C3.32785 17.8295 4.4418 16.3132 6.17361 15.7786C7.83647 15.2653 10.3238 14.6752 12.9998 14.6752C15.6758 14.6752 18.1632 15.2653 19.826 15.7786C21.5579 16.3132 22.6718 17.8295 22.9335 19.5118L23.1008 20.5876C23.1867 21.1394 22.8089 21.6564 22.257 21.7423C21.7051 21.8281 21.1881 21.4503 21.1023 20.8984L20.9349 19.8227C20.7747 18.7929 20.1202 17.9862 19.2295 17.7112C17.6733 17.2309 15.3995 16.6978 12.9998 16.6978Z" fill="#55B3FF"/>
<path fill-rule="evenodd" clip-rule="evenodd" d="M0.619873 28.7273V36H1.50055V33.3437H3.09146C3.65728 33.3437 4.12129 33.2408 4.48351 33.0348C4.84573 32.8265 5.11324 32.5471 5.28607 32.1967C5.46126 31.8463 5.54885 31.4569 5.54885 31.0284C5.54885 30.5999 5.46126 30.2116 5.28607 29.8636C5.11088 29.5156 4.84099 29.2398 4.47641 29.0362C4.11419 28.8302 3.64781 28.7273 3.07726 28.7273H0.619873ZM1.50055 32.5625H3.06306C3.45368 32.5625 3.76736 32.495 4.00411 32.3601C4.24085 32.2251 4.41249 32.0428 4.51902 31.8132C4.62792 31.5812 4.68237 31.3196 4.68237 31.0284C4.68237 30.7372 4.62792 30.4768 4.51902 30.2471C4.41249 30.0175 4.23966 29.8376 4.00056 29.7074C3.76145 29.5748 3.44421 29.5085 3.04885 29.5085H1.50055V32.5625Z" fill="#55B3FF"/>
<path fill-rule="evenodd" clip-rule="evenodd" d="M7.72215 35.7656C8.1033 35.9976 8.55666 36.1136 9.08223 36.1136C9.45155 36.1136 9.78417 36.0568 10.0801 35.9432C10.376 35.8272 10.6246 35.6662 10.8258 35.4602C11.0271 35.2519 11.1703 35.0104 11.2555 34.7358L10.4459 34.5085C10.3748 34.6979 10.2742 34.8565 10.144 34.9844C10.0138 35.1098 9.85875 35.2045 9.67882 35.2685C9.50127 35.33 9.3024 35.3608 9.08223 35.3608C8.74369 35.3608 8.44658 35.2874 8.1909 35.1406C7.93521 34.9915 7.73517 34.7748 7.59075 34.4908C7.46196 34.231 7.39155 33.9197 7.37954 33.5568H11.3408V33.2017C11.3408 32.6927 11.2733 32.2642 11.1383 31.9162C11.0034 31.5682 10.8223 31.2888 10.595 31.0781C10.3677 30.865 10.1156 30.7112 9.83862 30.6165C9.56163 30.5218 9.28109 30.4744 8.997 30.4744C8.50458 30.4744 8.07371 30.5952 7.70439 30.8366C7.33744 31.0757 7.05098 31.4096 6.84502 31.8381C6.64142 32.2642 6.53962 32.7566 6.53962 33.3153C6.53962 33.874 6.64142 34.3641 6.84502 34.7855C7.05098 35.2045 7.34336 35.5312 7.72215 35.7656ZM7.38168 32.8324C7.39764 32.5794 7.46141 32.3402 7.573 32.115C7.70321 31.8523 7.88905 31.6392 8.13053 31.4758C8.37437 31.3101 8.6632 31.2273 8.997 31.2273C9.30003 31.2273 9.56282 31.2971 9.78536 31.4368C10.0103 31.5765 10.1831 31.767 10.3038 32.0085C10.4269 32.25 10.4885 32.5246 10.4885 32.8324H7.38168Z" fill="#55B3FF"/>
<path d="M12.6156 30.5454V36H13.4537V32.5483C13.4537 32.3021 13.5129 32.0831 13.6312 31.8913C13.752 31.6972 13.9153 31.5457 14.1213 31.4368C14.3296 31.3255 14.5664 31.2699 14.8315 31.2699C14.9428 31.2699 15.0481 31.2782 15.1476 31.2947C15.2494 31.3089 15.3145 31.3196 15.3429 31.3267V30.4744C15.2955 30.4697 15.2257 30.4661 15.1334 30.4638C15.041 30.4614 14.9641 30.4602 14.9025 30.4602C14.5758 30.4602 14.2823 30.5443 14.0219 30.7123C13.7614 30.8804 13.5815 31.0994 13.4821 31.3693H13.4253V30.5454H12.6156Z" fill="#55B3FF"/>
<path d="M19.1071 31.2557V30.5454H17.8855V29.9915C17.8855 29.7216 17.9459 29.5168 18.0666 29.3771C18.1897 29.2374 18.3898 29.1676 18.6667 29.1676C18.7875 29.1676 18.8846 29.1783 18.9579 29.1996C19.0337 29.2209 19.0929 29.2386 19.1355 29.2528L19.377 28.5284C19.3131 28.5 19.216 28.4692 19.0858 28.4361C18.9556 28.4029 18.7875 28.3864 18.5815 28.3864C18.3211 28.3864 18.0737 28.4384 17.8393 28.5426C17.605 28.6468 17.4144 28.803 17.2676 29.0114C17.1208 29.2197 17.0474 29.4801 17.0474 29.7926V30.5454H16.1667V31.2557H17.0474V36H17.8855V31.2557H19.1071Z" fill="#55B3FF"/>
<path d="M20.2816 30.5454V36H21.1197V30.5454H20.2816Z" fill="#55B3FF"/>
<path d="M20.2852 29.4694C20.4035 29.5807 20.5444 29.6364 20.7078 29.6364C20.8711 29.6364 21.0108 29.5807 21.1268 29.4694C21.2452 29.3582 21.3044 29.2244 21.3044 29.0682C21.3044 28.9119 21.2452 28.7782 21.1268 28.6669C21.0108 28.5556 20.8711 28.5 20.7078 28.5C20.5444 28.5 20.4035 28.5556 20.2852 28.6669C20.1692 28.7782 20.1112 28.9119 20.1112 29.0682C20.1112 29.2244 20.1692 29.3582 20.2852 29.4694Z" fill="#55B3FF"/>
<path d="M23.4927 36V28.7273H22.6547V36H23.4927Z" fill="#55B3FF"/>
</svg>
