<svg width="38" height="36" viewBox="0 0 38 36" fill="none" xmlns="http://www.w3.org/2000/svg">
<path fill-rule="evenodd" clip-rule="evenodd" d="M10.9384 0.534912C8.70715 0.534912 6.89838 2.34368 6.89838 4.57491V18.741C6.89838 20.9722 8.70715 22.781 10.9384 22.781H27.0618C29.293 22.781 31.1018 20.9722 31.1018 18.741V8.52561C31.1018 6.29437 29.293 4.48561 27.0618 4.48561H10.4124C9.85475 4.48561 9.40268 4.03353 9.40268 3.47587C9.40268 3.41031 9.39643 3.34622 9.38451 3.28414C9.75504 2.83858 10.3136 2.55491 10.9384 2.55491H28.0957C28.6535 2.55491 29.1057 2.10272 29.1057 1.54491C29.1057 0.987105 28.6535 0.534912 28.0957 0.534912H10.9384ZM8.91838 18.741V6.11222C9.35927 6.36262 9.86915 6.50561 10.4124 6.50561H27.0618C28.1774 6.50561 29.0818 7.40999 29.0818 8.52561V18.741C29.0818 19.8566 28.1774 20.761 27.0618 20.761H10.9384C9.82277 20.761 8.91838 19.8566 8.91838 18.741Z" fill="#55B3FF"/>
<path fill-rule="evenodd" clip-rule="evenodd" d="M0.78418 28.2273V35.5H3.41202C3.98494 35.5 4.45014 35.4148 4.80762 35.2443C5.1651 35.0739 5.4267 34.843 5.59242 34.5518C5.75814 34.2606 5.841 33.9328 5.841 33.5682C5.841 33.1847 5.76524 32.8603 5.61373 32.5952C5.46221 32.33 5.274 32.1264 5.04909 31.9844C4.82419 31.8423 4.60047 31.7642 4.37793 31.75V31.679C4.58626 31.6222 4.77921 31.5346 4.95677 31.4162C5.13669 31.2978 5.2811 31.1368 5.39 30.9332C5.50127 30.7296 5.55691 30.4716 5.55691 30.1591C5.55691 29.804 5.47641 29.4808 5.31543 29.1896C5.15445 28.8961 4.90942 28.6629 4.58034 28.49C4.25127 28.3149 3.83342 28.2273 3.32679 28.2273H0.78418ZM3.41202 34.7187H1.66486V32.1903H3.45463C3.77187 32.1903 4.04649 32.2543 4.2785 32.3821C4.51051 32.5076 4.68925 32.6757 4.81472 32.8864C4.94019 33.0947 5.00293 33.322 5.00293 33.5682C5.00293 33.8878 4.88101 34.16 4.63716 34.3849C4.39569 34.6075 3.9873 34.7187 3.41202 34.7187ZM3.29838 31.4233H1.66486V29.0085H3.32679C3.80975 29.0085 4.16249 29.121 4.38503 29.3459C4.60757 29.5684 4.71884 29.8395 4.71884 30.1591C4.71884 30.4148 4.65492 30.6373 4.52708 30.8267C4.4016 31.0161 4.23115 31.1629 4.01571 31.267C3.80265 31.3712 3.56354 31.4233 3.29838 31.4233Z" fill="#55B3FF"/>
<path d="M7.17445 30.0454V35.5H8.01252V30.0454H7.17445Z" fill="#55B3FF"/>
<path d="M7.178 28.9694C7.29637 29.0807 7.43723 29.1364 7.60059 29.1364C7.76394 29.1364 7.90362 29.0807 8.01962 28.9694C8.13799 28.8582 8.19718 28.7244 8.19718 28.5682C8.19718 28.4119 8.13799 28.2782 8.01962 28.1669C7.90362 28.0556 7.76394 28 7.60059 28C7.43723 28 7.29637 28.0556 7.178 28.1669C7.062 28.2782 7.00399 28.4119 7.00399 28.5682C7.00399 28.7244 7.062 28.8582 7.178 28.9694Z" fill="#55B3FF"/>
<path d="M10.3856 35.5V28.2273H9.5475V35.5H10.3856Z" fill="#55B3FF"/>
<path d="M12.7586 35.5V28.2273H11.9205V35.5H12.7586Z" fill="#55B3FF"/>
<path fill-rule="evenodd" clip-rule="evenodd" d="M15.2204 35.2656C15.6016 35.4976 16.055 35.6136 16.5805 35.6136C16.9498 35.6136 17.2825 35.5568 17.5784 35.4432C17.8743 35.3272 18.1229 35.1662 18.3241 34.9602C18.5254 34.7519 18.6686 34.5104 18.7538 34.2358L17.9442 34.0085C17.8731 34.1979 17.7725 34.3565 17.6423 34.4844C17.5121 34.6098 17.357 34.7045 17.1771 34.7685C16.9996 34.83 16.8007 34.8608 16.5805 34.8608C16.242 34.8608 15.9449 34.7874 15.6892 34.6406C15.4335 34.4915 15.2335 34.2748 15.089 33.9908C14.9602 33.731 14.8898 33.4197 14.8778 33.0568H18.839V32.7017C18.839 32.1927 18.7716 31.7642 18.6366 31.4162C18.5017 31.0682 18.3206 30.7888 18.0933 30.5781C17.866 30.365 17.6139 30.2112 17.3369 30.1165C17.0599 30.0218 16.7794 29.9744 16.4953 29.9744C16.0029 29.9744 15.572 30.0952 15.2027 30.3366C14.8357 30.5757 14.5493 30.9096 14.3433 31.3381C14.1397 31.7642 14.0379 32.2566 14.0379 32.8153C14.0379 33.374 14.1397 33.8641 14.3433 34.2855C14.5493 34.7045 14.8416 35.0312 15.2204 35.2656ZM14.88 32.3324C14.8959 32.0794 14.9597 31.8402 15.0713 31.615C15.2015 31.3523 15.3873 31.1392 15.6288 30.9758C15.8727 30.8101 16.1615 30.7273 16.4953 30.7273C16.7983 30.7273 17.0611 30.7971 17.2836 30.9368C17.5086 31.0765 17.6814 31.267 17.8021 31.5085C17.9252 31.75 17.9868 32.0246 17.9868 32.3324H14.88Z" fill="#55B3FF"/>
<path d="M22.4861 30.7557V30.0454H21.3213V28.7386H20.4832V30.0454H19.6594V30.7557H20.4832V34.1648C20.4832 34.482 20.5566 34.7448 20.7034 34.9531C20.8525 35.1614 21.0396 35.3165 21.2645 35.4183C21.4917 35.5201 21.7238 35.571 21.9605 35.571C22.1167 35.571 22.2458 35.5592 22.3476 35.5355C22.4494 35.5142 22.5287 35.4929 22.5855 35.4716L22.415 34.7187L22.273 34.7472C22.2138 34.7566 22.1381 34.7614 22.0457 34.7614C21.9226 34.7614 21.8054 34.7424 21.6942 34.7045C21.5853 34.6643 21.4953 34.5862 21.4243 34.4702C21.3556 34.3518 21.3213 34.1742 21.3213 33.9375V30.7557H22.4861Z" fill="#55B3FF"/>
<path fill-rule="evenodd" clip-rule="evenodd" d="M24.615 35.2656C24.9961 35.4976 25.4495 35.6136 25.9751 35.6136C26.3444 35.6136 26.677 35.5568 26.9729 35.4432C27.2689 35.3272 27.5174 35.1662 27.7187 34.9602C27.9199 34.7519 28.0631 34.5104 28.1483 34.2358L27.3387 34.0085C27.2677 34.1979 27.1671 34.3565 27.0368 34.4844C26.9066 34.6098 26.7516 34.7045 26.5716 34.7685C26.3941 34.83 26.1952 34.8608 25.9751 34.8608C25.6365 34.8608 25.3394 34.7874 25.0837 34.6406C24.828 34.4915 24.628 34.2748 24.4836 33.9908C24.3548 33.731 24.2844 33.4197 24.2724 33.0568H28.2336V32.7017C28.2336 32.1927 28.1661 31.7642 28.0312 31.4162C27.8962 31.0682 27.7151 30.7888 27.4878 30.5781C27.2606 30.365 27.0084 30.2112 26.7314 30.1165C26.4545 30.0218 26.1739 29.9744 25.8898 29.9744C25.3974 29.9744 24.9665 30.0952 24.5972 30.3366C24.2303 30.5757 23.9438 30.9096 23.7378 31.3381C23.5342 31.7642 23.4324 32.2566 23.4324 32.8153C23.4324 33.374 23.5342 33.8641 23.7378 34.2855C23.9438 34.7045 24.2362 35.0312 24.615 35.2656ZM24.2745 32.3324C24.2905 32.0794 24.3542 31.8402 24.4658 31.615C24.596 31.3523 24.7819 31.1392 25.0233 30.9758C25.2672 30.8101 25.556 30.7273 25.8898 30.7273C26.1929 30.7273 26.4556 30.7971 26.6782 30.9368C26.9031 31.0765 27.0759 31.267 27.1966 31.5085C27.3197 31.75 27.3813 32.0246 27.3813 32.3324H24.2745Z" fill="#55B3FF"/>
<path d="M29.5084 30.0454V35.5H30.3465V32.0483C30.3465 31.8021 30.4057 31.5831 30.5241 31.3913C30.6448 31.1972 30.8081 31.0457 31.0141 30.9368C31.2224 30.8255 31.4592 30.7699 31.7243 30.7699C31.8356 30.7699 31.941 30.7782 32.0404 30.7947C32.1422 30.8089 32.2073 30.8196 32.2357 30.8267V29.9744C32.1884 29.9697 32.1185 29.9661 32.0262 29.9638C31.9339 29.9614 31.8569 29.9602 31.7954 29.9602C31.4687 29.9602 31.1751 30.0443 30.9147 30.2123C30.6543 30.3804 30.4743 30.5994 30.3749 30.8693H30.3181V30.0454H29.5084Z" fill="#55B3FF"/>
<path fill-rule="evenodd" clip-rule="evenodd" d="M33.8932 35.4325C34.1749 35.5627 34.4886 35.6278 34.8343 35.6278C35.1515 35.6278 35.4202 35.5805 35.6404 35.4858C35.8605 35.3911 36.0369 35.2763 36.1695 35.1413C36.3021 35.0064 36.3968 34.8797 36.4536 34.7614H36.4962V35.5H37.3343V31.9062C37.3343 31.473 37.2632 31.1274 37.1212 30.8693C36.9791 30.6113 36.8004 30.4183 36.585 30.2905C36.3719 30.1626 36.1505 30.0786 35.9209 30.0383C35.6936 29.9957 35.4924 29.9744 35.3172 29.9744C35.0426 29.9744 34.7632 30.0123 34.4791 30.0881C34.1974 30.1614 33.937 30.2917 33.6979 30.4787C33.4611 30.6633 33.2718 30.9214 33.1297 31.2528L33.9252 31.5369C34.0175 31.3381 34.1773 31.151 34.4046 30.9758C34.6318 30.8007 34.9455 30.7131 35.3456 30.7131C35.7315 30.7131 36.0191 30.8101 36.2085 31.0043C36.4003 31.1984 36.4962 31.4706 36.4962 31.821V31.8494C36.4962 31.9844 36.4477 32.0791 36.3506 32.1335C36.2559 32.188 36.1044 32.227 35.896 32.2507C35.6901 32.272 35.4214 32.304 35.0899 32.3466C34.8366 32.3797 34.5845 32.4247 34.3335 32.4815C34.085 32.536 33.8577 32.6188 33.6517 32.7301C33.4458 32.8414 33.2812 32.9953 33.1581 33.1918C33.035 33.3859 32.9735 33.6392 32.9735 33.9517C32.9735 34.3068 33.0563 34.6098 33.222 34.8608C33.3878 35.1094 33.6115 35.2999 33.8932 35.4325ZM35.8002 34.6797C35.5729 34.8099 35.2935 34.875 34.9621 34.875C34.6283 34.875 34.3525 34.8016 34.1347 34.6548C33.9192 34.5057 33.8115 34.2855 33.8115 33.9943C33.8115 33.7812 33.8683 33.6132 33.982 33.49C34.098 33.3646 34.2495 33.2711 34.4365 33.2095C34.6259 33.1456 34.8295 33.0994 35.0473 33.071C35.1373 33.0592 35.2545 33.045 35.3989 33.0284C35.5457 33.0095 35.696 32.9882 35.8499 32.9645C36.0061 32.9384 36.1434 32.9088 36.2618 32.8757C36.3825 32.8402 36.4607 32.8011 36.4962 32.7585V33.5256C36.4962 33.7528 36.437 33.9695 36.3186 34.1754C36.2026 34.3814 36.0298 34.5495 35.8002 34.6797Z" fill="#55B3FF"/>
</svg>
