<svg width="47" height="40" viewBox="0 0 47 40" fill="none" xmlns="http://www.w3.org/2000/svg">
<path fill-rule="evenodd" clip-rule="evenodd" d="M29.0676 2.02261H28.895C28.4785 0.844244 27.3547 0 26.0337 0H19.9659C18.6449 0 17.5211 0.844243 17.1046 2.02261H16.932C14.6979 2.02261 12.8868 3.8337 12.8868 6.06781V20.2261C12.8868 22.4602 14.6979 24.2713 16.932 24.2713H29.0676C31.3018 24.2713 33.1129 22.4602 33.1129 20.2261V6.06782C33.1129 3.83371 31.3018 2.02261 29.0676 2.02261ZM14.9094 6.06781C14.9094 4.95076 15.815 4.04521 16.932 4.04521C16.932 5.72079 18.2903 7.07912 19.9659 7.07912H26.0337C27.7093 7.07912 29.0676 5.72079 29.0676 4.04521C30.1847 4.04521 31.0902 4.95076 31.0902 6.06782V20.2261C31.0902 21.3431 30.1847 22.2487 29.0676 22.2487H16.932C15.815 22.2487 14.9094 21.3431 14.9094 20.2261V6.06781ZM19.9659 2.02261C19.4074 2.02261 18.9546 2.47538 18.9546 3.03391V4.04521C18.9546 4.60374 19.4074 5.05651 19.9659 5.05651H26.0337C26.5923 5.05651 27.045 4.60374 27.045 4.04521V3.03391C27.045 2.47538 26.5923 2.02261 26.0337 2.02261H19.9659Z" fill="#CFD1DE"/>
<path fill-rule="evenodd" clip-rule="evenodd" d="M0.272217 29.7273V37H1.1529V34.3438H2.74381C3.30962 34.3438 3.77364 34.2408 4.13585 34.0348C4.49807 33.8265 4.76559 33.5471 4.93841 33.1967C5.1136 32.8464 5.20119 32.4569 5.20119 32.0284C5.20119 31.5999 5.1136 31.2116 4.93841 30.8636C4.76322 30.5156 4.49333 30.2398 4.12875 30.0362C3.76653 29.8303 3.30015 29.7273 2.7296 29.7273H0.272217ZM1.1529 33.5625H2.7154C3.10602 33.5625 3.41971 33.495 3.65645 33.3601C3.89319 33.2251 4.06483 33.0429 4.17136 32.8132C4.28027 32.5812 4.33472 32.3196 4.33472 32.0284C4.33472 31.7372 4.28027 31.4768 4.17136 31.2472C4.06483 31.0175 3.89201 30.8376 3.6529 30.7074C3.41379 30.5748 3.09655 30.5085 2.70119 30.5085H1.1529V33.5625Z" fill="#CFD1DE"/>
<path d="M6.50624 31.5455V37H7.34431V33.5483C7.34431 33.3021 7.40349 33.0831 7.52186 32.8913C7.6426 32.6972 7.80595 32.5457 8.01192 32.4368C8.22025 32.3255 8.45699 32.2699 8.72215 32.2699C8.83342 32.2699 8.93877 32.2782 9.0382 32.2947C9.14 32.3089 9.2051 32.3196 9.23351 32.3267V31.4744C9.18616 31.4697 9.11632 31.4661 9.02399 31.4638C8.93166 31.4614 8.85472 31.4602 8.79317 31.4602C8.46646 31.4602 8.1729 31.5443 7.91249 31.7124C7.65207 31.8804 7.47215 32.0994 7.37271 32.3693H7.3159V31.5455H6.50624Z" fill="#CFD1DE"/>
<path fill-rule="evenodd" clip-rule="evenodd" d="M10.9807 36.7621C11.3524 36.9964 11.7844 37.1136 12.2768 37.1136C12.7693 37.1136 13.2001 36.9964 13.5694 36.7621C13.9411 36.5277 14.23 36.1998 14.4359 35.7784C14.6443 35.357 14.7484 34.8646 14.7484 34.3011C14.7484 33.733 14.6443 33.237 14.4359 32.8132C14.23 32.3894 13.9411 32.0604 13.5694 31.826C13.2001 31.5916 12.7693 31.4744 12.2768 31.4744C11.7844 31.4744 11.3524 31.5916 10.9807 31.826C10.6114 32.0604 10.3225 32.3894 10.1142 32.8132C9.90823 33.237 9.80524 33.733 9.80524 34.3011C9.80524 34.8646 9.90823 35.357 10.1142 35.7784C10.3225 36.1998 10.6114 36.5277 10.9807 36.7621ZM13.2001 36.0732C12.9587 36.2649 12.6509 36.3608 12.2768 36.3608C11.9028 36.3608 11.595 36.2649 11.3535 36.0732C11.1121 35.8814 10.9333 35.6293 10.8173 35.3168C10.7013 35.0043 10.6433 34.6657 10.6433 34.3011C10.6433 33.9366 10.7013 33.5968 10.8173 33.282C10.9333 32.9671 11.1121 32.7126 11.3535 32.5185C11.595 32.3243 11.9028 32.2273 12.2768 32.2273C12.6509 32.2273 12.9587 32.3243 13.2001 32.5185C13.4416 32.7126 13.6203 32.9671 13.7364 33.282C13.8524 33.5968 13.9104 33.9366 13.9104 34.3011C13.9104 34.6657 13.8524 35.0043 13.7364 35.3168C13.6203 35.6293 13.4416 35.8814 13.2001 36.0732Z" fill="#CFD1DE"/>
<path d="M15.9922 39.0099C16.1035 39.0336 16.2301 39.0455 16.3722 39.0455C16.6255 39.0455 16.8528 39.0005 17.054 38.9105C17.2576 38.8205 17.4363 38.6821 17.5902 38.495C17.7441 38.3104 17.8731 38.0772 17.9773 37.7955L20.2926 31.5455H19.3835L17.8779 35.892H17.821L16.3154 31.5455H15.4063L17.4233 37.0284L17.2671 37.4545C17.1653 37.7315 17.0528 37.9316 16.9297 38.0547C16.809 38.1802 16.6705 38.25 16.5142 38.2642C16.358 38.2784 16.1781 38.2595 15.9745 38.2074L15.7614 38.946C15.804 38.9673 15.8809 38.9886 15.9922 39.0099Z" fill="#CFD1DE"/>
<path fill-rule="evenodd" clip-rule="evenodd" d="M22.1303 36.7656C22.5115 36.9976 22.9649 37.1136 23.4904 37.1136C23.8598 37.1136 24.1924 37.0568 24.4883 36.9432C24.7842 36.8272 25.0328 36.6662 25.234 36.4602C25.4353 36.2519 25.5785 36.0104 25.6637 35.7358L24.8541 35.5085C24.783 35.6979 24.6824 35.8565 24.5522 35.9844C24.422 36.1098 24.2669 36.2045 24.087 36.2685C23.9095 36.33 23.7106 36.3608 23.4904 36.3608C23.1519 36.3608 22.8548 36.2874 22.5991 36.1406C22.3434 35.9915 22.1434 35.7749 21.999 35.4908C21.8702 35.231 21.7998 34.9197 21.7877 34.5568H25.749V34.2017C25.749 33.6927 25.6815 33.2642 25.5465 32.9162C25.4116 32.5682 25.2305 32.2888 25.0032 32.0781C24.7759 31.8651 24.5238 31.7112 24.2468 31.6165C23.9698 31.5218 23.6893 31.4744 23.4052 31.4744C22.9128 31.4744 22.4819 31.5952 22.1126 31.8366C21.7456 32.0758 21.4592 32.4096 21.2532 32.8381C21.0496 33.2642 20.9478 33.7566 20.9478 34.3153C20.9478 34.8741 21.0496 35.3641 21.2532 35.7855C21.4592 36.2045 21.7516 36.5312 22.1303 36.7656ZM21.7899 33.8324C21.8058 33.5794 21.8696 33.3403 21.9812 33.1151C22.1114 32.8523 22.2973 32.6392 22.5387 32.4759C22.7826 32.3101 23.0714 32.2273 23.4052 32.2273C23.7082 32.2273 23.971 32.2971 24.1936 32.4368C24.4185 32.5765 24.5913 32.767 24.712 33.0085C24.8351 33.25 24.8967 33.5246 24.8967 33.8324H21.7899Z" fill="#CFD1DE"/>
<path d="M27.9187 36.7514C28.288 36.9929 28.7284 37.1136 29.2397 37.1136C29.6422 37.1136 29.9949 37.0391 30.298 36.8899C30.6034 36.7384 30.8484 36.5348 31.033 36.2791C31.2201 36.0211 31.3373 35.7311 31.3846 35.4091H30.5465C30.4945 35.608 30.4069 35.7784 30.2838 35.9205C30.1607 36.0625 30.0103 36.1714 29.8328 36.2472C29.6552 36.3229 29.4575 36.3608 29.2397 36.3608C28.9083 36.3608 28.6195 36.2744 28.3732 36.1016C28.1294 35.9287 27.94 35.6861 27.8051 35.3736C27.6725 35.0611 27.6062 34.6941 27.6062 34.2727C27.6062 33.8608 27.6737 33.5021 27.8086 33.1967C27.9459 32.889 28.1365 32.651 28.3803 32.483C28.6266 32.3125 28.913 32.2273 29.2397 32.2273C29.609 32.2273 29.9026 32.3243 30.1204 32.5185C30.3406 32.7102 30.4826 32.9304 30.5465 33.179H31.3846C31.3373 32.8381 31.2153 32.5398 31.0188 32.2841C30.8223 32.0284 30.5702 31.8295 30.2625 31.6875C29.9547 31.5455 29.609 31.4744 29.2255 31.4744C28.7331 31.4744 28.3022 31.5952 27.9329 31.8366C27.566 32.0758 27.2795 32.4084 27.0735 32.8345C26.8699 33.2583 26.7681 33.7472 26.7681 34.3011C26.7681 34.8456 26.8676 35.3298 27.0664 35.7536C27.2653 36.1773 27.5494 36.5099 27.9187 36.7514Z" fill="#CFD1DE"/>
<path d="M34.9819 32.2557V31.5455H33.8171V30.2386H32.9791V31.5455H32.1552V32.2557H32.9791V35.6648C32.9791 35.982 33.0525 36.2448 33.1992 36.4531C33.3484 36.6615 33.5354 36.8165 33.7603 36.9183C33.9876 37.0201 34.2196 37.071 34.4563 37.071C34.6126 37.071 34.7416 37.0592 34.8434 37.0355C34.9452 37.0142 35.0245 36.9929 35.0813 36.9716L34.9109 36.2188L34.7688 36.2472C34.7097 36.2566 34.6339 36.2614 34.5416 36.2614C34.4185 36.2614 34.3013 36.2424 34.19 36.2045C34.0811 36.1643 33.9911 36.0862 33.9201 35.9702C33.8515 35.8518 33.8171 35.6742 33.8171 35.4375V32.2557H34.9819Z" fill="#CFD1DE"/>
<path fill-rule="evenodd" clip-rule="evenodd" d="M37.1037 36.7621C37.4754 36.9964 37.9075 37.1136 38.3999 37.1136C38.8923 37.1136 39.3232 36.9964 39.6925 36.7621C40.0642 36.5277 40.353 36.1998 40.559 35.7784C40.7673 35.357 40.8715 34.8646 40.8715 34.3011C40.8715 33.733 40.7673 33.237 40.559 32.8132C40.353 32.3894 40.0642 32.0604 39.6925 31.826C39.3232 31.5916 38.8923 31.4744 38.3999 31.4744C37.9075 31.4744 37.4754 31.5916 37.1037 31.826C36.7344 32.0604 36.4456 32.3894 36.2372 32.8132C36.0313 33.237 35.9283 33.733 35.9283 34.3011C35.9283 34.8646 36.0313 35.357 36.2372 35.7784C36.4456 36.1998 36.7344 36.5277 37.1037 36.7621ZM39.3232 36.0732C39.0817 36.2649 38.7739 36.3608 38.3999 36.3608C38.0258 36.3608 37.7181 36.2649 37.4766 36.0732C37.2351 35.8814 37.0564 35.6293 36.9404 35.3168C36.8244 35.0043 36.7664 34.6657 36.7664 34.3011C36.7664 33.9366 36.8244 33.5968 36.9404 33.282C37.0564 32.9671 37.2351 32.7126 37.4766 32.5185C37.7181 32.3243 38.0258 32.2273 38.3999 32.2273C38.7739 32.2273 39.0817 32.3243 39.3232 32.5185C39.5647 32.7126 39.7434 32.9671 39.8594 33.282C39.9754 33.5968 40.0334 33.9366 40.0334 34.3011C40.0334 34.6657 39.9754 35.0043 39.8594 35.3168C39.7434 35.6293 39.5647 35.8814 39.3232 36.0732Z" fill="#CFD1DE"/>
<path d="M45.2616 32.9801L46.0144 32.767C45.8842 32.3788 45.664 32.0663 45.3539 31.8295C45.0461 31.5928 44.6224 31.4744 44.0826 31.4744C43.6991 31.4744 43.3558 31.5419 43.0528 31.6768C42.7521 31.8118 42.5142 31.9976 42.339 32.2344C42.1662 32.4711 42.0797 32.7434 42.0797 33.0511C42.0797 33.4276 42.1958 33.7412 42.4278 33.9922C42.6621 34.2408 43.0291 34.4242 43.5286 34.5426L44.4377 34.7557C44.7123 34.8196 44.9159 34.9167 45.0485 35.0469C45.1811 35.1747 45.2474 35.3333 45.2474 35.5227C45.2474 35.7571 45.1314 35.9583 44.8993 36.1264C44.6697 36.2921 44.3596 36.375 43.969 36.375C43.6257 36.375 43.3475 36.3016 43.1344 36.1548C42.9237 36.008 42.7805 35.7879 42.7047 35.4943L41.9093 35.6932C42.0064 36.1572 42.2372 36.5099 42.6018 36.7514C42.9663 36.9929 43.4268 37.1136 43.9832 37.1136C44.4069 37.1136 44.7786 37.0426 45.0982 36.9006C45.4178 36.7585 45.6664 36.5644 45.844 36.3182C46.0239 36.072 46.1138 35.7926 46.1138 35.4801C46.1138 35.099 45.9943 34.7876 45.7552 34.5462C45.5161 34.3023 45.1527 34.1212 44.665 34.0028L43.8553 33.804C43.5333 33.7235 43.2966 33.6229 43.1451 33.5021C42.9936 33.3814 42.9178 33.2169 42.9178 33.0085C42.9178 32.7741 43.0279 32.5812 43.2481 32.4297C43.4706 32.2758 43.7488 32.1989 44.0826 32.1989C44.3264 32.1989 44.5265 32.2379 44.6827 32.3161C44.839 32.3942 44.9621 32.4936 45.052 32.6143C45.1444 32.7327 45.2142 32.8546 45.2616 32.9801Z" fill="#CFD1DE"/>
</svg>
