<svg width="8" height="16" viewBox="0 0 8 16" fill="none" xmlns="http://www.w3.org/2000/svg">
<path fill-rule="evenodd" clip-rule="evenodd" d="M3.28392 1.69396C3.28392 1.29074 3.6108 0.963867 4.01401 0.963867C4.41723 0.963867 4.7441 1.29074 4.7441 1.69396V2.43956C6.26855 2.7571 7.41675 4.15272 7.41675 5.82631C7.41675 6.4325 6.94264 6.92392 6.35779 6.92392C5.77294 6.92392 5.29883 6.4325 5.29883 5.82631C5.29883 5.13081 4.75487 4.567 4.08386 4.567C3.41286 4.567 2.8689 5.13081 2.8689 5.82631C2.8689 6.52181 3.41286 7.08562 4.08386 7.08562C4.11447 7.08562 4.14477 7.08696 4.17472 7.0896C5.97359 7.1393 7.41712 8.66636 7.41712 10.5429C7.41712 12.2162 6.26922 13.6117 4.74506 13.9295L4.74506 14.7424C4.74506 15.1457 4.41819 15.4725 4.01497 15.4725C3.61176 15.4725 3.28488 15.1457 3.28488 14.7424V13.8974C1.83023 13.5263 0.751349 12.1652 0.751349 10.5429C0.751349 9.93668 1.22546 9.44527 1.81031 9.44527C2.39516 9.44527 2.86927 9.93668 2.86927 10.5429C2.86927 11.2384 3.41323 11.8022 4.08424 11.8022C4.75524 11.8022 5.2992 11.2384 5.2992 10.5429C5.2992 9.84738 4.75524 9.28357 4.08424 9.28357C4.05363 9.28357 4.02332 9.28222 3.99338 9.27958C2.19451 9.22989 0.750977 7.70283 0.750977 5.82631C0.750977 4.20424 1.82957 2.84329 3.28392 2.47193V1.69396Z" fill="#55B3FF"/>
</svg>
