<svg width="47" height="40" viewBox="0 0 47 40" fill="none" xmlns="http://www.w3.org/2000/svg">
<path fill-rule="evenodd" clip-rule="evenodd" d="M29.0679 2.52261H28.8953C28.4788 1.34424 27.355 0.5 26.034 0.5H19.9662C18.6452 0.5 17.5214 1.34424 17.1049 2.52261H16.9323C14.6981 2.52261 12.887 4.3337 12.887 6.56781V20.7261C12.887 22.9602 14.6981 24.7713 16.9323 24.7713H29.0679C31.302 24.7713 33.1131 22.9602 33.1131 20.7261V6.56782C33.1131 4.33371 31.302 2.52261 29.0679 2.52261ZM14.9096 6.56781C14.9096 5.45076 15.8152 4.54521 16.9323 4.54521C16.9323 6.22079 18.2906 7.57912 19.9662 7.57912H26.034C27.7096 7.57912 29.0679 6.22079 29.0679 4.54521C30.1849 4.54521 31.0905 5.45076 31.0905 6.56782V20.7261C31.0905 21.8431 30.1849 22.7487 29.0679 22.7487H16.9323C15.8152 22.7487 14.9096 21.8431 14.9096 20.7261V6.56781ZM19.9662 2.52261C19.4076 2.52261 18.9549 2.97538 18.9549 3.53391V4.54521C18.9549 5.10374 19.4076 5.55651 19.9662 5.55651H26.034C26.5925 5.55651 27.0453 5.10374 27.0453 4.54521V3.53391C27.0453 2.97538 26.5925 2.52261 26.034 2.52261H19.9662Z" fill="#CFD1DE"/>
<path fill-rule="evenodd" clip-rule="evenodd" d="M0.272461 30.2273V37.5H1.15314V34.8438H2.74405C3.30987 34.8438 3.77388 34.7408 4.1361 34.5348C4.49831 34.3265 4.76583 34.0471 4.93865 33.6967C5.11384 33.3464 5.20144 32.9569 5.20144 32.5284C5.20144 32.0999 5.11384 31.7116 4.93865 31.3636C4.76346 31.0156 4.49358 30.7398 4.12899 30.5362C3.76678 30.3303 3.3004 30.2273 2.72985 30.2273H0.272461ZM1.15314 34.0625H2.71564C3.10627 34.0625 3.41995 33.995 3.65669 33.8601C3.89344 33.7251 4.06507 33.5429 4.17161 33.3132C4.28051 33.0812 4.33496 32.8196 4.33496 32.5284C4.33496 32.2372 4.28051 31.9768 4.17161 31.7472C4.06507 31.5175 3.89225 31.3376 3.65314 31.2074C3.41403 31.0748 3.0968 31.0085 2.70144 31.0085H1.15314V34.0625Z" fill="#CFD1DE"/>
<path d="M6.50648 32.0455V37.5H7.34455V34.0483C7.34455 33.8021 7.40373 33.5831 7.52211 33.3913C7.64284 33.1972 7.8062 33.0457 8.01216 32.9368C8.2205 32.8255 8.45724 32.7699 8.72239 32.7699C8.83366 32.7699 8.93901 32.7782 9.03844 32.7947C9.14024 32.8089 9.20534 32.8196 9.23375 32.8267V31.9744C9.18641 31.9697 9.11657 31.9661 9.02424 31.9638C8.93191 31.9614 8.85497 31.9602 8.79341 31.9602C8.46671 31.9602 8.17315 32.0443 7.91273 32.2124C7.65231 32.3804 7.47239 32.5994 7.37296 32.8693H7.31614V32.0455H6.50648Z" fill="#CFD1DE"/>
<path fill-rule="evenodd" clip-rule="evenodd" d="M10.9809 37.2621C11.3526 37.4964 11.7847 37.6136 12.2771 37.6136C12.7695 37.6136 13.2004 37.4964 13.5697 37.2621C13.9414 37.0277 14.2302 36.6998 14.4362 36.2784C14.6445 35.857 14.7487 35.3646 14.7487 34.8011C14.7487 34.233 14.6445 33.737 14.4362 33.3132C14.2302 32.8894 13.9414 32.5604 13.5697 32.326C13.2004 32.0916 12.7695 31.9744 12.2771 31.9744C11.7847 31.9744 11.3526 32.0916 10.9809 32.326C10.6116 32.5604 10.3228 32.8894 10.1144 33.3132C9.90847 33.737 9.80549 34.233 9.80549 34.8011C9.80549 35.3646 9.90847 35.857 10.1144 36.2784C10.3228 36.6998 10.6116 37.0277 10.9809 37.2621ZM13.2004 36.5732C12.9589 36.7649 12.6511 36.8608 12.2771 36.8608C11.903 36.8608 11.5953 36.7649 11.3538 36.5732C11.1123 36.3814 10.9336 36.1293 10.8176 35.8168C10.7016 35.5043 10.6436 35.1657 10.6436 34.8011C10.6436 34.4366 10.7016 34.0968 10.8176 33.782C10.9336 33.4671 11.1123 33.2126 11.3538 33.0185C11.5953 32.8243 11.903 32.7273 12.2771 32.7273C12.6511 32.7273 12.9589 32.8243 13.2004 33.0185C13.4418 33.2126 13.6206 33.4671 13.7366 33.782C13.8526 34.0968 13.9106 34.4366 13.9106 34.8011C13.9106 35.1657 13.8526 35.5043 13.7366 35.8168C13.6206 36.1293 13.4418 36.3814 13.2004 36.5732Z" fill="#CFD1DE"/>
<path d="M15.9925 39.5099C16.1037 39.5336 16.2304 39.5455 16.3724 39.5455C16.6257 39.5455 16.853 39.5005 17.0542 39.4105C17.2578 39.3205 17.4366 39.1821 17.5905 38.995C17.7443 38.8104 17.8734 38.5772 17.9775 38.2955L20.2929 32.0455H19.3838L17.8781 36.392H17.8213L16.3156 32.0455H15.4065L17.4236 37.5284L17.2673 37.9545C17.1655 38.2315 17.0531 38.4316 16.93 38.5547C16.8092 38.6802 16.6707 38.75 16.5145 38.7642C16.3582 38.7784 16.1783 38.7595 15.9747 38.7074L15.7616 39.446C15.8042 39.4673 15.8812 39.4886 15.9925 39.5099Z" fill="#CFD1DE"/>
<path fill-rule="evenodd" clip-rule="evenodd" d="M22.1306 37.2656C22.5117 37.4976 22.9651 37.6136 23.4907 37.6136C23.86 37.6136 24.1926 37.5568 24.4885 37.4432C24.7845 37.3272 25.0331 37.1662 25.2343 36.9602C25.4355 36.7519 25.5787 36.5104 25.664 36.2358L24.8543 36.0085C24.7833 36.1979 24.6827 36.3565 24.5525 36.4844C24.4223 36.6098 24.2672 36.7045 24.0873 36.7685C23.9097 36.83 23.7108 36.8608 23.4907 36.8608C23.1521 36.8608 22.855 36.7874 22.5993 36.6406C22.3437 36.4915 22.1436 36.2749 21.9992 35.9908C21.8704 35.731 21.8 35.4197 21.788 35.0568H25.7492V34.7017C25.7492 34.1927 25.6817 33.7642 25.5468 33.4162C25.4118 33.0682 25.2307 32.7888 25.0035 32.5781C24.7762 32.3651 24.5241 32.2112 24.2471 32.1165C23.9701 32.0218 23.6895 31.9744 23.4055 31.9744C22.913 31.9744 22.4822 32.0952 22.1128 32.3366C21.7459 32.5758 21.4594 32.9096 21.2535 33.3381C21.0499 33.7642 20.9481 34.2566 20.9481 34.8153C20.9481 35.3741 21.0499 35.8641 21.2535 36.2855C21.4594 36.7045 21.7518 37.0312 22.1306 37.2656ZM21.7901 34.3324C21.8061 34.0794 21.8699 33.8403 21.9814 33.6151C22.1117 33.3523 22.2975 33.1392 22.539 32.9759C22.7828 32.8101 23.0716 32.7273 23.4055 32.7273C23.7085 32.7273 23.9713 32.7971 24.1938 32.9368C24.4187 33.0765 24.5915 33.267 24.7123 33.5085C24.8354 33.75 24.8969 34.0246 24.8969 34.3324H21.7901Z" fill="#CFD1DE"/>
<path d="M27.9189 37.2514C28.2883 37.4929 28.7286 37.6136 29.24 37.6136C29.6424 37.6136 29.9952 37.5391 30.2982 37.3899C30.6036 37.2384 30.8486 37.0348 31.0333 36.7791C31.2203 36.5211 31.3375 36.2311 31.3849 35.9091H30.5468C30.4947 36.108 30.4071 36.2784 30.284 36.4205C30.1609 36.5625 30.0106 36.6714 29.833 36.7472C29.6555 36.8229 29.4578 36.8608 29.24 36.8608C28.9085 36.8608 28.6197 36.7744 28.3735 36.6016C28.1296 36.4287 27.9403 36.1861 27.8053 35.8736C27.6727 35.5611 27.6064 35.1941 27.6064 34.7727C27.6064 34.3608 27.6739 34.0021 27.8089 33.6967C27.9462 33.389 28.1367 33.151 28.3806 32.983C28.6268 32.8125 28.9133 32.7273 29.24 32.7273C29.6093 32.7273 29.9028 32.8243 30.1206 33.0185C30.3408 33.2102 30.4829 33.4304 30.5468 33.679H31.3849C31.3375 33.3381 31.2156 33.0398 31.0191 32.7841C30.8226 32.5284 30.5705 32.3295 30.2627 32.1875C29.9549 32.0455 29.6093 31.9744 29.2258 31.9744C28.7333 31.9744 28.3025 32.0952 27.9331 32.3366C27.5662 32.5758 27.2797 32.9084 27.0738 33.3345C26.8702 33.7583 26.7684 34.2472 26.7684 34.8011C26.7684 35.3456 26.8678 35.8298 27.0667 36.2536C27.2655 36.6773 27.5496 37.0099 27.9189 37.2514Z" fill="#CFD1DE"/>
<path d="M34.9822 32.7557V32.0455H33.8174V30.7386H32.9793V32.0455H32.1555V32.7557H32.9793V36.1648C32.9793 36.482 33.0527 36.7448 33.1995 36.9531C33.3486 37.1615 33.5357 37.3165 33.7606 37.4183C33.9878 37.5201 34.2198 37.571 34.4566 37.571C34.6128 37.571 34.7419 37.5592 34.8437 37.5355C34.9455 37.5142 35.0248 37.4929 35.0816 37.4716L34.9111 36.7188L34.7691 36.7472C34.7099 36.7566 34.6341 36.7614 34.5418 36.7614C34.4187 36.7614 34.3015 36.7424 34.1903 36.7045C34.0814 36.6643 33.9914 36.5862 33.9204 36.4702C33.8517 36.3518 33.8174 36.1742 33.8174 35.9375V32.7557H34.9822Z" fill="#CFD1DE"/>
<path fill-rule="evenodd" clip-rule="evenodd" d="M37.104 37.2621C37.4756 37.4964 37.9077 37.6136 38.4001 37.6136C38.8926 37.6136 39.3234 37.4964 39.6927 37.2621C40.0644 37.0277 40.3533 36.6998 40.5592 36.2784C40.7676 35.857 40.8717 35.3646 40.8717 34.8011C40.8717 34.233 40.7676 33.737 40.5592 33.3132C40.3533 32.8894 40.0644 32.5604 39.6927 32.326C39.3234 32.0916 38.8926 31.9744 38.4001 31.9744C37.9077 31.9744 37.4756 32.0916 37.104 32.326C36.7346 32.5604 36.4458 32.8894 36.2375 33.3132C36.0315 33.737 35.9285 34.233 35.9285 34.8011C35.9285 35.3646 36.0315 35.857 36.2375 36.2784C36.4458 36.6998 36.7346 37.0277 37.104 37.2621ZM39.3234 36.5732C39.0819 36.7649 38.7742 36.8608 38.4001 36.8608C38.0261 36.8608 37.7183 36.7649 37.4768 36.5732C37.2354 36.3814 37.0566 36.1293 36.9406 35.8168C36.8246 35.5043 36.7666 35.1657 36.7666 34.8011C36.7666 34.4366 36.8246 34.0968 36.9406 33.782C37.0566 33.4671 37.2354 33.2126 37.4768 33.0185C37.7183 32.8243 38.0261 32.7273 38.4001 32.7273C38.7742 32.7273 39.0819 32.8243 39.3234 33.0185C39.5649 33.2126 39.7436 33.4671 39.8596 33.782C39.9756 34.0968 40.0336 34.4366 40.0336 34.8011C40.0336 35.1657 39.9756 35.5043 39.8596 35.8168C39.7436 36.1293 39.5649 36.3814 39.3234 36.5732Z" fill="#CFD1DE"/>
<path d="M45.2618 33.4801L46.0146 33.267C45.8844 32.8788 45.6643 32.5663 45.3541 32.3295C45.0464 32.0928 44.6226 31.9744 44.0828 31.9744C43.6993 31.9744 43.356 32.0419 43.053 32.1768C42.7523 32.3118 42.5144 32.4976 42.3392 32.7344C42.1664 32.9711 42.08 33.2434 42.08 33.5511C42.08 33.9276 42.196 34.2412 42.428 34.4922C42.6624 34.7408 43.0293 34.9242 43.5289 35.0426L44.4379 35.2557C44.7126 35.3196 44.9162 35.4167 45.0487 35.5469C45.1813 35.6747 45.2476 35.8333 45.2476 36.0227C45.2476 36.2571 45.1316 36.4583 44.8996 36.6264C44.67 36.7921 44.3598 36.875 43.9692 36.875C43.6259 36.875 43.3477 36.8016 43.1347 36.6548C42.924 36.508 42.7808 36.2879 42.705 35.9943L41.9095 36.1932C42.0066 36.6572 42.2374 37.0099 42.602 37.2514C42.9666 37.4929 43.4271 37.6136 43.9834 37.6136C44.4072 37.6136 44.7789 37.5426 45.0985 37.4006C45.4181 37.2585 45.6666 37.0644 45.8442 36.8182C46.0241 36.572 46.1141 36.2926 46.1141 35.9801C46.1141 35.599 45.9945 35.2876 45.7554 35.0462C45.5163 34.8023 45.1529 34.6212 44.6652 34.5028L43.8556 34.304C43.5336 34.2235 43.2968 34.1229 43.1453 34.0021C42.9938 33.8814 42.9181 33.7169 42.9181 33.5085C42.9181 33.2741 43.0281 33.0812 43.2483 32.9297C43.4709 32.7758 43.749 32.6989 44.0828 32.6989C44.3267 32.6989 44.5267 32.7379 44.683 32.8161C44.8392 32.8942 44.9623 32.9936 45.0523 33.1143C45.1446 33.2327 45.2145 33.3546 45.2618 33.4801Z" fill="#CFD1DE"/>
</svg>
