<svg width="47" height="40" viewBox="0 0 47 40" fill="none" xmlns="http://www.w3.org/2000/svg">
<path fill-rule="evenodd" clip-rule="evenodd" d="M29.0687 2.13589H28.8961C28.4796 0.957525 27.3558 0.113281 26.0348 0.113281H19.967C18.646 0.113281 17.5222 0.957525 17.1057 2.13589H16.9331C14.699 2.13589 12.8879 3.94699 12.8879 6.1811V20.3393C12.8879 22.5734 14.699 24.3846 16.9331 24.3846H29.0687C31.3028 24.3846 33.114 22.5735 33.114 20.3393V6.1811C33.114 3.94699 31.3028 2.13589 29.0687 2.13589ZM14.9105 6.1811C14.9105 5.06404 15.8161 4.15849 16.9331 4.15849C16.9331 5.83407 18.2914 7.1924 19.967 7.1924H26.0348C27.7104 7.1924 29.0687 5.83407 29.0687 4.15849C30.1858 4.15849 31.0913 5.06404 31.0913 6.1811V20.3393C31.0913 21.4564 30.1858 22.3619 29.0687 22.3619H16.9331C15.8161 22.3619 14.9105 21.4564 14.9105 20.3393V6.1811ZM19.967 2.13589C19.4085 2.13589 18.9557 2.58866 18.9557 3.14719V4.15849C18.9557 4.71702 19.4085 5.1698 19.967 5.1698H26.0348C26.5934 5.1698 27.0461 4.71702 27.0461 4.15849V3.14719C27.0461 2.58866 26.5934 2.13589 26.0348 2.13589H19.967Z" fill="#CFD1DE"/>
<path fill-rule="evenodd" clip-rule="evenodd" d="M0.272339 29.8406V37.1133H1.15302V34.457H2.74393C3.30974 34.457 3.77376 34.354 4.13598 34.1481C4.49819 33.9398 4.76571 33.6604 4.93853 33.31C5.11372 32.9596 5.20132 32.5702 5.20132 32.1417C5.20132 31.7132 5.11372 31.3249 4.93853 30.9769C4.76334 30.6289 4.49346 30.3531 4.12887 30.1495C3.76666 29.9435 3.30027 29.8406 2.72973 29.8406H0.272339ZM1.15302 33.6758H2.71552C3.10615 33.6758 3.41983 33.6083 3.65657 33.4734C3.89331 33.3384 4.06495 33.1561 4.17149 32.9265C4.28039 32.6945 4.33484 32.4329 4.33484 32.1417C4.33484 31.8505 4.28039 31.5901 4.17149 31.3604C4.06495 31.1308 3.89213 30.9509 3.65302 30.8207C3.41391 30.6881 3.09668 30.6218 2.70132 30.6218H1.15302V33.6758Z" fill="#CFD1DE"/>
<path d="M6.50636 31.6587V37.1133H7.34443V33.6616C7.34443 33.4154 7.40361 33.1964 7.52198 33.0046C7.64272 32.8105 7.80607 32.659 8.01204 32.5501C8.22037 32.4388 8.45712 32.3832 8.72227 32.3832C8.83354 32.3832 8.93889 32.3915 9.03832 32.408C9.14012 32.4222 9.20522 32.4329 9.23363 32.44V31.5877C9.18628 31.583 9.11644 31.5794 9.02411 31.5771C8.93178 31.5747 8.85484 31.5735 8.79329 31.5735C8.46659 31.5735 8.17303 31.6576 7.91261 31.8256C7.65219 31.9937 7.47227 32.2127 7.37284 32.4826H7.31602V31.6587H6.50636Z" fill="#CFD1DE"/>
<path fill-rule="evenodd" clip-rule="evenodd" d="M10.9808 36.8754C11.3525 37.1097 11.7845 37.2269 12.277 37.2269C12.7694 37.2269 13.2003 37.1097 13.5696 36.8754C13.9413 36.641 14.2301 36.3131 14.436 35.8917C14.6444 35.4703 14.7485 34.9779 14.7485 34.4144C14.7485 33.8462 14.6444 33.3503 14.436 32.9265C14.2301 32.5027 13.9413 32.1736 13.5696 31.9393C13.2003 31.7049 12.7694 31.5877 12.277 31.5877C11.7845 31.5877 11.3525 31.7049 10.9808 31.9393C10.6115 32.1736 10.3226 32.5027 10.1143 32.9265C9.90835 33.3503 9.80536 33.8462 9.80536 34.4144C9.80536 34.9779 9.90835 35.4703 10.1143 35.8917C10.3226 36.3131 10.6115 36.641 10.9808 36.8754ZM13.2003 36.1864C12.9588 36.3782 12.651 36.4741 12.277 36.4741C11.9029 36.4741 11.5951 36.3782 11.3537 36.1864C11.1122 35.9947 10.9334 35.7425 10.8174 35.43C10.7014 35.1175 10.6434 34.779 10.6434 34.4144C10.6434 34.0498 10.7014 33.7101 10.8174 33.3952C10.9334 33.0804 11.1122 32.8259 11.3537 32.6317C11.5951 32.4376 11.9029 32.3406 12.277 32.3406C12.651 32.3406 12.9588 32.4376 13.2003 32.6317C13.4417 32.8259 13.6205 33.0804 13.7365 33.3952C13.8525 33.7101 13.9105 34.0498 13.9105 34.4144C13.9105 34.779 13.8525 35.1175 13.7365 35.43C13.6205 35.7425 13.4417 35.9947 13.2003 36.1864Z" fill="#CFD1DE"/>
<path d="M15.9923 39.1232C16.1036 39.1469 16.2303 39.1587 16.3723 39.1587C16.6256 39.1587 16.8529 39.1138 17.0541 39.0238C17.2577 38.9338 17.4365 38.7953 17.5903 38.6083C17.7442 38.4236 17.8733 38.1905 17.9774 37.9087L20.2928 31.6587H19.3837L17.878 36.0053H17.8212L16.3155 31.6587H15.4064L17.4234 37.1417L17.2672 37.5678C17.1654 37.8448 17.0529 38.0449 16.9298 38.168C16.8091 38.2934 16.6706 38.3633 16.5143 38.3775C16.3581 38.3917 16.1782 38.3727 15.9746 38.3207L15.7615 39.0593C15.8041 39.0806 15.8811 39.1019 15.9923 39.1232Z" fill="#CFD1DE"/>
<path fill-rule="evenodd" clip-rule="evenodd" d="M22.1305 36.8789C22.5116 37.1109 22.965 37.2269 23.4906 37.2269C23.8599 37.2269 24.1925 37.1701 24.4884 37.0565C24.7844 36.9405 25.0329 36.7795 25.2342 36.5735C25.4354 36.3652 25.5786 36.1237 25.6639 35.8491L24.8542 35.6218C24.7832 35.8112 24.6826 35.9698 24.5523 36.0977C24.4221 36.2231 24.2671 36.3178 24.0871 36.3817C23.9096 36.4433 23.7107 36.4741 23.4906 36.4741C23.152 36.4741 22.8549 36.4007 22.5992 36.2539C22.3435 36.1048 22.1435 35.8881 21.9991 35.604C21.8703 35.3443 21.7999 35.033 21.7879 34.6701H25.7491V34.315C25.7491 33.806 25.6816 33.3775 25.5467 33.0295C25.4117 32.6815 25.2306 32.4021 25.0033 32.1914C24.7761 31.9783 24.5239 31.8245 24.2469 31.7298C23.97 31.6351 23.6894 31.5877 23.4053 31.5877C22.9129 31.5877 22.482 31.7085 22.1127 31.9499C21.7458 32.189 21.4593 32.5228 21.2533 32.9514C21.0497 33.3775 20.9479 33.8699 20.9479 34.4286C20.9479 34.9873 21.0497 35.4774 21.2533 35.8988C21.4593 36.3178 21.7517 36.6445 22.1305 36.8789ZM21.79 33.9457C21.806 33.6926 21.8697 33.4535 21.9813 33.2283C22.1115 32.9656 22.2974 32.7525 22.5389 32.5891C22.7827 32.4234 23.0715 32.3406 23.4053 32.3406C23.7084 32.3406 23.9711 32.4104 24.1937 32.5501C24.4186 32.6898 24.5914 32.8803 24.7121 33.1218C24.8353 33.3633 24.8968 33.6379 24.8968 33.9457H21.79Z" fill="#CFD1DE"/>
<path d="M27.9188 36.8647C28.2881 37.1062 28.7285 37.2269 29.2398 37.2269C29.6423 37.2269 29.9951 37.1523 30.2981 37.0032C30.6035 36.8517 30.8485 36.6481 31.0332 36.3924C31.2202 36.1343 31.3374 35.8443 31.3847 35.5224H30.5467C30.4946 35.7212 30.407 35.8917 30.2839 36.0337C30.1608 36.1758 30.0104 36.2847 29.8329 36.3604C29.6553 36.4362 29.4576 36.4741 29.2398 36.4741C28.9084 36.4741 28.6196 36.3877 28.3734 36.2148C28.1295 36.042 27.9401 35.7994 27.8052 35.4869C27.6726 35.1744 27.6063 34.8074 27.6063 34.386C27.6063 33.9741 27.6738 33.6154 27.8087 33.31C27.946 33.0023 28.1366 32.7643 28.3805 32.5962C28.6267 32.4258 28.9131 32.3406 29.2398 32.3406C29.6092 32.3406 29.9027 32.4376 30.1205 32.6317C30.3407 32.8235 30.4827 33.0437 30.5467 33.2923H31.3847C31.3374 32.9514 31.2155 32.6531 31.019 32.3974C30.8225 32.1417 30.5703 31.9428 30.2626 31.8008C29.9548 31.6587 29.6092 31.5877 29.2256 31.5877C28.7332 31.5877 28.3023 31.7085 27.933 31.9499C27.5661 32.189 27.2796 32.5217 27.0737 32.9478C26.8701 33.3716 26.7683 33.8604 26.7683 34.4144C26.7683 34.9589 26.8677 35.4431 27.0666 35.8668C27.2654 36.2906 27.5495 36.6232 27.9188 36.8647Z" fill="#CFD1DE"/>
<path d="M34.982 32.369V31.6587H33.8173V30.3519H32.9792V31.6587H32.1553V32.369H32.9792V35.7781C32.9792 36.0953 33.0526 36.3581 33.1994 36.5664C33.3485 36.7747 33.5355 36.9298 33.7604 37.0316C33.9877 37.1334 34.2197 37.1843 34.4565 37.1843C34.6127 37.1843 34.7417 37.1725 34.8435 37.1488C34.9453 37.1275 35.0247 37.1062 35.0815 37.0849L34.911 36.332L34.769 36.3604C34.7098 36.3699 34.634 36.3746 34.5417 36.3746C34.4186 36.3746 34.3014 36.3557 34.1901 36.3178C34.0812 36.2776 33.9913 36.1995 33.9202 36.0835C33.8516 35.9651 33.8173 35.7875 33.8173 35.5508V32.369H34.982Z" fill="#CFD1DE"/>
<path fill-rule="evenodd" clip-rule="evenodd" d="M37.1038 36.8754C37.4755 37.1097 37.9076 37.2269 38.4 37.2269C38.8924 37.2269 39.3233 37.1097 39.6926 36.8754C40.0643 36.641 40.3531 36.3131 40.5591 35.8917C40.7674 35.4703 40.8716 34.9779 40.8716 34.4144C40.8716 33.8462 40.7674 33.3503 40.5591 32.9265C40.3531 32.5027 40.0643 32.1736 39.6926 31.9393C39.3233 31.7049 38.8924 31.5877 38.4 31.5877C37.9076 31.5877 37.4755 31.7049 37.1038 31.9393C36.7345 32.1736 36.4457 32.5027 36.2374 32.9265C36.0314 33.3503 35.9284 33.8462 35.9284 34.4144C35.9284 34.9779 36.0314 35.4703 36.2374 35.8917C36.4457 36.3131 36.7345 36.641 37.1038 36.8754ZM39.3233 36.1864C39.0818 36.3782 38.7741 36.4741 38.4 36.4741C38.026 36.4741 37.7182 36.3782 37.4767 36.1864C37.2352 35.9947 37.0565 35.7425 36.9405 35.43C36.8245 35.1175 36.7665 34.779 36.7665 34.4144C36.7665 34.0498 36.8245 33.7101 36.9405 33.3952C37.0565 33.0804 37.2352 32.8259 37.4767 32.6317C37.7182 32.4376 38.026 32.3406 38.4 32.3406C38.7741 32.3406 39.0818 32.4376 39.3233 32.6317C39.5648 32.8259 39.7435 33.0804 39.8595 33.3952C39.9755 33.7101 40.0335 34.0498 40.0335 34.4144C40.0335 34.779 39.9755 35.1175 39.8595 35.43C39.7435 35.7425 39.5648 35.9947 39.3233 36.1864Z" fill="#CFD1DE"/>
<path d="M45.2617 33.0934L46.0145 32.8803C45.8843 32.4921 45.6642 32.1796 45.354 31.9428C45.0463 31.7061 44.6225 31.5877 44.0827 31.5877C43.6992 31.5877 43.3559 31.6552 43.0529 31.7901C42.7522 31.9251 42.5143 32.1109 42.3391 32.3477C42.1663 32.5844 42.0799 32.8567 42.0799 33.1644C42.0799 33.5408 42.1959 33.8545 42.4279 34.1055C42.6623 34.354 43.0292 34.5375 43.5287 34.6559L44.4378 34.869C44.7124 34.9329 44.916 35.0299 45.0486 35.1602C45.1812 35.288 45.2475 35.4466 45.2475 35.636C45.2475 35.8704 45.1315 36.0716 44.8995 36.2397C44.6698 36.4054 44.3597 36.4883 43.9691 36.4883C43.6258 36.4883 43.3476 36.4149 43.1346 36.2681C42.9239 36.1213 42.7806 35.9012 42.7049 35.6076L41.9094 35.8065C42.0065 36.2705 42.2373 36.6232 42.6019 36.8647C42.9665 37.1062 43.4269 37.2269 43.9833 37.2269C44.407 37.2269 44.7787 37.1559 45.0983 37.0139C45.4179 36.8718 45.6665 36.6777 45.8441 36.4315C46.024 36.1852 46.114 35.9059 46.114 35.5934C46.114 35.2122 45.9944 34.9009 45.7553 34.6594C45.5162 34.4156 45.1528 34.2345 44.6651 34.1161L43.8554 33.9173C43.5335 33.8368 43.2967 33.7361 43.1452 33.6154C42.9937 33.4947 42.9179 33.3301 42.9179 33.1218C42.9179 32.8874 43.028 32.6945 43.2482 32.543C43.4707 32.3891 43.7489 32.3121 44.0827 32.3121C44.3266 32.3121 44.5266 32.3512 44.6829 32.4293C44.8391 32.5075 44.9622 32.6069 45.0522 32.7276C45.1445 32.846 45.2143 32.9679 45.2617 33.0934Z" fill="#CFD1DE"/>
</svg>
