<svg width="38" height="37" viewBox="0 0 38 37" fill="none" xmlns="http://www.w3.org/2000/svg">
<path fill-rule="evenodd" clip-rule="evenodd" d="M10.9384 0.990234C8.70715 0.990234 6.89838 2.799 6.89838 5.03023V19.1963C6.89838 21.4275 8.70715 23.2363 10.9384 23.2363H27.0618C29.293 23.2363 31.1018 21.4275 31.1018 19.1963V8.98093C31.1018 6.7497 29.293 4.94093 27.0618 4.94093H10.4124C9.85475 4.94093 9.40268 4.48885 9.40268 3.93119C9.40268 3.86564 9.39643 3.80154 9.38451 3.73946C9.75504 3.2939 10.3136 3.01023 10.9384 3.01023H28.0957C28.6535 3.01023 29.1057 2.55804 29.1057 2.00023C29.1057 1.44243 28.6535 0.990234 28.0957 0.990234H10.9384ZM8.91838 19.1963V6.56754C9.35927 6.81794 9.86915 6.96093 10.4124 6.96093H27.0618C28.1774 6.96093 29.0818 7.86531 29.0818 8.98093V19.1963C29.0818 20.3119 28.1774 21.2163 27.0618 21.2163H10.9384C9.82277 21.2163 8.91838 20.3119 8.91838 19.1963Z" fill="#CFD1DE"/>
<path fill-rule="evenodd" clip-rule="evenodd" d="M0.78418 28.6823V35.9551H3.41202C3.98494 35.9551 4.45014 35.8698 4.80762 35.6994C5.1651 35.5289 5.4267 35.2981 5.59242 35.0069C5.75814 34.7157 5.841 34.3878 5.841 34.0233C5.841 33.6397 5.76524 33.3154 5.61373 33.0502C5.46221 32.7851 5.274 32.5815 5.04909 32.4394C4.82419 32.2974 4.60047 32.2193 4.37793 32.2051V32.134C4.58626 32.0772 4.77921 31.9896 4.95677 31.8713C5.13669 31.7529 5.2811 31.5919 5.39 31.3883C5.50127 31.1847 5.55691 30.9267 5.55691 30.6142C5.55691 30.259 5.47641 29.9359 5.31543 29.6447C5.15445 29.3511 4.90942 29.1179 4.58034 28.9451C4.25127 28.7699 3.83342 28.6823 3.32679 28.6823H0.78418ZM3.41202 35.1738H1.66486V32.6454H3.45463C3.77187 32.6454 4.04649 32.7093 4.2785 32.8372C4.51051 32.9626 4.68925 33.1307 4.81472 33.3414C4.94019 33.5498 5.00293 33.777 5.00293 34.0233C5.00293 34.3429 4.88101 34.6151 4.63716 34.84C4.39569 35.0625 3.9873 35.1738 3.41202 35.1738ZM3.29838 31.8784H1.66486V29.4636H3.32679C3.80975 29.4636 4.16249 29.576 4.38503 29.8009C4.60757 30.0235 4.71884 30.2946 4.71884 30.6142C4.71884 30.8698 4.65492 31.0924 4.52708 31.2818C4.4016 31.4712 4.23115 31.6179 4.01571 31.7221C3.80265 31.8263 3.56354 31.8784 3.29838 31.8784Z" fill="#CFD1DE"/>
<path d="M7.17445 30.5005V35.9551H8.01252V30.5005H7.17445Z" fill="#CFD1DE"/>
<path d="M7.178 29.4245C7.29637 29.5358 7.43723 29.5914 7.60059 29.5914C7.76394 29.5914 7.90362 29.5358 8.01962 29.4245C8.13799 29.3133 8.19718 29.1795 8.19718 29.0233C8.19718 28.867 8.13799 28.7332 8.01962 28.622C7.90362 28.5107 7.76394 28.4551 7.60059 28.4551C7.43723 28.4551 7.29637 28.5107 7.178 28.622C7.062 28.7332 7.00399 28.867 7.00399 29.0233C7.00399 29.1795 7.062 29.3133 7.178 29.4245Z" fill="#CFD1DE"/>
<path d="M10.3856 35.9551V28.6823H9.5475V35.9551H10.3856Z" fill="#CFD1DE"/>
<path d="M12.7586 35.9551V28.6823H11.9205V35.9551H12.7586Z" fill="#CFD1DE"/>
<path fill-rule="evenodd" clip-rule="evenodd" d="M15.2204 35.7207C15.6016 35.9527 16.055 36.0687 16.5805 36.0687C16.9498 36.0687 17.2825 36.0119 17.5784 35.8983C17.8743 35.7822 18.1229 35.6213 18.3241 35.4153C18.5254 35.207 18.6686 34.9655 18.7538 34.6909L17.9442 34.4636C17.8731 34.653 17.7725 34.8116 17.6423 34.9394C17.5121 35.0649 17.357 35.1596 17.1771 35.2235C16.9996 35.2851 16.8007 35.3159 16.5805 35.3159C16.242 35.3159 15.9449 35.2425 15.6892 35.0957C15.4335 34.9465 15.2335 34.7299 15.089 34.4458C14.9602 34.1861 14.8898 33.8748 14.8778 33.5119H18.839V33.1568C18.839 32.6478 18.7716 32.2193 18.6366 31.8713C18.5017 31.5233 18.3206 31.2439 18.0933 31.0332C17.866 30.8201 17.6139 30.6662 17.3369 30.5715C17.0599 30.4768 16.7794 30.4295 16.4953 30.4295C16.0029 30.4295 15.572 30.5502 15.2027 30.7917C14.8357 31.0308 14.5493 31.3646 14.3433 31.7931C14.1397 32.2193 14.0379 32.7117 14.0379 33.2704C14.0379 33.8291 14.1397 34.3192 14.3433 34.7406C14.5493 35.1596 14.8416 35.4863 15.2204 35.7207ZM14.88 32.7875C14.8959 32.5344 14.9597 32.2953 15.0713 32.0701C15.2015 31.8073 15.3873 31.5943 15.6288 31.4309C15.8727 31.2652 16.1615 31.1823 16.4953 31.1823C16.7983 31.1823 17.0611 31.2522 17.2836 31.3919C17.5086 31.5315 17.6814 31.7221 17.8021 31.9636C17.9252 32.2051 17.9868 32.4797 17.9868 32.7875H14.88Z" fill="#CFD1DE"/>
<path d="M22.4861 31.2108V30.5005H21.3213V29.1937H20.4832V30.5005H19.6594V31.2108H20.4832V34.6198C20.4832 34.9371 20.5566 35.1999 20.7034 35.4082C20.8525 35.6165 21.0396 35.7716 21.2645 35.8734C21.4917 35.9752 21.7238 36.0261 21.9605 36.0261C22.1167 36.0261 22.2458 36.0143 22.3476 35.9906C22.4494 35.9693 22.5287 35.948 22.5855 35.9267L22.415 35.1738L22.273 35.2022C22.2138 35.2117 22.1381 35.2164 22.0457 35.2164C21.9226 35.2164 21.8054 35.1975 21.6942 35.1596C21.5853 35.1194 21.4953 35.0412 21.4243 34.9252C21.3556 34.8069 21.3213 34.6293 21.3213 34.3926V31.2108H22.4861Z" fill="#CFD1DE"/>
<path fill-rule="evenodd" clip-rule="evenodd" d="M24.615 35.7207C24.9961 35.9527 25.4495 36.0687 25.9751 36.0687C26.3444 36.0687 26.677 36.0119 26.9729 35.8983C27.2689 35.7822 27.5174 35.6213 27.7187 35.4153C27.9199 35.207 28.0631 34.9655 28.1483 34.6909L27.3387 34.4636C27.2677 34.653 27.1671 34.8116 27.0368 34.9394C26.9066 35.0649 26.7516 35.1596 26.5716 35.2235C26.3941 35.2851 26.1952 35.3159 25.9751 35.3159C25.6365 35.3159 25.3394 35.2425 25.0837 35.0957C24.828 34.9465 24.628 34.7299 24.4836 34.4458C24.3548 34.1861 24.2844 33.8748 24.2724 33.5119H28.2336V33.1568C28.2336 32.6478 28.1661 32.2193 28.0312 31.8713C27.8962 31.5233 27.7151 31.2439 27.4878 31.0332C27.2606 30.8201 27.0084 30.6662 26.7314 30.5715C26.4545 30.4768 26.1739 30.4295 25.8898 30.4295C25.3974 30.4295 24.9665 30.5502 24.5972 30.7917C24.2303 31.0308 23.9438 31.3646 23.7378 31.7931C23.5342 32.2193 23.4324 32.7117 23.4324 33.2704C23.4324 33.8291 23.5342 34.3192 23.7378 34.7406C23.9438 35.1596 24.2362 35.4863 24.615 35.7207ZM24.2745 32.7875C24.2905 32.5344 24.3542 32.2953 24.4658 32.0701C24.596 31.8073 24.7819 31.5943 25.0233 31.4309C25.2672 31.2652 25.556 31.1823 25.8898 31.1823C26.1929 31.1823 26.4556 31.2522 26.6782 31.3919C26.9031 31.5315 27.0759 31.7221 27.1966 31.9636C27.3197 32.2051 27.3813 32.4797 27.3813 32.7875H24.2745Z" fill="#CFD1DE"/>
<path d="M29.5084 30.5005V35.9551H30.3465V32.5034C30.3465 32.2572 30.4057 32.0382 30.5241 31.8464C30.6448 31.6523 30.8081 31.5008 31.0141 31.3919C31.2224 31.2806 31.4592 31.225 31.7243 31.225C31.8356 31.225 31.941 31.2332 32.0404 31.2498C32.1422 31.264 32.2073 31.2747 32.2357 31.2818V30.4295C32.1884 30.4248 32.1185 30.4212 32.0262 30.4188C31.9339 30.4165 31.8569 30.4153 31.7954 30.4153C31.4687 30.4153 31.1751 30.4993 30.9147 30.6674C30.6543 30.8355 30.4743 31.0545 30.3749 31.3244H30.3181V30.5005H29.5084Z" fill="#CFD1DE"/>
<path fill-rule="evenodd" clip-rule="evenodd" d="M33.8932 35.8876C34.1749 36.0178 34.4886 36.0829 34.8343 36.0829C35.1515 36.0829 35.4202 36.0356 35.6404 35.9409C35.8605 35.8462 36.0369 35.7313 36.1695 35.5964C36.3021 35.4615 36.3968 35.3348 36.4536 35.2164H36.4962V35.9551H37.3343V32.3613C37.3343 31.9281 37.2632 31.5824 37.1212 31.3244C36.9791 31.0663 36.8004 30.8734 36.585 30.7456C36.3719 30.6177 36.1505 30.5337 35.9209 30.4934C35.6936 30.4508 35.4924 30.4295 35.3172 30.4295C35.0426 30.4295 34.7632 30.4674 34.4791 30.5431C34.1974 30.6165 33.937 30.7467 33.6979 30.9338C33.4611 31.1184 33.2718 31.3765 33.1297 31.7079L33.9252 31.992C34.0175 31.7931 34.1773 31.6061 34.4046 31.4309C34.6318 31.2557 34.9455 31.1681 35.3456 31.1681C35.7315 31.1681 36.0191 31.2652 36.2085 31.4593C36.4003 31.6535 36.4962 31.9257 36.4962 32.2761V32.3045C36.4962 32.4394 36.4477 32.5341 36.3506 32.5886C36.2559 32.643 36.1044 32.6821 35.896 32.7058C35.6901 32.7271 35.4214 32.759 35.0899 32.8017C34.8366 32.8348 34.5845 32.8798 34.3335 32.9366C34.085 32.9911 33.8577 33.0739 33.6517 33.1852C33.4458 33.2965 33.2812 33.4503 33.1581 33.6468C33.035 33.841 32.9735 34.0943 32.9735 34.4068C32.9735 34.7619 33.0563 35.0649 33.222 35.3159C33.3878 35.5644 33.6115 35.755 33.8932 35.8876ZM35.8002 35.1348C35.5729 35.265 35.2935 35.3301 34.9621 35.3301C34.6283 35.3301 34.3525 35.2567 34.1347 35.1099C33.9192 34.9608 33.8115 34.7406 33.8115 34.4494C33.8115 34.2363 33.8683 34.0682 33.982 33.9451C34.098 33.8197 34.2495 33.7261 34.4365 33.6646C34.6259 33.6007 34.8295 33.5545 35.0473 33.5261C35.1373 33.5143 35.2545 33.5 35.3989 33.4835C35.5457 33.4645 35.696 33.4432 35.8499 33.4196C36.0061 33.3935 36.1434 33.3639 36.2618 33.3308C36.3825 33.2953 36.4607 33.2562 36.4962 33.2136V33.9806C36.4962 34.2079 36.437 34.4245 36.3186 34.6305C36.2026 34.8365 36.0298 35.0045 35.8002 35.1348Z" fill="#CFD1DE"/>
</svg>
