<svg width="47" height="40" viewBox="0 0 47 40" fill="none" xmlns="http://www.w3.org/2000/svg">
<path fill-rule="evenodd" clip-rule="evenodd" d="M29.1751 2.71987H29.0025C28.586 1.54151 27.4622 0.697266 26.1412 0.697266H20.0734C18.7524 0.697266 17.6286 1.54151 17.2121 2.71987H17.0395C14.8054 2.71987 12.9943 4.53097 12.9943 6.76508V20.9233C12.9943 23.1574 14.8054 24.9685 17.0395 24.9685H29.1751C31.4092 24.9685 33.2203 23.1574 33.2203 20.9233V6.76508C33.2203 4.53097 31.4092 2.71987 29.1751 2.71987ZM15.0169 6.76508C15.0169 5.64803 15.9224 4.74248 17.0395 4.74248C17.0395 6.41806 18.3978 7.77639 20.0734 7.77639H26.1412C27.8168 7.77639 29.1751 6.41806 29.1751 4.74248C30.2922 4.74248 31.1977 5.64803 31.1977 6.76508V20.9233C31.1977 22.0404 30.2922 22.9459 29.1751 22.9459H17.0395C15.9224 22.9459 15.0169 22.0404 15.0169 20.9233V6.76508ZM20.0734 2.71987C19.5149 2.71987 19.0621 3.17265 19.0621 3.73117V4.74248C19.0621 5.301 19.5149 5.75378 20.0734 5.75378H26.1412C26.6997 5.75378 27.1525 5.301 27.1525 4.74248V3.73117C27.1525 3.17265 26.6997 2.71987 26.1412 2.71987H20.0734Z" fill="#55B3FF"/>
<path fill-rule="evenodd" clip-rule="evenodd" d="M0.3797 30.4245V37.6973H1.26038V35.041H2.85129C3.41711 35.041 3.88112 34.938 4.24334 34.7321C4.60555 34.5237 4.87307 34.2444 5.04589 33.894C5.22108 33.5436 5.30868 33.1542 5.30868 32.7257C5.30868 32.2972 5.22108 31.9089 5.04589 31.5609C4.8707 31.2129 4.60082 30.9371 4.23623 30.7335C3.87402 30.5275 3.40764 30.4245 2.83709 30.4245H0.3797ZM1.26038 34.2598H2.82288C3.21351 34.2598 3.52719 34.1923 3.76393 34.0574C4.00067 33.9224 4.17231 33.7401 4.27885 33.5105C4.38775 33.2785 4.4422 33.0169 4.4422 32.7257C4.4422 32.4345 4.38775 32.1741 4.27885 31.9444C4.17231 31.7148 3.99949 31.5349 3.76038 31.4047C3.52127 31.2721 3.20404 31.2058 2.80868 31.2058H1.26038V34.2598Z" fill="#55B3FF"/>
<path d="M6.61372 32.2427V37.6973H7.45179V34.2456C7.45179 33.9993 7.51097 33.7804 7.62934 33.5886C7.75008 33.3945 7.91344 33.243 8.1194 33.1341C8.32773 33.0228 8.56448 32.9672 8.82963 32.9672C8.9409 32.9672 9.04625 32.9754 9.14568 32.992C9.24748 33.0062 9.31258 33.0169 9.34099 33.024V32.1717C9.29364 32.167 9.2238 32.1634 9.13148 32.161C9.03915 32.1587 8.9622 32.1575 8.90065 32.1575C8.57395 32.1575 8.28039 32.2415 8.01997 32.4096C7.75955 32.5777 7.57963 32.7967 7.4802 33.0666H7.42338V32.2427H6.61372Z" fill="#55B3FF"/>
<path fill-rule="evenodd" clip-rule="evenodd" d="M11.0882 37.4593C11.4598 37.6937 11.8919 37.8109 12.3843 37.8109C12.8767 37.8109 13.3076 37.6937 13.6769 37.4593C14.0486 37.225 14.3374 36.8971 14.5434 36.4757C14.7517 36.0543 14.8559 35.5618 14.8559 34.9984C14.8559 34.4302 14.7517 33.9342 14.5434 33.5105C14.3374 33.0867 14.0486 32.7576 13.6769 32.5233C13.3076 32.2889 12.8767 32.1717 12.3843 32.1717C11.8919 32.1717 11.4598 32.2889 11.0882 32.5233C10.7188 32.7576 10.43 33.0867 10.2217 33.5105C10.0157 33.9342 9.91273 34.4302 9.91273 34.9984C9.91273 35.5618 10.0157 36.0543 10.2217 36.4757C10.43 36.8971 10.7188 37.225 11.0882 37.4593ZM13.3076 36.7704C13.0661 36.9622 12.7584 37.0581 12.3843 37.0581C12.0103 37.0581 11.7025 36.9622 11.461 36.7704C11.2195 36.5787 11.0408 36.3265 10.9248 36.014C10.8088 35.7015 10.7508 35.363 10.7508 34.9984C10.7508 34.6338 10.8088 34.2941 10.9248 33.9792C11.0408 33.6644 11.2195 33.4099 11.461 33.2157C11.7025 33.0216 12.0103 32.9245 12.3843 32.9245C12.7584 32.9245 13.0661 33.0216 13.3076 33.2157C13.5491 33.4099 13.7278 33.6644 13.8438 33.9792C13.9598 34.2941 14.0178 34.6338 14.0178 34.9984C14.0178 35.363 13.9598 35.7015 13.8438 36.014C13.7278 36.3265 13.5491 36.5787 13.3076 36.7704Z" fill="#55B3FF"/>
<path d="M16.0997 39.7072C16.211 39.7309 16.3376 39.7427 16.4797 39.7427C16.733 39.7427 16.9603 39.6977 17.1615 39.6078C17.3651 39.5178 17.5438 39.3793 17.6977 39.1923C17.8516 39.0076 17.9806 38.7744 18.0848 38.4927L20.4001 32.2427H19.491L17.9853 36.5893H17.9285L16.4228 32.2427H15.5138L17.5308 37.7257L17.3745 38.1518C17.2728 38.4288 17.1603 38.6288 17.0372 38.752C16.9165 38.8774 16.778 38.9473 16.6217 38.9615C16.4655 38.9757 16.2855 38.9567 16.0819 38.9047L15.8689 39.6433C15.9115 39.6646 15.9884 39.6859 16.0997 39.7072Z" fill="#55B3FF"/>
<path fill-rule="evenodd" clip-rule="evenodd" d="M22.2378 37.4629C22.619 37.6949 23.0723 37.8109 23.5979 37.8109C23.9672 37.8109 24.2999 37.7541 24.5958 37.6404C24.8917 37.5244 25.1403 37.3635 25.3415 37.1575C25.5428 36.9492 25.686 36.7077 25.7712 36.4331L24.9616 36.2058C24.8905 36.3952 24.7899 36.5538 24.6597 36.6816C24.5295 36.8071 24.3744 36.9018 24.1945 36.9657C24.017 37.0273 23.8181 37.0581 23.5979 37.0581C23.2594 37.0581 22.9623 36.9847 22.7066 36.8379C22.4509 36.6887 22.2509 36.4721 22.1064 36.188C21.9776 35.9283 21.9072 35.617 21.8952 35.2541H25.8564V34.899C25.8564 34.39 25.789 33.9615 25.654 33.6135C25.5191 33.2654 25.338 32.9861 25.1107 32.7754C24.8834 32.5623 24.6313 32.4084 24.3543 32.3137C24.0773 32.219 23.7968 32.1717 23.5127 32.1717C23.0203 32.1717 22.5894 32.2924 22.2201 32.5339C21.8531 32.773 21.5667 33.1068 21.3607 33.5353C21.1571 33.9615 21.0553 34.4539 21.0553 35.0126C21.0553 35.5713 21.1571 36.0614 21.3607 36.4828C21.5667 36.9018 21.859 37.2285 22.2378 37.4629ZM21.8974 34.5297C21.9133 34.2766 21.9771 34.0375 22.0887 33.8123C22.2189 33.5495 22.4047 33.3365 22.6462 33.1731C22.8901 33.0074 23.1789 32.9245 23.5127 32.9245C23.8157 32.9245 24.0785 32.9944 24.301 33.1341C24.5259 33.2737 24.6988 33.4643 24.8195 33.7058C24.9426 33.9473 25.0042 34.2219 25.0042 34.5297H21.8974Z" fill="#55B3FF"/>
<path d="M28.0262 37.4487C28.3955 37.6902 28.8358 37.8109 29.3472 37.8109C29.7497 37.8109 30.1024 37.7363 30.4054 37.5872C30.7108 37.4357 30.9559 37.2321 31.1405 36.9764C31.3276 36.7183 31.4447 36.4283 31.4921 36.1064H30.654C30.6019 36.3052 30.5143 36.4757 30.3912 36.6177C30.2681 36.7598 30.1178 36.8687 29.9402 36.9444C29.7627 37.0202 29.565 37.0581 29.3472 37.0581C29.0158 37.0581 28.7269 36.9716 28.4807 36.7988C28.2369 36.626 28.0475 36.3833 27.9125 36.0708C27.78 35.7583 27.7137 35.3914 27.7137 34.97C27.7137 34.5581 27.7812 34.1994 27.9161 33.894C28.0534 33.5862 28.244 33.3483 28.4878 33.1802C28.734 33.0098 29.0205 32.9245 29.3472 32.9245C29.7165 32.9245 30.0101 33.0216 30.2279 33.2157C30.4481 33.4075 30.5901 33.6277 30.654 33.8762H31.4921C31.4447 33.5353 31.3228 33.237 31.1263 32.9814C30.9298 32.7257 30.6777 32.5268 30.3699 32.3848C30.0622 32.2427 29.7165 32.1717 29.333 32.1717C28.8406 32.1717 28.4097 32.2924 28.0404 32.5339C27.6734 32.773 27.387 33.1056 27.181 33.5318C26.9774 33.9556 26.8756 34.4444 26.8756 34.9984C26.8756 35.5429 26.975 36.027 27.1739 36.4508C27.3728 36.8746 27.6569 37.2072 28.0262 37.4487Z" fill="#55B3FF"/>
<path d="M35.0894 32.9529V32.2427H33.9246V30.9359H33.0866V32.2427H32.2627V32.9529H33.0866V36.362C33.0866 36.6793 33.1599 36.9421 33.3067 37.1504C33.4559 37.3587 33.6429 37.5138 33.8678 37.6156C34.0951 37.7174 34.3271 37.7683 34.5638 37.7683C34.7201 37.7683 34.8491 37.7565 34.9509 37.7328C35.0527 37.7115 35.132 37.6902 35.1888 37.6689L35.0184 36.916L34.8763 36.9444C34.8171 36.9539 34.7414 36.9586 34.6491 36.9586C34.5259 36.9586 34.4088 36.9397 34.2975 36.9018C34.1886 36.8616 34.0986 36.7834 34.0276 36.6674C33.959 36.5491 33.9246 36.3715 33.9246 36.1348V32.9529H35.0894Z" fill="#55B3FF"/>
<path fill-rule="evenodd" clip-rule="evenodd" d="M37.2112 37.4593C37.5829 37.6937 38.0149 37.8109 38.5074 37.8109C38.9998 37.8109 39.4307 37.6937 39.8 37.4593C40.1717 37.225 40.4605 36.8971 40.6665 36.4757C40.8748 36.0543 40.979 35.5618 40.979 34.9984C40.979 34.4302 40.8748 33.9342 40.6665 33.5105C40.4605 33.0867 40.1717 32.7576 39.8 32.5233C39.4307 32.2889 38.9998 32.1717 38.5074 32.1717C38.0149 32.1717 37.5829 32.2889 37.2112 32.5233C36.8419 32.7576 36.5531 33.0867 36.3447 33.5105C36.1388 33.9342 36.0358 34.4302 36.0358 34.9984C36.0358 35.5618 36.1388 36.0543 36.3447 36.4757C36.5531 36.8971 36.8419 37.225 37.2112 37.4593ZM39.4307 36.7704C39.1892 36.9622 38.8814 37.0581 38.5074 37.0581C38.1333 37.0581 37.8255 36.9622 37.5841 36.7704C37.3426 36.5787 37.1639 36.3265 37.0478 36.014C36.9318 35.7015 36.8738 35.363 36.8738 34.9984C36.8738 34.6338 36.9318 34.2941 37.0478 33.9792C37.1639 33.6644 37.3426 33.4099 37.5841 33.2157C37.8255 33.0216 38.1333 32.9245 38.5074 32.9245C38.8814 32.9245 39.1892 33.0216 39.4307 33.2157C39.6721 33.4099 39.8509 33.6644 39.9669 33.9792C40.0829 34.2941 40.1409 34.6338 40.1409 34.9984C40.1409 35.363 40.0829 35.7015 39.9669 36.014C39.8509 36.3265 39.6721 36.5787 39.4307 36.7704Z" fill="#55B3FF"/>
<path d="M45.369 33.6774L46.1219 33.4643C45.9917 33.0761 45.7715 32.7636 45.4614 32.5268C45.1536 32.2901 44.7298 32.1717 44.1901 32.1717C43.8065 32.1717 43.4633 32.2392 43.1602 32.3741C42.8596 32.5091 42.6217 32.6949 42.4465 32.9316C42.2736 33.1684 42.1872 33.4406 42.1872 33.7484C42.1872 34.1248 42.3032 34.4385 42.5352 34.6895C42.7696 34.938 43.1366 35.1215 43.6361 35.2399L44.5452 35.4529C44.8198 35.5169 45.0234 35.6139 45.156 35.7441C45.2886 35.872 45.3548 36.0306 45.3548 36.22C45.3548 36.4544 45.2388 36.6556 45.0068 36.8237C44.7772 36.9894 44.4671 37.0723 44.0764 37.0723C43.7332 37.0723 43.455 36.9989 43.2419 36.8521C43.0312 36.7053 42.888 36.4851 42.8122 36.1916L42.0168 36.3904C42.1138 36.8545 42.3447 37.2072 42.7092 37.4487C43.0738 37.6902 43.5343 37.8109 44.0906 37.8109C44.5144 37.8109 44.8861 37.7399 45.2057 37.5978C45.5253 37.4558 45.7739 37.2617 45.9514 37.0154C46.1314 36.7692 46.2213 36.4899 46.2213 36.1774C46.2213 35.7962 46.1018 35.4849 45.8627 35.2434C45.6235 34.9996 45.2601 34.8185 44.7725 34.7001L43.9628 34.5012C43.6408 34.4207 43.4041 34.3201 43.2526 34.1994C43.1011 34.0787 43.0253 33.9141 43.0253 33.7058C43.0253 33.4714 43.1354 33.2785 43.3556 33.127C43.5781 32.9731 43.8563 32.8961 44.1901 32.8961C44.4339 32.8961 44.634 32.9352 44.7902 33.0133C44.9465 33.0914 45.0696 33.1909 45.1595 33.3116C45.2519 33.43 45.3217 33.5519 45.369 33.6774Z" fill="#55B3FF"/>
</svg>
