<svg width="24" height="37" viewBox="0 0 24 37" fill="none" xmlns="http://www.w3.org/2000/svg">
<path fill-rule="evenodd" clip-rule="evenodd" d="M6.93225 6.07911C6.93225 2.72795 9.64891 0.0112915 13.0001 0.0112915C16.3512 0.0112915 19.0679 2.72795 19.0679 6.07911C19.0679 9.43027 16.3512 12.1469 13.0001 12.1469C9.64891 12.1469 6.93225 9.43027 6.93225 6.07911ZM13.0001 2.0339C10.766 2.0339 8.95486 3.845 8.95486 6.07911C8.95486 8.31322 10.766 10.1243 13.0001 10.1243C15.2342 10.1243 17.0453 8.31322 17.0453 6.07911C17.0453 3.845 15.2342 2.0339 13.0001 2.0339Z" fill="#55B3FF"/>
<path d="M13.0001 16.6978C10.6004 16.6978 8.32656 17.2309 6.77044 17.7112C5.8797 17.9862 5.22516 18.7929 5.06497 19.8227L4.89763 20.8984C4.81178 21.4503 4.29479 21.8281 3.7429 21.7423C3.19101 21.6564 2.81321 21.1394 2.89906 20.5876L3.0664 19.5118C3.32809 17.8295 4.44204 16.3132 6.17385 15.7786C7.83671 15.2653 10.3241 14.6752 13.0001 14.6752C15.6761 14.6752 18.1634 15.2653 19.8263 15.7786C21.5581 16.3132 22.672 17.8295 22.9337 19.5118L23.1011 20.5876C23.1869 21.1394 22.8091 21.6564 22.2572 21.7423C21.7053 21.8281 21.1884 21.4503 21.1025 20.8984L20.9352 19.8227C20.775 18.7929 20.1204 17.9862 19.2297 17.7112C17.6736 17.2309 15.3998 16.6978 13.0001 16.6978Z" fill="#55B3FF"/>
<path fill-rule="evenodd" clip-rule="evenodd" d="M0.620117 28.7273V36H1.5008V33.3437H3.09171C3.65752 33.3437 4.12154 33.2408 4.48375 33.0348C4.84597 32.8265 5.11349 32.5471 5.28631 32.1967C5.4615 31.8463 5.54909 31.4569 5.54909 31.0284C5.54909 30.5999 5.4615 30.2116 5.28631 29.8636C5.11112 29.5156 4.84123 29.2398 4.47665 29.0362C4.11444 28.8302 3.64805 28.7273 3.0775 28.7273H0.620117ZM1.5008 32.5625H3.0633C3.45392 32.5625 3.76761 32.495 4.00435 32.3601C4.24109 32.2251 4.41273 32.0428 4.51927 31.8132C4.62817 31.5812 4.68262 31.3196 4.68262 31.0284C4.68262 30.7372 4.62817 30.4768 4.51927 30.2471C4.41273 30.0175 4.23991 29.8376 4.0008 29.7074C3.76169 29.5748 3.44445 29.5085 3.04909 29.5085H1.5008V32.5625Z" fill="#55B3FF"/>
<path fill-rule="evenodd" clip-rule="evenodd" d="M7.72239 35.7656C8.10355 35.9976 8.55691 36.1136 9.08248 36.1136C9.45179 36.1136 9.78442 36.0568 10.0803 35.9432C10.3763 35.8272 10.6249 35.6662 10.8261 35.4602C11.0273 35.2519 11.1705 35.0104 11.2558 34.7358L10.4461 34.5085C10.3751 34.6979 10.2745 34.8565 10.1443 34.9844C10.0141 35.1098 9.85899 35.2045 9.67907 35.2685C9.50151 35.33 9.30265 35.3608 9.08248 35.3608C8.74393 35.3608 8.44682 35.2874 8.19114 35.1406C7.93546 34.9915 7.73541 34.7748 7.591 34.4908C7.4622 34.231 7.3918 33.9197 7.37978 33.5568H11.341V33.2017C11.341 32.6927 11.2735 32.2642 11.1386 31.9162C11.0036 31.5682 10.8225 31.2888 10.5953 31.0781C10.368 30.865 10.1159 30.7112 9.83887 30.6165C9.56188 30.5218 9.28134 30.4744 8.99725 30.4744C8.50482 30.4744 8.07395 30.5952 7.70463 30.8366C7.33768 31.0757 7.05123 31.4096 6.84526 31.8381C6.64166 32.2642 6.53986 32.7566 6.53986 33.3153C6.53986 33.874 6.64166 34.3641 6.84526 34.7855C7.05123 35.2045 7.3436 35.5312 7.72239 35.7656ZM7.38192 32.8324C7.39788 32.5794 7.46166 32.3402 7.57324 32.115C7.70345 31.8523 7.88929 31.6392 8.13077 31.4758C8.37462 31.3101 8.66344 31.2273 8.99725 31.2273C9.30028 31.2273 9.56306 31.2971 9.7856 31.4368C10.0105 31.5765 10.1833 31.767 10.3041 32.0085C10.4272 32.25 10.4887 32.5246 10.4887 32.8324H7.38192Z" fill="#55B3FF"/>
<path d="M12.6159 30.5454V36H13.4539V32.5483C13.4539 32.3021 13.5131 32.0831 13.6315 31.8913C13.7522 31.6972 13.9156 31.5457 14.1215 31.4368C14.3299 31.3255 14.5666 31.2699 14.8318 31.2699C14.943 31.2699 15.0484 31.2782 15.1478 31.2947C15.2496 31.3089 15.3147 31.3196 15.3431 31.3267V30.4744C15.2958 30.4697 15.2259 30.4661 15.1336 30.4638C15.0413 30.4614 14.9643 30.4602 14.9028 30.4602C14.5761 30.4602 14.2825 30.5443 14.0221 30.7123C13.7617 30.8804 13.5818 31.0994 13.4823 31.3693H13.4255V30.5454H12.6159Z" fill="#55B3FF"/>
<path d="M19.1073 31.2557V30.5454H17.8857V29.9915C17.8857 29.7216 17.9461 29.5168 18.0669 29.3771C18.19 29.2374 18.39 29.1676 18.667 29.1676C18.7877 29.1676 18.8848 29.1783 18.9582 29.1996C19.0339 29.2209 19.0931 29.2386 19.1357 29.2528L19.3772 28.5284C19.3133 28.5 19.2162 28.4692 19.086 28.4361C18.9558 28.4029 18.7877 28.3864 18.5818 28.3864C18.3213 28.3864 18.074 28.4384 17.8396 28.5426C17.6052 28.6468 17.4146 28.803 17.2678 29.0114C17.1211 29.2197 17.0477 29.4801 17.0477 29.7926V30.5454H16.167V31.2557H17.0477V36H17.8857V31.2557H19.1073Z" fill="#55B3FF"/>
<path d="M20.2819 30.5454V36H21.1199V30.5454H20.2819Z" fill="#55B3FF"/>
<path d="M20.2854 29.4694C20.4038 29.5807 20.5447 29.6364 20.708 29.6364C20.8714 29.6364 21.011 29.5807 21.127 29.4694C21.2454 29.3582 21.3046 29.2244 21.3046 29.0682C21.3046 28.9119 21.2454 28.7782 21.127 28.6669C21.011 28.5556 20.8714 28.5 20.708 28.5C20.5447 28.5 20.4038 28.5556 20.2854 28.6669C20.1694 28.7782 20.1114 28.9119 20.1114 29.0682C20.1114 29.2244 20.1694 29.3582 20.2854 29.4694Z" fill="#55B3FF"/>
<path d="M23.493 36V28.7273H22.6549V36H23.493Z" fill="#55B3FF"/>
</svg>
