<svg width="47" height="40" viewBox="0 0 47 40" fill="none" xmlns="http://www.w3.org/2000/svg">
<path fill-rule="evenodd" clip-rule="evenodd" d="M29.2465 2.02261H29.0738C28.6574 0.844244 27.5336 0 26.2126 0H20.1447C18.8238 0 17.7 0.844243 17.2835 2.02261H17.1108C14.8767 2.02261 13.0656 3.8337 13.0656 6.06781V20.2261C13.0656 22.4602 14.8767 24.2713 17.1108 24.2713H29.2465C31.4806 24.2713 33.2917 22.4602 33.2917 20.2261V6.06782C33.2917 3.83371 31.4806 2.02261 29.2465 2.02261ZM15.0882 6.06781C15.0882 4.95076 15.9938 4.04521 17.1108 4.04521C17.1108 5.72079 18.4692 7.07912 20.1447 7.07912H26.2126C27.8881 7.07912 29.2465 5.72079 29.2465 4.04521C30.3635 4.04521 31.2691 4.95076 31.2691 6.06782V20.2261C31.2691 21.3431 30.3635 22.2487 29.2465 22.2487H17.1108C15.9938 22.2487 15.0882 21.3431 15.0882 20.2261V6.06781ZM20.1447 2.02261C19.5862 2.02261 19.1334 2.47538 19.1334 3.03391V4.04521C19.1334 4.60374 19.5862 5.05651 20.1447 5.05651H26.2126C26.7711 5.05651 27.2239 4.60374 27.2239 4.04521V3.03391C27.2239 2.47538 26.7711 2.02261 26.2126 2.02261H20.1447Z" fill="#CFD1DE"/>
<path fill-rule="evenodd" clip-rule="evenodd" d="M0.45105 29.7273V37H1.33173V34.3438H2.92264C3.48846 34.3438 3.95247 34.2408 4.31469 34.0348C4.6769 33.8265 4.94442 33.5471 5.11724 33.1967C5.29243 32.8464 5.38003 32.4569 5.38003 32.0284C5.38003 31.5999 5.29243 31.2116 5.11724 30.8636C4.94205 30.5156 4.67217 30.2398 4.30758 30.0362C3.94537 29.8303 3.47899 29.7273 2.90844 29.7273H0.45105ZM1.33173 33.5625H2.89423C3.28486 33.5625 3.59854 33.495 3.83528 33.3601C4.07203 33.2251 4.24366 33.0429 4.3502 32.8132C4.4591 32.5812 4.51355 32.3196 4.51355 32.0284C4.51355 31.7372 4.4591 31.4768 4.3502 31.2472C4.24366 31.0175 4.07084 30.8376 3.83173 30.7074C3.59262 30.5748 3.27539 30.5085 2.88003 30.5085H1.33173V33.5625Z" fill="#CFD1DE"/>
<path d="M6.68507 31.5455V37H7.52314V33.5483C7.52314 33.3021 7.58232 33.0831 7.70069 32.8913C7.82143 32.6972 7.98479 32.5457 8.19075 32.4368C8.39909 32.3255 8.63583 32.2699 8.90098 32.2699C9.01225 32.2699 9.1176 32.2782 9.21703 32.2947C9.31883 32.3089 9.38393 32.3196 9.41234 32.3267V31.4744C9.36499 31.4697 9.29515 31.4661 9.20283 31.4638C9.1105 31.4614 9.03355 31.4602 8.972 31.4602C8.6453 31.4602 8.35174 31.5443 8.09132 31.7124C7.8309 31.8804 7.65098 32.0994 7.55155 32.3693H7.49473V31.5455H6.68507Z" fill="#CFD1DE"/>
<path fill-rule="evenodd" clip-rule="evenodd" d="M11.1595 36.7621C11.5312 36.9964 11.9632 37.1136 12.4557 37.1136C12.9481 37.1136 13.379 36.9964 13.7483 36.7621C14.12 36.5277 14.4088 36.1998 14.6148 35.7784C14.8231 35.357 14.9273 34.8646 14.9273 34.3011C14.9273 33.733 14.8231 33.237 14.6148 32.8132C14.4088 32.3894 14.12 32.0604 13.7483 31.826C13.379 31.5916 12.9481 31.4744 12.4557 31.4744C11.9632 31.4744 11.5312 31.5916 11.1595 31.826C10.7902 32.0604 10.5014 32.3894 10.293 32.8132C10.0871 33.237 9.98408 33.733 9.98408 34.3011C9.98408 34.8646 10.0871 35.357 10.293 35.7784C10.5014 36.1998 10.7902 36.5277 11.1595 36.7621ZM13.379 36.0732C13.1375 36.2649 12.8297 36.3608 12.4557 36.3608C12.0816 36.3608 11.7738 36.2649 11.5324 36.0732C11.2909 35.8814 11.1122 35.6293 10.9961 35.3168C10.8801 35.0043 10.8221 34.6657 10.8221 34.3011C10.8221 33.9366 10.8801 33.5968 10.9961 33.282C11.1122 32.9671 11.2909 32.7126 11.5324 32.5185C11.7738 32.3243 12.0816 32.2273 12.4557 32.2273C12.8297 32.2273 13.1375 32.3243 13.379 32.5185C13.6204 32.7126 13.7992 32.9671 13.9152 33.282C14.0312 33.5968 14.0892 33.9366 14.0892 34.3011C14.0892 34.6657 14.0312 35.0043 13.9152 35.3168C13.7992 35.6293 13.6204 35.8814 13.379 36.0732Z" fill="#CFD1DE"/>
<path d="M16.171 39.0099C16.2823 39.0336 16.409 39.0455 16.551 39.0455C16.8043 39.0455 17.0316 39.0005 17.2328 38.9105C17.4364 38.8205 17.6152 38.6821 17.7691 38.495C17.9229 38.3104 18.052 38.0772 18.1561 37.7955L20.4715 31.5455H19.5624L18.0567 35.892H17.9999L16.4942 31.5455H15.5851L17.6021 37.0284L17.4459 37.4545C17.3441 37.7315 17.2316 37.9316 17.1085 38.0547C16.9878 38.1802 16.8493 38.25 16.6931 38.2642C16.5368 38.2784 16.3569 38.2595 16.1533 38.2074L15.9402 38.946C15.9828 38.9673 16.0598 38.9886 16.171 39.0099Z" fill="#CFD1DE"/>
<path fill-rule="evenodd" clip-rule="evenodd" d="M22.3092 36.7656C22.6903 36.9976 23.1437 37.1136 23.6693 37.1136C24.0386 37.1136 24.3712 37.0568 24.6671 36.9432C24.9631 36.8272 25.2116 36.6662 25.4129 36.4602C25.6141 36.2519 25.7573 36.0104 25.8426 35.7358L25.0329 35.5085C24.9619 35.6979 24.8613 35.8565 24.7311 35.9844C24.6008 36.1098 24.4458 36.2045 24.2659 36.2685C24.0883 36.33 23.8894 36.3608 23.6693 36.3608C23.3307 36.3608 23.0336 36.2874 22.7779 36.1406C22.5222 35.9915 22.3222 35.7749 22.1778 35.4908C22.049 35.231 21.9786 34.9197 21.9666 34.5568H25.9278V34.2017C25.9278 33.6927 25.8603 33.2642 25.7254 32.9162C25.5904 32.5682 25.4093 32.2888 25.1821 32.0781C24.9548 31.8651 24.7026 31.7112 24.4257 31.6165C24.1487 31.5218 23.8681 31.4744 23.584 31.4744C23.0916 31.4744 22.6607 31.5952 22.2914 31.8366C21.9245 32.0758 21.638 32.4096 21.4321 32.8381C21.2285 33.2642 21.1267 33.7566 21.1267 34.3153C21.1267 34.8741 21.2285 35.3641 21.4321 35.7855C21.638 36.2045 21.9304 36.5312 22.3092 36.7656ZM21.9687 33.8324C21.9847 33.5794 22.0484 33.3403 22.16 33.1151C22.2902 32.8523 22.4761 32.6392 22.7176 32.4759C22.9614 32.3101 23.2502 32.2273 23.584 32.2273C23.8871 32.2273 24.1499 32.2971 24.3724 32.4368C24.5973 32.5765 24.7701 32.767 24.8909 33.0085C25.014 33.25 25.0755 33.5246 25.0755 33.8324H21.9687Z" fill="#CFD1DE"/>
<path d="M28.0975 36.7514C28.4669 36.9929 28.9072 37.1136 29.4186 37.1136C29.821 37.1136 30.1738 37.0391 30.4768 36.8899C30.7822 36.7384 31.0272 36.5348 31.2119 36.2791C31.3989 36.0211 31.5161 35.7311 31.5634 35.4091H30.7254C30.6733 35.608 30.5857 35.7784 30.4626 35.9205C30.3395 36.0625 30.1892 36.1714 30.0116 36.2472C29.834 36.3229 29.6364 36.3608 29.4186 36.3608C29.0871 36.3608 28.7983 36.2744 28.5521 36.1016C28.3082 35.9287 28.1188 35.6861 27.9839 35.3736C27.8513 35.0611 27.785 34.6941 27.785 34.2727C27.785 33.8608 27.8525 33.5021 27.9874 33.1967C28.1248 32.889 28.3153 32.651 28.5592 32.483C28.8054 32.3125 29.0919 32.2273 29.4186 32.2273C29.7879 32.2273 30.0814 32.3243 30.2992 32.5185C30.5194 32.7102 30.6615 32.9304 30.7254 33.179H31.5634C31.5161 32.8381 31.3942 32.5398 31.1977 32.2841C31.0012 32.0284 30.7491 31.8295 30.4413 31.6875C30.1335 31.5455 29.7879 31.4744 29.4044 31.4744C28.9119 31.4744 28.4811 31.5952 28.1117 31.8366C27.7448 32.0758 27.4583 32.4084 27.2524 32.8345C27.0488 33.2583 26.947 33.7472 26.947 34.3011C26.947 34.8456 27.0464 35.3298 27.2453 35.7536C27.4441 36.1773 27.7282 36.5099 28.0975 36.7514Z" fill="#CFD1DE"/>
<path d="M35.1607 32.2557V31.5455H33.996V30.2386H33.1579V31.5455H32.334V32.2557H33.1579V35.6648C33.1579 35.982 33.2313 36.2448 33.3781 36.4531C33.5272 36.6615 33.7142 36.8165 33.9392 36.9183C34.1664 37.0201 34.3984 37.071 34.6352 37.071C34.7914 37.071 34.9205 37.0592 35.0223 37.0355C35.1241 37.0142 35.2034 36.9929 35.2602 36.9716L35.0897 36.2188L34.9477 36.2472C34.8885 36.2566 34.8127 36.2614 34.7204 36.2614C34.5973 36.2614 34.4801 36.2424 34.3688 36.2045C34.2599 36.1643 34.17 36.0862 34.099 35.9702C34.0303 35.8518 33.996 35.6742 33.996 35.4375V32.2557H35.1607Z" fill="#CFD1DE"/>
<path fill-rule="evenodd" clip-rule="evenodd" d="M37.2826 36.7621C37.6542 36.9964 38.0863 37.1136 38.5787 37.1136C39.0711 37.1136 39.502 36.9964 39.8713 36.7621C40.243 36.5277 40.5318 36.1998 40.7378 35.7784C40.9461 35.357 41.0503 34.8646 41.0503 34.3011C41.0503 33.733 40.9461 33.237 40.7378 32.8132C40.5318 32.3894 40.243 32.0604 39.8713 31.826C39.502 31.5916 39.0711 31.4744 38.5787 31.4744C38.0863 31.4744 37.6542 31.5916 37.2826 31.826C36.9132 32.0604 36.6244 32.3894 36.4161 32.8132C36.2101 33.237 36.1071 33.733 36.1071 34.3011C36.1071 34.8646 36.2101 35.357 36.4161 35.7784C36.6244 36.1998 36.9132 36.5277 37.2826 36.7621ZM39.502 36.0732C39.2605 36.2649 38.9528 36.3608 38.5787 36.3608C38.2047 36.3608 37.8969 36.2649 37.6554 36.0732C37.4139 35.8814 37.2352 35.6293 37.1192 35.3168C37.0032 35.0043 36.9452 34.6657 36.9452 34.3011C36.9452 33.9366 37.0032 33.5968 37.1192 33.282C37.2352 32.9671 37.4139 32.7126 37.6554 32.5185C37.8969 32.3243 38.2047 32.2273 38.5787 32.2273C38.9528 32.2273 39.2605 32.3243 39.502 32.5185C39.7435 32.7126 39.9222 32.9671 40.0382 33.282C40.1542 33.5968 40.2122 33.9366 40.2122 34.3011C40.2122 34.6657 40.1542 35.0043 40.0382 35.3168C39.9222 35.6293 39.7435 35.8814 39.502 36.0732Z" fill="#CFD1DE"/>
<path d="M45.4404 32.9801L46.1932 32.767C46.063 32.3788 45.8429 32.0663 45.5327 31.8295C45.225 31.5928 44.8012 31.4744 44.2614 31.4744C43.8779 31.4744 43.5346 31.5419 43.2316 31.6768C42.9309 31.8118 42.693 31.9976 42.5178 32.2344C42.345 32.4711 42.2586 32.7434 42.2586 33.0511C42.2586 33.4276 42.3746 33.7412 42.6066 33.9922C42.841 34.2408 43.2079 34.4242 43.7074 34.5426L44.6165 34.7557C44.8912 34.8196 45.0948 34.9167 45.2273 35.0469C45.3599 35.1747 45.4262 35.3333 45.4262 35.5227C45.4262 35.7571 45.3102 35.9583 45.0782 36.1264C44.8485 36.2921 44.5384 36.375 44.1478 36.375C43.8045 36.375 43.5263 36.3016 43.3133 36.1548C43.1026 36.008 42.9593 35.7879 42.8836 35.4943L42.0881 35.6932C42.1852 36.1572 42.416 36.5099 42.7806 36.7514C43.1452 36.9929 43.6056 37.1136 44.162 37.1136C44.5858 37.1136 44.9574 37.0426 45.277 36.9006C45.5966 36.7585 45.8452 36.5644 46.0228 36.3182C46.2027 36.072 46.2927 35.7926 46.2927 35.4801C46.2927 35.099 46.1731 34.7876 45.934 34.5462C45.6949 34.3023 45.3315 34.1212 44.8438 34.0028L44.0341 33.804C43.7122 33.7235 43.4754 33.6229 43.3239 33.5021C43.1724 33.3814 43.0966 33.2169 43.0966 33.0085C43.0966 32.7741 43.2067 32.5812 43.4269 32.4297C43.6494 32.2758 43.9276 32.1989 44.2614 32.1989C44.5053 32.1989 44.7053 32.2379 44.8616 32.3161C45.0178 32.3942 45.1409 32.4936 45.2309 32.6143C45.3232 32.7327 45.3931 32.8546 45.4404 32.9801Z" fill="#CFD1DE"/>
</svg>
