<svg width="47" height="40" viewBox="0 0 47 40" fill="none" xmlns="http://www.w3.org/2000/svg">
<path fill-rule="evenodd" clip-rule="evenodd" d="M29.0677 2.71987H28.8951C28.4786 1.54151 27.3548 0.697266 26.0338 0.697266H19.966C18.645 0.697266 17.5212 1.54151 17.1047 2.71987H16.9321C14.698 2.71987 12.8869 4.53097 12.8869 6.76508V20.9233C12.8869 23.1574 14.698 24.9685 16.9321 24.9685H29.0677C31.3018 24.9685 33.1129 23.1574 33.1129 20.9233V6.76508C33.1129 4.53097 31.3018 2.71987 29.0677 2.71987ZM14.9095 6.76508C14.9095 5.64803 15.815 4.74248 16.9321 4.74248C16.9321 6.41806 18.2904 7.77639 19.966 7.77639H26.0338C27.7094 7.77639 29.0677 6.41806 29.0677 4.74248C30.1848 4.74248 31.0903 5.64803 31.0903 6.76508V20.9233C31.0903 22.0404 30.1848 22.9459 29.0677 22.9459H16.9321C15.815 22.9459 14.9095 22.0404 14.9095 20.9233V6.76508ZM19.966 2.71987C19.4074 2.71987 18.9547 3.17265 18.9547 3.73117V4.74248C18.9547 5.301 19.4074 5.75378 19.966 5.75378H26.0338C26.5923 5.75378 27.0451 5.301 27.0451 4.74248V3.73117C27.0451 3.17265 26.5923 2.71987 26.0338 2.71987H19.966Z" fill="#55B3FF"/>
<path fill-rule="evenodd" clip-rule="evenodd" d="M0.272278 30.4245V37.6973H1.15296V35.041H2.74387C3.30968 35.041 3.7737 34.938 4.13591 34.7321C4.49813 34.5237 4.76565 34.2444 4.93847 33.894C5.11366 33.5436 5.20126 33.1542 5.20126 32.7257C5.20126 32.2972 5.11366 31.9089 4.93847 31.5609C4.76328 31.2129 4.4934 30.9371 4.12881 30.7335C3.7666 30.5275 3.30021 30.4245 2.72966 30.4245H0.272278ZM1.15296 34.2598H2.71546C3.10608 34.2598 3.41977 34.1923 3.65651 34.0574C3.89325 33.9224 4.06489 33.7401 4.17143 33.5105C4.28033 33.2785 4.33478 33.0169 4.33478 32.7257C4.33478 32.4345 4.28033 32.1741 4.17143 31.9444C4.06489 31.7148 3.89207 31.5349 3.65296 31.4047C3.41385 31.2721 3.09661 31.2058 2.70125 31.2058H1.15296V34.2598Z" fill="#55B3FF"/>
<path d="M6.5063 32.2427V37.6973H7.34437V34.2456C7.34437 33.9993 7.40355 33.7804 7.52192 33.5886C7.64266 33.3945 7.80601 33.243 8.01198 33.1341C8.22031 33.0228 8.45706 32.9672 8.72221 32.9672C8.83348 32.9672 8.93883 32.9754 9.03826 32.992C9.14006 33.0062 9.20516 33.0169 9.23357 33.024V32.1717C9.18622 32.167 9.11638 32.1634 9.02405 32.161C8.93172 32.1587 8.85478 32.1575 8.79323 32.1575C8.46653 32.1575 8.17296 32.2415 7.91255 32.4096C7.65213 32.5777 7.47221 32.7967 7.37278 33.0666H7.31596V32.2427H6.5063Z" fill="#55B3FF"/>
<path fill-rule="evenodd" clip-rule="evenodd" d="M10.9807 37.4593C11.3524 37.6937 11.7845 37.8109 12.2769 37.8109C12.7693 37.8109 13.2002 37.6937 13.5695 37.4593C13.9412 37.225 14.23 36.8971 14.436 36.4757C14.6443 36.0543 14.7485 35.5618 14.7485 34.9984C14.7485 34.4302 14.6443 33.9342 14.436 33.5105C14.23 33.0867 13.9412 32.7576 13.5695 32.5233C13.2002 32.2889 12.7693 32.1717 12.2769 32.1717C11.7845 32.1717 11.3524 32.2889 10.9807 32.5233C10.6114 32.7576 10.3226 33.0867 10.1143 33.5105C9.90829 33.9342 9.8053 34.4302 9.8053 34.9984C9.8053 35.5618 9.90829 36.0543 10.1143 36.4757C10.3226 36.8971 10.6114 37.225 10.9807 37.4593ZM13.2002 36.7704C12.9587 36.9622 12.6509 37.0581 12.2769 37.0581C11.9028 37.0581 11.5951 36.9622 11.3536 36.7704C11.1121 36.5787 10.9334 36.3265 10.8174 36.014C10.7014 35.7015 10.6434 35.363 10.6434 34.9984C10.6434 34.6338 10.7014 34.2941 10.8174 33.9792C10.9334 33.6644 11.1121 33.4099 11.3536 33.2157C11.5951 33.0216 11.9028 32.9245 12.2769 32.9245C12.6509 32.9245 12.9587 33.0216 13.2002 33.2157C13.4417 33.4099 13.6204 33.6644 13.7364 33.9792C13.8524 34.2941 13.9104 34.6338 13.9104 34.9984C13.9104 35.363 13.8524 35.7015 13.7364 36.014C13.6204 36.3265 13.4417 36.5787 13.2002 36.7704Z" fill="#55B3FF"/>
<path d="M15.9923 39.7072C16.1035 39.7309 16.2302 39.7427 16.3722 39.7427C16.6256 39.7427 16.8528 39.6977 17.0541 39.6078C17.2577 39.5178 17.4364 39.3793 17.5903 39.1923C17.7442 39.0076 17.8732 38.7744 17.9774 38.4927L20.2927 32.2427H19.3836L17.8779 36.5893H17.8211L16.3154 32.2427H15.4063L17.4234 37.7257L17.2671 38.1518C17.1653 38.4288 17.0529 38.6288 16.9298 38.752C16.809 38.8774 16.6705 38.9473 16.5143 38.9615C16.358 38.9757 16.1781 38.9567 15.9745 38.9047L15.7614 39.6433C15.8041 39.6646 15.881 39.6859 15.9923 39.7072Z" fill="#55B3FF"/>
<path fill-rule="evenodd" clip-rule="evenodd" d="M22.1304 37.4629C22.5116 37.6949 22.9649 37.8109 23.4905 37.8109C23.8598 37.8109 24.1924 37.7541 24.4884 37.6404C24.7843 37.5244 25.0329 37.3635 25.2341 37.1575C25.4353 36.9492 25.5786 36.7077 25.6638 36.4331L24.8541 36.2058C24.7831 36.3952 24.6825 36.5538 24.5523 36.6816C24.4221 36.8071 24.267 36.9018 24.0871 36.9657C23.9095 37.0273 23.7107 37.0581 23.4905 37.0581C23.152 37.0581 22.8548 36.9847 22.5992 36.8379C22.3435 36.6887 22.1434 36.4721 21.999 36.188C21.8702 35.9283 21.7998 35.617 21.7878 35.2541H25.749V34.899C25.749 34.39 25.6815 33.9615 25.5466 33.6135C25.4117 33.2654 25.2306 32.9861 25.0033 32.7754C24.776 32.5623 24.5239 32.4084 24.2469 32.3137C23.9699 32.219 23.6894 32.1717 23.4053 32.1717C22.9128 32.1717 22.482 32.2924 22.1127 32.5339C21.7457 32.773 21.4592 33.1068 21.2533 33.5353C21.0497 33.9615 20.9479 34.4539 20.9479 35.0126C20.9479 35.5713 21.0497 36.0614 21.2533 36.4828C21.4592 36.9018 21.7516 37.2285 22.1304 37.4629ZM21.7899 34.5297C21.8059 34.2766 21.8697 34.0375 21.9813 33.8123C22.1115 33.5495 22.2973 33.3365 22.5388 33.1731C22.7826 33.0074 23.0715 32.9245 23.4053 32.9245C23.7083 32.9245 23.9711 32.9944 24.1936 33.1341C24.4185 33.2737 24.5913 33.4643 24.7121 33.7058C24.8352 33.9473 24.8967 34.2219 24.8967 34.5297H21.7899Z" fill="#55B3FF"/>
<path d="M27.9188 37.4487C28.2881 37.6902 28.7284 37.8109 29.2398 37.8109C29.6422 37.8109 29.995 37.7363 30.298 37.5872C30.6034 37.4357 30.8484 37.2321 31.0331 36.9764C31.2201 36.7183 31.3373 36.4283 31.3847 36.1064H30.5466C30.4945 36.3052 30.4069 36.4757 30.2838 36.6177C30.1607 36.7598 30.0104 36.8687 29.8328 36.9444C29.6553 37.0202 29.4576 37.0581 29.2398 37.0581C28.9083 37.0581 28.6195 36.9716 28.3733 36.7988C28.1295 36.626 27.9401 36.3833 27.8051 36.0708C27.6726 35.7583 27.6063 35.3914 27.6063 34.97C27.6063 34.5581 27.6737 34.1994 27.8087 33.894C27.946 33.5862 28.1366 33.3483 28.3804 33.1802C28.6266 33.0098 28.9131 32.9245 29.2398 32.9245C29.6091 32.9245 29.9027 33.0216 30.1205 33.2157C30.3406 33.4075 30.4827 33.6277 30.5466 33.8762H31.3847C31.3373 33.5353 31.2154 33.237 31.0189 32.9814C30.8224 32.7257 30.5703 32.5268 30.2625 32.3848C29.9547 32.2427 29.6091 32.1717 29.2256 32.1717C28.7332 32.1717 28.3023 32.2924 27.933 32.5339C27.566 32.773 27.2796 33.1056 27.0736 33.5318C26.87 33.9556 26.7682 34.4444 26.7682 34.9984C26.7682 35.5429 26.8676 36.027 27.0665 36.4508C27.2654 36.8746 27.5494 37.2072 27.9188 37.4487Z" fill="#55B3FF"/>
<path d="M34.982 32.9529V32.2427H33.8172V30.9359H32.9791V32.2427H32.1553V32.9529H32.9791V36.362C32.9791 36.6793 33.0525 36.9421 33.1993 37.1504C33.3484 37.3587 33.5355 37.5138 33.7604 37.6156C33.9877 37.7174 34.2197 37.7683 34.4564 37.7683C34.6127 37.7683 34.7417 37.7565 34.8435 37.7328C34.9453 37.7115 35.0246 37.6902 35.0814 37.6689L34.9109 36.916L34.7689 36.9444C34.7097 36.9539 34.634 36.9586 34.5416 36.9586C34.4185 36.9586 34.3013 36.9397 34.1901 36.9018C34.0812 36.8616 33.9912 36.7834 33.9202 36.6674C33.8515 36.5491 33.8172 36.3715 33.8172 36.1348V32.9529H34.982Z" fill="#55B3FF"/>
<path fill-rule="evenodd" clip-rule="evenodd" d="M37.1038 37.4593C37.4755 37.6937 37.9075 37.8109 38.3999 37.8109C38.8924 37.8109 39.3232 37.6937 39.6926 37.4593C40.0642 37.225 40.3531 36.8971 40.559 36.4757C40.7674 36.0543 40.8715 35.5618 40.8715 34.9984C40.8715 34.4302 40.7674 33.9342 40.559 33.5105C40.3531 33.0867 40.0642 32.7576 39.6926 32.5233C39.3232 32.2889 38.8924 32.1717 38.3999 32.1717C37.9075 32.1717 37.4755 32.2889 37.1038 32.5233C36.7345 32.7576 36.4456 33.0867 36.2373 33.5105C36.0313 33.9342 35.9284 34.4302 35.9284 34.9984C35.9284 35.5618 36.0313 36.0543 36.2373 36.4757C36.4456 36.8971 36.7345 37.225 37.1038 37.4593ZM39.3232 36.7704C39.0818 36.9622 38.774 37.0581 38.3999 37.0581C38.0259 37.0581 37.7181 36.9622 37.4766 36.7704C37.2352 36.5787 37.0564 36.3265 36.9404 36.014C36.8244 35.7015 36.7664 35.363 36.7664 34.9984C36.7664 34.6338 36.8244 34.2941 36.9404 33.9792C37.0564 33.6644 37.2352 33.4099 37.4766 33.2157C37.7181 33.0216 38.0259 32.9245 38.3999 32.9245C38.774 32.9245 39.0818 33.0216 39.3232 33.2157C39.5647 33.4099 39.7435 33.6644 39.8595 33.9792C39.9755 34.2941 40.0335 34.6338 40.0335 34.9984C40.0335 35.363 39.9755 35.7015 39.8595 36.014C39.7435 36.3265 39.5647 36.5787 39.3232 36.7704Z" fill="#55B3FF"/>
<path d="M45.2616 33.6774L46.0145 33.4643C45.8843 33.0761 45.6641 32.7636 45.354 32.5268C45.0462 32.2901 44.6224 32.1717 44.0826 32.1717C43.6991 32.1717 43.3559 32.2392 43.0528 32.3741C42.7522 32.5091 42.5142 32.6949 42.339 32.9316C42.1662 33.1684 42.0798 33.4406 42.0798 33.7484C42.0798 34.1248 42.1958 34.4385 42.4278 34.6895C42.6622 34.938 43.0291 35.1215 43.5287 35.2399L44.4378 35.4529C44.7124 35.5169 44.916 35.6139 45.0486 35.7441C45.1811 35.872 45.2474 36.0306 45.2474 36.22C45.2474 36.4544 45.1314 36.6556 44.8994 36.8237C44.6698 36.9894 44.3596 37.0723 43.969 37.0723C43.6257 37.0723 43.3476 36.9989 43.1345 36.8521C42.9238 36.7053 42.7806 36.4851 42.7048 36.1916L41.9094 36.3904C42.0064 36.8545 42.2372 37.2072 42.6018 37.4487C42.9664 37.6902 43.4269 37.8109 43.9832 37.8109C44.407 37.8109 44.7787 37.7399 45.0983 37.5978C45.4179 37.4558 45.6665 37.2617 45.844 37.0154C46.0239 36.7692 46.1139 36.4899 46.1139 36.1774C46.1139 35.7962 45.9943 35.4849 45.7552 35.2434C45.5161 34.9996 45.1527 34.8185 44.665 34.7001L43.8554 34.5012C43.5334 34.4207 43.2967 34.3201 43.1451 34.1994C42.9936 34.0787 42.9179 33.9141 42.9179 33.7058C42.9179 33.4714 43.028 33.2785 43.2481 33.127C43.4707 32.9731 43.7488 32.8961 44.0826 32.8961C44.3265 32.8961 44.5265 32.9352 44.6828 33.0133C44.839 33.0914 44.9621 33.1909 45.0521 33.3116C45.1444 33.43 45.2143 33.5519 45.2616 33.6774Z" fill="#55B3FF"/>
</svg>
