<svg width="37" height="37" viewBox="0 0 37 37" fill="none" xmlns="http://www.w3.org/2000/svg">
<path fill-rule="evenodd" clip-rule="evenodd" d="M10.5058 0.990234C8.27453 0.990234 6.46576 2.799 6.46576 5.03023V19.1963C6.46576 21.4275 8.27453 23.2363 10.5058 23.2363H26.6292C28.8604 23.2363 30.6692 21.4275 30.6692 19.1963V8.98093C30.6692 6.7497 28.8604 4.94093 26.6292 4.94093H9.9798C9.42214 4.94093 8.97006 4.48885 8.97006 3.93119C8.97006 3.86564 8.96382 3.80154 8.95189 3.73946C9.32242 3.2939 9.88097 3.01023 10.5058 3.01023H27.6631C28.2209 3.01023 28.6731 2.55804 28.6731 2.00023C28.6731 1.44243 28.2209 0.990234 27.6631 0.990234H10.5058ZM8.48576 19.1963V6.56754C8.92666 6.81794 9.43653 6.96093 9.9798 6.96093H26.6292C27.7448 6.96093 28.6492 7.86531 28.6492 8.98093V19.1963C28.6492 20.3119 27.7448 21.2163 26.6292 21.2163H10.5058C9.39015 21.2163 8.48576 20.3119 8.48576 19.1963Z" fill="#CFD1DE"/>
<path fill-rule="evenodd" clip-rule="evenodd" d="M0.351562 28.6823V35.9551H2.9794C3.55232 35.9551 4.01752 35.8698 4.375 35.6994C4.73248 35.5289 4.99408 35.2981 5.1598 35.0069C5.32552 34.7157 5.40838 34.3878 5.40838 34.0233C5.40838 33.6397 5.33262 33.3154 5.18111 33.0502C5.02959 32.7851 4.84138 32.5815 4.61648 32.4394C4.39157 32.2974 4.16785 32.2193 3.94531 32.2051V32.134C4.15365 32.0772 4.34659 31.9896 4.52415 31.8713C4.70407 31.7529 4.84848 31.5919 4.95739 31.3883C5.06866 31.1847 5.12429 30.9267 5.12429 30.6142C5.12429 30.259 5.0438 29.9359 4.88281 29.6447C4.72183 29.3511 4.4768 29.1179 4.14773 28.9451C3.81866 28.7699 3.4008 28.6823 2.89418 28.6823H0.351562ZM2.9794 35.1738H1.23224V32.6454H3.02202C3.33925 32.6454 3.61387 32.7093 3.84588 32.8372C4.07789 32.9626 4.25663 33.1307 4.3821 33.3414C4.50758 33.5498 4.57031 33.777 4.57031 34.0233C4.57031 34.3429 4.44839 34.6151 4.20455 34.84C3.96307 35.0625 3.55469 35.1738 2.9794 35.1738ZM2.86577 31.8784H1.23224V29.4636H2.89418C3.37713 29.4636 3.72988 29.576 3.95241 29.8009C4.17495 30.0235 4.28622 30.2946 4.28622 30.6142C4.28622 30.8698 4.2223 31.0924 4.09446 31.2818C3.96899 31.4712 3.79853 31.6179 3.5831 31.7221C3.37003 31.8263 3.13092 31.8784 2.86577 31.8784Z" fill="#CFD1DE"/>
<path d="M6.74183 30.5005V35.9551H7.5799V30.5005H6.74183Z" fill="#CFD1DE"/>
<path d="M6.74538 29.4245C6.86375 29.5358 7.00462 29.5914 7.16797 29.5914C7.33132 29.5914 7.471 29.5358 7.587 29.4245C7.70537 29.3133 7.76456 29.1795 7.76456 29.0233C7.76456 28.867 7.70537 28.7332 7.587 28.622C7.471 28.5107 7.33132 28.4551 7.16797 28.4551C7.00462 28.4551 6.86375 28.5107 6.74538 28.622C6.62938 28.7332 6.57138 28.867 6.57138 29.0233C6.57138 29.1795 6.62938 29.3133 6.74538 29.4245Z" fill="#CFD1DE"/>
<path d="M9.95295 35.9551V28.6823H9.11488V35.9551H9.95295Z" fill="#CFD1DE"/>
<path d="M12.326 35.9551V28.6823H11.4879V35.9551H12.326Z" fill="#CFD1DE"/>
<path fill-rule="evenodd" clip-rule="evenodd" d="M14.7878 35.7207C15.169 35.9527 15.6223 36.0687 16.1479 36.0687C16.5172 36.0687 16.8498 36.0119 17.1458 35.8983C17.4417 35.7822 17.6903 35.6213 17.8915 35.4153C18.0927 35.207 18.236 34.9655 18.3212 34.6909L17.5115 34.4636C17.4405 34.653 17.3399 34.8116 17.2097 34.9394C17.0795 35.0649 16.9244 35.1596 16.7445 35.2235C16.5669 35.2851 16.3681 35.3159 16.1479 35.3159C15.8094 35.3159 15.5123 35.2425 15.2566 35.0957C15.0009 34.9465 14.8008 34.7299 14.6564 34.4458C14.5276 34.1861 14.4572 33.8748 14.4452 33.5119H18.4064V33.1568C18.4064 32.6478 18.339 32.2193 18.204 31.8713C18.0691 31.5233 17.888 31.2439 17.6607 31.0332C17.4334 30.8201 17.1813 30.6662 16.9043 30.5715C16.6273 30.4768 16.3468 30.4295 16.0627 30.4295C15.5703 30.4295 15.1394 30.5502 14.7701 30.7917C14.4031 31.0308 14.1167 31.3646 13.9107 31.7931C13.7071 32.2193 13.6053 32.7117 13.6053 33.2704C13.6053 33.8291 13.7071 34.3192 13.9107 34.7406C14.1167 35.1596 14.409 35.4863 14.7878 35.7207ZM14.4474 32.7875C14.4633 32.5344 14.5271 32.2953 14.6387 32.0701C14.7689 31.8073 14.9547 31.5943 15.1962 31.4309C15.44 31.2652 15.7289 31.1823 16.0627 31.1823C16.3657 31.1823 16.6285 31.2522 16.851 31.3919C17.0759 31.5315 17.2488 31.7221 17.3695 31.9636C17.4926 32.2051 17.5542 32.4797 17.5542 32.7875H14.4474Z" fill="#CFD1DE"/>
<path d="M22.0534 31.2108V30.5005H20.8887V29.1937H20.0506V30.5005H19.2267V31.2108H20.0506V34.6198C20.0506 34.9371 20.124 35.1999 20.2708 35.4082C20.4199 35.6165 20.6069 35.7716 20.8319 35.8734C21.0591 35.9752 21.2911 36.0261 21.5279 36.0261C21.6841 36.0261 21.8132 36.0143 21.9149 35.9906C22.0167 35.9693 22.0961 35.948 22.1529 35.9267L21.9824 35.1738L21.8404 35.2022C21.7812 35.2117 21.7054 35.2164 21.6131 35.2164C21.49 35.2164 21.3728 35.1975 21.2615 35.1596C21.1526 35.1194 21.0627 35.0412 20.9917 34.9252C20.923 34.8069 20.8887 34.6293 20.8887 34.3926V31.2108H22.0534Z" fill="#CFD1DE"/>
<path fill-rule="evenodd" clip-rule="evenodd" d="M24.1824 35.7207C24.5635 35.9527 25.0169 36.0687 25.5424 36.0687C25.9118 36.0687 26.2444 36.0119 26.5403 35.8983C26.8362 35.7822 27.0848 35.6213 27.286 35.4153C27.4873 35.207 27.6305 34.9655 27.7157 34.6909L26.9061 34.4636C26.8351 34.653 26.7344 34.8116 26.6042 34.9394C26.474 35.0649 26.319 35.1596 26.139 35.2235C25.9615 35.2851 25.7626 35.3159 25.5424 35.3159C25.2039 35.3159 24.9068 35.2425 24.6511 35.0957C24.3954 34.9465 24.1954 34.7299 24.051 34.4458C23.9222 34.1861 23.8518 33.8748 23.8397 33.5119H27.801V33.1568C27.801 32.6478 27.7335 32.2193 27.5985 31.8713C27.4636 31.5233 27.2825 31.2439 27.0552 31.0332C26.8279 30.8201 26.5758 30.6662 26.2988 30.5715C26.0218 30.4768 25.7413 30.4295 25.4572 30.4295C24.9648 30.4295 24.5339 30.5502 24.1646 30.7917C23.7976 31.0308 23.5112 31.3646 23.3052 31.7931C23.1016 32.2193 22.9998 32.7117 22.9998 33.2704C22.9998 33.8291 23.1016 34.3192 23.3052 34.7406C23.5112 35.1596 23.8036 35.4863 24.1824 35.7207ZM23.8419 32.7875C23.8578 32.5344 23.9216 32.2953 24.0332 32.0701C24.1634 31.8073 24.3493 31.5943 24.5907 31.4309C24.8346 31.2652 25.1234 31.1823 25.4572 31.1823C25.7602 31.1823 26.023 31.2522 26.2456 31.3919C26.4705 31.5315 26.6433 31.7221 26.764 31.9636C26.8871 32.2051 26.9487 32.4797 26.9487 32.7875H23.8419Z" fill="#CFD1DE"/>
<path d="M29.0758 30.5005V35.9551H29.9139V32.5034C29.9139 32.2572 29.9731 32.0382 30.0914 31.8464C30.2122 31.6523 30.3755 31.5008 30.5815 31.3919C30.7898 31.2806 31.0266 31.225 31.2917 31.225C31.403 31.225 31.5083 31.2332 31.6078 31.2498C31.7096 31.264 31.7747 31.2747 31.8031 31.2818V30.4295C31.7557 30.4248 31.6859 30.4212 31.5936 30.4188C31.5012 30.4165 31.4243 30.4153 31.3627 30.4153C31.036 30.4153 30.7425 30.4993 30.4821 30.6674C30.2216 30.8355 30.0417 31.0545 29.9423 31.3244H29.8855V30.5005H29.0758Z" fill="#CFD1DE"/>
<path fill-rule="evenodd" clip-rule="evenodd" d="M33.4606 35.8876C33.7423 36.0178 34.056 36.0829 34.4016 36.0829C34.7189 36.0829 34.9876 36.0356 35.2077 35.9409C35.4279 35.8462 35.6043 35.7313 35.7369 35.5964C35.8694 35.4615 35.9641 35.3348 36.021 35.2164H36.0636V35.9551H36.9016V32.3613C36.9016 31.9281 36.8306 31.5824 36.6886 31.3244C36.5465 31.0663 36.3678 30.8734 36.1523 30.7456C35.9393 30.6177 35.7179 30.5337 35.4883 30.4934C35.261 30.4508 35.0598 30.4295 34.8846 30.4295C34.61 30.4295 34.3306 30.4674 34.0465 30.5431C33.7648 30.6165 33.5044 30.7467 33.2653 30.9338C33.0285 31.1184 32.8391 31.3765 32.6971 31.7079L33.4925 31.992C33.5849 31.7931 33.7447 31.6061 33.9719 31.4309C34.1992 31.2557 34.5129 31.1681 34.913 31.1681C35.2989 31.1681 35.5865 31.2652 35.7759 31.4593C35.9677 31.6535 36.0636 31.9257 36.0636 32.2761V32.3045C36.0636 32.4394 36.015 32.5341 35.918 32.5886C35.8233 32.643 35.6718 32.6821 35.4634 32.7058C35.2575 32.7271 34.9888 32.759 34.6573 32.8017C34.404 32.8348 34.1519 32.8798 33.9009 32.9366C33.6523 32.9911 33.4251 33.0739 33.2191 33.1852C33.0131 33.2965 32.8486 33.4503 32.7255 33.6468C32.6024 33.841 32.5408 34.0943 32.5408 34.4068C32.5408 34.7619 32.6237 35.0649 32.7894 35.3159C32.9551 35.5644 33.1789 35.755 33.4606 35.8876ZM35.3675 35.1348C35.1403 35.265 34.8609 35.3301 34.5295 35.3301C34.1957 35.3301 33.9199 35.2567 33.7021 35.1099C33.4866 34.9608 33.3789 34.7406 33.3789 34.4494C33.3789 34.2363 33.4357 34.0682 33.5494 33.9451C33.6654 33.8197 33.8169 33.7261 34.0039 33.6646C34.1933 33.6007 34.3969 33.5545 34.6147 33.5261C34.7047 33.5143 34.8219 33.5 34.9663 33.4835C35.113 33.4645 35.2634 33.4432 35.4173 33.4196C35.5735 33.3935 35.7108 33.3639 35.8292 33.3308C35.9499 33.2953 36.0281 33.2562 36.0636 33.2136V33.9806C36.0636 34.2079 36.0044 34.4245 35.886 34.6305C35.77 34.8365 35.5972 35.0045 35.3675 35.1348Z" fill="#CFD1DE"/>
</svg>
