<svg width="28" height="38" viewBox="0 0 28 38" fill="none" xmlns="http://www.w3.org/2000/svg">
<path fill-rule="evenodd" clip-rule="evenodd" d="M14.5996 0.196962C14.243 -0.0656538 13.7569 -0.0656538 13.4003 0.196962L4.52222 6.73445C3.48687 7.49685 2.87562 8.70605 2.87562 9.99182V20.7317C2.87562 22.6866 4.46033 24.2713 6.41518 24.2713H9.95474C11.0718 24.2713 11.9773 23.3657 11.9773 22.2487V16.6865H16.0226V22.2487C16.0226 23.3657 16.9281 24.2713 18.0452 24.2713H21.5847C23.5396 24.2713 25.1243 22.6866 25.1243 20.7317V9.99182C25.1243 8.70605 24.513 7.49685 23.4777 6.73445L14.5996 0.196962ZM5.72153 8.36313L13.9999 2.26721L22.2784 8.36313C22.796 8.74433 23.1017 9.34893 23.1017 9.99182V20.7317C23.1017 21.5695 22.4225 22.2487 21.5847 22.2487H18.0452V16.1808C18.0452 15.3431 17.366 14.6639 16.5282 14.6639H11.4717C10.6339 14.6639 9.95474 15.3431 9.95474 16.1808V22.2487H6.41518C5.57739 22.2487 4.89822 21.5695 4.89822 20.7317V9.99182C4.89822 9.34893 5.20385 8.74433 5.72153 8.36313Z" fill="#CFD1DE"/>
<path d="M0.940308 29.7273V37H1.82099V33.7472H5.69883V37H6.57951V29.7273H5.69883V32.9659H1.82099V29.7273H0.940308Z" fill="#CFD1DE"/>
<path fill-rule="evenodd" clip-rule="evenodd" d="M9.14876 36.7621C9.52045 36.9964 9.9525 37.1136 10.4449 37.1136C10.9374 37.1136 11.3682 36.9964 11.7375 36.7621C12.1092 36.5277 12.3981 36.1998 12.604 35.7784C12.8124 35.357 12.9165 34.8646 12.9165 34.3011C12.9165 33.733 12.8124 33.237 12.604 32.8132C12.3981 32.3894 12.1092 32.0604 11.7375 31.826C11.3682 31.5916 10.9374 31.4744 10.4449 31.4744C9.9525 31.4744 9.52045 31.5916 9.14876 31.826C8.77944 32.0604 8.49062 32.3894 8.28228 32.8132C8.07632 33.237 7.97333 33.733 7.97333 34.3011C7.97333 34.8646 8.07632 35.357 8.28228 35.7784C8.49062 36.1998 8.77944 36.5277 9.14876 36.7621ZM11.3682 36.0732C11.1267 36.2649 10.819 36.3608 10.4449 36.3608C10.0709 36.3608 9.76311 36.2649 9.52163 36.0732C9.28015 35.8814 9.10141 35.6293 8.98541 35.3168C8.8694 35.0043 8.8114 34.6657 8.8114 34.3011C8.8114 33.9366 8.8694 33.5968 8.98541 33.282C9.10141 32.9671 9.28015 32.7126 9.52163 32.5185C9.76311 32.3243 10.0709 32.2273 10.4449 32.2273C10.819 32.2273 11.1267 32.3243 11.3682 32.5185C11.6097 32.7126 11.7884 32.9671 11.9044 33.282C12.0204 33.5968 12.0784 33.9366 12.0784 34.3011C12.0784 34.6657 12.0204 35.0043 11.9044 35.3168C11.7884 35.6293 11.6097 35.8814 11.3682 36.0732Z" fill="#CFD1DE"/>
<path d="M14.1958 31.5455V37H15.0339V33.5909C15.0339 33.3234 15.0907 33.0878 15.2043 32.8842C15.3203 32.6783 15.4719 32.5173 15.6589 32.4013C15.8483 32.2853 16.0519 32.2273 16.2697 32.2273C16.5869 32.2273 16.8461 32.3232 17.0474 32.5149C17.2486 32.7043 17.3492 32.9541 17.3492 33.2642V37H18.2015V33.4489C18.2015 33.0961 18.3068 32.8049 18.5175 32.5753C18.7282 32.3433 19.0254 32.2273 19.4089 32.2273C19.7072 32.2273 19.9664 32.3137 20.1866 32.4865C20.4068 32.6593 20.5168 32.947 20.5168 33.3494V37H21.3549V33.3494C21.3549 32.7079 21.1998 32.2356 20.8897 31.9325C20.5796 31.6271 20.1807 31.4744 19.693 31.4744C19.3023 31.4744 18.9674 31.5585 18.688 31.7266C18.4086 31.8923 18.1991 32.116 18.0595 32.3977H18.0026C17.8677 32.1065 17.6795 31.8804 17.438 31.7195C17.1989 31.5561 16.8994 31.4744 16.5396 31.4744C16.1845 31.4744 15.8802 31.5561 15.6269 31.7195C15.3736 31.8804 15.1901 32.1065 15.0765 32.3977H15.0055V31.5455H14.1958Z" fill="#CFD1DE"/>
<path fill-rule="evenodd" clip-rule="evenodd" d="M23.8141 36.7656C24.1952 36.9976 24.6486 37.1136 25.1742 37.1136C25.5435 37.1136 25.8761 37.0568 26.172 36.9432C26.4679 36.8272 26.7165 36.6662 26.9178 36.4602C27.119 36.2519 27.2622 36.0104 27.3474 35.7358L26.5378 35.5085C26.4668 35.6979 26.3661 35.8565 26.2359 35.9844C26.1057 36.1098 25.9507 36.2045 25.7707 36.2685C25.5932 36.33 25.3943 36.3608 25.1742 36.3608C24.8356 36.3608 24.5385 36.2874 24.2828 36.1406C24.0271 35.9915 23.8271 35.7749 23.6827 35.4908C23.5539 35.231 23.4835 34.9197 23.4715 34.5568H27.4327V34.2017C27.4327 33.6927 27.3652 33.2642 27.2303 32.9162C27.0953 32.5682 26.9142 32.2888 26.6869 32.0781C26.4597 31.8651 26.2075 31.7112 25.9305 31.6165C25.6536 31.5218 25.373 31.4744 25.0889 31.4744C24.5965 31.4744 24.1656 31.5952 23.7963 31.8366C23.4294 32.0758 23.1429 32.4096 22.9369 32.8381C22.7333 33.2642 22.6315 33.7566 22.6315 34.3153C22.6315 34.8741 22.7333 35.3641 22.9369 35.7855C23.1429 36.2045 23.4353 36.5312 23.8141 36.7656ZM23.4736 33.8324C23.4896 33.5794 23.5533 33.3403 23.6649 33.1151C23.7951 32.8523 23.981 32.6392 24.2224 32.4759C24.4663 32.3101 24.7551 32.2273 25.0889 32.2273C25.392 32.2273 25.6547 32.2971 25.8773 32.4368C26.1022 32.5765 26.275 32.767 26.3957 33.0085C26.5188 33.25 26.5804 33.5246 26.5804 33.8324H23.4736Z" fill="#CFD1DE"/>
</svg>
