<svg width="24" height="37" viewBox="0 0 24 37" fill="none" xmlns="http://www.w3.org/2000/svg">
<path fill-rule="evenodd" clip-rule="evenodd" d="M6.93225 6.57905C6.93225 3.22788 9.64891 0.51123 13.0001 0.51123C16.3512 0.51123 19.0679 3.22788 19.0679 6.57905C19.0679 9.93021 16.3512 12.6469 13.0001 12.6469C9.64891 12.6469 6.93225 9.93021 6.93225 6.57905ZM13.0001 2.53384C10.766 2.53384 8.95486 4.34494 8.95486 6.57905C8.95486 8.81316 10.766 10.6243 13.0001 10.6243C15.2342 10.6243 17.0453 8.81316 17.0453 6.57905C17.0453 4.34494 15.2342 2.53384 13.0001 2.53384Z" fill="#CFD1DE"/>
<path d="M13.0001 17.1977C10.6004 17.1977 8.32656 17.7308 6.77044 18.2112C5.8797 18.4862 5.22516 19.2928 5.06497 20.3226L4.89763 21.3984C4.81178 21.9503 4.29479 22.3281 3.7429 22.2422C3.19101 22.1564 2.81321 21.6394 2.89906 21.0875L3.0664 20.0117C3.32809 18.3294 4.44204 16.8132 6.17385 16.2786C7.83671 15.7653 10.3241 15.1751 13.0001 15.1751C15.6761 15.1751 18.1634 15.7653 19.8263 16.2786C21.5581 16.8132 22.672 18.3294 22.9337 20.0117L23.1011 21.0875C23.1869 21.6394 22.8091 22.1564 22.2572 22.2422C21.7053 22.3281 21.1884 21.9503 21.1025 21.3984L20.9352 20.3226C20.775 19.2928 20.1204 18.4862 19.2297 18.2112C17.6736 17.7308 15.3998 17.1977 13.0001 17.1977Z" fill="#CFD1DE"/>
<path fill-rule="evenodd" clip-rule="evenodd" d="M0.620117 29.2272V36.4999H1.5008V33.8437H3.09171C3.65752 33.8437 4.12154 33.7407 4.48375 33.5347C4.84597 33.3264 5.11349 33.047 5.28631 32.6967C5.4615 32.3463 5.54909 31.9568 5.54909 31.5283C5.54909 31.0998 5.4615 30.7116 5.28631 30.3636C5.11112 30.0156 4.84123 29.7397 4.47665 29.5361C4.11444 29.3302 3.64805 29.2272 3.0775 29.2272H0.620117ZM1.5008 33.0624H3.0633C3.45392 33.0624 3.76761 32.995 4.00435 32.86C4.24109 32.7251 4.41273 32.5428 4.51927 32.3131C4.62817 32.0811 4.68262 31.8195 4.68262 31.5283C4.68262 31.2371 4.62817 30.9767 4.51927 30.7471C4.41273 30.5174 4.23991 30.3375 4.0008 30.2073C3.76169 30.0747 3.44445 30.0084 3.04909 30.0084H1.5008V33.0624Z" fill="#CFD1DE"/>
<path fill-rule="evenodd" clip-rule="evenodd" d="M7.72239 36.2656C8.10355 36.4976 8.55691 36.6136 9.08248 36.6136C9.45179 36.6136 9.78442 36.5567 10.0803 36.4431C10.3763 36.3271 10.6249 36.1661 10.8261 35.9602C11.0273 35.7518 11.1705 35.5103 11.2558 35.2357L10.4461 35.0084C10.3751 35.1978 10.2745 35.3565 10.1443 35.4843C10.0141 35.6098 9.85899 35.7045 9.67907 35.7684C9.50151 35.8299 9.30265 35.8607 9.08248 35.8607C8.74393 35.8607 8.44682 35.7873 8.19114 35.6406C7.93546 35.4914 7.73541 35.2748 7.591 34.9907C7.4622 34.731 7.3918 34.4196 7.37978 34.0567H11.341V33.7016C11.341 33.1926 11.2735 32.7641 11.1386 32.4161C11.0036 32.0681 10.8225 31.7888 10.5953 31.5781C10.368 31.365 10.1159 31.2111 9.83887 31.1164C9.56188 31.0217 9.28134 30.9744 8.99725 30.9744C8.50482 30.9744 8.07395 31.0951 7.70463 31.3366C7.33768 31.5757 7.05123 31.9095 6.84526 32.338C6.64166 32.7641 6.53986 33.2566 6.53986 33.8153C6.53986 34.374 6.64166 34.864 6.84526 35.2854C7.05123 35.7045 7.3436 36.0312 7.72239 36.2656ZM7.38192 33.3323C7.39788 33.0793 7.46166 32.8402 7.57324 32.615C7.70345 32.3522 7.88929 32.1391 8.13077 31.9758C8.37462 31.8101 8.66344 31.7272 8.99725 31.7272C9.30028 31.7272 9.56306 31.797 9.7856 31.9367C10.0105 32.0764 10.1833 32.267 10.3041 32.5084C10.4272 32.7499 10.4887 33.0245 10.4887 33.3323H7.38192Z" fill="#CFD1DE"/>
<path d="M12.6159 31.0454V36.4999H13.4539V33.0482C13.4539 32.802 13.5131 32.583 13.6315 32.3913C13.7522 32.1971 13.9156 32.0456 14.1215 31.9367C14.3299 31.8254 14.5666 31.7698 14.8318 31.7698C14.943 31.7698 15.0484 31.7781 15.1478 31.7947C15.2496 31.8089 15.3147 31.8195 15.3431 31.8266V30.9744C15.2958 30.9696 15.2259 30.9661 15.1336 30.9637C15.0413 30.9613 14.9643 30.9602 14.9028 30.9602C14.5761 30.9602 14.2825 31.0442 14.0221 31.2123C13.7617 31.3804 13.5818 31.5994 13.4823 31.8692H13.4255V31.0454H12.6159Z" fill="#CFD1DE"/>
<path d="M19.1073 31.7556V31.0454H17.8857V30.4914C17.8857 30.2215 17.9461 30.0167 18.0669 29.8771C18.19 29.7374 18.39 29.6675 18.667 29.6675C18.7877 29.6675 18.8848 29.6782 18.9582 29.6995C19.0339 29.7208 19.0931 29.7386 19.1357 29.7528L19.3772 29.0283C19.3133 28.9999 19.2162 28.9692 19.086 28.936C18.9558 28.9029 18.7877 28.8863 18.5818 28.8863C18.3213 28.8863 18.074 28.9384 17.8396 29.0425C17.6052 29.1467 17.4146 29.303 17.2678 29.5113C17.1211 29.7196 17.0477 29.98 17.0477 30.2925V31.0454H16.167V31.7556H17.0477V36.4999H17.8857V31.7556H19.1073Z" fill="#CFD1DE"/>
<path d="M20.2819 31.0454V36.4999H21.1199V31.0454H20.2819Z" fill="#CFD1DE"/>
<path d="M20.2854 29.9694C20.4038 30.0807 20.5447 30.1363 20.708 30.1363C20.8714 30.1363 21.011 30.0807 21.127 29.9694C21.2454 29.8581 21.3046 29.7244 21.3046 29.5681C21.3046 29.4119 21.2454 29.2781 21.127 29.1668C21.011 29.0556 20.8714 28.9999 20.708 28.9999C20.5447 28.9999 20.4038 29.0556 20.2854 29.1668C20.1694 29.2781 20.1114 29.4119 20.1114 29.5681C20.1114 29.7244 20.1694 29.8581 20.2854 29.9694Z" fill="#CFD1DE"/>
<path d="M23.493 36.4999V29.2272H22.6549V36.4999H23.493Z" fill="#CFD1DE"/>
</svg>
