<svg width="8" height="16" viewBox="0 0 8 16" fill="none" xmlns="http://www.w3.org/2000/svg">
<path fill-rule="evenodd" clip-rule="evenodd" d="M2.92676 1.69298C2.92676 1.28976 3.25363 0.962891 3.65685 0.962891C4.06006 0.962891 4.38694 1.28976 4.38694 1.69298V2.43892C5.91125 2.75656 7.05933 4.15212 7.05933 5.82562C7.05933 6.43181 6.58521 6.92322 6.00037 6.92322C5.41552 6.92322 4.94141 6.43181 4.94141 5.82562C4.94141 5.13012 4.39745 4.56631 3.72644 4.56631C3.05543 4.56631 2.51147 5.13012 2.51147 5.82562C2.51147 6.52111 3.05543 7.08492 3.72644 7.08492C3.75343 7.08492 3.78019 7.08597 3.80667 7.08803C5.61042 7.13206 7.05957 8.66141 7.05957 10.5416C7.05957 12.2149 5.91176 13.6103 4.3877 13.9282L4.3877 14.7406C4.3877 15.1438 4.06082 15.4707 3.65761 15.4707C3.25439 15.4707 2.92752 15.1438 2.92752 14.7406V13.8961C1.47277 13.5251 0.393798 12.1639 0.393798 10.5416C0.393798 9.93538 0.867911 9.44396 1.45276 9.44396C2.03761 9.44396 2.51172 9.93538 2.51172 10.5416C2.51172 11.2371 3.05568 11.8009 3.72668 11.8009C4.39769 11.8009 4.94165 11.2371 4.94165 10.5416C4.94165 9.84608 4.39769 9.28226 3.72668 9.28226C3.69969 9.28226 3.67294 9.28122 3.64645 9.27916C1.8427 9.23513 0.393555 7.70578 0.393555 5.82562C0.393555 4.20345 1.47227 2.84244 2.92676 2.47117V1.69298Z" fill="#55B3FF"/>
</svg>
