<svg width="38" height="36" viewBox="0 0 38 36" fill="none" xmlns="http://www.w3.org/2000/svg">
<path fill-rule="evenodd" clip-rule="evenodd" d="M10.9384 0.333984C8.70715 0.333984 6.89838 2.14275 6.89838 4.37398V18.54C6.89838 20.7713 8.70715 22.58 10.9384 22.58H27.0618C29.293 22.58 31.1018 20.7713 31.1018 18.54V8.32468C31.1018 6.09345 29.293 4.28468 27.0618 4.28468H10.4124C9.85475 4.28468 9.40268 3.8326 9.40268 3.27494C9.40268 3.20939 9.39643 3.14529 9.38451 3.08321C9.75504 2.63765 10.3136 2.35398 10.9384 2.35398H28.0957C28.6535 2.35398 29.1057 1.90179 29.1057 1.34398C29.1057 0.786177 28.6535 0.333984 28.0957 0.333984H10.9384ZM8.91838 18.54V5.91129C9.35927 6.16169 9.86915 6.30468 10.4124 6.30468H27.0618C28.1774 6.30468 29.0818 7.20906 29.0818 8.32468V18.54C29.0818 19.6557 28.1774 20.56 27.0618 20.56H10.9384C9.82277 20.56 8.91838 19.6557 8.91838 18.54Z" fill="#CFD1DE"/>
<path fill-rule="evenodd" clip-rule="evenodd" d="M0.78418 28.0261V35.2988H3.41202C3.98494 35.2988 4.45014 35.2136 4.80762 35.0431C5.1651 34.8727 5.4267 34.6419 5.59242 34.3507C5.75814 34.0595 5.841 33.7316 5.841 33.367C5.841 32.9835 5.76524 32.6591 5.61373 32.394C5.46221 32.1288 5.274 31.9252 5.04909 31.7832C4.82419 31.6411 4.60047 31.563 4.37793 31.5488V31.4778C4.58626 31.421 4.77921 31.3334 4.95677 31.215C5.13669 31.0966 5.2811 30.9357 5.39 30.7321C5.50127 30.5285 5.55691 30.2704 5.55691 29.9579C5.55691 29.6028 5.47641 29.2796 5.31543 28.9884C5.15445 28.6949 4.90942 28.4617 4.58034 28.2889C4.25127 28.1137 3.83342 28.0261 3.32679 28.0261H0.78418ZM3.41202 34.5176H1.66486V31.9892H3.45463C3.77187 31.9892 4.04649 32.0531 4.2785 32.1809C4.51051 32.3064 4.68925 32.4745 4.81472 32.6852C4.94019 32.8935 5.00293 33.1208 5.00293 33.367C5.00293 33.6866 4.88101 33.9589 4.63716 34.1838C4.39569 34.4063 3.9873 34.5176 3.41202 34.5176ZM3.29838 31.2221H1.66486V28.8073H3.32679C3.80975 28.8073 4.16249 28.9198 4.38503 29.1447C4.60757 29.3672 4.71884 29.6383 4.71884 29.9579C4.71884 30.2136 4.65492 30.4361 4.52708 30.6255C4.4016 30.8149 4.23115 30.9617 4.01571 31.0659C3.80265 31.17 3.56354 31.2221 3.29838 31.2221Z" fill="#CFD1DE"/>
<path d="M7.17445 29.8443V35.2988H8.01252V29.8443H7.17445Z" fill="#CFD1DE"/>
<path d="M7.178 28.7683C7.29637 28.8795 7.43723 28.9352 7.60059 28.9352C7.76394 28.9352 7.90362 28.8795 8.01962 28.7683C8.13799 28.657 8.19718 28.5233 8.19718 28.367C8.19718 28.2108 8.13799 28.077 8.01962 27.9657C7.90362 27.8545 7.76394 27.7988 7.60059 27.7988C7.43723 27.7988 7.29637 27.8545 7.178 27.9657C7.062 28.077 7.00399 28.2108 7.00399 28.367C7.00399 28.5233 7.062 28.657 7.178 28.7683Z" fill="#CFD1DE"/>
<path d="M10.3856 35.2988V28.0261H9.5475V35.2988H10.3856Z" fill="#CFD1DE"/>
<path d="M12.7586 35.2988V28.0261H11.9205V35.2988H12.7586Z" fill="#CFD1DE"/>
<path fill-rule="evenodd" clip-rule="evenodd" d="M15.2204 35.0644C15.6016 35.2965 16.055 35.4125 16.5805 35.4125C16.9498 35.4125 17.2825 35.3556 17.5784 35.242C17.8743 35.126 18.1229 34.965 18.3241 34.759C18.5254 34.5507 18.6686 34.3092 18.7538 34.0346L17.9442 33.8073C17.8731 33.9967 17.7725 34.1554 17.6423 34.2832C17.5121 34.4087 17.357 34.5034 17.1771 34.5673C16.9996 34.6288 16.8007 34.6596 16.5805 34.6596C16.242 34.6596 15.9449 34.5862 15.6892 34.4394C15.4335 34.2903 15.2335 34.0737 15.089 33.7896C14.9602 33.5299 14.8898 33.2185 14.8778 32.8556H18.839V32.5005C18.839 31.9915 18.7716 31.563 18.6366 31.215C18.5017 30.867 18.3206 30.5876 18.0933 30.3769C17.866 30.1639 17.6139 30.01 17.3369 29.9153C17.0599 29.8206 16.7794 29.7733 16.4953 29.7733C16.0029 29.7733 15.572 29.894 15.2027 30.1355C14.8357 30.3746 14.5493 30.7084 14.3433 31.1369C14.1397 31.563 14.0379 32.0554 14.0379 32.6142C14.0379 33.1729 14.1397 33.6629 14.3433 34.0843C14.5493 34.5034 14.8416 34.8301 15.2204 35.0644ZM14.88 32.1312C14.8959 31.8782 14.9597 31.6391 15.0713 31.4139C15.2015 31.1511 15.3873 30.938 15.6288 30.7747C15.8727 30.609 16.1615 30.5261 16.4953 30.5261C16.7983 30.5261 17.0611 30.5959 17.2836 30.7356C17.5086 30.8753 17.6814 31.0659 17.8021 31.3073C17.9252 31.5488 17.9868 31.8234 17.9868 32.1312H14.88Z" fill="#CFD1DE"/>
<path d="M22.4861 30.5545V29.8443H21.3213V28.5375H20.4832V29.8443H19.6594V30.5545H20.4832V33.9636C20.4832 34.2808 20.5566 34.5436 20.7034 34.7519C20.8525 34.9603 21.0396 35.1153 21.2645 35.2171C21.4917 35.3189 21.7238 35.3698 21.9605 35.3698C22.1167 35.3698 22.2458 35.358 22.3476 35.3343C22.4494 35.313 22.5287 35.2917 22.5855 35.2704L22.415 34.5176L22.273 34.546C22.2138 34.5554 22.1381 34.5602 22.0457 34.5602C21.9226 34.5602 21.8054 34.5412 21.6942 34.5034C21.5853 34.4631 21.4953 34.385 21.4243 34.269C21.3556 34.1506 21.3213 33.9731 21.3213 33.7363V30.5545H22.4861Z" fill="#CFD1DE"/>
<path fill-rule="evenodd" clip-rule="evenodd" d="M24.615 35.0644C24.9961 35.2965 25.4495 35.4125 25.9751 35.4125C26.3444 35.4125 26.677 35.3556 26.9729 35.242C27.2689 35.126 27.5174 34.965 27.7187 34.759C27.9199 34.5507 28.0631 34.3092 28.1483 34.0346L27.3387 33.8073C27.2677 33.9967 27.1671 34.1554 27.0368 34.2832C26.9066 34.4087 26.7516 34.5034 26.5716 34.5673C26.3941 34.6288 26.1952 34.6596 25.9751 34.6596C25.6365 34.6596 25.3394 34.5862 25.0837 34.4394C24.828 34.2903 24.628 34.0737 24.4836 33.7896C24.3548 33.5299 24.2844 33.2185 24.2724 32.8556H28.2336V32.5005C28.2336 31.9915 28.1661 31.563 28.0312 31.215C27.8962 30.867 27.7151 30.5876 27.4878 30.3769C27.2606 30.1639 27.0084 30.01 26.7314 29.9153C26.4545 29.8206 26.1739 29.7733 25.8898 29.7733C25.3974 29.7733 24.9665 29.894 24.5972 30.1355C24.2303 30.3746 23.9438 30.7084 23.7378 31.1369C23.5342 31.563 23.4324 32.0554 23.4324 32.6142C23.4324 33.1729 23.5342 33.6629 23.7378 34.0843C23.9438 34.5034 24.2362 34.8301 24.615 35.0644ZM24.2745 32.1312C24.2905 31.8782 24.3542 31.6391 24.4658 31.4139C24.596 31.1511 24.7819 30.938 25.0233 30.7747C25.2672 30.609 25.556 30.5261 25.8898 30.5261C26.1929 30.5261 26.4556 30.5959 26.6782 30.7356C26.9031 30.8753 27.0759 31.0659 27.1966 31.3073C27.3197 31.5488 27.3813 31.8234 27.3813 32.1312H24.2745Z" fill="#CFD1DE"/>
<path d="M29.5084 29.8443V35.2988H30.3465V31.8471C30.3465 31.6009 30.4057 31.3819 30.5241 31.1902C30.6448 30.996 30.8081 30.8445 31.0141 30.7356C31.2224 30.6243 31.4592 30.5687 31.7243 30.5687C31.8356 30.5687 31.941 30.577 32.0404 30.5936C32.1422 30.6078 32.2073 30.6184 32.2357 30.6255V29.7733C32.1884 29.7685 32.1185 29.765 32.0262 29.7626C31.9339 29.7602 31.8569 29.759 31.7954 29.759C31.4687 29.759 31.1751 29.8431 30.9147 30.0112C30.6543 30.1793 30.4743 30.3983 30.3749 30.6681H30.3181V29.8443H29.5084Z" fill="#CFD1DE"/>
<path fill-rule="evenodd" clip-rule="evenodd" d="M33.8932 35.2313C34.1749 35.3616 34.4886 35.4267 34.8343 35.4267C35.1515 35.4267 35.4202 35.3793 35.6404 35.2846C35.8605 35.1899 36.0369 35.0751 36.1695 34.9402C36.3021 34.8052 36.3968 34.6786 36.4536 34.5602H36.4962V35.2988H37.3343V31.7051C37.3343 31.2718 37.2632 30.9262 37.1212 30.6681C36.9791 30.4101 36.8004 30.2171 36.585 30.0893C36.3719 29.9615 36.1505 29.8774 35.9209 29.8372C35.6936 29.7946 35.4924 29.7733 35.3172 29.7733C35.0426 29.7733 34.7632 29.8111 34.4791 29.8869C34.1974 29.9603 33.937 30.0905 33.6979 30.2775C33.4611 30.4622 33.2718 30.7202 33.1297 31.0517L33.9252 31.3358C34.0175 31.1369 34.1773 30.9499 34.4046 30.7747C34.6318 30.5995 34.9455 30.5119 35.3456 30.5119C35.7315 30.5119 36.0191 30.609 36.2085 30.8031C36.4003 30.9972 36.4962 31.2695 36.4962 31.6198V31.6483C36.4962 31.7832 36.4477 31.8779 36.3506 31.9323C36.2559 31.9868 36.1044 32.0259 35.896 32.0495C35.6901 32.0708 35.4214 32.1028 35.0899 32.1454C34.8366 32.1786 34.5845 32.2235 34.3335 32.2804C34.085 32.3348 33.8577 32.4177 33.6517 32.5289C33.4458 32.6402 33.2812 32.7941 33.1581 32.9906C33.035 33.1847 32.9735 33.438 32.9735 33.7505C32.9735 34.1056 33.0563 34.4087 33.222 34.6596C33.3878 34.9082 33.6115 35.0988 33.8932 35.2313ZM35.8002 34.4785C35.5729 34.6087 35.2935 34.6738 34.9621 34.6738C34.6283 34.6738 34.3525 34.6004 34.1347 34.4536C33.9192 34.3045 33.8115 34.0843 33.8115 33.7931C33.8115 33.5801 33.8683 33.412 33.982 33.2889C34.098 33.1634 34.2495 33.0699 34.4365 33.0083C34.6259 32.9444 34.8295 32.8983 35.0473 32.8698C35.1373 32.858 35.2545 32.8438 35.3989 32.8272C35.5457 32.8083 35.696 32.787 35.8499 32.7633C36.0061 32.7373 36.1434 32.7077 36.2618 32.6745C36.3825 32.639 36.4607 32.6 36.4962 32.5573V33.3244C36.4962 33.5517 36.437 33.7683 36.3186 33.9742C36.2026 34.1802 36.0298 34.3483 35.8002 34.4785Z" fill="#CFD1DE"/>
</svg>
