<svg width="38" height="37" viewBox="0 0 38 37" fill="none" xmlns="http://www.w3.org/2000/svg">
<path fill-rule="evenodd" clip-rule="evenodd" d="M10.9384 0.98999C8.70715 0.98999 6.89838 2.79876 6.89838 5.02999V19.196C6.89838 21.4273 8.70715 23.236 10.9384 23.236H27.0618C29.293 23.236 31.1018 21.4273 31.1018 19.196V8.98068C31.1018 6.74945 29.293 4.94068 27.0618 4.94068H10.4124C9.85475 4.94068 9.40268 4.48861 9.40268 3.93095C9.40268 3.86539 9.39643 3.8013 9.38451 3.73922C9.75504 3.29365 10.3136 3.00999 10.9384 3.00999H28.0957C28.6535 3.00999 29.1057 2.5578 29.1057 1.99999C29.1057 1.44218 28.6535 0.98999 28.0957 0.98999H10.9384ZM8.91838 19.196V6.5673C9.35927 6.8177 9.86915 6.96068 10.4124 6.96068H27.0618C28.1774 6.96068 29.0818 7.86507 29.0818 8.98068V19.196C29.0818 20.3117 28.1774 21.216 27.0618 21.216H10.9384C9.82277 21.216 8.91838 20.3117 8.91838 19.196Z" fill="#55B3FF"/>
<path fill-rule="evenodd" clip-rule="evenodd" d="M0.78418 28.6821V35.9548H3.41202C3.98494 35.9548 4.45014 35.8696 4.80762 35.6991C5.1651 35.5287 5.4267 35.2979 5.59242 35.0067C5.75814 34.7155 5.841 34.3876 5.841 34.023C5.841 33.6395 5.76524 33.3151 5.61373 33.05C5.46221 32.7848 5.274 32.5812 5.04909 32.4392C4.82419 32.2972 4.60047 32.219 4.37793 32.2048V32.1338C4.58626 32.077 4.77921 31.9894 4.95677 31.871C5.13669 31.7526 5.2811 31.5917 5.39 31.3881C5.50127 31.1845 5.55691 30.9264 5.55691 30.6139C5.55691 30.2588 5.47641 29.9356 5.31543 29.6445C5.15445 29.3509 4.90942 29.1177 4.58034 28.9449C4.25127 28.7697 3.83342 28.6821 3.32679 28.6821H0.78418ZM3.41202 35.1736H1.66486V32.6452H3.45463C3.77187 32.6452 4.04649 32.7091 4.2785 32.8369C4.51051 32.9624 4.68925 33.1305 4.81472 33.3412C4.94019 33.5495 5.00293 33.7768 5.00293 34.023C5.00293 34.3426 4.88101 34.6149 4.63716 34.8398C4.39569 35.0623 3.9873 35.1736 3.41202 35.1736ZM3.29838 31.8781H1.66486V29.4633H3.32679C3.80975 29.4633 4.16249 29.5758 4.38503 29.8007C4.60757 30.0232 4.71884 30.2943 4.71884 30.6139C4.71884 30.8696 4.65492 31.0921 4.52708 31.2815C4.4016 31.4709 4.23115 31.6177 4.01571 31.7219C3.80265 31.826 3.56354 31.8781 3.29838 31.8781Z" fill="#55B3FF"/>
<path d="M7.17445 30.5003V35.9548H8.01252V30.5003H7.17445Z" fill="#55B3FF"/>
<path d="M7.178 29.4243C7.29637 29.5356 7.43723 29.5912 7.60059 29.5912C7.76394 29.5912 7.90362 29.5356 8.01962 29.4243C8.13799 29.313 8.19718 29.1793 8.19718 29.023C8.19718 28.8668 8.13799 28.733 8.01962 28.6217C7.90362 28.5105 7.76394 28.4548 7.60059 28.4548C7.43723 28.4548 7.29637 28.5105 7.178 28.6217C7.062 28.733 7.00399 28.8668 7.00399 29.023C7.00399 29.1793 7.062 29.313 7.178 29.4243Z" fill="#55B3FF"/>
<path d="M10.3856 35.9548V28.6821H9.5475V35.9548H10.3856Z" fill="#55B3FF"/>
<path d="M12.7586 35.9548V28.6821H11.9205V35.9548H12.7586Z" fill="#55B3FF"/>
<path fill-rule="evenodd" clip-rule="evenodd" d="M15.2204 35.7205C15.6016 35.9525 16.055 36.0685 16.5805 36.0685C16.9498 36.0685 17.2825 36.0116 17.5784 35.898C17.8743 35.782 18.1229 35.621 18.3241 35.4151C18.5254 35.2067 18.6686 34.9652 18.7538 34.6906L17.9442 34.4633C17.8731 34.6527 17.7725 34.8114 17.6423 34.9392C17.5121 35.0647 17.357 35.1594 17.1771 35.2233C16.9996 35.2848 16.8007 35.3156 16.5805 35.3156C16.242 35.3156 15.9449 35.2422 15.6892 35.0955C15.4335 34.9463 15.2335 34.7297 15.089 34.4456C14.9602 34.1859 14.8898 33.8745 14.8778 33.5116H18.839V33.1565C18.839 32.6475 18.7716 32.219 18.6366 31.871C18.5017 31.523 18.3206 31.2437 18.0933 31.0329C17.866 30.8199 17.6139 30.666 17.3369 30.5713C17.0599 30.4766 16.7794 30.4293 16.4953 30.4293C16.0029 30.4293 15.572 30.55 15.2027 30.7915C14.8357 31.0306 14.5493 31.3644 14.3433 31.7929C14.1397 32.219 14.0379 32.7115 14.0379 33.2702C14.0379 33.8289 14.1397 34.3189 14.3433 34.7403C14.5493 35.1594 14.8416 35.4861 15.2204 35.7205ZM14.88 32.7872C14.8959 32.5342 14.9597 32.2951 15.0713 32.0699C15.2015 31.8071 15.3873 31.594 15.6288 31.4307C15.8727 31.265 16.1615 31.1821 16.4953 31.1821C16.7983 31.1821 17.0611 31.2519 17.2836 31.3916C17.5086 31.5313 17.6814 31.7219 17.8021 31.9633C17.9252 32.2048 17.9868 32.4794 17.9868 32.7872H14.88Z" fill="#55B3FF"/>
<path d="M22.4861 31.2105V30.5003H21.3213V29.1935H20.4832V30.5003H19.6594V31.2105H20.4832V34.6196C20.4832 34.9368 20.5566 35.1996 20.7034 35.408C20.8525 35.6163 21.0396 35.7714 21.2645 35.8731C21.4917 35.9749 21.7238 36.0258 21.9605 36.0258C22.1167 36.0258 22.2458 36.014 22.3476 35.9903C22.4494 35.969 22.5287 35.9477 22.5855 35.9264L22.415 35.1736L22.273 35.202C22.2138 35.2115 22.1381 35.2162 22.0457 35.2162C21.9226 35.2162 21.8054 35.1973 21.6942 35.1594C21.5853 35.1191 21.4953 35.041 21.4243 34.925C21.3556 34.8066 21.3213 34.6291 21.3213 34.3923V31.2105H22.4861Z" fill="#55B3FF"/>
<path fill-rule="evenodd" clip-rule="evenodd" d="M24.615 35.7205C24.9961 35.9525 25.4495 36.0685 25.9751 36.0685C26.3444 36.0685 26.677 36.0116 26.9729 35.898C27.2689 35.782 27.5174 35.621 27.7187 35.4151C27.9199 35.2067 28.0631 34.9652 28.1483 34.6906L27.3387 34.4633C27.2677 34.6527 27.1671 34.8114 27.0368 34.9392C26.9066 35.0647 26.7516 35.1594 26.5716 35.2233C26.3941 35.2848 26.1952 35.3156 25.9751 35.3156C25.6365 35.3156 25.3394 35.2422 25.0837 35.0955C24.828 34.9463 24.628 34.7297 24.4836 34.4456C24.3548 34.1859 24.2844 33.8745 24.2724 33.5116H28.2336V33.1565C28.2336 32.6475 28.1661 32.219 28.0312 31.871C27.8962 31.523 27.7151 31.2437 27.4878 31.0329C27.2606 30.8199 27.0084 30.666 26.7314 30.5713C26.4545 30.4766 26.1739 30.4293 25.8898 30.4293C25.3974 30.4293 24.9665 30.55 24.5972 30.7915C24.2303 31.0306 23.9438 31.3644 23.7378 31.7929C23.5342 32.219 23.4324 32.7115 23.4324 33.2702C23.4324 33.8289 23.5342 34.3189 23.7378 34.7403C23.9438 35.1594 24.2362 35.4861 24.615 35.7205ZM24.2745 32.7872C24.2905 32.5342 24.3542 32.2951 24.4658 32.0699C24.596 31.8071 24.7819 31.594 25.0233 31.4307C25.2672 31.265 25.556 31.1821 25.8898 31.1821C26.1929 31.1821 26.4556 31.2519 26.6782 31.3916C26.9031 31.5313 27.0759 31.7219 27.1966 31.9633C27.3197 32.2048 27.3813 32.4794 27.3813 32.7872H24.2745Z" fill="#55B3FF"/>
<path d="M29.5084 30.5003V35.9548H30.3465V32.5031C30.3465 32.2569 30.4057 32.0379 30.5241 31.8462C30.6448 31.652 30.8081 31.5005 31.0141 31.3916C31.2224 31.2803 31.4592 31.2247 31.7243 31.2247C31.8356 31.2247 31.941 31.233 32.0404 31.2496C32.1422 31.2638 32.2073 31.2744 32.2357 31.2815V30.4293C32.1884 30.4245 32.1185 30.421 32.0262 30.4186C31.9339 30.4162 31.8569 30.4151 31.7954 30.4151C31.4687 30.4151 31.1751 30.4991 30.9147 30.6672C30.6543 30.8353 30.4743 31.0543 30.3749 31.3241H30.3181V30.5003H29.5084Z" fill="#55B3FF"/>
<path fill-rule="evenodd" clip-rule="evenodd" d="M33.8932 35.8874C34.1749 36.0176 34.4886 36.0827 34.8343 36.0827C35.1515 36.0827 35.4202 36.0353 35.6404 35.9406C35.8605 35.8459 36.0369 35.7311 36.1695 35.5962C36.3021 35.4612 36.3968 35.3346 36.4536 35.2162H36.4962V35.9548H37.3343V32.3611C37.3343 31.9278 37.2632 31.5822 37.1212 31.3241C36.9791 31.0661 36.8004 30.8731 36.585 30.7453C36.3719 30.6175 36.1505 30.5334 35.9209 30.4932C35.6936 30.4506 35.4924 30.4293 35.3172 30.4293C35.0426 30.4293 34.7632 30.4671 34.4791 30.5429C34.1974 30.6163 33.937 30.7465 33.6979 30.9335C33.4611 31.1182 33.2718 31.3762 33.1297 31.7077L33.9252 31.9918C34.0175 31.7929 34.1773 31.6059 34.4046 31.4307C34.6318 31.2555 34.9455 31.1679 35.3456 31.1679C35.7315 31.1679 36.0191 31.265 36.2085 31.4591C36.4003 31.6532 36.4962 31.9255 36.4962 32.2758V32.3043C36.4962 32.4392 36.4477 32.5339 36.3506 32.5883C36.2559 32.6428 36.1044 32.6819 35.896 32.7055C35.6901 32.7268 35.4214 32.7588 35.0899 32.8014C34.8366 32.8346 34.5845 32.8795 34.3335 32.9364C34.085 32.9908 33.8577 33.0737 33.6517 33.1849C33.4458 33.2962 33.2812 33.4501 33.1581 33.6466C33.035 33.8407 32.9735 34.094 32.9735 34.4065C32.9735 34.7616 33.0563 35.0647 33.222 35.3156C33.3878 35.5642 33.6115 35.7548 33.8932 35.8874ZM35.8002 35.1345C35.5729 35.2647 35.2935 35.3298 34.9621 35.3298C34.6283 35.3298 34.3525 35.2564 34.1347 35.1097C33.9192 34.9605 33.8115 34.7403 33.8115 34.4491C33.8115 34.2361 33.8683 34.068 33.982 33.9449C34.098 33.8194 34.2495 33.7259 34.4365 33.6643C34.6259 33.6004 34.8295 33.5543 35.0473 33.5258C35.1373 33.514 35.2545 33.4998 35.3989 33.4832C35.5457 33.4643 35.696 33.443 35.8499 33.4193C36.0061 33.3933 36.1434 33.3637 36.2618 33.3305C36.3825 33.295 36.4607 33.256 36.4962 33.2133V33.9804C36.4962 34.2077 36.437 34.4243 36.3186 34.6302C36.2026 34.8362 36.0298 35.0043 35.8002 35.1345Z" fill="#55B3FF"/>
</svg>
