<svg width="38" height="36" viewBox="0 0 38 36" fill="none" xmlns="http://www.w3.org/2000/svg">
<path fill-rule="evenodd" clip-rule="evenodd" d="M10.6062 0.0349121C8.37494 0.0349121 6.56617 1.84368 6.56617 4.07491V18.241C6.56617 20.4722 8.37494 22.281 10.6062 22.281H26.7296C28.9608 22.281 30.7696 20.4722 30.7696 18.241V8.02561C30.7696 5.79437 28.9608 3.98561 26.7296 3.98561H10.0802C9.52254 3.98561 9.07047 3.53353 9.07047 2.97587C9.07047 2.91031 9.06422 2.84622 9.05229 2.78414C9.42282 2.33858 9.98137 2.05491 10.6062 2.05491H27.7635C28.3213 2.05491 28.7735 1.60272 28.7735 1.04491C28.7735 0.487105 28.3213 0.0349121 27.7635 0.0349121H10.6062ZM8.58617 18.241V5.61222C9.02706 5.86262 9.53693 6.00561 10.0802 6.00561H26.7296C27.8452 6.00561 28.7496 6.90999 28.7496 8.02561V18.241C28.7496 19.3566 27.8452 20.261 26.7296 20.261H10.6062C9.49055 20.261 8.58617 19.3566 8.58617 18.241Z" fill="#CFD1DE"/>
<path fill-rule="evenodd" clip-rule="evenodd" d="M0.451965 27.7273V35H3.07981C3.65272 35 4.11792 34.9148 4.4754 34.7443C4.83288 34.5739 5.09448 34.343 5.2602 34.0518C5.42592 33.7606 5.50878 33.4328 5.50878 33.0682C5.50878 32.6847 5.43303 32.3603 5.28151 32.0952C5.13 31.83 4.94179 31.6264 4.71688 31.4844C4.49197 31.3423 4.26825 31.2642 4.04572 31.25V31.179C4.25405 31.1222 4.44699 31.0346 4.62455 30.9162C4.80447 30.7978 4.94889 30.6368 5.05779 30.4332C5.16906 30.2296 5.22469 29.9716 5.22469 29.6591C5.22469 29.304 5.1442 28.9808 4.98322 28.6896C4.82223 28.3961 4.5772 28.1629 4.24813 27.99C3.91906 27.8149 3.50121 27.7273 2.99458 27.7273H0.451965ZM3.07981 34.2187H1.33265V31.6903H3.12242C3.43965 31.6903 3.71428 31.7543 3.94628 31.8821C4.17829 32.0076 4.35703 32.1757 4.48251 32.3864C4.60798 32.5947 4.67072 32.822 4.67072 33.0682C4.67072 33.3878 4.54879 33.66 4.30495 33.8849C4.06347 34.1075 3.65509 34.2187 3.07981 34.2187ZM2.96617 30.9233H1.33265V28.5085H2.99458C3.47753 28.5085 3.83028 28.621 4.05282 28.8459C4.27536 29.0684 4.38662 29.3395 4.38662 29.6591C4.38662 29.9148 4.3227 30.1373 4.19486 30.3267C4.06939 30.5161 3.89893 30.6629 3.6835 30.767C3.47043 30.8712 3.23132 30.9233 2.96617 30.9233Z" fill="#CFD1DE"/>
<path d="M6.84224 29.5454V35H7.6803V29.5454H6.84224Z" fill="#CFD1DE"/>
<path d="M6.84579 28.4694C6.96416 28.5807 7.10502 28.6364 7.26837 28.6364C7.43172 28.6364 7.5714 28.5807 7.68741 28.4694C7.80578 28.3582 7.86496 28.2244 7.86496 28.0682C7.86496 27.9119 7.80578 27.7782 7.68741 27.6669C7.5714 27.5556 7.43172 27.5 7.26837 27.5C7.10502 27.5 6.96416 27.5556 6.84579 27.6669C6.72978 27.7782 6.67178 27.9119 6.67178 28.0682C6.67178 28.2244 6.72978 28.3582 6.84579 28.4694Z" fill="#CFD1DE"/>
<path d="M10.0534 35V27.7273H9.21528V35H10.0534Z" fill="#CFD1DE"/>
<path d="M12.4264 35V27.7273H11.5883V35H12.4264Z" fill="#CFD1DE"/>
<path fill-rule="evenodd" clip-rule="evenodd" d="M14.8882 34.7656C15.2694 34.9976 15.7227 35.1136 16.2483 35.1136C16.6176 35.1136 16.9502 35.0568 17.2462 34.9432C17.5421 34.8272 17.7907 34.6662 17.9919 34.4602C18.1931 34.2519 18.3364 34.0104 18.4216 33.7358L17.6119 33.5085C17.5409 33.6979 17.4403 33.8565 17.3101 33.9844C17.1799 34.1098 17.0248 34.2045 16.8449 34.2685C16.6673 34.33 16.4685 34.3608 16.2483 34.3608C15.9098 34.3608 15.6127 34.2874 15.357 34.1406C15.1013 33.9915 14.9012 33.7748 14.7568 33.4908C14.628 33.231 14.5576 32.9197 14.5456 32.5568H18.5068V32.2017C18.5068 31.6927 18.4394 31.2642 18.3044 30.9162C18.1695 30.5682 17.9884 30.2888 17.7611 30.0781C17.5338 29.865 17.2817 29.7112 17.0047 29.6165C16.7277 29.5218 16.4472 29.4744 16.1631 29.4744C15.6707 29.4744 15.2398 29.5952 14.8705 29.8366C14.5035 30.0757 14.2171 30.4096 14.0111 30.8381C13.8075 31.2642 13.7057 31.7566 13.7057 32.3153C13.7057 32.874 13.8075 33.3641 14.0111 33.7855C14.2171 34.2045 14.5094 34.5312 14.8882 34.7656ZM14.5478 31.8324C14.5637 31.5794 14.6275 31.3402 14.7391 31.115C14.8693 30.8523 15.0551 30.6392 15.2966 30.4758C15.5404 30.3101 15.8293 30.2273 16.1631 30.2273C16.4661 30.2273 16.7289 30.2971 16.9514 30.4368C17.1763 30.5765 17.3492 30.767 17.4699 31.0085C17.593 31.25 17.6546 31.5246 17.6546 31.8324H14.5478Z" fill="#CFD1DE"/>
<path d="M22.1538 30.2557V29.5454H20.9891V28.2386H20.151V29.5454H19.3271V30.2557H20.151V33.6648C20.151 33.982 20.2244 34.2448 20.3712 34.4531C20.5203 34.6614 20.7074 34.8165 20.9323 34.9183C21.1595 35.0201 21.3915 35.071 21.6283 35.071C21.7845 35.071 21.9136 35.0592 22.0154 35.0355C22.1172 35.0142 22.1965 34.9929 22.2533 34.9716L22.0828 34.2187L21.9408 34.2472C21.8816 34.2566 21.8058 34.2614 21.7135 34.2614C21.5904 34.2614 21.4732 34.2424 21.3619 34.2045C21.253 34.1643 21.1631 34.0862 21.0921 33.9702C21.0234 33.8518 20.9891 33.6742 20.9891 33.4375V30.2557H22.1538Z" fill="#CFD1DE"/>
<path fill-rule="evenodd" clip-rule="evenodd" d="M24.2828 34.7656C24.6639 34.9976 25.1173 35.1136 25.6428 35.1136C26.0122 35.1136 26.3448 35.0568 26.6407 34.9432C26.9366 34.8272 27.1852 34.6662 27.3864 34.4602C27.5877 34.2519 27.7309 34.0104 27.8161 33.7358L27.0065 33.5085C26.9355 33.6979 26.8348 33.8565 26.7046 33.9844C26.5744 34.1098 26.4194 34.2045 26.2394 34.2685C26.0619 34.33 25.863 34.3608 25.6428 34.3608C25.3043 34.3608 25.0072 34.2874 24.7515 34.1406C24.4958 33.9915 24.2958 33.7748 24.1514 33.4908C24.0226 33.231 23.9522 32.9197 23.9401 32.5568H27.9014V32.2017C27.9014 31.6927 27.8339 31.2642 27.6989 30.9162C27.564 30.5682 27.3829 30.2888 27.1556 30.0781C26.9284 29.865 26.6762 29.7112 26.3992 29.6165C26.1222 29.5218 25.8417 29.4744 25.5576 29.4744C25.0652 29.4744 24.6343 29.5952 24.265 29.8366C23.898 30.0757 23.6116 30.4096 23.4056 30.8381C23.202 31.2642 23.1002 31.7566 23.1002 32.3153C23.1002 32.874 23.202 33.3641 23.4056 33.7855C23.6116 34.2045 23.904 34.5312 24.2828 34.7656ZM23.9423 31.8324C23.9582 31.5794 24.022 31.3402 24.1336 31.115C24.2638 30.8523 24.4497 30.6392 24.6911 30.4758C24.935 30.3101 25.2238 30.2273 25.5576 30.2273C25.8606 30.2273 26.1234 30.2971 26.346 30.4368C26.5709 30.5765 26.7437 30.767 26.8644 31.0085C26.9875 31.25 27.0491 31.5246 27.0491 31.8324H23.9423Z" fill="#CFD1DE"/>
<path d="M29.1762 29.5454V35H30.0143V31.5483C30.0143 31.3021 30.0735 31.0831 30.1918 30.8913C30.3126 30.6972 30.4759 30.5457 30.6819 30.4368C30.8902 30.3255 31.127 30.2699 31.3921 30.2699C31.5034 30.2699 31.6087 30.2782 31.7082 30.2947C31.81 30.3089 31.8751 30.3196 31.9035 30.3267V29.4744C31.8561 29.4697 31.7863 29.4661 31.694 29.4638C31.6016 29.4614 31.5247 29.4602 31.4632 29.4602C31.1364 29.4602 30.8429 29.5443 30.5825 29.7123C30.3221 29.8804 30.1421 30.0994 30.0427 30.3693H29.9859V29.5454H29.1762Z" fill="#CFD1DE"/>
<path fill-rule="evenodd" clip-rule="evenodd" d="M33.561 34.9325C33.8427 35.0627 34.1564 35.1278 34.502 35.1278C34.8193 35.1278 35.088 35.0805 35.3081 34.9858C35.5283 34.8911 35.7047 34.7763 35.8373 34.6413C35.9698 34.5064 36.0645 34.3797 36.1214 34.2614H36.164V35H37.002V31.4062C37.002 30.973 36.931 30.6274 36.789 30.3693C36.6469 30.1113 36.4682 29.9183 36.2527 29.7905C36.0397 29.6626 35.8183 29.5786 35.5887 29.5383C35.3614 29.4957 35.1602 29.4744 34.985 29.4744C34.7104 29.4744 34.431 29.5123 34.1469 29.5881C33.8652 29.6614 33.6048 29.7917 33.3657 29.9787C33.1289 30.1633 32.9395 30.4214 32.7975 30.7528L33.5929 31.0369C33.6853 30.8381 33.8451 30.651 34.0723 30.4758C34.2996 30.3007 34.6133 30.2131 35.0134 30.2131C35.3993 30.2131 35.6869 30.3101 35.8763 30.5043C36.0681 30.6984 36.164 30.9706 36.164 31.321V31.3494C36.164 31.4844 36.1154 31.5791 36.0184 31.6335C35.9237 31.688 35.7722 31.727 35.5638 31.7507C35.3579 31.772 35.0892 31.804 34.7577 31.8466C34.5044 31.8797 34.2523 31.9247 34.0013 31.9815C33.7527 32.036 33.5255 32.1188 33.3195 32.2301C33.1135 32.3414 32.949 32.4953 32.8259 32.6918C32.7028 32.8859 32.6412 33.1392 32.6412 33.4517C32.6412 33.8068 32.7241 34.1098 32.8898 34.3608C33.0555 34.6094 33.2793 34.7999 33.561 34.9325ZM35.4679 34.1797C35.2407 34.3099 34.9613 34.375 34.6299 34.375C34.2961 34.375 34.0203 34.3016 33.8025 34.1548C33.587 34.0057 33.4793 33.7855 33.4793 33.4943C33.4793 33.2812 33.5361 33.1132 33.6498 32.99C33.7658 32.8646 33.9173 32.7711 34.1043 32.7095C34.2937 32.6456 34.4973 32.5994 34.7151 32.571C34.8051 32.5592 34.9223 32.545 35.0667 32.5284C35.2134 32.5095 35.3638 32.4882 35.5177 32.4645C35.6739 32.4384 35.8112 32.4088 35.9296 32.3757C36.0503 32.3402 36.1285 32.3011 36.164 32.2585V33.0256C36.164 33.2528 36.1048 33.4695 35.9864 33.6754C35.8704 33.8814 35.6976 34.0495 35.4679 34.1797Z" fill="#CFD1DE"/>
</svg>
