<svg width="28" height="38" viewBox="0 0 28 38" fill="none" xmlns="http://www.w3.org/2000/svg">
<path fill-rule="evenodd" clip-rule="evenodd" d="M14.5997 0.696962C14.2431 0.434346 13.7571 0.434346 13.4004 0.696962L4.52235 7.23445C3.48699 7.99685 2.87574 9.20605 2.87574 10.4918V21.2317C2.87574 23.1866 4.46046 24.7713 6.4153 24.7713H9.95486C11.0719 24.7713 11.9775 23.8657 11.9775 22.7487V17.1865H16.0227V22.7487C16.0227 23.8657 16.9282 24.7713 18.0453 24.7713H21.5848C23.5397 24.7713 25.1244 23.1866 25.1244 21.2317V10.4918C25.1244 9.20605 24.5131 7.99685 23.4778 7.23445L14.5997 0.696962ZM5.72165 8.86313L14.0001 2.76721L22.2785 8.86313C22.7962 9.24433 23.1018 9.84893 23.1018 10.4918V21.2317C23.1018 22.0695 22.4226 22.7487 21.5848 22.7487H18.0453V16.6808C18.0453 15.8431 17.3661 15.1639 16.5283 15.1639H11.4718C10.634 15.1639 9.95486 15.8431 9.95486 16.6808V22.7487H6.4153C5.57751 22.7487 4.89835 22.0695 4.89835 21.2317V10.4918C4.89835 9.84893 5.20397 9.24433 5.72165 8.86313Z" fill="#CFD1DE"/>
<path d="M0.94043 30.2273V37.5H1.82111V34.2472H5.69895V37.5H6.57964V30.2273H5.69895V33.4659H1.82111V30.2273H0.94043Z" fill="#CFD1DE"/>
<path fill-rule="evenodd" clip-rule="evenodd" d="M9.14888 37.2621C9.52057 37.4964 9.95262 37.6136 10.445 37.6136C10.9375 37.6136 11.3683 37.4964 11.7377 37.2621C12.1093 37.0277 12.3982 36.6998 12.6041 36.2784C12.8125 35.857 12.9166 35.3646 12.9166 34.8011C12.9166 34.233 12.8125 33.737 12.6041 33.3132C12.3982 32.8894 12.1093 32.5604 11.7377 32.326C11.3683 32.0916 10.9375 31.9744 10.445 31.9744C9.95262 31.9744 9.52057 32.0916 9.14888 32.326C8.77956 32.5604 8.49074 32.8894 8.28241 33.3132C8.07644 33.737 7.97346 34.233 7.97346 34.8011C7.97346 35.3646 8.07644 35.857 8.28241 36.2784C8.49074 36.6998 8.77956 37.0277 9.14888 37.2621ZM11.3683 36.5732C11.1269 36.7649 10.8191 36.8608 10.445 36.8608C10.071 36.8608 9.76323 36.7649 9.52175 36.5732C9.28028 36.3814 9.10153 36.1293 8.98553 35.8168C8.86953 35.5043 8.81153 35.1657 8.81153 34.8011C8.81153 34.4366 8.86953 34.0968 8.98553 33.782C9.10153 33.4671 9.28028 33.2126 9.52175 33.0185C9.76323 32.8243 10.071 32.7273 10.445 32.7273C10.8191 32.7273 11.1269 32.8243 11.3683 33.0185C11.6098 33.2126 11.7886 33.4671 11.9046 33.782C12.0206 34.0968 12.0786 34.4366 12.0786 34.8011C12.0786 35.1657 12.0206 35.5043 11.9046 35.8168C11.7886 36.1293 11.6098 36.3814 11.3683 36.5732Z" fill="#CFD1DE"/>
<path d="M14.1959 32.0455V37.5H15.034V34.0909C15.034 33.8234 15.0908 33.5878 15.2045 33.3842C15.3205 33.1783 15.472 33.0173 15.659 32.9013C15.8484 32.7853 16.052 32.7273 16.2698 32.7273C16.587 32.7273 16.8463 32.8232 17.0475 33.0149C17.2487 33.2043 17.3493 33.4541 17.3493 33.7642V37.5H18.2016V33.9489C18.2016 33.5961 18.307 33.3049 18.5177 33.0753C18.7284 32.8433 19.0255 32.7273 19.409 32.7273C19.7073 32.7273 19.9665 32.8137 20.1867 32.9865C20.4069 33.1593 20.517 33.447 20.517 33.8494V37.5H21.355V33.8494C21.355 33.2079 21.2 32.7356 20.8898 32.4325C20.5797 32.1271 20.1808 31.9744 19.6931 31.9744C19.3025 31.9744 18.9675 32.0585 18.6881 32.2266C18.4088 32.3923 18.1992 32.616 18.0596 32.8977H18.0028C17.8678 32.6065 17.6796 32.3804 17.4381 32.2195C17.199 32.0561 16.8995 31.9744 16.5397 31.9744C16.1846 31.9744 15.8804 32.0561 15.627 32.2195C15.3737 32.3804 15.1903 32.6065 15.0766 32.8977H15.0056V32.0455H14.1959Z" fill="#CFD1DE"/>
<path fill-rule="evenodd" clip-rule="evenodd" d="M23.8142 37.2656C24.1953 37.4976 24.6487 37.6136 25.1743 37.6136C25.5436 37.6136 25.8762 37.5568 26.1721 37.4432C26.4681 37.3272 26.7167 37.1662 26.9179 36.9602C27.1191 36.7519 27.2623 36.5104 27.3476 36.2358L26.5379 36.0085C26.4669 36.1979 26.3663 36.3565 26.2361 36.4844C26.1059 36.6098 25.9508 36.7045 25.7709 36.7685C25.5933 36.83 25.3944 36.8608 25.1743 36.8608C24.8357 36.8608 24.5386 36.7874 24.2829 36.6406C24.0273 36.4915 23.8272 36.2749 23.6828 35.9908C23.554 35.731 23.4836 35.4197 23.4716 35.0568H27.4328V34.7017C27.4328 34.1927 27.3653 33.7642 27.2304 33.4162C27.0954 33.0682 26.9143 32.7888 26.6871 32.5781C26.4598 32.3651 26.2077 32.2112 25.9307 32.1165C25.6537 32.0218 25.3731 31.9744 25.089 31.9744C24.5966 31.9744 24.1658 32.0952 23.7964 32.3366C23.4295 32.5758 23.143 32.9096 22.9371 33.3381C22.7335 33.7642 22.6317 34.2566 22.6317 34.8153C22.6317 35.3741 22.7335 35.8641 22.9371 36.2855C23.143 36.7045 23.4354 37.0312 23.8142 37.2656ZM23.4737 34.3324C23.4897 34.0794 23.5535 33.8403 23.665 33.6151C23.7952 33.3523 23.9811 33.1392 24.2226 32.9759C24.4664 32.8101 24.7552 32.7273 25.089 32.7273C25.3921 32.7273 25.6549 32.7971 25.8774 32.9368C26.1023 33.0765 26.2751 33.267 26.3959 33.5085C26.519 33.75 26.5805 34.0246 26.5805 34.3324H23.4737Z" fill="#CFD1DE"/>
</svg>
