<svg width="28" height="38" viewBox="0 0 28 38" fill="none" xmlns="http://www.w3.org/2000/svg">
<path fill-rule="evenodd" clip-rule="evenodd" d="M14.5995 0.196962C14.2428 -0.0656538 13.7568 -0.0656538 13.4002 0.196962L4.5221 6.73445C3.48675 7.49685 2.8755 8.70605 2.8755 9.99182V20.7317C2.8755 22.6866 4.46021 24.2713 6.41506 24.2713H9.95462C11.0717 24.2713 11.9772 23.3657 11.9772 22.2487V16.6865H16.0224V22.2487C16.0224 23.3657 16.928 24.2713 18.045 24.2713H21.5846C23.5394 24.2713 25.1242 22.6866 25.1242 20.7317V9.99182C25.1242 8.70605 24.5129 7.49685 23.4776 6.73445L14.5995 0.196962ZM5.7214 8.36313L13.9998 2.26721L22.2782 8.36313C22.7959 8.74433 23.1016 9.34893 23.1016 9.99182V20.7317C23.1016 21.5695 22.4224 22.2487 21.5846 22.2487H18.045V16.1808C18.045 15.3431 17.3659 14.6639 16.5281 14.6639H11.4716C10.6338 14.6639 9.95462 15.3431 9.95462 16.1808V22.2487H6.41506C5.57727 22.2487 4.8981 21.5695 4.8981 20.7317V9.99182C4.8981 9.34893 5.20373 8.74433 5.7214 8.36313Z" fill="#CFD1DE"/>
<path d="M0.940186 29.7273V37H1.82087V33.7472H5.69871V37H6.57939V29.7273H5.69871V32.9659H1.82087V29.7273H0.940186Z" fill="#CFD1DE"/>
<path fill-rule="evenodd" clip-rule="evenodd" d="M9.14864 36.7621C9.52032 36.9964 9.95238 37.1136 10.4448 37.1136C10.9372 37.1136 11.3681 36.9964 11.7374 36.7621C12.1091 36.5277 12.3979 36.1998 12.6039 35.7784C12.8122 35.357 12.9164 34.8646 12.9164 34.3011C12.9164 33.733 12.8122 33.237 12.6039 32.8132C12.3979 32.3894 12.1091 32.0604 11.7374 31.826C11.3681 31.5916 10.9372 31.4744 10.4448 31.4744C9.95238 31.4744 9.52032 31.5916 9.14864 31.826C8.77932 32.0604 8.4905 32.3894 8.28216 32.8132C8.0762 33.237 7.97321 33.733 7.97321 34.3011C7.97321 34.8646 8.0762 35.357 8.28216 35.7784C8.4905 36.1998 8.77932 36.5277 9.14864 36.7621ZM11.3681 36.0732C11.1266 36.2649 10.8189 36.3608 10.4448 36.3608C10.0708 36.3608 9.76299 36.2649 9.52151 36.0732C9.28003 35.8814 9.10129 35.6293 8.98529 35.3168C8.86928 35.0043 8.81128 34.6657 8.81128 34.3011C8.81128 33.9366 8.86928 33.5968 8.98529 33.282C9.10129 32.9671 9.28003 32.7126 9.52151 32.5185C9.76299 32.3243 10.0708 32.2273 10.4448 32.2273C10.8189 32.2273 11.1266 32.3243 11.3681 32.5185C11.6096 32.7126 11.7883 32.9671 11.9043 33.282C12.0203 33.5968 12.0783 33.9366 12.0783 34.3011C12.0783 34.6657 12.0203 35.0043 11.9043 35.3168C11.7883 35.6293 11.6096 35.8814 11.3681 36.0732Z" fill="#CFD1DE"/>
<path d="M14.1957 31.5455V37H15.0338V33.5909C15.0338 33.3234 15.0906 33.0878 15.2042 32.8842C15.3202 32.6783 15.4717 32.5173 15.6588 32.4013C15.8482 32.2853 16.0518 32.2273 16.2696 32.2273C16.5868 32.2273 16.846 32.3232 17.0473 32.5149C17.2485 32.7043 17.3491 32.9541 17.3491 33.2642V37H18.2014V33.4489C18.2014 33.0961 18.3067 32.8049 18.5174 32.5753C18.7281 32.3433 19.0252 32.2273 19.4088 32.2273C19.7071 32.2273 19.9663 32.3137 20.1865 32.4865C20.4066 32.6593 20.5167 32.947 20.5167 33.3494V37H21.3548V33.3494C21.3548 32.7079 21.1997 32.2356 20.8896 31.9325C20.5795 31.6271 20.1805 31.4744 19.6929 31.4744C19.3022 31.4744 18.9672 31.5585 18.6879 31.7266C18.4085 31.8923 18.199 32.116 18.0593 32.3977H18.0025C17.8676 32.1065 17.6794 31.8804 17.4379 31.7195C17.1988 31.5561 16.8993 31.4744 16.5394 31.4744C16.1843 31.4744 15.8801 31.5561 15.6268 31.7195C15.3735 31.8804 15.19 32.1065 15.0764 32.3977H15.0054V31.5455H14.1957Z" fill="#CFD1DE"/>
<path fill-rule="evenodd" clip-rule="evenodd" d="M23.8139 36.7656C24.1951 36.9976 24.6485 37.1136 25.174 37.1136C25.5433 37.1136 25.876 37.0568 26.1719 36.9432C26.4678 36.8272 26.7164 36.6662 26.9176 36.4602C27.1189 36.2519 27.2621 36.0104 27.3473 35.7358L26.5377 35.5085C26.4666 35.6979 26.366 35.8565 26.2358 35.9844C26.1056 36.1098 25.9505 36.2045 25.7706 36.2685C25.5931 36.33 25.3942 36.3608 25.174 36.3608C24.8355 36.3608 24.5384 36.2874 24.2827 36.1406C24.027 35.9915 23.827 35.7749 23.6826 35.4908C23.5538 35.231 23.4834 34.9197 23.4713 34.5568H27.4326V34.2017C27.4326 33.6927 27.3651 33.2642 27.2301 32.9162C27.0952 32.5682 26.9141 32.2888 26.6868 32.0781C26.4595 31.8651 26.2074 31.7112 25.9304 31.6165C25.6534 31.5218 25.3729 31.4744 25.0888 31.4744C24.5964 31.4744 24.1655 31.5952 23.7962 31.8366C23.4292 32.0758 23.1428 32.4096 22.9368 32.8381C22.7332 33.2642 22.6314 33.7566 22.6314 34.3153C22.6314 34.8741 22.7332 35.3641 22.9368 35.7855C23.1428 36.2045 23.4352 36.5312 23.8139 36.7656ZM23.4735 33.8324C23.4894 33.5794 23.5532 33.3403 23.6648 33.1151C23.795 32.8523 23.9808 32.6392 24.2223 32.4759C24.4662 32.3101 24.755 32.2273 25.0888 32.2273C25.3918 32.2273 25.6546 32.2971 25.8772 32.4368C26.1021 32.5765 26.2749 32.767 26.3956 33.0085C26.5187 33.25 26.5803 33.5246 26.5803 33.8324H23.4735Z" fill="#CFD1DE"/>
</svg>
