<svg width="27" height="38" viewBox="0 0 27 38" fill="none" xmlns="http://www.w3.org/2000/svg">
<path fill-rule="evenodd" clip-rule="evenodd" d="M13.707 0.894227C13.3503 0.631612 12.8643 0.631612 12.5077 0.894227L3.62958 7.43172C2.59423 8.19412 1.98298 9.40331 1.98298 10.6891V21.429C1.98298 23.3838 3.5677 24.9685 5.52254 24.9685H9.0621C10.1792 24.9685 11.0847 24.063 11.0847 22.9459V17.3838H15.1299V22.9459C15.1299 24.063 16.0355 24.9685 17.1525 24.9685H20.6921C22.6469 24.9685 24.2316 23.3838 24.2316 21.429V10.6891C24.2316 9.40331 23.6204 8.19411 22.585 7.43172L13.707 0.894227ZM4.82889 9.0604L13.1073 2.96447L21.3857 9.0604C21.9034 9.4416 22.209 10.0462 22.209 10.6891V21.429C22.209 22.2668 21.5299 22.9459 20.6921 22.9459H17.1525V16.8781C17.1525 16.0403 16.4734 15.3612 15.6356 15.3612H10.5791C9.74126 15.3612 9.0621 16.0403 9.0621 16.8781V22.9459H5.52254C4.68475 22.9459 4.00558 22.2668 4.00558 21.429V10.6891C4.00558 10.0462 4.31121 9.4416 4.82889 9.0604Z" fill="#CFD1DE"/>
<path d="M0.0476685 30.4245V37.6973H0.928352V34.4444H4.80619V37.6973H5.68688V30.4245H4.80619V33.6632H0.928352V30.4245H0.0476685Z" fill="#CFD1DE"/>
<path fill-rule="evenodd" clip-rule="evenodd" d="M8.25612 37.4593C8.62781 37.6937 9.05986 37.8109 9.55229 37.8109C10.0447 37.8109 10.4756 37.6937 10.8449 37.4593C11.2166 37.225 11.5054 36.8971 11.7114 36.4757C11.9197 36.0543 12.0239 35.5618 12.0239 34.9984C12.0239 34.4302 11.9197 33.9342 11.7114 33.5105C11.5054 33.0867 11.2166 32.7576 10.8449 32.5233C10.4756 32.2889 10.0447 32.1717 9.55229 32.1717C9.05986 32.1717 8.62781 32.2889 8.25612 32.5233C7.8868 32.7576 7.59798 33.0867 7.38964 33.5105C7.18368 33.9342 7.0807 34.4302 7.0807 34.9984C7.0807 35.5618 7.18368 36.0543 7.38964 36.4757C7.59798 36.8971 7.8868 37.225 8.25612 37.4593ZM10.4756 36.7704C10.2341 36.9622 9.92634 37.0581 9.55229 37.0581C9.17823 37.0581 8.87047 36.9622 8.62899 36.7704C8.38751 36.5787 8.20877 36.3265 8.09277 36.014C7.97677 35.7015 7.91876 35.363 7.91876 34.9984C7.91876 34.6338 7.97677 34.2941 8.09277 33.9792C8.20877 33.6644 8.38751 33.4099 8.62899 33.2157C8.87047 33.0216 9.17823 32.9245 9.55229 32.9245C9.92634 32.9245 10.2341 33.0216 10.4756 33.2157C10.7171 33.4099 10.8958 33.6644 11.0118 33.9792C11.1278 34.2941 11.1858 34.6338 11.1858 34.9984C11.1858 35.363 11.1278 35.7015 11.0118 36.014C10.8958 36.3265 10.7171 36.5787 10.4756 36.7704Z" fill="#CFD1DE"/>
<path d="M13.3032 32.2427V37.6973H14.1412V34.2882C14.1412 34.0207 14.1981 33.7851 14.3117 33.5815C14.4277 33.3755 14.5792 33.2145 14.7662 33.0985C14.9556 32.9825 15.1592 32.9245 15.377 32.9245C15.6943 32.9245 15.9535 33.0204 16.1547 33.2122C16.356 33.4016 16.4566 33.6513 16.4566 33.9615V37.6973H17.3089V34.1461C17.3089 33.7934 17.4142 33.5022 17.6249 33.2725C17.8356 33.0405 18.1327 32.9245 18.5162 32.9245C18.8145 32.9245 19.0738 33.0109 19.2939 33.1838C19.5141 33.3566 19.6242 33.6442 19.6242 34.0467V37.6973H20.4623V34.0467C20.4623 33.4051 20.3072 32.9328 19.9971 32.6298C19.6869 32.3244 19.288 32.1717 18.8003 32.1717C18.4097 32.1717 18.0747 32.2557 17.7954 32.4238C17.516 32.5895 17.3065 32.8133 17.1668 33.095H17.11C16.975 32.8038 16.7868 32.5777 16.5454 32.4167C16.3063 32.2534 16.0068 32.1717 15.6469 32.1717C15.2918 32.1717 14.9876 32.2534 14.7343 32.4167C14.481 32.5777 14.2975 32.8038 14.1839 33.095H14.1128V32.2427H13.3032Z" fill="#CFD1DE"/>
<path fill-rule="evenodd" clip-rule="evenodd" d="M22.9214 37.4629C23.3026 37.6949 23.7559 37.8109 24.2815 37.8109C24.6508 37.8109 24.9835 37.7541 25.2794 37.6404C25.5753 37.5244 25.8239 37.3635 26.0251 37.1575C26.2264 36.9492 26.3696 36.7077 26.4548 36.4331L25.6451 36.2058C25.5741 36.3952 25.4735 36.5538 25.3433 36.6816C25.2131 36.8071 25.058 36.9018 24.8781 36.9657C24.7005 37.0273 24.5017 37.0581 24.2815 37.0581C23.943 37.0581 23.6459 36.9847 23.3902 36.8379C23.1345 36.6887 22.9344 36.4721 22.79 36.188C22.6612 35.9283 22.5908 35.617 22.5788 35.2541H26.54V34.899C26.54 34.39 26.4726 33.9615 26.3376 33.6135C26.2027 33.2654 26.0216 32.9861 25.7943 32.7754C25.567 32.5623 25.3149 32.4084 25.0379 32.3137C24.7609 32.219 24.4804 32.1717 24.1963 32.1717C23.7039 32.1717 23.273 32.2924 22.9037 32.5339C22.5367 32.773 22.2503 33.1068 22.0443 33.5353C21.8407 33.9615 21.7389 34.4539 21.7389 35.0126C21.7389 35.5713 21.8407 36.0614 22.0443 36.4828C22.2503 36.9018 22.5426 37.2285 22.9214 37.4629ZM22.581 34.5297C22.5969 34.2766 22.6607 34.0375 22.7723 33.8123C22.9025 33.5495 23.0883 33.3365 23.3298 33.1731C23.5737 33.0074 23.8625 32.9245 24.1963 32.9245C24.4993 32.9245 24.7621 32.9944 24.9846 33.1341C25.2095 33.2737 25.3824 33.4643 25.5031 33.7058C25.6262 33.9473 25.6878 34.2219 25.6878 34.5297H22.581Z" fill="#CFD1DE"/>
</svg>
