<svg width="47" height="40" viewBox="0 0 47 40" fill="none" xmlns="http://www.w3.org/2000/svg">
<path fill-rule="evenodd" clip-rule="evenodd" d="M29.0686 2.43667H28.896C28.4795 1.25831 27.3557 0.414062 26.0347 0.414062H19.9669C18.6459 0.414062 17.5221 1.25831 17.1056 2.43667H16.933C14.6989 2.43667 12.8878 4.24777 12.8878 6.48188V20.6401C12.8878 22.8742 14.6989 24.6853 16.933 24.6853H29.0686C31.3027 24.6853 33.1138 22.8742 33.1138 20.6401V6.48188C33.1138 4.24777 31.3027 2.43667 29.0686 2.43667ZM14.9104 6.48188C14.9104 5.36482 15.8159 4.45927 16.933 4.45927C16.933 6.13485 18.2913 7.49318 19.9669 7.49318H26.0347C27.7103 7.49318 29.0686 6.13486 29.0686 4.45927C30.1857 4.45927 31.0912 5.36483 31.0912 6.48188V20.6401C31.0912 21.7572 30.1857 22.6627 29.0686 22.6627H16.933C15.8159 22.6627 14.9104 21.7572 14.9104 20.6401V6.48188ZM19.9669 2.43667C19.4084 2.43667 18.9556 2.88944 18.9556 3.44797V4.45927C18.9556 5.0178 19.4084 5.47058 19.9669 5.47058H26.0347C26.5932 5.47058 27.046 5.0178 27.046 4.45927V3.44797C27.046 2.88944 26.5932 2.43667 26.0347 2.43667H19.9669Z" fill="#CFD1DE"/>
<path fill-rule="evenodd" clip-rule="evenodd" d="M0.272217 30.1413V37.4141H1.1529V34.7578H2.74381C3.30962 34.7578 3.77364 34.6548 4.13585 34.4489C4.49807 34.2405 4.76559 33.9612 4.93841 33.6108C5.1136 33.2604 5.20119 32.871 5.20119 32.4425C5.20119 32.014 5.1136 31.6257 4.93841 31.2777C4.76322 30.9297 4.49333 30.6539 4.12875 30.4503C3.76653 30.2443 3.30015 30.1413 2.7296 30.1413H0.272217ZM1.1529 33.9766H2.7154C3.10602 33.9766 3.41971 33.9091 3.65645 33.7741C3.89319 33.6392 4.06483 33.4569 4.17136 33.2273C4.28027 32.9953 4.33472 32.7337 4.33472 32.4425C4.33472 32.1513 4.28027 31.8909 4.17136 31.6612C4.06483 31.4316 3.89201 31.2517 3.6529 31.1214C3.41379 30.9889 3.09655 30.9226 2.70119 30.9226H1.1529V33.9766Z" fill="#CFD1DE"/>
<path d="M6.50624 31.9595V37.4141H7.34431V33.9624C7.34431 33.7161 7.40349 33.4972 7.52186 33.3054C7.6426 33.1113 7.80595 32.9598 8.01192 32.8509C8.22025 32.7396 8.45699 32.6839 8.72215 32.6839C8.83342 32.6839 8.93877 32.6922 9.0382 32.7088C9.14 32.723 9.2051 32.7337 9.23351 32.7408V31.8885C9.18616 31.8838 9.11632 31.8802 9.02399 31.8778C8.93166 31.8755 8.85472 31.8743 8.79317 31.8743C8.46646 31.8743 8.1729 31.9583 7.91249 32.1264C7.65207 32.2945 7.47215 32.5135 7.37271 32.7834H7.3159V31.9595H6.50624Z" fill="#CFD1DE"/>
<path fill-rule="evenodd" clip-rule="evenodd" d="M10.9807 37.1761C11.3524 37.4105 11.7844 37.5277 12.2768 37.5277C12.7693 37.5277 13.2001 37.4105 13.5694 37.1761C13.9411 36.9418 14.23 36.6139 14.4359 36.1925C14.6443 35.7711 14.7484 35.2786 14.7484 34.7152C14.7484 34.147 14.6443 33.651 14.4359 33.2273C14.23 32.8035 13.9411 32.4744 13.5694 32.2401C13.2001 32.0057 12.7693 31.8885 12.2768 31.8885C11.7844 31.8885 11.3524 32.0057 10.9807 32.2401C10.6114 32.4744 10.3225 32.8035 10.1142 33.2273C9.90823 33.651 9.80524 34.147 9.80524 34.7152C9.80524 35.2786 9.90823 35.7711 10.1142 36.1925C10.3225 36.6139 10.6114 36.9418 10.9807 37.1761ZM13.2001 36.4872C12.9587 36.679 12.6509 36.7749 12.2768 36.7749C11.9028 36.7749 11.595 36.679 11.3535 36.4872C11.1121 36.2955 10.9333 36.0433 10.8173 35.7308C10.7013 35.4183 10.6433 35.0798 10.6433 34.7152C10.6433 34.3506 10.7013 34.0109 10.8173 33.696C10.9333 33.3812 11.1121 33.1267 11.3535 32.9325C11.595 32.7384 11.9028 32.6413 12.2768 32.6413C12.6509 32.6413 12.9587 32.7384 13.2001 32.9325C13.4416 33.1267 13.6203 33.3812 13.7364 33.696C13.8524 34.0109 13.9104 34.3506 13.9104 34.7152C13.9104 35.0798 13.8524 35.4183 13.7364 35.7308C13.6203 36.0433 13.4416 36.2955 13.2001 36.4872Z" fill="#CFD1DE"/>
<path d="M15.9922 39.424C16.1035 39.4477 16.2301 39.4595 16.3722 39.4595C16.6255 39.4595 16.8528 39.4145 17.054 39.3246C17.2576 39.2346 17.4363 39.0961 17.5902 38.9091C17.7441 38.7244 17.8731 38.4912 17.9773 38.2095L20.2926 31.9595H19.3835L17.8779 36.3061H17.821L16.3154 31.9595H15.4063L17.4233 37.4425L17.2671 37.8686C17.1653 38.1456 17.0528 38.3456 16.9297 38.4688C16.809 38.5942 16.6705 38.6641 16.5142 38.6783C16.358 38.6925 16.1781 38.6735 15.9745 38.6214L15.7614 39.3601C15.804 39.3814 15.8809 39.4027 15.9922 39.424Z" fill="#CFD1DE"/>
<path fill-rule="evenodd" clip-rule="evenodd" d="M22.1303 37.1797C22.5115 37.4117 22.9649 37.5277 23.4904 37.5277C23.8598 37.5277 24.1924 37.4709 24.4883 37.3572C24.7842 37.2412 25.0328 37.0803 25.234 36.8743C25.4353 36.666 25.5785 36.4245 25.6637 36.1499L24.8541 35.9226C24.783 36.112 24.6824 36.2706 24.5522 36.3984C24.422 36.5239 24.2669 36.6186 24.087 36.6825C23.9095 36.7441 23.7106 36.7749 23.4904 36.7749C23.1519 36.7749 22.8548 36.7015 22.5991 36.5547C22.3434 36.4055 22.1434 36.1889 21.999 35.9048C21.8702 35.6451 21.7998 35.3338 21.7877 34.9709H25.749V34.6158C25.749 34.1068 25.6815 33.6783 25.5465 33.3303C25.4116 32.9822 25.2305 32.7029 25.0032 32.4922C24.7759 32.2791 24.5238 32.1252 24.2468 32.0305C23.9698 31.9358 23.6893 31.8885 23.4052 31.8885C22.9128 31.8885 22.4819 32.0092 22.1126 32.2507C21.7456 32.4898 21.4592 32.8236 21.2532 33.2521C21.0496 33.6783 20.9478 34.1707 20.9478 34.7294C20.9478 35.2881 21.0496 35.7782 21.2532 36.1996C21.4592 36.6186 21.7516 36.9453 22.1303 37.1797ZM21.7899 34.2464C21.8058 33.9934 21.8696 33.7543 21.9812 33.5291C22.1114 33.2663 22.2973 33.0533 22.5387 32.8899C22.7826 32.7242 23.0714 32.6413 23.4052 32.6413C23.7082 32.6413 23.971 32.7112 24.1936 32.8509C24.4185 32.9905 24.5913 33.1811 24.712 33.4226C24.8351 33.6641 24.8967 33.9387 24.8967 34.2464H21.7899Z" fill="#CFD1DE"/>
<path d="M27.9187 37.1655C28.288 37.407 28.7284 37.5277 29.2397 37.5277C29.6422 37.5277 29.9949 37.4531 30.298 37.304C30.6034 37.1525 30.8484 36.9489 31.033 36.6932C31.2201 36.4351 31.3373 36.1451 31.3846 35.8232H30.5465C30.4945 36.022 30.4069 36.1925 30.2838 36.3345C30.1607 36.4766 30.0103 36.5855 29.8328 36.6612C29.6552 36.737 29.4575 36.7749 29.2397 36.7749C28.9083 36.7749 28.6195 36.6884 28.3732 36.5156C28.1294 36.3428 27.94 36.1001 27.8051 35.7876C27.6725 35.4751 27.6062 35.1082 27.6062 34.6868C27.6062 34.2749 27.6737 33.9162 27.8086 33.6108C27.9459 33.303 28.1365 33.0651 28.3803 32.897C28.6266 32.7266 28.913 32.6413 29.2397 32.6413C29.609 32.6413 29.9026 32.7384 30.1204 32.9325C30.3406 33.1243 30.4826 33.3445 30.5465 33.593H31.3846C31.3373 33.2521 31.2153 32.9538 31.0188 32.6982C30.8223 32.4425 30.5702 32.2436 30.2625 32.1016C29.9547 31.9595 29.609 31.8885 29.2255 31.8885C28.7331 31.8885 28.3022 32.0092 27.9329 32.2507C27.566 32.4898 27.2795 32.8224 27.0735 33.2486C26.8699 33.6723 26.7681 34.1612 26.7681 34.7152C26.7681 35.2597 26.8676 35.7438 27.0664 36.1676C27.2653 36.5914 27.5494 36.924 27.9187 37.1655Z" fill="#CFD1DE"/>
<path d="M34.9819 32.6697V31.9595H33.8171V30.6527H32.9791V31.9595H32.1552V32.6697H32.9791V36.0788C32.9791 36.3961 33.0525 36.6589 33.1992 36.8672C33.3484 37.0755 33.5354 37.2306 33.7603 37.3324C33.9876 37.4342 34.2196 37.4851 34.4563 37.4851C34.6126 37.4851 34.7416 37.4732 34.8434 37.4496C34.9452 37.4283 35.0245 37.407 35.0813 37.3857L34.9109 36.6328L34.7688 36.6612C34.7097 36.6707 34.6339 36.6754 34.5416 36.6754C34.4185 36.6754 34.3013 36.6565 34.19 36.6186C34.0811 36.5784 33.9911 36.5002 33.9201 36.3842C33.8515 36.2659 33.8171 36.0883 33.8171 35.8516V32.6697H34.9819Z" fill="#CFD1DE"/>
<path fill-rule="evenodd" clip-rule="evenodd" d="M37.1037 37.1761C37.4754 37.4105 37.9075 37.5277 38.3999 37.5277C38.8923 37.5277 39.3232 37.4105 39.6925 37.1761C40.0642 36.9418 40.353 36.6139 40.559 36.1925C40.7673 35.7711 40.8715 35.2786 40.8715 34.7152C40.8715 34.147 40.7673 33.651 40.559 33.2273C40.353 32.8035 40.0642 32.4744 39.6925 32.2401C39.3232 32.0057 38.8923 31.8885 38.3999 31.8885C37.9075 31.8885 37.4754 32.0057 37.1037 32.2401C36.7344 32.4744 36.4456 32.8035 36.2372 33.2273C36.0313 33.651 35.9283 34.147 35.9283 34.7152C35.9283 35.2786 36.0313 35.7711 36.2372 36.1925C36.4456 36.6139 36.7344 36.9418 37.1037 37.1761ZM39.3232 36.4872C39.0817 36.679 38.7739 36.7749 38.3999 36.7749C38.0258 36.7749 37.7181 36.679 37.4766 36.4872C37.2351 36.2955 37.0564 36.0433 36.9404 35.7308C36.8244 35.4183 36.7664 35.0798 36.7664 34.7152C36.7664 34.3506 36.8244 34.0109 36.9404 33.696C37.0564 33.3812 37.2351 33.1267 37.4766 32.9325C37.7181 32.7384 38.0258 32.6413 38.3999 32.6413C38.7739 32.6413 39.0817 32.7384 39.3232 32.9325C39.5647 33.1267 39.7434 33.3812 39.8594 33.696C39.9754 34.0109 40.0334 34.3506 40.0334 34.7152C40.0334 35.0798 39.9754 35.4183 39.8594 35.7308C39.7434 36.0433 39.5647 36.2955 39.3232 36.4872Z" fill="#CFD1DE"/>
<path d="M45.2616 33.3942L46.0144 33.1811C45.8842 32.7929 45.664 32.4804 45.3539 32.2436C45.0461 32.0069 44.6224 31.8885 44.0826 31.8885C43.6991 31.8885 43.3558 31.956 43.0528 32.0909C42.7521 32.2259 42.5142 32.4117 42.339 32.6484C42.1662 32.8852 42.0797 33.1574 42.0797 33.4652C42.0797 33.8416 42.1957 34.1553 42.4278 34.4062C42.6621 34.6548 43.0291 34.8383 43.5286 34.9567L44.4377 35.1697C44.7123 35.2337 44.9159 35.3307 45.0485 35.4609C45.1811 35.5888 45.2474 35.7474 45.2474 35.9368C45.2474 36.1712 45.1314 36.3724 44.8993 36.5405C44.6697 36.7062 44.3596 36.7891 43.9689 36.7891C43.6257 36.7891 43.3475 36.7157 43.1344 36.5689C42.9237 36.4221 42.7805 36.2019 42.7047 35.9084L41.9093 36.1072C42.0064 36.5713 42.2372 36.924 42.6018 37.1655C42.9663 37.407 43.4268 37.5277 43.9832 37.5277C44.4069 37.5277 44.7786 37.4567 45.0982 37.3146C45.4178 37.1726 45.6664 36.9785 45.8439 36.7322C46.0239 36.486 46.1138 36.2067 46.1138 35.8942C46.1138 35.513 45.9943 35.2017 45.7552 34.9602C45.5161 34.7164 45.1527 34.5353 44.665 34.4169L43.8553 34.218C43.5333 34.1375 43.2966 34.0369 43.1451 33.9162C42.9936 33.7955 42.9178 33.6309 42.9178 33.4226C42.9178 33.1882 43.0279 32.9953 43.2481 32.8438C43.4706 32.6899 43.7488 32.6129 44.0826 32.6129C44.3264 32.6129 44.5265 32.652 44.6827 32.7301C44.839 32.8082 44.9621 32.9077 45.052 33.0284C45.1444 33.1468 45.2142 33.2687 45.2616 33.3942Z" fill="#CFD1DE"/>
</svg>
