<svg width="47" height="40" viewBox="0 0 47 40" fill="none" xmlns="http://www.w3.org/2000/svg">
<path fill-rule="evenodd" clip-rule="evenodd" d="M29.0677 2.02261H28.8951C28.4786 0.844244 27.3548 0 26.0338 0H19.966C18.645 0 17.5212 0.844243 17.1047 2.02261H16.9321C14.698 2.02261 12.8869 3.8337 12.8869 6.06781V20.2261C12.8869 22.4602 14.698 24.2713 16.9321 24.2713H29.0677C31.3018 24.2713 33.1129 22.4602 33.1129 20.2261V6.06782C33.1129 3.83371 31.3018 2.02261 29.0677 2.02261ZM14.9095 6.06781C14.9095 4.95076 15.815 4.04521 16.9321 4.04521C16.9321 5.72079 18.2904 7.07912 19.966 7.07912H26.0338C27.7094 7.07912 29.0677 5.72079 29.0677 4.04521C30.1848 4.04521 31.0903 4.95076 31.0903 6.06782V20.2261C31.0903 21.3431 30.1848 22.2487 29.0677 22.2487H16.9321C15.815 22.2487 14.9095 21.3431 14.9095 20.2261V6.06781ZM19.966 2.02261C19.4074 2.02261 18.9547 2.47538 18.9547 3.03391V4.04521C18.9547 4.60374 19.4074 5.05651 19.966 5.05651H26.0338C26.5923 5.05651 27.0451 4.60374 27.0451 4.04521V3.03391C27.0451 2.47538 26.5923 2.02261 26.0338 2.02261H19.966Z" fill="#CFD1DE"/>
<path fill-rule="evenodd" clip-rule="evenodd" d="M0.272278 29.7273V37H1.15296V34.3438H2.74387C3.30968 34.3438 3.7737 34.2408 4.13591 34.0348C4.49813 33.8265 4.76565 33.5471 4.93847 33.1967C5.11366 32.8464 5.20126 32.4569 5.20126 32.0284C5.20126 31.5999 5.11366 31.2116 4.93847 30.8636C4.76328 30.5156 4.4934 30.2398 4.12881 30.0362C3.7666 29.8303 3.30021 29.7273 2.72966 29.7273H0.272278ZM1.15296 33.5625H2.71546C3.10608 33.5625 3.41977 33.495 3.65651 33.3601C3.89325 33.2251 4.06489 33.0429 4.17143 32.8132C4.28033 32.5812 4.33478 32.3196 4.33478 32.0284C4.33478 31.7372 4.28033 31.4768 4.17143 31.2472C4.06489 31.0175 3.89207 30.8376 3.65296 30.7074C3.41385 30.5748 3.09661 30.5085 2.70125 30.5085H1.15296V33.5625Z" fill="#CFD1DE"/>
<path d="M6.5063 31.5455V37H7.34437V33.5483C7.34437 33.3021 7.40355 33.0831 7.52192 32.8913C7.64266 32.6972 7.80601 32.5457 8.01198 32.4368C8.22031 32.3255 8.45706 32.2699 8.72221 32.2699C8.83348 32.2699 8.93883 32.2782 9.03826 32.2947C9.14006 32.3089 9.20516 32.3196 9.23357 32.3267V31.4744C9.18622 31.4697 9.11638 31.4661 9.02405 31.4638C8.93172 31.4614 8.85478 31.4602 8.79323 31.4602C8.46653 31.4602 8.17296 31.5443 7.91255 31.7124C7.65213 31.8804 7.47221 32.0994 7.37278 32.3693H7.31596V31.5455H6.5063Z" fill="#CFD1DE"/>
<path fill-rule="evenodd" clip-rule="evenodd" d="M10.9807 36.7621C11.3524 36.9964 11.7845 37.1136 12.2769 37.1136C12.7693 37.1136 13.2002 36.9964 13.5695 36.7621C13.9412 36.5277 14.23 36.1998 14.436 35.7784C14.6443 35.357 14.7485 34.8646 14.7485 34.3011C14.7485 33.733 14.6443 33.237 14.436 32.8132C14.23 32.3894 13.9412 32.0604 13.5695 31.826C13.2002 31.5916 12.7693 31.4744 12.2769 31.4744C11.7845 31.4744 11.3524 31.5916 10.9807 31.826C10.6114 32.0604 10.3226 32.3894 10.1143 32.8132C9.90829 33.237 9.8053 33.733 9.8053 34.3011C9.8053 34.8646 9.90829 35.357 10.1143 35.7784C10.3226 36.1998 10.6114 36.5277 10.9807 36.7621ZM13.2002 36.0732C12.9587 36.2649 12.6509 36.3608 12.2769 36.3608C11.9028 36.3608 11.5951 36.2649 11.3536 36.0732C11.1121 35.8814 10.9334 35.6293 10.8174 35.3168C10.7014 35.0043 10.6434 34.6657 10.6434 34.3011C10.6434 33.9366 10.7014 33.5968 10.8174 33.282C10.9334 32.9671 11.1121 32.7126 11.3536 32.5185C11.5951 32.3243 11.9028 32.2273 12.2769 32.2273C12.6509 32.2273 12.9587 32.3243 13.2002 32.5185C13.4417 32.7126 13.6204 32.9671 13.7364 33.282C13.8524 33.5968 13.9104 33.9366 13.9104 34.3011C13.9104 34.6657 13.8524 35.0043 13.7364 35.3168C13.6204 35.6293 13.4417 35.8814 13.2002 36.0732Z" fill="#CFD1DE"/>
<path d="M15.9923 39.0099C16.1035 39.0336 16.2302 39.0455 16.3722 39.0455C16.6256 39.0455 16.8528 39.0005 17.0541 38.9105C17.2577 38.8205 17.4364 38.6821 17.5903 38.495C17.7442 38.3104 17.8732 38.0772 17.9774 37.7955L20.2927 31.5455H19.3836L17.8779 35.892H17.8211L16.3154 31.5455H15.4063L17.4234 37.0284L17.2671 37.4545C17.1653 37.7315 17.0529 37.9316 16.9298 38.0547C16.809 38.1802 16.6705 38.25 16.5143 38.2642C16.358 38.2784 16.1781 38.2595 15.9745 38.2074L15.7614 38.946C15.8041 38.9673 15.881 38.9886 15.9923 39.0099Z" fill="#CFD1DE"/>
<path fill-rule="evenodd" clip-rule="evenodd" d="M22.1304 36.7656C22.5116 36.9976 22.9649 37.1136 23.4905 37.1136C23.8598 37.1136 24.1924 37.0568 24.4884 36.9432C24.7843 36.8272 25.0329 36.6662 25.2341 36.4602C25.4353 36.2519 25.5786 36.0104 25.6638 35.7358L24.8541 35.5085C24.7831 35.6979 24.6825 35.8565 24.5523 35.9844C24.4221 36.1098 24.267 36.2045 24.0871 36.2685C23.9095 36.33 23.7107 36.3608 23.4905 36.3608C23.152 36.3608 22.8548 36.2874 22.5992 36.1406C22.3435 35.9915 22.1434 35.7749 21.999 35.4908C21.8702 35.231 21.7998 34.9197 21.7878 34.5568H25.749V34.2017C25.749 33.6927 25.6815 33.2642 25.5466 32.9162C25.4117 32.5682 25.2306 32.2888 25.0033 32.0781C24.776 31.8651 24.5239 31.7112 24.2469 31.6165C23.9699 31.5218 23.6894 31.4744 23.4053 31.4744C22.9128 31.4744 22.482 31.5952 22.1127 31.8366C21.7457 32.0758 21.4592 32.4096 21.2533 32.8381C21.0497 33.2642 20.9479 33.7566 20.9479 34.3153C20.9479 34.8741 21.0497 35.3641 21.2533 35.7855C21.4592 36.2045 21.7516 36.5312 22.1304 36.7656ZM21.7899 33.8324C21.8059 33.5794 21.8697 33.3403 21.9813 33.1151C22.1115 32.8523 22.2973 32.6392 22.5388 32.4759C22.7826 32.3101 23.0715 32.2273 23.4053 32.2273C23.7083 32.2273 23.9711 32.2971 24.1936 32.4368C24.4185 32.5765 24.5913 32.767 24.7121 33.0085C24.8352 33.25 24.8967 33.5246 24.8967 33.8324H21.7899Z" fill="#CFD1DE"/>
<path d="M27.9188 36.7514C28.2881 36.9929 28.7284 37.1136 29.2398 37.1136C29.6422 37.1136 29.995 37.0391 30.298 36.8899C30.6034 36.7384 30.8484 36.5348 31.0331 36.2791C31.2201 36.0211 31.3373 35.7311 31.3847 35.4091H30.5466C30.4945 35.608 30.4069 35.7784 30.2838 35.9205C30.1607 36.0625 30.0104 36.1714 29.8328 36.2472C29.6553 36.3229 29.4576 36.3608 29.2398 36.3608C28.9083 36.3608 28.6195 36.2744 28.3733 36.1016C28.1295 35.9287 27.9401 35.6861 27.8051 35.3736C27.6726 35.0611 27.6063 34.6941 27.6063 34.2727C27.6063 33.8608 27.6737 33.5021 27.8087 33.1967C27.946 32.889 28.1366 32.651 28.3804 32.483C28.6266 32.3125 28.9131 32.2273 29.2398 32.2273C29.6091 32.2273 29.9027 32.3243 30.1205 32.5185C30.3406 32.7102 30.4827 32.9304 30.5466 33.179H31.3847C31.3373 32.8381 31.2154 32.5398 31.0189 32.2841C30.8224 32.0284 30.5703 31.8295 30.2625 31.6875C29.9547 31.5455 29.6091 31.4744 29.2256 31.4744C28.7332 31.4744 28.3023 31.5952 27.933 31.8366C27.566 32.0758 27.2796 32.4084 27.0736 32.8345C26.87 33.2583 26.7682 33.7472 26.7682 34.3011C26.7682 34.8456 26.8676 35.3298 27.0665 35.7536C27.2654 36.1773 27.5494 36.5099 27.9188 36.7514Z" fill="#CFD1DE"/>
<path d="M34.982 32.2557V31.5455H33.8172V30.2386H32.9791V31.5455H32.1553V32.2557H32.9791V35.6648C32.9791 35.982 33.0525 36.2448 33.1993 36.4531C33.3484 36.6615 33.5355 36.8165 33.7604 36.9183C33.9877 37.0201 34.2197 37.071 34.4564 37.071C34.6127 37.071 34.7417 37.0592 34.8435 37.0355C34.9453 37.0142 35.0246 36.9929 35.0814 36.9716L34.9109 36.2188L34.7689 36.2472C34.7097 36.2566 34.634 36.2614 34.5416 36.2614C34.4185 36.2614 34.3013 36.2424 34.1901 36.2045C34.0812 36.1643 33.9912 36.0862 33.9202 35.9702C33.8515 35.8518 33.8172 35.6742 33.8172 35.4375V32.2557H34.982Z" fill="#CFD1DE"/>
<path fill-rule="evenodd" clip-rule="evenodd" d="M37.1038 36.7621C37.4755 36.9964 37.9075 37.1136 38.3999 37.1136C38.8924 37.1136 39.3232 36.9964 39.6926 36.7621C40.0642 36.5277 40.3531 36.1998 40.559 35.7784C40.7674 35.357 40.8715 34.8646 40.8715 34.3011C40.8715 33.733 40.7674 33.237 40.559 32.8132C40.3531 32.3894 40.0642 32.0604 39.6926 31.826C39.3232 31.5916 38.8924 31.4744 38.3999 31.4744C37.9075 31.4744 37.4755 31.5916 37.1038 31.826C36.7345 32.0604 36.4456 32.3894 36.2373 32.8132C36.0313 33.237 35.9284 33.733 35.9284 34.3011C35.9284 34.8646 36.0313 35.357 36.2373 35.7784C36.4456 36.1998 36.7345 36.5277 37.1038 36.7621ZM39.3232 36.0732C39.0818 36.2649 38.774 36.3608 38.3999 36.3608C38.0259 36.3608 37.7181 36.2649 37.4766 36.0732C37.2352 35.8814 37.0564 35.6293 36.9404 35.3168C36.8244 35.0043 36.7664 34.6657 36.7664 34.3011C36.7664 33.9366 36.8244 33.5968 36.9404 33.282C37.0564 32.9671 37.2352 32.7126 37.4766 32.5185C37.7181 32.3243 38.0259 32.2273 38.3999 32.2273C38.774 32.2273 39.0818 32.3243 39.3232 32.5185C39.5647 32.7126 39.7435 32.9671 39.8595 33.282C39.9755 33.5968 40.0335 33.9366 40.0335 34.3011C40.0335 34.6657 39.9755 35.0043 39.8595 35.3168C39.7435 35.6293 39.5647 35.8814 39.3232 36.0732Z" fill="#CFD1DE"/>
<path d="M45.2616 32.9801L46.0145 32.767C45.8843 32.3788 45.6641 32.0663 45.354 31.8295C45.0462 31.5928 44.6224 31.4744 44.0826 31.4744C43.6991 31.4744 43.3559 31.5419 43.0528 31.6768C42.7522 31.8118 42.5142 31.9976 42.339 32.2344C42.1662 32.4711 42.0798 32.7434 42.0798 33.0511C42.0798 33.4276 42.1958 33.7412 42.4278 33.9922C42.6622 34.2408 43.0291 34.4242 43.5287 34.5426L44.4378 34.7557C44.7124 34.8196 44.916 34.9167 45.0486 35.0469C45.1811 35.1747 45.2474 35.3333 45.2474 35.5227C45.2474 35.7571 45.1314 35.9583 44.8994 36.1264C44.6698 36.2921 44.3596 36.375 43.969 36.375C43.6257 36.375 43.3476 36.3016 43.1345 36.1548C42.9238 36.008 42.7806 35.7879 42.7048 35.4943L41.9094 35.6932C42.0064 36.1572 42.2372 36.5099 42.6018 36.7514C42.9664 36.9929 43.4269 37.1136 43.9832 37.1136C44.407 37.1136 44.7787 37.0426 45.0983 36.9006C45.4179 36.7585 45.6665 36.5644 45.844 36.3182C46.0239 36.072 46.1139 35.7926 46.1139 35.4801C46.1139 35.099 45.9943 34.7876 45.7552 34.5462C45.5161 34.3023 45.1527 34.1212 44.665 34.0028L43.8554 33.804C43.5334 33.7235 43.2967 33.6229 43.1451 33.5021C42.9936 33.3814 42.9179 33.2169 42.9179 33.0085C42.9179 32.7741 43.028 32.5812 43.2481 32.4297C43.4707 32.2758 43.7488 32.1989 44.0826 32.1989C44.3265 32.1989 44.5265 32.2379 44.6828 32.3161C44.839 32.3942 44.9621 32.4936 45.0521 32.6143C45.1444 32.7327 45.2143 32.8546 45.2616 32.9801Z" fill="#CFD1DE"/>
</svg>
