<svg width="24" height="37" viewBox="0 0 24 37" fill="none" xmlns="http://www.w3.org/2000/svg">
<path fill-rule="evenodd" clip-rule="evenodd" d="M6.93201 6.57954C6.93201 3.22837 9.64866 0.511719 12.9998 0.511719C16.351 0.511719 19.0676 3.22837 19.0676 6.57954C19.0676 9.9307 16.351 12.6474 12.9998 12.6474C9.64866 12.6474 6.93201 9.9307 6.93201 6.57954ZM12.9998 2.53432C10.7657 2.53432 8.95461 4.34543 8.95461 6.57954C8.95461 8.81364 10.7657 10.6247 12.9998 10.6247C15.2339 10.6247 17.045 8.81364 17.045 6.57954C17.045 4.34543 15.2339 2.53432 12.9998 2.53432Z" fill="#CFD1DE"/>
<path d="M12.9998 17.1982C10.6001 17.1982 8.32632 17.7313 6.7702 18.2117C5.87946 18.4866 5.22492 19.2933 5.06473 20.3231L4.89738 21.3989C4.81153 21.9508 4.29455 22.3286 3.74266 22.2427C3.19077 22.1569 2.81297 21.6399 2.89881 21.088L3.06616 20.0122C3.32785 18.3299 4.4418 16.8137 6.17361 16.2791C7.83647 15.7657 10.3238 15.1756 12.9998 15.1756C15.6758 15.1756 18.1632 15.7657 19.826 16.2791C21.5579 16.8137 22.6718 18.3299 22.9335 20.0122L23.1008 21.088C23.1867 21.6399 22.8089 22.1569 22.257 22.2427C21.7051 22.3286 21.1881 21.9508 21.1023 21.3989L20.9349 20.3231C20.7747 19.2933 20.1202 18.4866 19.2295 18.2117C17.6733 17.7313 15.3995 17.1982 12.9998 17.1982Z" fill="#CFD1DE"/>
<path fill-rule="evenodd" clip-rule="evenodd" d="M0.619873 29.2277V36.5004H1.50055V33.8442H3.09146C3.65728 33.8442 4.12129 33.7412 4.48351 33.5352C4.84573 33.3269 5.11324 33.0475 5.28607 32.6971C5.46126 32.3468 5.54885 31.9573 5.54885 31.5288C5.54885 31.1003 5.46126 30.7121 5.28607 30.3641C5.11088 30.016 4.84099 29.7402 4.47641 29.5366C4.11419 29.3307 3.64781 29.2277 3.07726 29.2277H0.619873ZM1.50055 33.0629H3.06306C3.45368 33.0629 3.76736 32.9954 4.00411 32.8605C4.24085 32.7256 4.41249 32.5433 4.51902 32.3136C4.62792 32.0816 4.68237 31.82 4.68237 31.5288C4.68237 31.2376 4.62792 30.9772 4.51902 30.7476C4.41249 30.5179 4.23966 30.338 4.00056 30.2078C3.76145 30.0752 3.44421 30.0089 3.04885 30.0089H1.50055V33.0629Z" fill="#CFD1DE"/>
<path fill-rule="evenodd" clip-rule="evenodd" d="M7.72215 36.266C8.1033 36.498 8.55666 36.6141 9.08223 36.6141C9.45155 36.6141 9.78417 36.5572 10.0801 36.4436C10.376 36.3276 10.6246 36.1666 10.8258 35.9606C11.0271 35.7523 11.1703 35.5108 11.2555 35.2362L10.4459 35.0089C10.3748 35.1983 10.2742 35.3569 10.144 35.4848C10.0138 35.6103 9.85875 35.705 9.67882 35.7689C9.50127 35.8304 9.3024 35.8612 9.08223 35.8612C8.74369 35.8612 8.44658 35.7878 8.1909 35.641C7.93521 35.4919 7.73517 35.2753 7.59075 34.9912C7.46196 34.7314 7.39155 34.4201 7.37954 34.0572H11.3408V33.7021C11.3408 33.1931 11.2733 32.7646 11.1383 32.4166C11.0034 32.0686 10.8223 31.7892 10.595 31.5785C10.3677 31.3655 10.1156 31.2116 9.83862 31.1169C9.56163 31.0222 9.28109 30.9748 8.997 30.9748C8.50458 30.9748 8.07371 31.0956 7.70439 31.3371C7.33744 31.5762 7.05098 31.91 6.84502 32.3385C6.64142 32.7646 6.53962 33.257 6.53962 33.8158C6.53962 34.3745 6.64142 34.8645 6.84502 35.2859C7.05098 35.705 7.34336 36.0317 7.72215 36.266ZM7.38168 33.3328C7.39764 33.0798 7.46141 32.8407 7.573 32.6155C7.70321 32.3527 7.88905 32.1396 8.13053 31.9763C8.37437 31.8105 8.6632 31.7277 8.997 31.7277C9.30003 31.7277 9.56282 31.7975 9.78536 31.9372C10.0103 32.0769 10.1831 32.2675 10.3038 32.5089C10.4269 32.7504 10.4885 33.025 10.4885 33.3328H7.38168Z" fill="#CFD1DE"/>
<path d="M12.6156 31.0459V36.5004H13.4537V33.0487C13.4537 32.8025 13.5129 32.5835 13.6312 32.3918C13.752 32.1976 13.9153 32.0461 14.1213 31.9372C14.3296 31.8259 14.5664 31.7703 14.8315 31.7703C14.9428 31.7703 15.0481 31.7786 15.1476 31.7952C15.2494 31.8094 15.3145 31.82 15.3429 31.8271V30.9748C15.2955 30.9701 15.2257 30.9666 15.1334 30.9642C15.041 30.9618 14.9641 30.9606 14.9025 30.9606C14.5758 30.9606 14.2823 31.0447 14.0219 31.2128C13.7614 31.3809 13.5815 31.5998 13.4821 31.8697H13.4253V31.0459H12.6156Z" fill="#CFD1DE"/>
<path d="M19.1071 31.7561V31.0459H17.8855V30.4919C17.8855 30.222 17.9459 30.0172 18.0666 29.8775C18.1897 29.7379 18.3898 29.668 18.6667 29.668C18.7875 29.668 18.8846 29.6787 18.9579 29.7C19.0337 29.7213 19.0929 29.7391 19.1355 29.7533L19.377 29.0288C19.3131 29.0004 19.216 28.9696 19.0858 28.9365C18.9556 28.9034 18.7875 28.8868 18.5815 28.8868C18.3211 28.8868 18.0737 28.9389 17.8393 29.043C17.605 29.1472 17.4144 29.3034 17.2676 29.5118C17.1208 29.7201 17.0474 29.9805 17.0474 30.293V31.0459H16.1667V31.7561H17.0474V36.5004H17.8855V31.7561H19.1071Z" fill="#CFD1DE"/>
<path d="M20.2816 31.0459V36.5004H21.1197V31.0459H20.2816Z" fill="#CFD1DE"/>
<path d="M20.2852 29.9699C20.4035 30.0811 20.5444 30.1368 20.7078 30.1368C20.8711 30.1368 21.0108 30.0811 21.1268 29.9699C21.2452 29.8586 21.3044 29.7248 21.3044 29.5686C21.3044 29.4123 21.2452 29.2786 21.1268 29.1673C21.0108 29.056 20.8711 29.0004 20.7078 29.0004C20.5444 29.0004 20.4035 29.056 20.2852 29.1673C20.1692 29.2786 20.1112 29.4123 20.1112 29.5686C20.1112 29.7248 20.1692 29.8586 20.2852 29.9699Z" fill="#CFD1DE"/>
<path d="M23.4927 36.5004V29.2277H22.6547V36.5004H23.4927Z" fill="#CFD1DE"/>
</svg>
