<svg width="38" height="36" viewBox="0 0 38 36" fill="none" xmlns="http://www.w3.org/2000/svg">
<path fill-rule="evenodd" clip-rule="evenodd" d="M10.9381 0.404297C8.70691 0.404297 6.89814 2.21306 6.89814 4.4443V18.6104C6.89814 20.8416 8.70691 22.6504 10.9381 22.6504H27.0616C29.2928 22.6504 31.1016 20.8416 31.1016 18.6104V8.39499C31.1016 6.16376 29.2928 4.35499 27.0616 4.35499H10.4122C9.85451 4.35499 9.40244 3.90292 9.40244 3.34526C9.40244 3.2797 9.39619 3.2156 9.38426 3.15353C9.75479 2.70796 10.3133 2.4243 10.9381 2.4243H28.0955C28.6533 2.4243 29.1055 1.9721 29.1055 1.4143C29.1055 0.85649 28.6533 0.404297 28.0955 0.404297H10.9381ZM8.91814 18.6104V5.98161C9.35903 6.232 9.8689 6.37499 10.4122 6.37499H27.0616C28.1772 6.37499 29.0816 7.27938 29.0816 8.39499V18.6104C29.0816 19.726 28.1772 20.6304 27.0616 20.6304H10.9381C9.82252 20.6304 8.91814 19.726 8.91814 18.6104Z" fill="#CFD1DE"/>
<path fill-rule="evenodd" clip-rule="evenodd" d="M0.783936 28.0964V35.3691H3.41178C3.98469 35.3691 4.44989 35.2839 4.80737 35.1134C5.16485 34.943 5.42645 34.7122 5.59217 34.421C5.75789 34.1298 5.84075 33.8019 5.84075 33.4373C5.84075 33.0538 5.765 32.7295 5.61348 32.4643C5.46197 32.1992 5.27376 31.9956 5.04885 31.8535C4.82395 31.7115 4.60022 31.6333 4.37769 31.6191V31.5481C4.58602 31.4913 4.77896 31.4037 4.95652 31.2853C5.13645 31.167 5.28086 31.006 5.38976 30.8024C5.50103 30.5988 5.55666 30.3407 5.55666 30.0282C5.55666 29.6731 5.47617 29.35 5.31519 29.0588C5.1542 28.7652 4.90917 28.532 4.5801 28.3592C4.25103 28.184 3.83318 28.0964 3.32655 28.0964H0.783936ZM3.41178 34.5879H1.66462V32.0595H3.45439C3.77162 32.0595 4.04625 32.1234 4.27825 32.2512C4.51026 32.3767 4.689 32.5448 4.81448 32.7555C4.93995 32.9638 5.00269 33.1911 5.00269 33.4373C5.00269 33.7569 4.88076 34.0292 4.63692 34.2541C4.39544 34.4766 3.98706 34.5879 3.41178 34.5879ZM3.29814 31.2924H1.66462V28.8777H3.32655C3.8095 28.8777 4.16225 28.9901 4.38479 29.215C4.60733 29.4375 4.71859 29.7086 4.71859 30.0282C4.71859 30.2839 4.65467 30.5064 4.52683 30.6958C4.40136 30.8852 4.23091 31.032 4.01547 31.1362C3.8024 31.2403 3.56329 31.2924 3.29814 31.2924Z" fill="#CFD1DE"/>
<path d="M7.17421 29.9146V35.3691H8.01227V29.9146H7.17421Z" fill="#CFD1DE"/>
<path d="M7.17776 28.8386C7.29613 28.9499 7.43699 29.0055 7.60034 29.0055C7.76369 29.0055 7.90337 28.9499 8.01938 28.8386C8.13775 28.7273 8.19693 28.5936 8.19693 28.4373C8.19693 28.2811 8.13775 28.1473 8.01938 28.036C7.90337 27.9248 7.76369 27.8691 7.60034 27.8691C7.43699 27.8691 7.29613 27.9248 7.17776 28.036C7.06175 28.1473 7.00375 28.2811 7.00375 28.4373C7.00375 28.5936 7.06175 28.7273 7.17776 28.8386Z" fill="#CFD1DE"/>
<path d="M10.3853 35.3691V28.0964H9.54725V35.3691H10.3853Z" fill="#CFD1DE"/>
<path d="M12.7584 35.3691V28.0964H11.9203V35.3691H12.7584Z" fill="#CFD1DE"/>
<path fill-rule="evenodd" clip-rule="evenodd" d="M15.2202 35.1348C15.6013 35.3668 16.0547 35.4828 16.5803 35.4828C16.9496 35.4828 17.2822 35.4259 17.5781 35.3123C17.8741 35.1963 18.1227 35.0353 18.3239 34.8294C18.5251 34.621 18.6683 34.3795 18.7536 34.1049L17.9439 33.8777C17.8729 34.067 17.7723 34.2257 17.6421 34.3535C17.5119 34.479 17.3568 34.5737 17.1769 34.6376C16.9993 34.6992 16.8004 34.7299 16.5803 34.7299C16.2417 34.7299 15.9446 34.6565 15.6889 34.5098C15.4333 34.3606 15.2332 34.144 15.0888 33.8599C14.96 33.6002 14.8896 33.2888 14.8776 32.9259H18.8388V32.5708C18.8388 32.0618 18.7713 31.6333 18.6364 31.2853C18.5014 30.9373 18.3203 30.658 18.0931 30.4473C17.8658 30.2342 17.6137 30.0803 17.3367 29.9856C17.0597 29.8909 16.7791 29.8436 16.4951 29.8436C16.0026 29.8436 15.5718 29.9643 15.2024 30.2058C14.8355 30.4449 14.549 30.7787 14.3431 31.2072C14.1395 31.6333 14.0377 32.1258 14.0377 32.6845C14.0377 33.2432 14.1395 33.7332 14.3431 34.1546C14.549 34.5737 14.8414 34.9004 15.2202 35.1348ZM14.8797 32.2015C14.8957 31.9485 14.9595 31.7094 15.071 31.4842C15.2013 31.2214 15.3871 31.0083 15.6286 30.845C15.8724 30.6793 16.1612 30.5964 16.4951 30.5964C16.7981 30.5964 17.0609 30.6662 17.2834 30.8059C17.5083 30.9456 17.6811 31.1362 17.8019 31.3777C17.925 31.6191 17.9865 31.8938 17.9865 32.2015H14.8797Z" fill="#CFD1DE"/>
<path d="M22.4858 30.6248V29.9146H21.321V28.6078H20.483V29.9146H19.6591V30.6248H20.483V34.0339C20.483 34.3511 20.5564 34.6139 20.7031 34.8223C20.8523 35.0306 21.0393 35.1857 21.2642 35.2875C21.4915 35.3893 21.7235 35.4402 21.9602 35.4402C22.1165 35.4402 22.2455 35.4283 22.3473 35.4046C22.4491 35.3833 22.5284 35.362 22.5852 35.3407L22.4148 34.5879L22.2727 34.6163C22.2136 34.6258 22.1378 34.6305 22.0455 34.6305C21.9224 34.6305 21.8052 34.6116 21.6939 34.5737C21.585 34.5334 21.4951 34.4553 21.424 34.3393C21.3554 34.2209 21.321 34.0434 21.321 33.8066V30.6248H22.4858Z" fill="#CFD1DE"/>
<path fill-rule="evenodd" clip-rule="evenodd" d="M24.6147 35.1348C24.9959 35.3668 25.4492 35.4828 25.9748 35.4828C26.3441 35.4828 26.6768 35.4259 26.9727 35.3123C27.2686 35.1963 27.5172 35.0353 27.7184 34.8294C27.9196 34.621 28.0629 34.3795 28.1481 34.1049L27.3384 33.8777C27.2674 34.067 27.1668 34.2257 27.0366 34.3535C26.9064 34.479 26.7513 34.5737 26.5714 34.6376C26.3938 34.6992 26.195 34.7299 25.9748 34.7299C25.6363 34.7299 25.3392 34.6565 25.0835 34.5098C24.8278 34.3606 24.6277 34.144 24.4833 33.8599C24.3545 33.6002 24.2841 33.2888 24.2721 32.9259H28.2333V32.5708C28.2333 32.0618 28.1659 31.6333 28.0309 31.2853C27.896 30.9373 27.7149 30.658 27.4876 30.4473C27.2603 30.2342 27.0082 30.0803 26.7312 29.9856C26.4542 29.8909 26.1737 29.8436 25.8896 29.8436C25.3972 29.8436 24.9663 29.9643 24.597 30.2058C24.23 30.4449 23.9436 30.7787 23.7376 31.2072C23.534 31.6333 23.4322 32.1258 23.4322 32.6845C23.4322 33.2432 23.534 33.7332 23.7376 34.1546C23.9436 34.5737 24.2359 34.9004 24.6147 35.1348ZM24.2743 32.2015C24.2902 31.9485 24.354 31.7094 24.4656 31.4842C24.5958 31.2214 24.7816 31.0083 25.0231 30.845C25.2669 30.6793 25.5558 30.5964 25.8896 30.5964C26.1926 30.5964 26.4554 30.6662 26.6779 30.8059C26.9028 30.9456 27.0757 31.1362 27.1964 31.3777C27.3195 31.6191 27.3811 31.8938 27.3811 32.2015H24.2743Z" fill="#CFD1DE"/>
<path d="M29.5082 29.9146V35.3691H30.3463V31.9174C30.3463 31.6712 30.4054 31.4522 30.5238 31.2605C30.6446 31.0663 30.8079 30.9148 31.0139 30.8059C31.2222 30.6947 31.4589 30.639 31.7241 30.639C31.8354 30.639 31.9407 30.6473 32.0401 30.6639C32.1419 30.6781 32.2071 30.6887 32.2355 30.6958V29.8436C32.1881 29.8388 32.1183 29.8353 32.0259 29.8329C31.9336 29.8305 31.8567 29.8294 31.7951 29.8294C31.4684 29.8294 31.1749 29.9134 30.9144 30.0815C30.654 30.2496 30.4741 30.4686 30.3747 30.7384H30.3178V29.9146H29.5082Z" fill="#CFD1DE"/>
<path fill-rule="evenodd" clip-rule="evenodd" d="M33.893 35.3017C34.1747 35.4319 34.4884 35.497 34.834 35.497C35.1512 35.497 35.4199 35.4496 35.6401 35.3549C35.8603 35.2602 36.0367 35.1454 36.1692 35.0105C36.3018 34.8755 36.3965 34.7489 36.4533 34.6305H36.4959V35.3691H37.334V31.7754C37.334 31.3421 37.263 30.9965 37.1209 30.7384C36.9789 30.4804 36.8002 30.2875 36.5847 30.1596C36.3717 30.0318 36.1503 29.9477 35.9207 29.9075C35.6934 29.8649 35.4922 29.8436 35.317 29.8436C35.0423 29.8436 34.763 29.8814 34.4789 29.9572C34.1972 30.0306 33.9368 30.1608 33.6976 30.3478C33.4609 30.5325 33.2715 30.7905 33.1295 31.122L33.9249 31.4061C34.0172 31.2072 34.177 31.0202 34.4043 30.845C34.6316 30.6698 34.9453 30.5822 35.3454 30.5822C35.7313 30.5822 36.0189 30.6793 36.2083 30.8734C36.4001 31.0675 36.4959 31.3398 36.4959 31.6902V31.7186C36.4959 31.8535 36.4474 31.9482 36.3503 32.0027C36.2556 32.0571 36.1041 32.0962 35.8958 32.1198C35.6898 32.1411 35.4211 32.1731 35.0897 32.2157C34.8364 32.2489 34.5842 32.2938 34.3333 32.3507C34.0847 32.4051 33.8574 32.488 33.6515 32.5992C33.4455 32.7105 33.281 32.8644 33.1579 33.0609C33.0348 33.255 32.9732 33.5083 32.9732 33.8208C32.9732 34.1759 33.0561 34.479 33.2218 34.7299C33.3875 34.9785 33.6112 35.1691 33.893 35.3017ZM35.7999 34.5488C35.5726 34.679 35.2933 34.7441 34.9618 34.7441C34.628 34.7441 34.3522 34.6707 34.1344 34.524C33.919 34.3748 33.8113 34.1546 33.8113 33.8634C33.8113 33.6504 33.8681 33.4823 33.9817 33.3592C34.0977 33.2337 34.2493 33.1402 34.4363 33.0786C34.6257 33.0147 34.8293 32.9686 35.0471 32.9402C35.137 32.9283 35.2542 32.9141 35.3986 32.8975C35.5454 32.8786 35.6958 32.8573 35.8496 32.8336C36.0059 32.8076 36.1432 32.778 36.2616 32.7448C36.3823 32.7093 36.4604 32.6703 36.4959 32.6277V33.3947C36.4959 33.622 36.4368 33.8386 36.3184 34.0446C36.2024 34.2505 36.0296 34.4186 35.7999 34.5488Z" fill="#CFD1DE"/>
</svg>
