<svg width="6" height="12" viewBox="0 0 6 12" fill="none" xmlns="http://www.w3.org/2000/svg">
<path fill-rule="evenodd" clip-rule="evenodd" d="M2.00458 0.89644C2.00458 0.598209 2.24634 0.356445 2.54457 0.356445C2.8428 0.356445 3.08456 0.598209 3.08456 0.896439V1.45061C4.2117 1.68577 5.06056 2.71783 5.06056 3.95538C5.06056 4.40374 4.70989 4.7672 4.27732 4.7672C3.84475 4.7672 3.49409 4.40374 3.49409 3.95538C3.49409 3.44097 3.09176 3.02396 2.59546 3.02396C2.09917 3.02396 1.69684 3.44097 1.69684 3.95538C1.69684 4.46979 2.09917 4.8868 2.59546 4.8868C2.60541 4.8868 2.61532 4.88699 2.62518 4.88737C3.9731 4.90366 5.06094 6.04128 5.06094 7.44225C5.06094 8.67995 4.21189 9.7121 3.08455 9.9471L3.08455 10.5489C3.08455 10.8471 2.84279 11.0889 2.54456 11.0889C2.24633 11.0889 2.00457 10.8471 2.00457 10.5489L2.00457 9.92334C0.928697 9.64881 0.130756 8.64211 0.130756 7.44225C0.130756 6.9939 0.481423 6.63043 0.913992 6.63043C1.34656 6.63043 1.69723 6.9939 1.69723 7.44225C1.69723 7.95666 2.09955 8.37367 2.59585 8.37367C3.09214 8.37367 3.49447 7.95666 3.49447 7.44225C3.49447 6.92784 3.09215 6.51083 2.59585 6.51083C2.5859 6.51083 2.576 6.51064 2.56614 6.51026C1.21822 6.49397 0.130371 5.35635 0.130371 3.95538C0.130371 2.75537 0.928508 1.74858 2.00458 1.47419V0.89644Z" fill="#55B3FF"/>
</svg>
