<svg width="46" height="40" viewBox="0 0 46 40" fill="none" xmlns="http://www.w3.org/2000/svg">
<path fill-rule="evenodd" clip-rule="evenodd" d="M28.9378 2.13589H28.7651C28.3486 0.957525 27.2248 0.113281 25.9039 0.113281H19.836C18.5151 0.113281 17.3913 0.957525 16.9748 2.13589H16.8021C14.568 2.13589 12.7569 3.94699 12.7569 6.1811V20.3393C12.7569 22.5734 14.568 24.3846 16.8021 24.3846H28.9378C31.1719 24.3846 32.983 22.5735 32.983 20.3393V6.1811C32.983 3.94699 31.1719 2.13589 28.9378 2.13589ZM14.7795 6.1811C14.7795 5.06404 15.6851 4.15849 16.8021 4.15849C16.8021 5.83407 18.1604 7.1924 19.836 7.1924H25.9039C27.5794 7.1924 28.9378 5.83407 28.9378 4.15849C30.0548 4.15849 30.9604 5.06404 30.9604 6.1811V20.3393C30.9604 21.4564 30.0548 22.3619 28.9378 22.3619H16.8021C15.6851 22.3619 14.7795 21.4564 14.7795 20.3393V6.1811ZM19.836 2.13589C19.2775 2.13589 18.8247 2.58866 18.8247 3.14719V4.15849C18.8247 4.71702 19.2775 5.1698 19.836 5.1698H25.9039C26.4624 5.1698 26.9152 4.71702 26.9152 4.15849V3.14719C26.9152 2.58866 26.4624 2.13589 25.9039 2.13589H19.836Z" fill="#CFD1DE"/>
<path fill-rule="evenodd" clip-rule="evenodd" d="M0.141357 29.8406V37.1133H1.02204V34.457H2.61295C3.17876 34.457 3.64278 34.354 4.00499 34.1481C4.36721 33.9398 4.63473 33.6604 4.80755 33.31C4.98274 32.9596 5.07033 32.5702 5.07033 32.1417C5.07033 31.7132 4.98274 31.3249 4.80755 30.9769C4.63236 30.6289 4.36247 30.3531 3.99789 30.1495C3.63568 29.9435 3.16929 29.8406 2.59874 29.8406H0.141357ZM1.02204 33.6758H2.58454C2.97516 33.6758 3.28885 33.6083 3.52559 33.4734C3.76233 33.3384 3.93397 33.1561 4.04051 32.9265C4.14941 32.6945 4.20386 32.4329 4.20386 32.1417C4.20386 31.8505 4.14941 31.5901 4.04051 31.3604C3.93397 31.1308 3.76115 30.9509 3.52204 30.8207C3.28293 30.6881 2.96569 30.6218 2.57033 30.6218H1.02204V33.6758Z" fill="#CFD1DE"/>
<path d="M6.37538 31.6587V37.1133H7.21345V33.6616C7.21345 33.4154 7.27263 33.1964 7.391 33.0046C7.51174 32.8105 7.67509 32.659 7.88106 32.5501C8.08939 32.4388 8.32613 32.3832 8.59129 32.3832C8.70256 32.3832 8.80791 32.3915 8.90734 32.408C9.00914 32.4222 9.07424 32.4329 9.10265 32.44V31.5877C9.0553 31.583 8.98546 31.5794 8.89313 31.5771C8.8008 31.5747 8.72386 31.5735 8.66231 31.5735C8.3356 31.5735 8.04204 31.6576 7.78163 31.8256C7.52121 31.9937 7.34129 32.2127 7.24185 32.4826H7.18504V31.6587H6.37538Z" fill="#CFD1DE"/>
<path fill-rule="evenodd" clip-rule="evenodd" d="M10.8498 36.8754C11.2215 37.1097 11.6535 37.2269 12.146 37.2269C12.6384 37.2269 13.0693 37.1097 13.4386 36.8754C13.8103 36.641 14.0991 36.3131 14.3051 35.8917C14.5134 35.4703 14.6176 34.9779 14.6176 34.4144C14.6176 33.8462 14.5134 33.3503 14.3051 32.9265C14.0991 32.5027 13.8103 32.1736 13.4386 31.9393C13.0693 31.7049 12.6384 31.5877 12.146 31.5877C11.6535 31.5877 11.2215 31.7049 10.8498 31.9393C10.4805 32.1736 10.1917 32.5027 9.98333 32.9265C9.77737 33.3503 9.67438 33.8462 9.67438 34.4144C9.67438 34.9779 9.77737 35.4703 9.98333 35.8917C10.1917 36.3131 10.4805 36.641 10.8498 36.8754ZM13.0693 36.1864C12.8278 36.3782 12.52 36.4741 12.146 36.4741C11.7719 36.4741 11.4642 36.3782 11.2227 36.1864C10.9812 35.9947 10.8025 35.7425 10.6865 35.43C10.5705 35.1175 10.5125 34.779 10.5125 34.4144C10.5125 34.0498 10.5705 33.7101 10.6865 33.3952C10.8025 33.0804 10.9812 32.8259 11.2227 32.6317C11.4642 32.4376 11.7719 32.3406 12.146 32.3406C12.52 32.3406 12.8278 32.4376 13.0693 32.6317C13.3107 32.8259 13.4895 33.0804 13.6055 33.3952C13.7215 33.7101 13.7795 34.0498 13.7795 34.4144C13.7795 34.779 13.7215 35.1175 13.6055 35.43C13.4895 35.7425 13.3107 35.9947 13.0693 36.1864Z" fill="#CFD1DE"/>
<path d="M15.8614 39.1232C15.9726 39.1469 16.0993 39.1587 16.2413 39.1587C16.4946 39.1587 16.7219 39.1138 16.9231 39.0238C17.1267 38.9338 17.3055 38.7953 17.4594 38.6083C17.6132 38.4236 17.7423 38.1905 17.8464 37.9087L20.1618 31.6587H19.2527L17.747 36.0053H17.6902L16.1845 31.6587H15.2754L17.2925 37.1417L17.1362 37.5678C17.0344 37.8448 16.922 38.0449 16.7989 38.168C16.6781 38.2934 16.5396 38.3633 16.3834 38.3775C16.2271 38.3917 16.0472 38.3727 15.8436 38.3207L15.6305 39.0593C15.6731 39.0806 15.7501 39.1019 15.8614 39.1232Z" fill="#CFD1DE"/>
<path fill-rule="evenodd" clip-rule="evenodd" d="M21.9995 36.8789C22.3806 37.1109 22.834 37.2269 23.3596 37.2269C23.7289 37.2269 24.0615 37.1701 24.3574 37.0565C24.6534 36.9405 24.902 36.7795 25.1032 36.5735C25.3044 36.3652 25.4476 36.1237 25.5329 35.8491L24.7232 35.6218C24.6522 35.8112 24.5516 35.9698 24.4214 36.0977C24.2912 36.2231 24.1361 36.3178 23.9562 36.3817C23.7786 36.4433 23.5797 36.4741 23.3596 36.4741C23.021 36.4741 22.7239 36.4007 22.4682 36.2539C22.2126 36.1048 22.0125 35.8881 21.8681 35.604C21.7393 35.3443 21.6689 35.033 21.6569 34.6701H25.6181V34.315C25.6181 33.806 25.5506 33.3775 25.4157 33.0295C25.2807 32.6815 25.0996 32.4021 24.8724 32.1914C24.6451 31.9783 24.393 31.8245 24.116 31.7298C23.839 31.6351 23.5584 31.5877 23.2743 31.5877C22.7819 31.5877 22.3511 31.7085 21.9817 31.9499C21.6148 32.189 21.3283 32.5228 21.1224 32.9514C20.9188 33.3775 20.817 33.8699 20.817 34.4286C20.817 34.9873 20.9188 35.4774 21.1224 35.8988C21.3283 36.3178 21.6207 36.6445 21.9995 36.8789ZM21.659 33.9457C21.675 33.6926 21.7388 33.4535 21.8503 33.2283C21.9806 32.9656 22.1664 32.7525 22.4079 32.5891C22.6517 32.4234 22.9405 32.3406 23.2743 32.3406C23.5774 32.3406 23.8402 32.4104 24.0627 32.5501C24.2876 32.6898 24.4604 32.8803 24.5812 33.1218C24.7043 33.3633 24.7658 33.6379 24.7658 33.9457H21.659Z" fill="#CFD1DE"/>
<path d="M27.7878 36.8647C28.1572 37.1062 28.5975 37.2269 29.1089 37.2269C29.5113 37.2269 29.8641 37.1523 30.1671 37.0032C30.4725 36.8517 30.7175 36.6481 30.9022 36.3924C31.0892 36.1343 31.2064 35.8443 31.2538 35.5224H30.4157C30.3636 35.7212 30.276 35.8917 30.1529 36.0337C30.0298 36.1758 29.8795 36.2847 29.7019 36.3604C29.5243 36.4362 29.3267 36.4741 29.1089 36.4741C28.7774 36.4741 28.4886 36.3877 28.2424 36.2148C27.9985 36.042 27.8091 35.7994 27.6742 35.4869C27.5416 35.1744 27.4753 34.8074 27.4753 34.386C27.4753 33.9741 27.5428 33.6154 27.6778 33.31C27.8151 33.0023 28.0056 32.7643 28.2495 32.5962C28.4957 32.4258 28.7822 32.3406 29.1089 32.3406C29.4782 32.3406 29.7717 32.4376 29.9895 32.6317C30.2097 32.8235 30.3518 33.0437 30.4157 33.2923H31.2538C31.2064 32.9514 31.0845 32.6531 30.888 32.3974C30.6915 32.1417 30.4394 31.9428 30.1316 31.8008C29.8238 31.6587 29.4782 31.5877 29.0947 31.5877C28.6022 31.5877 28.1714 31.7085 27.802 31.9499C27.4351 32.189 27.1486 32.5217 26.9427 32.9478C26.7391 33.3716 26.6373 33.8604 26.6373 34.4144C26.6373 34.9589 26.7367 35.4431 26.9356 35.8668C27.1344 36.2906 27.4185 36.6232 27.7878 36.8647Z" fill="#CFD1DE"/>
<path d="M34.8511 32.369V31.6587H33.6863V30.3519H32.8482V31.6587H32.0243V32.369H32.8482V35.7781C32.8482 36.0953 32.9216 36.3581 33.0684 36.5664C33.2175 36.7747 33.4046 36.9298 33.6295 37.0316C33.8567 37.1334 34.0887 37.1843 34.3255 37.1843C34.4817 37.1843 34.6108 37.1725 34.7126 37.1488C34.8144 37.1275 34.8937 37.1062 34.9505 37.0849L34.78 36.332L34.638 36.3604C34.5788 36.3699 34.503 36.3746 34.4107 36.3746C34.2876 36.3746 34.1704 36.3557 34.0591 36.3178C33.9502 36.2776 33.8603 36.1995 33.7893 36.0835C33.7206 35.9651 33.6863 35.7875 33.6863 35.5508V32.369H34.8511Z" fill="#CFD1DE"/>
<path fill-rule="evenodd" clip-rule="evenodd" d="M36.9729 36.8754C37.3445 37.1097 37.7766 37.2269 38.269 37.2269C38.7614 37.2269 39.1923 37.1097 39.5616 36.8754C39.9333 36.641 40.2221 36.3131 40.4281 35.8917C40.6364 35.4703 40.7406 34.9779 40.7406 34.4144C40.7406 33.8462 40.6364 33.3503 40.4281 32.9265C40.2221 32.5027 39.9333 32.1736 39.5616 31.9393C39.1923 31.7049 38.7614 31.5877 38.269 31.5877C37.7766 31.5877 37.3445 31.7049 36.9729 31.9393C36.6035 32.1736 36.3147 32.5027 36.1064 32.9265C35.9004 33.3503 35.7974 33.8462 35.7974 34.4144C35.7974 34.9779 35.9004 35.4703 36.1064 35.8917C36.3147 36.3131 36.6035 36.641 36.9729 36.8754ZM39.1923 36.1864C38.9508 36.3782 38.6431 36.4741 38.269 36.4741C37.895 36.4741 37.5872 36.3782 37.3457 36.1864C37.1042 35.9947 36.9255 35.7425 36.8095 35.43C36.6935 35.1175 36.6355 34.779 36.6355 34.4144C36.6355 34.0498 36.6935 33.7101 36.8095 33.3952C36.9255 33.0804 37.1042 32.8259 37.3457 32.6317C37.5872 32.4376 37.895 32.3406 38.269 32.3406C38.6431 32.3406 38.9508 32.4376 39.1923 32.6317C39.4338 32.8259 39.6125 33.0804 39.7285 33.3952C39.8445 33.7101 39.9025 34.0498 39.9025 34.4144C39.9025 34.779 39.8445 35.1175 39.7285 35.43C39.6125 35.7425 39.4338 35.9947 39.1923 36.1864Z" fill="#CFD1DE"/>
<path d="M45.1307 33.0934L45.8835 32.8803C45.7533 32.4921 45.5332 32.1796 45.223 31.9428C44.9153 31.7061 44.4915 31.5877 43.9517 31.5877C43.5682 31.5877 43.2249 31.6552 42.9219 31.7901C42.6212 31.9251 42.3833 32.1109 42.2081 32.3477C42.0353 32.5844 41.9489 32.8567 41.9489 33.1644C41.9489 33.5408 42.0649 33.8545 42.2969 34.1055C42.5313 34.354 42.8982 34.5375 43.3978 34.6559L44.3068 34.869C44.5815 34.9329 44.7851 35.0299 44.9176 35.1602C45.0502 35.288 45.1165 35.4466 45.1165 35.636C45.1165 35.8704 45.0005 36.0716 44.7685 36.2397C44.5388 36.4054 44.2287 36.4883 43.8381 36.4883C43.4948 36.4883 43.2166 36.4149 43.0036 36.2681C42.7929 36.1213 42.6496 35.9012 42.5739 35.6076L41.7784 35.8065C41.8755 36.2705 42.1063 36.6232 42.4709 36.8647C42.8355 37.1062 43.296 37.2269 43.8523 37.2269C44.2761 37.2269 44.6478 37.1559 44.9674 37.0139C45.287 36.8718 45.5355 36.6777 45.7131 36.4315C45.893 36.1852 45.983 35.9059 45.983 35.5934C45.983 35.2122 45.8634 34.9009 45.6243 34.6594C45.3852 34.4156 45.0218 34.2345 44.5341 34.1161L43.7245 33.9173C43.4025 33.8368 43.1657 33.7361 43.0142 33.6154C42.8627 33.4947 42.787 33.3301 42.787 33.1218C42.787 32.8874 42.897 32.6945 43.1172 32.543C43.3397 32.3891 43.6179 32.3121 43.9517 32.3121C44.1956 32.3121 44.3956 32.3512 44.5519 32.4293C44.7081 32.5075 44.8312 32.6069 44.9212 32.7276C45.0135 32.846 45.0834 32.9679 45.1307 33.0934Z" fill="#CFD1DE"/>
</svg>
