<svg width="38" height="36" viewBox="0 0 38 36" fill="none" xmlns="http://www.w3.org/2000/svg">
<path fill-rule="evenodd" clip-rule="evenodd" d="M10.8073 0.103516C8.57605 0.103516 6.76728 1.91228 6.76728 4.14351V18.3096C6.76728 20.5408 8.57605 22.3496 10.8073 22.3496H26.9307C29.1619 22.3496 30.9707 20.5408 30.9707 18.3096V8.09421C30.9707 5.86298 29.1619 4.05421 26.9307 4.05421H10.2813C9.72365 4.05421 9.27158 3.60214 9.27158 3.04447C9.27158 2.97892 9.26533 2.91482 9.2534 2.85275C9.62393 2.40718 10.1825 2.12352 10.8073 2.12352H27.9646C28.5224 2.12352 28.9746 1.67132 28.9746 1.11352C28.9746 0.555708 28.5224 0.103516 27.9646 0.103516H10.8073ZM8.78728 18.3096V5.68083C9.22817 5.93122 9.73804 6.07421 10.2813 6.07421H26.9307C28.0463 6.07421 28.9507 6.9786 28.9507 8.09421V18.3096C28.9507 19.4252 28.0463 20.3296 26.9307 20.3296H10.8073C9.69166 20.3296 8.78728 19.4252 8.78728 18.3096Z" fill="#CFD1DE"/>
<path fill-rule="evenodd" clip-rule="evenodd" d="M0.653076 27.7956V35.0684H3.28092C3.85383 35.0684 4.31903 34.9831 4.67651 34.8127C5.03399 34.6422 5.2956 34.4114 5.46131 34.1202C5.62703 33.829 5.70989 33.5011 5.70989 33.1365C5.70989 32.753 5.63414 32.4287 5.48262 32.1635C5.33111 31.8984 5.1429 31.6948 4.91799 31.5527C4.69309 31.4107 4.46936 31.3326 4.24683 31.3183V31.2473C4.45516 31.1905 4.6481 31.1029 4.82566 30.9845C5.00559 30.8662 5.15 30.7052 5.2589 30.5016C5.37017 30.298 5.4258 30.0399 5.4258 29.7274C5.4258 29.3723 5.34531 29.0492 5.18433 28.758C5.02334 28.4644 4.77831 28.2312 4.44924 28.0584C4.12017 27.8832 3.70232 27.7956 3.19569 27.7956H0.653076ZM3.28092 34.2871H1.53376V31.7587H3.32353C3.64077 31.7587 3.91539 31.8226 4.14739 31.9505C4.3794 32.0759 4.55814 32.244 4.68362 32.4547C4.80909 32.663 4.87183 32.8903 4.87183 33.1365C4.87183 33.4561 4.7499 33.7284 4.50606 33.9533C4.26458 34.1758 3.8562 34.2871 3.28092 34.2871ZM3.16728 30.9916H1.53376V28.5769H3.19569C3.67864 28.5769 4.03139 28.6893 4.25393 28.9142C4.47647 29.1368 4.58774 29.4078 4.58774 29.7274C4.58774 29.9831 4.52381 30.2057 4.39597 30.3951C4.2705 30.5844 4.10005 30.7312 3.88461 30.8354C3.67154 30.9396 3.43243 30.9916 3.16728 30.9916Z" fill="#CFD1DE"/>
<path d="M7.04335 29.6138V35.0684H7.88141V29.6138H7.04335Z" fill="#CFD1DE"/>
<path d="M7.0469 28.5378C7.16527 28.6491 7.30613 28.7047 7.46948 28.7047C7.63283 28.7047 7.77251 28.6491 7.88852 28.5378C8.00689 28.4265 8.06607 28.2928 8.06607 28.1365C8.06607 27.9803 8.00689 27.8465 7.88852 27.7353C7.77251 27.624 7.63283 27.5683 7.46948 27.5683C7.30613 27.5683 7.16527 27.624 7.0469 27.7353C6.93089 27.8465 6.87289 27.9803 6.87289 28.1365C6.87289 28.2928 6.93089 28.4265 7.0469 28.5378Z" fill="#CFD1DE"/>
<path d="M10.2545 35.0684V27.7956H9.41639V35.0684H10.2545Z" fill="#CFD1DE"/>
<path d="M12.6275 35.0684V27.7956H11.7894V35.0684H12.6275Z" fill="#CFD1DE"/>
<path fill-rule="evenodd" clip-rule="evenodd" d="M15.0893 34.834C15.4705 35.066 15.9239 35.182 16.4494 35.182C16.8187 35.182 17.1514 35.1252 17.4473 35.0115C17.7432 34.8955 17.9918 34.7345 18.193 34.5286C18.3943 34.3202 18.5375 34.0788 18.6227 33.8041L17.8131 33.5769C17.742 33.7663 17.6414 33.9249 17.5112 34.0527C17.381 34.1782 17.2259 34.2729 17.046 34.3368C16.8685 34.3984 16.6696 34.4291 16.4494 34.4291C16.1109 34.4291 15.8138 34.3558 15.5581 34.209C15.3024 34.0598 15.1024 33.8432 14.9579 33.5591C14.8291 33.2994 14.7587 32.9881 14.7467 32.6252H18.7079V32.2701C18.7079 31.7611 18.6405 31.3326 18.5055 30.9845C18.3706 30.6365 18.1895 30.3572 17.9622 30.1465C17.7349 29.9334 17.4828 29.7795 17.2058 29.6848C16.9288 29.5901 16.6483 29.5428 16.3642 29.5428C15.8718 29.5428 15.4409 29.6635 15.0716 29.905C14.7046 30.1441 14.4182 30.4779 14.2122 30.9064C14.0086 31.3326 13.9068 31.825 13.9068 32.3837C13.9068 32.9424 14.0086 33.4325 14.2122 33.8539C14.4182 34.2729 14.7105 34.5996 15.0893 34.834ZM14.7489 31.9007C14.7648 31.6477 14.8286 31.4086 14.9402 31.1834C15.0704 30.9206 15.2562 30.7076 15.4977 30.5442C15.7416 30.3785 16.0304 30.2956 16.3642 30.2956C16.6672 30.2956 16.93 30.3655 17.1525 30.5051C17.3774 30.6448 17.5503 30.8354 17.671 31.0769C17.7941 31.3183 17.8557 31.593 17.8557 31.9007H14.7489Z" fill="#CFD1DE"/>
<path d="M22.355 30.324V29.6138H21.1902V28.307H20.3521V29.6138H19.5283V30.324H20.3521V33.7331C20.3521 34.0504 20.4255 34.3131 20.5723 34.5215C20.7214 34.7298 20.9085 34.8849 21.1334 34.9867C21.3606 35.0885 21.5926 35.1394 21.8294 35.1394C21.9856 35.1394 22.1147 35.1275 22.2165 35.1039C22.3183 35.0826 22.3976 35.0612 22.4544 35.0399L22.2839 34.2871L22.1419 34.3155C22.0827 34.325 22.0069 34.3297 21.9146 34.3297C21.7915 34.3297 21.6743 34.3108 21.5631 34.2729C21.4542 34.2327 21.3642 34.1545 21.2932 34.0385C21.2245 33.9202 21.1902 33.7426 21.1902 33.5059V30.324H22.355Z" fill="#CFD1DE"/>
<path fill-rule="evenodd" clip-rule="evenodd" d="M24.4839 34.834C24.865 35.066 25.3184 35.182 25.844 35.182C26.2133 35.182 26.5459 35.1252 26.8418 35.0115C27.1377 34.8955 27.3863 34.7345 27.5876 34.5286C27.7888 34.3202 27.932 34.0788 28.0172 33.8041L27.2076 33.5769C27.1366 33.7663 27.0359 33.9249 26.9057 34.0527C26.7755 34.1782 26.6205 34.2729 26.4405 34.3368C26.263 34.3984 26.0641 34.4291 25.844 34.4291C25.5054 34.4291 25.2083 34.3558 24.9526 34.209C24.6969 34.0598 24.4969 33.8432 24.3525 33.5591C24.2237 33.2994 24.1533 32.9881 24.1413 32.6252H28.1025V32.2701C28.1025 31.7611 28.035 31.3326 27.9001 30.9845C27.7651 30.6365 27.584 30.3572 27.3567 30.1465C27.1295 29.9334 26.8773 29.7795 26.6003 29.6848C26.3234 29.5901 26.0428 29.5428 25.7587 29.5428C25.2663 29.5428 24.8354 29.6635 24.4661 29.905C24.0992 30.1441 23.8127 30.4779 23.6067 30.9064C23.4031 31.3326 23.3013 31.825 23.3013 32.3837C23.3013 32.9424 23.4031 33.4325 23.6067 33.8539C23.8127 34.2729 24.1051 34.5996 24.4839 34.834ZM24.1434 31.9007C24.1594 31.6477 24.2231 31.4086 24.3347 31.1834C24.4649 30.9206 24.6508 30.7076 24.8922 30.5442C25.1361 30.3785 25.4249 30.2956 25.7587 30.2956C26.0618 30.2956 26.3245 30.3655 26.5471 30.5051C26.772 30.6448 26.9448 30.8354 27.0655 31.0769C27.1886 31.3183 27.2502 31.593 27.2502 31.9007H24.1434Z" fill="#CFD1DE"/>
<path d="M29.3773 29.6138V35.0684H30.2154V31.6166C30.2154 31.3704 30.2746 31.1514 30.393 30.9597C30.5137 30.7656 30.677 30.614 30.883 30.5051C31.0913 30.3939 31.3281 30.3382 31.5932 30.3382C31.7045 30.3382 31.8099 30.3465 31.9093 30.3631C32.0111 30.3773 32.0762 30.388 32.1046 30.3951V29.5428C32.0573 29.538 31.9874 29.5345 31.8951 29.5321C31.8028 29.5298 31.7258 29.5286 31.6643 29.5286C31.3376 29.5286 31.044 29.6126 30.7836 29.7807C30.5232 29.9488 30.3432 30.1678 30.2438 30.4377H30.187V29.6138H29.3773Z" fill="#CFD1DE"/>
<path fill-rule="evenodd" clip-rule="evenodd" d="M33.7621 35.0009C34.0438 35.1311 34.3575 35.1962 34.7031 35.1962C35.0204 35.1962 35.2891 35.1488 35.5093 35.0541C35.7294 34.9594 35.9058 34.8446 36.0384 34.7097C36.171 34.5747 36.2656 34.4481 36.3225 34.3297H36.3651V35.0684H37.2031V31.4746C37.2031 31.0414 37.1321 30.6957 36.9901 30.4377C36.848 30.1796 36.6693 29.9867 36.4539 29.8588C36.2408 29.731 36.0194 29.6469 35.7898 29.6067C35.5625 29.5641 35.3613 29.5428 35.1861 29.5428C34.9115 29.5428 34.6321 29.5807 34.348 29.6564C34.0663 29.7298 33.8059 29.86 33.5668 30.047C33.33 30.2317 33.1406 30.4898 32.9986 30.8212L33.7941 31.1053C33.8864 30.9064 34.0462 30.7194 34.2735 30.5442C34.5007 30.369 34.8144 30.2814 35.2145 30.2814C35.6004 30.2814 35.888 30.3785 36.0774 30.5726C36.2692 30.7667 36.3651 31.039 36.3651 31.3894V31.4178C36.3651 31.5527 36.3165 31.6474 36.2195 31.7019C36.1248 31.7563 35.9733 31.7954 35.7649 31.8191C35.559 31.8404 35.2903 31.8723 34.9588 31.9149C34.7055 31.9481 34.4534 31.9931 34.2024 32.0499C33.9539 32.1043 33.7266 32.1872 33.5206 32.2985C33.3147 32.4097 33.1501 32.5636 33.027 32.7601C32.9039 32.9542 32.8424 33.2076 32.8424 33.5201C32.8424 33.8752 32.9252 34.1782 33.0909 34.4291C33.2567 34.6777 33.4804 34.8683 33.7621 35.0009ZM35.6691 34.248C35.4418 34.3782 35.1624 34.4434 34.831 34.4434C34.4972 34.4434 34.2214 34.37 34.0036 34.2232C33.7881 34.074 33.6804 33.8539 33.6804 33.5627C33.6804 33.3496 33.7372 33.1815 33.8509 33.0584C33.9669 32.9329 34.1184 32.8394 34.3054 32.7779C34.4948 32.7139 34.6984 32.6678 34.9162 32.6394C35.0062 32.6275 35.1234 32.6133 35.2678 32.5968C35.4146 32.5778 35.5649 32.5565 35.7188 32.5328C35.875 32.5068 36.0123 32.4772 36.1307 32.4441C36.2514 32.4086 36.3296 32.3695 36.3651 32.3269V33.0939C36.3651 33.3212 36.3059 33.5378 36.1875 33.7438C36.0715 33.9497 35.8987 34.1178 35.6691 34.248Z" fill="#CFD1DE"/>
</svg>
