<svg width="6" height="12" viewBox="0 0 6 12" fill="none" xmlns="http://www.w3.org/2000/svg">
<path fill-rule="evenodd" clip-rule="evenodd" d="M2.1994 1.19136C2.1994 0.893131 2.44116 0.651367 2.73939 0.651367C3.03762 0.651367 3.27939 0.893131 3.27939 1.19136V1.74553C4.40653 1.9807 5.25538 3.01275 5.25538 4.2503C5.25538 4.69866 4.90472 5.06212 4.47215 5.06212C4.03958 5.06212 3.68891 4.69866 3.68891 4.2503C3.68891 3.73589 3.28658 3.31888 2.79029 3.31888C2.29399 3.31888 1.89167 3.73589 1.89167 4.2503C1.89167 4.76471 2.29399 5.18172 2.79029 5.18172C2.80024 5.18172 2.81014 5.18191 2.82 5.18229C4.16792 5.19858 5.25577 6.3362 5.25577 7.73717C5.25577 8.97487 4.40671 10.007 3.27938 10.242L3.27938 10.8438C3.27938 11.1421 3.03761 11.3838 2.73938 11.3838C2.44115 11.3838 2.19939 11.1421 2.19939 10.8438L2.19939 10.2183C1.12352 9.94373 0.32558 8.93704 0.32558 7.73717C0.325581 7.28882 0.676247 6.92535 1.10882 6.92535C1.54138 6.92535 1.89205 7.28882 1.89205 7.73717C1.89205 8.25158 2.29438 8.66859 2.79067 8.66859C3.28697 8.66859 3.6893 8.25158 3.6893 7.73717C3.6893 7.22277 3.28697 6.80576 2.79067 6.80576C2.78073 6.80576 2.77082 6.80556 2.76096 6.80518C1.41304 6.7889 0.325195 5.65127 0.325195 4.2503C0.325195 3.05029 1.12333 2.0435 2.1994 1.76912V1.19136Z" fill="#55B3FF"/>
</svg>
