<svg width="47" height="40" viewBox="0 0 47 40" fill="none" xmlns="http://www.w3.org/2000/svg">
<path fill-rule="evenodd" clip-rule="evenodd" d="M29.0678 2.71987H28.8951C28.4786 1.54151 27.3548 0.697266 26.0339 0.697266H19.966C18.6451 0.697266 17.5213 1.54151 17.1048 2.71987H16.9321C14.698 2.71987 12.8869 4.53097 12.8869 6.76508V20.9233C12.8869 23.1574 14.698 24.9685 16.9321 24.9685H29.0678C31.3019 24.9685 33.113 23.1574 33.113 20.9233V6.76508C33.113 4.53097 31.3019 2.71987 29.0678 2.71987ZM14.9095 6.76508C14.9095 5.64803 15.8151 4.74248 16.9321 4.74248C16.9321 6.41806 18.2905 7.77639 19.966 7.77639H26.0339C27.7094 7.77639 29.0678 6.41806 29.0678 4.74248C30.1848 4.74248 31.0904 5.64803 31.0904 6.76508V20.9233C31.0904 22.0404 30.1848 22.9459 29.0678 22.9459H16.9321C15.8151 22.9459 14.9095 22.0404 14.9095 20.9233V6.76508ZM19.966 2.71987C19.4075 2.71987 18.9547 3.17265 18.9547 3.73117V4.74248C18.9547 5.301 19.4075 5.75378 19.966 5.75378H26.0339C26.5924 5.75378 27.0452 5.301 27.0452 4.74248V3.73117C27.0452 3.17265 26.5924 2.71987 26.0339 2.71987H19.966Z" fill="#55B3FF"/>
<path fill-rule="evenodd" clip-rule="evenodd" d="M0.272339 30.4245V37.6973H1.15302V35.041H2.74393C3.30974 35.041 3.77376 34.938 4.13598 34.7321C4.49819 34.5237 4.76571 34.2444 4.93853 33.894C5.11372 33.5436 5.20132 33.1542 5.20132 32.7257C5.20132 32.2972 5.11372 31.9089 4.93853 31.5609C4.76334 31.2129 4.49346 30.9371 4.12887 30.7335C3.76666 30.5275 3.30027 30.4245 2.72973 30.4245H0.272339ZM1.15302 34.2598H2.71552C3.10615 34.2598 3.41983 34.1923 3.65657 34.0574C3.89331 33.9224 4.06495 33.7401 4.17149 33.5105C4.28039 33.2785 4.33484 33.0169 4.33484 32.7257C4.33484 32.4345 4.28039 32.1741 4.17149 31.9444C4.06495 31.7148 3.89213 31.5349 3.65302 31.4047C3.41391 31.2721 3.09668 31.2058 2.70132 31.2058H1.15302V34.2598Z" fill="#55B3FF"/>
<path d="M6.50636 32.2427V37.6973H7.34443V34.2456C7.34443 33.9993 7.40361 33.7804 7.52198 33.5886C7.64272 33.3945 7.80607 33.243 8.01204 33.1341C8.22037 33.0228 8.45712 32.9672 8.72227 32.9672C8.83354 32.9672 8.93889 32.9754 9.03832 32.992C9.14012 33.0062 9.20522 33.0169 9.23363 33.024V32.1717C9.18628 32.167 9.11644 32.1634 9.02411 32.161C8.93178 32.1587 8.85484 32.1575 8.79329 32.1575C8.46659 32.1575 8.17303 32.2415 7.91261 32.4096C7.65219 32.5777 7.47227 32.7967 7.37284 33.0666H7.31602V32.2427H6.50636Z" fill="#55B3FF"/>
<path fill-rule="evenodd" clip-rule="evenodd" d="M10.9808 37.4593C11.3525 37.6937 11.7845 37.8109 12.277 37.8109C12.7694 37.8109 13.2003 37.6937 13.5696 37.4593C13.9413 37.225 14.2301 36.8971 14.436 36.4757C14.6444 36.0543 14.7485 35.5618 14.7485 34.9984C14.7485 34.4302 14.6444 33.9342 14.436 33.5105C14.2301 33.0867 13.9413 32.7576 13.5696 32.5233C13.2003 32.2889 12.7694 32.1717 12.277 32.1717C11.7845 32.1717 11.3525 32.2889 10.9808 32.5233C10.6115 32.7576 10.3226 33.0867 10.1143 33.5105C9.90835 33.9342 9.80536 34.4302 9.80536 34.9984C9.80536 35.5618 9.90835 36.0543 10.1143 36.4757C10.3226 36.8971 10.6115 37.225 10.9808 37.4593ZM13.2003 36.7704C12.9588 36.9622 12.651 37.0581 12.277 37.0581C11.9029 37.0581 11.5951 36.9622 11.3537 36.7704C11.1122 36.5787 10.9334 36.3265 10.8174 36.014C10.7014 35.7015 10.6434 35.363 10.6434 34.9984C10.6434 34.6338 10.7014 34.2941 10.8174 33.9792C10.9334 33.6644 11.1122 33.4099 11.3537 33.2157C11.5951 33.0216 11.9029 32.9245 12.277 32.9245C12.651 32.9245 12.9588 33.0216 13.2003 33.2157C13.4417 33.4099 13.6205 33.6644 13.7365 33.9792C13.8525 34.2941 13.9105 34.6338 13.9105 34.9984C13.9105 35.363 13.8525 35.7015 13.7365 36.014C13.6205 36.3265 13.4417 36.5787 13.2003 36.7704Z" fill="#55B3FF"/>
<path d="M15.9923 39.7072C16.1036 39.7309 16.2303 39.7427 16.3723 39.7427C16.6256 39.7427 16.8529 39.6977 17.0541 39.6078C17.2577 39.5178 17.4365 39.3793 17.5903 39.1923C17.7442 39.0076 17.8733 38.7744 17.9774 38.4927L20.2928 32.2427H19.3837L17.878 36.5893H17.8212L16.3155 32.2427H15.4064L17.4234 37.7257L17.2672 38.1518C17.1654 38.4288 17.0529 38.6288 16.9298 38.752C16.8091 38.8774 16.6706 38.9473 16.5143 38.9615C16.3581 38.9757 16.1782 38.9567 15.9746 38.9047L15.7615 39.6433C15.8041 39.6646 15.8811 39.6859 15.9923 39.7072Z" fill="#55B3FF"/>
<path fill-rule="evenodd" clip-rule="evenodd" d="M22.1305 37.4629C22.5116 37.6949 22.965 37.8109 23.4906 37.8109C23.8599 37.8109 24.1925 37.7541 24.4884 37.6404C24.7844 37.5244 25.0329 37.3635 25.2342 37.1575C25.4354 36.9492 25.5786 36.7077 25.6639 36.4331L24.8542 36.2058C24.7832 36.3952 24.6826 36.5538 24.5523 36.6816C24.4221 36.8071 24.2671 36.9018 24.0871 36.9657C23.9096 37.0273 23.7107 37.0581 23.4906 37.0581C23.152 37.0581 22.8549 36.9847 22.5992 36.8379C22.3435 36.6887 22.1435 36.4721 21.9991 36.188C21.8703 35.9283 21.7999 35.617 21.7879 35.2541H25.7491V34.899C25.7491 34.39 25.6816 33.9615 25.5467 33.6135C25.4117 33.2654 25.2306 32.9861 25.0033 32.7754C24.7761 32.5623 24.5239 32.4084 24.2469 32.3137C23.97 32.219 23.6894 32.1717 23.4053 32.1717C22.9129 32.1717 22.482 32.2924 22.1127 32.5339C21.7458 32.773 21.4593 33.1068 21.2533 33.5353C21.0497 33.9615 20.9479 34.4539 20.9479 35.0126C20.9479 35.5713 21.0497 36.0614 21.2533 36.4828C21.4593 36.9018 21.7517 37.2285 22.1305 37.4629ZM21.79 34.5297C21.806 34.2766 21.8697 34.0375 21.9813 33.8123C22.1115 33.5495 22.2974 33.3365 22.5389 33.1731C22.7827 33.0074 23.0715 32.9245 23.4053 32.9245C23.7084 32.9245 23.9711 32.9944 24.1937 33.1341C24.4186 33.2737 24.5914 33.4643 24.7121 33.7058C24.8353 33.9473 24.8968 34.2219 24.8968 34.5297H21.79Z" fill="#55B3FF"/>
<path d="M27.9188 37.4487C28.2881 37.6902 28.7285 37.8109 29.2398 37.8109C29.6423 37.8109 29.9951 37.7363 30.2981 37.5872C30.6035 37.4357 30.8485 37.2321 31.0332 36.9764C31.2202 36.7183 31.3374 36.4283 31.3847 36.1064H30.5467C30.4946 36.3052 30.407 36.4757 30.2839 36.6177C30.1608 36.7598 30.0104 36.8687 29.8329 36.9444C29.6553 37.0202 29.4576 37.0581 29.2398 37.0581C28.9084 37.0581 28.6196 36.9716 28.3734 36.7988C28.1295 36.626 27.9401 36.3833 27.8052 36.0708C27.6726 35.7583 27.6063 35.3914 27.6063 34.97C27.6063 34.5581 27.6738 34.1994 27.8087 33.894C27.946 33.5862 28.1366 33.3483 28.3805 33.1802C28.6267 33.0098 28.9131 32.9245 29.2398 32.9245C29.6092 32.9245 29.9027 33.0216 30.1205 33.2157C30.3407 33.4075 30.4827 33.6277 30.5467 33.8762H31.3847C31.3374 33.5353 31.2155 33.237 31.019 32.9814C30.8225 32.7257 30.5703 32.5268 30.2626 32.3848C29.9548 32.2427 29.6092 32.1717 29.2256 32.1717C28.7332 32.1717 28.3023 32.2924 27.933 32.5339C27.5661 32.773 27.2796 33.1056 27.0737 33.5318C26.8701 33.9556 26.7683 34.4444 26.7683 34.9984C26.7683 35.5429 26.8677 36.027 27.0666 36.4508C27.2654 36.8746 27.5495 37.2072 27.9188 37.4487Z" fill="#55B3FF"/>
<path d="M34.982 32.9529V32.2427H33.8173V30.9359H32.9792V32.2427H32.1553V32.9529H32.9792V36.362C32.9792 36.6793 33.0526 36.9421 33.1994 37.1504C33.3485 37.3587 33.5355 37.5138 33.7604 37.6156C33.9877 37.7174 34.2197 37.7683 34.4565 37.7683C34.6127 37.7683 34.7417 37.7565 34.8435 37.7328C34.9453 37.7115 35.0247 37.6902 35.0815 37.6689L34.911 36.916L34.769 36.9444C34.7098 36.9539 34.634 36.9586 34.5417 36.9586C34.4186 36.9586 34.3014 36.9397 34.1901 36.9018C34.0812 36.8616 33.9913 36.7834 33.9202 36.6674C33.8516 36.5491 33.8173 36.3715 33.8173 36.1348V32.9529H34.982Z" fill="#55B3FF"/>
<path fill-rule="evenodd" clip-rule="evenodd" d="M37.1038 37.4593C37.4755 37.6937 37.9076 37.8109 38.4 37.8109C38.8924 37.8109 39.3233 37.6937 39.6926 37.4593C40.0643 37.225 40.3531 36.8971 40.5591 36.4757C40.7674 36.0543 40.8716 35.5618 40.8716 34.9984C40.8716 34.4302 40.7674 33.9342 40.5591 33.5105C40.3531 33.0867 40.0643 32.7576 39.6926 32.5233C39.3233 32.2889 38.8924 32.1717 38.4 32.1717C37.9076 32.1717 37.4755 32.2889 37.1038 32.5233C36.7345 32.7576 36.4457 33.0867 36.2374 33.5105C36.0314 33.9342 35.9284 34.4302 35.9284 34.9984C35.9284 35.5618 36.0314 36.0543 36.2374 36.4757C36.4457 36.8971 36.7345 37.225 37.1038 37.4593ZM39.3233 36.7704C39.0818 36.9622 38.7741 37.0581 38.4 37.0581C38.026 37.0581 37.7182 36.9622 37.4767 36.7704C37.2352 36.5787 37.0565 36.3265 36.9405 36.014C36.8245 35.7015 36.7665 35.363 36.7665 34.9984C36.7665 34.6338 36.8245 34.2941 36.9405 33.9792C37.0565 33.6644 37.2352 33.4099 37.4767 33.2157C37.7182 33.0216 38.026 32.9245 38.4 32.9245C38.7741 32.9245 39.0818 33.0216 39.3233 33.2157C39.5648 33.4099 39.7435 33.6644 39.8595 33.9792C39.9755 34.2941 40.0335 34.6338 40.0335 34.9984C40.0335 35.363 39.9755 35.7015 39.8595 36.014C39.7435 36.3265 39.5648 36.5787 39.3233 36.7704Z" fill="#55B3FF"/>
<path d="M45.2617 33.6774L46.0145 33.4643C45.8843 33.0761 45.6642 32.7636 45.354 32.5268C45.0463 32.2901 44.6225 32.1717 44.0827 32.1717C43.6992 32.1717 43.3559 32.2392 43.0529 32.3741C42.7522 32.5091 42.5143 32.6949 42.3391 32.9316C42.1663 33.1684 42.0799 33.4406 42.0799 33.7484C42.0799 34.1248 42.1959 34.4385 42.4279 34.6895C42.6623 34.938 43.0292 35.1215 43.5287 35.2399L44.4378 35.4529C44.7124 35.5169 44.916 35.6139 45.0486 35.7441C45.1812 35.872 45.2475 36.0306 45.2475 36.22C45.2475 36.4544 45.1315 36.6556 44.8995 36.8237C44.6698 36.9894 44.3597 37.0723 43.9691 37.0723C43.6258 37.0723 43.3476 36.9989 43.1346 36.8521C42.9239 36.7053 42.7806 36.4851 42.7049 36.1916L41.9094 36.3904C42.0065 36.8545 42.2373 37.2072 42.6019 37.4487C42.9665 37.6902 43.4269 37.8109 43.9833 37.8109C44.407 37.8109 44.7787 37.7399 45.0983 37.5978C45.4179 37.4558 45.6665 37.2617 45.8441 37.0154C46.024 36.7692 46.114 36.4899 46.114 36.1774C46.114 35.7962 45.9944 35.4849 45.7553 35.2434C45.5162 34.9996 45.1528 34.8185 44.6651 34.7001L43.8554 34.5012C43.5335 34.4207 43.2967 34.3201 43.1452 34.1994C42.9937 34.0787 42.9179 33.9141 42.9179 33.7058C42.9179 33.4714 43.028 33.2785 43.2482 33.127C43.4707 32.9731 43.7489 32.8961 44.0827 32.8961C44.3266 32.8961 44.5266 32.9352 44.6829 33.0133C44.8391 33.0914 44.9622 33.1909 45.0522 33.3116C45.1445 33.43 45.2143 33.5519 45.2617 33.6774Z" fill="#55B3FF"/>
</svg>
