<svg width="28" height="38" viewBox="0 0 28 38" fill="none" xmlns="http://www.w3.org/2000/svg">
<path fill-rule="evenodd" clip-rule="evenodd" d="M14.6005 0.611024C14.2438 0.348409 13.7578 0.348409 13.4011 0.611024L4.50927 7.15868C3.4826 7.91469 2.87647 9.11375 2.87647 10.3887V21.174C2.87647 23.1133 4.44854 24.6853 6.38777 24.6853H9.96689C11.0777 24.6853 11.9782 23.7848 11.9782 22.674V17.1006H16.0234V22.674C16.0234 23.7848 16.9239 24.6853 18.0347 24.6853H21.6138C23.5531 24.6853 25.1251 23.1133 25.1251 21.174V10.3887C25.1251 9.11375 24.519 7.91468 23.4923 7.15868L14.6005 0.611024ZM5.70858 8.78736L14.0008 2.68127L22.293 8.78736C22.802 9.16217 23.1025 9.75663 23.1025 10.3887V21.174C23.1025 21.9962 22.436 22.6627 21.6138 22.6627H18.046V16.5893C18.046 15.7546 17.3694 15.078 16.5347 15.078H11.4669C10.6322 15.078 9.95559 15.7546 9.95559 16.5893V22.6627H6.38777C5.56559 22.6627 4.89908 21.9962 4.89908 21.174V10.3887C4.89908 9.75663 5.19958 9.16217 5.70858 8.78736Z" fill="#CFD1DE"/>
<path d="M0.940186 30.1413V37.4141H1.82087V34.1612H5.69871V37.4141H6.57939V30.1413H5.69871V33.38H1.82087V30.1413H0.940186Z" fill="#CFD1DE"/>
<path fill-rule="evenodd" clip-rule="evenodd" d="M9.14864 37.1761C9.52032 37.4105 9.95238 37.5277 10.4448 37.5277C10.9372 37.5277 11.3681 37.4105 11.7374 37.1761C12.1091 36.9418 12.3979 36.6139 12.6039 36.1925C12.8122 35.7711 12.9164 35.2786 12.9164 34.7152C12.9164 34.147 12.8122 33.651 12.6039 33.2273C12.3979 32.8035 12.1091 32.4744 11.7374 32.2401C11.3681 32.0057 10.9372 31.8885 10.4448 31.8885C9.95238 31.8885 9.52032 32.0057 9.14864 32.2401C8.77932 32.4744 8.49049 32.8035 8.28216 33.2273C8.07619 33.651 7.97321 34.147 7.97321 34.7152C7.97321 35.2786 8.07619 35.7711 8.28216 36.1925C8.49049 36.6139 8.77932 36.9418 9.14864 37.1761ZM11.3681 36.4872C11.1266 36.679 10.8189 36.7749 10.4448 36.7749C10.0707 36.7749 9.76298 36.679 9.52151 36.4872C9.28003 36.2955 9.10129 36.0433 8.98528 35.7308C8.86928 35.4183 8.81128 35.0798 8.81128 34.7152C8.81128 34.3506 8.86928 34.0109 8.98528 33.696C9.10129 33.3812 9.28003 33.1267 9.52151 32.9325C9.76298 32.7384 10.0707 32.6413 10.4448 32.6413C10.8189 32.6413 11.1266 32.7384 11.3681 32.9325C11.6096 33.1267 11.7883 33.3812 11.9043 33.696C12.0203 34.0109 12.0783 34.3506 12.0783 34.7152C12.0783 35.0798 12.0203 35.4183 11.9043 35.7308C11.7883 36.0433 11.6096 36.2955 11.3681 36.4872Z" fill="#CFD1DE"/>
<path d="M14.1957 31.9595V37.4141H15.0338V34.005C15.0338 33.7375 15.0906 33.5019 15.2042 33.2983C15.3202 33.0923 15.4717 32.9313 15.6588 32.8153C15.8482 32.6993 16.0518 32.6413 16.2696 32.6413C16.5868 32.6413 16.846 32.7372 17.0473 32.929C17.2485 33.1184 17.3491 33.3681 17.3491 33.6783V37.4141H18.2014V33.8629C18.2014 33.5102 18.3067 33.219 18.5174 32.9893C18.7281 32.7573 19.0252 32.6413 19.4088 32.6413C19.7071 32.6413 19.9663 32.7277 20.1865 32.9006C20.4066 33.0734 20.5167 33.361 20.5167 33.7635V37.4141H21.3548V33.7635C21.3548 33.1219 21.1997 32.6496 20.8896 32.3466C20.5795 32.0412 20.1805 31.8885 19.6929 31.8885C19.3022 31.8885 18.9672 31.9725 18.6879 32.1406C18.4085 32.3063 18.199 32.5301 18.0593 32.8118H18.0025C17.8676 32.5206 17.6794 32.2945 17.4379 32.1335C17.1988 31.9702 16.8993 31.8885 16.5394 31.8885C16.1843 31.8885 15.8801 31.9702 15.6268 32.1335C15.3735 32.2945 15.19 32.5206 15.0764 32.8118H15.0053V31.9595H14.1957Z" fill="#CFD1DE"/>
<path fill-rule="evenodd" clip-rule="evenodd" d="M23.8139 37.1797C24.1951 37.4117 24.6485 37.5277 25.174 37.5277C25.5433 37.5277 25.876 37.4709 26.1719 37.3572C26.4678 37.2412 26.7164 37.0803 26.9176 36.8743C27.1189 36.666 27.2621 36.4245 27.3473 36.1499L26.5377 35.9226C26.4666 36.112 26.366 36.2706 26.2358 36.3984C26.1056 36.5239 25.9505 36.6186 25.7706 36.6825C25.5931 36.7441 25.3942 36.7749 25.174 36.7749C24.8355 36.7749 24.5384 36.7015 24.2827 36.5547C24.027 36.4055 23.827 36.1889 23.6826 35.9048C23.5538 35.6451 23.4834 35.3338 23.4713 34.9709H27.4326V34.6158C27.4326 34.1068 27.3651 33.6783 27.2301 33.3303C27.0952 32.9822 26.9141 32.7029 26.6868 32.4922C26.4595 32.2791 26.2074 32.1252 25.9304 32.0305C25.6534 31.9358 25.3729 31.8885 25.0888 31.8885C24.5964 31.8885 24.1655 32.0092 23.7962 32.2507C23.4292 32.4898 23.1428 32.8236 22.9368 33.2521C22.7332 33.6783 22.6314 34.1707 22.6314 34.7294C22.6314 35.2881 22.7332 35.7782 22.9368 36.1996C23.1428 36.6186 23.4352 36.9453 23.8139 37.1797ZM23.4735 34.2464C23.4894 33.9934 23.5532 33.7543 23.6648 33.5291C23.795 33.2663 23.9808 33.0533 24.2223 32.8899C24.4662 32.7242 24.755 32.6413 25.0888 32.6413C25.3918 32.6413 25.6546 32.7112 25.8772 32.8509C26.1021 32.9905 26.2749 33.1811 26.3956 33.4226C26.5187 33.6641 26.5803 33.9387 26.5803 34.2464H23.4735Z" fill="#CFD1DE"/>
</svg>
