<svg width="47" height="40" viewBox="0 0 47 40" fill="none" xmlns="http://www.w3.org/2000/svg">
<path fill-rule="evenodd" clip-rule="evenodd" d="M29.0689 2.36636H28.8962C28.4797 1.18799 27.3559 0.34375 26.035 0.34375H19.9671C18.6462 0.34375 17.5224 1.18799 17.1059 2.36636H16.9332C14.6991 2.36636 12.888 4.17745 12.888 6.41156V20.5698C12.888 22.8039 14.6991 24.615 16.9332 24.615H29.0689C31.303 24.615 33.1141 22.8039 33.1141 20.5698V6.41157C33.1141 4.17746 31.303 2.36636 29.0689 2.36636ZM14.9106 6.41156C14.9106 5.29451 15.8162 4.38896 16.9332 4.38896C16.9332 6.06454 18.2916 7.42287 19.9671 7.42287H26.035C27.7105 7.42287 29.0689 6.06454 29.0689 4.38896C30.1859 4.38896 31.0915 5.29451 31.0915 6.41157V20.5698C31.0915 21.6869 30.1859 22.5924 29.0689 22.5924H16.9332C15.8162 22.5924 14.9106 21.6869 14.9106 20.5698V6.41156ZM19.9671 2.36636C19.4086 2.36636 18.9558 2.81913 18.9558 3.37766V4.38896C18.9558 4.94749 19.4086 5.40026 19.9671 5.40026H26.035C26.5935 5.40026 27.0463 4.94749 27.0463 4.38896V3.37766C27.0463 2.81913 26.5935 2.36636 26.035 2.36636H19.9671Z" fill="#CFD1DE"/>
<path fill-rule="evenodd" clip-rule="evenodd" d="M0.272461 30.071V37.3438H1.15314V34.6875H2.74405C3.30987 34.6875 3.77388 34.5845 4.1361 34.3786C4.49831 34.1702 4.76583 33.8909 4.93865 33.5405C5.11384 33.1901 5.20144 32.8007 5.20144 32.3722C5.20144 31.9437 5.11384 31.5554 4.93865 31.2074C4.76346 30.8594 4.49358 30.5836 4.12899 30.38C3.76678 30.174 3.3004 30.071 2.72985 30.071H0.272461ZM1.15314 33.9062H2.71564C3.10627 33.9062 3.41995 33.8388 3.65669 33.7038C3.89344 33.5689 4.06507 33.3866 4.17161 33.157C4.28051 32.925 4.33496 32.6634 4.33496 32.3722C4.33496 32.081 4.28051 31.8205 4.17161 31.5909C4.06507 31.3613 3.89225 31.1813 3.65314 31.0511C3.41403 30.9186 3.0968 30.8523 2.70144 30.8523H1.15314V33.9062Z" fill="#CFD1DE"/>
<path d="M6.50648 31.8892V37.3438H7.34455V33.892C7.34455 33.6458 7.40373 33.4268 7.52211 33.2351C7.64284 33.041 7.8062 32.8894 8.01216 32.7805C8.2205 32.6693 8.45724 32.6136 8.72239 32.6136C8.83366 32.6136 8.93901 32.6219 9.03844 32.6385C9.14024 32.6527 9.20534 32.6634 9.23375 32.6705V31.8182C9.18641 31.8134 9.11657 31.8099 9.02424 31.8075C8.93191 31.8052 8.85497 31.804 8.79341 31.804C8.46671 31.804 8.17315 31.888 7.91273 32.0561C7.65231 32.2242 7.47239 32.4432 7.37296 32.7131H7.31614V31.8892H6.50648Z" fill="#CFD1DE"/>
<path fill-rule="evenodd" clip-rule="evenodd" d="M10.9809 37.1058C11.3526 37.3402 11.7847 37.4574 12.2771 37.4574C12.7695 37.4574 13.2004 37.3402 13.5697 37.1058C13.9414 36.8714 14.2302 36.5436 14.4362 36.1222C14.6445 35.7008 14.7487 35.2083 14.7487 34.6449C14.7487 34.0767 14.6445 33.5807 14.4362 33.157C14.2302 32.7332 13.9414 32.4041 13.5697 32.1697C13.2004 31.9354 12.7695 31.8182 12.2771 31.8182C11.7847 31.8182 11.3526 31.9354 10.9809 32.1697C10.6116 32.4041 10.3228 32.7332 10.1144 33.157C9.90847 33.5807 9.80549 34.0767 9.80549 34.6449C9.80549 35.2083 9.90847 35.7008 10.1144 36.1222C10.3228 36.5436 10.6116 36.8714 10.9809 37.1058ZM13.2004 36.4169C12.9589 36.6087 12.6511 36.7045 12.2771 36.7045C11.903 36.7045 11.5953 36.6087 11.3538 36.4169C11.1123 36.2251 10.9336 35.973 10.8176 35.6605C10.7016 35.348 10.6436 35.0095 10.6436 34.6449C10.6436 34.2803 10.7016 33.9406 10.8176 33.6257C10.9336 33.3108 11.1123 33.0563 11.3538 32.8622C11.5953 32.6681 11.903 32.571 12.2771 32.571C12.6511 32.571 12.9589 32.6681 13.2004 32.8622C13.4418 33.0563 13.6206 33.3108 13.7366 33.6257C13.8526 33.9406 13.9106 34.2803 13.9106 34.6449C13.9106 35.0095 13.8526 35.348 13.7366 35.6605C13.6206 35.973 13.4418 36.2251 13.2004 36.4169Z" fill="#CFD1DE"/>
<path d="M15.9925 39.3537C16.1037 39.3774 16.2304 39.3892 16.3724 39.3892C16.6257 39.3892 16.853 39.3442 17.0542 39.2543C17.2578 39.1643 17.4366 39.0258 17.5905 38.8388C17.7443 38.6541 17.8734 38.4209 17.9775 38.1392L20.2929 31.8892H19.3838L17.8781 36.2358H17.8213L16.3156 31.8892H15.4065L17.4236 37.3722L17.2673 37.7983C17.1655 38.0753 17.0531 38.2753 16.93 38.3984C16.8092 38.5239 16.6707 38.5938 16.5145 38.608C16.3582 38.6222 16.1783 38.6032 15.9747 38.5511L15.7616 39.2898C15.8042 39.3111 15.8812 39.3324 15.9925 39.3537Z" fill="#CFD1DE"/>
<path fill-rule="evenodd" clip-rule="evenodd" d="M22.1306 37.1094C22.5117 37.3414 22.9651 37.4574 23.4907 37.4574C23.86 37.4574 24.1926 37.4006 24.4885 37.2869C24.7845 37.1709 25.0331 37.0099 25.2343 36.804C25.4355 36.5956 25.5787 36.3542 25.664 36.0795L24.8543 35.8523C24.7833 36.0417 24.6827 36.2003 24.5525 36.3281C24.4223 36.4536 24.2672 36.5483 24.0873 36.6122C23.9097 36.6738 23.7108 36.7045 23.4907 36.7045C23.1521 36.7045 22.855 36.6312 22.5993 36.4844C22.3437 36.3352 22.1436 36.1186 21.9992 35.8345C21.8704 35.5748 21.8 35.2635 21.788 34.9006H25.7492V34.5455C25.7492 34.0365 25.6817 33.608 25.5468 33.2599C25.4118 32.9119 25.2307 32.6326 25.0035 32.4219C24.7762 32.2088 24.5241 32.0549 24.2471 31.9602C23.9701 31.8655 23.6895 31.8182 23.4055 31.8182C22.913 31.8182 22.4822 31.9389 22.1128 32.1804C21.7459 32.4195 21.4594 32.7533 21.2535 33.1818C21.0499 33.608 20.9481 34.1004 20.9481 34.6591C20.9481 35.2178 21.0499 35.7079 21.2535 36.1293C21.4594 36.5483 21.7518 36.875 22.1306 37.1094ZM21.7901 34.1761C21.8061 33.9231 21.8699 33.684 21.9814 33.4588C22.1117 33.196 22.2975 32.983 22.539 32.8196C22.7828 32.6539 23.0716 32.571 23.4055 32.571C23.7085 32.571 23.9713 32.6409 24.1938 32.7805C24.4187 32.9202 24.5915 33.1108 24.7123 33.3523C24.8354 33.5938 24.8969 33.8684 24.8969 34.1761H21.7901Z" fill="#CFD1DE"/>
<path d="M27.9189 37.0952C28.2883 37.3366 28.7286 37.4574 29.24 37.4574C29.6424 37.4574 29.9952 37.3828 30.2982 37.2337C30.6036 37.0821 30.8486 36.8786 31.0333 36.6229C31.2203 36.3648 31.3375 36.0748 31.3849 35.7528H30.5468C30.4947 35.9517 30.4071 36.1222 30.284 36.2642C30.1609 36.4062 30.0106 36.5152 29.833 36.5909C29.6555 36.6667 29.4578 36.7045 29.24 36.7045C28.9085 36.7045 28.6197 36.6181 28.3735 36.4453C28.1296 36.2725 27.9403 36.0298 27.8053 35.7173C27.6727 35.4048 27.6064 35.0379 27.6064 34.6165C27.6064 34.2045 27.6739 33.8459 27.8089 33.5405C27.9462 33.2327 28.1367 32.9948 28.3806 32.8267C28.6268 32.6562 28.9133 32.571 29.24 32.571C29.6093 32.571 29.9028 32.6681 30.1206 32.8622C30.3408 33.054 30.4829 33.2741 30.5468 33.5227H31.3849C31.3375 33.1818 31.2156 32.8835 31.0191 32.6278C30.8226 32.3722 30.5705 32.1733 30.2627 32.0312C29.9549 31.8892 29.6093 31.8182 29.2258 31.8182C28.7333 31.8182 28.3025 31.9389 27.9331 32.1804C27.5662 32.4195 27.2797 32.7521 27.0738 33.1783C26.8702 33.602 26.7684 34.0909 26.7684 34.6449C26.7684 35.1894 26.8678 35.6735 27.0667 36.0973C27.2655 36.5211 27.5496 36.8537 27.9189 37.0952Z" fill="#CFD1DE"/>
<path d="M34.9822 32.5994V31.8892H33.8174V30.5824H32.9793V31.8892H32.1555V32.5994H32.9793V36.0085C32.9793 36.3258 33.0527 36.5885 33.1995 36.7969C33.3486 37.0052 33.5357 37.1603 33.7606 37.2621C33.9878 37.3639 34.2198 37.4148 34.4566 37.4148C34.6128 37.4148 34.7419 37.4029 34.8437 37.3793C34.9455 37.358 35.0248 37.3366 35.0816 37.3153L34.9111 36.5625L34.7691 36.5909C34.7099 36.6004 34.6341 36.6051 34.5418 36.6051C34.4187 36.6051 34.3015 36.5862 34.1903 36.5483C34.0814 36.508 33.9914 36.4299 33.9204 36.3139C33.8517 36.1955 33.8174 36.018 33.8174 35.7812V32.5994H34.9822Z" fill="#CFD1DE"/>
<path fill-rule="evenodd" clip-rule="evenodd" d="M37.104 37.1058C37.4756 37.3402 37.9077 37.4574 38.4001 37.4574C38.8925 37.4574 39.3234 37.3402 39.6927 37.1058C40.0644 36.8714 40.3532 36.5436 40.5592 36.1222C40.7675 35.7008 40.8717 35.2083 40.8717 34.6449C40.8717 34.0767 40.7675 33.5807 40.5592 33.157C40.3532 32.7332 40.0644 32.4041 39.6927 32.1697C39.3234 31.9354 38.8925 31.8182 38.4001 31.8182C37.9077 31.8182 37.4756 31.9354 37.104 32.1697C36.7346 32.4041 36.4458 32.7332 36.2375 33.157C36.0315 33.5807 35.9285 34.0767 35.9285 34.6449C35.9285 35.2083 36.0315 35.7008 36.2375 36.1222C36.4458 36.5436 36.7346 36.8714 37.104 37.1058ZM39.3234 36.4169C39.0819 36.6087 38.7742 36.7045 38.4001 36.7045C38.0261 36.7045 37.7183 36.6087 37.4768 36.4169C37.2354 36.2251 37.0566 35.973 36.9406 35.6605C36.8246 35.348 36.7666 35.0095 36.7666 34.6449C36.7666 34.2803 36.8246 33.9406 36.9406 33.6257C37.0566 33.3108 37.2354 33.0563 37.4768 32.8622C37.7183 32.6681 38.0261 32.571 38.4001 32.571C38.7742 32.571 39.0819 32.6681 39.3234 32.8622C39.5649 33.0563 39.7436 33.3108 39.8596 33.6257C39.9756 33.9406 40.0336 34.2803 40.0336 34.6449C40.0336 35.0095 39.9756 35.348 39.8596 35.6605C39.7436 35.973 39.5649 36.2251 39.3234 36.4169Z" fill="#CFD1DE"/>
<path d="M45.2618 33.3239L46.0146 33.1108C45.8844 32.7225 45.6643 32.41 45.3541 32.1733C45.0464 31.9366 44.6226 31.8182 44.0828 31.8182C43.6993 31.8182 43.356 31.8857 43.053 32.0206C42.7523 32.1555 42.5144 32.3414 42.3392 32.5781C42.1664 32.8149 42.08 33.0871 42.08 33.3949C42.08 33.7713 42.196 34.085 42.428 34.3359C42.6624 34.5845 43.0293 34.768 43.5289 34.8864L44.4379 35.0994C44.7126 35.1634 44.9162 35.2604 45.0487 35.3906C45.1813 35.5185 45.2476 35.6771 45.2476 35.8665C45.2476 36.1009 45.1316 36.3021 44.8996 36.4702C44.67 36.6359 44.3598 36.7188 43.9692 36.7188C43.6259 36.7188 43.3477 36.6454 43.1347 36.4986C42.924 36.3518 42.7807 36.1316 42.705 35.8381L41.9095 36.0369C42.0066 36.5009 42.2374 36.8537 42.602 37.0952C42.9666 37.3366 43.4271 37.4574 43.9834 37.4574C44.4072 37.4574 44.7789 37.3864 45.0985 37.2443C45.4181 37.1023 45.6666 36.9081 45.8442 36.6619C46.0241 36.4157 46.1141 36.1364 46.1141 35.8239C46.1141 35.4427 45.9945 35.1314 45.7554 34.8899C45.5163 34.6461 45.1529 34.465 44.6652 34.3466L43.8556 34.1477C43.5336 34.0672 43.2968 33.9666 43.1453 33.8459C42.9938 33.7251 42.9181 33.5606 42.9181 33.3523C42.9181 33.1179 43.0281 32.925 43.2483 32.7734C43.4709 32.6196 43.749 32.5426 44.0828 32.5426C44.3267 32.5426 44.5267 32.5817 44.683 32.6598C44.8392 32.7379 44.9623 32.8374 45.0523 32.9581C45.1446 33.0765 45.2145 33.1984 45.2618 33.3239Z" fill="#CFD1DE"/>
</svg>
