<svg width="28" height="38" viewBox="0 0 28 38" fill="none" xmlns="http://www.w3.org/2000/svg">
<path fill-rule="evenodd" clip-rule="evenodd" d="M14.6007 0.196962C14.2441 -0.0656538 13.758 -0.0656538 13.4014 0.196962L4.50952 6.74462C3.48284 7.50062 2.87672 8.69968 2.87672 9.97468V20.76C2.87672 22.6992 4.44878 24.2713 6.38802 24.2713H9.96714C11.078 24.2713 11.9784 23.3708 11.9784 22.26V16.6865H16.0237V22.26C16.0237 23.3708 16.9241 24.2713 18.035 24.2713H21.6141C23.5533 24.2713 25.1254 22.6992 25.1254 20.76V9.97468C25.1254 8.69968 24.5193 7.50062 23.4926 6.74462L14.6007 0.196962ZM5.70882 8.3733L14.001 2.26721L22.2933 8.3733C22.8023 8.74811 23.1028 9.34257 23.1028 9.97468V20.76C23.1028 21.5821 22.4363 22.2487 21.6141 22.2487H18.0463V16.1752C18.0463 15.3405 17.3696 14.6639 16.535 14.6639H11.4671C10.6325 14.6639 9.95584 15.3405 9.95584 16.1752V22.2487H6.38802C5.56583 22.2487 4.89932 21.5821 4.89932 20.76V9.97468C4.89932 9.34257 5.19982 8.74811 5.70882 8.3733Z" fill="#CFD1DE"/>
<path d="M0.94043 29.7273V37H1.82111V33.7472H5.69895V37H6.57964V29.7273H5.69895V32.9659H1.82111V29.7273H0.94043Z" fill="#CFD1DE"/>
<path fill-rule="evenodd" clip-rule="evenodd" d="M9.14888 36.7621C9.52057 36.9964 9.95262 37.1136 10.445 37.1136C10.9375 37.1136 11.3683 36.9964 11.7377 36.7621C12.1093 36.5277 12.3982 36.1998 12.6041 35.7784C12.8125 35.357 12.9166 34.8646 12.9166 34.3011C12.9166 33.733 12.8125 33.237 12.6041 32.8132C12.3982 32.3894 12.1093 32.0604 11.7377 31.826C11.3683 31.5916 10.9375 31.4744 10.445 31.4744C9.95262 31.4744 9.52057 31.5916 9.14888 31.826C8.77956 32.0604 8.49074 32.3894 8.28241 32.8132C8.07644 33.237 7.97346 33.733 7.97346 34.3011C7.97346 34.8646 8.07644 35.357 8.28241 35.7784C8.49074 36.1998 8.77956 36.5277 9.14888 36.7621ZM11.3683 36.0732C11.1269 36.2649 10.8191 36.3608 10.445 36.3608C10.071 36.3608 9.76323 36.2649 9.52175 36.0732C9.28028 35.8814 9.10153 35.6293 8.98553 35.3168C8.86953 35.0043 8.81153 34.6657 8.81153 34.3011C8.81153 33.9366 8.86953 33.5968 8.98553 33.282C9.10153 32.9671 9.28028 32.7126 9.52175 32.5185C9.76323 32.3243 10.071 32.2273 10.445 32.2273C10.8191 32.2273 11.1269 32.3243 11.3683 32.5185C11.6098 32.7126 11.7886 32.9671 11.9046 33.282C12.0206 33.5968 12.0786 33.9366 12.0786 34.3011C12.0786 34.6657 12.0206 35.0043 11.9046 35.3168C11.7886 35.6293 11.6098 35.8814 11.3683 36.0732Z" fill="#CFD1DE"/>
<path d="M14.1959 31.5455V37H15.034V33.5909C15.034 33.3234 15.0908 33.0878 15.2045 32.8842C15.3205 32.6783 15.472 32.5173 15.659 32.4013C15.8484 32.2853 16.052 32.2273 16.2698 32.2273C16.587 32.2273 16.8463 32.3232 17.0475 32.5149C17.2487 32.7043 17.3493 32.9541 17.3493 33.2642V37H18.2016V33.4489C18.2016 33.0961 18.307 32.8049 18.5177 32.5753C18.7284 32.3433 19.0255 32.2273 19.409 32.2273C19.7073 32.2273 19.9665 32.3137 20.1867 32.4865C20.4069 32.6593 20.517 32.947 20.517 33.3494V37H21.355V33.3494C21.355 32.7079 21.2 32.2356 20.8898 31.9325C20.5797 31.6271 20.1808 31.4744 19.6931 31.4744C19.3025 31.4744 18.9675 31.5585 18.6881 31.7266C18.4088 31.8923 18.1992 32.116 18.0596 32.3977H18.0028C17.8678 32.1065 17.6796 31.8804 17.4381 31.7195C17.199 31.5561 16.8995 31.4744 16.5397 31.4744C16.1846 31.4744 15.8804 31.5561 15.627 31.7195C15.3737 31.8804 15.1903 32.1065 15.0766 32.3977H15.0056V31.5455H14.1959Z" fill="#CFD1DE"/>
<path fill-rule="evenodd" clip-rule="evenodd" d="M23.8142 36.7656C24.1953 36.9976 24.6487 37.1136 25.1743 37.1136C25.5436 37.1136 25.8762 37.0568 26.1721 36.9432C26.4681 36.8272 26.7167 36.6662 26.9179 36.4602C27.1191 36.2519 27.2623 36.0104 27.3476 35.7358L26.5379 35.5085C26.4669 35.6979 26.3663 35.8565 26.2361 35.9844C26.1059 36.1098 25.9508 36.2045 25.7709 36.2685C25.5933 36.33 25.3944 36.3608 25.1743 36.3608C24.8357 36.3608 24.5386 36.2874 24.2829 36.1406C24.0273 35.9915 23.8272 35.7749 23.6828 35.4908C23.554 35.231 23.4836 34.9197 23.4716 34.5568H27.4328V34.2017C27.4328 33.6927 27.3653 33.2642 27.2304 32.9162C27.0954 32.5682 26.9143 32.2888 26.6871 32.0781C26.4598 31.8651 26.2077 31.7112 25.9307 31.6165C25.6537 31.5218 25.3731 31.4744 25.089 31.4744C24.5966 31.4744 24.1658 31.5952 23.7964 31.8366C23.4295 32.0758 23.143 32.4096 22.9371 32.8381C22.7335 33.2642 22.6317 33.7566 22.6317 34.3153C22.6317 34.8741 22.7335 35.3641 22.9371 35.7855C23.143 36.2045 23.4354 36.5312 23.8142 36.7656ZM23.4737 33.8324C23.4897 33.5794 23.5535 33.3403 23.665 33.1151C23.7952 32.8523 23.9811 32.6392 24.2226 32.4759C24.4664 32.3101 24.7552 32.2273 25.089 32.2273C25.3921 32.2273 25.6549 32.2971 25.8774 32.4368C26.1023 32.5765 26.2751 32.767 26.3959 33.0085C26.519 33.25 26.5805 33.5246 26.5805 33.8324H23.4737Z" fill="#CFD1DE"/>
</svg>
