<svg width="24" height="37" viewBox="0 0 24 37" fill="none" xmlns="http://www.w3.org/2000/svg">
<path fill-rule="evenodd" clip-rule="evenodd" d="M6.93225 6.42329C6.93225 3.07212 9.64891 0.355469 13.0001 0.355469C16.3512 0.355469 19.0679 3.07212 19.0679 6.42329C19.0679 9.77445 16.3512 12.4911 13.0001 12.4911C9.64891 12.4911 6.93225 9.77445 6.93225 6.42329ZM13.0001 2.37807C10.766 2.37807 8.95486 4.18918 8.95486 6.42329C8.95486 8.65739 10.766 10.4685 13.0001 10.4685C15.2342 10.4685 17.0453 8.65739 17.0453 6.42329C17.0453 4.18918 15.2342 2.37807 13.0001 2.37807Z" fill="#CFD1DE"/>
<path d="M13.0001 17.042C10.5888 17.042 8.30474 17.5802 6.74829 18.0623C5.87155 18.3338 5.22653 19.1282 5.06875 20.1425L4.89763 21.2426C4.81178 21.7945 4.29479 22.1723 3.7429 22.0865C3.19101 22.0006 2.81321 21.4836 2.89906 20.9317L3.07018 19.8316C3.32957 18.1642 4.43414 16.6616 6.14989 16.1302C7.81297 15.6151 10.3113 15.0194 13.0001 15.0194C15.6888 15.0194 18.1872 15.6151 19.8503 16.1302C21.566 16.6616 22.6706 18.1642 22.93 19.8316L23.1011 20.9317C23.1869 21.4836 22.8091 22.0006 22.2572 22.0865C21.7053 22.1723 21.1884 21.7945 21.1025 21.2426L20.9314 20.1425C20.7736 19.1282 20.1286 18.3338 19.2518 18.0623C17.6954 17.5802 15.4113 17.042 13.0001 17.042Z" fill="#CFD1DE"/>
<path fill-rule="evenodd" clip-rule="evenodd" d="M0.620117 29.0714V36.3442H1.5008V33.6879H3.09171C3.65752 33.6879 4.12154 33.5849 4.48375 33.379C4.84597 33.1706 5.11349 32.8913 5.28631 32.5409C5.4615 32.1905 5.54909 31.8011 5.54909 31.3726C5.54909 30.9441 5.4615 30.5558 5.28631 30.2078C5.11112 29.8598 4.84123 29.584 4.47665 29.3804C4.11444 29.1744 3.64805 29.0714 3.0775 29.0714H0.620117ZM1.5008 32.9067H3.0633C3.45392 32.9067 3.76761 32.8392 4.00435 32.7043C4.24109 32.5693 4.41273 32.387 4.51926 32.1574C4.62817 31.9254 4.68262 31.6638 4.68262 31.3726C4.68262 31.0814 4.62817 30.821 4.51926 30.5913C4.41273 30.3617 4.23991 30.1818 4.0008 30.0516C3.76169 29.919 3.44445 29.8527 3.04909 29.8527H1.5008V32.9067Z" fill="#CFD1DE"/>
<path fill-rule="evenodd" clip-rule="evenodd" d="M7.72239 36.1098C8.10355 36.3418 8.55691 36.4578 9.08248 36.4578C9.45179 36.4578 9.78442 36.401 10.0803 36.2873C10.3763 36.1713 10.6249 36.0104 10.8261 35.8044C11.0273 35.5961 11.1705 35.3546 11.2558 35.08L10.4461 34.8527C10.3751 35.0421 10.2745 35.2007 10.1443 35.3285C10.0141 35.454 9.85899 35.5487 9.67907 35.6126C9.50151 35.6742 9.30265 35.705 9.08248 35.705C8.74393 35.705 8.44682 35.6316 8.19114 35.4848C7.93546 35.3356 7.73541 35.119 7.591 34.8349C7.4622 34.5752 7.3918 34.2639 7.37978 33.901H11.341V33.5459C11.341 33.0369 11.2735 32.6084 11.1386 32.2604C11.0036 31.9123 10.8225 31.633 10.5953 31.4223C10.368 31.2092 10.1159 31.0553 9.83887 30.9606C9.56188 30.8659 9.28134 30.8186 8.99725 30.8186C8.50482 30.8186 8.07395 30.9393 7.70463 31.1808C7.33768 31.4199 7.05123 31.7537 6.84526 32.1822C6.64166 32.6084 6.53986 33.1008 6.53986 33.6595C6.53986 34.2182 6.64166 34.7083 6.84526 35.1297C7.05123 35.5487 7.3436 35.8754 7.72239 36.1098ZM7.38192 33.1766C7.39788 32.9235 7.46166 32.6844 7.57324 32.4592C7.70345 32.1964 7.88929 31.9834 8.13077 31.82C8.37462 31.6543 8.66344 31.5714 8.99725 31.5714C9.30028 31.5714 9.56306 31.6413 9.7856 31.781C10.0105 31.9206 10.1833 32.1112 10.3041 32.3527C10.4272 32.5942 10.4887 32.8688 10.4887 33.1766H7.38192Z" fill="#CFD1DE"/>
<path d="M12.6159 30.8896V36.3442H13.4539V32.8925C13.4539 32.6462 13.5131 32.4273 13.6315 32.2355C13.7522 32.0414 13.9156 31.8899 14.1215 31.781C14.3299 31.6697 14.5666 31.6141 14.8318 31.6141C14.943 31.6141 15.0484 31.6223 15.1478 31.6389C15.2496 31.6531 15.3147 31.6638 15.3431 31.6709V30.8186C15.2958 30.8139 15.2259 30.8103 15.1336 30.8079C15.0413 30.8056 14.9643 30.8044 14.9028 30.8044C14.5761 30.8044 14.2825 30.8884 14.0221 31.0565C13.7617 31.2246 13.5818 31.4436 13.4823 31.7135H13.4255V30.8896H12.6159Z" fill="#CFD1DE"/>
<path d="M19.1073 31.5998V30.8896H17.8857V30.3356C17.8857 30.0658 17.9461 29.861 18.0669 29.7213C18.19 29.5816 18.39 29.5118 18.667 29.5118C18.7877 29.5118 18.8848 29.5224 18.9582 29.5437C19.0339 29.565 19.0931 29.5828 19.1357 29.597L19.3772 28.8726C19.3133 28.8442 19.2162 28.8134 19.086 28.7802C18.9558 28.7471 18.7877 28.7305 18.5818 28.7305C18.3213 28.7305 18.074 28.7826 17.8396 28.8868C17.6052 28.9909 17.4146 29.1472 17.2678 29.3555C17.1211 29.5639 17.0477 29.8243 17.0477 30.1368V30.8896H16.167V31.5998H17.0477V36.3442H17.8857V31.5998H19.1073Z" fill="#CFD1DE"/>
<path d="M20.2819 30.8896V36.3442H21.1199V30.8896H20.2819Z" fill="#CFD1DE"/>
<path d="M20.2854 29.8136C20.4038 29.9249 20.5447 29.9805 20.708 29.9805C20.8714 29.9805 21.011 29.9249 21.127 29.8136C21.2454 29.7024 21.3046 29.5686 21.3046 29.4123C21.3046 29.2561 21.2454 29.1223 21.127 29.0111C21.011 28.8998 20.8714 28.8442 20.708 28.8442C20.5447 28.8442 20.4038 28.8998 20.2854 29.0111C20.1694 29.1223 20.1114 29.2561 20.1114 29.4123C20.1114 29.5686 20.1694 29.7024 20.2854 29.8136Z" fill="#CFD1DE"/>
<path d="M23.493 36.3442V29.0714H22.6549V36.3442H23.493Z" fill="#CFD1DE"/>
</svg>
