<svg width="24" height="37" viewBox="0 0 24 37" fill="none" xmlns="http://www.w3.org/2000/svg">
<path fill-rule="evenodd" clip-rule="evenodd" d="M6.93207 6.77643C6.93207 3.42527 9.64872 0.708618 12.9999 0.708618C16.351 0.708618 19.0677 3.42527 19.0677 6.77643C19.0677 10.1276 16.351 12.8443 12.9999 12.8443C9.64872 12.8443 6.93207 10.1276 6.93207 6.77643ZM12.9999 2.73122C10.7658 2.73122 8.95467 4.54233 8.95467 6.77643C8.95467 9.01054 10.7658 10.8216 12.9999 10.8216C15.234 10.8216 17.0451 9.01054 17.0451 6.77643C17.0451 4.54233 15.234 2.73122 12.9999 2.73122Z" fill="#CFD1DE"/>
<path d="M12.9999 17.3951C10.6002 17.3951 8.32638 17.9282 6.77026 18.4086C5.87952 18.6835 5.22498 19.4902 5.06479 20.52L4.89745 21.5958C4.8116 22.1477 4.29461 22.5255 3.74272 22.4396C3.19083 22.3538 2.81303 21.8368 2.89888 21.2849L3.06622 20.2091C3.32791 18.5268 4.44186 17.0106 6.17367 16.476C7.83653 15.9626 10.3239 15.3725 12.9999 15.3725C15.6759 15.3725 18.1632 15.9626 19.8261 16.476C21.5579 17.0106 22.6719 18.5268 22.9336 20.2091L23.1009 21.2849C23.1867 21.8368 22.8089 22.3538 22.2571 22.4396C21.7052 22.5255 21.1882 22.1477 21.1023 21.5958L20.935 20.52C20.7748 19.4902 20.1203 18.6835 19.2295 18.4086C17.6734 17.9282 15.3996 17.3951 12.9999 17.3951Z" fill="#CFD1DE"/>
<path fill-rule="evenodd" clip-rule="evenodd" d="M0.619934 29.4246V36.6973H1.50062V34.0411H3.09153C3.65734 34.0411 4.12135 33.9381 4.48357 33.7321C4.84579 33.5238 5.11331 33.2444 5.28613 32.894C5.46132 32.5437 5.54891 32.1542 5.54891 31.7257C5.54891 31.2972 5.46132 30.909 5.28613 30.561C5.11094 30.2129 4.84105 29.9371 4.47647 29.7335C4.11425 29.5276 3.64787 29.4246 3.07732 29.4246H0.619934ZM1.50062 33.2598H3.06312C3.45374 33.2598 3.76742 33.1923 4.00417 33.0574C4.24091 32.9225 4.41255 32.7402 4.51908 32.5105C4.62798 32.2785 4.68243 32.0169 4.68243 31.7257C4.68243 31.4345 4.62798 31.1741 4.51908 30.9445C4.41255 30.7148 4.23973 30.5349 4.00062 30.4047C3.76151 30.2721 3.44427 30.2058 3.04891 30.2058H1.50062V33.2598Z" fill="#CFD1DE"/>
<path fill-rule="evenodd" clip-rule="evenodd" d="M7.72221 36.4629C8.10336 36.6949 8.55672 36.811 9.08229 36.811C9.45161 36.811 9.78423 36.7541 10.0802 36.6405C10.3761 36.5245 10.6247 36.3635 10.8259 36.1575C11.0271 35.9492 11.1704 35.7077 11.2556 35.4331L10.4459 35.2058C10.3749 35.3952 10.2743 35.5538 10.1441 35.6817C10.0139 35.8072 9.85881 35.9019 9.67888 35.9658C9.50133 36.0273 9.30246 36.0581 9.08229 36.0581C8.74375 36.0581 8.44664 35.9847 8.19096 35.8379C7.93528 35.6888 7.73523 35.4722 7.59081 35.1881C7.46202 34.9283 7.39161 34.617 7.3796 34.2541H11.3408V33.899C11.3408 33.39 11.2733 32.9615 11.1384 32.6135C11.0035 32.2655 10.8223 31.9861 10.5951 31.7754C10.3678 31.5624 10.1157 31.4085 9.83868 31.3138C9.5617 31.2191 9.28116 31.1717 8.99706 31.1717C8.50464 31.1717 8.07377 31.2925 7.70445 31.534C7.3375 31.7731 7.05104 32.1069 6.84508 32.5354C6.64148 32.9615 6.53968 33.4539 6.53968 34.0127C6.53968 34.5714 6.64148 35.0614 6.84508 35.4828C7.05104 35.9019 7.34342 36.2286 7.72221 36.4629ZM7.38174 33.5297C7.3977 33.2767 7.46147 33.0376 7.57306 32.8124C7.70327 32.5496 7.88911 32.3365 8.13059 32.1732C8.37443 32.0074 8.66326 31.9246 8.99706 31.9246C9.30009 31.9246 9.56288 31.9944 9.78542 32.1341C10.0103 32.2738 10.1831 32.4644 10.3039 32.7058C10.427 32.9473 10.4885 33.2219 10.4885 33.5297H7.38174Z" fill="#CFD1DE"/>
<path d="M12.6157 31.2428V36.6973H13.4537V33.2456C13.4537 32.9994 13.5129 32.7804 13.6313 32.5886C13.752 32.3945 13.9154 32.243 14.1214 32.1341C14.3297 32.0228 14.5664 31.9672 14.8316 31.9672C14.9429 31.9672 15.0482 31.9755 15.1476 31.9921C15.2494 32.0063 15.3145 32.0169 15.3429 32.024V31.1717C15.2956 31.167 15.2258 31.1635 15.1334 31.1611C15.0411 31.1587 14.9642 31.1575 14.9026 31.1575C14.5759 31.1575 14.2823 31.2416 14.0219 31.4097C13.7615 31.5778 13.5816 31.7967 13.4822 32.0666H13.4253V31.2428H12.6157Z" fill="#CFD1DE"/>
<path d="M19.1071 31.953V31.2428H17.8856V30.6888C17.8856 30.4189 17.9459 30.2141 18.0667 30.0744C18.1898 29.9348 18.3898 29.8649 18.6668 29.8649C18.7875 29.8649 18.8846 29.8756 18.958 29.8969C19.0338 29.9182 19.0929 29.936 19.1356 29.9502L19.377 29.2257C19.3131 29.1973 19.2161 29.1665 19.0858 29.1334C18.9556 29.1003 18.7875 29.0837 18.5816 29.0837C18.3212 29.0837 18.0738 29.1358 17.8394 29.2399C17.605 29.3441 17.4144 29.5003 17.2677 29.7087C17.1209 29.917 17.0475 30.1774 17.0475 30.4899V31.2428H16.1668V31.953H17.0475V36.6973H17.8856V31.953H19.1071Z" fill="#CFD1DE"/>
<path d="M20.2817 31.2428V36.6973H21.1198V31.2428H20.2817Z" fill="#CFD1DE"/>
<path d="M20.2852 30.1668C20.4036 30.278 20.5445 30.3337 20.7078 30.3337C20.8712 30.3337 21.0109 30.278 21.1269 30.1668C21.2452 30.0555 21.3044 29.9217 21.3044 29.7655C21.3044 29.6092 21.2452 29.4755 21.1269 29.3642C21.0109 29.2529 20.8712 29.1973 20.7078 29.1973C20.5445 29.1973 20.4036 29.2529 20.2852 29.3642C20.1692 29.4755 20.1112 29.6092 20.1112 29.7655C20.1112 29.9217 20.1692 30.0555 20.2852 30.1668Z" fill="#CFD1DE"/>
<path d="M23.4928 36.6973V29.4246H22.6547V36.6973H23.4928Z" fill="#CFD1DE"/>
</svg>
