<svg width="21" height="20" viewBox="0 0 21 20" fill="none" xmlns="http://www.w3.org/2000/svg">
<path d="M10.9347 0C3.95017 0 -0.808419 7.07702 1.82681 13.5453L2.95338 16.3105C3.05419 16.558 2.9805 16.8422 2.77217 17.0096L0.389956 18.9227C0.190063 19.0832 0.113253 19.3524 0.198343 19.5943C0.283431 19.8361 0.511889 19.9979 0.768263 19.9979H10.2178C16.0452 19.9979 20.7694 15.2738 20.7694 9.44632C20.7694 4.22926 16.5401 0 11.323 0H10.9347Z" fill="#CFD1DE"/>
<path d="M10.9729 6.32518C10.8239 6.06838 10.453 6.06838 10.304 6.32518L9.25458 8.13374C9.18097 8.2606 9.05373 8.34717 8.90871 8.36908L6.942 8.66612C6.61168 8.71601 6.49581 9.13308 6.75306 9.34621L8.21818 10.56C8.3538 10.6724 8.41757 10.8496 8.38462 11.0226L8.00137 13.0353C7.94078 13.3535 8.27478 13.6007 8.56136 13.4498L10.4133 12.4747C10.5542 12.4004 10.7227 12.4004 10.8636 12.4747L12.7155 13.4498C13.0021 13.6007 13.3361 13.3535 13.2755 13.0353L12.8923 11.0226C12.8593 10.8496 12.9231 10.6724 13.0587 10.56L14.5238 9.34621C14.7811 9.13308 14.6652 8.71601 14.3349 8.66612L12.3682 8.36908C12.2232 8.34717 12.0959 8.2606 12.0223 8.13374L10.9729 6.32518Z" fill="white"/>
</svg>
