<svg width="25" height="24" viewBox="0 0 25 24" fill="none" xmlns="http://www.w3.org/2000/svg">
<path d="M18.7761 23.5073C18.5433 23.5067 18.3112 23.4817 18.0838 23.4329C13.7547 22.5574 9.7664 20.5046 6.57799 17.5109C3.45761 14.5106 1.29346 10.6905 0.347379 6.51289C0.235824 5.99224 0.263204 5.45228 0.426884 4.94496C0.590565 4.43764 0.885037 3.98005 1.28197 3.61619L4.05113 1.01051C4.19257 0.879745 4.36062 0.779607 4.54433 0.716633C4.72803 0.653659 4.92325 0.629264 5.11725 0.64504C5.31841 0.665556 5.51252 0.728904 5.68595 0.830631C5.85937 0.932357 6.0079 1.06999 6.12107 1.23386L9.58252 6.2354C9.71233 6.42947 9.77499 6.65915 9.76128 6.89064C9.74757 7.12212 9.65822 7.3432 9.50637 7.52132L7.76872 9.55172C8.46077 11.0491 9.44084 12.4025 10.6556 13.5381C11.8624 14.7149 13.2889 15.6546 14.8578 16.3062L17.0108 14.6345C17.1916 14.4948 17.4117 14.4122 17.6417 14.3977C17.8717 14.3832 18.1008 14.4374 18.2985 14.5533L23.5252 17.8561C23.7046 17.9608 23.8574 18.1038 23.9722 18.2744C24.087 18.445 24.1608 18.6388 24.1881 18.8413C24.2154 19.0438 24.1955 19.2497 24.1299 19.4436C24.0642 19.6375 23.9546 19.8143 23.8091 19.9609L21.1091 22.5733C20.8025 22.8717 20.4384 23.1078 20.038 23.2681C19.6377 23.4284 19.2088 23.5097 18.7761 23.5073ZM5.00649 1.9851L2.23733 4.59078C2.01403 4.79419 1.84874 5.05092 1.7577 5.33572C1.66666 5.62052 1.65302 5.92358 1.71811 6.2151C2.59782 10.1352 4.62 13.7224 7.54027 16.5431C10.5408 19.3596 14.294 21.2904 18.3677 22.1131C18.676 22.1761 18.9956 22.1634 19.2976 22.076C19.5997 21.9886 19.8748 21.8292 20.0984 21.6123L22.7983 18.9998L17.7515 15.8121L15.4393 17.6124C15.3508 17.6809 15.2465 17.7272 15.1355 17.7472C15.0244 17.7673 14.9101 17.7605 14.8024 17.7275C12.8825 17.0359 11.1426 15.9381 9.70714 14.5127C8.22242 13.1572 7.06994 11.4914 6.33568 9.63971C6.30462 9.5276 6.30359 9.40957 6.33269 9.29697C6.36179 9.18436 6.42004 9.08097 6.50183 8.99675L8.37102 6.81068L5.00649 1.9851Z" fill="#389BEC"/>
</svg>
