<svg width="22" height="37" viewBox="0 0 22 37" fill="none" xmlns="http://www.w3.org/2000/svg">
<path d="M21.9212 7.60468C22.1921 3.86514 19.3802 0.614062 15.6406 0.343196C11.9011 0.0723277 8.64999 2.88424 8.37913 6.62378L21.9212 7.60468ZM5.41564 21.9338L0.58677 26.7056L10.1302 36.3633L14.9591 31.5916L5.41564 21.9338ZM8.37913 6.62378C8.09265 10.5788 8.23624 13.0381 7.74306 16.2705C7.30995 19.1092 6.53257 20.8301 5.41564 21.9338L14.9591 31.5916C19.0444 27.5547 20.5278 22.4963 21.1653 18.3184C21.7427 14.5341 21.7666 9.73959 21.9212 7.60468L8.37913 6.62378Z" fill="#F9D4BC"/>
<path d="M21.9212 7.60468C22.1921 3.86514 19.3802 0.614062 15.6406 0.343196C11.9011 0.0723277 8.64999 2.88424 8.37913 6.62378L21.9212 7.60468ZM5.41564 21.9338L0.58677 26.7056L10.1302 36.3633L14.9591 31.5916L5.41564 21.9338ZM8.37913 6.62378C8.09265 10.5788 8.23624 13.0381 7.74306 16.2705C7.30995 19.1092 6.53257 20.8301 5.41564 21.9338L14.9591 31.5916C19.0444 27.5547 20.5278 22.4963 21.1653 18.3184C21.7427 14.5341 21.7666 9.73959 21.9212 7.60468L8.37913 6.62378Z" fill="url(#paint0_radial_2223_17007)" fill-opacity="0.51"/>
<path d="M21.9212 7.60468C22.1921 3.86514 19.3802 0.614062 15.6406 0.343196C11.9011 0.0723277 8.64999 2.88424 8.37913 6.62378L21.9212 7.60468ZM5.41564 21.9338L0.58677 26.7056L10.1302 36.3633L14.9591 31.5916L5.41564 21.9338ZM8.37913 6.62378C8.09265 10.5788 8.23624 13.0381 7.74306 16.2705C7.30995 19.1092 6.53257 20.8301 5.41564 21.9338L14.9591 31.5916C19.0444 27.5547 20.5278 22.4963 21.1653 18.3184C21.7427 14.5341 21.7666 9.73959 21.9212 7.60468L8.37913 6.62378Z" fill="url(#paint1_linear_2223_17007)" fill-opacity="0.33"/>
<path d="M21.9212 7.60468C22.1921 3.86514 19.3802 0.614062 15.6406 0.343196C11.9011 0.0723277 8.64999 2.88424 8.37913 6.62378L21.9212 7.60468ZM5.41564 21.9338L0.58677 26.7056L10.1302 36.3633L14.9591 31.5916L5.41564 21.9338ZM8.37913 6.62378C8.09265 10.5788 8.23624 13.0381 7.74306 16.2705C7.30995 19.1092 6.53257 20.8301 5.41564 21.9338L14.9591 31.5916C19.0444 27.5547 20.5278 22.4963 21.1653 18.3184C21.7427 14.5341 21.7666 9.73959 21.9212 7.60468L8.37913 6.62378Z" fill="#5C170D" fill-opacity="0.1"/>
<path d="M21.9212 7.60468C22.1921 3.86514 19.3802 0.614062 15.6406 0.343196C11.9011 0.0723277 8.64999 2.88424 8.37913 6.62378L21.9212 7.60468ZM5.41564 21.9338L0.58677 26.7056L10.1302 36.3633L14.9591 31.5916L5.41564 21.9338ZM8.37913 6.62378C8.09265 10.5788 8.23624 13.0381 7.74306 16.2705C7.30995 19.1092 6.53257 20.8301 5.41564 21.9338L14.9591 31.5916C19.0444 27.5547 20.5278 22.4963 21.1653 18.3184C21.7427 14.5341 21.7666 9.73959 21.9212 7.60468L8.37913 6.62378Z" fill="#FF9ABE" fill-opacity="0.13"/>
<defs>
<radialGradient id="paint0_radial_2223_17007" cx="0" cy="0" r="1" gradientUnits="userSpaceOnUse" gradientTransform="translate(-6.99618 24.0637) rotate(-141.409) scale(39.7177 67.9733)">
<stop offset="0.162651" stop-color="#5C170D"/>
<stop offset="0.453125" stop-color="#FEBA88"/>
<stop offset="1" stop-color="#5C170D"/>
</radialGradient>
<linearGradient id="paint1_linear_2223_17007" x1="7.0151" y1="14.3809" x2="22.5593" y2="17.3131" gradientUnits="userSpaceOnUse">
<stop stop-color="#914B3F"/>
<stop offset="1" stop-color="#FFF8F7" stop-opacity="0"/>
</linearGradient>
</defs>
</svg>
