<svg width="43" height="17" viewBox="0 0 43 17" fill="none" xmlns="http://www.w3.org/2000/svg">
<path d="M0.746338 2.71595C0.746338 1.90683 1.68898 1.1958 2.52405 0.94295C2.52405 2.19193 2.52405 2.07247 3.25155 2.4631C4.81731 3.30383 18.0251 4.25274 23.3486 4.25274C28.6722 4.25274 37.7607 2.90774 39.5772 2.21025C40.8718 1.71315 40.6178 0.94295 40.6178 0.443359C41.8704 0.443359 41.8736 1.53599 42.0824 1.9574C42.1868 4.9916 42.3955 11.414 42.3955 12.83C42.3955 14.2459 38.3881 14.8306 35.2847 15.6113C26.9365 17.7114 14.7141 16.6967 7.63568 15.6113C2.43167 14.8133 0.850722 14.0099 0.746338 13.3357V2.71595Z" fill="#1A4276"/>
<path d="M0.746338 2.71595C0.746338 1.90683 1.68898 1.1958 2.52405 0.94295C2.52405 2.19193 2.52405 2.07247 3.25155 2.4631C4.81731 3.30383 18.0251 4.25274 23.3486 4.25274C28.6722 4.25274 37.7607 2.90774 39.5772 2.21025C40.8718 1.71315 40.6178 0.94295 40.6178 0.443359C41.8704 0.443359 41.8736 1.53599 42.0824 1.9574C42.1868 4.9916 42.3955 11.414 42.3955 12.83C42.3955 14.2459 38.3881 14.8306 35.2847 15.6113C26.9365 17.7114 14.7141 16.6967 7.63568 15.6113C2.43167 14.8133 0.850722 14.0099 0.746338 13.3357V2.71595Z" fill="url(#paint0_linear_2220_17004)" fill-opacity="0.18"/>
<path d="M0.746338 2.71595C0.746338 1.90683 1.68898 1.1958 2.52405 0.94295C2.52405 2.19193 2.52405 2.07247 3.25155 2.4631C4.81731 3.30383 18.0251 4.25274 23.3486 4.25274C28.6722 4.25274 37.7607 2.90774 39.5772 2.21025C40.8718 1.71315 40.6178 0.94295 40.6178 0.443359C41.8704 0.443359 41.8736 1.53599 42.0824 1.9574C42.1868 4.9916 42.3955 11.414 42.3955 12.83C42.3955 14.2459 38.3881 14.8306 35.2847 15.6113C26.9365 17.7114 14.7141 16.6967 7.63568 15.6113C2.43167 14.8133 0.850722 14.0099 0.746338 13.3357V2.71595Z" fill="url(#paint1_linear_2220_17004)" fill-opacity="0.42"/>
<defs>
<linearGradient id="paint0_linear_2220_17004" x1="21.5709" y1="1.96711" x2="21.5709" y2="6.28441" gradientUnits="userSpaceOnUse">
<stop stop-color="#A2B0FF"/>
<stop offset="1" stop-color="#00A3FF" stop-opacity="0"/>
</linearGradient>
<linearGradient id="paint1_linear_2220_17004" x1="24.1105" y1="9.58587" x2="0.746339" y2="8.57003" gradientUnits="userSpaceOnUse">
<stop stop-color="#034DB0"/>
<stop offset="0.603899" stop-color="#034DB0" stop-opacity="0"/>
</linearGradient>
</defs>
</svg>
