<svg width="5" height="25" viewBox="0 0 5 25" fill="none" xmlns="http://www.w3.org/2000/svg">
<path d="M4.50517 2.1437C4.50517 3.26075 3.59962 4.16631 2.48257 4.16631C1.36551 4.16631 0.459961 3.26075 0.459961 2.1437C0.459961 1.02665 1.36551 0.121094 2.48257 0.121094C3.59962 0.121094 4.50517 1.02665 4.50517 2.1437Z" fill="#4E4B66"/>
<path d="M4.50517 12.257C4.50517 13.374 3.59962 14.2796 2.48257 14.2796C1.36551 14.2796 0.459961 13.374 0.459961 12.257C0.459961 11.1399 1.36551 10.2344 2.48257 10.2344C3.59962 10.2344 4.50517 11.1399 4.50517 12.257Z" fill="#4E4B66"/>
<path d="M4.50517 22.3703C4.50517 23.4873 3.59962 24.3929 2.48257 24.3929C1.36551 24.3929 0.459961 23.4873 0.459961 22.3703C0.459961 21.2532 1.36551 20.3477 2.48257 20.3477C3.59962 20.3477 4.50517 21.2532 4.50517 22.3703Z" fill="#4E4B66"/>
</svg>
