<svg width="25" height="24" viewBox="0 0 25 24" fill="none" xmlns="http://www.w3.org/2000/svg">
<path d="M18.7761 23.5076C18.5433 23.5069 18.3112 23.482 18.0838 23.4331C13.7547 22.5576 9.7664 20.5049 6.57799 17.5111C3.45761 14.5108 1.29346 10.6907 0.347379 6.51314C0.235824 5.99248 0.263204 5.45252 0.426884 4.9452C0.590565 4.43789 0.885037 3.98029 1.28197 3.61643L4.05113 1.01076C4.19257 0.87999 4.36062 0.779852 4.54433 0.716877C4.72803 0.653903 4.92325 0.629508 5.11725 0.645284C5.31841 0.6658 5.51252 0.729148 5.68595 0.830875C5.85937 0.932602 6.0079 1.07024 6.12107 1.2341L9.58252 6.23565C9.71233 6.42972 9.77499 6.65939 9.76128 6.89088C9.74757 7.12237 9.65822 7.34344 9.50637 7.52157L7.76872 9.55197C8.46077 11.0494 9.44084 12.4027 10.6556 13.5383C11.8624 14.7151 13.2889 15.6548 14.8578 16.3064L17.0108 14.6347C17.1916 14.495 17.4117 14.4124 17.6417 14.3979C17.8717 14.3834 18.1008 14.4377 18.2985 14.5535L23.5252 17.8563C23.7046 17.961 23.8574 18.104 23.9722 18.2746C24.087 18.4453 24.1608 18.6391 24.1881 18.8416C24.2154 19.0441 24.1955 19.25 24.1299 19.4438C24.0642 19.6377 23.9546 19.8146 23.8091 19.9611L21.1091 22.5736C20.8025 22.8719 20.4384 23.1081 20.038 23.2684C19.6377 23.4286 19.2088 23.5099 18.7761 23.5076ZM5.00649 1.98535L2.23733 4.59103C2.01403 4.79444 1.84874 5.05117 1.7577 5.33597C1.66666 5.62077 1.65302 5.92383 1.71811 6.21534C2.59782 10.1355 4.62 13.7226 7.54027 16.5433C10.5408 19.3598 14.294 21.2906 18.3677 22.1134C18.676 22.1764 18.9956 22.1636 19.2976 22.0762C19.5997 21.9888 19.8748 21.8295 20.0984 21.6125L22.7983 19.0001L17.7515 15.8124L15.4393 17.6126C15.3508 17.6811 15.2465 17.7274 15.1355 17.7475C15.0244 17.7675 14.9101 17.7607 14.8024 17.7277C12.8825 17.0361 11.1426 15.9384 9.70714 14.5129C8.22242 13.1574 7.06994 11.4917 6.33568 9.63995C6.30462 9.52785 6.30359 9.40982 6.33269 9.29721C6.36179 9.18461 6.42004 9.08122 6.50183 8.99699L8.37102 6.81093L5.00649 1.98535Z" fill="#389BEC"/>
</svg>
