<svg width="5" height="25" viewBox="0 0 5 25" fill="none" xmlns="http://www.w3.org/2000/svg">
<path d="M4.50517 2.49038C4.50517 3.60743 3.59962 4.51298 2.48257 4.51298C1.36551 4.51298 0.459961 3.60743 0.459961 2.49038C0.459961 1.37332 1.36551 0.467773 2.48257 0.467773C3.59962 0.467773 4.50517 1.37332 4.50517 2.49038Z" fill="#4E4B66"/>
<path d="M4.50517 12.6037C4.50517 13.7207 3.59962 14.6263 2.48257 14.6263C1.36551 14.6263 0.459961 13.7207 0.459961 12.6037C0.459961 11.4866 1.36551 10.5811 2.48257 10.5811C3.59962 10.5811 4.50517 11.4866 4.50517 12.6037Z" fill="#4E4B66"/>
<path d="M4.50517 22.7169C4.50517 23.834 3.59962 24.7395 2.48257 24.7395C1.36551 24.7395 0.459961 23.834 0.459961 22.7169C0.459961 21.5999 1.36551 20.6943 2.48257 20.6943C3.59962 20.6943 4.50517 21.5999 4.50517 22.7169Z" fill="#4E4B66"/>
</svg>
