<svg width="5" height="25" viewBox="0 0 5 25" fill="none" xmlns="http://www.w3.org/2000/svg">
<path d="M4.50517 2.31631C4.50517 3.43336 3.59962 4.33891 2.48257 4.33891C1.36551 4.33891 0.459961 3.43336 0.459961 2.31631C0.459961 1.19925 1.36551 0.293701 2.48257 0.293701C3.59962 0.293701 4.50517 1.19925 4.50517 2.31631Z" fill="#4E4B66"/>
<path d="M4.50517 12.4296C4.50517 13.5466 3.59962 14.4522 2.48257 14.4522C1.36551 14.4522 0.459961 13.5466 0.459961 12.4296C0.459961 11.3125 1.36551 10.407 2.48257 10.407C3.59962 10.407 4.50517 11.3125 4.50517 12.4296Z" fill="#4E4B66"/>
<path d="M4.50517 22.5429C4.50517 23.6599 3.59962 24.5655 2.48257 24.5655C1.36551 24.5655 0.459961 23.6599 0.459961 22.5429C0.459961 21.4258 1.36551 20.5203 2.48257 20.5203C3.59962 20.5203 4.50517 21.4258 4.50517 22.5429Z" fill="#4E4B66"/>
</svg>
