<svg width="5" height="26" viewBox="0 0 5 26" fill="none" xmlns="http://www.w3.org/2000/svg">
<path d="M4.50517 2.83706C4.50517 3.95411 3.59962 4.85966 2.48257 4.85966C1.36551 4.85966 0.459961 3.95411 0.459961 2.83706C0.459961 1.72 1.36551 0.814453 2.48257 0.814453C3.59962 0.814453 4.50517 1.72 4.50517 2.83706Z" fill="#4E4B66"/>
<path d="M4.50517 12.9503C4.50517 14.0674 3.59962 14.9729 2.48257 14.9729C1.36551 14.9729 0.459961 14.0674 0.459961 12.9503C0.459961 11.8333 1.36551 10.9277 2.48257 10.9277C3.59962 10.9277 4.50517 11.8333 4.50517 12.9503Z" fill="#4E4B66"/>
<path d="M4.50517 23.0636C4.50517 24.1807 3.59962 25.0862 2.48257 25.0862C1.36551 25.0862 0.459961 24.1807 0.459961 23.0636C0.459961 21.9466 1.36551 21.041 2.48257 21.041C3.59962 21.041 4.50517 21.9466 4.50517 23.0636Z" fill="#4E4B66"/>
</svg>
