<svg width="5" height="26" viewBox="0 0 5 26" fill="none" xmlns="http://www.w3.org/2000/svg">
<path d="M4.50517 2.79604C4.50517 3.9131 3.59962 4.81865 2.48257 4.81865C1.36551 4.81865 0.459961 3.9131 0.459961 2.79604C0.459961 1.67899 1.36551 0.773438 2.48257 0.773438C3.59962 0.773438 4.50517 1.67899 4.50517 2.79604Z" fill="#4E4B66"/>
<path d="M4.50517 12.9093C4.50517 14.0264 3.59962 14.9319 2.48257 14.9319C1.36551 14.9319 0.459961 14.0264 0.459961 12.9093C0.459961 11.7923 1.36551 10.8867 2.48257 10.8867C3.59962 10.8867 4.50517 11.7923 4.50517 12.9093Z" fill="#4E4B66"/>
<path d="M4.50517 23.0226C4.50517 24.1397 3.59962 25.0452 2.48257 25.0452C1.36551 25.0452 0.459961 24.1397 0.459961 23.0226C0.459961 21.9056 1.36551 21 2.48257 21C3.59962 21 4.50517 21.9056 4.50517 23.0226Z" fill="#4E4B66"/>
</svg>
