<svg width="18" height="19" viewBox="0 0 18 19" fill="none" xmlns="http://www.w3.org/2000/svg">
<path d="M14.5728 7.50667C14.566 9.01594 14.1536 10.4006 13.331 11.6537C13.2792 11.7322 13.2814 11.776 13.349 11.8452C14.7689 13.2922 16.1887 14.7414 17.6018 16.193C18.235 16.8438 18.0931 17.88 17.3178 18.3092C16.8287 18.5792 16.2157 18.4938 15.8078 18.0808C14.9807 17.2407 14.1626 16.3961 13.34 15.5515C12.736 14.9307 12.1298 14.3122 11.5281 13.6891C11.465 13.6245 11.4244 13.6291 11.359 13.6753C10.4102 14.333 9.36677 14.7438 8.23091 14.8938C7.25055 15.023 6.27921 14.9653 5.3304 14.6745C3.05643 13.9753 1.43828 12.5052 0.545814 10.2552C-0.231709 8.29592 -0.175367 6.31819 0.694558 4.39814C1.6028 2.39733 3.10601 1.03807 5.16814 0.389594C7.27985 -0.275036 9.30366 0.00420073 11.1742 1.21577C12.9006 2.33271 13.9756 3.9389 14.4195 5.98356C14.5277 6.48434 14.575 6.99205 14.5728 7.50667ZM2.59217 7.50206C2.59217 10.179 4.67683 12.3229 7.27985 12.3229C9.90765 12.3252 12.0013 10.1952 12.0036 7.5136C12.0058 4.84123 9.91892 2.68349 7.33168 2.68349C4.68359 2.6858 2.59217 4.81123 2.59217 7.50206Z" fill="#4E4B66"/>
</svg>
