<svg width="5" height="25" viewBox="0 0 5 25" fill="none" xmlns="http://www.w3.org/2000/svg">
<path d="M4.50517 2.10464C4.50517 3.22169 3.59962 4.12724 2.48257 4.12724C1.36551 4.12724 0.459961 3.22169 0.459961 2.10464C0.459961 0.987583 1.36551 0.0820312 2.48257 0.0820312C3.59962 0.0820312 4.50517 0.987583 4.50517 2.10464Z" fill="#4E4B66"/>
<path d="M4.50517 12.2179C4.50517 13.335 3.59962 14.2405 2.48257 14.2405C1.36551 14.2405 0.459961 13.335 0.459961 12.2179C0.459961 11.1009 1.36551 10.1953 2.48257 10.1953C3.59962 10.1953 4.50517 11.1009 4.50517 12.2179Z" fill="#4E4B66"/>
<path d="M4.50517 22.3312C4.50517 23.4483 3.59962 24.3538 2.48257 24.3538C1.36551 24.3538 0.459961 23.4483 0.459961 22.3312C0.459961 21.2141 1.36551 20.3086 2.48257 20.3086C3.59962 20.3086 4.50517 21.2141 4.50517 22.3312Z" fill="#4E4B66"/>
</svg>
