<svg width="21" height="21" viewBox="0 0 21 21" fill="none" xmlns="http://www.w3.org/2000/svg">
<path d="M10.9347 0.314453C3.95017 0.314453 -0.808419 7.39148 1.82681 13.8598L2.95338 16.625C3.05419 16.8724 2.9805 17.1567 2.77217 17.324L0.389956 19.2371C0.190063 19.3977 0.113253 19.6669 0.198343 19.9087C0.283431 20.1506 0.511889 20.3124 0.768263 20.3124H10.2178C16.0452 20.3124 20.7694 15.5883 20.7694 9.76077C20.7694 4.54372 16.5401 0.314453 11.323 0.314453H10.9347Z" fill="#CFD1DE"/>
<path d="M10.9729 6.63964C10.8239 6.38283 10.453 6.38283 10.304 6.63964L9.25458 8.44819C9.18097 8.57505 9.05373 8.66162 8.90871 8.68353L6.942 8.98058C6.61168 9.03047 6.49581 9.44753 6.75306 9.66066L8.21818 10.8745C8.3538 10.9869 8.41757 11.1641 8.38462 11.3371L8.00137 13.3498C7.94078 13.6679 8.27478 13.9151 8.56136 13.7642L10.4133 12.7891C10.5542 12.7149 10.7227 12.7149 10.8636 12.7891L12.7155 13.7642C13.0021 13.9151 13.3361 13.6679 13.2755 13.3498L12.8923 11.3371C12.8593 11.1641 12.9231 10.9869 13.0587 10.8745L14.5238 9.66066C14.7811 9.44753 14.6652 9.03047 14.3349 8.98058L12.3682 8.68353C12.2232 8.66162 12.0959 8.57505 12.0223 8.44819L10.9729 6.63964Z" fill="white"/>
</svg>
