<svg width="37" height="36" viewBox="0 0 37 36" fill="none" xmlns="http://www.w3.org/2000/svg">
<path d="M34.2338 5.2369H32.7573V3.74064C32.756 2.74893 32.3522 1.79817 31.6343 1.09692C30.9165 0.395672 29.9432 0.00118792 28.928 0H7.83319C6.81798 0.00118792 5.84469 0.395672 5.12682 1.09692C4.40895 1.79817 4.00512 2.74893 4.0039 3.74064V5.2369H2.52733C1.88806 5.20922 1.26352 5.42968 0.790035 5.85016C0.316546 6.27064 0.0325406 6.857 0 7.48128V11.9701C0 12.1685 0.0806885 12.3588 0.224315 12.4991C0.367941 12.6394 0.56274 12.7182 0.765858 12.7182C0.968976 12.7182 1.16377 12.6394 1.3074 12.4991C1.45103 12.3588 1.53172 12.1685 1.53172 11.9701V7.48128C1.5695 7.25645 1.69339 7.05405 1.87826 6.91513C2.06314 6.77621 2.29517 6.71116 2.52733 6.73315H4.0039V30.6733C4.00549 31.2381 4.22553 31.7815 4.61994 32.1945C5.01435 32.6075 5.55398 32.8597 6.13069 32.9004C6.12905 32.9061 6.12777 32.9118 6.12686 32.9176V33.6658C6.12686 34.261 6.36893 34.8319 6.7998 35.2528C7.23068 35.6737 7.81508 35.9102 8.42443 35.9102H11.4879C12.0972 35.9102 12.6816 35.6737 13.1125 35.2528C13.5434 34.8319 13.7854 34.261 13.7854 33.6658V32.9176H22.9757V33.6658C22.9757 34.261 23.2178 34.8319 23.6487 35.2528C24.0796 35.6737 24.6639 35.9102 25.2733 35.9102H28.3367C28.9461 35.9102 29.5305 35.6737 29.9614 35.2528C30.3922 34.8319 30.6343 34.261 30.6343 33.6658V32.9176C30.6347 32.9119 30.6347 32.9062 30.6343 32.9004C31.2103 32.8588 31.749 32.6062 32.1426 32.1933C32.5362 31.7804 32.7558 31.2375 32.7573 30.6733V6.73315H34.2338C34.466 6.71116 34.698 6.77621 34.8829 6.91513C35.0678 7.05405 35.1917 7.25645 35.2295 7.48128V11.9701C35.2295 12.1685 35.3101 12.3588 35.4538 12.4991C35.5974 12.6394 35.7922 12.7182 35.9953 12.7182C36.1984 12.7182 36.3932 12.6394 36.5369 12.4991C36.6805 12.3588 36.7612 12.1685 36.7612 11.9701V7.48128C36.7286 6.857 36.4446 6.27064 35.9711 5.85016C35.4976 5.42968 34.8731 5.20922 34.2338 5.2369ZM26.6518 27.6807H10.1131C9.80934 26.6903 9.21281 25.8096 8.39843 25.1492C7.58405 24.4887 6.58811 24.078 5.53562 23.9685V22.4438H31.2255V23.9685C30.1737 24.0787 29.1786 24.4898 28.365 25.1501C27.5514 25.8105 26.9554 26.6909 26.6518 27.6807ZM5.53562 4.48877H31.2255V20.9476H5.53562V4.48877ZM7.83319 1.49626H28.928C29.4015 1.49817 29.8628 1.64295 30.2488 1.91079C30.6349 2.17862 30.9268 2.55642 31.0846 2.99251H5.67654C5.83437 2.55642 6.12627 2.17862 6.51232 1.91079C6.89836 1.64295 7.35969 1.49817 7.83319 1.49626ZM5.53562 30.6733V25.476C6.44438 25.6078 7.27453 26.0538 7.87499 26.7331C8.47544 27.4123 8.80631 28.2796 8.80736 29.177V31.4214H6.30148C6.09836 31.4214 5.90356 31.3426 5.75993 31.2023C5.61631 31.062 5.53562 30.8717 5.53562 30.6733ZM12.2537 33.6658C12.2537 33.8642 12.173 34.0545 12.0294 34.1948C11.8858 34.3351 11.691 34.4139 11.4879 34.4139H8.42443C8.22132 34.4139 8.02652 34.3351 7.88289 34.1948C7.73926 34.0545 7.65858 33.8642 7.65858 33.6658V32.9176H12.2537V33.6658ZM10.3391 31.4214V29.177H26.4221V31.4214H10.3391ZM29.1026 33.6658C29.1026 33.8642 29.0219 34.0545 28.8783 34.1948C28.7346 34.3351 28.5399 34.4139 28.3367 34.4139H25.2733C25.0702 34.4139 24.8754 34.3351 24.7318 34.1948C24.5881 34.0545 24.5074 33.8642 24.5074 33.6658V32.9176H29.1026V33.6658ZM31.2255 30.6733C31.2255 30.8717 31.1449 31.062 31.0012 31.2023C30.8576 31.3426 30.6628 31.4214 30.4597 31.4214H27.9538V29.177C27.9549 28.2796 28.2857 27.4123 28.8862 26.7331C29.4866 26.0538 30.3168 25.6078 31.2255 25.476V30.6733Z" fill="#55B3FF"/>
</svg>
