<svg width="117" height="25" viewBox="0 0 117 25" fill="none" xmlns="http://www.w3.org/2000/svg">
<g filter="url(#filter0_d_2223_16905)">
<path d="M112.564 1.68847C68.7837 23.6942 21.1853 10.8575 2.85864 1.68847V8.05854C40.667 29.9903 101.874 19.7009 113.067 6.95685C113.432 6.54133 113.632 6.03763 113.728 5.49295L114.413 1.59339C114.488 1.1701 114.036 0.851453 113.662 1.06394L112.564 1.68847Z" fill="#1C3D8C"/>
<path d="M112.564 1.68847C68.7837 23.6942 21.1853 10.8575 2.85864 1.68847V8.05854C40.667 29.9903 101.874 19.7009 113.067 6.95685C113.432 6.54133 113.632 6.03763 113.728 5.49295L114.413 1.59339C114.488 1.1701 114.036 0.851453 113.662 1.06394L112.564 1.68847Z" fill="url(#paint0_linear_2223_16905)" fill-opacity="0.57"/>
<path d="M112.564 1.68847C68.7837 23.6942 21.1853 10.8575 2.85864 1.68847V8.05854C40.667 29.9903 101.874 19.7009 113.067 6.95685C113.432 6.54133 113.632 6.03763 113.728 5.49295L114.413 1.59339C114.488 1.1701 114.036 0.851453 113.662 1.06394L112.564 1.68847Z" fill="black" fill-opacity="0.2"/>
</g>
<defs>
<filter id="filter0_d_2223_16905" x="0.826974" y="0.996094" width="115.626" height="23.9139" filterUnits="userSpaceOnUse" color-interpolation-filters="sRGB">
<feFlood flood-opacity="0" result="BackgroundImageFix"/>
<feColorMatrix in="SourceAlpha" type="matrix" values="0 0 0 0 0 0 0 0 0 0 0 0 0 0 0 0 0 0 127 0" result="hardAlpha"/>
<feOffset dy="2.03167"/>
<feGaussianBlur stdDeviation="1.01583"/>
<feComposite in2="hardAlpha" operator="out"/>
<feColorMatrix type="matrix" values="0 0 0 0 0 0 0 0 0 0 0 0 0 0 0 0 0 0 0.07 0"/>
<feBlend mode="normal" in2="BackgroundImageFix" result="effect1_dropShadow_2223_16905"/>
<feBlend mode="normal" in="SourceGraphic" in2="effect1_dropShadow_2223_16905" result="shape"/>
</filter>
<linearGradient id="paint0_linear_2223_16905" x1="119.68" y1="-8.61224" x2="18.3501" y2="2.30798" gradientUnits="userSpaceOnUse">
<stop stop-color="#98D3F4"/>
<stop offset="0.31531" stop-color="#2B73FF" stop-opacity="0"/>
<stop offset="0.651037" stop-color="#98D3F4" stop-opacity="0.23"/>
<stop offset="1" stop-color="#3F85FD" stop-opacity="0.0437054"/>
</linearGradient>
</defs>
</svg>
