<svg width="21" height="20" viewBox="0 0 21 20" fill="none" xmlns="http://www.w3.org/2000/svg">
<path d="M10.9356 0C3.95114 0 -0.807443 7.07702 1.82778 13.5453L2.95436 16.3105C3.05517 16.558 2.98147 16.8422 2.77315 17.0096L0.390933 18.9227C0.19104 19.0832 0.11423 19.3524 0.199319 19.5943C0.284408 19.8361 0.512866 19.9979 0.769239 19.9979H10.2187C16.0462 19.9979 20.7703 15.2738 20.7703 9.44632C20.7703 4.22926 16.5411 0 11.324 0H10.9356Z" fill="#CFD1DE"/>
<path d="M10.9739 6.32518C10.8249 6.06838 10.454 6.06838 10.305 6.32518L9.25555 8.13374C9.18194 8.2606 9.05471 8.34717 8.90969 8.36908L6.94298 8.66612C6.61265 8.71601 6.49679 9.13308 6.75404 9.34621L8.21915 10.56C8.35477 10.6724 8.41854 10.8496 8.3856 11.0226L8.00235 13.0353C7.94176 13.3535 8.27576 13.6007 8.56234 13.4498L10.4142 12.4747C10.5552 12.4004 10.7237 12.4004 10.8646 12.4747L12.7165 13.4498C13.0031 13.6007 13.3371 13.3535 13.2765 13.0353L12.8933 11.0226C12.8603 10.8496 12.9241 10.6724 13.0597 10.56L14.5248 9.34621C14.7821 9.13308 14.6662 8.71601 14.3359 8.66612L12.3692 8.36908C12.2241 8.34717 12.0969 8.2606 12.0233 8.13374L10.9739 6.32518Z" fill="white"/>
</svg>
