<svg width="22" height="37" viewBox="0 0 22 37" fill="none" xmlns="http://www.w3.org/2000/svg">
<path d="M21.9213 7.60468C22.1922 3.86514 19.3803 0.614062 15.6407 0.343196C11.9012 0.0723277 8.65012 2.88424 8.37925 6.62378L21.9213 7.60468ZM5.41576 21.9338L0.586892 26.7056L10.1304 36.3633L14.9592 31.5916L5.41576 21.9338ZM8.37925 6.62378C8.09277 10.5788 8.23636 13.0381 7.74318 16.2705C7.31007 19.1092 6.53269 20.8301 5.41576 21.9338L14.9592 31.5916C19.0445 27.5547 20.5279 22.4963 21.1654 18.3184C21.7428 14.5341 21.7667 9.73959 21.9213 7.60468L8.37925 6.62378Z" fill="#F9D4BC"/>
<path d="M21.9213 7.60468C22.1922 3.86514 19.3803 0.614062 15.6407 0.343196C11.9012 0.0723277 8.65012 2.88424 8.37925 6.62378L21.9213 7.60468ZM5.41576 21.9338L0.586892 26.7056L10.1304 36.3633L14.9592 31.5916L5.41576 21.9338ZM8.37925 6.62378C8.09277 10.5788 8.23636 13.0381 7.74318 16.2705C7.31007 19.1092 6.53269 20.8301 5.41576 21.9338L14.9592 31.5916C19.0445 27.5547 20.5279 22.4963 21.1654 18.3184C21.7428 14.5341 21.7667 9.73959 21.9213 7.60468L8.37925 6.62378Z" fill="url(#paint0_radial_2220_17001)" fill-opacity="0.51"/>
<path d="M21.9213 7.60468C22.1922 3.86514 19.3803 0.614062 15.6407 0.343196C11.9012 0.0723277 8.65012 2.88424 8.37925 6.62378L21.9213 7.60468ZM5.41576 21.9338L0.586892 26.7056L10.1304 36.3633L14.9592 31.5916L5.41576 21.9338ZM8.37925 6.62378C8.09277 10.5788 8.23636 13.0381 7.74318 16.2705C7.31007 19.1092 6.53269 20.8301 5.41576 21.9338L14.9592 31.5916C19.0445 27.5547 20.5279 22.4963 21.1654 18.3184C21.7428 14.5341 21.7667 9.73959 21.9213 7.60468L8.37925 6.62378Z" fill="url(#paint1_linear_2220_17001)" fill-opacity="0.33"/>
<path d="M21.9213 7.60468C22.1922 3.86514 19.3803 0.614062 15.6407 0.343196C11.9012 0.0723277 8.65012 2.88424 8.37925 6.62378L21.9213 7.60468ZM5.41576 21.9338L0.586892 26.7056L10.1304 36.3633L14.9592 31.5916L5.41576 21.9338ZM8.37925 6.62378C8.09277 10.5788 8.23636 13.0381 7.74318 16.2705C7.31007 19.1092 6.53269 20.8301 5.41576 21.9338L14.9592 31.5916C19.0445 27.5547 20.5279 22.4963 21.1654 18.3184C21.7428 14.5341 21.7667 9.73959 21.9213 7.60468L8.37925 6.62378Z" fill="#5C170D" fill-opacity="0.1"/>
<path d="M21.9213 7.60468C22.1922 3.86514 19.3803 0.614062 15.6407 0.343196C11.9012 0.0723277 8.65012 2.88424 8.37925 6.62378L21.9213 7.60468ZM5.41576 21.9338L0.586892 26.7056L10.1304 36.3633L14.9592 31.5916L5.41576 21.9338ZM8.37925 6.62378C8.09277 10.5788 8.23636 13.0381 7.74318 16.2705C7.31007 19.1092 6.53269 20.8301 5.41576 21.9338L14.9592 31.5916C19.0445 27.5547 20.5279 22.4963 21.1654 18.3184C21.7428 14.5341 21.7667 9.73959 21.9213 7.60468L8.37925 6.62378Z" fill="#FF9ABE" fill-opacity="0.13"/>
<defs>
<radialGradient id="paint0_radial_2220_17001" cx="0" cy="0" r="1" gradientUnits="userSpaceOnUse" gradientTransform="translate(-6.99606 24.0637) rotate(-141.409) scale(39.7177 67.9733)">
<stop offset="0.162651" stop-color="#5C170D"/>
<stop offset="0.453125" stop-color="#FEBA88"/>
<stop offset="1" stop-color="#5C170D"/>
</radialGradient>
<linearGradient id="paint1_linear_2220_17001" x1="7.01522" y1="14.3809" x2="22.5595" y2="17.3131" gradientUnits="userSpaceOnUse">
<stop stop-color="#914B3F"/>
<stop offset="1" stop-color="#FFF8F7" stop-opacity="0"/>
</linearGradient>
</defs>
</svg>
