<svg width="5" height="25" viewBox="0 0 5 25" fill="none" xmlns="http://www.w3.org/2000/svg">
<path d="M4.50517 2.45034C4.50517 3.56739 3.59962 4.47295 2.48257 4.47295C1.36551 4.47295 0.459961 3.56739 0.459961 2.45034C0.459961 1.33329 1.36551 0.427734 2.48257 0.427734C3.59962 0.427734 4.50517 1.33329 4.50517 2.45034Z" fill="#4E4B66"/>
<path d="M4.50517 12.5636C4.50517 13.6807 3.59962 14.5862 2.48257 14.5862C1.36551 14.5862 0.459961 13.6807 0.459961 12.5636C0.459961 11.4466 1.36551 10.541 2.48257 10.541C3.59962 10.541 4.50517 11.4466 4.50517 12.5636Z" fill="#4E4B66"/>
<path d="M4.50517 22.6769C4.50517 23.794 3.59962 24.6995 2.48257 24.6995C1.36551 24.6995 0.459961 23.794 0.459961 22.6769C0.459961 21.5598 1.36551 20.6543 2.48257 20.6543C3.59962 20.6543 4.50517 21.5598 4.50517 22.6769Z" fill="#4E4B66"/>
</svg>
