<svg width="25" height="40" viewBox="0 0 25 40" fill="none" xmlns="http://www.w3.org/2000/svg">
<path d="M23.2467 11.6277C23.4279 11.6277 23.6017 11.5574 23.7298 11.4322C23.8579 11.307 23.9299 11.1373 23.9299 10.9603V4.28892C23.9276 3.43849 23.589 2.62182 22.9849 2.00949C22.3808 1.39715 21.5578 1.03651 20.6879 1.00288C20.5928 1.01222 4.21914 0.986194 4.13792 1.01122C3.28729 1.06806 2.49039 1.43795 1.90802 2.04627C1.32565 2.65459 1.00115 3.45604 1 4.28892V35.9327C1.00102 36.8039 1.35577 37.6392 1.98642 38.2552C2.61707 38.8713 3.47212 39.2178 4.36399 39.2188H20.566C21.4579 39.2178 22.3129 38.8712 22.9435 38.2552C23.5742 37.6392 23.9289 36.8039 23.9299 35.9327V30.651C23.8975 29.7626 22.5909 29.7737 22.5634 30.651V35.9326C22.5628 36.4499 22.3522 36.9459 21.9778 37.3117C21.6033 37.6775 21.0956 37.8832 20.566 37.8838H4.36365C3.83415 37.8831 3.32654 37.6774 2.95214 37.3116C2.57775 36.9458 2.36714 36.45 2.3665 35.9327V4.28892C2.36713 3.84287 2.52394 3.41045 2.81089 3.06349C3.09785 2.71652 3.49767 2.47589 3.94396 2.38155L4.64259 3.25447C5.12943 3.86655 5.75345 4.36145 6.46668 4.70113C7.17992 5.04081 7.96339 5.21622 8.75687 5.2139H16.1735C16.967 5.21622 17.7504 5.04081 18.4637 4.70113C19.1769 4.36145 19.8009 3.86655 20.2878 3.25447L20.9864 2.38155C21.4326 2.47597 21.8323 2.71664 22.1192 3.0636C22.4061 3.41056 22.5628 3.84293 22.5634 4.28892V10.9603C22.5634 11.1373 22.6354 11.307 22.7635 11.4322C22.8917 11.5574 23.0655 11.6277 23.2467 11.6277ZM19.2109 2.43211C18.8514 2.88405 18.3907 3.24947 17.8641 3.50027C17.3375 3.75108 16.759 3.88059 16.1731 3.87886H8.75653C8.14996 3.87983 7.55175 3.74072 7.01069 3.47286C6.46964 3.20501 6.00107 2.816 5.64321 2.33758H19.2866L19.2109 2.43211Z" fill="#55B3FF" stroke="#55B3FF" stroke-width="0.2"/>
</svg>
