<svg width="21" height="20" viewBox="0 0 21 20" fill="none" xmlns="http://www.w3.org/2000/svg">
<path d="M11.0431 0C4.05857 0 -0.700021 7.07702 1.93521 13.5453L3.06178 16.3105C3.16259 16.558 3.0889 16.8422 2.88057 17.0096L0.498355 18.9227C0.298462 19.0832 0.221652 19.3524 0.306741 19.5943C0.39183 19.8361 0.620287 19.9979 0.876661 19.9979H10.3262C16.1536 19.9979 20.8778 15.2738 20.8778 9.44632C20.8778 4.22926 16.6485 0 11.4314 0H11.0431Z" fill="#55B3FF"/>
<path d="M11.0813 6.32518C10.9323 6.06838 10.5614 6.06838 10.4124 6.32518L9.36298 8.13374C9.28936 8.2606 9.16213 8.34717 9.01711 8.36908L7.0504 8.66612C6.72008 8.71601 6.60421 9.13308 6.86146 9.34621L8.32657 10.56C8.46219 10.6724 8.52596 10.8496 8.49302 11.0226L8.10977 13.0353C8.04918 13.3535 8.38318 13.6007 8.66976 13.4498L10.5217 12.4747C10.6626 12.4004 10.8311 12.4004 10.972 12.4747L12.8239 13.4498C13.1105 13.6007 13.4445 13.3535 13.3839 13.0353L13.0007 11.0226C12.9677 10.8496 13.0315 10.6724 13.1671 10.56L14.6322 9.34621C14.8895 9.13308 14.7736 8.71601 14.4433 8.66612L12.4766 8.36908C12.3316 8.34717 12.2043 8.2606 12.1307 8.13374L11.0813 6.32518Z" fill="white"/>
</svg>
