<svg width="49" height="42" viewBox="0 0 49 42" fill="none" xmlns="http://www.w3.org/2000/svg">
<g filter="url(#filter0_d_2220_17003)">
<path d="M1.39698 18.2688C2.00775 11.7457 8.94203 5.98894 12.2088 3.20339C6.85536 8.03534 7.78928 10.7625 7.4584 12.9934C7.15191 15.0598 8.35332 26.2343 22.0589 31.2044C33.0234 35.1805 42.1463 27.5453 44.349 22.7974L45.2337 23.6915L37.4234 33.4832L33.1541 38.3026C11.2686 47.8214 0.708431 25.6225 1.39698 18.2688Z" fill="#1A4276"/>
<path d="M1.39698 18.2688C2.00775 11.7457 8.94203 5.98894 12.2088 3.20339C6.85536 8.03534 7.78928 10.7625 7.4584 12.9934C7.15191 15.0598 8.35332 26.2343 22.0589 31.2044C33.0234 35.1805 42.1463 27.5453 44.349 22.7974L45.2337 23.6915L37.4234 33.4832L33.1541 38.3026C11.2686 47.8214 0.708431 25.6225 1.39698 18.2688Z" fill="url(#paint0_linear_2220_17003)" fill-opacity="0.29"/>
</g>
<defs>
<filter id="filter0_d_2220_17003" x="0.857561" y="0.155622" width="47.9315" height="41.4969" filterUnits="userSpaceOnUse" color-interpolation-filters="sRGB">
<feFlood flood-opacity="0" result="BackgroundImageFix"/>
<feColorMatrix in="SourceAlpha" type="matrix" values="0 0 0 0 0 0 0 0 0 0 0 0 0 0 0 0 0 0 127 0" result="hardAlpha"/>
<feOffset dx="1.52375" dy="-1.01583"/>
<feGaussianBlur stdDeviation="1.01583"/>
<feComposite in2="hardAlpha" operator="out"/>
<feColorMatrix type="matrix" values="0 0 0 0 0.00784314 0 0 0 0 0.180392 0 0 0 0 0.407843 0 0 0 0.18 0"/>
<feBlend mode="normal" in2="BackgroundImageFix" result="effect1_dropShadow_2220_17003"/>
<feBlend mode="normal" in="SourceGraphic" in2="effect1_dropShadow_2220_17003" result="shape"/>
</filter>
<linearGradient id="paint0_linear_2220_17003" x1="0.579599" y1="13.0385" x2="18.8861" y2="40.2551" gradientUnits="userSpaceOnUse">
<stop stop-color="#87C9FF"/>
<stop offset="1" stop-color="#00A3FF" stop-opacity="0"/>
</linearGradient>
</defs>
</svg>
