<svg width="18" height="13" viewBox="0 0 18 13" fill="none" xmlns="http://www.w3.org/2000/svg">
<path fill-rule="evenodd" clip-rule="evenodd" d="M9.47117 2.69267C11.9377 2.69278 14.31 3.66336 16.0976 5.4038C16.2322 5.53817 16.4474 5.53647 16.5799 5.4L17.8667 4.07008C17.9338 4.00086 17.9713 3.9071 17.9707 3.80955C17.9701 3.71199 17.9316 3.61869 17.8637 3.55028C13.1718 -1.05452 5.76978 -1.05452 1.07787 3.55028C1.0099 3.61863 0.971338 3.71191 0.970711 3.80947C0.970084 3.90702 1.00745 4.00081 1.07453 4.07008L2.36167 5.4C2.49416 5.53668 2.70949 5.53838 2.84402 5.4038C4.63186 3.66324 7.00437 2.69266 9.47117 2.69267ZM9.47115 7.01934C10.8264 7.01925 12.1332 7.53511 13.1378 8.46667C13.2736 8.59888 13.4877 8.59601 13.6201 8.46021L14.9054 7.13029C14.9731 7.06053 15.0107 6.9659 15.0097 6.86757C15.0087 6.76923 14.9693 6.6754 14.9002 6.60707C11.8411 3.69297 7.10377 3.69297 4.04469 6.60707C3.97559 6.6754 3.93616 6.76928 3.93526 6.86764C3.93435 6.96601 3.97204 7.06064 4.03987 7.13029L5.32478 8.46021C5.45723 8.59601 5.67126 8.59888 5.80713 8.46667C6.81102 7.53573 8.11684 7.01991 9.47115 7.01934ZM12.0458 9.93066C12.0478 10.0293 12.0099 10.1243 11.9412 10.1934L9.71789 12.4911C9.65272 12.5587 9.56386 12.5967 9.47115 12.5967C9.37844 12.5967 9.28958 12.5587 9.22441 12.4911L7.00076 10.1934C6.93207 10.1243 6.89428 10.0292 6.89632 9.93058C6.89836 9.83197 6.94004 9.73859 7.01152 9.67249C8.43139 8.44263 10.5109 8.44263 11.9308 9.67249C12.0022 9.73864 12.0438 9.83205 12.0458 9.93066Z" fill="white"/>
</svg>
