<svg width="18" height="13" viewBox="0 0 18 13" fill="none" xmlns="http://www.w3.org/2000/svg">
<path fill-rule="evenodd" clip-rule="evenodd" d="M8.57859 2.84599C11.0451 2.8461 13.4174 3.81668 15.205 5.55712C15.3396 5.69149 15.5548 5.68979 15.6874 5.55332L16.9741 4.2234C17.0413 4.15418 17.0787 4.06042 17.0781 3.96287C17.0776 3.86531 17.0391 3.77201 16.9712 3.7036C12.2792 -0.901199 4.8772 -0.901199 0.185288 3.7036C0.117322 3.77196 0.0787595 3.86523 0.0781328 3.96279C0.077506 4.06034 0.114867 4.15413 0.181949 4.2234L1.46909 5.55332C1.60158 5.69 1.81691 5.6917 1.95144 5.55712C3.73928 3.81656 6.11179 2.84598 8.57859 2.84599ZM8.57858 7.17266C9.93379 7.17257 11.2406 7.68843 12.2452 8.61999C12.3811 8.7522 12.5951 8.74933 12.7275 8.61353L14.0128 7.28361C14.0805 7.21386 14.1181 7.11922 14.1171 7.02089C14.1161 6.92255 14.0767 6.82872 14.0076 6.76039C10.9486 3.84629 6.21119 3.84629 3.15211 6.76039C3.08301 6.82872 3.04359 6.9226 3.04268 7.02097C3.04177 7.11933 3.07946 7.21396 3.14729 7.28361L4.4322 8.61353C4.56465 8.74933 4.77868 8.7522 4.91455 8.61999C5.91845 7.68905 7.22426 7.17323 8.57858 7.17266ZM11.1532 10.084C11.1552 10.1826 11.1173 10.2777 11.0486 10.3468L8.82531 12.6445C8.76014 12.712 8.67128 12.75 8.57857 12.75C8.48586 12.75 8.397 12.712 8.33183 12.6445L6.10818 10.3468C6.03949 10.2776 6.0017 10.1825 6.00374 10.0839C6.00578 9.98529 6.04746 9.89191 6.11894 9.82581C7.53881 8.59595 9.61833 8.59595 11.0382 9.82581C11.1096 9.89196 11.1512 9.98537 11.1532 10.084Z" fill="white"/>
</svg>
