<svg width="18" height="13" viewBox="0 0 18 13" fill="none" xmlns="http://www.w3.org/2000/svg">
<path fill-rule="evenodd" clip-rule="evenodd" d="M8.82749 2.84599C11.294 2.8461 13.6663 3.81668 15.4539 5.55712C15.5885 5.69149 15.8037 5.68979 15.9363 5.55332L17.223 4.2234C17.2902 4.15418 17.3276 4.06042 17.327 3.96287C17.3265 3.86531 17.288 3.77201 17.2201 3.7036C12.5281 -0.901199 5.1261 -0.901199 0.434189 3.7036C0.366224 3.77196 0.327661 3.86523 0.327034 3.96279C0.326407 4.06034 0.363768 4.15413 0.43085 4.2234L1.71799 5.55332C1.85048 5.69 2.06581 5.6917 2.20034 5.55712C3.98818 3.81656 6.36069 2.84598 8.82749 2.84599ZM8.82748 7.17266C10.1827 7.17257 11.4895 7.68843 12.4941 8.61999C12.63 8.7522 12.844 8.74933 12.9764 8.61353L14.2617 7.28361C14.3294 7.21386 14.367 7.11922 14.366 7.02089C14.365 6.92255 14.3256 6.82872 14.2565 6.76039C11.1975 3.84629 6.46009 3.84629 3.40101 6.76039C3.33191 6.82872 3.29249 6.9226 3.29158 7.02097C3.29067 7.11933 3.32836 7.21396 3.39619 7.28361L4.6811 8.61353C4.81355 8.74933 5.02758 8.7522 5.16345 8.61999C6.16735 7.68905 7.47316 7.17323 8.82748 7.17266ZM11.4021 10.084C11.4041 10.1826 11.3662 10.2777 11.2975 10.3468L9.07421 12.6445C9.00904 12.712 8.92019 12.75 8.82747 12.75C8.73476 12.75 8.6459 12.712 8.58073 12.6445L6.35709 10.3468C6.28839 10.2776 6.25061 10.1825 6.25264 10.0839C6.25468 9.98529 6.29636 9.89191 6.36785 9.82581C7.78771 8.59595 9.86723 8.59595 11.2871 9.82581C11.3585 9.89196 11.4001 9.98537 11.4021 10.084Z" fill="black"/>
</svg>
