<svg width="18" height="13" viewBox="0 0 18 13" fill="none" xmlns="http://www.w3.org/2000/svg">
<path fill-rule="evenodd" clip-rule="evenodd" d="M9.47105 2.68974C11.9376 2.68985 14.3098 3.66043 16.0975 5.40087C16.2321 5.53524 16.4472 5.53354 16.5798 5.39707L17.8666 4.06715C17.9337 3.99793 17.9711 3.90417 17.9706 3.80662C17.97 3.70906 17.9315 3.61576 17.8636 3.54735C13.1717 -1.05745 5.76966 -1.05745 1.07774 3.54735C1.00978 3.61571 0.971216 3.70898 0.970589 3.80654C0.969962 3.90409 1.00732 3.99788 1.0744 4.06715L2.36154 5.39707C2.49404 5.53375 2.70937 5.53545 2.8439 5.40087C4.63174 3.66031 7.00425 2.68973 9.47105 2.68974ZM9.47103 7.01641C10.8262 7.01632 12.1331 7.53218 13.1377 8.46374C13.2735 8.59595 13.4876 8.59308 13.62 8.45728L14.9053 7.12736C14.973 7.05761 15.0105 6.96297 15.0096 6.86464C15.0086 6.7663 14.9691 6.67247 14.9001 6.60414C11.841 3.69004 7.10364 3.69004 4.04457 6.60414C3.97547 6.67247 3.93604 6.76635 3.93514 6.86472C3.93423 6.96308 3.97192 7.05771 4.03974 7.12736L5.32466 8.45728C5.4571 8.59308 5.67114 8.59595 5.80701 8.46374C6.8109 7.5328 8.11671 7.01698 9.47103 7.01641ZM12.0457 9.92773C12.0476 10.0263 12.0098 10.1214 11.941 10.1905L9.71777 12.4882C9.6526 12.5557 9.56374 12.5938 9.47103 12.5938C9.37831 12.5938 9.28946 12.5557 9.22429 12.4882L7.00064 10.1905C6.93195 10.1214 6.89416 10.0263 6.8962 9.92765C6.89823 9.82904 6.93992 9.73566 7.0114 9.66956C8.43127 8.4397 10.5108 8.4397 11.9307 9.66956C12.0021 9.73571 12.0437 9.82912 12.0457 9.92773Z" fill="white"/>
</svg>
