<svg width="18" height="14" viewBox="0 0 18 14" fill="none" xmlns="http://www.w3.org/2000/svg">
<path fill-rule="evenodd" clip-rule="evenodd" d="M9.47105 3.26298C11.9376 3.26309 14.3098 4.23367 16.0975 5.97411C16.2321 6.10848 16.4472 6.10679 16.5798 5.97031L17.8666 4.6404C17.9337 4.57118 17.9711 4.47742 17.9706 4.37986C17.97 4.2823 17.9315 4.189 17.8636 4.12059C13.1717 -0.484206 5.76966 -0.484206 1.07774 4.12059C1.00978 4.18895 0.971216 4.28223 0.970589 4.37978C0.969962 4.47734 1.00732 4.57113 1.0744 4.6404L2.36154 5.97031C2.49404 6.10699 2.70937 6.10869 2.8439 5.97411C4.63174 4.23356 7.00425 3.26298 9.47105 3.26298ZM9.47103 7.58965C10.8262 7.58957 12.1331 8.10542 13.1377 9.03698C13.2735 9.16919 13.4876 9.16632 13.62 9.03052L14.9053 7.70061C14.973 7.63085 15.0105 7.53621 15.0096 7.43788C15.0086 7.33954 14.9691 7.24571 14.9001 7.17738C11.841 4.26329 7.10364 4.26329 4.04457 7.17738C3.97547 7.24571 3.93604 7.33959 3.93514 7.43796C3.93423 7.53632 3.97192 7.63095 4.03974 7.70061L5.32466 9.03052C5.4571 9.16632 5.67114 9.16919 5.80701 9.03698C6.8109 8.10604 8.11671 7.59023 9.47103 7.58965ZM12.0457 10.501C12.0476 10.5996 12.0098 10.6947 11.941 10.7637L9.71777 13.0615C9.6526 13.129 9.56374 13.167 9.47103 13.167C9.37831 13.167 9.28946 13.129 9.22429 13.0615L7.00064 10.7637C6.93195 10.6946 6.89416 10.5995 6.8962 10.5009C6.89823 10.4023 6.93992 10.3089 7.0114 10.2428C8.43127 9.01295 10.5108 9.01295 11.9307 10.2428C12.0021 10.309 12.0437 10.4024 12.0457 10.501Z" fill="black"/>
</svg>
