<svg width="18" height="13" viewBox="0 0 18 13" fill="none" xmlns="http://www.w3.org/2000/svg">
<path fill-rule="evenodd" clip-rule="evenodd" d="M8.57847 2.84599C11.045 2.8461 13.4173 3.81668 15.2049 5.55712C15.3395 5.69149 15.5547 5.68979 15.6872 5.55332L16.974 4.2234C17.0411 4.15418 17.0786 4.06042 17.078 3.96287C17.0774 3.86531 17.0389 3.77201 16.971 3.7036C12.2791 -0.901199 4.87708 -0.901199 0.185166 3.7036C0.1172 3.77196 0.0786374 3.86523 0.0780107 3.96279C0.077384 4.06034 0.114745 4.15413 0.181827 4.2234L1.46897 5.55332C1.60146 5.69 1.81679 5.6917 1.95132 5.55712C3.73916 3.81656 6.11167 2.84598 8.57847 2.84599ZM8.57845 7.17266C9.93367 7.17257 11.2405 7.68843 12.2451 8.61999C12.3809 8.7522 12.595 8.74933 12.7274 8.61353L14.0127 7.28361C14.0804 7.21386 14.118 7.11922 14.117 7.02089C14.116 6.92255 14.0766 6.82872 14.0075 6.76039C10.9484 3.84629 6.21107 3.84629 3.15199 6.76039C3.08289 6.82872 3.04346 6.9226 3.04256 7.02097C3.04165 7.11933 3.07934 7.21396 3.14717 7.28361L4.43208 8.61353C4.56453 8.74933 4.77856 8.7522 4.91443 8.61999C5.91832 7.68905 7.22414 7.17323 8.57845 7.17266ZM11.1531 10.084C11.1551 10.1826 11.1172 10.2777 11.0485 10.3468L8.82519 12.6445C8.76002 12.712 8.67116 12.75 8.57845 12.75C8.48574 12.75 8.39688 12.712 8.33171 12.6445L6.10806 10.3468C6.03937 10.2776 6.00158 10.1825 6.00362 10.0839C6.00566 9.98529 6.04734 9.89191 6.11882 9.82581C7.53869 8.59595 9.61821 8.59595 11.0381 9.82581C11.1095 9.89196 11.1511 9.98537 11.1531 10.084Z" fill="black"/>
</svg>
