<svg width="18" height="13" viewBox="0 0 18 13" fill="none" xmlns="http://www.w3.org/2000/svg">
<path fill-rule="evenodd" clip-rule="evenodd" d="M9.47117 2.68925C11.9377 2.68936 14.31 3.65994 16.0976 5.40038C16.2322 5.53475 16.4474 5.53305 16.5799 5.39658L17.8667 4.06666C17.9338 3.99745 17.9713 3.90368 17.9707 3.80613C17.9701 3.70857 17.9316 3.61527 17.8637 3.54686C13.1718 -1.05794 5.76978 -1.05794 1.07787 3.54686C1.0099 3.61522 0.971338 3.70849 0.970711 3.80605C0.970084 3.90361 1.00745 3.9974 1.07453 4.06666L2.36167 5.39658C2.49416 5.53326 2.70949 5.53496 2.84402 5.40038C4.63186 3.65983 7.00437 2.68925 9.47117 2.68925ZM9.47115 7.01592C10.8264 7.01584 12.1332 7.53169 13.1378 8.46325C13.2736 8.59546 13.4877 8.59259 13.6201 8.45679L14.9054 7.12687C14.9731 7.05712 15.0107 6.96248 15.0097 6.86415C15.0087 6.76581 14.9693 6.67198 14.9002 6.60365C11.8411 3.68956 7.10377 3.68956 4.04469 6.60365C3.97559 6.67198 3.93616 6.76586 3.93526 6.86423C3.93435 6.96259 3.97204 7.05722 4.03987 7.12687L5.32478 8.45679C5.45723 8.59259 5.67126 8.59546 5.80713 8.46325C6.81102 7.53231 8.11684 7.0165 9.47115 7.01592ZM12.0458 9.92724C12.0478 10.0259 12.0099 10.1209 11.9412 10.19L9.71789 12.4877C9.65272 12.5553 9.56386 12.5933 9.47115 12.5933C9.37844 12.5933 9.28958 12.5553 9.22441 12.4877L7.00076 10.19C6.93207 10.1209 6.89428 10.0258 6.89632 9.92716C6.89836 9.82855 6.94004 9.73517 7.01152 9.66907C8.43139 8.43922 10.5109 8.43922 11.9308 9.66907C12.0022 9.73522 12.0438 9.82863 12.0458 9.92724Z" fill="white"/>
</svg>
