<svg width="18" height="13" viewBox="0 0 18 13" fill="none" xmlns="http://www.w3.org/2000/svg">
<path fill-rule="evenodd" clip-rule="evenodd" d="M9.40379 2.84599C11.8703 2.8461 14.2426 3.81668 16.0302 5.55712C16.1648 5.69149 16.38 5.68979 16.5125 5.55332L17.7993 4.2234C17.8664 4.15418 17.9039 4.06042 17.9033 3.96287C17.9028 3.86531 17.8643 3.77201 17.7963 3.7036C13.1044 -0.901199 5.7024 -0.901199 1.01048 3.7036C0.942518 3.77196 0.903955 3.86523 0.903328 3.96279C0.902701 4.06034 0.940062 4.15413 1.00714 4.2234L2.29428 5.55332C2.42678 5.69 2.6421 5.6917 2.77664 5.55712C4.56448 3.81656 6.93699 2.84598 9.40379 2.84599ZM9.40377 7.17266C10.759 7.17257 12.0658 7.68843 13.0704 8.61999C13.2063 8.7522 13.4203 8.74933 13.5527 8.61353L14.838 7.28361C14.9057 7.21386 14.9433 7.11922 14.9423 7.02089C14.9413 6.92255 14.9019 6.82872 14.8328 6.76039C11.7738 3.84629 7.03638 3.84629 3.97731 6.76039C3.90821 6.82872 3.86878 6.9226 3.86787 7.02097C3.86697 7.11933 3.90465 7.21396 3.97248 7.28361L5.2574 8.61353C5.38984 8.74933 5.60388 8.7522 5.73975 8.61999C6.74364 7.68905 8.04945 7.17323 9.40377 7.17266ZM11.9784 10.084C11.9804 10.1826 11.9425 10.2777 11.8738 10.3468L9.65051 12.6445C9.58533 12.712 9.49648 12.75 9.40377 12.75C9.31105 12.75 9.2222 12.712 9.15702 12.6445L6.93338 10.3468C6.86469 10.2776 6.8269 10.1825 6.82894 10.0839C6.83097 9.98529 6.87265 9.89191 6.94414 9.82581C8.36401 8.59595 10.4435 8.59595 11.8634 9.82581C11.9348 9.89196 11.9764 9.98537 11.9784 10.084Z" fill="white"/>
</svg>
