<svg width="18" height="13" viewBox="0 0 18 13" fill="none" xmlns="http://www.w3.org/2000/svg">
<path fill-rule="evenodd" clip-rule="evenodd" d="M9.47105 2.78544C11.9376 2.78555 14.3098 3.75613 16.0975 5.49657C16.2321 5.63094 16.4472 5.62925 16.5798 5.49277L17.8666 4.16286C17.9337 4.09364 17.9711 3.99988 17.9706 3.90232C17.97 3.80477 17.9315 3.71146 17.8636 3.64305C13.1717 -0.961746 5.76966 -0.961746 1.07774 3.64305C1.00978 3.71141 0.971216 3.80469 0.970589 3.90224C0.969962 3.9998 1.00732 4.09359 1.0744 4.16286L2.36154 5.49277C2.49404 5.62945 2.70937 5.63115 2.8439 5.49657C4.63174 3.75602 7.00425 2.78544 9.47105 2.78544ZM9.47103 7.11211C10.8262 7.11203 12.1331 7.62788 13.1377 8.55944C13.2735 8.69165 13.4876 8.68879 13.62 8.55298L14.9053 7.22307C14.973 7.15331 15.0105 7.05868 15.0096 6.96034C15.0086 6.862 14.9691 6.76817 14.9001 6.69984C11.841 3.78575 7.10364 3.78575 4.04457 6.69984C3.97547 6.76817 3.93604 6.86205 3.93514 6.96042C3.93423 7.05879 3.97192 7.15341 4.03974 7.22307L5.32466 8.55298C5.4571 8.68879 5.67114 8.69165 5.80701 8.55944C6.8109 7.6285 8.11671 7.11269 9.47103 7.11211ZM12.0457 10.0234C12.0476 10.122 12.0098 10.2171 11.941 10.2862L9.71777 12.5839C9.6526 12.6514 9.56374 12.6895 9.47103 12.6895C9.37831 12.6895 9.28946 12.6514 9.22429 12.5839L7.00064 10.2862C6.93195 10.2171 6.89416 10.122 6.8962 10.0234C6.89823 9.92474 6.93992 9.83136 7.0114 9.76526C8.43127 8.53541 10.5108 8.53541 11.9307 9.76526C12.0021 9.83141 12.0437 9.92482 12.0457 10.0234Z" fill="white"/>
</svg>
