<svg width="18" height="13" viewBox="0 0 18 13" fill="none" xmlns="http://www.w3.org/2000/svg">
<path fill-rule="evenodd" clip-rule="evenodd" d="M8.64976 2.84599C11.1163 2.8461 13.4886 3.81668 15.2762 5.55712C15.4108 5.69149 15.6259 5.68979 15.7585 5.55332L17.0453 4.2234C17.1124 4.15418 17.1498 4.06042 17.1493 3.96287C17.1487 3.86531 17.1102 3.77201 17.0423 3.7036C12.3504 -0.901199 4.94837 -0.901199 0.256455 3.7036C0.188489 3.77196 0.149926 3.86523 0.1493 3.96279C0.148673 4.06034 0.186034 4.15413 0.253116 4.2234L1.54025 5.55332C1.67275 5.69 1.88808 5.6917 2.02261 5.55712C3.81045 3.81656 6.18296 2.84598 8.64976 2.84599ZM8.64974 7.17266C10.005 7.17257 11.3118 7.68843 12.3164 8.61999C12.4522 8.7522 12.6663 8.74933 12.7987 8.61353L14.084 7.28361C14.1517 7.21386 14.1892 7.11922 14.1883 7.02089C14.1873 6.92255 14.1479 6.82872 14.0788 6.76039C11.0197 3.84629 6.28236 3.84629 3.22328 6.76039C3.15418 6.82872 3.11475 6.9226 3.11385 7.02097C3.11294 7.11933 3.15063 7.21396 3.21845 7.28361L4.50337 8.61353C4.63582 8.74933 4.84985 8.7522 4.98572 8.61999C5.98961 7.68905 7.29543 7.17323 8.64974 7.17266ZM11.2244 10.084C11.2263 10.1826 11.1885 10.2777 11.1198 10.3468L8.89648 12.6445C8.83131 12.712 8.74245 12.75 8.64974 12.75C8.55702 12.75 8.46817 12.712 8.403 12.6445L6.17935 10.3468C6.11066 10.2776 6.07287 10.1825 6.07491 10.0839C6.07694 9.98529 6.11863 9.89191 6.19011 9.82581C7.60998 8.59595 9.6895 8.59595 11.1094 9.82581C11.1808 9.89196 11.2224 9.98537 11.2244 10.084Z" fill="black"/>
</svg>
