<svg width="18" height="13" viewBox="0 0 18 13" fill="none" xmlns="http://www.w3.org/2000/svg">
<path fill-rule="evenodd" clip-rule="evenodd" d="M9.13902 2.84599C11.6056 2.8461 13.9778 3.81668 15.7654 5.55712C15.9 5.69149 16.1152 5.68979 16.2478 5.55332L17.5345 4.2234C17.6017 4.15418 17.6391 4.06042 17.6385 3.96287C17.638 3.86531 17.5995 3.77201 17.5316 3.7036C12.8397 -0.901199 5.43763 -0.901199 0.745713 3.7036C0.677747 3.77196 0.639184 3.86523 0.638558 3.96279C0.637931 4.06034 0.675292 4.15413 0.742373 4.2234L2.02951 5.55332C2.16201 5.69 2.37733 5.6917 2.51186 5.55712C4.29971 3.81656 6.67222 2.84598 9.13902 2.84599ZM9.139 7.17266C10.4942 7.17257 11.8011 7.68843 12.8056 8.61999C12.9415 8.7522 13.1555 8.74933 13.288 8.61353L14.5733 7.28361C14.6409 7.21386 14.6785 7.11922 14.6775 7.02089C14.6765 6.92255 14.6371 6.82872 14.5681 6.76039C11.509 3.84629 6.77161 3.84629 3.71254 6.76039C3.64344 6.82872 3.60401 6.9226 3.6031 7.02097C3.6022 7.11933 3.63988 7.21396 3.70771 7.28361L4.99262 8.61353C5.12507 8.74933 5.33911 8.7522 5.47498 8.61999C6.47887 7.68905 7.78468 7.17323 9.139 7.17266ZM11.7136 10.084C11.7156 10.1826 11.6777 10.2777 11.609 10.3468L9.38574 12.6445C9.32056 12.712 9.23171 12.75 9.139 12.75C9.04628 12.75 8.95743 12.712 8.89225 12.6445L6.66861 10.3468C6.59992 10.2776 6.56213 10.1825 6.56417 10.0839C6.5662 9.98529 6.60788 9.89191 6.67937 9.82581C8.09923 8.59595 10.1788 8.59595 11.5986 9.82581C11.6701 9.89196 11.7117 9.98537 11.7136 10.084Z" fill="black"/>
</svg>
