<svg width="18" height="13" viewBox="0 0 18 13" fill="none" xmlns="http://www.w3.org/2000/svg">
<path fill-rule="evenodd" clip-rule="evenodd" d="M8.72117 2.84599C11.1877 2.8461 13.56 3.81668 15.3476 5.55712C15.4822 5.69149 15.6974 5.68979 15.8299 5.55332L17.1167 4.2234C17.1838 4.15418 17.2213 4.06042 17.2207 3.96287C17.2201 3.86531 17.1816 3.77201 17.1137 3.7036C12.4218 -0.901199 5.01978 -0.901199 0.327866 3.7036C0.2599 3.77196 0.221338 3.86523 0.220711 3.96279C0.220084 4.06034 0.257445 4.15413 0.324527 4.2234L1.61167 5.55332C1.74416 5.69 1.95949 5.6917 2.09402 5.55712C3.88186 3.81656 6.25437 2.84598 8.72117 2.84599ZM8.72115 7.17266C10.0764 7.17257 11.3832 7.68843 12.3878 8.61999C12.5236 8.7522 12.7377 8.74933 12.8701 8.61353L14.1554 7.28361C14.2231 7.21386 14.2607 7.11922 14.2597 7.02089C14.2587 6.92255 14.2193 6.82872 14.1502 6.76039C11.0911 3.84629 6.35377 3.84629 3.29469 6.76039C3.22559 6.82872 3.18616 6.9226 3.18526 7.02097C3.18435 7.11933 3.22204 7.21396 3.28987 7.28361L4.57478 8.61353C4.70723 8.74933 4.92126 8.7522 5.05713 8.61999C6.06102 7.68905 7.36684 7.17323 8.72115 7.17266ZM11.2958 10.084C11.2978 10.1826 11.2599 10.2777 11.1912 10.3468L8.96789 12.6445C8.90272 12.712 8.81386 12.75 8.72115 12.75C8.62844 12.75 8.53958 12.712 8.47441 12.6445L6.25076 10.3468C6.18207 10.2776 6.14428 10.1825 6.14632 10.0839C6.14836 9.98529 6.19004 9.89191 6.26152 9.82581C7.68139 8.59595 9.76091 8.59595 11.1808 9.82581C11.2522 9.89196 11.2938 9.98537 11.2958 10.084Z" fill="black"/>
</svg>
