<svg width="18" height="13" viewBox="0 0 18 13" fill="none" xmlns="http://www.w3.org/2000/svg">
<path fill-rule="evenodd" clip-rule="evenodd" d="M9.47117 2.68974C11.9377 2.68985 14.31 3.66043 16.0976 5.40087C16.2322 5.53524 16.4474 5.53354 16.5799 5.39707L17.8667 4.06715C17.9338 3.99793 17.9713 3.90417 17.9707 3.80662C17.9701 3.70906 17.9316 3.61576 17.8637 3.54735C13.1718 -1.05745 5.76978 -1.05745 1.07787 3.54735C1.0099 3.61571 0.971338 3.70898 0.970711 3.80654C0.970084 3.90409 1.00745 3.99788 1.07453 4.06715L2.36167 5.39707C2.49416 5.53375 2.70949 5.53545 2.84402 5.40087C4.63186 3.66031 7.00437 2.68973 9.47117 2.68974ZM9.47115 7.01641C10.8264 7.01632 12.1332 7.53218 13.1378 8.46374C13.2736 8.59595 13.4877 8.59308 13.6201 8.45728L14.9054 7.12736C14.9731 7.05761 15.0107 6.96297 15.0097 6.86464C15.0087 6.7663 14.9693 6.67247 14.9002 6.60414C11.8411 3.69004 7.10377 3.69004 4.04469 6.60414C3.97559 6.67247 3.93616 6.76635 3.93526 6.86472C3.93435 6.96308 3.97204 7.05771 4.03987 7.12736L5.32478 8.45728C5.45723 8.59308 5.67126 8.59595 5.80713 8.46374C6.81102 7.5328 8.11684 7.01698 9.47115 7.01641ZM12.0458 9.92773C12.0478 10.0263 12.0099 10.1214 11.9412 10.1905L9.71789 12.4882C9.65272 12.5557 9.56386 12.5938 9.47115 12.5938C9.37844 12.5938 9.28958 12.5557 9.22441 12.4882L7.00076 10.1905C6.93207 10.1214 6.89428 10.0263 6.89632 9.92765C6.89836 9.82904 6.94004 9.73566 7.01152 9.66956C8.43139 8.4397 10.5109 8.4397 11.9308 9.66956C12.0022 9.73571 12.0438 9.82912 12.0458 9.92773Z" fill="white"/>
</svg>
