<svg width="18" height="13" viewBox="0 0 18 13" fill="none" xmlns="http://www.w3.org/2000/svg">
<path fill-rule="evenodd" clip-rule="evenodd" d="M9.47105 2.68925C11.9376 2.68936 14.3098 3.65994 16.0975 5.40038C16.2321 5.53475 16.4472 5.53305 16.5798 5.39658L17.8666 4.06666C17.9337 3.99745 17.9711 3.90368 17.9706 3.80613C17.97 3.70857 17.9315 3.61527 17.8636 3.54686C13.1717 -1.05794 5.76966 -1.05794 1.07774 3.54686C1.00978 3.61522 0.971216 3.70849 0.970589 3.80605C0.969962 3.90361 1.00732 3.9974 1.0744 4.06666L2.36154 5.39658C2.49404 5.53326 2.70937 5.53496 2.8439 5.40038C4.63174 3.65983 7.00425 2.68925 9.47105 2.68925ZM9.47103 7.01592C10.8262 7.01584 12.1331 7.53169 13.1377 8.46325C13.2735 8.59546 13.4876 8.59259 13.62 8.45679L14.9053 7.12687C14.973 7.05712 15.0105 6.96248 15.0096 6.86415C15.0086 6.76581 14.9691 6.67198 14.9001 6.60365C11.841 3.68956 7.10364 3.68956 4.04457 6.60365C3.97547 6.67198 3.93604 6.76586 3.93514 6.86423C3.93423 6.96259 3.97192 7.05722 4.03974 7.12687L5.32466 8.45679C5.4571 8.59259 5.67114 8.59546 5.80701 8.46325C6.8109 7.53231 8.11671 7.0165 9.47103 7.01592ZM12.0457 9.92724C12.0476 10.0259 12.0098 10.1209 11.941 10.19L9.71777 12.4877C9.6526 12.5553 9.56374 12.5933 9.47103 12.5933C9.37831 12.5933 9.28946 12.5553 9.22429 12.4877L7.00064 10.19C6.93195 10.1209 6.89416 10.0258 6.8962 9.92716C6.89823 9.82855 6.93992 9.73517 7.0114 9.66907C8.43127 8.43922 10.5108 8.43922 11.9307 9.66907C12.0021 9.73522 12.0437 9.82863 12.0457 9.92724Z" fill="white"/>
</svg>
